<svg width="42" height="19" viewBox="0 0 42 19" fill="none" xmlns="http://www.w3.org/2000/svg">
<path fill-rule="evenodd" clip-rule="evenodd" d="M7.67424 3.05696C7.182 3.64345 6.39441 4.10604 5.60682 4.03996C5.50837 3.24695 5.89396 2.40438 6.34518 1.88396C6.83743 1.28095 7.69885 0.851401 8.3962 0.818359C8.47824 1.64441 8.15828 2.45394 7.67424 3.05696ZM8.38793 4.1969C7.69408 4.15669 7.06097 4.40701 6.54959 4.60919C6.2205 4.7393 5.94183 4.84948 5.72982 4.84948C5.4919 4.84948 5.20172 4.73341 4.87591 4.60309C4.449 4.43232 3.96092 4.23709 3.44909 4.24646C2.27591 4.26299 1.18477 4.93209 0.585879 5.99769C-0.644728 8.1289 0.265922 11.2844 1.45551 13.0191C2.038 13.8782 2.73534 14.8199 3.65419 14.7869C4.05843 14.7715 4.34922 14.6473 4.65016 14.5187C4.99662 14.3707 5.35653 14.2169 5.91851 14.2169C6.46101 14.2169 6.80518 14.3667 7.13556 14.5104C7.44971 14.6471 7.75139 14.7784 8.19924 14.7703C9.1509 14.7538 9.7498 13.9112 10.3323 13.0522C10.9609 12.1301 11.2371 11.2303 11.279 11.0937L11.284 11.0779C11.283 11.0769 11.2752 11.0733 11.2615 11.067C11.0513 10.9701 9.44525 10.2298 9.42984 8.24454C9.41438 6.57822 10.7038 5.73395 10.9067 5.60105C10.9191 5.59296 10.9274 5.58751 10.9312 5.58466C10.1108 4.36211 8.83095 4.22994 8.38793 4.1969ZM14.9758 14.6795V1.80136H19.7752C22.2528 1.80136 23.9839 3.51954 23.9839 6.03074C23.9839 8.54193 22.22 10.2766 19.7096 10.2766H16.9612V14.6795H14.9758ZM16.9611 3.4865H19.25C20.9728 3.4865 21.9573 4.41167 21.9573 6.03899C21.9573 7.66631 20.9728 8.59974 19.2418 8.59974H16.9611V3.4865ZM30.539 13.1348C30.014 14.1425 28.8572 14.7786 27.6102 14.7786C25.7643 14.7786 24.4762 13.6717 24.4762 12.0031C24.4762 10.351 25.7232 9.40102 28.0286 9.26059L30.5062 9.1119V8.4015C30.5062 7.35242 29.8253 6.78245 28.6111 6.78245C27.6102 6.78245 26.88 7.30286 26.7323 8.09586H24.9439C25.0013 6.42724 26.5601 5.21295 28.6685 5.21295C30.941 5.21295 32.4177 6.41072 32.4177 8.26933V14.6795H30.58V13.1348H30.539ZM28.1433 13.2504C27.085 13.2504 26.4122 12.7383 26.4122 11.9535C26.4122 11.144 27.0604 10.6731 28.2992 10.5988L30.5061 10.4584V11.1853C30.5061 12.3913 29.4888 13.2504 28.1433 13.2504ZM38.5133 15.1834C37.7175 17.4385 36.8068 18.1819 34.8707 18.1819C34.723 18.1819 34.2308 18.1654 34.1159 18.1324V16.5877C34.239 16.6042 34.5425 16.6207 34.6984 16.6207C35.5762 16.6207 36.0685 16.249 36.372 15.2825L36.5525 14.7125L33.1888 5.33687H35.2645L37.6026 12.9448H37.6436L39.9818 5.33687H42L38.5133 15.1834Z" fill="white"/>
</svg>
