<svg xmlns="http://www.w3.org/2000/svg" width="399.676" height="391.617" viewBox="0 0 399.676 391.617">
  <g id="Group_5" data-name="Group 5" transform="translate(-2627.368 46.401)">
    <path id="Path_201" data-name="Path 201" d="M776.286,422.579c-4.776,1.68-12.295,2.919-15.567-1.238A13.355,13.355,0,0,1,759.3,409.4a11.4,11.4,0,0,1,3.184-5.4h.531c3.1,0,5.661-1.062,8.845,0a13.266,13.266,0,0,1,5.661,5.13c2.389,3.8,4.157,11.5-1.415,13.444m8.049-13.8a19.726,19.726,0,0,0-9.376-9.906,14.682,14.682,0,0,0-8.844-1.327l-5.307.708a13.8,13.8,0,0,0-5.926,6.368A21.847,21.847,0,0,0,754,424.348a18.486,18.486,0,0,0,23.793,5.661,16.186,16.186,0,0,0,6.456-21.228" transform="translate(2053.631 -283.452)"/>
    <path id="Path_202" data-name="Path 202" d="M858.539,476.681a57.048,57.048,0,0,1-31.488,22.82,53.071,53.071,0,0,1-35.38-1.239c-17.69-7.341-40.6-22.554-37.945-44.932a74.038,74.038,0,0,1,12.825-31.753l3.8-5.13,2.653-1.769,2.919-3.45a54.372,54.372,0,0,1,5.926-5.218l3.184-1.769a65.878,65.878,0,0,1,18.486-4.069A47.231,47.231,0,0,1,840.5,410.343a69.427,69.427,0,0,1,20.343,31.311,40.86,40.86,0,0,1-1.946,35.38m12.648-23.969a74.822,74.822,0,0,0-17.689-39.979,55.726,55.726,0,0,0-37.326-20.166,90.749,90.749,0,0,0-22.378,2.3,39.977,39.977,0,0,0-10.526,3.1,28.488,28.488,0,0,0-7.607,6.192,50.938,50.938,0,0,0-9.906,8.844l-.8.885a86.868,86.868,0,0,0-16.982,30.781,39.355,39.355,0,0,0,4.6,33.522A70.76,70.76,0,0,0,780.705,501.8a64.212,64.212,0,0,0,37.857,7.7,68.637,68.637,0,0,0,39.361-19.459A45.372,45.372,0,0,0,871.366,452.8" transform="translate(2010.472 -318.449)"/>
    <path id="Path_203" data-name="Path 203" d="M921.57,543.429c-7.076,7.7-14.417,15.213-21.847,22.554a80.684,80.684,0,0,1-24.235,17.69,51.86,51.86,0,0,1-14.064,3.361,73.939,73.939,0,0,1-16.54,0,62.8,62.8,0,0,1-29.9-10.614A116.071,116.071,0,0,1,802.518,565.1a81.119,81.119,0,0,0-13.444-10.349,67.677,67.677,0,0,1-22.289-16.1A72.18,72.18,0,0,1,760.5,526.8c-2.123-4.688-4.245-9.375-6.015-14.151a90.312,90.312,0,0,1-5.837-26.535,54.481,54.481,0,0,1,6.368-28.57,97.837,97.837,0,0,1,22.112-23.882c3.981-3.449,8.049-6.9,11.942-10.525s7.43-6.987,11.5-10.172a97.317,97.317,0,0,1,18.574-11.322h.884a66.776,66.776,0,0,1,26.535-6.457,78,78,0,0,1,28.568,3.361,37.061,37.061,0,0,1,11.853,6.192,106.212,106.212,0,0,1,10.437,11.41,70.762,70.762,0,0,0,12.383,11.145c4.245,2.919,8.845,5.572,12.737,8.845a54.13,54.13,0,0,1,18.663,23.527A74.929,74.929,0,0,1,946.07,486.2a79.623,79.623,0,0,1-4.511,29.9,98.805,98.805,0,0,1-19.635,27.861m25.916-23.969a72.935,72.935,0,0,0,4.6-17.69,81.732,81.732,0,0,0-9.642-58.818,56.97,56.97,0,0,0-12.383-13.268c-4.422-3.538-9.464-6.28-14.24-9.375a64.637,64.637,0,0,1-13.445-11.587,79.588,79.588,0,0,0-12.206-12.206A53.075,53.075,0,0,0,861.07,388.2a87.3,87.3,0,0,0-30.6,3.981,72,72,0,0,0-10.789,3.892,74.493,74.493,0,0,0-8.845,4.068A128.152,128.152,0,0,0,785.181,419.6c-8.845,7.7-18.132,13.887-26.535,21.847a55.719,55.719,0,0,0-16.01,28.392c-4.6,20.7,1.946,40.687,10.349,59.35a53.951,53.951,0,0,0,15.921,22.82c4.6,3.361,9.818,5.573,14.594,8.845A73.056,73.056,0,0,1,797.918,572a81.809,81.809,0,0,0,13.533,11.763,64.468,64.468,0,0,0,15.036,6.988,85.7,85.7,0,0,0,34.141,3.272,65.191,65.191,0,0,0,28.923-12.206,136.663,136.663,0,0,0,23.794-20.255,315.121,315.121,0,0,0,25.119-26.977,77.027,77.027,0,0,0,8.845-15.478" transform="translate(1968.404 -356.098)"/>
    <path id="Path_204" data-name="Path 204" d="M992.981,608.256a210.992,210.992,0,0,1-35.91,27.862,319.793,319.793,0,0,1-39.98,26.976,63.15,63.15,0,0,1-39.36,6.192,126.161,126.161,0,0,1-24.411-7.7,107.988,107.988,0,0,1-20.963-11.056,70.748,70.748,0,0,1-17.248-16.894,119.95,119.95,0,0,0-14.24-17.248c-6.368-5.926-14.594-8.845-20.962-15.036a136.582,136.582,0,0,1-16.186-19.547,91.367,91.367,0,0,1-14.681-85.442A284.37,284.37,0,0,1,770.265,456.3c1.15-2.211,2.3-4.334,3.273-6.545l2.3-1.68c4.776-15.567,19.017-25.65,31.222-35.38a118.417,118.417,0,0,1,37.325-20.432,88.454,88.454,0,0,1,43.429-2.918A293.06,293.06,0,0,1,927.97,401.9c7.341,2.476,15.036,4.246,22.289,6.9a83.231,83.231,0,0,1,21.228,12.206,154.78,154.78,0,0,1,36,30.957,104.055,104.055,0,0,1,10.613,19.813,159.589,159.589,0,0,1,6.988,19.812,113.73,113.73,0,0,1,3.98,38.21,128.792,128.792,0,0,1-12.03,43.163,127.478,127.478,0,0,1-23.616,35.38m46.79-49.974a130.993,130.993,0,0,0-8.845-86.327,90.818,90.818,0,0,0-12.295-21.493,108.071,108.071,0,0,0-18.31-17.071c-6.81-5.219-13.886-10.26-20.873-15.39A93.673,93.673,0,0,0,956.1,404.823c-7.961-2.742-16.1-5.042-24.058-7.872s-14.594-5.484-22.024-7.872a104.283,104.283,0,0,0-91.457,11.056l-1.238.708h-1.415l-4.511,3.538a110.461,110.461,0,0,0-8.846,6.9,98.7,98.7,0,0,0-26.534,26.535c-4.6,7.429-8.226,15.3-12.737,22.731s-8.845,13.71-12.559,20.874a108.529,108.529,0,0,0-13.975,43.429,100.829,100.829,0,0,0,9.464,48.47,108.279,108.279,0,0,0,12.914,21.493,137.476,137.476,0,0,0,18.309,21.581c6.456,5.572,14.594,8.845,20.873,14.683a163.725,163.725,0,0,1,15.214,18.751,97.3,97.3,0,0,0,45.2,29.9,88.458,88.458,0,0,0,44.224,6.368,104.807,104.807,0,0,0,43.429-20.255c7.076-5.13,13.975-10.614,21.228-15.479s14.418-9.375,21.228-14.771a147.621,147.621,0,0,0,51.919-77.57" transform="translate(1932.904 -394.478)"/>
    <path id="Path_205" data-name="Path 205" d="M1086.6,669.044a275.134,275.134,0,0,1-20.786,24.589,306.914,306.914,0,0,1-53.069,39.8,240.7,240.7,0,0,1-26.535,16.1,112.083,112.083,0,0,1-26.535,8.845,149.116,149.116,0,0,1-55.635-1.415,164.96,164.96,0,0,1-55.458-19.282c-36.176-21.4-61.915-55.369-82.169-91.81-17.69-32.372-30.161-69.079-20.7-106.139a198.032,198.032,0,0,1,65.276-100.655c13.356-11.233,26.535-23.262,40.068-33.788a107.905,107.905,0,0,1,21.494-12.825,94.287,94.287,0,0,1,25.119-6.28,79.624,79.624,0,0,1,18.4,0h.443a57.511,57.511,0,0,1,7.96,1.415H926.6A429.712,429.712,0,0,1,976.3,397.5a240.866,240.866,0,0,1,66.78,27.95,244.218,244.218,0,0,1,26.533,19.724,260.9,260.9,0,0,1,24.324,20.874,75.167,75.167,0,0,1,13.533,25.119A276.013,276.013,0,0,1,1117.2,518.5a104.131,104.131,0,0,1,5.042,27.508,317.345,317.345,0,0,1-1.415,33.08,138.6,138.6,0,0,1-34.23,89.954m27.684-26.535a152.451,152.451,0,0,0,10.349-31.665,275.926,275.926,0,0,0,5.042-33.964,206.822,206.822,0,0,0,1.679-35.38,217.129,217.129,0,0,0-17.689-59.084,69.446,69.446,0,0,0-16.452-25.562c-7.341-7.076-15.744-12.914-23.439-19.547a207.675,207.675,0,0,0-61.915-36.884,342.042,342.042,0,0,0-69.432-17.689,230.007,230.007,0,0,0-47.939-3.361,61.283,61.283,0,0,0-10.792.884h-1.326a59.256,59.256,0,0,0-23.792,6.988l-1.416,2.388a190.649,190.649,0,0,0-33.611,25.209,456.147,456.147,0,0,0-43.428,40.244,219.691,219.691,0,0,0-35.38,55.988,141.509,141.509,0,0,0-12.914,59.438,153.9,153.9,0,0,0,13.533,56.077,318.412,318.412,0,0,0,28.658,51.477,241.462,241.462,0,0,0,44.666,50.682,162.286,162.286,0,0,0,55.28,31.488,222.28,222.28,0,0,0,58.908,10.526,121.793,121.793,0,0,0,58.2-12.295,251.088,251.088,0,0,0,27.773-17.69c9.995-6.633,20.078-13.179,29.718-20.166a168.508,168.508,0,0,0,25.651-22.555c7.7-8.4,14.683-17.69,21.581-26.535a155.513,155.513,0,0,0,18.133-29.277" transform="translate(1895.538 -425.636)"/>
  </g>
</svg>
