<svg id="confirm-check-3091" xmlns="http://www.w3.org/2000/svg" width="21.234" height="21.234" viewBox="0 0 21.234 21.234">
  <path id="Path_265" data-name="Path 265" d="M10.617,21.234A10.617,10.617,0,1,1,21.234,10.617,10.629,10.629,0,0,1,10.617,21.234Zm0-19.582a8.965,8.965,0,1,0,8.965,8.965A8.976,8.976,0,0,0,10.617,1.651Z"/>
  <path id="Path_266" data-name="Path 266" d="M64.739,84.937a.825.825,0,0,1-.627-.288l-4.121-4.807a.826.826,0,1,1,1.254-1.075l3.475,4.053,4.8-5.953A.826.826,0,1,1,70.8,77.9l-5.421,6.726a.827.827,0,0,1-.63.308Z" transform="translate(-54.772 -70.131)"/>
</svg>
