<?xml version="1.0" encoding="UTF-8"?><svg id="Layer_1" xmlns="http://www.w3.org/2000/svg" viewBox="0 0 1413.93 504.31"><defs><style>.cls-1{fill:#d8a2c9;}.cls-2{fill:#14130f;}.cls-3{fill:#e41f26;}.cls-4{fill:#79a051;}.cls-5{fill:#191919;}.cls-6{fill:#e74d25;}.cls-7{fill:#ec7c23;}.cls-8{fill:#f8b218;}</style></defs><path class="cls-5" d="M705.8,381.56v5.44c0,58.47-34.48,93.86-88.28,93.86-50.56,0-92.18-40.97-92.18-93.86s40.97-93.86,92.18-93.86c44.85,0,75.32,23.98,86.07,62.35h-39.92c-8.16-18.54-22.43-30.2-46.15-30.2-31.11,0-54.98,26.7-54.98,61.71s24.51,61.71,54.98,61.71c24.5,0,43.68-15.43,47.83-37.46h-52.37v-29.69h92.82Z"/><path class="cls-5" d="M783.93,449.36c20.74,0,37.08-16.85,37.08-38.76s-16.34-38.76-37.08-38.76-36.69,16.98-36.69,38.76,16.08,38.76,36.69,38.76m-7.65-109.02c18.8,0,33.97,7.26,44.73,19.19v-16.08h35.26v134.3h-35.26v-16.07c-10.76,11.93-25.93,19.19-44.73,19.19-37.47,0-64.81-30.98-64.81-70.26s27.34-70.26,64.81-70.26"/><path class="cls-5" d="M913.38,406.58v71.17h-35.65v-134.3h35.65v16.46c8.55-11.41,20.49-19.57,35.91-19.57,4.54,0,9.08,1.16,12.19,2.85l-2.47,31.25c-4.54-1.56-9.72-2.59-14.26-2.59-17.11,0-31.37,13.87-31.37,34.74"/><path class="cls-5" d="M1099.12,394.65v83.09h-35.65v-79.34c0-14.91-11.67-26.57-25.4-26.57-16.46,0-30.47,12.57-30.47,32.8v73.11h-35.65v-134.3h35.65v15.04c9.47-11.41,22.82-18.15,38.24-18.15,31.5,0,53.28,21.78,53.28,54.32"/><path class="cls-5" d="M1118.54,343.45h35.65v134.3h-35.65v-134.3Zm17.89-56.39c11.93,0,21.13,8.95,21.13,20.61s-9.2,20.61-21.13,20.61-21.12-8.95-21.12-20.61,9.2-20.61,21.12-20.61"/><path class="cls-5" d="M1185.41,436.39c10.51,10.24,20.88,15.95,34.09,15.95,12.32,0,19.71-5.18,19.71-13.35s-5.7-12.96-23.07-16.46c-29.17-5.96-43.69-20.74-43.69-43.04s19.33-39.15,48.49-39.15,48.1,16.72,52.38,42.39h-33.58c-1.82-8.69-7.65-13.87-16.98-13.87-8.43,0-15.42,4.28-15.42,11.15s6.34,12.96,21.39,16.07c31.11,6.35,45.36,20.61,45.36,43.3s-19.83,41.48-53.15,41.48c-20.1,0-36.42-9.72-50.17-28l14.65-16.46Z"/><path class="cls-5" d="M1413.93,394.65v83.09h-35.65v-79.34c0-14.91-11.67-26.57-25.41-26.57-16.46,0-30.46,12.57-30.46,32.8v73.11h-35.65v-189.27h35.65v70c9.47-11.41,22.82-18.15,38.24-18.15,31.5,0,53.28,21.78,53.28,54.32"/><path class="cls-6" d="M25.5,188.45c-2.43,0-3.6,2.32-6,7.96-5.26,12.37-10.09,24.9-13.25,38.05-23.35,97.09,20.1,196.14,107.74,243.69,31.9,17.31,65.65,26.17,100.9,26.17,9.99,0,20.11-.71,30.34-2.15,71.57-10.04,125.17-47.15,161.88-109.08,5.08-8.57,4.75-9.11-4.01-13.58-20.45-10.4-40.91-20.8-61.37-31.21-14.88,7.78-30.9,12.84-48.2,14.77-5.96,.67-11.84,1-17.65,1-27.5,0-53.29-7.55-77.09-23.19-34.91-22.94-56.53-58.62-62.44-97-34.37-17.48-68.74-34.95-103.12-52.42-3.74-1.9-6.04-3.02-7.73-3.02"/><path class="cls-8" d="M378.06,112.66h-.08c-27.5,.1-54.99,.13-82.49,.13-18.04,0-36.08,0-54.12,0-3.89,0-7.78,0-11.67,0h-4.67c-18.84,0-37.67,.02-56.51,.02-21.25,0-42.51-.02-63.76-.09h-.08c-3.89,0-5.56,1.04-5.11,5.07,.4,3.6,.46,7.24,.83,10.84,3.1,30.41,14.81,56.98,35.04,79.25,1.94-18.83,7.69-37.57,17.53-55.11,7.3-13.02,16.67-24.44,27.46-34.75,1.43-1.37,2.59-2.08,3.73-2.08,1.21,0,2.39,.81,3.85,2.51,29.64,34.56,59.45,68.99,89.21,103.45,6.48,7.51,12.97,15.01,19.45,22.52,17.33-7.32,32.97-18.28,46.9-32.7,25.09-25.97,37.77-57.56,39.63-93.58,.21-4.04-.82-5.46-5.15-5.46"/><path class="cls-1" d="M135.44,207.86c-1.24,12.07-.92,24.18,.91,36.03,27.27,13.87,54.54,27.73,81.81,41.6,41.19,20.94,82.37,41.88,123.56,62.82,8.23-4.3,16.11-9.44,23.67-15.34,4.37-3.42,4.49-3.81,.83-8.05-23.18-26.84-46.36-53.68-69.54-80.52-14.55,6.14-30.28,9.72-47.21,10.64-2.96,.16-5.9,.24-8.8,.24-39.38,0-73.2-14.63-101.25-43.21-1.36-1.38-2.68-2.78-3.97-4.2"/><path class="cls-3" d="M136.35,243.89c5.91,38.39,27.53,74.06,62.44,97,23.8,15.64,49.59,23.19,77.09,23.19,5.81,0,11.69-.34,17.64-1,17.3-1.94,33.31-6.99,48.2-14.77-41.19-20.94-82.37-41.88-123.56-62.82-27.27-13.87-54.54-27.73-81.81-41.6"/><path class="cls-7" d="M184.16,115.92c-1.14,0-2.3,.72-3.73,2.08-10.79,10.3-20.16,21.73-27.46,34.75-9.84,17.54-15.59,36.28-17.53,55.11,1.29,1.42,2.61,2.82,3.97,4.2,28.05,28.57,61.87,43.21,101.25,43.21,2.9,0,5.84-.08,8.8-.24,16.92-.91,32.66-4.49,47.21-10.64-6.48-7.51-12.97-15.01-19.45-22.52-29.76-34.46-59.57-68.88-89.21-103.45-1.46-1.7-2.64-2.51-3.85-2.51"/><path class="cls-2" d="M40.91,263.16c2.77-5.8,5.81-11.42,8.93-17.04,4.42-7.95,8.73-16.04,12.64-24.3l-5.63-2.77c-2.89,6.66-5.97,13.25-9.3,19.72-2.98,5.8-6.16,11.49-8.98,17.38-2.75,5.76-5.38,11.6-8.01,17.41-2.94,6.5-5.82,13.03-8.71,19.55-1.4,3.17-2.53,6.44-3.99,9.58-1.49,3.2-3.38,6.29-4.25,9.71-.42,1.66,1.77,2.12,2.71,1.17,2.09-2.12,3.38-4.89,4.8-7.49,1.48-2.72,3.17-5.36,4.54-8.12,2.83-5.73,5.3-11.61,7.75-17.51,2.42-5.8,4.78-11.63,7.5-17.3"/><path class="cls-2" d="M30.77,334.25c1.6-2.4,3.2-4.79,4.29-7.47,1.62-3.96,2.96-8.03,4.35-12.08,5.37-15.56,13.22-30.11,20.62-44.76,3.63-7.19,6.87-14.42,9.39-22.08,2.14-6.51,3.94-13.13,5.98-19.67l-5.16-2.54c-4.13,12.89-7.45,25.95-13.57,38.15-7.49,14.93-15.99,29.59-21.9,45.25-2.81,7.45-5.29,14.97-9.46,21.8-3.13,5.13-7.85,11.21-7.46,17.57,.23,3.69,5.81,3.5,5.74-.2-.05-2.29,1.22-4.51,2.32-6.44,1.48-2.6,3.2-5.05,4.86-7.53"/><path class="cls-2" d="M49.12,326.06c3.73-7.76,7.17-15.64,11.02-23.34,4.34-8.68,8.82-17.29,13.23-25.94,6.76-13.22,13.02-26.66,18.98-40.24l-4.76-2.34c-5.06,11.76-10.43,23.41-16.11,34.86-4.31,8.68-8.79,17.28-13.1,25.95-4.05,8.15-7.6,16.49-11.34,24.78-3.66,8.09-7.65,16.04-11.14,24.21-3.33,7.81-6.52,15.92-7.54,24.41-.28,2.29,3.13,3.18,3.57,.82,2.86-15.29,10.5-29.29,17.18-43.17"/><path class="cls-2" d="M56.92,368.77c4.47-9.77,9.11-19.47,13.53-29.27,4.38-9.72,10.01-18.86,14.06-28.72,1.99-4.85,3.47-9.89,5.52-14.73,2.02-4.78,4.3-9.43,6.68-14.04,2.46-4.74,4.92-9.44,6.9-14.41,1.96-4.92,3.6-9.97,5.22-15.01,.73-2.29,1.45-4.58,2.22-6.85l-5.6-2.76c-3.19,9.25-5.59,18.75-9.67,27.68-4.51,9.86-9.95,19.16-13.66,29.4-1.85,5.11-3.53,10.17-5.92,15.07-2.32,4.74-4.87,9.37-7.22,14.1-5.47,11-10.15,22.4-15.48,33.48-2.69,5.58-5.41,11.15-7.93,16.82-2.47,5.55-5.56,11.18-6.72,17.17-.45,2.33,2.36,3.35,3.7,1.51,3.17-4.35,5.07-9.51,7.38-14.36,2.37-5.01,4.68-10.03,6.99-15.07"/><path class="cls-2" d="M100,329.06c4.81-11.02,9.36-22.14,13.79-33.32,2.14-5.41,5.09-10.43,7.77-15.58,2.76-5.28,4.69-10.59,6.43-16.27,.87-2.83,1.88-5.6,3.01-8.32l-4.84-2.39c-2.26,5.28-3.59,10.82-5.62,16.18-2.22,5.89-5.46,11.3-8.33,16.87-5.44,10.55-8.78,22.2-12.97,33.28-4.35,11.49-9.02,22.85-14.24,33.98-2.8,5.96-5.61,11.88-8.2,17.94-2.68,6.29-5.43,12.56-9.04,18.38-5.63,9.08-12.41,18.86-13.77,29.71-.16,1.24,1.88,1.49,2.16,.29,2.33-9.96,8.32-18.41,13.79-26.85,6.43-9.92,10.06-21.22,15.12-31.83,5.08-10.65,10.23-21.25,14.95-32.07"/><path class="cls-2" d="M89.12,403.77c5.31-10.77,9.54-21.98,14.37-32.96,4.86-11.04,10.92-21.42,16.4-32.15,2.81-5.49,5.41-11.12,7.53-16.91,2.02-5.53,3.91-11.11,6.02-16.61,4.35-11.35,9.85-22.17,15.36-32.99,1.06-2.08,2.13-4.16,3.18-6.24l-5.36-2.64c-5.23,10.36-10.71,20.6-15.38,31.23-4.79,10.88-8.43,22.23-13.25,33.11-4.93,11.11-11.35,21.47-16.61,32.42-5.91,12.31-10.46,25.23-16.51,37.48-5.92,12-12.75,23.56-16.76,36.39-1.13,3.64,4.29,4.9,5.61,1.5,4.24-10.94,10.23-21.11,15.41-31.62"/><path class="cls-2" d="M102.54,419.46c4.62-11.83,9.53-23.51,15.07-34.94,5.45-11.24,11.63-22.11,17.49-33.14,6-11.3,11.05-22.99,16.6-34.51,5.46-11.32,11.36-22.45,17.3-33.52,1.29-2.39,2.62-4.76,3.97-7.12l-4.51-2.22c-5.66,10.75-11.64,21.32-16.98,32.23-5.53,11.3-10.28,22.95-15.87,34.21-5.68,11.46-12.01,22.58-17.84,33.97-6.4,12.48-11.58,25.49-16.73,38.53-2.59,6.55-4.95,13.19-7.52,19.75-1.19,3.05-2.51,6-3.46,9.13-.9,2.98-1.47,6.06-2.83,8.88-.46,.95,.95,1.72,1.57,.91,3.38-4.34,4.54-9.83,6.81-14.75,2.62-5.67,4.65-11.59,6.92-17.41"/><path class="cls-2" d="M18.83,274.82c1.58-3.95,2.82-8,4.17-12.03,2.99-8.93,6.63-17.68,10.17-26.4,3.27-8.06,6.5-16.11,9.92-24.1l-3.8-1.87c-6.78,15.26-13.55,30.53-19.57,46.12-1.77,4.6-3.17,9.14-4.19,13.97-.48,2.28-1.17,4.58-1.47,6.89-.18,1.38-.32,2.66-.95,3.92-.6,1.17-1.27,2.3-1.98,3.41-.82,1.25,1.19,2.56,1.94,1.27,1.01-1.73,1.67-3.63,2.67-5.35,1.14-1.96,2.24-3.69,3.08-5.82"/><path class="cls-2" d="M144.54,399.63c6.13-11.72,11.93-23.61,18.15-35.28,3.14-5.88,6.37-11.67,9.09-17.76,2.73-6.12,5.18-12.36,7.71-18.56,4.88-11.93,10.24-23.74,16.91-34.79,.85-1.41,1.74-2.8,2.64-4.18l-5.87-2.89c-6.09,9.43-11.16,19.39-15.73,29.67-5.37,12.08-9.66,24.67-15.75,36.43-6.12,11.84-12.52,23.48-18.25,35.53-5.67,11.95-11.23,23.95-16.78,35.96-5.13,11.11-9.76,22.45-15.18,33.43-1.18,2.39-2.4,4.76-3.66,7.11-.7,1.29,.21,2.98,1.45,3.51,1.46,.63,2.8-.19,3.51-1.45,5.63-9.98,10.28-20.56,14.78-31.08,5.19-12.14,10.85-23.96,16.97-35.65"/><path class="cls-2" d="M149.04,450.22c3.18-5,5.22-10.7,7.6-16.1,2.67-6.05,5.37-12.09,8.16-18.09,11.09-23.94,24.32-46.96,33.36-71.82,2.24-6.16,4.02-12.42,5.84-18.72,1.73-5.96,3.89-11.79,6.21-17.55,1.5-3.72,3.09-7.4,4.69-11.08l-5.21-2.56c-.32,.75-.64,1.49-.96,2.24-2.65,6.09-5.24,12.22-7.5,18.47-2.15,5.97-3.68,12.1-5.58,18.14-7.93,25.21-20.99,48.3-32.51,71.95-5.85,12.01-11.23,24.23-16.6,36.46-2.11,4.8-4.21,9.49-6.75,14.08-2.48,4.48-5.08,8.98-6.93,13.77-.79,2.06-1.43,4.19-1.77,6.37-.5,3.23,4.54,3.93,5.02,.7,.68-4.57,2.86-8.85,4.99-12.9,2.42-4.58,5.18-8.99,7.95-13.35"/><path class="cls-2" d="M180.94,432.89c2.61-4.98,6.44-9.23,9.42-14,3.33-5.32,5.61-11.23,8.17-16.94,2.69-5.99,5.48-11.93,8.24-17.88,5.8-12.48,11.58-24.98,17.15-37.56,5.15-11.64,11.59-22.76,16.19-34.62,.28-.73,.56-1.46,.83-2.19l-5.17-2.55c-1.45,3.82-2.97,7.59-4.71,11.31-2.73,5.85-5.69,11.6-8.42,17.45-5.57,11.99-10.63,24.23-16.1,36.27-5.5,12.11-11.07,24.18-16.67,36.23-2.43,5.22-5.73,9.61-9.1,14.23-3.71,5.1-6.45,10.3-8.49,16.27-4.05,11.86-8.21,23.56-13.45,34.96-1.18,2.56-2.4,5.1-3.67,7.62-1.57,3.13,3.33,5.39,4.93,2.28,5.53-10.72,10.23-21.87,14.28-33.23,2.1-5.9,3.65-12.1,6.57-17.67"/><path class="cls-2" d="M211.29,422.8c.96-2.93,2.08-5.83,3.68-8.48,1.53-2.54,3.61-4.58,5.55-6.79,1.97-2.23,3.88-4.55,5.39-7.13,1.56-2.65,2.8-5.51,4.13-8.28,2.77-5.79,5.38-11.65,7.65-17.66,2.29-6.08,3.63-12.41,5.73-18.54,4.34-12.67,10.62-24.88,16.84-36.71l-4.6-2.26c-4.61,8.84-9.06,17.74-12.68,27.06-4.73,12.16-7.96,24.84-13.17,36.81-2.53,5.81-5.07,11.85-8.28,17.32-2.99,5.1-7.66,8.99-10.56,14.19-2.98,5.36-3.49,11.62-5.24,17.41-1.8,5.94-4.17,11.75-6.56,17.47-4.71,11.28-10.06,22.27-15.36,33.28-1.19,2.47-2.33,4.95-3.39,7.48-.54,1.29,1.33,2.01,1.97,.82,5.63-10.43,10.74-21.22,15.68-31.99,5.08-11.08,9.44-22.4,13.23-33.99"/><path class="cls-2" d="M225.53,474.93c2.11-5.55,2.78-11.52,3.9-17.31,2.2-11.39,6.08-22.67,12-32.67,2.86-4.83,6.19-9.38,9.08-14.21,2.96-4.93,5.73-9.98,8.37-15.09,5.26-10.15,9.91-20.61,14.12-31.23,2.17-5.47,4.08-11.01,6.81-16.23,2.68-5.14,5.75-10.06,8.44-15.19l-5.15-2.53c-4.12,7.89-9.14,15.33-12.34,23.68-8.13,21.19-17.39,42.3-30.1,61.18-3.75,5.58-7.21,11.17-9.91,17.34-2.6,5.95-4.63,12.14-6.25,18.42-1.65,6.42-2.41,13.02-4.17,19.41-1.77,6.41-6,11.74-7.78,18.13-.43,1.55,0,3.19,1.6,3.87,1.35,.58,3.42-.07,3.87-1.6,1.69-5.69,5.4-10.45,7.5-15.97"/><path class="cls-2" d="M243.35,484.92c.4-1.5,.92-2.97,1.46-4.43,1.22-3.27,2.6-6.47,3.97-9.68,3.51-8.21,6-16.81,9.95-24.84,2.42-4.93,4.74-10.05,6.61-15.21,1.86-5.13,3.34-10.4,5.02-15.59,3.57-10.98,11.52-19.75,17.39-29.52,2.96-4.93,5.19-10.21,7.66-15.39,2.49-5.22,5.03-10.42,7.36-15.72,1.74-3.96,3.36-7.95,5.06-11.93l-4.45-2.19c-.79,1.91-1.56,3.83-2.27,5.78-2.06,5.65-4.45,11.17-6.92,16.66-2.35,5.23-4.52,10.57-7,15.73-4.99,10.38-12.8,19.12-17.7,29.55-2.41,5.12-4.19,10.29-5.83,15.69-1.71,5.63-3.88,10.98-6.17,16.39-2.56,6.04-5,12.19-7.21,18.37-1.34,3.75-2.56,7.49-4.04,11.19-1.52,3.79-3.07,7.57-4.32,11.46-.69,2.15-1.97,5.29-1,7.53,.6,1.38,2.64,.36,2.09-1.01-.31-.75,.16-2.09,.35-2.83"/><path class="cls-2" d="M287.13,446.93c1.45-4.47,2.68-9.01,4.27-13.44,1.57-4.4,3.65-8.58,5.58-12.83,2.01-4.42,4.02-8.84,6.05-13.26,4.03-8.79,8.07-17.47,13.15-25.72,2.51-4.07,5.34-7.93,7.82-12.02,2.63-4.35,4.94-8.88,7.08-13.5,.26-.57,.51-1.14,.77-1.72l-5.03-2.48c-3.14,7.04-6.64,13.91-11.01,20.35-11.1,16.31-19.22,34.39-27.3,52.32-4.36,9.67-6.04,20.3-10.56,29.89-3.89,8.28-7.64,16.61-11.39,24.95-1.25,2.78,3.41,5.16,4.83,2.4,3.71-7.22,6.89-14.69,10.4-22,2.04-4.24,3.89-8.46,5.35-12.94"/><path class="cls-2" d="M313.53,429.9c4.16-7.22,7.67-14.74,11.51-22.13,4-7.69,8.01-15.38,12.2-22.98,4-7.27,7.42-14.81,10.7-22.42l-3.38-1.66c-2.44,6.11-5.07,12.14-8.3,17.89-4.23,7.54-8.09,15.3-11.95,23.03-3.85,7.71-7.92,15.3-11.7,23.03-7.24,14.8-17.25,29.28-18.82,46.11-.07,.78,1.1,.97,1.21,.18,2.15-15.14,11.06-28.11,18.54-41.07"/><path class="cls-2" d="M350.01,404.58c2.3-6.31,4.75-12.57,7.36-18.76,2.19-5.19,4.41-10.37,6.68-15.52l-4.23-2.09c-1.56,3.22-3.08,6.45-4.53,9.71-5.43,12.17-10.28,24.55-14.23,37.29-1.82,5.89-3.79,11.7-5.84,17.51-2.13,6.05-5.27,11.49-9.56,16.28-1.69,1.89,1.06,4.65,2.83,2.78,3.78-3.97,6.12-8.86,8.71-13.61,2.75-5.06,4.89-10.36,6.81-15.78,2.09-5.91,3.85-11.92,6-17.81"/><path class="cls-2" d="M381.91,381.51c.32-.65,.61-1.31,.88-1.98l-3.82-1.88c-2.46,5.65-5.9,10.84-8.19,16.55-1.31,3.27-2.57,6.45-4.44,9.45-1.77,2.84-4.05,6.33-4.53,9.69-.16,1.17,1.49,2.39,2.32,1.18,1.69-2.48,2.88-5.43,4.27-8.1,1.42-2.72,3.03-5.41,4.31-8.19,1.38-3,2.56-5.99,4.29-8.82,1.61-2.64,3.52-5.13,4.9-7.9"/><path class="cls-4" d="M264.15,6.05c27.46,13.96,38.77,48.39,24.91,75.86-13.91,27.58-48.62,38.76-76.33,24.59-27.45-14.04-38.28-48.21-24.09-75.99C202.66,3.12,236.68-7.91,264.15,6.05"/><path d="M238.17,56.22c-1.24,.43-3.19,.75-4.04-.32-.61-.77-.71-2.04-.37-3.08,.17-.53,.44-1.07,.84-1.39l.13-.09,.1,.02c.8,.05,1.46-.27,2.25,.08,.61,.27,1.11,.77,1.47,1.33,.61,.97,1.06,2.96-.37,3.46m2.06-3.56c-.48-1.09-1.34-2.04-2.42-2.56-.66-.32-1.53-.5-2.3-.35l-1.38,.18c-.69,.34-1.18,.98-1.52,1.64-.77,1.5-1.05,3.58-.18,5.1,1.18,2.06,4.1,2.47,6.13,1.48,2.05-1,2.53-3.57,1.67-5.49"/><path d="M248.26,61.16c-1.83,2.88-4.9,4.9-8.13,5.89-3.09,.94-6.22,.9-9.21-.32-4.68-1.9-10.49-5.83-9.8-11.62,.34-2.87,1.68-5.83,3.3-8.19l.99-1.31,.69-.46,.76-.9c.49-.48,.97-.95,1.53-1.34l.82-.46c1.48-.66,3.18-.85,4.78-1.05,3.48-.44,6.81,.38,9.54,2.64,2.49,2.06,4.24,5.04,5.25,8.07,.99,2.96,1.23,6.31-.5,9.05m3.26-6.2c-.39-3.79-2.04-7.42-4.52-10.31-2.43-2.83-5.84-4.96-9.64-5.21-1.95-.13-3.85,.22-5.76,.59-.92,.18-1.89,.37-2.73,.81-.76,.39-1.4,.95-1.96,1.58-.95,.66-1.81,1.49-2.57,2.36l-.19,.22c-1.93,2.28-3.53,5.08-4.38,7.95-.89,3.02-.53,6.02,1.19,8.67,1.71,2.64,4.4,4.58,7.17,5.99,3.1,1.58,6.29,2.43,9.78,1.98,3.78-.49,7.47-2.31,10.14-5.02,2.58-2.61,3.85-5.96,3.47-9.62"/><path d="M253.67,68.66c-1.81,2.01-3.71,3.95-5.64,5.84-1.84,1.81-3.87,3.46-6.26,4.48-1.14,.49-2.41,.7-3.63,.86-1.42,.18-2.85,.2-4.27,.07-2.74-.24-5.44-1.17-7.7-2.74-1.22-.84-2.16-1.91-3.23-2.93-1.06-1.01-2.22-1.9-3.47-2.67-2.06-1.29-4.31-2.09-5.76-4.14-.66-.94-1.14-2.02-1.62-3.06-.55-1.21-1.09-2.43-1.54-3.67-.81-2.22-1.43-4.53-1.51-6.91-.09-2.52,.39-5.16,1.65-7.37,1.39-2.44,3.6-4.35,5.7-6.17,1.04-.9,2.1-1.78,3.1-2.72,.97-.9,1.91-1.82,2.96-2.64,1.47-1.14,3.09-2.14,4.79-2.93l.23-.06c2.1-1.08,4.41-1.5,6.75-1.66,2.49-.16,5.01,.09,7.39,.87,1.1,.35,2.16,.86,3.05,1.6,1.02,.86,1.83,1.93,2.71,2.93,.96,1.09,2.01,2.04,3.2,2.88,1.08,.76,2.22,1.44,3.29,2.23,2.15,1.58,3.82,3.59,4.81,6.09,.87,2.19,1.23,4.55,1.26,6.9,.03,2.59-.19,5.31-1.16,7.73-1.11,2.77-3.1,5-5.07,7.18m6.7-6.17c.62-1.46,.93-2.97,1.18-4.52,.84-5.2,.51-10.7-2.49-15.19-.87-1.3-1.95-2.48-3.18-3.44-1.15-.91-2.45-1.62-3.68-2.42-1.32-.86-2.45-1.8-3.49-2.98-.98-1.12-1.94-2.26-3.14-3.17-2.15-1.61-4.97-2.23-7.61-2.34-2.69-.12-5.34,.2-7.9,1.03-.94,.31-1.84,.66-2.71,1.1-.8,.31-1.57,.67-2.31,1.07-2.5,1.34-4.53,3.13-6.61,5.02-2.19,1.98-4.68,3.59-6.81,5.65-2.1,2.03-3.5,4.47-4.14,7.33-1.19,5.33,.5,10.5,2.68,15.32,1.01,2.23,2.11,4.41,4.12,5.9,1.17,.87,2.52,1.44,3.76,2.18,1.35,.8,2.6,1.77,3.73,2.87,1.12,1.1,2.14,2.2,3.48,3.05,1.21,.77,2.54,1.36,3.9,1.79,2.81,.89,5.88,1.15,8.81,.86,2.63-.26,5.25-1.48,7.44-2.92,2.26-1.49,4.27-3.28,6.14-5.23,2.19-2.29,4.58-4.43,6.49-6.97,.92-1.24,1.73-2.57,2.34-3.99"/><path d="M262.95,75.49c-2.76,2.88-6,4.98-9.28,7.2-3.43,2.33-6.56,5.17-10.32,6.96-3.21,1.53-6.63,2.26-10.16,1.61-2.15-.4-4.29-1.16-6.31-1.99-1.89-.77-3.73-1.7-5.42-2.86-1.78-1.22-3.16-2.64-4.45-4.36-1.15-1.54-2.25-3.14-3.68-4.46-1.65-1.52-3.78-2.38-5.43-3.89-1.61-1.47-2.86-3.33-4.17-5.05-4.77-6.24-6.64-14.66-3.91-22.14,1.36-3.73,3.59-6.91,5.49-10.35,.3-.55,.58-1.12,.86-1.68l.58-.43c1.24-4.02,4.91-6.63,8.08-9.1,2.93-2.29,6.08-4.14,9.64-5.27,3.64-1.16,7.45-1.46,11.2-.75,3.55,.67,6.97,2.07,10.38,3.23,1.9,.65,3.86,1.11,5.75,1.78,2.01,.72,3.76,1.9,5.47,3.15,3.27,2.41,6.88,4.66,9.3,8,1.14,1.57,1.97,3.35,2.73,5.12,.71,1.66,1.34,3.36,1.81,5.11,.87,3.2,1.29,6.56,1.03,9.88-.3,3.87-1.51,7.61-3.11,11.13-1.52,3.36-3.54,6.49-6.1,9.16m12.07-12.89c2.03-7.53,.78-15.23-2.28-22.3-.86-1.99-1.81-3.86-3.18-5.55-1.36-1.68-3.01-3.08-4.71-4.4-1.77-1.36-3.59-2.66-5.39-3.97-1.9-1.38-3.92-2.64-6.15-3.42-2.06-.72-4.16-1.3-6.21-2.05-1.89-.69-3.77-1.4-5.69-2.02-3.81-1.23-7.94-1.81-11.93-1.36-4.19,.48-8.09,2.03-11.69,4.19l-.32,.2-.37,.08-1.15,.92c-.8,.56-1.58,1.16-2.33,1.77-2.6,1.98-5.13,4.01-6.89,6.86-1.18,1.91-2.11,3.96-3.28,5.88-1.08,1.79-2.24,3.54-3.24,5.38-1.9,3.49-3.32,7.24-3.62,11.23-.32,4.26,.7,8.63,2.45,12.5,.89,1.97,2.02,3.84,3.34,5.55,1.46,1.91,2.88,3.98,4.72,5.56,1.68,1.45,3.79,2.28,5.4,3.81,1.51,1.44,2.65,3.2,3.92,4.83,2.95,3.79,7.22,6.11,11.68,7.71,3.65,1.31,7.46,2.28,11.36,1.64,4.14-.68,7.85-2.79,11.2-5.22,1.84-1.33,3.61-2.74,5.49-4,1.85-1.24,3.72-2.42,5.47-3.8,6.5-5.1,11.24-12.02,13.4-20.03"/><path d="M277.47,83.06c-1.68,2.2-3.42,4.37-5.36,6.35-3.98,4.08-8.97,7.18-13.72,10.28-2.2,1.44-4.34,2.99-6.72,4.14-2.18,1.06-4.5,1.81-6.87,2.28-4.76,.95-9.62,.51-14.36-.34-5.03-.91-9.9-2.38-14.32-4.99-9.34-5.52-16.09-14.3-21.23-23.7-4.58-8.37-7.79-17.84-5.35-27.39,2.57-10.02,8.89-19.23,16.77-25.84,3.45-2.89,6.75-6,10.35-8.7,1.73-1.3,3.57-2.45,5.56-3.32,2.02-.89,4.29-1.32,6.47-1.63,1.49-.21,3.17-.23,4.77-.06h.1c.71,.09,1.4,.21,2.06,.37l.56-.04c4.32,.59,8.62,1.46,12.83,2.57,6.03,1.58,11.94,3.88,17.24,7.2,2.41,1.52,4.58,3.28,6.76,5.11,2.11,1.77,4.42,3.35,6.29,5.39,1.74,1.9,2.57,4.11,3.49,6.47,.91,2.33,1.8,4.67,2.52,7.06,.69,2.31,1.23,4.69,1.29,7.11,.07,2.82-.13,5.72-.37,8.53-.48,5.59-1.5,11.16-4.03,16.22-1.25,2.51-3.02,4.7-4.71,6.92m7.16-6.93c1.21-2.61,2.04-5.38,2.67-8.18,.64-2.89,1.03-5.82,1.3-8.77,.28-3.01,.69-6.13,.44-9.16-.44-5.31-2.6-10.34-4.5-15.25-.98-2.54-2.27-4.7-4.25-6.6-1.9-1.83-4.07-3.34-6.05-5.07-4.71-4.1-10.07-7.25-15.9-9.51-5.76-2.24-11.83-3.62-17.93-4.61-4.13-.67-8.24-1.05-12.38-.85-.95-.01-1.88,.07-2.78,.22l-.33,.04c-2.11,.25-4.3,.69-6.14,1.8l-.38,.62c-3.17,1.74-5.97,4.15-8.68,6.52-3.83,3.37-7.83,6.52-11.2,10.38-3.77,4.32-6.91,9.21-9.2,14.47-2.11,4.84-3.47,10.04-3.34,15.35,.12,5.01,1.53,9.89,3.48,14.48,1.98,4.67,4.59,9.09,7.4,13.3,3.23,4.84,7.09,9.32,11.54,13.07,4.2,3.55,9.01,6.48,14.27,8.14,4.89,1.55,10.07,2.52,15.21,2.71,5.17,.19,10.38-.9,15.02-3.18,2.54-1.24,4.82-2.93,7.17-4.48,2.58-1.71,5.18-3.39,7.69-5.2,2.38-1.73,4.62-3.65,6.61-5.82,1.99-2.17,3.79-4.52,5.56-6.87,1.81-2.39,3.43-4.83,4.7-7.56"/></svg>