<svg xmlns="http://www.w3.org/2000/svg" width="241.8" height="86.248" viewBox="0 0 241.8 86.248">
  <g id="garnish_BrandDevelopment_Ph03" transform="translate(-0.012 -0.046)">
    <path id="Path_1" data-name="Path 1" d="M911.333,519.1v.933c0,10-5.9,16.049-15.1,16.049a16.043,16.043,0,0,1,0-32.082c7.667,0,12.889,4.1,14.717,10.663h-6.843a7.977,7.977,0,0,0-7.89-5.163c-5.324,0-9.4,4.566-9.4,10.545s4.195,10.545,9.4,10.545a7.992,7.992,0,0,0,8.179-6.405h-8.94v-5.077Z" transform="translate(-790.623 -453.818)"/>
    <path id="Path_2" data-name="Path 2" d="M974.363,543.251a6.65,6.65,0,1,0-6.276-6.64,6.41,6.41,0,0,0,6.276,6.64m-1.308-18.646a9.995,9.995,0,0,1,7.647,3.281v-2.734h6.03v22.97H980.7v-2.734a9.994,9.994,0,0,1-7.647,3.281c-6.409,0-11.084-5.3-11.084-12.014s4.687-12.018,11.084-12.018" transform="translate(-840.291 -466.374)"/>
    <path id="Path_3" data-name="Path 3" d="M1040.867,535.959v12.17h-6.1V525.171h6.1v2.816a7.608,7.608,0,0,1,6.144-3.347,4.574,4.574,0,0,1,2.082.488l-.422,5.343a7.847,7.847,0,0,0-2.437-.441c-2.925,0-5.366,2.371-5.366,5.941" transform="translate(-884.657 -466.397)"/>
    <path id="Path_4" data-name="Path 4" d="M1097.759,533.92v14.209h-6.1V534.545a4.452,4.452,0,0,0-4.335-4.527c-2.816,0-5.21,2.148-5.21,5.609v12.5H1076V525.171h6.1v2.574a8.346,8.346,0,0,1,6.538-3.105c5.386,0,9.112,3.726,9.112,9.292" transform="translate(-909.784 -466.397)"/>
    <path id="Path_5" data-name="Path 5" d="M1139.351,510.951h6.1v22.97h-6.1Zm3.058-9.643a3.515,3.515,0,1,1-2.546,1,3.515,3.515,0,0,1,2.546-1" transform="translate(-948.056 -452.177)"/>
    <path id="Path_6" data-name="Path 6" d="M1165.565,541.049a8.07,8.07,0,0,0,5.831,2.734c2.109,0,3.371-.887,3.371-2.281s-.977-2.218-3.945-2.816c-4.992-1.019-7.476-3.546-7.476-7.362s3.308-6.694,8.3-6.694c5.187,0,8.2,2.859,8.956,7.249h-5.741a2.757,2.757,0,0,0-2.906-2.371c-1.441,0-2.636.73-2.636,1.906s1.086,2.218,3.656,2.734c5.324,1.086,7.761,3.515,7.761,7.421,0,4.058-3.39,7.093-9.089,7.093-3.437,0-6.249-1.664-8.593-4.789Z" transform="translate(-962.835 -466.391)"/>
    <path id="Path_7" data-name="Path 7" d="M1235.617,520.068v14.209h-6.1V520.693a4.453,4.453,0,0,0-4.343-4.542c-2.816,0-5.21,2.148-5.21,5.609v12.5h-6.1V501.91h6.1v11.971a8.347,8.347,0,0,1,6.538-3.105c5.39,0,9.112,3.726,9.112,9.292" transform="translate(-993.806 -452.545)"/>
    <path id="Path_8" data-name="Path 8" d="M654.816,458.1c-.414,0-.617.391-1.027,1.363a41.78,41.78,0,0,0-2.265,6.507,37.261,37.261,0,0,0,18.427,41.694,35.757,35.757,0,0,0,17.255,4.476,37.224,37.224,0,0,0,5.187-.367c12.241-1.719,21.407-8.065,27.684-18.654.867-1.465.812-1.562-.687-2.343l-10.495-5.335a23.188,23.188,0,0,1-8.241,2.527,27.317,27.317,0,0,1-3.019.172,23.559,23.559,0,0,1-13.182-3.964,24.215,24.215,0,0,1-10.678-16.591l-17.634-8.964a3.637,3.637,0,0,0-1.324-.519" transform="translate(-650.45 -425.846)" fill="#e84b15"/>
    <path id="Path_9" data-name="Path 9" d="M741.711,424.92h0q-7.054.027-14.108.023H694.987c-.664,0-.949.18-.875.867.07.617.082,1.238.144,1.855a23.188,23.188,0,0,0,5.991,13.553,24.287,24.287,0,0,1,3-9.425,25.309,25.309,0,0,1,4.687-5.945,1,1,0,0,1,.637-.355c.207,0,.391.137.66.43q7.6,8.862,15.256,17.689l3.328,3.851a24.588,24.588,0,0,0,14.8-21.6c.035-.691-.141-.934-.883-.934" transform="translate(-677.045 -405.625)" fill="#fab400"/>
    <path id="Path_10" data-name="Path 10" d="M709.553,466.61a24.237,24.237,0,0,0,.156,6.159l14,7.112,21.13,10.745a26.235,26.235,0,0,0,4.05-2.625c.746-.582.781-.652.141-1.375l-11.9-13.772a23.906,23.906,0,0,1-8.073,1.82c-.508.027-1.012.039-1.508.039a23.464,23.464,0,0,1-17.314-7.386c-.234-.238-.457-.477-.679-.719" transform="translate(-686.385 -431.032)" fill="#d9a2ca"/>
    <path id="Path_11" data-name="Path 11" d="M710.15,482.38a24.215,24.215,0,0,0,10.678,16.592,23.558,23.558,0,0,0,13.182,3.96,27.312,27.312,0,0,0,3.019-.172,23.187,23.187,0,0,0,8.241-2.527l-21.118-10.741-13.99-7.112" transform="translate(-686.826 -440.643)" fill="#e30613"/>
    <path id="Path_12" data-name="Path 12" d="M718.093,426.35a1,1,0,0,0-.637.355,25.363,25.363,0,0,0-4.687,5.941,24.325,24.325,0,0,0-3,9.428c.223.242.445.48.68.715a23.452,23.452,0,0,0,17.314,7.39c.5,0,1,0,1.508-.039a23.906,23.906,0,0,0,8.073-1.82l-3.328-3.851q-7.636-8.843-15.256-17.689c-.25-.293-.453-.43-.66-.43" transform="translate(-686.594 -406.497)" fill="#ef7b00"/>
    <path id="Path_13" data-name="Path 13" d="M661.064,479.052c.476-.992,1-1.953,1.527-2.914.758-1.359,1.492-2.734,2.16-4.156l-.961-.473c-.5,1.14-1.019,2.265-1.59,3.371-.508.992-1.055,1.953-1.535,2.972s-.922,1.984-1.371,2.98c-.5,1.113-1,2.226-1.488,3.343-.242.543-.433,1.1-.683,1.636a9.812,9.812,0,0,0-.726,1.664c-.07.281.3.359.465.2a5.539,5.539,0,0,0,.82-1.281c.25-.465.543-.918.781-1.39.484-.98.906-1.984,1.328-2.992s.816-1.992,1.281-2.961" transform="translate(-654.061 -434.018)" fill="#12110c"/>
    <path id="Path_14" data-name="Path 14" d="M660.452,493.022a7.416,7.416,0,0,0,.734-1.277c.277-.68.508-1.375.746-2.066a63.611,63.611,0,0,1,3.515-7.655,27,27,0,0,0,1.605-3.777c.363-1.113.672-2.246,1.019-3.363l-.883-.433a44.064,44.064,0,0,1-2.32,6.523,84.906,84.906,0,0,0-3.742,7.741,21.48,21.48,0,0,1-1.621,3.726c-.535.879-1.34,1.918-1.273,3a.492.492,0,0,0,.98-.035,2.22,2.22,0,0,1,.391-1.1c.25-.445.543-.867.828-1.289" transform="translate(-655.184 -435.81)" fill="#12110c"/>
    <path id="Path_15" data-name="Path 15" d="M666.468,493.861c.641-1.328,1.226-2.675,1.887-3.992.742-1.484,1.508-2.957,2.265-4.437,1.152-2.257,2.226-4.558,3.242-6.882l-.812-.391c-.867,2.012-1.785,4-2.734,5.96-.738,1.484-1.5,2.957-2.242,4.437-.691,1.394-1.3,2.824-1.953,4.238s-1.308,2.734-1.906,4.14a15.438,15.438,0,0,0-1.289,4.175c-.047.391.535.543.609.141a30.311,30.311,0,0,1,2.937-7.382" transform="translate(-658.044 -438.071)" fill="#12110c"/>
    <path id="Path_16" data-name="Path 16" d="M670.532,503.5c.781-1.672,1.562-3.328,2.312-5s1.715-3.226,2.406-4.913c.34-.832.594-1.691.945-2.519s.734-1.613,1.141-2.4a26.3,26.3,0,0,0,1.172-2.461c.336-.844.617-1.707.894-2.57.125-.391.246-.781.391-1.172l-.957-.469c-.547,1.562-.957,3.207-1.656,4.73-.781,1.687-1.7,3.277-2.344,5.031a25.918,25.918,0,0,1-1.012,2.578c-.391.809-.832,1.6-1.234,2.41-.933,1.883-1.734,3.831-2.648,5.726-.457.953-.922,1.906-1.355,2.875a13.963,13.963,0,0,0-1.148,2.937.348.348,0,0,0,.633.258,14.882,14.882,0,0,0,1.262-2.457c.391-.855.8-1.715,1.2-2.578" transform="translate(-660.792 -440.405)" fill="#12110c"/>
    <path id="Path_17" data-name="Path 17" d="M681.917,499.425q1.236-2.824,2.343-5.7a29.228,29.228,0,0,1,1.332-2.664,16.079,16.079,0,0,0,1.1-2.781c.148-.484.324-.957.516-1.422l-.828-.41c-.391.9-.617,1.851-.961,2.765a27.482,27.482,0,0,1-1.426,2.886,54.031,54.031,0,0,0-2.218,5.695c-.746,1.953-1.543,3.906-2.437,5.812-.477,1.019-.961,2.031-1.4,3.066a22.987,22.987,0,0,1-1.562,3.125c-.961,1.562-2.121,3.226-2.343,5.077-.027.215.324.254.371.051a15.124,15.124,0,0,1,2.343-4.593,46.857,46.857,0,0,0,2.586-5.441c.867-1.812,1.75-3.636,2.554-5.488" transform="translate(-664.811 -443.123)" fill="#12110c"/>
    <path id="Path_18" data-name="Path 18" d="M683.821,514.876c.906-1.84,1.633-3.757,2.457-5.636s1.867-3.664,2.8-5.5a25.845,25.845,0,0,0,1.289-2.89c.344-.945.668-1.9,1.031-2.843a59.043,59.043,0,0,1,2.625-5.64l.547-1.074-.918-.453c-.89,1.773-1.832,3.515-2.629,5.339s-1.441,3.8-2.265,5.663-1.953,3.671-2.843,5.542c-1.012,2.109-1.789,4.3-2.824,6.413a44.724,44.724,0,0,0-2.867,6.23c-.2.621.734.84.957.258.726-1.871,1.75-3.613,2.636-5.409" transform="translate(-668.574 -445.798)" fill="#12110c"/>
    <path id="Path_19" data-name="Path 19" d="M691.221,520.427c.781-2.023,1.633-4.023,2.578-5.976s1.992-3.781,2.992-5.667,1.891-3.933,2.839-5.9,1.953-3.839,2.961-5.734q.328-.613.68-1.219l-.781-.391c-.969,1.84-1.992,3.644-2.9,5.511-.945,1.933-1.761,3.925-2.714,5.859s-2.054,3.863-3.054,5.812c-1.094,2.133-1.98,4.359-2.859,6.589-.441,1.121-.848,2.254-1.285,3.375-.2.523-.43,1.027-.594,1.562a9.687,9.687,0,0,1-.484,1.519c-.078.164.164.293.27.156a12.172,12.172,0,0,0,1.172-2.523c.445-.969.781-1.98,1.172-2.976" transform="translate(-673.681 -448.663)" fill="#12110c"/>
    <path id="Path_20" data-name="Path 20" d="M656.587,478.734c.269-.676.484-1.367.715-2.054.512-1.527,1.133-3.023,1.738-4.515.558-1.379,1.113-2.757,1.7-4.124l-.652-.32c-1.172,2.613-2.316,5.222-3.347,7.89a15.824,15.824,0,0,0-.715,2.386c-.082.391-.2.781-.25,1.172a1.971,1.971,0,0,1-.164.668,5.875,5.875,0,0,1-.34.586c-.137.215.2.437.332.215.176-.293.289-.617.457-.914a7.363,7.363,0,0,0,.527-1" transform="translate(-653.361 -431.708)" fill="#12110c"/>
    <path id="Path_21" data-name="Path 21" d="M703.863,520.3c1.047-2.008,2.039-4.038,3.1-6.034.539-1.008,1.09-2,1.562-3.039s.887-2.113,1.32-3.175a42.645,42.645,0,0,1,2.89-5.948c.144-.242.3-.477.453-.715l-1.023-.492a36.637,36.637,0,0,0-2.691,5.077c-.918,2.066-1.652,4.218-2.691,6.249s-2.144,4.015-3.125,6.077-1.922,4.093-2.871,6.148c-.879,1.9-1.668,3.839-2.6,5.718-.2.41-.391.812-.625,1.215a.465.465,0,0,0,.246.6.472.472,0,0,0,.6-.25,53.377,53.377,0,0,0,2.531-5.316c.887-2.074,1.855-4.093,2.9-6.093" transform="translate(-679.136 -451.929)" fill="#12110c"/>
    <path id="Path_22" data-name="Path 22" d="M710.871,531.125a20.388,20.388,0,0,0,1.3-2.754c.457-1.035.918-2.07,1.394-3.1,1.9-4.093,4.16-8.03,5.706-12.28.391-1.055.688-2.125,1-3.2a30.453,30.453,0,0,1,1.062-3c.254-.637.527-1.265.781-1.894l-.891-.437-.164.391c-.453,1.039-.9,2.09-1.285,3.156s-.629,2.07-.953,3.125c-1.355,4.3-3.59,8.257-5.562,12.3-1,2.054-1.922,4.144-2.84,6.249a23.643,23.643,0,0,1-1.172,2.41,18.992,18.992,0,0,0-1.172,2.343,5.5,5.5,0,0,0-.3,1.09.434.434,0,0,0,.859.117,7.075,7.075,0,0,1,.851-2.207c.414-.781.887-1.535,1.363-2.281" transform="translate(-685.375 -454.099)" fill="#12110c"/>
    <path id="Path_23" data-name="Path 23" d="M722.72,531.561c.449-.855,1.105-1.562,1.613-2.394a24.392,24.392,0,0,0,1.4-2.9c.457-1.023.934-2.039,1.406-3.058.992-2.136,1.984-4.273,2.933-6.425.883-1.988,1.984-3.906,2.769-5.921.051-.125.1-.25.145-.391l-.887-.434c-.246.652-.508,1.3-.8,1.933-.469,1-.972,1.984-1.441,2.988-.953,2.047-1.816,4.14-2.734,6.2s-1.89,4.132-2.851,6.194a14.527,14.527,0,0,1-1.562,2.433,10.128,10.128,0,0,0-1.453,2.785,62.272,62.272,0,0,1-2.308,6c-.2.437-.391.871-.625,1.3-.269.535.57.922.844.391a45.933,45.933,0,0,0,2.441-5.683,23.267,23.267,0,0,1,1.121-3.019" transform="translate(-691.771 -457.499)" fill="#12110c"/>
    <path id="Path_24" data-name="Path 24" d="M734.742,532.449a7.23,7.23,0,0,1,.629-1.449,8.226,8.226,0,0,1,.953-1.172,7.987,7.987,0,0,0,.918-1.222c.269-.453.48-.941.707-1.414.476-.992.922-2,1.308-3.023s.621-2.121.98-3.171a45.314,45.314,0,0,1,2.878-6.276l-.781-.391a45.691,45.691,0,0,0-2.168,4.628c-.809,2.078-1.363,4.246-2.254,6.292a27.455,27.455,0,0,1-1.418,2.961c-.512.875-1.308,1.539-1.8,2.429a14.746,14.746,0,0,0-.894,2.976,31.258,31.258,0,0,1-1.125,2.988c-.8,1.929-1.719,3.808-2.625,5.691-.2.426-.391.848-.582,1.281-.09.223.23.344.34.141.961-1.785,1.836-3.628,2.679-5.468a53.583,53.583,0,0,0,2.258-5.8" transform="translate(-698.587 -460.114)" fill="#12110c"/>
    <path id="Path_25" data-name="Path 25" d="M745.71,544.988a17.649,17.649,0,0,0,.664-2.961,17.529,17.529,0,0,1,2.054-5.585c.488-.828,1.058-1.605,1.562-2.429s.98-1.707,1.43-2.582a58.006,58.006,0,0,0,2.414-5.343,29.31,29.31,0,0,1,1.172-2.773c.461-.879.984-1.722,1.445-2.6l-.879-.433a41.071,41.071,0,0,0-2.113,4.05,51.743,51.743,0,0,1-5.148,10.463,18.758,18.758,0,0,0-1.7,2.968,21.187,21.187,0,0,0-1.066,3.148c-.281,1.1-.414,2.226-.715,3.32s-1.023,2.008-1.328,3.1a.527.527,0,0,0,.273.664.508.508,0,0,0,.66-.273c.289-.976.926-1.789,1.285-2.734" transform="translate(-707.134 -463.74)" fill="#12110c"/>
    <path id="Path_26" data-name="Path 26" d="M756.244,549.343a7.46,7.46,0,0,1,.25-.758c.207-.559.445-1.105.68-1.652.6-1.406,1.027-2.875,1.7-4.249a25.528,25.528,0,0,0,1.133-2.6c.316-.879.57-1.781.859-2.668.609-1.879,1.953-3.378,2.972-5.046.508-.844.891-1.746,1.312-2.632s.859-1.781,1.258-2.687c.3-.676.574-1.363.867-2.039l-.781-.391c-.137.324-.27.652-.391.988-.351.965-.758,1.91-1.172,2.847s-.781,1.8-1.2,2.691c-.856,1.773-2.191,3.269-3.027,5.05a19.439,19.439,0,0,0-1,2.683,27.625,27.625,0,0,1-1.054,2.8c-.438,1.031-.856,2.086-1.234,3.124-.226.641-.437,1.281-.691,1.914s-.523,1.3-.738,1.953a2.059,2.059,0,0,0-.172,1.289c.1.234.453.059.359-.176a.942.942,0,0,1,.059-.484" transform="translate(-714.621 -466.385)" fill="#12110c"/>
    <path id="Path_27" data-name="Path 27" d="M770.586,545.94c.246-.762.457-1.539.73-2.3s.625-1.469.953-2.2.687-1.511,1.035-2.265a40.561,40.561,0,0,1,2.25-4.4c.426-.7.914-1.355,1.336-2.054a23.152,23.152,0,0,0,1.211-2.308c.043-.1.086-.2.133-.293l-.863-.426a21.684,21.684,0,0,1-1.883,3.48,60.163,60.163,0,0,0-4.687,8.948c-.746,1.656-1.035,3.472-1.8,5.113-.668,1.414-1.308,2.839-1.953,4.265-.215.476.582.883.824.414.633-1.238,1.172-2.515,1.781-3.765a17.956,17.956,0,0,0,.914-2.215" transform="translate(-721.476 -469.481)" fill="#12110c"/>
    <path id="Path_28" data-name="Path 28" d="M782.44,545.364c.711-1.238,1.312-2.523,1.953-3.785s1.371-2.633,2.086-3.929,1.269-2.535,1.832-3.835l-.578-.285a25.269,25.269,0,0,1-1.422,3.062c-.723,1.289-1.383,2.613-2.043,3.937s-1.355,2.617-2,3.941c-1.242,2.531-2.953,5.007-3.218,7.886a.105.105,0,0,0,.207.031c.367-2.59,1.89-4.808,3.168-7.03" transform="translate(-728.815 -471.815)" fill="#12110c"/>
    <path id="Path_29" data-name="Path 29" d="M797.057,543.038q.59-1.617,1.258-3.207.563-1.328,1.144-2.656l-.722-.355c-.266.551-.527,1.1-.781,1.66a57.138,57.138,0,0,0-2.433,6.378c-.309,1.008-.648,2-1,2.992a8.2,8.2,0,0,1-1.637,2.785c-.289.324.184.781.484.477a10.393,10.393,0,0,0,1.488-2.344,18.764,18.764,0,0,0,1.172-2.7c.355-1.008.656-2.039,1.023-3.046" transform="translate(-737.194 -473.82)" fill="#12110c"/>
    <path id="Path_30" data-name="Path 30" d="M812.3,541.61q.082-.164.152-.34l-.656-.32c-.418.965-1.008,1.855-1.4,2.832a10.139,10.139,0,0,1-.758,1.613,4.747,4.747,0,0,0-.781,1.66c-.027.2.254.39.391.2a13.314,13.314,0,0,0,.73-1.383c.242-.465.519-.926.738-1.4a13.818,13.818,0,0,1,.734-1.508c.273-.449.6-.879.836-1.351" transform="translate(-746.979 -476.337)" fill="#12110c"/>
    <path id="Path_31" data-name="Path 31" d="M744.289,376.653a7.137,7.137,0,1,0,0,.016" transform="translate(-699.108 -375.59)" fill="#78a051"/>
    <path id="Path_32" data-name="Path 32" d="M753.055,398.472c-.211.074-.543.129-.687-.055a.59.59,0,0,1-.063-.527.506.506,0,0,1,.141-.238h.024a1.1,1.1,0,0,1,.391,0,.586.586,0,0,1,.25.227c.105.168.183.508-.062.594m.355-.609a.871.871,0,0,0-.414-.437.648.648,0,0,0-.391-.059l-.234.031a.611.611,0,0,0-.262.281.965.965,0,0,0-.031.871.816.816,0,0,0,1.051.25.715.715,0,0,0,.285-.937" transform="translate(-712.319 -388.828)"/>
    <path id="Path_33" data-name="Path 33" d="M751.429,396.6a2.519,2.519,0,0,1-1.39,1.008,2.344,2.344,0,0,1-1.562-.055c-.781-.324-1.793-1-1.675-1.984a3.27,3.27,0,0,1,.566-1.4l.168-.227.117-.078.129-.152a2.393,2.393,0,0,1,.262-.23l.14-.078a2.913,2.913,0,0,1,.816-.18,2.086,2.086,0,0,1,1.633.449,3.065,3.065,0,0,1,.9,1.383,1.8,1.8,0,0,1-.086,1.562m.559-1.058a3.3,3.3,0,0,0-.781-1.765,2.46,2.46,0,0,0-1.648-.891,4.006,4.006,0,0,0-.988.1,1.766,1.766,0,0,0-.465.137,1.257,1.257,0,0,0-.336.273,2.247,2.247,0,0,0-.437.391l-.035.039a3.837,3.837,0,0,0-.75,1.359,1.738,1.738,0,0,0,.2,1.48,3.126,3.126,0,0,0,1.226,1.027,2.836,2.836,0,0,0,1.672.34,3.032,3.032,0,0,0,1.738-.859,2,2,0,0,0,.594-1.644" transform="translate(-708.966 -386.11)"/>
    <path id="Path_34" data-name="Path 34" d="M749.087,394.957c-.312.34-.637.672-.965,1a3.563,3.563,0,0,1-1.07.781,2.289,2.289,0,0,1-.621.148,3.255,3.255,0,0,1-.73,0,2.773,2.773,0,0,1-1.32-.469,5.128,5.128,0,0,1-.551-.5,3.58,3.58,0,0,0-.594-.457,2.989,2.989,0,0,1-.984-.711,3.181,3.181,0,0,1-.277-.523c-.094-.207-.187-.414-.266-.625a4,4,0,0,1-.258-1.172,2.406,2.406,0,0,1,.281-1.262,4.317,4.317,0,0,1,.977-1.055c.176-.152.355-.3.527-.465s.328-.309.508-.449a4.3,4.3,0,0,1,.82-.5h.039a2.949,2.949,0,0,1,1.172-.285,3.443,3.443,0,0,1,1.261.148,1.637,1.637,0,0,1,.523.273,4.71,4.71,0,0,1,.461.5,3.126,3.126,0,0,0,.547.492c.188.129.391.246.563.391a2.391,2.391,0,0,1,.824,1.039,3.307,3.307,0,0,1,.215,1.172,3.519,3.519,0,0,1-.2,1.32,4.364,4.364,0,0,1-.867,1.23m1.145-1.058a3.235,3.235,0,0,0,.2-.781,3.609,3.609,0,0,0-.426-2.6,2.518,2.518,0,0,0-.547-.586c-.2-.156-.418-.277-.629-.414a2.854,2.854,0,0,1-.594-.512,3.5,3.5,0,0,0-.539-.539,2.343,2.343,0,0,0-1.3-.391,3.853,3.853,0,0,0-1.351.176,3.193,3.193,0,0,0-.476.172,3.273,3.273,0,0,0-.391.18,5.654,5.654,0,0,0-1.133.859c-.391.34-.8.613-1.172.965a2.461,2.461,0,0,0-.707,1.254,4.168,4.168,0,0,0,.457,2.621,2.382,2.382,0,0,0,.7,1.008c.2.148.433.246.644.391a3.222,3.222,0,0,1,.636.492,3.611,3.611,0,0,0,.6.52,2.853,2.853,0,0,0,.664.309,3.786,3.786,0,0,0,1.508.145,2.877,2.877,0,0,0,1.277-.539,6.032,6.032,0,0,0,1.051-.894,13.944,13.944,0,0,0,1.109-1.191,3.4,3.4,0,0,0,.391-.683" transform="translate(-705.698 -383.185)"/>
    <path id="Path_35" data-name="Path 35" d="M747.914,393.144a9.306,9.306,0,0,1-1.586,1.23,14.13,14.13,0,0,1-1.765,1.191,2.788,2.788,0,0,1-1.738.273,5.569,5.569,0,0,1-1.078-.34,4.764,4.764,0,0,1-.926-.488,3.125,3.125,0,0,1-.762-.746,5.3,5.3,0,0,0-.629-.762c-.281-.262-.644-.391-.926-.664a6.029,6.029,0,0,1-.715-.863,4.035,4.035,0,0,1-.648-3.773,12.524,12.524,0,0,1,.937-1.769c.051-.1.1-.191.144-.289l.1-.074a3.553,3.553,0,0,1,1.379-1.562,5.227,5.227,0,0,1,1.648-.9,3.907,3.907,0,0,1,1.918-.129,12.938,12.938,0,0,1,1.773.555c.324.109.664.187.984.3a3.673,3.673,0,0,1,.937.539,6.833,6.833,0,0,1,1.59,1.367,4.6,4.6,0,0,1,.469.875,7.015,7.015,0,0,1,.309.875,5.023,5.023,0,0,1,.176,1.687,5.689,5.689,0,0,1-.531,1.906,5.63,5.63,0,0,1-1.043,1.562M750,390.941a5.785,5.785,0,0,0-.391-3.812,4,4,0,0,0-.543-.949,4.765,4.765,0,0,0-.808-.754c-.3-.23-.613-.453-.922-.68a4.139,4.139,0,0,0-1.051-.586c-.352-.121-.711-.223-1.062-.348s-.645-.242-.973-.348a4.605,4.605,0,0,0-4.039.488l-.055.031H740.1l-.2.156a4.856,4.856,0,0,0-.391.3,4.357,4.357,0,0,0-1.172,1.172c-.2.328-.363.676-.562,1s-.391.605-.555.922a4.793,4.793,0,0,0-.617,1.918,4.452,4.452,0,0,0,.418,2.14,4.782,4.782,0,0,0,.57.949,6.062,6.062,0,0,0,.808.953c.285.246.645.391.922.648a7.21,7.21,0,0,1,.672.828,4.3,4.3,0,0,0,2,1.32,3.907,3.907,0,0,0,1.953.281,4.628,4.628,0,0,0,1.918-.894c.313-.226.617-.469.937-.683s.637-.414.937-.652a6.519,6.519,0,0,0,2.293-3.425" transform="translate(-702.941 -380.203)"/>
    <path id="Path_36" data-name="Path 36" d="M747.5,392.032a12.16,12.16,0,0,1-.918,1.086,13.56,13.56,0,0,1-2.343,1.758,10.642,10.642,0,0,1-1.172.711,4.945,4.945,0,0,1-1.172.391,6.58,6.58,0,0,1-2.457-.063,7.279,7.279,0,0,1-2.449-.851,10.388,10.388,0,0,1-3.629-4.054,6.476,6.476,0,0,1-.914-4.687,8.746,8.746,0,0,1,2.883-4.445c.59-.5,1.172-1.027,1.769-1.492a4.769,4.769,0,0,1,.949-.566,4.165,4.165,0,0,1,1.109-.277,3.518,3.518,0,0,1,.812,0h.02a2.543,2.543,0,0,1,.351.062h.094a19.011,19.011,0,0,1,2.2.437,10.641,10.641,0,0,1,2.949,1.234,10.786,10.786,0,0,1,1.172.871,11.532,11.532,0,0,1,1.074.922,3.318,3.318,0,0,1,.6,1.109,12.184,12.184,0,0,1,.43,1.207,4.6,4.6,0,0,1,.223,1.215,14.08,14.08,0,0,1-.063,1.461,6.121,6.121,0,0,1-1.512,3.972m1.223-1.172a6.735,6.735,0,0,0,.457-1.4,12.2,12.2,0,0,0,.223-1.5,9.138,9.138,0,0,0,.074-1.562,9.6,9.6,0,0,0-.781-2.609,3.064,3.064,0,0,0-.727-1.129c-.324-.312-.7-.57-1.035-.863a9.17,9.17,0,0,0-2.734-1.629,15.112,15.112,0,0,0-3.066-.781,10.161,10.161,0,0,0-2.117-.148,2.708,2.708,0,0,0-.476.039h-.059a2.617,2.617,0,0,0-1.05.309l-.063.105a8.41,8.41,0,0,0-1.484,1.113,20.136,20.136,0,0,0-1.918,1.777,9.7,9.7,0,0,0-1.562,2.472,6.249,6.249,0,0,0-.57,2.625,6.8,6.8,0,0,0,.6,2.476,14.053,14.053,0,0,0,1.265,2.273,10.663,10.663,0,0,0,1.972,2.238,7.169,7.169,0,0,0,2.441,1.39,9.82,9.82,0,0,0,2.6.465,5.377,5.377,0,0,0,2.57-.543,11.061,11.061,0,0,0,1.226-.781c.441-.293.887-.582,1.312-.891a7.435,7.435,0,0,0,1.133-1c.34-.371.648-.781.953-1.172a6.856,6.856,0,0,0,.8-1.293" transform="translate(-700.038 -377.783)"/>
  </g>
</svg>
