<?xml version="1.0" encoding="UTF-8"?><svg id="garnish_BrandDevelopment_Ph03" xmlns="http://www.w3.org/2000/svg" viewBox="0 0 332.56 127.01"><defs><style>.cls-1{fill:#ef7b00;}.cls-2{fill:#d9a2ca;}.cls-3{fill:#e84b15;}.cls-4{fill:#e30613;}.cls-5{fill:#78a051;}.cls-6{fill:#f1f1e6;}.cls-7{fill:#fab400;}.cls-8{fill:#12110c;}</style></defs><path id="Path_1" class="cls-6" d="M166.02,98.12v1.28c0,13.75-8.11,22.07-20.76,22.07-12.18-.2-21.9-10.24-21.7-22.42,.2-11.9,9.8-21.5,21.7-21.7,10.54,0,17.72,5.64,20.24,14.66h-9.41c-1.92-4.36-5.27-7.1-10.85-7.1-7.32,0-12.93,6.28-12.93,14.5s5.77,14.5,12.93,14.5c5.76,0,10.27-3.62,11.25-8.81h-12.3v-6.98h21.83Z"/><path id="Path_2" class="cls-6" d="M184.39,114.06c5.04-.24,8.94-4.52,8.7-9.56-.22-4.71-3.99-8.48-8.7-8.7-4.88,0-8.63,4-8.63,9.13s3.76,9.13,8.63,9.13m-1.8-25.64c3.99-.1,7.83,1.55,10.52,4.51v-3.76h8.29v31.59h-8.29v-3.76c-2.68,2.96-6.52,4.61-10.52,4.51-8.81,0-15.24-7.29-15.24-16.52s6.45-16.53,15.24-16.53"/><path id="Path_3" class="cls-6" d="M214.84,104v16.74h-8.38v-31.57h8.38v3.87c1.9-2.81,5.05-4.53,8.45-4.6,.99,0,1.98,.22,2.86,.67l-.58,7.35c-1.08-.38-2.21-.58-3.35-.61-4.02,0-7.38,3.26-7.38,8.17"/><path id="Path_4" class="cls-6" d="M258.52,101.2v19.54h-8.39v-18.68c.06-3.36-2.6-6.14-5.96-6.22-3.87,0-7.17,2.95-7.17,7.71v17.19h-8.41v-31.57h8.38v3.54c2.19-2.72,5.5-4.29,8.99-4.27,7.41,0,12.53,5.12,12.53,12.78"/><path id="Path_5" class="cls-6" d="M263.09,89.17h8.39v31.59h-8.39v-31.59Zm4.21-13.26c2.67,.07,4.78,2.29,4.7,4.96-.07,2.67-2.29,4.78-4.96,4.7-2.67-.07-4.78-2.29-4.7-4.96,.03-1.26,.56-2.46,1.46-3.34,.93-.91,2.2-1.4,3.5-1.37"/><path id="Path_6" class="cls-6" d="M278.81,111.01c2.47,2.41,4.91,3.76,8.02,3.76,2.9,0,4.64-1.22,4.64-3.14s-1.34-3.05-5.43-3.87c-6.86-1.4-10.28-4.88-10.28-10.12s4.55-9.21,11.41-9.21,11.28,3.93,12.32,9.97h-7.9c-.27-1.97-2.02-3.39-4-3.26-1.98,0-3.62,1-3.62,2.62s1.49,3.05,5.03,3.76c7.32,1.49,10.67,4.83,10.67,10.21s-4.66,9.75-12.5,9.75c-4.73,0-8.59-2.29-11.82-6.59l3.47-3.88Z"/><path id="Path_7" class="cls-6" d="M332.56,101.2v19.54h-8.38v-18.68c.07-3.37-2.6-6.17-5.97-6.25-3.87,0-7.17,2.95-7.17,7.71v17.19h-8.38v-44.48h8.38v16.46c2.19-2.72,5.5-4.29,8.99-4.27,7.41,0,12.53,5.12,12.53,12.78"/><path id="Path_8" class="cls-3" d="M6.03,52.7c-.57,0-.85,.54-1.41,1.88-1.28,2.89-2.32,5.88-3.11,8.95-5.59,22.65,4.82,46.22,25.34,57.34,7.26,4.02,15.43,6.14,23.73,6.16,2.39,0,4.77-.17,7.13-.5,16.83-2.36,29.44-11.09,38.07-25.65,1.19-2.01,1.12-2.15-.95-3.22l-14.43-7.34c-3.53,1.86-7.37,3.04-11.33,3.48-1.38,.16-2.76,.23-4.15,.24-6.45,.03-12.76-1.87-18.13-5.45-7.91-5.18-13.25-13.47-14.68-22.82L7.85,53.41c-.55-.36-1.17-.6-1.82-.71"/><path id="Path_9" class="cls-7" d="M88.95,34.88h0c-6.47,.03-12.93,.04-19.4,.03H24.7c-.91,0-1.3,.25-1.2,1.19,.1,.85,.11,1.7,.2,2.55,.63,6.95,3.53,13.49,8.24,18.64,.47-4.56,1.88-8.97,4.12-12.96,1.73-3.03,3.9-5.79,6.45-8.17,.22-.27,.53-.44,.88-.49,.28,0,.54,.19,.91,.59,6.97,8.12,13.96,16.23,20.98,24.33l4.58,5.3c11.93-5.17,19.84-16.72,20.35-29.71,.05-.95-.19-1.28-1.21-1.28"/><path id="Path_10" class="cls-2" d="M31.88,57.27c-.29,2.82-.22,5.67,.22,8.47l19.26,9.78,29.06,14.78c1.96-1.03,3.83-2.24,5.57-3.61,1.03-.8,1.07-.9,.19-1.89l-16.37-18.94c-3.53,1.47-7.28,2.32-11.1,2.5-.7,.04-1.39,.05-2.07,.05-9.01,.09-17.64-3.6-23.81-10.16-.32-.33-.63-.65-.93-.99"/><path id="Path_11" class="cls-4" d="M32.1,65.74c1.43,9.35,6.77,17.64,14.68,22.82,5.37,3.58,11.68,5.48,18.13,5.45,1.39,0,2.77-.08,4.15-.24,3.96-.44,7.81-1.62,11.33-3.48l-29.04-14.77-19.24-9.78"/><path id="Path_12" class="cls-1" d="M43.34,35.65c-.34,.05-.66,.22-.88,.49-2.54,2.39-4.72,5.14-6.45,8.17-2.25,3.99-3.65,8.41-4.12,12.97,.31,.33,.61,.66,.93,.98,6.17,6.56,14.8,10.25,23.81,10.16,.68,0,1.38,0,2.07-.05,3.82-.18,7.57-1.03,11.1-2.5l-4.58-5.3c-7-8.11-13.99-16.22-20.98-24.33-.34-.4-.62-.59-.91-.59"/><path id="Path_13" class="cls-8" d="M9.65,70.27c.66-1.36,1.37-2.69,2.1-4.01,1.04-1.87,2.05-3.76,2.97-5.71l-1.32-.65c-.68,1.57-1.4,3.11-2.19,4.64-.7,1.36-1.45,2.69-2.11,4.09s-1.27,2.73-1.89,4.1c-.69,1.53-1.37,3.06-2.05,4.6-.33,.75-.6,1.52-.94,2.25-.4,.73-.74,1.5-1,2.29-.1,.39,.42,.49,.64,.27,.46-.53,.83-1.13,1.13-1.76,.34-.64,.75-1.26,1.07-1.91,.67-1.35,1.25-2.73,1.83-4.11s1.12-2.74,1.76-4.07"/><path id="Path_14" class="cls-8" d="M7.27,87.02c.39-.55,.73-1.14,1.01-1.76,.38-.93,.7-1.89,1.03-2.84,1.38-3.61,2.99-7.13,4.83-10.53,.87-1.67,1.6-3.41,2.21-5.19,.5-1.53,.92-3.09,1.4-4.62l-1.21-.6c-.83,3.07-1.89,6.07-3.19,8.97-1.89,3.46-3.61,7.01-5.15,10.64-.58,1.77-1.33,3.49-2.23,5.12-.74,1.21-1.84,2.64-1.75,4.13,.05,.37,.38,.63,.75,.59,.33-.04,.58-.31,.59-.64,.04-.54,.23-1.06,.54-1.51,.34-.61,.75-1.19,1.14-1.77"/><path id="Path_15" class="cls-8" d="M11.61,85.07c.88-1.83,1.69-3.68,2.59-5.49,1.02-2.04,2.07-4.07,3.11-6.1,1.59-3.1,3.06-6.27,4.46-9.46l-1.12-.54c-1.19,2.77-2.46,5.51-3.76,8.2-1.02,2.04-2.07,4.07-3.08,6.1-.95,1.92-1.79,3.88-2.69,5.83s-1.8,3.76-2.62,5.69c-.86,1.82-1.46,3.75-1.77,5.74-.06,.54,.74,.75,.84,.19,.67-3.6,2.47-6.89,4.04-10.15"/><path id="Path_16" class="cls-8" d="M13.42,95.11c1.07-2.3,2.15-4.58,3.18-6.88s2.36-4.44,3.31-6.76c.47-1.14,.82-2.33,1.3-3.46s1.01-2.22,1.57-3.3c.6-1.1,1.13-2.23,1.61-3.38,.46-1.16,.85-2.35,1.23-3.53,.17-.54,.34-1.07,.54-1.61l-1.32-.64c-.75,2.15-1.32,4.41-2.28,6.5-1.07,2.32-2.34,4.51-3.22,6.92-.4,1.21-.86,2.39-1.39,3.55-.54,1.11-1.14,2.2-1.7,3.31-1.28,2.59-2.39,5.27-3.64,7.87-.63,1.31-1.27,2.62-1.86,3.95-.68,1.28-1.21,2.64-1.58,4.04-.05,.26,.12,.51,.37,.56,.19,.04,.39-.04,.5-.21,.68-1.07,1.26-2.2,1.73-3.38,.54-1.18,1.1-2.36,1.64-3.55"/><path id="Path_17" class="cls-8" d="M23.55,85.77c1.13-2.59,2.21-5.2,3.22-7.84,.55-1.25,1.16-2.47,1.83-3.66,.62-1.23,1.13-2.51,1.51-3.82,.2-.67,.45-1.32,.71-1.95l-1.14-.56c-.54,1.24-.85,2.55-1.32,3.8-.58,1.36-1.23,2.69-1.96,3.97-1.16,2.55-2.18,5.17-3.05,7.83-1.03,2.68-2.12,5.37-3.35,7.99-.66,1.4-1.32,2.79-1.93,4.22-.61,1.49-1.32,2.92-2.15,4.3-1.32,2.15-2.92,4.44-3.22,6.98-.04,.3,.45,.35,.51,.07,.54-2.34,1.96-4.33,3.22-6.32,1.51-2.33,2.36-4.99,3.56-7.48s2.41-5,3.51-7.55"/><path id="Path_18" class="cls-8" d="M20.99,103.34c1.25-2.53,2.24-5.17,3.38-7.75s2.57-5.04,3.86-7.56c.67-1.29,1.26-2.62,1.77-3.98,.47-1.3,.92-2.62,1.42-3.91,1.07-2.65,2.27-5.24,3.61-7.76l.75-1.48-1.26-.62c-1.22,2.44-2.52,4.83-3.61,7.34s-1.98,5.23-3.11,7.79-2.68,5.05-3.91,7.62c-1.39,2.9-2.46,5.91-3.88,8.82-1.53,2.75-2.85,5.61-3.94,8.57-.27,.85,1.01,1.16,1.32,.35,1-2.57,2.41-4.97,3.62-7.44"/><path id="Path_19" class="cls-8" d="M24.14,107.03c1.07-2.78,2.24-5.53,3.54-8.22s2.74-5.2,4.11-7.79,2.6-5.41,3.9-8.12,2.69-5.28,4.07-7.89c.3-.56,.61-1.12,.93-1.68l-1.07-.54c-1.33,2.53-2.74,5.01-3.99,7.58-1.3,2.66-2.42,5.4-3.73,8.06-1.31,2.66-2.83,5.31-4.2,7.99-1.5,2.93-2.72,5.99-3.93,9.06-.61,1.54-1.16,3.1-1.77,4.64-.28,.72-.59,1.41-.82,2.15-.16,.71-.39,1.41-.67,2.09-.11,.23,.23,.4,.37,.22,.67-1.09,1.21-2.26,1.61-3.47,.61-1.33,1.07-2.72,1.61-4.09"/><path id="Path_20" class="cls-8" d="M4.46,73.01c.37-.93,.67-1.88,.98-2.83,.7-2.1,1.56-4.16,2.39-6.21,.77-1.9,1.53-3.79,2.34-5.67l-.9-.44c-1.61,3.59-3.18,7.18-4.6,10.85-.41,1.07-.74,2.16-.98,3.28-.11,.54-.27,1.07-.34,1.61-.02,.32-.1,.63-.23,.92-.14,.28-.3,.55-.47,.81-.19,.3,.28,.6,.46,.3,.24-.4,.4-.85,.63-1.26,.28-.44,.52-.9,.72-1.37"/><path id="Path_21" class="cls-8" d="M34.03,102.37c1.44-2.76,2.8-5.55,4.27-8.3,.74-1.39,1.5-2.74,2.15-4.18s1.22-2.91,1.82-4.37c1.11-2.83,2.44-5.56,3.97-8.18,.2-.33,.41-.65,.62-.98l-1.41-.68c-1.41,2.23-2.65,4.56-3.7,6.98-1.26,2.84-2.27,5.8-3.7,8.59s-2.95,5.52-4.3,8.36-2.64,5.63-3.95,8.45c-1.21,2.62-2.29,5.28-3.57,7.86-.27,.56-.54,1.12-.86,1.67-.13,.32,.02,.69,.34,.83,.32,.12,.69-.03,.83-.34,1.29-2.37,2.46-4.81,3.48-7.31,1.22-2.85,2.55-5.63,3.99-8.38"/><path id="Path_22" class="cls-8" d="M35.08,114.27c.69-1.22,1.28-2.48,1.78-3.79,.63-1.42,1.26-2.85,1.92-4.26,2.61-5.63,5.72-11.04,7.85-16.89,.54-1.45,.95-2.92,1.38-4.4,.41-1.4,.9-2.78,1.46-4.12,.35-.88,.72-1.74,1.07-2.6l-1.22-.6-.23,.54c-.62,1.43-1.23,2.87-1.77,4.34s-.86,2.85-1.31,4.3c-1.86,5.91-4.94,11.35-7.65,16.92-1.38,2.83-2.64,5.7-3.9,8.59-.47,1.13-1.01,2.24-1.61,3.31-.61,1.04-1.15,2.11-1.61,3.22-.19,.48-.33,.99-.41,1.5-.08,.32,.12,.65,.44,.73,.32,.08,.65-.12,.73-.44,.01-.04,.02-.09,.02-.13,.22-1.07,.61-2.1,1.17-3.03,.57-1.07,1.22-2.11,1.88-3.14"/><path id="Path_23" class="cls-8" d="M42.58,110.19c.62-1.18,1.52-2.15,2.22-3.29,.73-1.28,1.37-2.62,1.92-3.98,.63-1.41,1.28-2.8,1.93-4.21,1.36-2.94,2.73-5.88,4.03-8.84,1.21-2.73,2.73-5.37,3.81-8.14,.07-.17,.13-.34,.2-.54l-1.22-.6c-.34,.9-.7,1.78-1.11,2.66-.65,1.38-1.34,2.73-1.98,4.11-1.31,2.81-2.5,5.69-3.76,8.53s-2.6,5.68-3.92,8.52c-.6,1.18-1.32,2.3-2.15,3.35-.86,1.16-1.54,2.46-2,3.83-.92,2.8-1.97,5.55-3.17,8.24-.27,.6-.54,1.2-.86,1.79-.37,.74,.78,1.27,1.16,.54,1.29-2.53,2.41-5.14,3.36-7.82,.42-1.42,.93-2.81,1.54-4.15"/><path id="Path_24" class="cls-8" d="M49.74,107.82c.21-.69,.5-1.36,.86-1.99,.39-.58,.83-1.12,1.31-1.61,.47-.52,.9-1.08,1.26-1.68,.37-.62,.66-1.29,.97-1.94,.66-1.36,1.27-2.74,1.8-4.16s.85-2.92,1.35-4.36c1.1-2.97,2.42-5.86,3.96-8.63l-1.07-.54c-1.11,2.06-2.11,4.19-2.98,6.36-1.11,2.86-1.88,5.84-3.1,8.65-.57,1.39-1.22,2.75-1.95,4.07-.7,1.2-1.8,2.12-2.48,3.34-.55,1.32-.97,2.69-1.23,4.09-.45,1.4-.96,2.77-1.55,4.11-1.11,2.65-2.36,5.24-3.61,7.83-.28,.59-.54,1.16-.8,1.76-.12,.31,.32,.47,.47,.19,1.32-2.45,2.52-4.99,3.68-7.52,1.19-2.6,2.22-5.26,3.1-7.98"/><path id="Path_25" class="cls-8" d="M53.07,120.07c.42-1.33,.73-2.69,.91-4.07,.5-2.7,1.45-5.3,2.83-7.68,.67-1.14,1.46-2.21,2.15-3.34s1.35-2.35,1.97-3.55c1.23-2.39,2.34-4.84,3.32-7.35,.47-1.3,1.01-2.57,1.61-3.81,.63-1.21,1.35-2.37,1.99-3.58l-1.21-.6c-1.07,1.8-2.04,3.66-2.91,5.57-1.81,5.05-4.18,9.87-7.08,14.39-.9,1.29-1.68,2.65-2.33,4.08-.6,1.4-1.09,2.85-1.47,4.33-.39,1.51-.57,3.06-.98,4.57s-1.41,2.76-1.83,4.27c-.13,.36,.03,.75,.38,.91,.35,.14,.76-.02,.91-.38,.4-1.34,1.27-2.46,1.77-3.76"/><path id="Path_26" class="cls-8" d="M57.26,122.43c.1-.35,.21-.7,.34-1.04,.28-.77,.61-1.52,.93-2.27,.83-1.93,1.41-3.95,2.34-5.84,.59-1.16,1.11-2.36,1.56-3.58,.43-1.21,.78-2.45,1.18-3.67,.84-2.58,2.68-4.65,4.09-6.94,.7-1.16,1.22-2.4,1.8-3.62s1.18-2.45,1.73-3.7c.41-.93,.79-1.87,1.19-2.8l-1.07-.54c-.19,.45-.37,.9-.54,1.36-.48,1.33-1.04,2.63-1.61,3.91s-1.07,2.48-1.64,3.7c-1.18,2.44-3.01,4.5-4.16,6.95-.55,1.19-1.01,2.43-1.38,3.69-.41,1.31-.9,2.6-1.45,3.86-.6,1.42-1.18,2.87-1.7,4.3-.31,.88-.6,1.76-.95,2.63s-.72,1.78-1.02,2.69c-.27,.55-.35,1.17-.24,1.77,.14,.32,.62,.08,.49-.24-.03-.23,0-.45,.08-.67"/><path id="Path_27" class="cls-8" d="M67.56,113.49c.34-1.05,.63-2.12,1-3.16s.86-2.02,1.31-3.02,.95-2.08,1.42-3.11c.91-2.08,1.94-4.1,3.09-6.05,.59-.96,1.26-1.86,1.84-2.83,.61-1.03,1.17-2.09,1.66-3.17,.06-.13,.12-.27,.18-.4l-1.19-.59c-.72,1.67-1.58,3.27-2.59,4.79-2.49,3.91-4.65,8.03-6.45,12.3-1.03,2.28-1.42,4.78-2.48,7.03-.92,1.94-1.8,3.9-2.68,5.86-.3,.66,.8,1.21,1.13,.57,.87-1.7,1.61-3.46,2.45-5.18,.49-.99,.91-2,1.26-3.05"/><path id="Path_28" class="cls-8" d="M73.77,109.48c.98-1.7,1.8-3.47,2.69-5.2s1.89-3.62,2.87-5.4,1.75-3.49,2.52-5.27l-.79-.39c-.56,1.45-1.21,2.85-1.96,4.21-.99,1.77-1.9,3.59-2.81,5.41s-1.86,3.6-2.75,5.42c-1.71,3.48-4.06,6.89-4.43,10.84,0,.08,.06,.15,.14,.15,.07,0,.13-.04,.15-.11,.5-3.56,2.6-6.61,4.36-9.67"/><path id="Path_29" class="cls-8" d="M82.34,103.53c.54-1.48,1.12-2.95,1.73-4.41,.52-1.22,1.04-2.43,1.57-3.65l-.99-.49c-.36,.76-.72,1.52-1.07,2.28-1.29,2.85-2.41,5.78-3.35,8.77-.42,1.39-.89,2.75-1.37,4.11-.49,1.41-1.25,2.71-2.25,3.83-.4,.45,.25,1.07,.67,.66,.82-.98,1.51-2.06,2.05-3.22,.63-1.19,1.17-2.43,1.61-3.71,.49-1.39,.9-2.8,1.41-4.19"/><path id="Path_30" class="cls-8" d="M89.85,98.11c.08-.15,.15-.31,.21-.47l-.9-.44c-.58,1.33-1.39,2.55-1.92,3.89-.28,.77-.63,1.51-1.04,2.22-.5,.68-.87,1.46-1.07,2.28-.04,.27,.35,.54,.54,.27,.37-.61,.7-1.25,1-1.9,.33-.64,.71-1.27,1.02-1.93,.29-.71,.63-1.4,1.01-2.07,.38-.62,.83-1.21,1.15-1.86"/><path id="Path_31" class="cls-5" d="M62.15,9.8C62.15,4.38,57.75,0,52.33,0s-9.81,4.4-9.8,9.83,4.4,9.81,9.83,9.8c5.41,0,9.8-4.39,9.8-9.8"/><path id="Path_32" class="cls-6" d="M56.04,21.61c-.29,.1-.75,.18-.95-.08-.14-.21-.17-.48-.09-.73,.03-.13,.1-.24,.19-.33h.03c.18-.03,.36-.03,.54,0,.14,.07,.26,.18,.34,.31,.15,.23,.25,.7-.09,.82m.49-.84c-.11-.26-.31-.47-.57-.6-.17-.08-.35-.11-.54-.08l-.32,.04c-.16,.09-.28,.22-.36,.39-.2,.37-.22,.82-.04,1.2,.33,.46,.95,.61,1.45,.34,.45-.26,.62-.82,.39-1.29"/><path id="Path_33" class="cls-6" d="M58.42,22.77c-.46,.67-1.13,1.16-1.91,1.39-.7,.22-1.46,.2-2.15-.08-1.07-.45-2.47-1.37-2.3-2.73,.11-.69,.37-1.36,.78-1.93l.23-.31,.16-.11,.18-.21c.11-.11,.23-.22,.36-.32l.19-.11c.36-.14,.74-.22,1.12-.25,.8-.12,1.62,.1,2.24,.62,.58,.51,1,1.17,1.23,1.9,.29,.7,.25,1.49-.12,2.15m.77-1.46c-.11-.9-.49-1.74-1.08-2.43-.56-.69-1.38-1.13-2.27-1.23-.46,0-.91,.04-1.36,.14-.22,.03-.44,.1-.64,.19-.17,.1-.33,.22-.46,.38-.22,.15-.42,.33-.6,.54l-.05,.05c-.47,.55-.82,1.18-1.03,1.87-.22,.69-.12,1.43,.28,2.04,.43,.61,1.01,1.1,1.69,1.41,.7,.39,1.5,.55,2.3,.47,.9-.12,1.74-.54,2.39-1.18,.6-.59,.9-1.42,.82-2.26"/><path id="Path_34" class="cls-6" d="M59.69,24.53c-.43,.47-.88,.92-1.33,1.37-.42,.45-.92,.81-1.47,1.07-.27,.11-.56,.17-.85,.2-.33,.04-.67,.04-1,0-.65-.06-1.28-.28-1.82-.64-.27-.21-.52-.44-.76-.69-.25-.24-.52-.45-.82-.63-.51-.23-.97-.56-1.35-.98-.15-.23-.28-.47-.38-.72-.13-.29-.26-.57-.36-.86-.2-.52-.32-1.06-.35-1.61-.03-.6,.1-1.2,.39-1.73,.36-.55,.82-1.05,1.34-1.45,.24-.21,.49-.42,.72-.64s.45-.42,.7-.62c.35-.27,.73-.5,1.13-.69h.05c.5-.24,1.05-.37,1.61-.39,.59-.04,1.17,.03,1.73,.2,.26,.08,.5,.21,.72,.38,.23,.22,.44,.45,.63,.69,.22,.25,.48,.48,.75,.68,.26,.18,.54,.34,.77,.54,.5,.36,.9,.86,1.13,1.43,.2,.51,.3,1.06,.3,1.61,.03,.62-.07,1.23-.27,1.82-.3,.63-.7,1.2-1.19,1.69m1.57-1.46c.14-.34,.23-.71,.28-1.07,.26-1.22,.05-2.5-.59-3.57-.21-.31-.46-.58-.75-.81-.27-.21-.58-.38-.86-.57-.3-.19-.58-.43-.82-.7-.22-.27-.47-.52-.74-.74-.53-.35-1.15-.54-1.79-.54-.63-.03-1.26,.05-1.86,.24-.22,.06-.44,.14-.66,.24-.18,.07-.36,.15-.54,.25-.57,.33-1.09,.72-1.56,1.18-.54,.47-1.1,.84-1.61,1.33-.49,.46-.83,1.07-.97,1.72-.19,1.24,.03,2.5,.63,3.6,.2,.54,.53,1.02,.97,1.39,.28,.2,.6,.34,.89,.54,.32,.19,.61,.42,.88,.68,.25,.27,.52,.51,.82,.71,.28,.18,.59,.32,.91,.42,.67,.21,1.38,.27,2.07,.2,.64-.1,1.24-.35,1.76-.74,.53-.35,1.01-.77,1.45-1.23,.54-.52,1.05-1.06,1.53-1.64,.21-.29,.39-.61,.54-.94"/><path id="Path_35" class="cls-6" d="M61.87,26.14c-.66,.64-1.4,1.21-2.18,1.69-.77,.61-1.58,1.15-2.43,1.64-.74,.38-1.57,.51-2.39,.38-.51-.11-1.01-.26-1.48-.47-.45-.18-.87-.4-1.27-.67-.41-.28-.76-.63-1.05-1.03-.26-.38-.54-.73-.86-1.05-.39-.36-.89-.54-1.27-.91-.36-.36-.69-.76-.98-1.19-1.15-1.47-1.49-3.42-.89-5.19,.36-.84,.8-1.66,1.29-2.43,.07-.13,.14-.26,.2-.4l.14-.1c.4-.89,1.07-1.64,1.9-2.15,.67-.55,1.44-.97,2.27-1.24,.85-.28,1.76-.34,2.64-.18,.83,.2,1.64,.45,2.44,.76,.45,.15,.91,.26,1.35,.42,.46,.18,.9,.43,1.29,.74,.82,.51,1.56,1.14,2.19,1.88,.26,.38,.47,.78,.65,1.2,.17,.39,.31,.79,.42,1.2,.21,.75,.29,1.54,.24,2.32-.09,.91-.34,1.8-.73,2.62-.35,.79-.84,1.52-1.43,2.15m2.84-3.04c.42-1.76,.23-3.61-.54-5.24-.19-.47-.44-.91-.75-1.3-.33-.39-.7-.74-1.11-1.04-.41-.32-.84-.62-1.27-.93-.44-.34-.93-.61-1.45-.81-.48-.17-.98-.31-1.46-.48s-.89-.33-1.34-.48c-1.86-.65-3.91-.4-5.55,.67l-.08,.04h-.09l-.27,.21c-.19,.13-.37,.27-.54,.42-.64,.43-1.18,.98-1.61,1.61-.28,.45-.5,.93-.77,1.38s-.54,.83-.76,1.27c-.47,.81-.76,1.71-.85,2.64-.06,1.01,.14,2.02,.58,2.94,.21,.46,.47,.9,.78,1.3,.32,.47,.7,.91,1.11,1.31,.39,.34,.89,.54,1.27,.89,.34,.36,.64,.74,.92,1.14,.72,.85,1.68,1.48,2.74,1.82,.85,.36,1.77,.49,2.68,.39,.96-.2,1.86-.62,2.64-1.23,.43-.31,.85-.64,1.29-.94s.88-.57,1.29-.9c1.53-1.19,2.64-2.84,3.15-4.71"/><path id="Path_36" class="cls-6" d="M65.28,27.94c-.39,.52-.81,1.02-1.26,1.49-.98,.92-2.06,1.73-3.22,2.42-.52,.36-1.05,.69-1.61,.98-.51,.25-1.05,.43-1.61,.54-1.12,.18-2.27,.15-3.38-.09-1.18-.19-2.32-.58-3.37-1.17-2.13-1.38-3.85-3.31-4.99-5.58-1.22-1.91-1.67-4.21-1.26-6.45,.66-2.4,2.04-4.53,3.96-6.11,.81-.68,1.61-1.41,2.43-2.05,.4-.31,.84-.57,1.3-.78,.49-.2,1-.32,1.53-.38,.37-.04,.75-.04,1.12,0h.03c.16,.02,.32,.05,.48,.09h.13c1.02,.14,2.03,.34,3.02,.6,1.43,.36,2.8,.93,4.05,1.7,.56,.36,1.1,.76,1.61,1.2,.52,.39,1.01,.82,1.48,1.27,.37,.45,.65,.97,.82,1.52,.23,.54,.42,1.1,.59,1.66,.18,.54,.28,1.1,.31,1.67,0,.67-.02,1.34-.09,2.01-.02,2.01-.76,3.95-2.08,5.46m1.68-1.61c.28-.62,.49-1.26,.63-1.92,.14-.68,.25-1.37,.31-2.06,.09-.71,.13-1.43,.1-2.15-.19-1.24-.55-2.45-1.07-3.59-.21-.58-.56-1.11-1-1.55-.45-.43-.96-.78-1.42-1.19-1.11-.96-2.39-1.72-3.76-2.24-1.36-.5-2.78-.86-4.22-1.07-.96-.17-1.94-.24-2.91-.2-.22,0-.44,.02-.66,.05h-.08c-.51,.04-1,.18-1.45,.42l-.09,.14c-.73,.43-1.42,.94-2.04,1.53-.93,.76-1.81,1.57-2.64,2.44-.88,1.02-1.61,2.16-2.15,3.4-.52,1.13-.79,2.36-.78,3.61,.06,1.18,.34,2.33,.82,3.4,.48,1.09,1.06,2.14,1.74,3.13,.76,1.15,1.67,2.18,2.71,3.08,.98,.85,2.12,1.5,3.36,1.91,1.16,.37,2.36,.59,3.58,.64,1.22,.05,2.44-.21,3.53-.75,.58-.32,1.15-.68,1.69-1.07,.61-.4,1.22-.8,1.8-1.23,.56-.4,1.09-.86,1.56-1.37,.47-.51,.89-1.07,1.31-1.61,.43-.55,.8-1.15,1.1-1.78"/></svg>