<svg xmlns="http://www.w3.org/2000/svg" width="1174.815" height="536.23" viewBox="0 0 1174.815 536.23">
  <g id="Group_182" data-name="Group 182" transform="translate(-191.408 -1419)">
    <g id="Group_88" data-name="Group 88" transform="translate(-2772)">
      <path id="Path_662" data-name="Path 662" d="M2963.5,1951.962a174.217,174.217,0,0,0,32.938-18.149c39.278-27.146,90.464-33.633,138.772-36.885,53.675-3.612,110.1-5.525,156.312-33.13,58.583-34.992,100.771-86.865,146.418-137.658,57.757-64.269,99.028-158.109,182.838-178.674s216.99-5.263,300.874-25.525,157.9-39.3,216.345-102.941v533H2963.408Z" fill="#f0ebd5"/>
    </g>
    <path id="Path_2405" data-name="Path 2405" d="M3923.178,1953h-221.79c2.251-.881,4.486-1.8,6.754-2.636,14.1-5.167,28.963-8.865,42.13-15.794a639.791,639.791,0,0,0,64.466-38.448,208.013,208.013,0,0,0,54.57-55.269c5-7.389,11.207-14.033,17.354-20.553,7.5-7.957,15.179-15.812,23.4-23.005,9.9-8.663,19.463-18.511,30.942-24.386,18.361-9.4,37.912-16.717,57.451-23.5,23.843-8.279,46.469-20.794,72.565-21.776,22-.828,43.988-2.028,65.981-3.063v116.872c-6.129,1.785-12.316,3.393-18.372,5.4-9.38,3.106-19.009,5.762-27.907,9.941-9.516,4.47-18.321,10.459-27.409,15.832-14.17,8.377-28.4,16.658-42.451,25.23-17.267,10.531-34.079,21.842-51.646,31.836C3954.281,1938.174,3938.554,1945.279,3923.178,1953Z" transform="translate(-2772)" fill="#fab017"/>
    <path id="Path_2406" data-name="Path 2406" d="M3564.6,1953c6.093-8,11.289-16.93,18.448-23.822,21.553-20.751,47.894-33.581,76-43,36.412-12.205,69.821-29.779,98.934-55.063,15.007-13.033,28.875-27.142,39.969-43.742,23.957-35.85,51.226-68.845,84.725-96.2,11.205-9.15,23.43-17.165,35.715-24.858,41.855-26.211,88.523-35.881,136.974-35.963,28.939-.049,56.915,7.369,81.641,23.828V1707.3c-16.575.55-33.208.435-49.709,1.845-15.1,1.29-30.4,2.947-45,6.78-16.58,4.354-32.319,11.8-48.707,17.015-29.15,9.276-58.068,18.879-82.2,38.674-8.456,6.936-16.932,13.91-24.785,21.5-9.667,9.344-19.087,19.01-27.9,29.161-10.943,12.612-20.127,26.9-31.958,38.551-12.16,11.974-26.118,22.322-40.177,32.106-11.889,8.274-25.219,14.445-37.6,22.05-17.353,10.657-37.056,15.174-55.839,22.075-15.287,5.616-30.789,10.646-46.2,15.937Z" transform="translate(-2772)" fill="#ed242a"/>
    <path id="Path_2407" data-name="Path 2407" d="M4137,1860.034V1953H3965.677a23.731,23.731,0,0,1,3.392-2.859c18.76-10.661,37.686-21.04,56.275-31.992,6.947-4.093,12.827-9.981,19.723-14.181,12.54-7.639,26.138-13.69,38.088-22.115C4099.58,1870.274,4117.193,1862.726,4137,1860.034Z" transform="translate(-2772)"/>
    <g id="Group_97" data-name="Group 97" transform="translate(-2772)">
      <path id="Path_2408" data-name="Path 2408" d="M3535.914,1785.163q29.4-10.284,58.793-20.616c1.885-.668,2.548-.216,3.069,1.565,4.619,15.787,3.919,31.291-2.974,46.25-7.038,15.273-18.326,26.381-33.989,32.822-18.232,7.5-36.262,6.743-53.846-1.93a61.919,61.919,0,0,1-29.354-30.051c-.7-1.5-1.275-3.053-1.991-4.541-.807-1.678-.229-2.378,1.47-2.966q25.917-8.967,51.787-18.075Q3532.4,1786.391,3535.914,1785.163Z"/>
    </g>
    <g id="Group_98" data-name="Group 98" transform="translate(-2772)">
      <path id="Path_2409" data-name="Path 2409" d="M3869.033,1566.534q19.131-13.773,38.24-27.578c1.225-.889,1.8-.7,2.564.477,6.74,10.465,9.558,21.866,7.767,34.2a47.365,47.365,0,0,1-17.621,31.113c-11.621,9.354-24.867,12.676-39.489,10.156a46.857,46.857,0,0,1-27.751-15.508c-.83-.935-1.58-1.941-2.419-2.868-.945-1.044-.676-1.676.43-2.467q16.884-12.07,33.7-24.231Q3866.743,1568.18,3869.033,1566.534Z"/>
    </g>
    <g id="Group_101" data-name="Group 101" transform="translate(-2772)">
      <path id="Path_2422" data-name="Path 2422" d="M3737.17,1729.906l27.049-4.732a90.749,90.749,0,0,1,9.5-1.468,1.472,1.472,0,0,1,.971.427l30.682,25.659c2.243,1.832,4.344,4.09,6.87,5.525a38.657,38.657,0,0,0,9.2-3.284c3.489-1.732,6.834-3.82,10.488-5.189-1.667,2.408-3.913,4.156-6.018,6.156-3.9,3.7-8.108,7.566-11.338,11.862a6.438,6.438,0,0,0-1.272-2.455c-.986-1.068-1.877-2.376-2.945-3.339a15.1,15.1,0,0,0-3.779-2.135l-4.859-2.373c-8.3-4.331-16.781-7.426-24.249-13.29-2.059-1.617-3.9-3.527-5.8-5.322l-36.453,17.988a18.665,18.665,0,0,0-.706-3.3c-1.781-6.016.854-12.985,2.231-18.88Z"/>
      <path id="Path_2423" data-name="Path 2423" d="M3793.031,1664.384l.337.057a6.8,6.8,0,0,0,1.113.075l.156.506a2.207,2.207,0,0,0-.952.593c-1.8,1.983-3.221,4.7-4.721,6.946l-7.649,10.873a163.289,163.289,0,0,1-10.83,13.493,98.689,98.689,0,0,1-21.331,18.057l-9.6,5.38-2.38,9.542-.429,1.848c-1.377,5.9-4.012,12.864-2.231,18.88a18.665,18.665,0,0,1,.706,3.3l2.984,13.538,3.641,16.851,1.324,5.969a15.4,15.4,0,0,1,.532,3.2,20.159,20.159,0,0,1-.8,3.808l-1.391,6.548c-2.054,9.858-4.34,19.681-5.582,29.685l-1.152,7.7c-.3,1.784-1.134,4.324-.951,6.1l-.255.082c-.583.2-1.078.573-1.648.8a9.856,9.856,0,0,1-4.292.833l-.244-.029-.146-.026a11.335,11.335,0,0,0,1.177-3.069,27.162,27.162,0,0,0,.09-4.347l-.166-21.986c-.014-3.824-.176-7.719.156-11.529a33.334,33.334,0,0,1,1.121-5.955c.581-2.115,2.455-5.387,2.071-7.5a14.2,14.2,0,0,0-1.462-3.648l-3.059-5.894L3715.8,1763.47c-1.229-2.293-2.707-4.33-4.03-6.55a31,31,0,0,1-3.823-9.2c-1.628-7.459,2.039-13.577,5.914-19.557a105.852,105.852,0,0,1-27.76.693,56.946,56.946,0,0,1-11.385-2.088,3.7,3.7,0,0,1,1.1-1.6,21.721,21.721,0,0,0,6.742,1.587,105.318,105.318,0,0,0,28.264.062,41.894,41.894,0,0,0,4.581-.645,98.873,98.873,0,0,0,18.813-5.454,47.5,47.5,0,0,0,5.854-2.623,64.039,64.039,0,0,0,7.76-4.21c18.566-11.206,31.014-29.048,42.845-46.738A18.9,18.9,0,0,0,3793.031,1664.384Z"/>
      <path id="Path_2424" data-name="Path 2424" d="M3733.825,1847.34c2.176,2.2,3.812,4.847,6,7.022a33.626,33.626,0,0,0,5.812,4.145l1.505,1.382a17.534,17.534,0,0,0-2.7.326,11.7,11.7,0,0,1-3.145-.527c-3.085-1-6.024-2.713-9.019-3.976-2.148-.907-4.366-1.35-6.418-2.5a7.815,7.815,0,0,1,1.377-4.212l.146.026.244.029a9.856,9.856,0,0,0,4.292-.833c.57-.23,1.065-.6,1.648-.8Z"/>
      <path id="Path_2425" data-name="Path 2425" d="M3791.5,1661.813a20.947,20.947,0,0,0,2.27-3.2,35.7,35.7,0,0,1,5.587-.8c.488.3.5.54.722,1.057l-1.642.64,1.647,1.194c-.073.755-.052,1.136-.66,1.682-.842.757-3.61,2.785-4.79,2.638l-.156-.506a6.8,6.8,0,0,1-1.113-.075l-.337-.057A11.043,11.043,0,0,1,3791.5,1661.813Z"/>
      <path id="Path_2426" data-name="Path 2426" d="M3675.281,1717.158l3.362,3.374c-1.264,1.217-1.942,1.755-2.39,3.47a7.263,7.263,0,0,1-.429,1.161,3.7,3.7,0,0,0-1.1,1.6c-.676.948-2.078,2.639-3.259,2.871a1.434,1.434,0,0,1-1.224-.294,2.565,2.565,0,0,1-.683-1.817l.073-.3a2.337,2.337,0,0,0-.578-1.637l-.392-.028-.87.92-1.335-.985a22.545,22.545,0,0,1,2.435-4.072,5.167,5.167,0,0,1,.7-1.009,8.518,8.518,0,0,1,1.705-.489A8.839,8.839,0,0,0,3675.281,1717.158Z"/>
      <path id="Path_2427" data-name="Path 2427" d="M3667.786,1726.483l.87-.92.392.028a2.337,2.337,0,0,1,.578,1.637l-.073.3L3650.7,1750.7,3491.122,1933.2l-12.2,15.269a75.682,75.682,0,0,1-5.6,6.765l-.126-.011-.213-2.023Z"/>
      <path id="Path_2428" data-name="Path 2428" d="M4137.976,1469.472l.184.057.063.6-.046,1.188a12.732,12.732,0,0,1-2.241,1.187l-4.03,2.177L3910.322,1603.57l-47.639,24.527-20.42,10.83-28.955,14.88-9.957,5.232c-1.074.57-2.215,1.055-3.264,1.663l-1.647-1.194,1.642-.64Z"/>
      <path id="Path_2429" data-name="Path 2429" d="M3740.7,1651.938a12.8,12.8,0,0,1,1.456,5.007,7.407,7.407,0,0,0,.2,1.454c.269.633,1.306,1.383,1.821,1.828a13.727,13.727,0,0,1,2.589,2.724l-2.168.838a24.655,24.655,0,0,1,.058,3.062c-.062.929.3,2.144-.25,2.934-1.488,1.021-3.3.948-5.022.829a6.348,6.348,0,0,0-1.487-.052c-.365.215-.84,2.233-.924,2.706l-.365,2.479c-.569,4.118,1.666,8.5,2.776,12.377-1.281-1.453-2.235-3.3-3.457-4.832a57.885,57.885,0,0,0-10.2-9.507,9.522,9.522,0,0,1,.654-1.7,31.873,31.873,0,0,0,1.194-3.407l1.444-4.849a10.161,10.161,0,0,0,2.633-.294,1.061,1.061,0,0,0,.777-.681,1.438,1.438,0,0,0-.571.08,4.089,4.089,0,0,1-1.256.276,3.178,3.178,0,0,1-2.294-1.046,2.525,2.525,0,0,1-.636-1.919,2.1,2.1,0,0,1,.838-1.359,2.767,2.767,0,0,1,1.609-.5c1.969-.029,2.11,1.955,3.62,2.181l2.074.347a10.807,10.807,0,0,1-1.535-2.758,3.977,3.977,0,0,1,.532-3.217C3736.163,1652.979,3738.489,1652.342,3740.7,1651.938Z"/>
      <path id="Path_2430" data-name="Path 2430" d="M3727.578,1668.679a14.673,14.673,0,0,1-6.293-6.917,16.233,16.233,0,0,1-1.2,5.055,9.923,9.923,0,0,1-5.787,4.482l-.283.083c-3.323,1-6.333-.4-9.351-1.636-2.263-.926-4.244-1.376-6.569-.327-2.021.912-2.748,2.68-3.439,4.625a12.943,12.943,0,0,1-.147-4.677,6.638,6.638,0,0,1,2.731-4.31c2.8-1.712,5.883-.234,8.735.4,4.006.889,6.113-1.187,7.965-4.362a7.855,7.855,0,0,1,2.591-3.186c1.687-1,3.106-.828,4.9-.342.7-3.044,1.614-5.658,4.318-7.49a12.377,12.377,0,0,1,9.084-1.727,8.621,8.621,0,0,1,5.881,3.59c-2.215.4-4.541,1.041-5.891,3a3.977,3.977,0,0,0-.532,3.217,10.807,10.807,0,0,0,1.535,2.758l-2.074-.347c-1.51-.226-1.651-2.21-3.62-2.181a2.767,2.767,0,0,0-1.609.5,2.1,2.1,0,0,0-.838,1.359,2.525,2.525,0,0,0,.636,1.919,3.178,3.178,0,0,0,2.294,1.046,4.089,4.089,0,0,0,1.256-.276,1.438,1.438,0,0,1,.571-.08,1.061,1.061,0,0,1-.777.681,10.161,10.161,0,0,1-2.633.294Z"/>
      <path id="Path_2431" data-name="Path 2431" d="M3725.73,1673.785a57.885,57.885,0,0,1,10.2,9.507c1.222,1.535,2.176,3.379,3.457,4.832-1.11-3.88-3.345-8.259-2.776-12.377l1.6,2.559,2.256,4.315a23.885,23.885,0,0,1,1.939,4.244c1,3.448.9,7.107.814,10.658-1.569-1.674-2.811-3.865-4.3-5.66a51.332,51.332,0,0,0-15.9-13.334,22.08,22.08,0,0,0-4.406-1.892l-.208-.051C3720.687,1675.083,3723.757,1675.887,3725.73,1673.785Z"/>
      <path id="Path_2432" data-name="Path 2432" d="M3791.5,1661.813l-15.422,9.093-5.876,3.548a12.914,12.914,0,0,1-3.291,1.751c-2.31.495-4.946.255-7.312.271l-16.752.037a15.538,15.538,0,0,0-3.255.081c-.5.158-1.133,1.27-1.378,1.712l-1.6-2.559c-.569,4.118,1.666,8.5,2.776,12.377-1.281-1.453-2.235-3.3-3.457-4.832a57.885,57.885,0,0,0-10.2-9.507c-1.973,2.1-5.043,1.3-7.311,2.8a18.673,18.673,0,0,0-6.608,3.545c-3.044,2.705-5.662,6.13-8.323,9.211l-9.475,10.217-11.338,10.754-4.365,3.945a26.437,26.437,0,0,0-3.029,2.9l3.362,3.374,11.587-8.908,14.306-11.155,6.876-5.651a14.649,14.649,0,0,1,2.752-2.263c3.585,4.333,6.148,10.8,7.258,16.274a18.087,18.087,0,0,1,.483,4.882,12.318,12.318,0,0,1-1.736,4.609c-1.458,2.7-3.244,5.188-4.758,7.847a98.873,98.873,0,0,0,18.813-5.454,47.5,47.5,0,0,0,5.854-2.623c1.063-3.787,1.732-7.688,2.888-11.439s3.583-7.464,3.966-11.4l.032-.348a39.223,39.223,0,0,0-.309-6.779l16.41-3.475c3.222-.794,6.55-1.485,9.488-3.1,2.839-1.558,5.287-3.853,7.788-5.894l6.223-5.116a39.084,39.084,0,0,1,4.119-3.4,18.9,18.9,0,0,0,2.348-2.758A11.043,11.043,0,0,1,3791.5,1661.813Z"/>
    </g>
  </g>
</svg>
