<svg cache-id="ea8e8030611e4969ae911a8c81dd142e" id="eUhQTI4DrHS1" xmlns="http://www.w3.org/2000/svg" xmlns:xlink="http://www.w3.org/1999/xlink" viewBox="0 0 1920 816.118" shape-rendering="geometricPrecision" text-rendering="geometricPrecision"><g transform="translate(0-264.882)"><g><g id="eUhQTI4DrHS4" transform="matrix(1 0.050822 0 1 0.000001-43.877777)" opacity="0.16"><path d="M1160.75,961.978c.123,11.307-.3,22.554-.861,33.844-.792,15.992-1.306,32.114-1.064,48.178h11.036c-.615-12.771-.869-25.555-.651-38.355.2-11.479.8-22.94.668-34.424-.127-11.238-.525-22.487-.889-33.719-.407-12.552-.934-25.1-1.442-37.642-.246-6.093-1.02-12.129-1.153-18.221-.137-6.208.453-12.548-.834-18.638-.623-2.943-4.452-1.968-5.192.258-1.655,4.974-1.534,10.346-1.747,15.555-.221,5.437-.847,10.921-.851,16.352-.008,11.242.665,22.456,1.368,33.67.694,11.037,1.491,22.081,1.612,33.142Z"/><path d="M1121.5,841.859c-.833189,4.996342-1.159845,10.064037-.975,15.126.516,7.515,1.576,14.979,2.517,22.449c3.618,28.737,2.532,57.811,2.238,86.7-.287501,14.091502.493402,28.184528,2.336,42.158c1.688,11.945,3.984,23.792,5.856,35.707h10.124c-3.495-23.554-8.407-46.769-8.236-70.784.211-29.4,2.25-59.153-.6-88.468-1.358-13.95-3.275-27.741-2.008-41.765.952-10.534,3.684-23.8-1.875-33.537-3.225-5.647-11.9-1-8.9,4.776c1.858,3.582,1.576,8.063,1.34,11.969-.324,5.251-1.125,10.459-1.817,15.669Z"/><path d="M1098.908,869.059c.136,15.145.834,30.267.738,45.417-.108,17.082-.479,34.159-.737,51.239-.4,26.12.168,52.207,1.322,78.285h9.331q-1.733-33.762-1.659-67.563c.053-17.054.443-34.1.507-51.158.06-16.011-.827-31.945-1.355-47.936-.517-15.626-.392-31.267-1.235-46.883-.8-14.923-2.077-30.209-7.063-44.4-1.347-3.834-7.412-2.584-6.275,1.485c7.37,26.368,6.184,54.417,6.426,81.514Z"/><path d="M1053.387,807.682c.534,18.907.752,37.821,1.386,56.726.628,18.751-1.156,37.554.127,56.28.631,9.211,2.216,18.311,2.744,27.541.521,9.111.537,18.239.355,27.362-.187,9.4-.432,18.726.3,28.11.728,9.3,2.061,18.536,3.434,27.758.623,4.182,1.263,8.357,1.824,12.541h10.981c-2.155-17.075-5.755-33.947-6.244-51.216-.539-19.069.819-37.992-1.288-57.032-1.052-9.5-2.335-18.809-2.371-28.394-.036-9.291.4-18.575.434-27.864.077-21.621-1.392-43.263-1.582-64.892-.1-10.907-.137-21.812-.555-32.713-.411-10.686.088-21.982-2.731-32.326-1.1-4.027-6.335-3.459-7.018.483-1.615,9.324-.618,18.961-.478,28.413.149,9.741.407,19.481.682,29.223Z"/><path d="M1016.228,903.869c.973,21.145,2.431,42.236,4.123,63.331.818,10.2.077,20.424-.164,30.634-.130605,10.286083.706413,20.561656,2.5,30.691.836,5.147,1.382,10.307,1.72,15.475h9.506c-.538-10.1-2.738-19.88-3.709-29.91-1.066-11.017-.156-22.081.048-33.114.386-20.9-3.4-41.873-5.39-62.639-2.063-21.527-3.519-43.1-3.931-64.723-.221-11.587-.372-23.118-1-34.7-.648-12.008-1.183-24.05-.006-36.044c1.835-18.712,4.932-39.431-1.348-57.607-.721-2.087-4.125-.885-3.636,1.225c4.068,17.539,1.172,35.525-.9,53.118-2.438,20.657.616,41.32.869,62c.252,20.774.362,41.507,1.318,62.263Z"/><path d="M975.343,777.46c-.013,21.124,2.019,42.131,2.925,63.218.911,21.212-.584,42.312-.9,63.512-.241484,10.865992.181304,21.736587,1.266,32.551c1.11,10.307,2.458,20.58,3.406,30.906c1.955,21.309,1.69,42.657,1.4,64.029-.055,4.1-.129,8.214-.166,12.324h10.513c.2-20.418.9-40.853.016-61.263-.9-20.9-3.975-41.653-4.816-62.57-.858-21.376,1.236-42.723,1.028-64.1-.234-24.036-3.089-47.967-3.071-72.013.019-23.546,1.824-47.1-1.835-70.485-1.037-6.621-10.576-4.4-10.012,2c1.815,20.571.258,41.285.246,61.891Z"/><path d="M941.956,763.1c1.911,22.269,3.241,44.531,3.368,66.886.126,21.991-1.179,43.952-1.857,65.924-.694,22.505.422,44.892.608,67.385.183,22.116-.48,44.277-1.258,66.377-.167,4.778-.429,9.552-.73,14.324h8.846c.577-21.368,1.813-42.7,1.756-64.089-.058-22.132-1.6-44.227-1.535-66.352.067-22.511,1.4-44.993,1.766-67.5.4-24.674-1.527-49.253-3.535-73.832-1.01-12.359-2.431-24.676-3.487-37.029-.491-5.74-.7-11.415-1.638-17.11-.887-5.4-2.4-10.71-2.435-16.219-.012-1.853-2.826-1.975-3.19-.213-1.96,9.482.468,19.046.709,28.576.279,11,1.672,21.929,2.612,32.872Z"/><path d="M891.053,827.062c-.577,23.268-.483,46.552-1.231,69.817-.377,11.72-.975,23.373-.537,35.1.439,11.782,1.436,23.534,2.254,35.294c1.574,22.631,2.281,45.44.337,68.073-.247,2.883-.567,5.767-.926,8.651h11.518c2.119466-19.613745,2.710581-39.362603,1.768-59.068-.914-23.254-3.917-46.455-3.457-69.753.463-23.453,1.519-46.813,1.187-70.286-.329-23.272-.882-46.55-1.455-69.82-.53-21.53-2.037-43.036-2.021-64.58c0-4.689.078-9.38.261-14.067.1-2.571-2.655-4.543-5.018-4.421-2.8.144-4.279,2.483-4.421,5.018-1.128,20.13-.257,40.449.821,60.565c1.243,23.205,1.495,46.257.92,69.477Z"/><path d="M844.627,750.691c-1.138,10.36.074,20.943.516,31.321.495,11.633.916,23.268,1.19,34.908c1.09,46.425-1.894,93.048,3.159,139.319c1.253,11.472,3.311,22.743,5.324,34.094c1.824057,10.773052,3.104346,21.631141,3.836,32.533.528,7.037.882,14.085,1.213,21.134h10.214q-.115-2.143-.22-4.286c-.56-11.677-1.232-23.365-2.525-34.987-1.233-11.094-3.584-21.96-5.28-32.979-7.075-45.967-4.4-92.57-4.594-138.873-.1-23.5-1.1-46.989-2.126-70.467-.4-9.217-.727-18.251-.286-27.472.431-9,1.044-18.132.235-27.128-.311311-3.877073-1.033016-7.710185-2.153-11.435-1.709-5.488-10.22-2.672-8.467,2.8c2.478,7.745,2.374,16.2,2.144,24.249-.26,9.112-1.185,18.219-2.18,27.269Z"/><path d="M807.732,802.859c-.254,9.894-2.995,19.587-3.992,29.419-1.115,10.981-.125,22.095.269,33.094.414,11.544.629,23.093.89,34.641.547,24.217,1.128,48.436,2.125,72.64.921,22.373-.6,44.94,1.342,67.251q.178,2.049.4,4.1h10.134c-.687-7.148-1.209-14.3-1.356-21.524-.232-11.364-.024-22.733-.278-34.1-.52-23.26-2.05-46.517-2.773-69.777q-1.09-35.081-1.836-70.166c-.226-10.128,1.585-19.621,3.306-29.54c1.910595-10.660508,2.164584-21.552019.753-32.29-2.828-21.872-5.358-43.581-5.942-65.659q-.2-7.443-.134-14.89c.054-6.16-9.449-5.919-9.563.231-.322098,21.239267.776352,42.476304,3.288,63.569c1.268,10.942,3.651,21.942,3.367,33.001Z"/><path d="M767.648,842.374c.875816,5.365806,1.138838,10.81378.784,16.239-.447,5.2-2.135,10.041-3.49,15.037-1.476844,5.041601-2.468683,10.212757-2.962,15.443-.4,5.393-.144,10.884-.083,16.289.126,11.294.562,22.585,1.661,33.83c1.112,11.381,3.921,22.415,5.373,33.734c3,23.381,2.575,47.533,1.946,71.054h9.017c.413-17.541.519-35.059-1.008-52.588-1.992-22.867-6.736-45.41-7.814-68.352-.522-11.13-1.206-22.65-.389-33.774.763-10.378,5.113-20.153,5.639-30.619.541-10.786-3.529-21.05-5.262-31.556-1.627316-10.832126-2.704365-21.739795-3.227-32.681-1.325-21.469-1.422-42.984-1.618-64.485-.043-4.829-.173-9.625-.464-14.446-.148-2.461-3.665-2.137-3.754.238-.777,20.84-.459,41.848.114,62.694.624166,21.402518,2.472856,42.751766,5.537,63.943Z"/><path d="M704.658,771.136c.975,10.4,4.567,20.35,7.307,30.366c5.385,19.688,8.013,40.515,6.445,60.912-.758,9.855-2.48,19.629-3.3,29.49-.841,10.09-1.289,20.218-1.49,30.341-.343026,20.116616.321139,40.237793,1.99,60.288.828,10.313,2.11,20.553,1.871,30.918-.235,10.2-1.25,20.355-1.521,30.549h10.09c.369-15.652,2.517-31.314,1.084-46.984-3.635-39.765-5.423-80.3-.034-119.995c1.591-11.723,2.71-23.241,2.168-35.085-.578112-11.414426-2.068534-22.764303-4.457-33.941-2.381-11.41-6.321-22.438-8.5-33.889-2.189-11.488.345-23.2-1.813-34.675-.524-2.787-2.474-5.031-5.532-4.873-2.585.134-5.344,2.764-4.872,5.531c1.752,10.305-.407,20.7.564,31.047Z"/><path d="M668.746,769.214c.543,2.678.864,5.4,1.138,8.119.619,6.106.921,12.24,1.248,18.367.838,15.7,3.593,31.2,3.6,46.944-.064366,9.737903.402996,19.472057,1.4,29.159c1.059,9.547,2.816,19.019,4.188,28.523c2.9,20.114-2.843,40.145-4.515,60.127-.843,10.079-.26,20.154-.135,30.249.127,10.179.148,20.361.594,30.534.334,7.6.87,15.174,1.281,22.764h8.728c-.23-3.636-.516-7.267-.9-10.887-1.135-10.532-1.658-21.091-2.023-31.674-.347-10.081-1.073-20.2-1.168-30.279-.19-20.271,5.341-40.133,4.978-60.4-.27895-9.826497-1.277288-19.619363-2.987-29.3-1.540886-10.165748-2.540628-20.406179-2.995-30.678-.658-11.523-1.576-23.137-2.894-34.608-.8-6.963-1.787-13.82-2.32-20.815-.544-7.158-1.03-14.344-2.076-21.45-.579-3.938-1-9.877-4.272-12.66-2.015-1.715-4.453,1.489-2.508,3.223c1.061.944,1.366,3.405,1.638,4.742Z"/><path d="M629.169,863.232c1.18,8.187,2.77,16.312,3.712,24.533.935,8.164.9,16.385,1.151,24.59q.389,12.818.757,25.635c.465,17.008.84,33.861-.759,50.829-.79,8.382-2.276,16.676-3.008,25.062-.727473,8.915605-.953496,17.865039-.677,26.806.028,1.1.077,2.209.116,3.313h9.873c-.685009-13.581469-.158595-27.196964,1.573-40.685c4.845-34.385,3.6-69.239,2.426-103.821-.635-18.665-6.236-36.74-6.564-55.4-.283-16.092-.839-32.155-1.4-48.238-.189-5.361-9.393-5.495-9.486-.048-.245,14.283.539,28.549.677,42.829-.015097,8.225116.522447,16.441954,1.609,24.595Z"/><path d="M600.712,910.647c-.963,14.635-.656,29.236-.973,43.884-.33,15.256-.7,30.513-1.394,45.757-.668,14.594-.211,29.156.534,43.712h6.632c-1.03187-11.536353-1.299121-23.12835-.8-34.7.827-15.2.88-30.435.961-45.652.082-15.157.6-30.3.568-45.457-.071-29.005,4.472-59.638-6.133-87.431-.197288-.541288-.785919-.831138-1.335248-.657496s-.864421.749156-.714752,1.305496c8.367,25.571,4.384,52.978,2.655,79.239Z"/><path d="M562.8,978.965q1.908,17.628,2.96,35.338.877,14.843,1.51,29.7h8.3c-.04-6.288-.149-12.571-.386-18.845-.778316-23.421722-2.958216-46.775837-6.528-69.937-1.7-10.708-3.1-21.417-4.387-32.179-1.388768-11.095874-.561796-22.357036,2.433-33.131c1.2-4.3-5.28-6.516-6.633-2.194-2.879,9.2-2.777,18.736-3.163,28.26-.289547,10.093167.217022,20.193454,1.515,30.207c1.286,10.949,3.198,21.816,4.379,32.781Z"/></g><path d="M1186.547,926.414c.581,7.463,1.761,14.82,2.764,22.23c2.222,16.416,3.278,33.075,4.468,49.593c1.1,15.261,2.261,30.487,3.066,45.763h7.468c-1.157-29.368-2.343-58.74-4.958-88.02-.730152-8.534112-2.150126-16.995092-4.246-25.3-1.011-3.973-1.71-8.138-3.038-12.013-.919069-2.200767-1.440479-4.547112-1.54-6.93.035868-2.315264.196099-4.626928.48-6.925.312-2.615-3.863-3.122-4.054-.5-.256,3.515.173,7.029-.066,10.528-.406434,3.843801-.521429,7.712846-.344,11.574Z"/><path d="M530.365,1040.192c-.005,1.275.048,2.543.141,3.808h7.5c-.5-10.826.891-21.7.06-32.5-.476-6.186-.952-12.179-.339-18.368.581-5.854,1.474-13.142-.385-18.829-.647-1.982-4.206-2.617-4.572-.056-.746,5.226-.333,10.812-.455,16.1-.125,5.4-.585,10.894-.441,16.291.154,5.807.609,11.448.079,17.26-.492,5.424-1.566,10.838-1.588,16.294Z"/></g><g><path d="M870.728,705l-108.3,64.142c0,0,22.072,49.619-19.256,67.83-38.995,17.183-65.014-19.789-65.014-19.789l-46.415,23.605c0,0,17.579,65.761,95.59,85.775c52.9,13.572,132.2-16.352,157.276-84.6C910.907,770.386,870.728,705,870.728,705Z" fill="#fab017"/><path d="M741.913,915c17.47.311,35.791-3.885,53.538-12.452c13.884839-6.766972,26.649592-15.623617,37.849-26.261c12.047795-11.385464,22.343132-24.492296,30.551-38.894c7.817798-13.877346,12.970428-29.094768,15.192-44.867c1.965352-13.782095,2.229331-27.753501.786-41.6-1.364024-14.510975-4.42114-28.812531-9.109-42.613-.227763-.556912-.85718-.831646-1.420412-.619994s-.855954.832908-.660588,1.401994c4.627766,13.638701,7.643282,27.772189,8.985,42.112c2.209,22.438,1.278,55.414-15.7,85.086-27.381,47.847-75.44,77.281-120,76.491-9.241424-.132317-18.409463-1.664032-27.192-4.543-32.089-10.612-50.876-27.929-60.986-40.588-10.922-13.674-14.31-24.925-14.343-25.038-.173141-.588736-.790764-.925641-1.3795-.7525s-.925641.790764-.7525,1.3795c.14.475,3.547,11.785,14.738,25.8c6.755074,8.396134,14.639129,15.81747,23.428,22.053c11.825823,8.32256,24.838698,14.814839,38.6,19.258c9.004678,2.945123,18.402896,4.51183,27.876,4.647Z" fill="#ed242a"/><g><path d="M761.488,801c0,0,9.026-3.834,13.209-11.058s3.342-13.859-4.16-16.226-12.357,5.969-12.629,11.934s3.58,15.35,3.58,15.35Z" fill="#699e59"/><path d="M745.118,808.569c0,0,4,8.952,11.3,13s13.919,3.082,16.145-4.464-6.2-12.242-12.169-12.4-15.276,3.864-15.276,3.864Z" fill="#699e59"/><path d="M740.371,811.856c0,0-7.281,6.57-8.879,14.763s1.362,14.191,9.226,13.981s9.733-9.674,8.044-15.4-8.391-13.344-8.391-13.344Z" fill="#699e59"/><path d="M755.644,801.068c0,0,.072-9.807-4.892-16.518s-11.386-8.579-16.542-2.637.562,13.711,5.927,16.333s15.507,2.822,15.507,2.822Z" fill="#699e59"/><path d="M728.469,846.068c0,0,.072-9.806-4.892-16.518s-11.387-8.579-16.542-2.637.562,13.712,5.926,16.333s15.508,2.822,15.508,2.822Z" fill="#699e59"/><path d="M691.95,810.636c0,0-7.3,6.55-8.917,14.739s1.324,14.2,9.189,14.005s9.759-9.648,8.085-15.379-8.357-13.365-8.357-13.365Z" fill="#699e59"/><path d="M701.941,802.81c0,0,4.625,8.648,12.193,12.17s14.1,2.093,15.79-5.59-7.047-11.775-13.013-11.514-14.97,4.934-14.97,4.934Z" fill="#699e59"/></g></g><g id="eUhQTI4DrHS34" transform="matrix(.943778 0.343507-.332157 0.912593 328.321621-381.764793)"><g><g><path d="M1285.783,712.771q1.779-.586,3.559-1.173l-20.612-8.571l17.932,7.456-.879,2.288Z" fill="#dba2c9"/><g id="eUhQTI4DrHS38" transform="translate(-59.240479 0.597076)"><path d="M1039.257,635.362l94.161,44.874-207.049-98.673-12.637-4.856c-5.045362-2.066984-10.640732-2.37036-15.88-.861L881,619.688c3.01,5.607,8.157,10.414,15.9,13.39l6.325,2.431l221.21,65.609-99.148-29.408l13.97-36.348Z" fill="#dba2c9"/><path d="M1286.662,710.483l-17.932-7.456c-14.148-5.438-25.277,10.649-49.024,10.156-24.725-.516-66.485-23.518-86.288-32.947l-94.161-44.874-13.972,36.348l99.148,29.408c30.535,10.39,60.162,19.917,89.248,33.793.518031.3454,1.013995.7228,1.485,1.13l70.617-23.27.879-2.288Z" fill="#231f20"/><path d="M1259.61,780.858l-15.619-5.307l101.08,34.355l2.651-7.288-58.682-22.863c-7.828-3.049-10.85-5.017-9.879-8.123c1.532-3.491,3.836-2.581,13.057.6l58.962,20.349l3.219-8.326-57.835-24.745c-7.116-3.044-9.735-5.921-9.344-8.423c1.618-2.3,5.039-2.572,12.8.135l59.481,20.75l3.421-8.64-58.281-24.764c-7.3-3.1-10.131-6.434-9.264-8.7c1.565-2.572,5.582-2.666,12.769.13l58.477,22.746l2.858-7.826-80.14-33.323q-1.781.585-3.559,1.173l-26.172,68.09Z" fill="#f2f1e6"/><path d="M1243.991,775.551l15.619,5.307l26.173-68.087-70.617,23.27c10.3,8.494,18.478,35.984,28.825,39.51Z" fill="#f2f1e6"/></g><path d="M1695.465,593.061c-3.53-13.615-4.4-13.831-17.592-9.487q-119.253,39.277-238.495,78.583c4.443151,10.353331,4.111123,22.136303-.908,32.223-9.445,18.725-33.008,26.315-51.821,16.694-9.8856-5.089562-17.028151-14.274358-19.526-25.109q-38.891,12.814-77.781,25.633l80.14,33.323-2.858,7.826L1308.147,730c-7.2-2.767-11.2-2.7-12.769-.13-.867,2.265,1.967,5.6,9.264,8.7l58.281,24.764-3.421,8.64-59.481-20.75c-7.762-2.707-11.183-2.44-12.8-.135-.391,2.5,2.228,5.379,9.344,8.423l57.835,24.745-3.219,8.326-58.962-20.349c-9.221-3.183-11.525-4.093-13.057-.6-.971,3.106,2.051,5.074,9.879,8.123l58.682,22.863-2.651,7.288-101.08-34.355c-10.347-3.526-18.525-31.016-28.825-39.51q-46.86,15.442-93.718,30.885c-13.738,4.529-14.249,5.084-8.723,18.663c7.155,17.584,14.905,34.885,24.93,51.14c74.02,120.019,216.482,175.058,351.318,134.585c62.995-18.909,115.1-54.722,154.66-107.555c61.166-81.687,77.337-172.306,51.831-270.7Z" fill="#ef5724"/><path d="M1295.378,729.871c1.565-2.572,5.57-2.637,12.769.13-7.187-2.796-11.204-2.701-12.769-.13Z" fill="#ef5724"/></g><path d="M1439.378,662.156c-7.722704-18.325037-28.223013-27.648187-47.109921-21.424695s-29.829017,25.907343-25.145079,45.233695l32.535-10.721l39.72-13.088Z" fill="#ed242a"/><path d="M1386.649,711.074c18.813,9.621,42.376,2.031,51.821-16.693c5.019197-10.087386,5.351223-21.870993.908-32.225l-39.72,13.088-32.535,10.721c2.498102,10.834522,9.640579,20.019223,19.526,25.109Z" fill="#fab017"/></g><path d="M1465.478,846.9c25.742,13.084,36.343,45.363,23.354,71.112-13.041,25.851-45.571,36.33-71.545,23.046-25.73-13.158-35.883-45.19-22.577-71.225c13.31651-25.748721,44.880285-35.977243,70.768-22.933Z" fill="#ed242a"/><path d="M1323.035,770.565c25.742,13.085,36.343,45.364,23.354,71.112-13.041,25.852-45.571,36.33-71.545,23.047-25.73-13.159-35.883-45.191-22.577-71.225c13.316532-25.748649,44.879976-35.97751,70.768-22.934Z" fill="#ed242a"/><path d="M1544.418,721.961c30.432,15.468,42.963,53.626,27.608,84.065-15.416,30.561-53.872,42.948-84.577,27.245-30.416-15.556-42.419-53.422-26.69-84.2c15.742798-30.438419,53.055683-42.529794,83.659-27.11Z" fill="#ed242a"/><path d="M1571.715,546.933c18.719257,9.702408,26.237995,32.596424,16.916,51.508-9.446,18.725-33.008,26.315-51.822,16.694-18.636-9.532-25.99-32.733-16.353-51.591c9.644036-18.652124,32.508043-26.061438,51.259-16.611Z" fill="#ed242a"/><path d="M1678.555,672.922c18.719696,9.702035,26.23857,32.596464,16.916,51.508-9.446,18.725-33.009,26.315-51.822,16.693-18.637-9.531-25.991-32.732-16.353-51.59c9.644036-18.652124,32.508043-26.061438,51.259-16.611Z" fill="#e11f26"/></g><g id="eUhQTI4DrHS52" transform="matrix(.984808 0.173648-.173648 0.984808 97.350669-192.880253)"><path d="M1184.609,500.175c0,0-9.207-34.387,21.3-36.535l8.213.17L1255,413.444c0,0-19.2-22.975-68.286-11.779c0,0-37.933,17.465-48.7,35.871c0,0-23.319,39.136-19.773,58.416c0,0,1.391,23.4,30.372,54.574l37.116-45.733-1.12-4.618Z" fill="#ec232a"/><path d="M1120.095,369.317l33.769,23.772c0,0,15.431,32.349,16.541,55.388c0,0-20.9-5.933-29.266-13.5c0,.004-24.691-38.584-21.044-65.66Z" fill="#699e59"/><path d="M1046.982,497.138c17.786215,1.372343,35.393657-4.343075,48.983-15.9l20.469-12.181l24.705-34.072c0,0-1.591-4.69-45.145,11L1078.5,456.756l-31.518,40.382Z" fill="#699e59"/></g><g id="eUhQTI4DrHS56" opacity="0.16"><circle r="16.675" transform="translate(1399.585 336.618)" fill="#6a9f58"/><circle r="16.675" transform="translate(1345.995 338.539)" fill="#6a9f58"/><circle r="16.675" transform="translate(1369.525 293.259)" fill="#6a9f58"/></g><path d="M1365.9,592.906c0,0,25.2-14.52,33.331,9.108l1.6,6.519l48.377,21.642c0,0,14.086-20-5.1-56.384c0,0-21.785-26.259-38.584-30.872c0,0-35.81-10.152-50.28-3.287c0,0-18.176,6.033-36.672,35.483l43.927,19.652l3.401-1.861Z" fill="#ec232a"/><path d="M1918.22,761.3l-35.8-18.186c-66.65503-33.862829-147.958062-15.763071-193.953,43.178L1687.138,788c-41.872,53.658-113.556,73.755-177.481,50.386-15.508-5.669-27.147-8.08-29.27-3.683-7.387,15.3-203.7,40.744-219.543,46.021-12.152,4.046-163.1,67.9-232.789,97.44-22.915243,9.713424-47.819554,13.811515-72.639,11.953L728.469,973.129L541.693,916.764c-32.21502-9.72193-66.707853-8.784089-98.347,2.674L0,1080h1920l-1.78-318.7Z" fill="#ed242a"/><g><path d="M356.1,809.921c.467-4,.993-7.49,1.208-11c.058-.96-.656-2.663-1.3-2.811-1.221065-.211483-2.473387.124175-3.425.918-5.648,5.751-8.856,12.654-8.848,20.807.059082,1.226993.699394,2.352368,1.724,3.03c1.20795.188615,2.43163-.226876,3.275-1.112c2.644-3.199,5.006-6.626,7.366-9.832Z" fill="#ed7a22"/><path d="M329.45,746.83c.781622-1.946638,1.404976-3.953142,1.864-6c.208-1.4-.059-3.422-.8-4-.635-.494-2.586.239-3.383,1.179-4.4781,5.497931-7.484329,12.044463-8.736,19.024-.261,1.282.607,2.664.954,4c1.157-.68,2.678-1.018,3.4-2.1c2.531-3.767,4.786-7.791,7.146-11.718l-.445-.385Z" fill="#ed7a22"/><path d="M405.33,785.088c-.846-.71-1.954-2.432-3.251-2.589-4.92-.6-18.109,7.887-19.925,12.411-1.112,2.77,0,3.919,2.776,4.077c5.675.323,17.656-7.211,20.4-13.899Z" fill="#ed7a22"/><path d="M312.411,748.2c-.1-1.343.234-2.93-.409-3.7-.969011-.728451-2.223319-.960881-3.389-.628-7.692,2.408-12.788,7.911-16.578,14.717-.6,1.07-.686,3.208-.012,3.971.65.736,2.741.769,3.94.357c7.483-2.569,11.812-8.672,16.448-14.717Z" fill="#ed7a22"/><path d="M349.808,786.348c.733693-3.035461,1.301203-6.108696,1.7-9.206.024487-1.387038-.62387-2.700149-1.74-3.524-.9-.428-2.846.234-3.738,1.059-5.519,5.1-7.224,12.066-8.5,19.066-.231,1.269,1.114,3.425,2.335,4.136.76.443,3.164-.689,3.941-1.759c2.26-3.11,4.067-6.544,6.002-9.772Z" fill="#ed7a22"/><path d="M371.518,814.96c.156-5.252.485-10.509.34-15.752-.034-1.244-1.562-3.32-2.574-3.43-1.538064.153406-2.884042,1.099649-3.549,2.495-1.509727,6.207556-2.664598,12.496077-3.459,18.835-.181,1.546,1.852,3.35,2.867,5.035c1.434755-1.274909,2.792796-2.633618,4.067-4.069.568665-.98013.986356-2.040371,1.239-3.145l1.069.031Z" fill="#ed7a22"/><path d="M374.135,824.782c-.439694,1.211946-.741594,2.469527-.9,3.749-.046,2.951,1.547,4.6,4.271,2.946c6.855121-4.155055,11.717957-10.927414,13.464-18.751.219-.881-.417-2.8-.862-2.867-1.325-.2-3.244-.212-4.056.59-4.4,4.341-8.546,8.95-12.778,13.467l.861.866Z" fill="#ed7a22"/><path d="M418.485,783.75c.653-.878,2.369-2.131,2.27-3.22-.744456-8.155879-4.723135-15.674244-11.048-20.877-1.811-1.565-3.7-.949-4.211,1.767-1.117,5.923,6.241,19.64,12.989,22.33Z" fill="#ed7a22"/><path d="M370.612,736.672c.647-4.334,1.521-8.947,1.911-13.6.108-1.3-1.218-2.711-1.886-4.072-1.364.725-3.2,1.107-4.013,2.231-4.409,6.125-6.572,12.995-5.474,20.588.285512,1.356372,1.143425,2.523104,2.353,3.2.636.293,2.357-.886,3.061-1.807c1.461205-2.108739,2.812343-4.291656,4.048-6.54Z" fill="#ed7a22"/><path d="M392.471,770.545c.724247-2.462643,1.296986-4.967332,1.715-7.5.069057-1.243454-.464659-2.444128-1.434-3.226-.782-.411-2.527.15-3.371.854-5.932777,4.8941-9.540192,12.0527-9.944,19.733-.091,1.2.7,3.17,1.6,3.543c1.366433.27316,2.778414-.162019,3.754-1.157c2.883-3.82,5.419-7.9,8.082-11.887l-.402-.36Z" fill="#ed7a22"/><path d="M286.446,762.826c.694-3.64,1.448-6.607,1.731-9.618.009474-1.241497-.583114-2.410648-1.59-3.137-1.188285-.32838-2.462058-.054201-3.41.734-5.439,5.452-8.7,12-8.816,19.811-.018,1.227,1.023,3.42,1.753,3.5c1.50847.046822,2.960513-.57543,3.967-1.7c2.419-3.164,4.442-6.631,6.365-9.59Z" fill="#ed7a22"/><path d="M311.126,801.1c-.455723,1.035602-.756288,2.132729-.892,3.256.026,1.189.276,2.856,1.064,3.409c1.139987.496005,2.449257.411476,3.516-.227c6.431092-4.223469,11.04671-10.702888,12.937-18.161.255-1.023-.537-3.3-.823-3.3-1.671.021-3.909-.011-4.9,1-4.116,4.218-7.855,8.8-11.733,13.256l.831.767Z" fill="#ed7a22"/><path d="M353.39,756.954l7.249-.771c-.731-2.167-.831-5.032-2.312-6.37-4.323207-3.839336-8.936975-7.338444-13.8-10.466-1.279-.838-3.616-.059-5.467-.022.388,1.75.206,4.042,1.264,5.155c4.159,4.376,8.711,8.381,13.066,12.474Z" fill="#ed7a22"/><path d="M292.123,786.552c.752-3.881,1.527-7.012,1.88-10.189.077313-1.232906-.440606-2.428247-1.393-3.215-1.19092-.384006-2.494853-.150062-3.478.624-5.465,5.6-8.873,12.233-8.868,20.233c0,1.092.877,2.928,1.646,3.1c1.371264.241747,2.776761-.170655,3.8-1.115c2.448-3.13,4.506-6.567,6.413-9.438Z" fill="#ed7a22"/><path d="M318.229,772.988c.708.555,1.693,1.98,2.827,2.109c5.882.674,18.062-6.711,20.553-12.179c1.286-2.823-.052-3.924-2.711-4.125-5.381-.408-18.43,7.952-20.669,14.195Z" fill="#ed7a22"/><path d="M355.391,782.209c.065.992-.359,3.382.38,3.823c1.257.75,3.924,1.01,4.814.19c5.019-4.622,9.773-9.548,14.373-14.594.646-.708.353-2.891-.28-3.907-.361-.579-2.46-.582-3.491-.155-6.873,2.794276-12.489792,8.00108-15.796,14.643Z" fill="#ed7a22"/><path d="M389.045,742.33c.514587-1.000384.889419-2.06667,1.114-3.169.082-1.171.024-2.84-.69-3.44-1.075811-.597192-2.374698-.634484-3.483-.1-6.808654,3.884686-11.591931,10.537696-13.106,18.229-.236,1.062.364,3.2.981,3.372c1.356481.333857,2.791185.042513,3.91-.794c4.231-4.272,8.211-8.793,12.278-13.228l-1.004-.87Z" fill="#ed7a22"/><path d="M395.446,748.307c1.363.841,2.866,2.552,4.021,2.342c4.409959-.708025,8.730862-1.888831,12.888-3.522c2.937537-1.341435,5.577004-3.257029,7.763-5.634c2.088-2.173,1.263-4.61-1.92-4.624-8.527-.038-15.551,3.7-21.524,9.591-.444686.591416-.854707,1.208117-1.228,1.847Z" fill="#ed7a22"/><path d="M308.1,792.518c.036-5.867.175-11.737.005-17.6-.028-.977-1.5-2.766-2.126-2.69-1.361237.220957-2.564513,1.009811-3.31,2.17-3.174,6.125-4.975,12.623-3.581,19.568.311,1.553,1.6,2.909,2.443,4.355c1.516779-.961834,2.966451-2.025617,4.339-3.184.63-.595.726-1.757,1.063-2.662l1.167.043Z" fill="#ed7a22"/></g><g id="eUhQTI4DrHS82" opacity="0.16"><circle r="16.675" transform="translate(563.584 922.618)" fill="#6a9f58"/><circle r="16.675" transform="translate(509.991 924.539)" fill="#6a9f58"/><circle r="16.675" transform="translate(533.527 879.259)" fill="#6a9f58"/></g><g id="eUhQTI4DrHS86" transform="matrix(.949854 0.260102-.262812 0.980827 131.164907-238.040175)"><path d="M849.716,296.244l21.641,5.9c0,0,13.86,13.67,18.685,25.231c0,0-11.769.833-17.441-1.483-.001-.001-19.743-15.146-22.885-29.648Z" fill="#dba2c9"/><path d="M836,375.04c9.337765-2.587149,17.273934-8.761243,22.078-17.176l8.2-10.005l6.32-21.968c0,0-1.68-2.1-21.025,13.961l-6.941,8.738L836,375.04Z" fill="#dba2c9"/><g><g><path d="M986.21,309.364c-1.034-9.694-1.727-19.412-2.277-29.141-.253-4.477-.361-8.964-.716-13.432-.136-1.708.571-1.9,1.938-1.853c2.939.106,3,.11,3.013,3.105.034,10.323,1.131,20.572,2,30.843.774,9.14,1.967,18.233,2.85,27.359.131,1.348-.177,2.164-1.614,2.478-1.502175.337722-2.983633.761759-4.437,1.27-1.441.495-2.081.04-2.332-1.44-1.031-6.074-2.161-12.131-3.187-18.206q-1.489-8.815-2.841-17.653c-1.3-8.537-2.515-17.086-3.812-25.624-.2-1.284.191-1.942,1.48-2.02c1.182-.071,2.5-.771,2.879,1.327c1.739,9.684,3.494,19.364,4.776,29.125.458331,4.665255,1.219942,9.295716,2.28,13.862Z"/><path d="M949.867,289.634c.691,5.569,1.229,11.162,2.107,16.7c1.467,9.257,2.259,18.611,4.061,27.819.157.8.465,1.783-.917,2-2.058.319-3.572-.241-3.79-1.577-1.111-6.808-2.293-13.606-3.251-20.436-1-7.158-1.781-14.349-2.661-21.524-.709-5.78-1.409-11.561-2.15-17.336-.137084-.45273-.080742-.942001.155658-1.351723s.631785-.703372,1.092342-.811277c1.716-.558,3.531-1.826,5.1-1.566c1.941.321,1.353,2.853,1.817,4.407c1.015,3.4,1.812,6.859,2.646,10.307c3.735,15.435,6.531,31.063,9.574,46.641.276,1.412.355,2.447-1.524,2.72-2.478.361-2.9.246-3.315-1.859q-4.209-21.2-8.4-42.4c-.116-.586-.229-1.173-.343-1.76l-.202.027Z"/><path d="M968.253,286.366c-1.115-5.721-2.183-11.451-3.374-17.156-.313-1.5-.263-2.386,1.513-2.707c1.571-.285,2.668-.388,3.08,1.627c2.161,10.558,4.318,21.118,6.662,31.635c2.1,9.4,4,18.857,6.594,28.147.834,2.981.137,3.79-2.964,4.058-.972.084-1.1-.543-1.276-1.2-.853-3.233-1.772-6.452-2.531-9.707-2.69-11.535-5.65-23.016-7.704-34.697Z"/><path d="M966.815,320.89c-1.048-6.709-2.8-14.022-4.661-21.277-2.427-9.485-4.041-19.136-6.443-28.612-.534-2.106.833-1.985,1.988-2.347c1.314-.412,2.32-.408,2.664,1.32c1.973,9.921,4.743,19.66,6.7,29.589c2.061,10.447,4.278,20.863,6.485,31.281.386,1.822-.026,2.7-1.994,3-1.616.243-2.318-.121-2.593-1.775-.583-3.506-1.328-6.982-2.146-11.179Z"/><path d="M901.014,305.814c.742,3.807,1.47,7.526,2.189,11.246.471,2.435.9,4.877,1.4,7.307.307,1.506-.177,1.714-1.59,1.332-2.290038-.407574-4.00933-2.320601-4.171-4.641-.939-6.085-2.179-12.126-3.35-18.174-.295-1.519.518-2.411,1.516-3.242c1.287-1.07,2.657-2.044,3.913-3.148c1.159-1.02,1.66-.567,2.154.649c3.725,9.178,7.569,18.308,10.931,27.63.454,1.259,1.02,2.478,1.476,3.737.3.844.05,1.265-.955,1.121-2.59-.372-4.471-1.251-5.432-4.135-2.115-6.346-4.56-12.588-7.221-18.736-.143-.326-.092-.828-.86-.946Z"/><path d="M942.375,333.584c-1.5-12.156-3.445-23.973-5.3-35.8-.986-6.274-1.726-12.587-2.583-18.882-.015068-.973988.399268-1.905251,1.132834-2.546157s1.712013-.926502,2.675166-.780843c.74.209.8.87.855,1.447.673,6.993,1.711,13.938,2.765,20.881.763,5.024,1.374,10.078,2.33,15.065c1.274,6.649,1.9,13.378,2.785,20.074.1.769.966,2.114-.726,2.428-2.255.413-3.684-.389-3.934-1.886Z"/><path d="M1000.6,318.8q-4.163-23.445-8.318-46.891c-.279-1.581-.435-3.184-.7-4.769-.214-1.291.374-1.7,1.569-1.64c3.167.148,3.446.276,3.846,3.35c1.99,15.285,4.884,30.417,7.617,45.577.4,2.24.681,4.5,1,6.759.2,1.472-2.342,3.608-3.735,3.144-.551-.183-.559-.7-.648-1.15q-.426-2.169-.846-4.34l.215-.04Z"/><path d="M928.295,283.221c1.773,9.6,3.848,19.156,6.373,28.578c1.783,6.651,3.495,13.325,5.329,19.965.247.9,1.279,2.283-.344,2.9-1.784293.525755-3.679274-.369695-4.406-2.082-1.284-4.572-2.563-9.147-3.683-13.76-2.335-9.619-4.911-19.181-6.869-28.891-.4-1.965-.957-3.9-1.368-5.859-.361-1.722,2.064-4.183,3.774-3.809c1.153.252.652,1.461,1.03,2.178.090306.251212.145494.513691.164.78Z"/><path d="M918.988,309.3q-2.055-10.548-4.1-21.1c-.2-1.042,1.477-2.767,2.945-2.99c1.436-.217,1.354,1.04,1.553,1.857c3.47,14.253,6.066,28.69,8.936,43.069.516,2.589.425,2.511-2.236,2.158-1.982-.263-2.777-1.122-3.121-3.111-1.153-6.66-2.532-13.28-3.824-19.915l-.153.032Z"/><path d="M1029.661,289.2c-.734-4.455-1.972-9.329-2.647-14.312-.192-1.417.095-1.8,1.413-1.247c2.9,1.222,5.785,2.486,8.7,3.669c1.447.587,1.026,1.479.53,2.415-1.314,2.486-2.618,4.978-3.984,7.436-.324429.384174-.446763.899767-.329504,1.38874s.460125.893007.923504,1.08826c2.067,1.362,4.009,2.912,6.054,4.308c1.306.891,1.771,1.623.3,2.878-2.185,1.871-4.188,3.951-6.333,5.87-1.376,1.232-1.763,1.085-2.142-.768-.826-4.067-1.594-8.15-2.485-12.726Z"/><path d="M920.791,325.895c.218,1.118.427,2.237.655,3.353.314,1.538-.4,1.886-1.787,1.677-1.899156-.07944-3.451141-1.542789-3.642-3.434-2.58-11.494-4.916-23.05-8.127-34.4-.409-1.447,1.766-3.917,3.216-3.67.773.131.768.849.921,1.4c1.3,4.708,2.69,9.4,3.864,14.137c1.723,6.955,3.292,13.948,4.927,20.924l-.027.013Z"/></g></g></g><g><g><g id="eUhQTI4DrHS104" transform="translate(.000001 168.107392)"><path d="M364.858,864.923c-11.359,5.289-15.15,15.41-16.016,26.716-1.762,23.018-3.022,46.077-4.32,69.129-1.515,26.914-2.85,53.837-4.65,80.934-2.605-4.974-4.578-10.228-8.006-14.744-10.533-13.878-29.409-15.177-40.306-2.643-2.128,2.448-3.351,5.342-4.631,9-8.032-8.4-17.381-13.212-28.825-11.271-11.466,1.945-19.076,9.148-23.668,20.35-7.27-12.361-17.609-17.236-30.94-15.511-8.322,1.078-14.238,5.8-17.88,13.28-5.207,10.706-7.573,22.319-10.559,33.73-.623,2.378-1.306,4.74-1.961,7.109h221.14q-1.278-57.882-2.559-115.763c-.553-24.844-1.056-49.691-1.758-74.531-.125-4.458.384-9.218-2.8-13.095-.158,8.221.976,16.672-3.43,24.231-4.219,7.238-13.6,7.438-18.259.457-4.412-6.611-5.108-14.175-4.761-21.795.3-6.628,2.854-12.307,8.855-15.911-1.606-.651-3.139-.195-4.666.328Z"/><path d="M381.566,863.234l-2.73-.27h.216c-3.270604-.509034-6.617971.064018-9.533,1.632-5.992,3.6-8.544,9.277-8.846,15.905-.347,7.62.349,15.184,4.761,21.795c4.658,6.981,14.04,6.781,18.259-.457c4.406-7.559,3.272-16.01,3.43-24.231-.154-5.447-2.546-10.03-5.557-14.374Z" fill="#cf97c3"/></g><path id="eUhQTI4DrHS107" d="M364.858,864.923c1.527-.524,3.06-.979,4.661-.324c2.915029-1.567982,6.262396-2.141034,9.533-1.632-.066-.566-.14-.47-.218,0l2.732.269c10.6-3.21,21.622-4.655,32.1-8.46c37.541-13.625,66.132-36.637,80.135-75.235c2.651-7.306,1.973-8.288-5.877-9.28-2.962-.374-5.96-.454-8.941-.668-.863,1.531-1.763,3.045-2.589,4.6-18.906,35.529-48.784,56.8-87.453,65.611-44.864,10.221-86.3,1.356-123.546-25.6-18.620892-13.390101-33.261581-31.579766-42.363-52.632-4.553-10.382-6.811-21.367-9.611-32.228-4.428-2.081-9.275-1.744-13.948-2.4-3.4-.475-3.026,2.019-3.047,4.125-.183,17.993,4.438,34.864,12.586,50.723c16.614,32.334,43.416,53.652,76.043,67.916c22.617,9.889,46.642,14.3,71.363,14.688c2.819.046,5.628.346,8.44.527Z" transform="matrix(.996195 0.087156-.087156 0.996195 70.683517-27.110708)" fill="#ed232a"/><path d="M379.052,862.967h-.216c.076-.467.15-.567.216,0Z" fill="#4fa3d8"/></g></g></g>
<script><![CDATA[
!function(t,n){"object"==typeof exports&&"undefined"!=typeof module?module.exports=n():"function"==typeof __SVGATOR_DEFINE__&&__SVGATOR_DEFINE__.amd?__SVGATOR_DEFINE__(n):((t="undefined"!=typeof globalThis?globalThis:t||self).__SVGATOR_PLAYER__=t.__SVGATOR_PLAYER__||{},t.__SVGATOR_PLAYER__["5c7f360c"]=n())}(this,(function(){"use strict";function t(t,n){var e=Object.keys(t);if(Object.getOwnPropertySymbols){var r=Object.getOwnPropertySymbols(t);n&&(r=r.filter((function(n){return Object.getOwnPropertyDescriptor(t,n).enumerable}))),e.push.apply(e,r)}return e}function n(n){for(var e=1;e<arguments.length;e++){var r=null!=arguments[e]?arguments[e]:{};e%2?t(Object(r),!0).forEach((function(t){u(n,t,r[t])})):Object.getOwnPropertyDescriptors?Object.defineProperties(n,Object.getOwnPropertyDescriptors(r)):t(Object(r)).forEach((function(t){Object.defineProperty(n,t,Object.getOwnPropertyDescriptor(r,t))}))}return n}function e(t){return(e="function"==typeof Symbol&&"symbol"==typeof Symbol.iterator?function(t){return typeof t}:function(t){return t&&"function"==typeof Symbol&&t.constructor===Symbol&&t!==Symbol.prototype?"symbol":typeof t})(t)}function r(t,n){if(!(t instanceof n))throw new TypeError("Cannot call a class as a function")}function i(t,n){for(var e=0;e<n.length;e++){var r=n[e];r.enumerable=r.enumerable||!1,r.configurable=!0,"value"in r&&(r.writable=!0),Object.defineProperty(t,r.key,r)}}function o(t,n,e){return n&&i(t.prototype,n),e&&i(t,e),t}function u(t,n,e){return n in t?Object.defineProperty(t,n,{value:e,enumerable:!0,configurable:!0,writable:!0}):t[n]=e,t}function a(t){return(a=Object.setPrototypeOf?Object.getPrototypeOf:function(t){return t.__proto__||Object.getPrototypeOf(t)})(t)}function l(t,n){return(l=Object.setPrototypeOf||function(t,n){return t.__proto__=n,t})(t,n)}function s(){if("undefined"==typeof Reflect||!Reflect.construct)return!1;if(Reflect.construct.sham)return!1;if("function"==typeof Proxy)return!0;try{return Boolean.prototype.valueOf.call(Reflect.construct(Boolean,[],(function(){}))),!0}catch(t){return!1}}function f(t,n,e){return(f=s()?Reflect.construct:function(t,n,e){var r=[null];r.push.apply(r,n);var i=new(Function.bind.apply(t,r));return e&&l(i,e.prototype),i}).apply(null,arguments)}function c(t,n){if(n&&("object"==typeof n||"function"==typeof n))return n;if(void 0!==n)throw new TypeError("Derived constructors may only return object or undefined");return function(t){if(void 0===t)throw new ReferenceError("this hasn't been initialised - super() hasn't been called");return t}(t)}function h(t,n,e){return(h="undefined"!=typeof Reflect&&Reflect.get?Reflect.get:function(t,n,e){var r=function(t,n){for(;!Object.prototype.hasOwnProperty.call(t,n)&&null!==(t=a(t)););return t}(t,n);if(r){var i=Object.getOwnPropertyDescriptor(r,n);return i.get?i.get.call(e):i.value}})(t,n,e||t)}function v(t){return function(t){if(Array.isArray(t))return y(t)}(t)||function(t){if("undefined"!=typeof Symbol&&null!=t[Symbol.iterator]||null!=t["@@iterator"])return Array.from(t)}(t)||function(t,n){if(!t)return;if("string"==typeof t)return y(t,n);var e=Object.prototype.toString.call(t).slice(8,-1);"Object"===e&&t.constructor&&(e=t.constructor.name);if("Map"===e||"Set"===e)return Array.from(t);if("Arguments"===e||/^(?:Ui|I)nt(?:8|16|32)(?:Clamped)?Array$/.test(e))return y(t,n)}(t)||function(){throw new TypeError("Invalid attempt to spread non-iterable instance.\nIn order to be iterable, non-array objects must have a [Symbol.iterator]() method.")}()}function y(t,n){(null==n||n>t.length)&&(n=t.length);for(var e=0,r=new Array(n);e<n;e++)r[e]=t[e];return r}function g(t,n,e){if(Number.isInteger(t))return t;var r=Math.pow(10,n);return Math[e]((+t+Number.EPSILON)*r)/r}Number.isInteger||(Number.isInteger=function(t){return"number"==typeof t&&isFinite(t)&&Math.floor(t)===t}),Number.EPSILON||(Number.EPSILON=2220446049250313e-31);var d=p(Math.pow(10,-6));function p(t){var n=arguments.length>1&&void 0!==arguments[1]?arguments[1]:6;return g(t,n,"round")}function m(t,n){var e=arguments.length>2&&void 0!==arguments[2]?arguments[2]:d;return Math.abs(t-n)<e}p(Math.pow(10,-2)),p(Math.pow(10,-4));var b=Math.PI/180;function w(t){return t}function A(t,n,e){var r=1-e;return 3*e*r*(t*r+n*e)+e*e*e}function _(){var t=arguments.length>0&&void 0!==arguments[0]?arguments[0]:0,n=arguments.length>1&&void 0!==arguments[1]?arguments[1]:0,e=arguments.length>2&&void 0!==arguments[2]?arguments[2]:1,r=arguments.length>3&&void 0!==arguments[3]?arguments[3]:1;return t<0||t>1||e<0||e>1?null:m(t,n)&&m(e,r)?w:function(i){if(i<=0)return t>0?i*n/t:0===n&&e>0?i*r/e:0;if(i>=1)return e<1?1+(i-1)*(r-1)/(e-1):1===e&&t<1?1+(i-1)*(n-1)/(t-1):1;for(var o,u=0,a=1;u<a;){var l=A(t,e,o=(u+a)/2);if(m(i,l))break;l<i?u=o:a=o}return A(n,r,o)}}function x(){return 1}function k(t){return 1===t?1:0}function S(){var t=arguments.length>0&&void 0!==arguments[0]?arguments[0]:1,n=arguments.length>1&&void 0!==arguments[1]?arguments[1]:0;if(1===t){if(0===n)return k;if(1===n)return x}var e=1/t;return function(t){return t>=1?1:(t+=n*e)-t%e}}var O=Math.sin,j=Math.cos,M=Math.acos,E=Math.asin,P=Math.tan,I=Math.atan2,R=Math.PI/180,F=180/Math.PI,N=Math.sqrt,T=function(){function t(){var n=arguments.length>0&&void 0!==arguments[0]?arguments[0]:1,e=arguments.length>1&&void 0!==arguments[1]?arguments[1]:0,i=arguments.length>2&&void 0!==arguments[2]?arguments[2]:0,o=arguments.length>3&&void 0!==arguments[3]?arguments[3]:1,u=arguments.length>4&&void 0!==arguments[4]?arguments[4]:0,a=arguments.length>5&&void 0!==arguments[5]?arguments[5]:0;r(this,t),this.m=[n,e,i,o,u,a],this.i=null,this.w=null,this.s=null}return o(t,[{key:"determinant",get:function(){var t=this.m;return t[0]*t[3]-t[1]*t[2]}},{key:"isIdentity",get:function(){if(null===this.i){var t=this.m;this.i=1===t[0]&&0===t[1]&&0===t[2]&&1===t[3]&&0===t[4]&&0===t[5]}return this.i}},{key:"point",value:function(t,n){var e=this.m;return{x:e[0]*t+e[2]*n+e[4],y:e[1]*t+e[3]*n+e[5]}}},{key:"translateSelf",value:function(){var t=arguments.length>0&&void 0!==arguments[0]?arguments[0]:0,n=arguments.length>1&&void 0!==arguments[1]?arguments[1]:0;if(!t&&!n)return this;var e=this.m;return e[4]+=e[0]*t+e[2]*n,e[5]+=e[1]*t+e[3]*n,this.w=this.s=this.i=null,this}},{key:"rotateSelf",value:function(){var t=arguments.length>0&&void 0!==arguments[0]?arguments[0]:0;if(t%=360){var n=O(t*=R),e=j(t),r=this.m,i=r[0],o=r[1];r[0]=i*e+r[2]*n,r[1]=o*e+r[3]*n,r[2]=r[2]*e-i*n,r[3]=r[3]*e-o*n,this.w=this.s=this.i=null}return this}},{key:"scaleSelf",value:function(){var t=arguments.length>0&&void 0!==arguments[0]?arguments[0]:1,n=arguments.length>1&&void 0!==arguments[1]?arguments[1]:1;if(1!==t||1!==n){var e=this.m;e[0]*=t,e[1]*=t,e[2]*=n,e[3]*=n,this.w=this.s=this.i=null}return this}},{key:"skewSelf",value:function(t,n){if(n%=360,(t%=360)||n){var e=this.m,r=e[0],i=e[1],o=e[2],u=e[3];t&&(t=P(t*R),e[2]+=r*t,e[3]+=i*t),n&&(n=P(n*R),e[0]+=o*n,e[1]+=u*n),this.w=this.s=this.i=null}return this}},{key:"resetSelf",value:function(){var t=arguments.length>0&&void 0!==arguments[0]?arguments[0]:1,n=arguments.length>1&&void 0!==arguments[1]?arguments[1]:0,e=arguments.length>2&&void 0!==arguments[2]?arguments[2]:0,r=arguments.length>3&&void 0!==arguments[3]?arguments[3]:1,i=arguments.length>4&&void 0!==arguments[4]?arguments[4]:0,o=arguments.length>5&&void 0!==arguments[5]?arguments[5]:0,u=this.m;return u[0]=t,u[1]=n,u[2]=e,u[3]=r,u[4]=i,u[5]=o,this.w=this.s=this.i=null,this}},{key:"recomposeSelf",value:function(){var t=arguments.length>0&&void 0!==arguments[0]?arguments[0]:null,n=arguments.length>1&&void 0!==arguments[1]?arguments[1]:null,e=arguments.length>2&&void 0!==arguments[2]?arguments[2]:null,r=arguments.length>3&&void 0!==arguments[3]?arguments[3]:null,i=arguments.length>4&&void 0!==arguments[4]?arguments[4]:null;return this.isIdentity||this.resetSelf(),t&&(t.x||t.y)&&this.translateSelf(t.x,t.y),n&&this.rotateSelf(n),e&&(e.x&&this.skewSelf(e.x,0),e.y&&this.skewSelf(0,e.y)),!r||1===r.x&&1===r.y||this.scaleSelf(r.x,r.y),i&&(i.x||i.y)&&this.translateSelf(i.x,i.y),this}},{key:"decompose",value:function(){var t=arguments.length>0&&void 0!==arguments[0]?arguments[0]:0,n=arguments.length>1&&void 0!==arguments[1]?arguments[1]:0,e=this.m,r=e[0]*e[0]+e[1]*e[1],i=[[e[0],e[1]],[e[2],e[3]]],o=N(r);if(0===o)return{origin:{x:p(e[4]),y:p(e[5])},translate:{x:p(t),y:p(n)},scale:{x:0,y:0},skew:{x:0,y:0},rotate:0};i[0][0]/=o,i[0][1]/=o;var u=e[0]*e[3]-e[1]*e[2]<0;u&&(o=-o);var a=i[0][0]*i[1][0]+i[0][1]*i[1][1];i[1][0]-=i[0][0]*a,i[1][1]-=i[0][1]*a;var l=N(i[1][0]*i[1][0]+i[1][1]*i[1][1]);if(0===l)return{origin:{x:p(e[4]),y:p(e[5])},translate:{x:p(t),y:p(n)},scale:{x:p(o),y:0},skew:{x:0,y:0},rotate:0};i[1][0]/=l,i[1][1]/=l,a/=l;var s=0;return i[1][1]<0?(s=M(i[1][1])*F,i[0][1]<0&&(s=360-s)):s=E(i[0][1])*F,u&&(s=-s),a=I(a,N(i[0][0]*i[0][0]+i[0][1]*i[0][1]))*F,u&&(a=-a),{origin:{x:p(e[4]),y:p(e[5])},translate:{x:p(t),y:p(n)},scale:{x:p(o),y:p(l)},skew:{x:p(a),y:0},rotate:p(s)}}},{key:"clone",value:function(){var t=this.m;return new this.constructor(t[0],t[1],t[2],t[3],t[4],t[5])}},{key:"toString",value:function(){var t=arguments.length>0&&void 0!==arguments[0]?arguments[0]:" ";if(null===this.s){var n=this.m.map((function(t){return p(t)}));1===n[0]&&0===n[1]&&0===n[2]&&1===n[3]?this.s="translate("+n[4]+t+n[5]+")":this.s="matrix("+n.join(t)+")"}return this.s}}],[{key:"create",value:function(t){return t?Array.isArray(t)?f(this,v(t)):t instanceof this?t.clone():(new this).recomposeSelf(t.origin,t.rotate,t.skew,t.scale,t.translate):new this}}]),t}();function q(t,n,e){return t>=.5?e:n}function B(t,n,e){return 0===t||n===e?n:t*(e-n)+n}function D(t,n,e){var r=B(t,n,e);return r<=0?0:r}function L(t,n,e){var r=B(t,n,e);return r<=0?0:r>=1?1:r}function C(t,n,e){return 0===t?n:1===t?e:{x:B(t,n.x,e.x),y:B(t,n.y,e.y)}}function V(t,n,e){var r=function(t,n,e){return Math.round(B(t,n,e))}(t,n,e);return r<=0?0:r>=255?255:r}function G(t,n,e){return 0===t?n:1===t?e:{r:V(t,n.r,e.r),g:V(t,n.g,e.g),b:V(t,n.b,e.b),a:B(t,null==n.a?1:n.a,null==e.a?1:e.a)}}function z(t,n){for(var e=[],r=0;r<t;r++)e.push(n);return e}function Y(t,n){if(--n<=0)return t;var e=(t=Object.assign([],t)).length;do{for(var r=0;r<e;r++)t.push(t[r])}while(--n>0);return t}var $,U=function(){function t(n){r(this,t),this.list=n,this.length=n.length}return o(t,[{key:"setAttribute",value:function(t,n){for(var e=this.list,r=0;r<this.length;r++)e[r].setAttribute(t,n)}},{key:"removeAttribute",value:function(t){for(var n=this.list,e=0;e<this.length;e++)n[e].removeAttribute(t)}},{key:"style",value:function(t,n){for(var e=this.list,r=0;r<this.length;r++)e[r].style[t]=n}}]),t}(),Q=/-./g,H=function(t,n){return n.toUpperCase()};function J(t){return"function"==typeof t?t:q}function Z(t){return t?"function"==typeof t?t:Array.isArray(t)?function(t){var n=arguments.length>1&&void 0!==arguments[1]?arguments[1]:w;if(!Array.isArray(t))return n;switch(t.length){case 1:return S(t[0])||n;case 2:return S(t[0],t[1])||n;case 4:return _(t[0],t[1],t[2],t[3])||n}return n}(t,null):function(t,n){var e=arguments.length>2&&void 0!==arguments[2]?arguments[2]:w;switch(t){case"linear":return w;case"steps":return S(n.steps||1,n.jump||0)||e;case"bezier":case"cubic-bezier":return _(n.x1||0,n.y1||0,n.x2||0,n.y2||0)||e}return e}(t.type,t.value,null):null}function K(t,n,e){var r=arguments.length>3&&void 0!==arguments[3]&&arguments[3],i=n.length-1;if(t<=n[0].t)return r?[0,0,n[0].v]:n[0].v;if(t>=n[i].t)return r?[i,1,n[i].v]:n[i].v;var o,u=n[0],a=null;for(o=1;o<=i;o++){if(!(t>n[o].t)){a=n[o];break}u=n[o]}return null==a?r?[i,1,n[i].v]:n[i].v:u.t===a.t?r?[o,1,a.v]:a.v:(t=(t-u.t)/(a.t-u.t),u.e&&(t=u.e(t)),r?[o,t,e(t,u.v,a.v)]:e(t,u.v,a.v))}function W(t,n){var e=arguments.length>2&&void 0!==arguments[2]?arguments[2]:null;return t&&t.length?"function"!=typeof n?null:("function"!=typeof e&&(e=null),function(r){var i=K(r,t,n);return null!=i&&e&&(i=e(i)),i}):null}function X(t,n){return t.t-n.t}function tt(t,n,r,i,o){var u,a="@"===r[0],l="#"===r[0],s=$[r],f=q;switch(a?(u=r.substr(1),r=u.replace(Q,H)):l&&(r=r.substr(1)),e(s)){case"function":if(f=s(i,o,K,Z,r,a,n,t),l)return f;break;case"string":f=W(i,J(s));break;case"object":if((f=W(i,J(s.i),s.f))&&"function"==typeof s.u)return s.u(n,f,r,a,t)}return f?function(t,n,e){if(arguments.length>3&&void 0!==arguments[3]&&arguments[3])return t instanceof U?function(r){return t.style(n,e(r))}:function(r){return t.style[n]=e(r)};if(Array.isArray(n)){var r=n.length;return function(i){var o=e(i);if(null==o)for(var u=0;u<r;u++)t[u].removeAttribute(n);else for(var a=0;a<r;a++)t[a].setAttribute(n,o)}}return function(r){var i=e(r);null==i?t.removeAttribute(n):t.setAttribute(n,i)}}(n,r,f,a):null}function nt(t,n,r,i){if(!i||"object"!==e(i))return null;var o=null,u=null;return Array.isArray(i)?u=function(t){if(!t||!t.length)return null;for(var n=0;n<t.length;n++)t[n].e&&(t[n].e=Z(t[n].e));return t.sort(X)}(i):(u=i.keys,o=i.data||null),u?tt(t,n,r,u,o):null}function et(t,n,e){if(!e)return null;var r=[];for(var i in e)if(e.hasOwnProperty(i)){var o=nt(t,n,i,e[i]);o&&r.push(o)}return r.length?r:null}function rt(t,n){if(!n.settings.duration||n.settings.duration<0)return null;var e,r,i,o,u,a=function(t,n){if(!n)return null;var e=[];if(Array.isArray(n))for(var r=n.length,i=0;i<r;i++){var o=n[i];if(2===o.length){var u=null;if("string"==typeof o[0])u=t.getElementById(o[0]);else if(Array.isArray(o[0])){u=[];for(var a=0;a<o[0].length;a++)if("string"==typeof o[0][a]){var l=t.getElementById(o[0][a]);l&&u.push(l)}u=u.length?1===u.length?u[0]:new U(u):null}if(u){var s=et(t,u,o[1]);s&&(e=e.concat(s))}}}else for(var f in n)if(n.hasOwnProperty(f)){var c=t.getElementById(f);if(c){var h=et(t,c,n[f]);h&&(e=e.concat(h))}}return e.length?e:null}(t,n.elements);return a?(e=a,r=n.settings,i=r.duration,o=e.length,u=null,function(t,n){var a=r.iterations||1/0,l=(r.alternate&&a%2==0)^r.direction>0?i:0,s=t%i,f=1+(t-s)/i;n*=r.direction,r.alternate&&f%2==0&&(n=-n);var c=!1;if(f>a)s=l,c=!0,-1===r.fill&&(s=r.direction>0?0:i);else if(n<0&&(s=i-s),s===u)return!1;u=s;for(var h=0;h<o;h++)e[h](s);return c}):null}function it(t,n){for(var e=n.querySelectorAll("svg"),r=0;r<e.length;r++)if(e[r].id===t.root&&!e[r].svgatorAnimation)return e[r].svgatorAnimation=!0,e[r];return null}function ot(t){var n=function(t){return t.shadowRoot};return document?Array.from(t.querySelectorAll(":not("+["a","area","audio","br","canvas","circle","datalist","embed","g","head","hr","iframe","img","input","link","object","path","polygon","rect","script","source","style","svg","title","track","video"].join()+")")).filter(n).map(n):[]}function ut(t){var n=arguments.length>1&&void 0!==arguments[1]?arguments[1]:document,e=arguments.length>2&&void 0!==arguments[2]?arguments[2]:0,r=it(t,n);if(r)return r;if(e>=20)return null;for(var i=ot(n),o=0;o<i.length;o++){var u=ut(t,i[o],e+1);if(u)return u}return null}function at(t,n){if($=n,!t||!t.root||!Array.isArray(t.animations))return null;var e=ut(t);if(!e)return null;var r=t.animations.map((function(t){return rt(e,t)})).filter((function(t){return!!t}));return r.length?{svg:e,animations:r,animationSettings:t.animationSettings,options:t.options||void 0}:null}function lt(t){var n=arguments.length>1&&void 0!==arguments[1]?arguments[1]:null,e=arguments.length>2&&void 0!==arguments[2]?arguments[2]:Number,r=arguments.length>3&&void 0!==arguments[3]?arguments[3]:"undefined"!=typeof BigInt&&BigInt,i="0x"+(t.replace(/[^0-9a-fA-F]+/g,"")||27);return n&&r&&e.isSafeInteger&&!e.isSafeInteger(+i)?e(r(i))%n+n:+i}function st(t,n,e){return!t||!e||n>t.length?t:t.substring(0,n)+st(t.substring(n+1),e,e)}function ft(t){var n=arguments.length>1&&void 0!==arguments[1]?arguments[1]:27;return!t||t%n?t%n:[0,1].includes(n)?n:ft(t/n,n)}function ct(t,n,e){if(t&&t.length){var r=lt(e),i=ft(r)+5,o=st(t,ft(r,5),i);return o=o.replace(/\x7c$/g,"==").replace(/\x2f$/g,"="),o=function(t,n,e){var r=+("0x"+t.substring(0,4));t=t.substring(4);for(var i=lt(n,r)%r+e%27,o=[],u=0;u<t.length;u+=2)if("|"!==t[u]){var a=+("0x"+t[u]+t[u+1])-i;o.push(a)}else{var l=+("0x"+t.substring(u+1,u+1+4))-i;u+=3,o.push(l)}return String.fromCharCode.apply(String,o)}(o=(o=atob(o)).replace(/[\x41-\x5A]/g,""),n,r),o=JSON.parse(o)}}var ht=[{key:"alternate",def:!1},{key:"fill",def:1},{key:"iterations",def:0},{key:"direction",def:1},{key:"speed",def:1},{key:"fps",def:100}],vt=function(){function t(n,e){var i=this,o=arguments.length>2&&void 0!==arguments[2]?arguments[2]:null;r(this,t),this._id=0,this._running=!1,this._rollingBack=!1,this._animations=n,this._settings=e,(!o||o<"2022-05-02")&&delete this._settings.speed,ht.forEach((function(t){i._settings[t.key]=i._settings[t.key]||t.def})),this.duration=e.duration,this.offset=e.offset||0,this.rollbackStartOffset=0}return o(t,[{key:"alternate",get:function(){return this._settings.alternate}},{key:"fill",get:function(){return this._settings.fill}},{key:"iterations",get:function(){return this._settings.iterations}},{key:"direction",get:function(){return this._settings.direction}},{key:"speed",get:function(){return this._settings.speed}},{key:"fps",get:function(){return this._settings.fps}},{key:"maxFiniteDuration",get:function(){return this.iterations>0?this.iterations*this.duration:this.duration}},{key:"_apply",value:function(t){for(var n=arguments.length>1&&void 0!==arguments[1]?arguments[1]:{},e=this._animations,r=e.length,i=0,o=0;o<r;o++)n[o]?i++:(n[o]=e[o](t,1),n[o]&&i++);return i}},{key:"_rollback",value:function(t){var n=this,e=1/0,r=null;this.rollbackStartOffset=t,this._rollingBack=!0,this._running=!0;this._id=window.requestAnimationFrame((function i(o){if(n._rollingBack){null==r&&(r=o);var u=Math.round(t-(o-r)*n.speed);if(u>n.duration&&e!==1/0){var a=!!n.alternate&&u/n.duration%2>1,l=u%n.duration;u=(l+=a?n.duration:0)||n.duration}var s=(n.fps?1e3/n.fps:0)*n.speed,f=Math.max(0,u);f<=e-s&&(n.offset=f,e=f,n._apply(f));var c=n.iterations>0&&-1===n.fill&&u>=n.maxFiniteDuration;(u<=0||n.offset<u||c)&&n.stop(),n._id=window.requestAnimationFrame(i)}}))}},{key:"_start",value:function(){var t=this,n=arguments.length>0&&void 0!==arguments[0]?arguments[0]:0,e=-1/0,r=null,i={};this._running=!0;var o=function o(u){null==r&&(r=u);var a=Math.round((u-r)*t.speed+n),l=(t.fps?1e3/t.fps:0)*t.speed;if(a>=e+l&&!t._rollingBack&&(t.offset=a,e=a,t._apply(a,i)===t._animations.length))return void t.pause(!0);t._id=window.requestAnimationFrame(o)};this._id=window.requestAnimationFrame(o)}},{key:"_pause",value:function(){this._id&&window.cancelAnimationFrame(this._id),this._running=!1}},{key:"play",value:function(){if(!this._running)return this._rollingBack?this._rollback(this.offset):this._start(this.offset)}},{key:"stop",value:function(){this._pause(),this.offset=0,this.rollbackStartOffset=0,this._rollingBack=!1,this._apply(0)}},{key:"reachedToEnd",value:function(){return this.iterations>0&&this.offset>=this.iterations*this.duration}},{key:"restart",value:function(){var t=arguments.length>0&&void 0!==arguments[0]&&arguments[0];this.stop(t),this.play(t)}},{key:"pause",value:function(){this._pause()}},{key:"reverse",value:function(){this.direction=-this.direction}}],[{key:"build",value:function(t,n){delete t.animationSettings,t.options=ct(t.options,t.root,"5c7f360c"),t.animations.map((function(n){n.settings=ct(n.s,t.root,"5c7f360c"),delete n.s,t.animationSettings||(t.animationSettings=n.settings)}));var e=t.version;if(!(t=at(t,n)))return null;var r=t.options||{},i=new this(t.animations,t.animationSettings,e);return{el:t.svg,options:r,player:i}}},{key:"push",value:function(t){return this.build(t)}},{key:"init",value:function(){var t=this,n=window.__SVGATOR_PLAYER__&&window.__SVGATOR_PLAYER__["5c7f360c"];Array.isArray(n)&&n.splice(0).forEach((function(n){return t.build(n)}))}}]),t}();function yt(t){return p(t)+""}function gt(t){var n=arguments.length>1&&void 0!==arguments[1]?arguments[1]:" ";return t&&t.length?t.map(yt).join(n):""}function dt(t){if(!t)return"transparent";if(null==t.a||t.a>=1){var n=function(t){return 1===(t=parseInt(t).toString(16)).length?"0"+t:t},e=function(t){return t.charAt(0)===t.charAt(1)},r=n(t.r),i=n(t.g),o=n(t.b);return e(r)&&e(i)&&e(o)&&(r=r.charAt(0),i=i.charAt(0),o=o.charAt(0)),"#"+r+i+o}return"rgba("+t.r+","+t.g+","+t.b+","+t.a+")"}function pt(t){return t?"url(#"+t+")":"none"}!function(){for(var t=0,n=["ms","moz","webkit","o"],e=0;e<n.length&&!window.requestAnimationFrame;++e)window.requestAnimationFrame=window[n[e]+"RequestAnimationFrame"],window.cancelAnimationFrame=window[n[e]+"CancelAnimationFrame"]||window[n[e]+"CancelRequestAnimationFrame"];window.requestAnimationFrame||(window.requestAnimationFrame=function(n){var e=Date.now(),r=Math.max(0,16-(e-t)),i=window.setTimeout((function(){n(e+r)}),r);return t=e+r,i},window.cancelAnimationFrame=window.clearTimeout)}();var mt={f:null,i:function(t,n,e){return 0===t?n:1===t?e:{x:D(t,n.x,e.x),y:D(t,n.y,e.y)}},u:function(t,n){return function(e){var r=n(e);t.setAttribute("rx",yt(r.x)),t.setAttribute("ry",yt(r.y))}}},bt={f:null,i:function(t,n,e){return 0===t?n:1===t?e:{width:D(t,n.width,e.width),height:D(t,n.height,e.height)}},u:function(t,n){return function(e){var r=n(e);t.setAttribute("width",yt(r.width)),t.setAttribute("height",yt(r.height))}}};Object.freeze({M:2,L:2,Z:0,H:1,V:1,C:6,Q:4,T:2,S:4,A:7});var wt={},At=null;function _t(t){var n=function(){if(At)return At;if("object"!==("undefined"==typeof document?"undefined":e(document))||!document.createElementNS)return{};var t=document.createElementNS("http://www.w3.org/2000/svg","svg");return t&&t.style?(t.style.position="absolute",t.style.opacity="0.01",t.style.zIndex="-9999",t.style.left="-9999px",t.style.width="1px",t.style.height="1px",At={svg:t}):{}}().svg;if(!n)return function(t){return null};var r=document.createElementNS(n.namespaceURI,"path");r.setAttributeNS(null,"d",t),r.setAttributeNS(null,"fill","none"),r.setAttributeNS(null,"stroke","none"),n.appendChild(r);var i=r.getTotalLength();return function(t){var n=r.getPointAtLength(i*t);return{x:n.x,y:n.y}}}function xt(t){return wt[t]?wt[t]:wt[t]=_t(t)}function kt(t,n,e,r){if(!t||!r)return!1;var i=["M",t.x,t.y];if(n&&e&&(i.push("C"),i.push(n.x),i.push(n.y),i.push(e.x),i.push(e.y)),n?!e:e){var o=n||e;i.push("Q"),i.push(o.x),i.push(o.y)}return n||e||i.push("L"),i.push(r.x),i.push(r.y),i.join(" ")}function St(t,n,e,r){var i=arguments.length>4&&void 0!==arguments[4]?arguments[4]:1,o=kt(t,n,e,r),u=xt(o);try{return u(i)}catch(t){return null}}function Ot(t,n,e){return t+(n-t)*e}function jt(t,n,e){var r=arguments.length>3&&void 0!==arguments[3]&&arguments[3],i={x:Ot(t.x,n.x,e),y:Ot(t.y,n.y,e)};return r&&(i.a=Mt(t,n)),i}function Mt(t,n){return Math.atan2(n.y-t.y,n.x-t.x)}function Et(t,n,e,r){var i=1-r;return i*i*t+2*i*r*n+r*r*e}function Pt(t,n,e,r){return 2*(1-r)*(n-t)+2*r*(e-n)}function It(t,n,e,r){var i=arguments.length>4&&void 0!==arguments[4]&&arguments[4],o=St(t,n,null,e,r);return o||(o={x:Et(t.x,n.x,e.x,r),y:Et(t.y,n.y,e.y,r)}),i&&(o.a=Rt(t,n,e,r)),o}function Rt(t,n,e,r){return Math.atan2(Pt(t.y,n.y,e.y,r),Pt(t.x,n.x,e.x,r))}function Ft(t,n,e,r,i){var o=i*i;return i*o*(r-t+3*(n-e))+3*o*(t+e-2*n)+3*i*(n-t)+t}function Nt(t,n,e,r,i){var o=1-i;return 3*(o*o*(n-t)+2*o*i*(e-n)+i*i*(r-e))}function Tt(t,n,e,r,i){var o=arguments.length>5&&void 0!==arguments[5]&&arguments[5],u=St(t,n,e,r,i);return u||(u={x:Ft(t.x,n.x,e.x,r.x,i),y:Ft(t.y,n.y,e.y,r.y,i)}),o&&(u.a=qt(t,n,e,r,i)),u}function qt(t,n,e,r,i){return Math.atan2(Nt(t.y,n.y,e.y,r.y,i),Nt(t.x,n.x,e.x,r.x,i))}function Bt(t,n,e){var r=arguments.length>3&&void 0!==arguments[3]&&arguments[3];if(Lt(n)){if(Ct(e))return It(n,e.start,e,t,r)}else if(Lt(e)){if(Vt(n))return It(n,n.end,e,t,r)}else{if(Vt(n))return Ct(e)?Tt(n,n.end,e.start,e,t,r):It(n,n.end,e,t,r);if(Ct(e))return It(n,e.start,e,t,r)}return jt(n,e,t,r)}function Dt(t,n,e){var r=Bt(t,n,e,!0);return r.a=function(t){return arguments.length>1&&void 0!==arguments[1]&&arguments[1]?t+Math.PI:t}(r.a)/b,r}function Lt(t){return!t.type||"corner"===t.type}function Ct(t){return null!=t.start&&!Lt(t)}function Vt(t){return null!=t.end&&!Lt(t)}var Gt=new T;var zt={f:yt,i:B},Yt={f:yt,i:L};function $t(t,n,e){return t.map((function(t){return function(t,n,e){var r=t.v;if(!r||"g"!==r.t||r.s||!r.v||!r.r)return t;var i=e.getElementById(r.r),o=i&&i.querySelectorAll("stop")||[];return r.s=r.v.map((function(t,n){var e=o[n]&&o[n].getAttribute("offset");return{c:t,o:e=p(parseInt(e)/100)}})),delete r.v,t}(t,0,e)}))}var Ut={gt:"gradientTransform",c:{x:"cx",y:"cy"},rd:"r",f:{x:"x1",y:"y1"},to:{x:"x2",y:"y2"}};function Qt(t,n,r,i,o,u,a,l){return $t(t,0,l),n=function(t,n,e){for(var r,i,o,u=t.length-1,a={},l=0;l<=u;l++)(r=t[l]).e&&(r.e=n(r.e)),r.v&&"g"===(i=r.v).t&&i.r&&(o=e.getElementById(i.r))&&(a[i.r]={e:o,s:o.querySelectorAll("stop")});return a}(t,i,l),function(i){var o=r(i,t,Ht);if(!o)return"none";if("c"===o.t)return dt(o.v);if("g"===o.t){if(!n[o.r])return pt(o.r);var u=n[o.r];return function(t,n){for(var e=t.s,r=e.length;r<n.length;r++){var i=e[e.length-1].cloneNode();i.id=Kt(i.id),t.e.appendChild(i),e=t.s=t.e.querySelectorAll("stop")}for(var o=0,u=e.length,a=n.length-1;o<u;o++)e[o].setAttribute("stop-color",dt(n[Math.min(o,a)].c)),e[o].setAttribute("offset",n[Math.min(o,a)].o)}(u,o.s),Object.keys(Ut).forEach((function(t){if(void 0!==o[t])if("object"!==e(Ut[t])){var n,r="gt"===t?(n=o[t],Array.isArray(n)?"matrix("+n.join(" ")+")":""):o[t],i=Ut[t];u.e.setAttribute(i,r)}else Object.keys(Ut[t]).forEach((function(n){if(void 0!==o[t][n]){var e=o[t][n],r=Ut[t][n];u.e.setAttribute(r,e)}}))})),pt(o.r)}return"none"}}function Ht(t,e,r){if(0===t)return e;if(1===t)return r;if(e&&r){var i=e.t;if(i===r.t)switch(e.t){case"c":return{t:i,v:G(t,e.v,r.v)};case"g":if(e.r===r.r){var o={t:i,s:Jt(t,e.s,r.s),r:e.r};return e.gt&&r.gt&&(o.gt=function(t,n,e){var r=n.length;if(r!==e.length)return q(t,n,e);for(var i=new Array(r),o=0;o<r;o++)i[o]=B(t,n[o],e[o]);return i}(t,e.gt,r.gt)),e.c?(o.c=C(t,e.c,r.c),o.rd=D(t,e.rd,r.rd)):e.f&&(o.f=C(t,e.f,r.f),o.to=C(t,e.to,r.to)),o}}if("c"===e.t&&"g"===r.t||"c"===r.t&&"g"===e.t){var u="c"===e.t?e:r,a="g"===e.t?n({},e):n({},r),l=a.s.map((function(t){return{c:u.v,o:t.o}}));return a.s="c"===e.t?Jt(t,l,a.s):Jt(t,a.s,l),a}}return q(t,e,r)}function Jt(t,n,e){if(n.length===e.length)return n.map((function(n,r){return Zt(t,n,e[r])}));for(var r=Math.max(n.length,e.length),i=[],o=0;o<r;o++){var u=Zt(t,n[Math.min(o,n.length-1)],e[Math.min(o,e.length-1)]);i.push(u)}return i}function Zt(t,n,e){return{o:L(t,n.o,e.o||0),c:G(t,n.c,e.c||{})}}function Kt(t){return t.replace(/-fill-([0-9]+)$/,(function(t,n){return"-fill-"+(+n+1)}))}var Wt={fill:Qt,"fill-opacity":Yt,stroke:Qt,"stroke-opacity":Yt,"stroke-width":zt,"stroke-dashoffset":{f:yt,i:B},"stroke-dasharray":{f:function(t){var n=arguments.length>1&&void 0!==arguments[1]?arguments[1]:" ";return t&&t.length>0&&(t=t.map((function(t){return p(t,4)}))),gt(t,n)},i:function(t,n,e){var r,i,o,u=n.length,a=e.length;if(u!==a)if(0===u)n=z(u=a,0);else if(0===a)a=u,e=z(u,0);else{var l=(o=(r=u)*(i=a)/function(t,n){for(var e;n;)e=n,n=t%n,t=e;return t||1}(r,i))<0?-o:o;n=Y(n,Math.floor(l/u)),e=Y(e,Math.floor(l/a)),u=a=l}for(var s=[],f=0;f<u;f++)s.push(p(D(t,n[f],e[f])));return s}},opacity:Yt,transform:function(t,n,r,i){if(!(t=function(t,n){if(!t||"object"!==e(t))return null;var r=!1;for(var i in t)t.hasOwnProperty(i)&&(t[i]&&t[i].length?(t[i].forEach((function(t){t.e&&(t.e=n(t.e))})),r=!0):delete t[i]);return r?t:null}(t,i)))return null;var o=function(e,i,o){var u=arguments.length>3&&void 0!==arguments[3]?arguments[3]:null;return t[e]?r(i,t[e],o):n&&n[e]?n[e]:u};return n&&n.a&&t.o?function(n){var e=r(n,t.o,Dt);return Gt.recomposeSelf(e,o("r",n,B,0)+e.a,o("k",n,C),o("s",n,C),o("t",n,C)).toString()}:function(t){return Gt.recomposeSelf(o("o",t,Bt,null),o("r",t,B,0),o("k",t,C),o("s",t,C),o("t",t,C)).toString()}},r:zt,"#size":bt,"#radius":mt,_:function(t,n){if(Array.isArray(t))for(var e=0;e<t.length;e++)this[t[e]]=n;else this[t]=n}},Xt=function(t){!function(t,n){if("function"!=typeof n&&null!==n)throw new TypeError("Super expression must either be null or a function");t.prototype=Object.create(n&&n.prototype,{constructor:{value:t,writable:!0,configurable:!0}}),n&&l(t,n)}(u,t);var n,e,i=(n=u,e=s(),function(){var t,r=a(n);if(e){var i=a(this).constructor;t=Reflect.construct(r,arguments,i)}else t=r.apply(this,arguments);return c(this,t)});function u(){return r(this,u),i.apply(this,arguments)}return o(u,null,[{key:"build",value:function(t){var n=h(a(u),"build",this).call(this,t,Wt);if(!n)return null;n.el,n.options,function(t,n,e){t.play()}(n.player)}}]),u}(vt);return Xt.init(),Xt}));
(function(s,i,o,w,d,a,b){w[o]=w[o]||{};w[o][s]=w[o][s]||[];w[o][s].push(i);})('5c7f360c',{"root":"eUhQTI4DrHS1","version":"2022-05-04","animations":[{"elements":{"eUhQTI4DrHS4":{"opacity":[{"t":0,"v":0.16},{"t":1200,"v":1},{"t":2400,"v":0.16}]},"eUhQTI4DrHS34":{"transform":{"data":{"o":{"x":1306.124501,"y":766.959076,"type":"corner"},"s":{"x":1.004348,"y":0.971161},"t":{"x":-1306.042182,"y":-767.14269}},"keys":{"r":[{"t":0,"v":20,"e":[0.42,0,0.58,1]},{"t":1200,"v":-10.037786},{"t":2400,"v":20,"e":[0.42,0,0.58,1]}]}}},"eUhQTI4DrHS38":{"transform":{"data":{"t":{"x":-1125.240479,"y":-692.402924}},"keys":{"o":[{"t":10,"v":{"x":1066,"y":693,"type":"corner"},"e":[0.42,0,0.58,1]},{"t":1200,"v":{"x":1125,"y":693,"type":"corner"}},{"t":2400,"v":{"x":1066,"y":693,"type":"corner"},"e":[0.42,0,0.58,1]}]}}},"eUhQTI4DrHS52":{"transform":{"data":{"o":{"x":1150.991028,"y":459.921494,"type":"corner"},"t":{"x":-1150.991028,"y":-459.921493}},"keys":{"r":[{"t":0,"v":10,"e":[0.42,0,0.58,1]},{"t":1200,"v":-10},{"t":2400,"v":10,"e":[0.42,0,0.58,1]}]}}},"eUhQTI4DrHS56":{"opacity":[{"t":0,"v":0.16},{"t":1200,"v":1},{"t":2400,"v":0.16}]},"eUhQTI4DrHS82":{"opacity":[{"t":0,"v":0.16,"e":[0.42,0,0.58,1]},{"t":1200,"v":1},{"t":2400,"v":0.16,"e":[0.42,0,0.58,1]}]},"eUhQTI4DrHS86":{"transform":{"data":{"o":{"x":938.765869,"y":319.9608,"type":"corner"},"k":{"x":-10,"y":10},"t":{"x":-938.765869,"y":-319.9608}},"keys":{"r":[{"t":0,"v":5},{"t":1200,"v":-5},{"t":2400,"v":5}]}}},"eUhQTI4DrHS104":{"transform":{"data":{"t":{"x":-283.665992,"y":-971.892608}},"keys":{"o":[{"t":0,"v":{"x":283.665993,"y":1140,"type":"corner"},"e":[0.42,0,0.58,1]},{"t":1200,"v":{"x":283.665993,"y":972,"type":"corner"}},{"t":2400,"v":{"x":283.665993,"y":1140,"type":"corner"},"e":[0.42,0,0.58,1]}]}}},"eUhQTI4DrHS107":{"transform":{"data":{"o":{"x":345.81041,"y":795.903992,"type":"corner"},"t":{"x":-345.81041,"y":-795.903992}},"keys":{"r":[{"t":0,"v":5,"e":[0.42,0,0.58,1]},{"t":1200,"v":-5},{"t":2400,"v":5,"e":[0.42,0,0.58,1]}]}}}},"s":"MHDA1ZGQ3N2VEYzBkMVAljZWJkZDBjNWNiY2EW3ZTk2OGU5MDhjOGM4KODdlYzBjNWNlYzFiZJlNkMFhjNWNiTWNhN2RU5NjhkUjg4N2VjNWQEwYzFjZWJkZDBjNWNiHY2FjZjdlOTY4Yzg4NX2VjMmM1YzhjODdlOTLZKOGQ4ODdlYmRjOGQUwVmMxY2VjYVliZGQwTYzE3ZTk2YzJiZGM4YX2ZjMTg4N2VjZmNjYzAFjMWMwN2U5NjhkODgM3ZWMyWWNjY2Y3ZUM5ANlg4ZDhjOGNkOQ|"}],"options":"MGDAxMDg4MmY4MDgxNmWU3ZjgxMmY0NzJmNzlYON2NINmU3MTJmOGE/H"},'__SVGATOR_PLAYER__',window,document)
]]></script>
</svg>
