<svg xmlns="http://www.w3.org/2000/svg" width="108.225" height="121.351" viewBox="0 0 108.225 121.351">
  <g id="Group_33" data-name="Group 33" transform="translate(-682.034 -1546.121)">
    <path id="Path_125" data-name="Path 125" d="M736.149,1613.12c17.37,0,34.74.026,52.109-.037,1.673-.006,2.072.533,1.991,2.084-.714,13.739-5.549,25.785-15.122,35.69a52.351,52.351,0,0,1-35.9,16.524c-16.464.884-30.49-4.692-41.977-16.4a51.783,51.783,0,0,1-14.874-31.832c-.14-1.374-.163-2.761-.317-4.134-.173-1.548.476-1.941,1.979-1.935,15.292.052,30.585.033,45.877.034Q733.033,1613.118,736.149,1613.12Z" fill="#231f20"/>
    <circle id="Ellipse_1" data-name="Ellipse 1" cx="12.147" cy="12.147" r="12.147" transform="translate(745.702 1574.937)" fill="#231f20"/>
    <circle id="Ellipse_2" data-name="Ellipse 2" cx="12.147" cy="12.147" r="12.147" transform="translate(723.999 1546.121)" fill="#231f20"/>
    <circle id="Ellipse_3" data-name="Ellipse 3" cx="12.147" cy="12.147" r="12.147" transform="translate(702.296 1574.937)" fill="#231f20"/>
  </g>
</svg>
