<svg xmlns="http://www.w3.org/2000/svg" width="167.837" height="214.443" viewBox="0 0 167.837 214.443">
  <g id="Group_182" data-name="Group 182" transform="translate(-104.839 -766.752)">
    <g id="Group_107" data-name="Group 107" transform="translate(-1386)">
      <path id="Path_2436" data-name="Path 2436" d="M1574.164,896.184c26.838-3.963,53.681-7.892,80.5-11.956,2.583-.392,3.323.35,3.552,2.764,2.035,21.391-2.685,41.107-15.214,58.6-12.793,17.859-30.011,29.326-51.691,33.728-25.236,5.125-48.181-.286-68.6-15.746a80.882,80.882,0,0,1-30.251-45.786c-.531-2.092-.884-4.229-1.435-6.315-.621-2.352.293-3.107,2.616-3.443,23.64-3.411,47.263-6.933,70.89-10.424Q1569.349,896.893,1574.164,896.184Z" fill="#010102"/>
    </g>
    <g id="Group_108" data-name="Group 108" transform="translate(-1386)">
      <path id="Path_2437" data-name="Path 2437" d="M1579.6,835.451c23.959.272,47.918.575,71.879.758,2.307.018,2.849.768,2.714,2.905-1.2,18.94-8.055,35.481-21.414,49-13.64,13.8-30.252,21.408-49.774,22.236-22.724.963-41.984-6.946-57.647-23.268a71.444,71.444,0,0,1-20.023-44.14c-.171-1.9-.182-3.812-.373-5.707-.215-2.138.687-2.67,2.76-2.64,21.093.31,42.187.521,63.281.76Q1575.307,835.4,1579.6,835.451Z" fill="#010102"/>
    </g>
    <g id="ePf3S7" transform="translate(-1386)">
      <g id="Group_112" data-name="Group 112">
        <path id="Path_2452" data-name="Path 2452" d="M1588.418,829.564c-4.157-.078-8.314-.2-12.471-.222-5.351-.028-10.7.006-16.054.051-3.048.026-6.094.127-9.141.192-.208.005-.417.009-.624,0a1.69,1.69,0,0,1-1.73-1.712,19.291,19.291,0,0,1,1-7.258,29.58,29.58,0,0,1,4.793-8.865,29.944,29.944,0,0,1,10.434-8.478,30.79,30.79,0,0,1,9.662-2.892,33.3,33.3,0,0,1,8.032-.034,31.651,31.651,0,0,1,10.52,3.063,31.031,31.031,0,0,1,7.881,5.613,33.75,33.75,0,0,1,6.535,8.737,28.693,28.693,0,0,1,2.764,7.862,3.721,3.721,0,0,1-3.99,4.384c-.759-.06-1.523-.046-2.285-.064q-6.936-.159-13.871-.319c-.485-.012-.968-.052-1.453-.079Z" fill="#f0ebd5"/>
        <path id="Path_2453" data-name="Path 2453" d="M1531.286,821.833a70.455,70.455,0,0,1-14.743-1.38,2.723,2.723,0,0,1-2.219-2.122,1.5,1.5,0,0,1,.61-1.464,2.766,2.766,0,0,1,2.145-.576c1.94.369,3.873.784,5.826,1.059,2.415.341,4.844.6,7.274.819,2.79.254,5.588.425,8.381.648a1.161,1.161,0,0,1,1.106.854c.024.439-.358.844-.945,1.037A23.755,23.755,0,0,1,1531.286,821.833Z" fill="#f0ebd5"/>
        <path id="Path_2454" data-name="Path 2454" d="M1632.16,825.744c-3.26-.266-6.524-.493-9.778-.819a22.917,22.917,0,0,1-3.185-.724,1.786,1.786,0,0,1-.642-.324.954.954,0,0,1,.269-1.747,12.3,12.3,0,0,1,2.905-.483c2.282-.056,4.569-.034,6.852.038,1.85.058,3.7.2,5.543.371a17.55,17.55,0,0,1,2.807.487,13.761,13.761,0,0,1,1.909.795,10.01,10.01,0,0,1,.985.441c.144.082.318.271.315.409,0,.123-.207.3-.358.354-.678.249-1.362.485-2.056.682a6.541,6.541,0,0,1-1.563.315c-1.331.037-2.663,0-3.995-.01Z" fill="#f0ebd5"/>
        <path id="Path_2455" data-name="Path 2455" d="M1617.342,807.377c-.248-.03-.44-.035-.624-.078-1.133-.262-1.494-1.249-.645-2.041a13.911,13.911,0,0,1,2.345-1.583c1.494-.9,3.009-1.774,4.514-2.66,1.908-1.122,3.8-2.276,5.732-3.353a19.108,19.108,0,0,1,2.028-.731c.714-.3,1.408-.643,2.1-.994.328-.168.638-.338.926.017.269.332.117.629-.108.935-.8,1.08-1.519,2.221-2.382,3.244a13.913,13.913,0,0,1-1.953,1.69,27.013,27.013,0,0,1-7.814,4.337c-1.071.394-2.162.731-3.251,1.073A5.713,5.713,0,0,1,1617.342,807.377Z" fill="#f0ebd5"/>
        <path id="Path_2456" data-name="Path 2456" d="M1606.464,779.446c-.078.51-.144,1.022-.237,1.53-.669,3.651-2.379,6.915-3.858,10.261-.8,1.818-1.728,3.584-2.609,5.368a1.454,1.454,0,0,1-1.234.978,1.241,1.241,0,0,1-1.318-1.553,25.324,25.324,0,0,1,.881-3.145c1.346-3.634,2.689-7.271,4.149-10.86a9.829,9.829,0,0,1,2.7-3.867,1.114,1.114,0,0,1,.914-.246c.243.1.4.5.515.8a2.2,2.2,0,0,1,.011.722Z" fill="#f0ebd5"/>
        <path id="Path_2457" data-name="Path 2457" d="M1571.136,787.245c-.129,1.272-.235,2.441-.373,3.606a4.711,4.711,0,0,1-.271,1.1,1.061,1.061,0,0,1-1.021.753.994.994,0,0,1-1.079-.728c-.277-1.192-.536-2.394-.7-3.6-.274-2.022-.454-4.057-.7-6.083-.209-1.716-.554-3.421-.656-5.141a15.732,15.732,0,0,1,.333-3.336c.1-.611.6-.748,1.024-.283a7.121,7.121,0,0,1,1.2,1.662,18.526,18.526,0,0,1,1.187,3.029,17.824,17.824,0,0,1,.5,2.96C1570.8,783.229,1570.958,785.281,1571.136,787.245Z" fill="#f0ebd5"/>
        <path id="Path_2458" data-name="Path 2458" d="M1549.128,799.654a6.1,6.1,0,0,1-.149,1.018c-.135.426-.38.456-.675.131a1.255,1.255,0,0,1-.21-.294,35.451,35.451,0,0,0-3.356-5.84c-1.123-1.537-2.306-3.029-3.448-4.552a20.965,20.965,0,0,1-2.969-5.1,4.265,4.265,0,0,1-.187-2.994c.227-.653.532-.739.983-.227a4.531,4.531,0,0,1,.817,1.132,41.427,41.427,0,0,0,5.48,8.548,24.7,24.7,0,0,1,3.109,5.082A9.918,9.918,0,0,1,1549.128,799.654Z" fill="#f0ebd5"/>
        <path id="Path_2459" data-name="Path 2459" d="M1614.226,792.373a7.07,7.07,0,0,1,.585-1.412c.942-1.364,1.9-2.72,2.94-4.013a29.1,29.1,0,0,1,2.662-2.9,12.573,12.573,0,0,1,2.146-1.522.97.97,0,0,1,.882-.043.994.994,0,0,1,.115.889,13.889,13.889,0,0,1-1.6,3.169,41.127,41.127,0,0,1-5.3,6.024,3.643,3.643,0,0,1-1.249.691C1614.77,793.482,1614.307,793.084,1614.226,792.373Z" fill="#f0ebd5"/>
        <path id="Path_2460" data-name="Path 2460" d="M1636,812.978c-.422-.067-.944-.109-1.444-.238a.956.956,0,0,1-.451-1.712,5.767,5.767,0,0,1,1.945-1.234c2.232-.675,4.5-1.239,6.768-1.783a1.642,1.642,0,0,1,1.822.809,1.432,1.432,0,0,1-.316,1.835,2.732,2.732,0,0,1-1.013.61c-2.278.582-4.568,1.118-6.855,1.666A4.228,4.228,0,0,1,1636,812.978Z" fill="#f0ebd5"/>
        <path id="Path_2461" data-name="Path 2461" d="M1553,776.124a8.958,8.958,0,0,1,.529-3.107.783.783,0,0,1,.509-.525.884.884,0,0,1,.628.4,10.751,10.751,0,0,1,1.7,5.161c.14,1.5.307,2.994.38,4.494a14.78,14.78,0,0,1-.179,2.222.853.853,0,0,1-.781.837.965.965,0,0,1-1.041-.668,24.086,24.086,0,0,1-1.567-6.907C1553.092,777.4,1553.059,776.759,1553,776.124Z" fill="#f0ebd5"/>
        <path id="Path_2462" data-name="Path 2462" d="M1585.83,773.881c.153-1.6.247-3.2.486-4.789a4.9,4.9,0,0,1,.8-1.831.919.919,0,0,1,1.695.12,5.616,5.616,0,0,1,.579,2.02,27.783,27.783,0,0,1-.466,6.865,7.034,7.034,0,0,1-.84,2.038c-.383.678-1.117.577-1.5-.117a4.967,4.967,0,0,1-.636-2.481c0-.6.007-1.21.011-1.816Z" fill="#f0ebd5"/>
        <path id="Path_2463" data-name="Path 2463" d="M1528.888,800.142c-.027.49-.26.7-.616.635a2.372,2.372,0,0,1-.991-.4q-2.112-1.629-4.174-3.323a32.535,32.535,0,0,1-4.424-4.988,3.162,3.162,0,0,1-.422-.521.5.5,0,0,1,.03-.455.575.575,0,0,1,.461-.075c.14.03.257.167.385.254,1.454.994,2.979,1.9,4.345,3a29.083,29.083,0,0,1,5.163,5.3A2.307,2.307,0,0,1,1528.888,800.142Z" fill="#f0ebd5"/>
        <path id="Path_2464" data-name="Path 2464" d="M1535.393,803.834a7.5,7.5,0,0,1,3.321.9c1.235.7,2.43,1.463,3.631,2.216a1.19,1.19,0,0,1,.69,1.078,1.038,1.038,0,0,1-1.444,1.048,47.493,47.493,0,0,1-4.939-2.4,5.924,5.924,0,0,1-2.191-2.311c-.172-.321-.106-.5.257-.532C1534.941,803.814,1535.167,803.833,1535.393,803.834Z" fill="#f0ebd5"/>
        <path id="Path_2465" data-name="Path 2465" d="M1584.722,790.109c0-.484.018-.969.007-1.453a5.572,5.572,0,0,1,1.168-3.316c.261-.381.574-.354.8.063a5.376,5.376,0,0,1,.819,3.213c-.2,1.594-.394,3.188-.609,4.779a.989.989,0,0,1-.791.973.964.964,0,0,1-1.211-.9c-.12-1.115-.185-2.236-.273-3.355Z" fill="#f0ebd5"/>
        <path id="Path_2466" data-name="Path 2466" d="M1622.269,815.622a.978.978,0,0,1-1.029-.686.929.929,0,0,1,.433-1.164,9.528,9.528,0,0,1,4.418-1.529,5.246,5.246,0,0,1,1.62.319.324.324,0,0,1,.175.568,4.7,4.7,0,0,1-1.744,1.544A15.4,15.4,0,0,1,1622.269,815.622Z" fill="#f0ebd5"/>
        <path id="Path_2467" data-name="Path 2467" d="M1558.248,791.877a.757.757,0,0,1,.676-1,.829.829,0,0,1,.615.116,4.391,4.391,0,0,1,1.478,3.662,1.334,1.334,0,0,1-.621.855c-.352.21-.728,0-1-.323A4.58,4.58,0,0,1,1558.248,791.877Z" fill="#f0ebd5"/>
        <path id="Path_2468" data-name="Path 2468" d="M1607.886,800.436a4.61,4.61,0,0,1,2.029-3.277c.287-.193.445-.015.425.263a4.061,4.061,0,0,1-.2,1.323,4.014,4.014,0,0,1-1.448,2.032,3.932,3.932,0,0,1-.641.252Z" fill="#f0ebd5"/>
      </g>
    </g>
  </g>
</svg>
