<svg xmlns="http://www.w3.org/2000/svg" width="180.895" height="224.912" viewBox="0 0 180.895 224.912">
  <g id="Group_181" data-name="Group 181" transform="translate(-91.492 -409.994)">
    <g id="Group_104" data-name="Group 104" transform="translate(-1386)">
      <path id="Path_2433" data-name="Path 2433" d="M1581.137,557.309c24.8,0,49.6.038,74.394-.052,2.388-.009,2.957.761,2.842,2.975-1.019,19.614-7.922,36.812-21.589,50.954-13.955,14.439-31.058,22.507-51.25,23.59-23.506,1.261-43.53-6.7-59.928-23.408a73.931,73.931,0,0,1-21.235-45.445c-.2-1.962-.234-3.942-.453-5.9-.248-2.21.68-2.771,2.825-2.763,21.832.075,43.664.047,65.5.048Q1576.687,557.306,1581.137,557.309Z" fill="#010102"/>
    </g>
    <g id="Group_106" data-name="Group 106" transform="translate(-1386)">
      <path id="Path_2435" data-name="Path 2435" d="M1583.135,502.677q31.245,10.154,62.506,20.256c2.009.645,2.277,1.447,1.576,3.275-6.208,16.2-16.7,28.761-32.04,36.911-15.662,8.321-32.23,10.431-49.488,5.831-20.089-5.354-34.738-17.505-43.953-36.016a65.3,65.3,0,0,1-5.437-43.969c.368-1.7.88-3.376,1.23-5.082.395-1.924,1.327-2.142,3.128-1.55q27.478,9.03,55.005,17.913Q1579.4,501.461,1583.135,502.677Z" fill="#010102"/>
    </g>
    <g id="Group_110" data-name="Group 110" transform="translate(-1386)">
      <path id="Path_2439" data-name="Path 2439" d="M1578.377,439.816q30.036-12.129,60.051-24.309c1.925-.786,2.636-.35,3.265,1.475,5.575,16.17,5.611,32.307-.811,48.184-6.558,16.211-17.736,28.3-33.686,35.765-18.568,8.686-37.332,8.79-56.023.648a64.387,64.387,0,0,1-31.97-29.767c-.8-1.52-1.475-3.108-2.291-4.619-.921-1.7-.355-2.458,1.38-3.152q26.478-10.591,52.9-21.325Q1574.785,441.264,1578.377,439.816Z" fill="#010102"/>
    </g>
    <g id="iDS9rn" transform="translate(-1386)">
      <g id="Group_111" data-name="Group 111">
        <path id="Path_2440" data-name="Path 2440" d="M1497,438.06q4.815,0,9.63,0c1.577,0,1.879-.171,2.325-1.681,1.5-5.087,2.882-10.212,4.49-15.265a52.053,52.053,0,0,1,2.847-6.5c.184-.385.857-.857,1.181-.779a2,2,0,0,1,1.183,1.089c.4.994.537,2.089.881,3.109,1.383,4.09,2.824,8.16,4.2,12.252.432,1.284.68,2.628,1.1,3.916a16.732,16.732,0,0,0,1.173,2.8c.591,1.088,1.1,1.177,2.307.818a70.483,70.483,0,0,1,8.438-2.371c3.852-.639,7.781-.814,11.678-1.177a2.559,2.559,0,0,1,.733.089c1.376.281,1.8,1.232.962,2.371-.948,1.293-1.988,2.518-3,3.762a49.934,49.934,0,0,1-8.11,7.691,51.241,51.241,0,0,0-4.477,4.135,3.712,3.712,0,0,0-.941,3.416c.364,2.406.5,4.846.842,7.257a31.183,31.183,0,0,0,.865,3.4,20.824,20.824,0,0,1,.7,2.855,33.191,33.191,0,0,0,2.238,9.224,3,3,0,0,1,.24,1.073c.025,1.3-.722,1.808-1.9,1.285a16.629,16.629,0,0,1-5.6-3.694,7.179,7.179,0,0,0-1.329-1.148q-5.137-3.3-10.309-6.548a4.178,4.178,0,0,0-5.262.179c-4.538,3.353-9.248,6.474-13.866,9.721-1.334.938-2.573,2.011-3.893,2.97a6.358,6.358,0,0,1-1.577.763,1.088,1.088,0,0,1-1.592-.782,5.106,5.106,0,0,1-.128-2.34,23.843,23.843,0,0,1,3.39-7.762,5.83,5.83,0,0,0,.824-1.546c1.234-3.747,2.418-7.511,3.642-11.262.6-1.829.1-3.141-1.344-4.492-2.312-2.168-4.334-4.644-6.5-6.967a44.628,44.628,0,0,0-3.571-3.627,40.066,40.066,0,0,0-4.064-2.848c-.485-.318-.99-.55-.871-1.247s.316-1.362,1.113-1.541a8.941,8.941,0,0,1,1.646-.213c3.238-.106,6.477-.19,9.716-.282Zm4.186,2.484-.007.2c-1.327,0-2.656-.039-3.982.009-1.972.072-3.943.2-5.913.326-.248.016-.679.186-.686.3a1.544,1.544,0,0,0,.311.792,3.659,3.659,0,0,0,.464.448c1.822,1.965,3.654,3.922,5.458,5.9,2.077,2.281,4.11,4.6,6.88,6.105a1.775,1.775,0,0,1,.714,2.679,16.16,16.16,0,0,0-.866,1.73c-1.13,3-2.185,6.028-3.35,9.014-1.368,3.506-2.828,6.975-4.223,10.47a3.381,3.381,0,0,0-.068,1.029,3.079,3.079,0,0,0,.889-.311c1.348-1.028,2.634-2.141,4.006-3.134q7.046-5.1,14.136-10.142c1.366-.975,2.448-.931,4.014.108,4.856,3.221,10,6.011,14.494,9.776a4.967,4.967,0,0,0,1.293.563,5.692,5.692,0,0,0,.028-1.4c-1.013-4.381-2.366-8.692-2.757-13.2-.223-2.578-.5-5.154-.61-7.736a3.668,3.668,0,0,1,1.137-3.113c1.57-1.346,3.175-2.656,4.683-4.068q4.219-3.954,8.323-8.028a4.409,4.409,0,0,0,.625-1.529,4.959,4.959,0,0,0-1.569-.47c-1.413.068-2.823.262-4.229.448a48.748,48.748,0,0,0-12.646,3.4c-1.667.7-2.378.476-3.108-1.192a45.634,45.634,0,0,1-2.3-6.23,94.662,94.662,0,0,0-4.672-13.542,3.954,3.954,0,0,0-.72-.848,3.7,3.7,0,0,0-.649.937q-1.3,4.386-2.538,8.793c-.758,2.7-1.505,5.4-2.213,8.111-.254.973-.3,2-.587,2.964a1.635,1.635,0,0,1-1.82,1.126Q1505.156,440.686,1501.185,440.544Z" fill="#f0ebd5"/>
        <path id="Path_2441" data-name="Path 2441" d="M1504.407,424.946a1.35,1.35,0,0,1-1.091,1.378,1.2,1.2,0,0,1-1.487-.783c-.911-1.989-1.808-3.984-2.712-5.976-.712-1.572-1.437-3.138-2.135-4.716-.421-.951-.185-1.646.632-2,.736-.317,1.36-.047,1.766.843q2.421,5.3,4.807,10.608A6.513,6.513,0,0,1,1504.407,424.946Z" fill="#f0ebd5"/>
        <path id="Path_2442" data-name="Path 2442" d="M1560.555,461.779c.008,1.326-.785,1.939-1.74,1.584q-4.935-1.834-9.843-3.739a1.289,1.289,0,0,1-.823-1.784,1.226,1.226,0,0,1,1.739-.7c3.257,1.224,6.514,2.448,9.745,3.735C1560.069,461.052,1560.362,461.582,1560.555,461.779Z" fill="#f0ebd5"/>
        <path id="Path_2443" data-name="Path 2443" d="M1540.249,411.02c-.137.448-.185.659-.265.856-1.176,2.883-2.33,5.776-3.564,8.633a2.036,2.036,0,0,1-1.156,1.034,1.21,1.21,0,0,1-1.4-1.658c1.2-3.04,2.45-6.058,3.707-9.075a1.178,1.178,0,0,1,1.6-.717A4.184,4.184,0,0,1,1540.249,411.02Z" fill="#f0ebd5"/>
        <path id="Path_2444" data-name="Path 2444" d="M1480.367,474.979c-.408-.38-.973-.675-1.116-1.11a1.522,1.522,0,0,1,.4-1.347c2.318-1.784,4.69-3.5,7.068-5.2a1.319,1.319,0,0,1,1.937.354,1.239,1.239,0,0,1-.452,1.824q-3.309,2.441-6.64,4.851A10.35,10.35,0,0,1,1480.367,474.979Z" fill="#f0ebd5"/>
        <path id="Path_2445" data-name="Path 2445" d="M1517.677,482.235c-.461,2.809-.918,5.694-1.417,8.572a1.358,1.358,0,0,1-1.627,1.136c-.771-.137-1.112-.687-.968-1.59q.633-3.963,1.279-7.923c.188-1.142.678-1.627,1.548-1.6A1.171,1.171,0,0,1,1517.677,482.235Z" fill="#f0ebd5"/>
        <path id="Path_2446" data-name="Path 2446" d="M1560.151,415.255a7.717,7.717,0,0,1-.465,1.025q-2.212,3.25-4.453,6.482a1.314,1.314,0,0,1-1.969.5c-.69-.485-.779-1.18-.207-2.021,1.476-2.167,2.969-4.321,4.454-6.481.391-.569.939-.908,1.575-.573A4.914,4.914,0,0,1,1560.151,415.255Z" fill="#f0ebd5"/>
        <path id="Path_2447" data-name="Path 2447" d="M1486.1,453.677c-2.421-.228-4.843-.44-7.261-.694a1.305,1.305,0,0,1-1.339-1.436,1.337,1.337,0,0,1,1.648-1.2c2.391.22,4.781.442,7.17.681a1.309,1.309,0,0,1,1.336,1.443C1487.583,453.264,1487.017,453.7,1486.1,453.677Z" fill="#f0ebd5"/>
        <path id="Path_2448" data-name="Path 2448" d="M1556.5,475.867c-.364.387-.652.96-1.042,1.04a1.992,1.992,0,0,1-1.559-.368c-1.228-1.163-2.339-2.451-3.495-3.691-.526-.563-1.059-1.119-1.58-1.687a1.192,1.192,0,0,1-.024-1.807,1.293,1.293,0,0,1,1.9-.031c.9.886,1.744,1.829,2.61,2.75.844.9,1.7,1.789,2.519,2.707A7.874,7.874,0,0,1,1556.5,475.867Z" fill="#f0ebd5"/>
        <path id="Path_2449" data-name="Path 2449" d="M1490.817,430.306c-.351.492-.561,1.063-.956,1.257a1.486,1.486,0,0,1-1.314-.211c-1.87-1.563-3.69-3.187-5.5-4.819a1.4,1.4,0,0,1-.144-2.123c.559-.6,1.094-.548,1.922.18,1.692,1.487,3.393,2.965,5.063,4.477A8.531,8.531,0,0,1,1490.817,430.306Z" fill="#f0ebd5"/>
        <path id="Path_2450" data-name="Path 2450" d="M1560.516,436.432a6.708,6.708,0,0,0,5.041-1.7c.837-.714,1.454-.739,2-.12.6.682.508,1.452-.31,2.166a9.4,9.4,0,0,1-7.153,2.4,1.959,1.959,0,0,1-1.344-.877,1.49,1.49,0,0,1,.267-1.391C1559.354,436.586,1560,436.579,1560.516,436.432Z" fill="#f0ebd5"/>
        <path id="Path_2451" data-name="Path 2451" d="M1535.867,492.829a1.383,1.383,0,0,1-1.285,1.509,1.173,1.173,0,0,1-1.343-1.1c-.356-2.4-.709-4.806-1.032-7.213a1.3,1.3,0,0,1,1.177-1.493,1.128,1.128,0,0,1,1.4,1C1535.173,487.988,1535.519,490.454,1535.867,492.829Z" fill="#f0ebd5"/>
      </g>
    </g>
  </g>
</svg>
