<svg xmlns="http://www.w3.org/2000/svg" width="26.84" height="26.84" viewBox="0 0 26.84 26.84">
  <g id="Group_337" data-name="Group 337" transform="translate(-279.143 -209.354)">
    <path id="Rectangle_25" d="M1705.473,5599.442l20.064-.087a3.344,3.344,0,0,1,3.359,3.33l.087,20.064a3.344,3.344,0,0,1-3.329,3.359l-20.064.087a3.344,3.344,0,0,1-3.359-3.33l-.087-20.064A3.344,3.344,0,0,1,1705.473,5599.442Z" transform="translate(-1423 -5390)" fill="#fff"/>
    <path id="Shape" d="M1715.893,5618.793a5.685,5.685,0,0,1-.714-11.325,5.77,5.77,0,0,1,.727-.046,5.686,5.686,0,0,1-.013,11.372Zm-.009-9a.475.475,0,0,0-.471.477l.013,3.079a.467.467,0,0,0,.141.334l2.379,2.359a.473.473,0,0,0,.668,0,.472.472,0,0,0,0-.67l-2.238-2.221-.014-2.883a.474.474,0,0,0-.475-.472Z" transform="translate(-1423 -5390)"/>
  </g>
</svg>
