<svg xmlns="http://www.w3.org/2000/svg" width="18.059" height="18.057" viewBox="0 0 18.059 18.057">
  <g id="Group_332" data-name="Group 332" transform="translate(-35.635 -387.605)">
    <g id="Group_331" data-name="Group 331">
      <g id="Group_330" data-name="Group 330">
        <path id="Shape-4" d="M51.748,4891.662H37.581a1.953,1.953,0,0,1-1.946-1.946V4879.2H53.694v10.52A1.951,1.951,0,0,1,51.748,4891.662Zm-13.333-3.893a.528.528,0,0,0-.457.258.53.53,0,0,0,.457.8H50.9a.529.529,0,0,0,0-1.057H38.414Zm.017-2.266a.528.528,0,1,0,0,1.056H50.9a.528.528,0,1,0,0-1.056Zm0-4.531a.529.529,0,0,0-.529.528v2.268a.53.53,0,0,0,.529.529H40.7a.53.53,0,0,0,.529-.529V4881.5a.529.529,0,0,0-.529-.528Zm4.535,2.262a.529.529,0,1,0,0,1.057H50.9a.529.529,0,0,0,0-1.057Zm0-2.265a.528.528,0,1,0,0,1.056H50.9a.528.528,0,1,0,0-1.056Z" transform="translate(0 -4486)"/>
        <path id="Shape-5" d="M53.693,4878.139H35.636v-2.588a1.951,1.951,0,0,1,1.945-1.945H51.748a1.95,1.95,0,0,1,1.945,1.944v2.587h0Zm-13-2.266a.529.529,0,1,0,0,1.058h7.933a.529.529,0,1,0,0-1.058Z" transform="translate(0 -4486)"/>
      </g>
    </g>
  </g>
</svg>
