<svg xmlns="http://www.w3.org/2000/svg" width="18.058" height="18.058" viewBox="0 0 18.058 18.058">
  <g id="Group_41" data-name="Group 41" transform="translate(-35.635 -4817.424)">
    <g id="Group_40" data-name="Group 40">
      <g id="Path-7">
        <g id="Group_36" data-name="Group 36">
          <rect id="Rectangle_11" data-name="Rectangle 11" width="8.277" height="6.02" rx="1.317" transform="translate(35.635 4817.424)"/>
        </g>
      </g>
      <g id="Path-8">
        <g id="Group_37" data-name="Group 37">
          <path id="Rectangle_12" data-name="Rectangle 12" d="M1.317,0H6.96A1.317,1.317,0,0,1,8.277,1.317v7.9A1.316,1.316,0,0,1,6.96,10.534H1.317A1.317,1.317,0,0,1,0,9.217v-7.9A1.317,1.317,0,0,1,1.317,0Z" transform="translate(35.635 4824.949)"/>
        </g>
      </g>
      <g id="Path-9">
        <g id="Group_38" data-name="Group 38">
          <path id="Rectangle_13" data-name="Rectangle 13" d="M1.317,0H6.96A1.317,1.317,0,0,1,8.277,1.317V4.7A1.317,1.317,0,0,1,6.96,6.02H1.316A1.316,1.316,0,0,1,0,4.7V1.317A1.317,1.317,0,0,1,1.317,0Z" transform="translate(45.417 4829.463)"/>
        </g>
      </g>
      <g id="Path-10">
        <g id="Group_39" data-name="Group 39">
          <path id="Rectangle_14" data-name="Rectangle 14" d="M1.317,0H6.96A1.317,1.317,0,0,1,8.277,1.317v7.9A1.316,1.316,0,0,1,6.96,10.534H1.316A1.316,1.316,0,0,1,0,9.217v-7.9A1.317,1.317,0,0,1,1.317,0Z" transform="translate(45.417 4817.424)"/>
        </g>
      </g>
    </g>
  </g>
</svg>
