<svg xmlns="http://www.w3.org/2000/svg" width="26.752" height="26.752" viewBox="0 0 26.752 26.752">
  <g id="Group_340" data-name="Group 340" transform="translate(-1017.256 -322.231)">
    <g id="Group_339" data-name="Group 339">
      <path id="Rectangle_27" d="M2443.6,4808.231h20.064a3.344,3.344,0,0,1,3.344,3.344v20.064a3.344,3.344,0,0,1-3.344,3.344H2443.6a3.344,3.344,0,0,1-3.344-3.344v-20.064A3.344,3.344,0,0,1,2443.6,4808.231Z" transform="translate(-1423 -4486)" fill="#fab017"/>
      <path id="Shape" d="M2449.772,4826.95v-2.192a1.5,1.5,0,0,1-1.49-1.5v-4.828a1.5,1.5,0,0,1,1.5-1.5h7.89a1.5,1.5,0,0,1,1.5,1.5v4.828a1.5,1.5,0,0,1-1.5,1.5h-4.748l-3.147,2.191Zm1.422-5.039v.638h5.057v-.638Zm0-1.361v.639h5.057v-.639Zm0-1.359v.637h5.057v-.637Z" transform="translate(-1423 -4486)" fill="#fff"/>
    </g>
  </g>
</svg>
