<svg xmlns="http://www.w3.org/2000/svg" width="144.987" height="139.023" viewBox="0 0 144.987 139.023">
  <g id="Group_64" data-name="Group 64" transform="translate(-1091.013 -554.481)">
    <path id="Path_6" data-name="Path 6" d="M1163.511,2780.69c23.27,0,46.539.035,69.809-.049,2.241-.008,2.775.714,2.667,2.791-.956,18.406-7.434,34.543-20.259,47.814-13.095,13.549-29.143,21.12-48.092,22.136-22.056,1.184-40.846-6.285-56.234-21.965a69.381,69.381,0,0,1-19.927-42.644c-.187-1.842-.219-3.7-.425-5.539-.232-2.073.638-2.6,2.652-2.593,20.486.071,40.973.045,61.46.046Q1159.336,2780.687,1163.511,2780.69Z" transform="translate(0 -2160)" fill="#ed242a"/>
    <path id="Path_9" data-name="Path 9" d="M1163.985,2810.567v-83.3" transform="translate(0 -2160)" fill="none" stroke="#000" stroke-miterlimit="10" stroke-width="0.83"/>
    <path id="Path_10" data-name="Path 10" d="M1175.962,2802.873q6.961-24.411,11.748-49.372" transform="translate(0 -2160)" fill="none" stroke="#000" stroke-miterlimit="10" stroke-width="0.83"/>
    <path id="Path_11" data-name="Path 11" d="M1144.777,2835a303.913,303.913,0,0,1-29.092-73.732" transform="translate(0 -2160)" fill="none" stroke="#000" stroke-miterlimit="10" stroke-width="0.83"/>
    <path id="Path_12" data-name="Path 12" d="M1183.424,2824.663a109.861,109.861,0,0,1,11.319-17.328" transform="translate(0 -2160)" fill="none" stroke="#000" stroke-miterlimit="10" stroke-width="0.83"/>
  </g>
</svg>
