<svg xmlns="http://www.w3.org/2000/svg" width="1042.798" height="229.841" viewBox="0 0 1042.798 229.841">
  <g id="Group_329" data-name="Group 329" transform="translate(-0.789 -200.203)">
    <g id="Group_17" data-name="Group 17" transform="translate(-5349 -3033)">
      <path id="Path_163" data-name="Path 163" d="M5541.408,3462.922c3.544-15.674.117-30.88-3.572-45.933-3.137-12.8-8.939-23.864-21.625-30.337-9.512-4.852-18.458-4.508-27.7-.018-1.889.918-3.824,1.742-6.547,2.976-.776-2.392-1.419-4.287-2.006-6.2-2.12-6.893-3.739-13.989-6.453-20.639-3.272-8.019-12.595-12.716-20.877-11.062-17.44,3.482-34.552,8.117-49.188,18.772-10.444,7.6-17.642,17.065-15.453,31.314.283,1.846-2.632,5.28-4.814,6.2-6.12,2.572-12.863,3.685-18.935,6.343-9.1,3.986-14.3,11.519-14.44,21.447-.13,9.037,1,18.092,1.572,27.138Z" fill="#6b9c5b"/>
      <path id="Path_164" data-name="Path 164" d="M5878,3462.922c-1.662-38.479-20.175-68.3-48.684-92.435a487.479,487.479,0,0,0-41.872-31.209c-18.837-12.754-59.988-20.876-81.406-16.613,2.43,5.769,4.335,11.576,7.2,16.861,9.836,18.135,20.077,36.051,30.036,54.12,17.23,31.258,44.387,50.048,77.306,61.474,8.784,3.048,17.871,5.225,26.82,7.8Z" fill="#6b9c5b"/>
      <path id="Path_165" data-name="Path 165" d="M5671.858,3462.922c-2.363-14.617-13.013-23.522-22.993-32.7-6.469-5.95-13.532-11.285-20.557-16.593-13.992-10.571-22.343-11.826-36.354-1.648-16.863,12.25-27.455,28.861-26.389,50.944Z" fill="#f9b031"/>
      <path id="Path_166" data-name="Path 166" d="M5758.824,3462.922c-15.279-17.888-30.457-35.862-45.9-53.61a214.812,214.812,0,0,0-15.386-15.329c-1.391-1.3-3.529-1.81-5.324-2.682-.484,2.148-1.646,4.4-1.347,6.431,3.192,21.749,6.616,43.465,9.976,65.19Z" fill="#f9b031"/>
    </g>
    <g id="Group_27" data-name="Group 27" transform="translate(-5349 -3033)">
      <path id="Path_174" data-name="Path 174" d="M6343.84,3261.283l-.094-5.066a30.368,30.368,0,0,0-4.665.427,2.555,2.555,0,0,1-2.524-.528c-.154-2.141.582-3.949.664-6.041a14.115,14.115,0,0,1-1.821-1.244c.126-2.519,3.31-5.805,4.263-8.445.739-2.047.624-4.974.806-7.17l11.682-.013a6.644,6.644,0,0,1,4.767,2.113c2.64,3.142,1.367,9.212,1.017,12.97a31.187,31.187,0,0,0-3.576,2.879c-.208,2.734-.67,6.165.377,8.733l.116.26Z" fill="#f0ebd5"/>
      <g id="Group_26" data-name="Group 26">
        <path id="Path_175" data-name="Path 175" d="M6362.381,3292.719l17.259,9.585L6361,3329.556l-6.775,10.124,7.56-46.766Z" fill="#020202"/>
        <path id="Path_176" data-name="Path 176" d="M6258.669,3269.508a49.006,49.006,0,0,0,6.023,4.022l10.515,6.774,35.205,22.647L6328,3291.164l-1.406,72.82-.42,96.908-7.908,1.376c-.863.157-2.073.182-2.741.776l12.988-.035.488-1.036,5.805-66.2L6373.4,3452l-10.817,10.461.119.527,2.04-1.583,12.469-7.445a37.075,37.075,0,0,0-2.367-5.218l-4.42-9.344-19.948-40.7-3.782-7.629a17.71,17.71,0,0,1-1.751-3.958c-.226-1.355.733-4.482.976-5.969l3.818-21.545c.481-2.923.6-6.605,1.547-9.355.614-1.783,2.987-3.9,4.238-5.311l8.97-10.275,28.1-32.953c-2.481-3.349-5.825-6.383-8.63-9.49l-20.9-23.007-5.161-5.7a9.17,9.17,0,0,0-2.82-2.58l-13.408,13.644,1.461-11.238-.426-.462-32.333,31.363-33.331-16.373C6271.018,3274.994,6264.967,3271.705,6258.669,3269.508Zm95.553,70.172,7.559-46.766.6-.194,17.26,9.585L6361,3329.556Z" fill="#f0ebd5"/>
      </g>
    </g>
  </g>
</svg>
