<svg xmlns="http://www.w3.org/2000/svg" width="327.234" height="274.048" viewBox="0 0 327.234 274.048">
  <g id="Group_63" data-name="Group 63" transform="translate(-1442 -18.952)">
    <path id="Path_122" data-name="Path 122" d="M1578.819,1270.625c1.5-.611,2.3-2.249,2.776-5.62.827-5.885.489-16.442-1.965-29.239l.06-.012a2.8,2.8,0,0,0-.163-.49c-5.108-26.176-19.173-61.65-51.059-86.759-43.4-34.173-82.854-27.9-84.51-27.624l-1.958.335.019,1.985c.019,2.109.826,52.1,31.12,90C1503.038,1250.593,1572.748,1273.1,1578.819,1270.625Zm-82.274-41.422c.427-2.58,1.674-9.244,4.727-20.389a108.882,108.882,0,0,1,10.643-24.7c.552.54,1.107,1.082,1.642,1.612,3.347,3.321,6.676,6.916,9.969,10.626l-14.595,41.465C1504.683,1235.124,1500.524,1232.253,1496.545,1229.2Zm-1.521-94.8c-1.741,1.163-4.156,2.784-7.415,5.279a53.891,53.891,0,0,0-8.889,8.553c-4.957-4.175-9.715-8.118-14-11.632l11.713-8.718a118.42,118.42,0,0,1,18.942,6.281Zm-34.025-.841c-4.277-3.484-7.919-6.414-10.56-8.523a96.682,96.682,0,0,1,19.9,1.57Zm-2.851,3.692-6.926,17.842a176.923,176.923,0,0,1-4.265-26.871C1449.641,1130.369,1453.512,1133.479,1458.148,1137.256Zm3.8,3.1c4.191,3.437,8.823,7.276,13.648,11.339a61.6,61.6,0,0,0-11.006,14.542,65.9,65.9,0,0,0-3.887,9.514c-.526,1.6-.974,3.124-1.358,4.521a158.378,158.378,0,0,1-6.1-17.486Zm20.337,10.89a49.471,49.471,0,0,1,8.162-7.864c3.152-2.415,5.49-3.981,7.176-5.109,1.132-.76,2-1.346,2.688-1.9a131.9,131.9,0,0,1,18.915,11.072,47.819,47.819,0,0,0-15.408,2.42c-7.572,2.644-11.324,6.117-13.15,8.573C1487.86,1156.01,1485.053,1153.6,1482.281,1151.249Zm11.933,10.29c1.169-1.691,4.117-4.814,11.134-7.264,8.806-3.073,18.308-2.057,20.7-1.728a129.008,129.008,0,0,1,18.059,17.5,85,85,0,0,0-16,1.841,67.466,67.466,0,0,0-16.292,5.642C1506.411,1172.393,1500.379,1166.945,1494.214,1161.539Zm48.72,26.87a36.527,36.527,0,0,0-16.272,4.422c-3.241-3.64-6.524-7.144-9.818-10.414-.478-.474-.976-.959-1.468-1.44a66.369,66.369,0,0,1,13.731-4.542,84.022,84.022,0,0,1,18.77-1.737,135.3,135.3,0,0,1,10.173,15.136A88.735,88.735,0,0,0,1542.934,1188.409Zm-15.887,11.984c4.022,4.7,7.943,9.561,11.723,14.46-.476,2.454-1.809,9.12-3.7,16.821-1.558,6.354-3.3,13.766-4.34,18.246-5.85-2.845-11.843-6.05-17.741-9.594Zm43.374,17.33a151.956,151.956,0,0,1,3.977,14.676c-1.019-.3-2.187-.628-3.607-1.02-2.714-.753-5.792-1.606-8.155-2.473a26.194,26.194,0,0,0-8.98-1.807c-2.565-3.6-5.252-7.281-8.043-10.986,3.236-.294,7.911-.622,12.224-.571A43.319,43.319,0,0,1,1570.421,1217.723Zm-9.392,15.562c2.541.931,5.717,1.811,8.519,2.587,2.126.587,4.856,1.351,5.9,1.8,2,11.138,2.267,20.116,1.8,25.12-3.668-6.005-10.833-17.436-20.006-30.608A26.876,26.876,0,0,1,1561.029,1233.285Zm-11.045-3.291-6.626,25.642q-4.052-1.705-8.314-3.673c1-4.3,2.881-12.356,4.555-19.176,1.242-5.058,2.246-9.68,2.934-13.006Q1546.414,1224.956,1549.984,1229.994Zm-2.273,27.431,5.795-22.432c9.41,13.525,16.654,25.125,20.121,30.825C1568.514,1264.794,1559.058,1261.959,1547.711,1257.425Zm27.664-20.166a1.8,1.8,0,0,1-.259-.593l.144-.028C1575.3,1236.846,1575.337,1237.052,1575.375,1237.259Zm-6.814-24.929a46.722,46.722,0,0,0-10.665-1.446,138.332,138.332,0,0,0-15.61.872c-4.005-5.186-8.182-10.347-12.455-15.306a31.664,31.664,0,0,1,13.183-3.377c6.581-.12,15.255,1.5,17.936,2.032A146.292,146.292,0,0,1,1568.561,1212.33Zm-106.106-25.13c.556-2.653,2.617-11.733,6.273-18.823a57.994,57.994,0,0,1,10.441-13.654c2.843,2.413,5.722,4.881,8.6,7.376-2.319,2.485-5.978,7.661-9.353,17.935-.15.458-.3.931-.451,1.409a138.925,138.925,0,0,0-4.741,24.054A123.878,123.878,0,0,1,1462.455,1187.2Zm14.9,23.774c.3-3.579,1.607-17.081,5.054-28.145,3.388-10.913,7.034-15.752,8.865-17.664,6.021,5.282,11.9,10.6,17.179,15.614a117.053,117.053,0,0,0-10.421,22.621c-.448,1.367-.871,2.766-1.261,4.185-2.41,8.8-3.7,14.773-4.376,18.329A109.355,109.355,0,0,1,1477.359,1210.974Z" transform="translate(0 -1080)"/>
    <path id="Path_123" data-name="Path 123" d="M1693.631,1209.088c.628.836,1.785,1.07,3.971.813,3.818-.449,10.366-2.4,17.969-6.032l.017.035a1.88,1.88,0,0,0,.28-.182c15.536-7.5,35.416-22.123,45.886-46.2,14.249-32.761,3.844-56.415,3.4-57.405l-.531-1.17-1.239.338c-1.316.359-32.456,9.076-51.189,34.254C1693.713,1158.39,1691.087,1205.7,1693.631,1209.088Zm12.4-58.274c1.684-.157,6.058-.471,13.532-.392a70.407,70.407,0,0,1,17.2,2.6c-.247.434-.5.87-.739,1.291-1.528,2.64-3.23,5.313-5.01,7.983l-28.337-2.319C1703.66,1156.878,1704.772,1153.805,1706.027,1150.814Zm59.053-16.525c-1.013-.9-2.425-2.142-4.521-3.771a34.8,34.8,0,0,0-6.81-4.156c1.8-3.786,3.482-7.411,4.976-10.669l7.378,5.9a76.571,76.571,0,0,1-.817,12.881Zm-5.064-21.423c1.477-3.248,2.712-6.008,3.6-8.006a62.519,62.519,0,0,1,2.287,12.707Zm-2.777-1.177-12.3-1.4a114.5,114.5,0,0,1,16.109-7.082C1760.149,1105.236,1758.84,1108.169,1757.239,1111.689Zm-1.318,2.885c-1.462,3.186-3.1,6.714-4.851,10.4a39.879,39.879,0,0,0-10.9-4.5,42.81,42.81,0,0,0-6.591-.869c-1.087-.066-2.114-.1-3.051-.107a102.726,102.726,0,0,1,9.936-6.69Zm-3.472,14.511a32.03,32.03,0,0,1,6.261,3.813c2.028,1.576,3.392,2.782,4.375,3.651.661.583,1.171,1.032,1.629,1.37a85.193,85.193,0,0,1-3.82,13.651,30.854,30.854,0,0,0-4.045-9.241c-2.9-4.3-5.686-6.079-7.522-6.818C1750.388,1133.357,1751.432,1131.2,1752.449,1129.085Zm-4.476,9.155c1.25.453,3.688,1.785,6.373,5.772a31.045,31.045,0,0,1,4.481,12.663,83.427,83.427,0,0,1-7.981,14.172,54.934,54.934,0,0,0-3.78-9.708,43.641,43.641,0,0,0-6.206-9.265C1743.187,1147.653,1745.6,1142.985,1747.973,1138.24Zm-8.805,34.892a23.627,23.627,0,0,0-5.44-9.452c1.744-2.626,3.4-5.255,4.9-7.853.218-.377.439-.768.659-1.155a42.886,42.886,0,0,1,5.1,7.844,54.268,54.268,0,0,1,4.17,11.456,87.47,87.47,0,0,1-7.8,8.851A57.527,57.527,0,0,0,1739.168,1173.132Zm-10.107-7.969c-2.281,3.288-4.677,6.54-7.121,9.709-1.613.105-6,.367-11.129.45-4.232.069-9.154.2-12.127.283.818-4.128,1.838-8.4,3.086-12.675Zm-3.716,29.98a98.1,98.1,0,0,1-8.527,4.9c.021-.687.033-1.471.045-2.424.025-1.821.053-3.887.207-5.508a16.98,16.98,0,0,0-.344-5.914c1.83-2.2,3.692-4.481,5.551-6.836.715,1.976,1.688,4.846,2.365,7.553A28,28,0,0,1,1725.345,1195.143Zm-11.278-3.318c-.165,1.742-.194,3.873-.219,5.754-.018,1.426-.047,3.26-.159,3.986a65.539,65.539,0,0,1-15.419,5.252c3.154-3.282,9.128-9.642,15.862-17.544A17.408,17.408,0,0,1,1714.067,1191.825Zm.244-7.451-17.129.068q.4-2.816.932-5.8c2.851-.083,8.2-.228,12.744-.3,3.368-.053,6.424-.185,8.618-.3Q1716.877,1181.313,1714.311,1184.374Zm-17.533,3.085,14.984-.06c-6.914,8.109-12.981,14.546-15.977,17.651A108.6,108.6,0,0,1,1696.778,1187.459Zm17.16,13.993a1.167,1.167,0,0,1,.328-.259l.042.085Zm14.475-8.358a30.187,30.187,0,0,0-.847-6.91,89.424,89.424,0,0,0-3.11-9.622c2.586-3.357,5.128-6.818,7.529-10.305a20.478,20.478,0,0,1,4.278,7.692,63.122,63.122,0,0,1,1.676,11.553A94.716,94.716,0,0,1,1728.413,1193.094Zm-1.711-70.505a53.26,53.26,0,0,1,12.806.831,37.546,37.546,0,0,1,10.257,4.289c-1.042,2.174-2.114,4.381-3.2,6.589-1.935-1.043-5.774-2.481-12.756-2.9-.312-.019-.632-.036-.956-.051a89.871,89.871,0,0,0-15.826.985A80.124,80.124,0,0,1,1726.7,1122.589Zm-12.424,13.229a95.2,95.2,0,0,1,18.438-1.463c7.383.327,11.009,1.813,12.506,2.644-2.315,4.635-4.673,9.188-6.946,13.312a75.735,75.735,0,0,0-15.862-2.8c-.929-.056-1.874-.091-2.826-.1-5.9-.063-9.849.112-12.184.274A70.637,70.637,0,0,1,1714.278,1135.818Z" transform="translate(0 -1080)"/>
    <path id="Path_124" data-name="Path 124" d="M1632.631,1372.088c.628.836,1.785,1.07,3.971.813,3.818-.449,10.366-2.4,17.969-6.032l.017.035a1.88,1.88,0,0,0,.28-.182c15.536-7.5,35.416-22.123,45.886-46.2,14.249-32.761,3.844-56.415,3.4-57.405l-.531-1.17-1.239.338c-1.316.359-32.456,9.076-51.189,34.254C1632.713,1321.39,1630.087,1368.7,1632.631,1372.088Zm12.4-58.274c1.684-.157,6.058-.471,13.532-.392a70.407,70.407,0,0,1,17.2,2.6c-.247.434-.5.87-.739,1.291-1.528,2.64-3.23,5.313-5.01,7.983l-28.337-2.319C1642.66,1319.878,1643.772,1316.805,1645.027,1313.814Zm59.053-16.525c-1.013-.9-2.425-2.142-4.521-3.771a34.8,34.8,0,0,0-6.81-4.156c1.8-3.786,3.482-7.411,4.976-10.669l7.378,5.9a76.571,76.571,0,0,1-.817,12.881Zm-5.064-21.423c1.477-3.248,2.712-6.008,3.6-8.006a62.519,62.519,0,0,1,2.287,12.707Zm-2.777-1.177-12.3-1.4a114.5,114.5,0,0,1,16.109-7.082C1699.149,1268.236,1697.84,1271.169,1696.239,1274.689Zm-1.318,2.885c-1.462,3.186-3.1,6.714-4.851,10.4a39.879,39.879,0,0,0-10.9-4.5,42.81,42.81,0,0,0-6.591-.869c-1.087-.066-2.114-.1-3.051-.107a102.726,102.726,0,0,1,9.936-6.69Zm-3.472,14.511a32.03,32.03,0,0,1,6.261,3.813c2.028,1.576,3.392,2.782,4.375,3.651.661.583,1.171,1.032,1.629,1.37a85.193,85.193,0,0,1-3.82,13.651,30.854,30.854,0,0,0-4.045-9.241c-2.9-4.3-5.686-6.079-7.522-6.818C1689.388,1296.357,1690.432,1294.2,1691.449,1292.085Zm-4.476,9.155c1.25.453,3.688,1.785,6.373,5.772a31.045,31.045,0,0,1,4.481,12.663,83.427,83.427,0,0,1-7.981,14.172,54.934,54.934,0,0,0-3.78-9.708,43.641,43.641,0,0,0-6.206-9.265C1682.187,1310.653,1684.6,1305.985,1686.973,1301.24Zm-8.805,34.892a23.627,23.627,0,0,0-5.44-9.452c1.744-2.626,3.4-5.255,4.9-7.853.218-.377.439-.768.659-1.155a42.886,42.886,0,0,1,5.1,7.844,54.268,54.268,0,0,1,4.17,11.456,87.47,87.47,0,0,1-7.8,8.851A57.527,57.527,0,0,0,1678.168,1336.132Zm-10.107-7.969c-2.281,3.288-4.677,6.54-7.121,9.709-1.613.105-6,.367-11.129.45-4.232.069-9.154.2-12.127.283.818-4.128,1.838-8.4,3.086-12.675Zm-3.716,29.98a98.1,98.1,0,0,1-8.527,4.9c.021-.687.033-1.471.045-2.424.025-1.821.053-3.887.207-5.508a16.98,16.98,0,0,0-.344-5.914c1.83-2.2,3.692-4.481,5.551-6.836.715,1.976,1.688,4.846,2.365,7.553A28,28,0,0,1,1664.345,1358.143Zm-11.278-3.318c-.165,1.742-.194,3.873-.219,5.754-.018,1.426-.047,3.26-.159,3.986a65.539,65.539,0,0,1-15.419,5.252c3.154-3.282,9.128-9.642,15.862-17.544A17.408,17.408,0,0,1,1653.067,1354.825Zm.244-7.451-17.129.068q.4-2.816.932-5.8c2.851-.083,8.2-.228,12.744-.3,3.368-.053,6.424-.185,8.618-.3Q1655.877,1344.313,1653.311,1347.374Zm-17.533,3.085,14.984-.06c-6.914,8.109-12.981,14.546-15.977,17.651A108.6,108.6,0,0,1,1635.778,1350.459Zm17.16,13.993a1.167,1.167,0,0,1,.328-.259l.042.085Zm14.475-8.358a30.187,30.187,0,0,0-.847-6.91,89.424,89.424,0,0,0-3.11-9.622c2.586-3.357,5.128-6.818,7.529-10.305a20.478,20.478,0,0,1,4.278,7.692,63.122,63.122,0,0,1,1.676,11.553A94.716,94.716,0,0,1,1667.413,1356.094Zm-1.711-70.505a53.26,53.26,0,0,1,12.806.831,37.546,37.546,0,0,1,10.257,4.289c-1.042,2.174-2.114,4.381-3.2,6.589-1.935-1.043-5.774-2.481-12.756-2.9-.312-.019-.632-.036-.956-.051a89.871,89.871,0,0,0-15.826.985A80.124,80.124,0,0,1,1665.7,1285.589Zm-12.424,13.229a95.2,95.2,0,0,1,18.438-1.463c7.383.327,11.009,1.813,12.506,2.644-2.315,4.635-4.673,9.188-6.946,13.312a75.735,75.735,0,0,0-15.862-2.8c-.929-.056-1.874-.091-2.826-.1-5.9-.063-9.849.112-12.184.274A70.637,70.637,0,0,1,1653.278,1298.818Z" transform="translate(0 -1080)"/>
  </g>
</svg>
