<svg xmlns="http://www.w3.org/2000/svg" xmlns:xlink="http://www.w3.org/1999/xlink" width="1365" height="799" viewBox="0 0 1365 799">
  <defs>
    <clipPath id="clip-path">
      <rect id="Rectangle_12" data-name="Rectangle 12" width="1365" height="799" transform="translate(2773 2122)" fill="none"/>
    </clipPath>
  </defs>
  <g id="Group_27" data-name="Group 27" transform="translate(-2773 -2122)" clip-path="url(#clip-path)">
    <g id="Group_26" data-name="Group 26">
      <path id="Path_172" data-name="Path 172" d="M2772.4,2601.311c-.011-42.783-1.245-436.044.667-440.311H4136.2c1.226,2.736.68,7.113.68,10.147l.013,24.483.02,101.62-.047,410.252-.02,206.175c0,2.174.573,13.713-.626,14.763a2.541,2.541,0,0,1-.686.352H3328.906l-374.852.053-121.545-.015-38.649-.015c-6.405-.008-13.091.435-19.459-.023a5.067,5.067,0,0,1-2-.749Z" fill="#f8af31"/>
      <path id="Path_174" data-name="Path 174" d="M2757.485,2631.658c-.012-38.822-1.271-395.663.681-399.535l-.058,399.162Z" fill="#f2e9d2"/>
      <path id="Path_175" data-name="Path 175" d="M3919.411,2509.8a21.481,21.481,0,0,0,5.47,2.659l17.111-3.693c6.164-1.309,12.587-3.712,18.553-.26a4.737,4.737,0,0,1,1.4,1.252l-1.925,2.068c-3.219-.414-7.376-1.442-10.56-1.2-2.007.155-5.238,2.292-7.082,3.193-11.981,5.859-21.119,8.291-34.4,6.612Z" fill="#020202"/>
      <path id="Path_177" data-name="Path 177" d="M3864.587,2461.393c2.15,1.6,6.811,4.243,7.457,6.859a6.584,6.584,0,0,1-3.871,3.555c-1.966.8-5.708.143-7.715-.284l-.592-1.547A62.8,62.8,0,0,1,3864.587,2461.393Z" fill="#daa3c8"/>
      <path id="Path_188" data-name="Path 188" d="M3723.957,2610.166a43.7,43.7,0,0,1,6.443-5.618,41.208,41.208,0,0,0,3.994,3.638c-1.749,4.354-2.654,6.746-6.382,9.905C3726.617,2615.411,3725.093,2612.985,3723.957,2610.166Z" fill="#daa3c8"/>
      <path id="Path_189" data-name="Path 189" d="M3734.394,2608.186l6.055,4.529c-1.442,4.867-2.579,10.842-5.15,15.194l-1.157.531c-3.2-1.981-4.892-6.882-6.13-10.349C3731.74,2614.932,3732.645,2612.54,3734.394,2608.186Z" fill="#020202"/>
      <path id="Path_192" data-name="Path 192" d="M3661.133,2385.333c4.4-2.86,9.851-4.853,15.178-3.721a31.667,31.667,0,0,1,7.035,2.814,38.587,38.587,0,0,0-8.11,1.265,23.025,23.025,0,0,0-4.592,4.524c-3.2.868-6.987,2.373-10.273,2.517l-.293-.487a6.5,6.5,0,0,0-4.647-3.351l-.442-.078c-2.443.285-4.98.719-6.64,2.729a9.918,9.918,0,0,0-2.246,6.5,14.794,14.794,0,0,1,.041,2.849c-.809,2.122-8.606,3.563-10.566,3.81l-.36.044-.565-1.58c-1.048-3.84.034-11.13,2.259-14.4,1.558-2.288,7.3-3.67,9.974-4.363a31.706,31.706,0,0,1,8.266,4.034C3657.084,2387.949,3659.35,2386.315,3661.133,2385.333Z" fill="#020202"/>
      <path id="Path_208" data-name="Path 208" d="M3641.844,2608.04c2.572.023,4.933.11,6.954,1.727.061,2.356-.456,2.918-1.606,4.917a3.387,3.387,0,0,1-1.674.525l-4.259-5.44Z" fill="#f2e9d2"/>
      <path id="Path_209" data-name="Path 209" d="M3620.74,2583.7l.6-.009c1.722-1.547,4.259-1.989,6.443-2.609l2,3.369c-1.946,2.623-1.586,6.434-1.7,9.575l-9.252-8.555Z" fill="#daa3c8"/>
      <path id="Path_220" data-name="Path 220" d="M3416.389,2632.1c4.307-8.958,10.432-16.494,19.293-21.3,9.232-5,20.785-5.4,30.684-2.382a38.762,38.762,0,0,1,22.874,19.115c-13.424-6.848-25.609-9.358-40.366-4.54a49.578,49.578,0,0,0-17.926,10.348A58.508,58.508,0,0,0,3416.389,2632.1Z" fill="#f8af31"/>
      <path id="Path_228" data-name="Path 228" d="M3351.24,2900.268a2.692,2.692,0,0,1,2.2.352c.715,5.764.254,12.114.277,17.952l.116,33.79-111.552-.007h-34.35c-6.446-.007-13.15.4-19.546-.259l-1.82-3.347-9.519-18.8c22.913-7.529,46.809-12.118,70.54-16.257Z" fill="#f0ebd5"/>
      <g id="Group_181" data-name="Group 181">
        <path id="Path_173" data-name="Path 173" d="M3863.791,2455.062c4.049-3.266,7.43-6.219,13-5.594a14.814,14.814,0,0,1,10.063,5.574c1.7,2.238,3.075,6.273,2.653,9.13a3.936,3.936,0,0,1-1.279,2.564Z" fill="#daa3c8"/>
        <path id="Path_176" data-name="Path 176" d="M3864.587,2461.393l-18.628-10.931c5.913.791,12.077,2.975,17.832,4.6l24.439,11.674c-.619,2.529-1.667,3.136-3.517,4.917-1.817.465-2.817.021-4.45-.68-2.66,2.538-5.4,5.7-8.314,7.893l-8.232-2.272c.149-1.442.367-1.961-.307-3.276a5.5,5.5,0,0,1-2.612-1.351l-.34-.444-.592-1.547A62.8,62.8,0,0,1,3864.587,2461.393Z" fill="#020202"/>
        <path id="Path_178" data-name="Path 178" d="M3940.6,2606.8l20.54,9.859c2.728,1.188,8.933,3.006,10.831,5.113l-8.164,28.4c-.952-2.924-6.218-15.724-5.443-17.576.851-2.014,2.7-2.92,3.014-5.355l-.762-.467-2.857,2.552-38.8-10.243C3928.221,2616.778,3934.42,2614.435,3940.6,2606.8Z" fill="#020202"/>
        <path id="Path_179" data-name="Path 179" d="M3718.725,2429.529c3.518,1.056,8.158,2.921,11.784,2.95,3.034.024,7.232-1.781,10.205-2.636l20.085-5.722c1.666-.557,5.021-2.573,6.64-2.582,3.647-.02,7.933,1.593,11.777,1.809.537,1.562,1.993,2.091,2.367,3.062a15.341,15.341,0,0,1-.2,2.721c-3.293,1.664-9.171-1.622-12.8-1.241-2.13.224-7.1,3.731-9.4,4.931a161.061,161.061,0,0,1-24.023,10.678c-2.912.96-6.661,2.337-9.736,2.291-8.117-.122-16.962-2.9-25.051-4.108l-2.334-1.292,5.484-.386C3710.316,2438.9,3714.827,2434.861,3718.725,2429.529Z" fill="#020202"/>
        <path id="Path_180" data-name="Path 180" d="M3024.308,2486.83l1.9-12.373a18.663,18.663,0,0,1-7.935-7.472,22.085,22.085,0,0,0-1.639-3.226c-.591-.456-2.685-.352-3.438-.376-3.169-.1-7.031.161-9.925-1.287-.99-.495-.9-.888-1.2-1.9a15,15,0,0,1,3.435-3.024c7.938-5.2,18.179-8.832,27.3-11.271,2.366-.633,6.278-1.678,8.671-.968,1.168.347,1.226.868,1.687,1.883-.766,2.894-3.934,4.966-6.132,6.846l4.5,9.472c-.784,1.613-1.054,1.566-2.722,2.311.983.677,1.885.573,3.062.675l.351.767a10.353,10.353,0,0,0-3.1,1.361c1.12,2.054,1.8.841,3.421,2.381l-.053,2.381c-2.012,1.821-4.194,2.611-6.7,3.558l.363,8.187Z" fill="#020202"/>
        <path id="Path_181" data-name="Path 181" d="M3006.1,2509.8c-9.189,1.136-18.562,3.8-27.633,5.736-4.039.862-8.344,2.157-12.5,2.169-7.446.023-15.884-2.318-23.229-3.678-2.009-.372-4.979-1.4-6.886-1.286-2.624.16-8.523,4.616-10.954,6.1l4.867-8.156-17.079.462c5.721-3.063,12.707-6.975,19.25-7.659,6.72-.7,14.9,1.151,21.609,1.916,2.876.328,7.054,1.271,9.864.737,3.889-.74,8.033-2.919,11.713-4.385,9-3.584,17.947-7.475,27.141-10.518Z" fill="#020202"/>
        <path id="Path_182" data-name="Path 182" d="M3043.12,2482.922l15.765-.848.537,17.835,2,46.432-31.077,4.815c-4.98.851-10.351,1.47-15.208,2.835L3006.1,2509.8l-3.832-18.56,22.043-4.409,11.847-2.071A34.2,34.2,0,0,0,3043.12,2482.922Z" fill="#daa3c8"/>
        <path id="Path_183" data-name="Path 183" d="M3710.588,2383.692a37.968,37.968,0,0,1,6.259,2.621c5.559-2.469,10.954-4.162,17.009-1.931,4.729,1.745,7.784,4.737,10.832,8.665,1.388-.391,2.184-1.6,3.374-2.356a12.849,12.849,0,0,1,13.5-.493,11.767,11.767,0,0,1,6.048,7.639,11.484,11.484,0,0,1-1.511,9.095,13.129,13.129,0,0,1-8.538,5.827c-4.1.833-7.3-.625-10.716-2.789-3.442,6.376-6.728,11.119-14.09,13.273-4.293,1.254-7.45.87-11.743.1a41.119,41.119,0,0,0-2.286,6.181c-3.9,5.332-8.409,9.369-15.2,10.475l-5.484.386a155.734,155.734,0,0,1-27.486-5.994c-1.47-2.627.6-7.025-.626-10.336-2.048-5.535-12.675-3.723-17.39-6.205l-.449-.247c-1.177-3.065-.545-7.16-.415-10.411-1.007-1-2.81-3.269-4.1-3.584l-2.769,7.623c-3.776-2.245-7.437-2.257-9.593-6.486l.36-.044c1.96-.247,9.757-1.688,10.566-3.81a14.794,14.794,0,0,0-.041-2.849,9.918,9.918,0,0,1,2.246-6.5c1.66-2.01,4.2-2.444,6.64-2.729l.442.078a6.5,6.5,0,0,1,4.647,3.351l.293.487c3.286-.144,7.075-1.649,10.273-2.517a23.025,23.025,0,0,1,4.592-4.524,38.587,38.587,0,0,1,8.11-1.265,21.7,21.7,0,0,1,9.444,6.812c2.449-2.163,4-5.129,7.157-6.4l.388-.15C3703.71,2383.333,3707.03,2383.565,3710.588,2383.692Z" fill="#020202"/>
        <path id="Path_184" data-name="Path 184" d="M3839.7,2542.808l-8.743-3.053c-3.49-13.435-1.354-27.628,3.667-40.351l-20.193-2.494c-3.367-.423-7.341-.5-10.45-1.888-7.668-3.424-15.267-14.378-20.2-20.988l-5.089-7.415a16.549,16.549,0,0,0-1.633-2.595,17.358,17.358,0,0,0-2.987-.382c-2.619-.365-5.619-.728-7.953-2.051-1.572-.891-3-1.877-3.531-3.6,4.136.727,14.6.88,17.6,3.2,4.592,3.553,26.806,21.6,30.541,21.759,16.642.721,33.066-3.468,49.66-3.993a7.354,7.354,0,0,1,3.327-2.36l8.232,2.272,2.667,4.463,29.371,17.374c4.946,2.821,11.1,5.49,15.424,9.093l-11.43,10.635-29.746-15.709,9.192,45.853-.884.967-3.606-.674Z" fill="#020202"/>
        <path id="Path_185" data-name="Path 185" d="M3863.717,2476.594l8.232,2.272,2.667,4.463L3852.6,2496.9l7.791-17.941A7.354,7.354,0,0,1,3863.717,2476.594Z" fill="#daa3c8"/>
        <path id="Path_186" data-name="Path 186" d="M3941.713,2643.486c-.939,3.949-3.762,7.849-5.872,11.28a263.31,263.31,0,0,1-19.873,27.978c-43.3,6.679-87.133,9.182-130.833,11.615l-201.142,6.476-460.134-6.109-108.557-8.211c-8.339-1.048-17.785-1.486-25.838-3.842-7.686-8.865-15.217-18.259-21.1-28.431-1.791-3.095-3.951-6.381-4.716-9.9l-.109-.443c17.785,4.488,37.453,5.053,55.738,6.435l97.1,5.7,265.439,5.816,348.722-3.876,117.621-5.128C3879.14,2651.192,3911.376,2650.364,3941.713,2643.486Z" fill="#020202"/>
        <path id="Path_187" data-name="Path 187" d="M3043.12,2482.922a50.446,50.446,0,0,1,12.929-6.526c11.659-3.614,24.476-5.224,36.6-6.486,5.463-.568,11.4-.633,16.725-1.884a9.563,9.563,0,0,0,5.308-2.7,10.749,10.749,0,0,0,2.624-8.194c-.9-9.64-16.082-17.567-22.943-23.372-7.982-6.754-16.678-15.247-17.549-26.281a29.792,29.792,0,0,1,7.659-22.595c7.461-8.63,18.629-14.383,29.3-17.956,25.123-8.408,52.866-7.343,78.61-2.638,20.285,3.707,39.883,8.544,60.719,8.2,22.073-.37,44.226-4.483,66.039-7.619l44.721-4.579c.192-1.256-.661-2.871-1.072-4.089a30.569,30.569,0,0,1,1.487-24.137c8.564-16.878,27.849-26.911,45.107-32.552,37.306-12.192,83.244-9.383,118.309,8.57,16.6,8.5,31.46,19.6,37.407,37.995a55.833,55.833,0,0,1,7.9-3.311c35.378-12.842,81.622-12.179,115.913,3.856,9.307,4.354,20.39,11.921,23.907,22.112,1.973,5.715.3,9.88-2.238,14.957-3.558-.127-6.878-.359-10.253.992l-.388.15c-3.157,1.275-4.708,4.241-7.157,6.4a21.7,21.7,0,0,0-9.444-6.812,38.587,38.587,0,0,0-8.11,1.265,23.025,23.025,0,0,0-4.592,4.524c-3.2.868-6.987,2.373-10.273,2.517l-.293-.487a6.5,6.5,0,0,0-4.647-3.351l-.442-.078c-2.443.285-4.98.719-6.64,2.729a9.918,9.918,0,0,0-2.246,6.5,14.794,14.794,0,0,1,.041,2.849c-.809,2.122-8.606,3.563-10.566,3.81l-.36.044c2.156,4.229,5.817,4.241,9.593,6.486l2.769-7.623c1.286.315,3.089,2.586,4.1,3.584-.13,3.251-.762,7.346.415,10.411l.449.247c4.715,2.482,15.342.67,17.39,6.205,1.224,3.311-.844,7.709.626,10.336a155.734,155.734,0,0,0,27.486,5.994l2.334,1.292a39.725,39.725,0,0,1,17.73,24.162c2.313,9.749,1.027,20.87-4.4,29.369l-5.11,6.64c39.795,1.956,78.187,15.878,105.4,45.942l6.4,7.32c6.287-3.752,13.832-7.159,19.513-11.729l-.2-.578,43.237,8.06c.544,3.76,2.292,7.067,3.9,10.468,4.13,8.715,8.94,17.031,16.819,22.914,5.715,4.261,12.26,6.222,18.526,9.41,6.715,3.419,12.648,8.358,18.424,13.139-6.184,7.636-12.383,9.979-21.642,12.285l-.81-.328-35.093,20.9c10.022-.594,51.925-3.616,58.933.323l.7,1.423-.98,2.083c-30.337,6.878-62.573,7.706-93.556,9.364l-117.621,5.128-348.722,3.876-265.439-5.816-97.1-5.7c-18.285-1.382-37.953-1.947-55.738-6.435a9.814,9.814,0,0,1-1.014-2.16c3.6-6.066,21.759-10.09,28.367-11.979l-22.079-29.182c-3.1-4.11-9.67-11.008-10.484-15.989a10.36,10.36,0,0,1,2.189-8.28c4.63-6.457,13.145-10.158,20.363-12.884a191.738,191.738,0,0,1,34.257-9.438c4.857-1.365,10.228-1.984,15.208-2.835l31.077-4.815-2-46.432-.537-17.835Z" fill="#ed242a"/>
        <path id="Path_190" data-name="Path 190" d="M3222.284,2410.333c-3.672-.878-6.732-2.068-9.275-4.961l.415-1.27c6.758-2.688,22.4,2.907,28.8,5.654,2.922,1.254,6.122,2.375,7.983,5.087l-.208,1.267a9.141,9.141,0,0,1-6.4.37c-2.5-1.134-5.649-1.532-8.327-2.2A130.88,130.88,0,0,1,3222.284,2410.333Z" fill="#daa3c8"/>
        <path id="Path_191" data-name="Path 191" d="M3645.471,2605.018c5.953-4.856,12.022-7.4,19.8-6.716,7.389.654,13.852,4.978,18.377,10.7,1.939,2.45,2.735,5.543,3.6,8.5l-1.062-1.118C3674.236,2604.441,3661.146,2605.037,3645.471,2605.018Z" fill="#f8af31"/>
        <path id="Path_193" data-name="Path 193" d="M3464.087,2390.527c-5.076-2.667-9.444-5.221-13.444-9.441a84.4,84.4,0,0,1,17.689.993c3.177-3.593,5.96-7.386,11.172-7.733a6.944,6.944,0,0,1,5.116,1.872c2.517,2.43,3.123,5.537,3.742,8.843a17.846,17.846,0,0,0,.728,3.538,30.678,30.678,0,0,0,3.307,1.093c3.19,1.127,9.021,3.584,10.5,6.782-1.667,1.722-3.864,1.462-6.2,1.475-1.837.011-4.769-.614-6.436-.068a28.308,28.308,0,0,1-4.783-1.626c-3.191,2.675-7.872,5.764-12.26,5.37-4.211-.377-6.7-2.269-9.287-5.46Z" fill="#daa3c8"/>
        <path id="Path_194" data-name="Path 194" d="M3372.826,2496.414c5.248,4.663,12,9.432,16.562,14.611l-24.4,34.6c.973,4.691.471,9.461.211,14.207-10.142-3.431-21.506-6.548-31.06-11.353,7.146-1.657,15.263-1.467,22.621-1.957,2.241-5.155,3.627-10.863,5.371-16.215Z" fill="#020202"/>
        <path id="Path_195" data-name="Path 195" d="M3619.427,2435.517c-8.974-.989-19.4-.866-27.82-4.45-8.056-3.427-15.6-12.588-21.017-19.208-2.088-2.556-5.572-8.664-8.069-10.344a16.168,16.168,0,0,0-3.361-.744c-3.191-.721-6.688-1.289-9.566-2.87-1.905-1.046-3.5-2.045-4.109-4.149,2.211-1.454,5.987.5,8.525,1.173,3.844,1.025,8.4,1.154,12.036,2.669,9.933,4.14,17.1,15.768,26.84,20.389,8.94,4.24,23.84,3.918,33.562,3.387l1.782.617c-1.966,4.365-2.66,8.355-3.51,13.027Z" fill="#020202"/>
        <path id="Path_196" data-name="Path 196" d="M3663.772,2562.635c1.728-.89,4.266-1.182,6.185-1.614a92.183,92.183,0,0,1,18.866-2.25l.429.46c4.5,4.658,11.716,5.316,16.546,10.086,3.518,3.471,6.151,8.1,8.872,12.215,5.123,7.73,10.056,15.678,15.73,23.016a43.7,43.7,0,0,0-6.443,5.618c-4.613-4.5-10.226-8.236-15.328-12.177l-27.807-21.355C3674.9,2572.171,3668.753,2568.184,3663.772,2562.635Z" fill="#020202"/>
        <path id="Path_197" data-name="Path 197" d="M3058.885,2482.074l31.839.111c2.024,0,6.8.617,8.576-.007.873-.308,3.2-2.965,4.008-3.706,8.24-7.584,19.921-20.376,32.179-18.859,2.992.37,5.74,3.207,8.891,3.876l.44,1.059c-2.949,1.921-5.982,1.867-9.4,1.123l-5.663-1.468-14.84,21.023c-2.271,3.092-4.853,7.206-7.923,9.514a19.141,19.141,0,0,1-7.579,2.907c-4.655.849-9.822.776-14.554,1.042l-25.439,1.22Z" fill="#020202"/>
        <path id="Path_198" data-name="Path 198" d="M3804.859,2585.205l.449.057c2.912.411,5.551,1.63,8.395,2.307,7.416,1.761,14.744.328,21.949-1.582l32.133,51.878c-8.266,4.369-16.254,9.078-25.262,11.765a79.688,79.688,0,0,1,4.361-13.333c.9-2.311,2.851-3.374,4.817-4.759l-.04-1.112-1.177-.5-3.742,1.83c-3.783-1.713-8.464-8.5-11.308-11.69Z" fill="#020202"/>
        <path id="Path_199" data-name="Path 199" d="M3839.9,2543.386c1.749,4.732,2.592,9.693,4.212,14.472,2.347,6.961,6.089,13.229,9.892,19.472l-18.349,8.657c-7.205,1.91-14.533,3.343-21.949,1.582-2.844-.677-5.483-1.9-8.395-2.307l-.449-.057a4.165,4.165,0,0,1-.722-.791c-1.558-2.544-.775-7.722-.149-10.479,2.095-9.133,8.974-14.069,16.4-18.82C3826.671,2551.363,3834.216,2547.956,3839.9,2543.386Z" fill="#daa3c8"/>
        <path id="Path_200" data-name="Path 200" d="M3634.877,2507.756c-.816,9.332-1.7,21.2,1.021,30.209l-16.24,4.235c1.572,1.59,3.524,3.366,4.538,5.361,2.157,4.231,2,10.07,2.143,14.731a148.368,148.368,0,0,0,1.442,18.791c-2.184.62-4.721,1.062-6.443,2.609l-.6.009-18.173-33.676c-2.728-4.866-6.463-10.4-4.613-16.275,1.667-5.3,6.954-8.159,11.342-10.958Z" fill="#020202"/>
        <path id="Path_201" data-name="Path 201" d="M3839.7,2542.808l43.237,8.06c.544,3.76,2.292,7.067,3.9,10.468,4.13,8.715,8.94,17.031,16.819,22.914,5.715,4.261,12.26,6.222,18.526,9.41,6.715,3.419,12.648,8.358,18.424,13.139-6.184,7.636-12.383,9.979-21.642,12.285l-.81-.328c-18.465-2.116-37.984-13.342-51.115-26.226-4.749-4.66-8.757-10.11-13.036-15.2-3.8-6.243-7.545-12.511-9.892-19.472-1.62-4.779-2.463-9.74-4.212-14.472Z" fill="#daa3c8"/>
        <path id="Path_202" data-name="Path 202" d="M3445.629,2446.275c-1.552-3.295-2.436-7.081-3.5-10.565-.272-.889-.674-3.143-1.157-3.806-.463-.634-5.94-2.005-6.993-2.366a53.911,53.911,0,0,1-17-9.511c-8.817-7.429-14.645-16.318-19.255-26.8-.506-1.152-1.809-6.152-2.439-6.777a19.335,19.335,0,0,0-3.345-1.117c-2.8-.976-5.906-2.176-8.01-4.344a7.431,7.431,0,0,1-2.392-5.265l1.2-.421c2.9.593,4.407,2.578,6.994,3.632,2.247.915,6.873.4,8.542,1.437,1.912,1.19,5,6.675,6.681,8.645a110.628,110.628,0,0,0,10.321,10.542c15.354,13.736,31.361,18.558,51.759,17.371,1.367-1.3,2.225-5.181,2.878-7.053-1.9-.835-4.525-2.184-5.613-4.03-1.831-3.1-1.177-6.39-.368-9.681,2.586,3.191,5.076,5.083,9.287,5.46,4.388.394,9.069-2.7,12.26-5.37a28.308,28.308,0,0,0,4.783,1.626c-1.735,3.721-4.565,6.116-6.327,9.474-1.994,3.8-2.531,8.938-4.354,13,16.859,8.762,35.712,19.656,41.78,39.032a55.114,55.114,0,0,1,2.144,20.43,93.211,93.211,0,0,1-1.681,10.685,17.944,17.944,0,0,0-.578,3.032,16.517,16.517,0,0,0,2,1.438c2.647,1.914,9.906,5.973,9.246,9.338-2.32.759-3.415.149-5.565-.952a40.561,40.561,0,0,1-8.348-5.88c-2.831-11.66-3.307-28.937-11.668-37.922-4.885-5.25-11.675-8.909-17.744-12.641l-.742.133-5.694,10.986-1.79-1.677C3470.986,2447.9,3458.358,2445.3,3445.629,2446.275Z" fill="#020202"/>
        <path id="Path_203" data-name="Path 203" d="M3061.423,2546.341l21.379-2.6c7.458-.749,14.664-2.6,21.22,2.262a17.71,17.71,0,0,1,7.054,11.707,18.377,18.377,0,0,1-3.866,13.766l-32.1,36.856c-2.607-1.2-5.345-2.736-8.131-3.419l14.771,21.783-34.47-13.972,23.182-36.647c-26.85-1.951-51.4,3.6-76.18,13.6l31.1,53.067-29.305,1.786,9.748-14.522-10.205,5.642-4.727-5.887-22.079-29.182c-3.1-4.11-9.67-11.008-10.484-15.989a10.36,10.36,0,0,1,2.189-8.28c4.63-6.457,13.145-10.158,20.363-12.884a191.738,191.738,0,0,1,34.257-9.438c4.857-1.365,10.228-1.984,15.208-2.835Z" fill="#020202"/>
        <path id="Path_204" data-name="Path 204" d="M3644.811,2411.236l2.769-7.623c1.286.315,3.089,2.586,4.1,3.584-.13,3.251-.762,7.346.415,10.411l.449.247c4.715,2.482,15.342.67,17.39,6.205,1.224,3.311-.844,7.709.626,10.336-2.9.921-4.545,4.246-5.879,6.794-3.626,6.955-5.375,17.663-2.918,25.337.986,3.068,1.823,5.419,4.946,6.962,2.9,1.436,6.15,2.107,9.076,3.5,9.763,4.641,18.635,14.107,22.363,24.31,1.245,3.387,2.123,6.86,3.749,10.1,4.674,9.347,12.9,16.552,22.234,20.975,10.811,5.125,19.1,4.152,30.446,4.849-4.769,4.874-9.681,9.491-15.668,12.86-10.771,6.062-22.949,7.535-35.032,8.037-4.667.194-10.641-.532-15.05.649a92.183,92.183,0,0,0-18.866,2.25c-1.919.432-4.457.724-6.185,1.614a20.67,20.67,0,0,1-7.341-.852c-9.919-3.39-16.24-15.05-20.533-23.818-2.721-9.009-1.837-20.877-1.021-30.209,1.735-16.048,6.627-37.686.028-52.852-2.293-5.264-8.246-9.448-9.362-14.85l-.939-3.965-5.177-.572,5.293-.5c.85-4.672,1.544-8.662,3.51-13.027l-1.782-.617c.884-.652,4.211-.36,5.436-.393a81.708,81.708,0,0,0,10.947-1.155Z" fill="#daa3c8"/>
        <path id="Path_205" data-name="Path 205" d="M3445.629,2446.275c12.729-.977,25.357,1.624,35.31,10.083l1.79,1.677c-2.477,5.183-5.232,11.222-5.94,16.945-1.068,8.581,1.8,17.7,4.606,25.692,4.436,12.62,12.138,23.283,19.962,33.973,14.444,19.734,30.881,37.925,46.23,56.945l-4.517.267c-15.165-8.765-33.515-15.738-50.5-20.019-5.817-1.468-13.267-1.577-18.663-3.827-3.524-1.468-6.783-4.5-9.994-6.625l-23.649-15.258-50.873-35.1c-4.562-5.179-11.314-9.948-16.562-14.611a126.619,126.619,0,0,0-18.347-14.02c17.249-14.634,42.079-16.572,63.721-16.476,7.911.035,16.231.661,24.068-.286a7.12,7.12,0,0,0,3.027-2.443C3448.595,2458.216,3446.656,2451.723,3445.629,2446.275Z" fill="#daa3c8"/>
        <path id="Path_206" data-name="Path 206" d="M3222.284,2410.333a130.88,130.88,0,0,0,12.987,3.951c2.678.664,5.824,1.062,8.327,2.2-2.716,8.129-8.729,15.01-9.1,23.537l.941.964a235.529,235.529,0,0,1,31.616,1.139l18.989,2.418c4.138.645,8.429,1.965,12.607,1.307,9.945-1.566,20.519-1.252,30.551-.94,4.116.128,9.053-.075,13.041.94,4.522,1.151,7.988,3.423,11.707,6.1-4.188-.477-10.5-1.91-14.539-.835l.8,2.073c-.228,1.55-.064,1.642-1.361,2.656-2.361-.772-3.518-2.891-4.885-4.823-7.366,2.123-14.343,5.441-21.854,7.069-17.083,3.7-34.288.264-51.522.456a103.477,103.477,0,0,1,12.165,29.44c1.466,6.47,2.238,12.581,1.327,19.188-1.376,9.978-6.405,19.382-11.129,28.135l-12.2,21.487c5.284,2.305,10.181,5.783,15.061,8.842l23.654,14.934-20.069,19.581-25.442-14.217c-8.634-4.841-21.973-10.492-26-19.98-3.909-9.2.28-19.26,3.843-27.792l-26.509,5.964c1.067,14.869,5.324,29.083,10.478,42.968-2.1,1.273-6.249,1.558-8.725,2.064l12.942,16.088-35.521,8.988a150.164,150.164,0,0,1,19.066-15.689l-5.745-7.666-7.1,1.594c-5.94-15.292-12.465-31.323-16.012-47.352-1.536-6.939-2.257-13.647,1.862-19.861a18.676,18.676,0,0,1,7.676-6.62c5.414-2.435,12.656-3.233,18.5-4.472l37.865-7.854c-1.1-3.929-1.061-8.514-2.4-12.22-.931-2.589-2.868-5.186-4.112-7.714a72.207,72.207,0,0,1-7.255-25.252l-25.787-5.63c-5.9-1.316-12.152-2.145-17.478-5.155-3.629-2.051-6.764-5.405-9.814-8.215l-15.379-14.251c-1.644-1.519-4.314-4.678-6.353-5.465-.95-.366-2.321.277-3.309.556-3.151.889-8.313,3.094-11.43,2.125l-.214-1.365,4.44-2.969c-3.09-.463-8.932-.509-11.291-2.514l.127-1.02.66-.453c2.868-1.671,8.161-1.153,11.359-.929,4.376.307,9.046.533,13.27,1.782,10.417,3.08,20.6,11.049,29.869,16.687,2.61,1.586,5.929,4.132,8.91,4.76,3.138.661,6.9.5,10.116.646l19.84,1.031,9.335.951a12.889,12.889,0,0,0,2.912.335,4.39,4.39,0,0,0,.979-.658l-.656-4.082c-1.916-2.359-6.462-2.835-9.392-3.58l2.291-6.965a25.777,25.777,0,0,0-3.461-2.687c.294-2.3,2.506-1.9,4.082-3.349C3222.333,2418.973,3222.065,2413.022,3222.284,2410.333Z" fill="#020202"/>
        <path id="Path_207" data-name="Path 207" d="M3440.261,2546.128l23.649,15.258c3.211,2.126,6.47,5.157,9.994,6.625,5.4,2.25,12.846,2.359,18.663,3.827,16.988,4.281,35.338,11.254,50.5,20.019l4.517-.267c8.042-.279,13.512,1.815,20.792,4.912a39.985,39.985,0,0,1,3.137-6.679,28.846,28.846,0,0,1,18.1-12.389c11.4-2.494,19.942,2.029,29.222,8.038l1.905-1.771.6-.009c1.722-1.547,4.259-1.989,6.443-2.609l2,3.369,5.647,5.186-3.144,9.665,7.988,9.176,1.571-.439c.817-1.192,2.463-2.149,3.627-3.022,15.675.019,28.765-.577,40.712,11.358l1.062,1.118,5.633,9.072c12.56-2.981,24.425-2.625,35.733,4.341l8.4,6.324c8.811-5.381,17.567-8.9,27.983-6.332a29.006,29.006,0,0,1,18.043,13.369,37.178,37.178,0,0,1,2.538,5.879l-49.353,2.174c-8.906.316-18.846-.354-27.6.934-7.212,1.061-15.043.764-22.35.978l-39.38.849-8.4.348c-6.008,1.152-14.049.166-20.329.258l-73.826.814c-5.885,1.262-13.056.475-19.1.432l-35.433-.138-88.643.168-21.219-.05c-4.891.023-9.742.419-14.589-.4l-67.708-.817-28.331-.643-11.869-.16-57.7-1.352-80.3-2.762c1.616-6.944,3.986-12.258,9.308-17.211a29.246,29.246,0,0,1,21.245-7.8c10.736.479,17.985,5.279,25.02,13,3.056-3.415,5.929-6.571,10.041-8.761,11.066-5.892,21.685-6.392,33.51-2.763a45.152,45.152,0,0,1,5.834-13.071,6.53,6.53,0,0,1,.85-1.639c5-6.979,14.192-12.549,22.751-13.363a34.49,34.49,0,0,1,26.433,8.027,9.825,9.825,0,0,1,1.382-4.595c5.673-11.545,15.278-17.57,27.06-21.6,14.021-4.962,30.131-2.69,43.373,3.573a50.894,50.894,0,0,1,9.689,5.949c4.05.378,7.933.661,11.82,1.938a4.517,4.517,0,0,0,1.847.293l14.619-6.385c.627-.254,4.739-1.631,4.974-1.99.745-1.138,1.129-4.394,1.552-5.829a38.428,38.428,0,0,1,14.766-20.607c8.68-6.322,18.679-8.053,29.139-6.412Z" fill="#020202"/>
        <path id="Path_210" data-name="Path 210" d="M3714.636,2641.538c3.388-.346,6.307-.633,9.341,1.167a8.877,8.877,0,0,1,4.375,5.842l-1.014,1.06-7.416.095c-2.905.278-10.171,1.4-12.341-.134C3708.765,2645.887,3711.391,2643.457,3714.636,2641.538Z" fill="#f8af31"/>
        <path id="Path_211" data-name="Path 211" d="M3437.547,2557.927c4.34-.02,8.415.823,11.742,3.759,1.919,1.7,3.939,4.275,4.137,6.919-2.021,1.566-10.546.6-13.5.563l-17.1.276,2.7-4.383C3428.575,2560.475,3432.3,2559.008,3437.547,2557.927Z" fill="#f8af31"/>
        <path id="Path_212" data-name="Path 212" d="M3605.323,2648.992c-6.335-1.7-12.9-1.261-19.343-.739a51.617,51.617,0,0,1,5.075-7.276c3.654-4.08,9.927-7.714,15.52-7.982,4.66-.225,6.83.886,10.232,3.948l-.265.222c-1.64,1.343-3.633,2.179-5.205,3.565C3608.867,2642.9,3606.962,2646.167,3605.323,2648.992Z" fill="#f8af31"/>
        <path id="Path_213" data-name="Path 213" d="M3224.412,2614.173a6.53,6.53,0,0,1,.85-1.639c5-6.979,14.192-12.549,22.751-13.363a34.49,34.49,0,0,1,26.433,8.027c-2.073,3.563-5.557,3.548-8.9,5.661a36.355,36.355,0,0,0-6.275,5.752,8.476,8.476,0,0,1-1.961-6.118c.032-2.3,1.267-4.059,1.482-6.278a28.454,28.454,0,0,0-21.339-.958C3232.434,2607.058,3228.213,2610.509,3224.412,2614.173Z" fill="#f8af31"/>
        <path id="Path_214" data-name="Path 214" d="M3299.859,2633.74c7.416,1.329,14.362,3.4,19.021,9.887a36.945,36.945,0,0,1,3.629,7.377l-14.664.117c-2.256.026-5.279-.2-7.432.392a15.776,15.776,0,0,0-2.85,1.942C3299.612,2648.188,3299.337,2639.565,3299.859,2633.74Z" fill="#f8af31"/>
        <path id="Path_215" data-name="Path 215" d="M3476.544,2584.343a20.625,20.625,0,0,1,7.573.856c6.81,2.078,9.572,6.516,12.668,12.483l-14.227.022-20.934.066,2.109-4.34C3466.869,2587.837,3470.625,2585.964,3476.544,2584.343Z" fill="#f8af31"/>
        <path id="Path_216" data-name="Path 216" d="M3269.321,2655.057a26.653,26.653,0,0,1,6.6-11.854c6.618-7.056,14.557-9.142,23.937-9.463-.522,5.825-.247,14.448-2.3,19.715l.089,2.245Z" fill="#daa3c8"/>
        <path id="Path_217" data-name="Path 217" d="M3616.807,2636.943a21.589,21.589,0,0,1,16.968,1.291,36.118,36.118,0,0,1,6.96,5.029c-2.483,3.508-4.891,7.155-5.891,11.407a8.487,8.487,0,0,0,3.653.76c-6.008,1.152-14.049.166-20.329.258-4.069-3.694-7.661-5.271-12.845-6.7,1.639-2.825,3.544-6.089,6.014-8.262,1.572-1.386,3.565-2.222,5.205-3.565Z" fill="#daa3c8"/>
        <path id="Path_218" data-name="Path 218" d="M3199.751,2653.545c5.2-8.348,11.868-13.425,21.568-15.679,8.421-1.957,17.888.082,25.1,4.664,4.935,3.134,8.047,7.474,11.03,12.367Z" fill="#daa3c8"/>
        <path id="Path_219" data-name="Path 219" d="M3646.9,2655.082l.191-.343a32.209,32.209,0,0,1,4.082-6.01c6.008-6.581,14.512-11.737,23.581-12.1,9.451-.383,18.962,2.4,26.2,8.684,2.742,2.383,4.967,5.435,7.675,7.947-7.212,1.061-15.043.764-22.35.978Z" fill="#daa3c8"/>
        <path id="Path_221" data-name="Path 221" d="M3547.587,2591.59c8.042-.279,13.512,1.815,20.792,4.912,2.375,1.526,4.572,4.976,6.776,6.1a19.751,19.751,0,0,0,3.47.106,25.3,25.3,0,0,1,5.933,1.134c6.987,2.156,10.831,7.777,14.05,13.892l-37.468-.147a24.453,24.453,0,0,0-3.381-3.944c-9.58-8.7-23.561-6.686-35.529-6.243a33.388,33.388,0,0,1,12.92-12.439,44.332,44.332,0,0,1,7.92-3.1Z" fill="#f8af31"/>
        <path id="Path_222" data-name="Path 222" d="M3302.888,2581c14.021-4.962,30.131-2.69,43.373,3.573a50.894,50.894,0,0,1,9.689,5.949c4.05.378,7.933.661,11.82,1.938a4.517,4.517,0,0,0,1.847.293c7.579,4.46,11.588,9.029,15.721,16.677l-26.436-.021c-6.843.621-11.036,3.88-15.271,8.925l-36.631-.1c2-6.007,4.219-11.232,10.107-14.459,5.146-2.821,8.856-1.946,14.216-.81a4.615,4.615,0,0,0,1.407.08c.577-.216,2.359-2.741,3.086-3.408a51.041,51.041,0,0,1,6.077-4.406c-1.869-2.867-3.982-6.19-6.733-8.263C3325.4,2579.608,3314.457,2579.273,3302.888,2581Z" fill="#f8af31"/>
        <path id="Path_223" data-name="Path 223" d="M3416.389,2632.1a58.508,58.508,0,0,1,14.559,1.245A49.578,49.578,0,0,1,3448.874,2623c14.757-4.818,26.942-2.308,40.366,4.54a32.785,32.785,0,0,0,3.782,5.018c12.043.226,22.024,2.642,30.61,11.542a36.02,36.02,0,0,1,5.47,7.242c.544.967,1.864,4.321,2.585,4.886a15.524,15.524,0,0,0,2.735.212l9.92.066c-5.885,1.262-13.056.475-19.1.432l-35.433-.138-88.643.168-21.219-.05c-4.891.023-9.742.419-14.589-.4,1.166,0,9.117.375,9.723-.013.254-.163,1.983-4.763,2.33-5.419a35.052,35.052,0,0,1,6.905-8.977C3393.361,2633.463,3404.386,2631.81,3416.389,2632.1Z" fill="#daa3c8"/>
        <path id="Path_224" data-name="Path 224" d="M2758.108,2662.285l.48.1c2.287.04,4.088-.482,5.78,1.128l0,139.962,1.6-1.672c28.919-28.42,66.132-42.363,106.59-42.04,34.717.276,69.2,11.311,93.856,36.324-1.688-10.723-1.439-19.672,3.343-29.676,11.283-23.611,38.993-35.593,62.317-43.644l-34.292-31.463c5.473.477,10.863,1.609,16.317,2.278l44.962,4.71,329.9,10.576,266.684-2.527,181.643-7.489,47.781-4.213c6.913-.771,15.574-3.033,22.323-2.718l-36.4,32.4c30.378,3.26,71.172,9.836,91.6,35.19,6.437,7.991,9.75,17.162,8.505,27.492a45.77,45.77,0,0,1-4.157,13.224c-.782,1.748-2.715,4.795-2.844,6.616,2.694-3.783,5.4-8.028,8.729-11.267,4.13-4.026,9.124-7.25,13.947-10.374,18.152-11.759,38.039-18.185,59.246-21.758s43.829-4.508,64.825.638c4.313,1.056,8.838,1.967,12.784,4.072l26.112-11.4-.027,10.179-.191,190.007-.013,2.871h-823.72l-382.795.047-124.122-.013-39.467-.014c-6.541-.007-13.369.4-19.872-.02a5.611,5.611,0,0,1-2.041-.681V2662.658Z" fill="#020202"/>
        <path id="Path_225" data-name="Path 225" d="M3655.418,2884.632l11.661-.293c-1.626,1.8-4.538,3.116-6.654,4.4l-13.941,8.661L3563.3,2949.11c-3.436,2.49-4.354,2.429-8.43,2.51l-1.02-.98.217-64.162Z" fill="#f0ebd5"/>
        <path id="Path_226" data-name="Path 226" d="M3053.69,2813.533l51.983,17.15c3.986,1.328,11.111,2.589,14.5,4.761a5.791,5.791,0,0,1,1.207,1.318c4.933,7.095,8.767,15.792,12.8,23.455l21.527,40.588,20.5,38.765c1.632,3.146,4.879,7.737,5.727,11.057a7.238,7.238,0,0,1-.245,1.537l-6.123.15-71.482.007,5.61-45.2c.331-2.824,1.819-8.915,1.325-11.4C3110.436,2892.784,3060.873,2823.283,3053.69,2813.533Z" fill="#f0ebd5"/>
        <path id="Path_227" data-name="Path 227" d="M3853.858,2826.937l105.687,70.822c-1.415,2.806-50.074,31.037-56.007,34.651l-23,13.937c-3.075,1.831-6.824,4.763-10.11,6.022-1.891.728-7.1,0-9.471,0l-35.528-.021,39.338-29.734Z" fill="#f0ebd5"/>
        <path id="Path_229" data-name="Path 229" d="M4142.133,2765.569c.98-.2.967-.145,1.858.34l.088,20.367L3964.9,2895.118l-26.031-17.648-21.771-14.442Z" fill="#f0ebd5"/>
        <path id="Path_230" data-name="Path 230" d="M3158,2894.5c22.531-27.739,55.719-45.951,90.229-53.928,36.5-8.436,73.392-1.155,104.916,18.475l.392-5.386c1.352,4.19.356,10.664.262,15.1l-.132,26.329a1016.641,1016.641,0,0,0-126.914,17.377c-17.442,3.521-35.4,7.186-52.221,13Z" fill="#f0ebd5"/>
        <path id="Path_231" data-name="Path 231" d="M3845.714,2826.086a10.253,10.253,0,0,1,3.375.035c-2.851,4.794-7.144,9.225-10.716,13.531l-21.785,25.947-73.275,86.13-169.566.041a24.25,24.25,0,0,1-3.034-.327,2.126,2.126,0,0,1,.537-.816c2.409-2.313,6.532-4.232,9.457-6l19.8-12.127,101.509-64.114,38.72-25.847c3.157-2.134,11.049-8.881,14.587-9.1Z" fill="#f0ebd5"/>
        <path id="Path_232" data-name="Path 232" d="M4142.773,2792.783a2.178,2.178,0,0,1,1.32.681l-.143,158.911-260.809-.034-1.572-.721Z" fill="#f0ebd5"/>
        <path id="Path_233" data-name="Path 233" d="M3045.958,2813.874c1.708,1.9,1.6,7.522,1.924,10.22l3.669,32.515,10.692,95.739-275.842.027-16.487.034.027-9.588Z" fill="#f0ebd5"/>
        <path id="Path_234" data-name="Path 234" d="M3870.983,2724.318c30.378,3.26,71.172,9.836,91.6,35.19,6.437,7.991,9.75,17.162,8.505,27.492a45.77,45.77,0,0,1-4.157,13.224c-.782,1.748-2.715,4.795-2.844,6.616,2.694-3.783,5.4-8.028,8.729-11.267,4.13-4.026,9.124-7.25,13.947-10.374,18.152-11.759,38.039-18.185,59.246-21.758s43.829-4.508,64.825.638c4.313,1.056,8.838,1.967,12.784,4.072l-210.878,91.3c-2.578.115-51.843-34.07-59.973-39.254-12.131,1.283-98.986,6.911-101.871,8.972l-61.491,41.306-9.559,6.37a24.876,24.876,0,0,1-3.864,2.6c-1.456.522-5.674.04-7.368.049l-24.84.175-89.726,1.646.047-27.894c3.137-.717,5.947-1.4,8.314-3.712,5.144-5.024,4.355-10.544,4.457-17.185,89.807-9.622,182.425-33.314,260.911-79.052C3842.884,2744.667,3856.927,2734.687,3870.983,2724.318Z" fill="#ed242a"/>
        <path id="Path_235" data-name="Path 235" d="M2764.363,2803.477l1.6-1.672c28.919-28.42,66.132-42.363,106.59-42.04,34.717.276,69.2,11.311,93.856,36.324-1.688-10.723-1.439-19.672,3.343-29.676,11.283-23.611,38.993-35.593,62.317-43.644,73.2,58.356,164.868,90.3,256.788,103.506l33.918,4.256c5.911.618,11.894,1.527,17.841,1.518.022,3.994-.585,9.531,1.2,13.122l.193.394c2.11,4.237,5.349,6.05,9.682,7.463a11.51,11.51,0,0,1,1.84.636l-.392,5.386c-31.524-19.63-68.417-26.911-104.916-18.475-34.51,7.977-67.7,26.189-90.229,53.928l-33.236-62.627-61.357-20.288-10.41-3.371a18.017,18.017,0,0,0-3.645-1.177c-1.952.025-6.7,2.822-8.714,3.716l-37.577,17.438L2870.6,2890.22,2764.325,2940.1Z" fill="#ed242a"/>
      </g>
    </g>
  </g>
</svg>
