<svg xmlns="http://www.w3.org/2000/svg" width="113.735" height="157.473" viewBox="0 0 113.735 157.473">
  <g id="Group_65" data-name="Group 65" transform="translate(-240.364 -1509.999)">
    <path id="Path_147" data-name="Path 147" d="M294.479,1613.12c17.37,0,34.74.026,52.109-.037,1.673-.006,2.072.533,1.991,2.084-.714,13.739-5.549,25.785-15.122,35.69a52.353,52.353,0,0,1-35.9,16.524c-16.464.884-30.49-4.692-41.977-16.4a51.783,51.783,0,0,1-14.874-31.832c-.14-1.374-.163-2.761-.317-4.134-.173-1.548.476-1.941,1.979-1.935,15.292.052,30.585.033,45.877.034Q291.363,1613.118,294.479,1613.12Z" fill="#231f20"/>
    <g id="Group_40" data-name="Group 40">
      <path id="Path_148" data-name="Path 148" d="M278.549,1546.352c.576-1.965,1.168-4.276.667-6.145-2.156-8.046-3.428-16.36-6.977-24.011-.861-1.855-1.7-3.6-3.62-4.588-2.323-1.2-3.319-.833-4.111,1.6-.094.288-.225.564-.338.845l-.213,2.148c.052.089.111.174.154.267a140.514,140.514,0,0,1,7.565,21.913c1.235,4.48,2.656,8.908,4.088,13.676A37,37,0,0,0,278.549,1546.352Z" fill="#231f20"/>
      <path id="Path_149" data-name="Path 149" d="M352.254,1560.276c-1.737-1.085-3.515-2.11-5.308-3.1-3.314-1.833-6.514-3.978-10.017-5.332a46.542,46.542,0,0,0-11.408-2.9,127.617,127.617,0,0,0-17.187-.738,18.938,18.938,0,0,0-7.705,2.248,12.98,12.98,0,0,0-4.422,4.2c-2.112,3.01-3.869,6.269-5.8,9.411a8.689,8.689,0,0,1-3.927,4c0-1.451-.3-2.777.07-3.88.624-1.868,1.739-3.565,2.511-5.392.43-1.018.393-2.253.9-3.215a23.863,23.863,0,0,0,3.065-9.881,34.6,34.6,0,0,1,1.216-7.318c.924-3.408.944-7.086,1.136-10.659.165-3.063.088-6.143.006-9.212-.082-3.085-.847-5.872-3.733-7.65-1.114-.686-2.22-1.186-3.453-.591-.923.446-1.463,2.623-1.139,3.818a3.03,3.03,0,0,1,.13,1.208c-.374,2.427-.673,4.875-1.227,7.263-.53,2.282-1.524,4.462-1.982,6.753-.739,3.7-1,7.508-1.837,11.184-1.329,5.836-2.492,11.738-5.224,17.17a31.085,31.085,0,0,0-2.165,5.733,64.638,64.638,0,0,0-1.615,7.665c-.409,2.774-2.084,5.237-1.878,8.144a16.318,16.318,0,0,1,.037,2.751,85.7,85.7,0,0,0,.265,19.471q.361,2.849.9,5.62l.291-.073,2.865-.106c.059.236.119.472.177.708,1.961-.089,3.922-.244,5.883-.255,7.687-.046,15.386-.321,23.059,0,3.69.157,7.377.371,11.063.6a23.25,23.25,0,0,0,7.594-4.376c4.281-3.541,7.365-8.175,9.939-13a23.78,23.78,0,0,1,9.707-9.922c2.86-1.6,6.031-1.528,9.045-2.257,2.074-.5,2.484-1.291,1.36-3.171-1.79-3-4.732-3.947-7.856-4.533-5.17-.969-9.315,1.383-13.1,4.437-2.174,1.753-3.924,4.032-6.105,5.774-3.239,2.587-6.534,4.935-11.257,3.958a10.315,10.315,0,0,1-5.628-3.128c-2.083-2.2-4-4.618-3.127-8.029.534-2.076,1.045-4.16,1.668-6.21,1.2-3.955,4.216-5.8,8.039-6.332,4.155-.573,8.372-.7,12.527-1.277a14.886,14.886,0,0,1,10.9,2.506,20.376,20.376,0,0,0,10.638,3.651c1.548.066,3.426-1,3.823-2.328C354.46,1562.056,353.483,1561.043,352.254,1560.276Z" fill="#231f20"/>
    </g>
  </g>
</svg>
