<svg xmlns="http://www.w3.org/2000/svg" width="198.796" height="431.059" viewBox="0 0 198.796 431.059">
  <g id="Group_186" data-name="Group 186" transform="translate(-1113.653 -452.992)">
    <path id="Path_32" data-name="Path 32" d="M5438.047,3369.5c-17.733,24.007-41.253,37.331-69,35.361-42.423-3.012-73.5-25.255-84.715-67.81-7.737-29.368-1.074-56.9,21.391-79.942Z" transform="translate(-4158 -2521)" fill="#dba2c9"/>
    <path id="Path_33" data-name="Path 33" d="M5397.926,2973.992c.854,23.261,2.181,45.913-6.971,67.214-8.662,20.158-24.31,33.838-44.971,40.429-13.366,4.264-27.607,5.785-41.458,8.53-4.2.832-6.351-.527-6.54-5.185-.591-14.55-2.662-29.161-1.8-43.608.631-10.618,4.131-21.324,7.891-31.418,3.3-8.858,10.612-14.639,19.626-18.389,21.917-9.115,44.272-16.249,68.194-17.371C5393.572,2974.116,5395.253,2974.08,5397.926,2973.992Z" transform="translate(-4158 -2521)" fill="#020202"/>
    <g id="Group_21" data-name="Group 21" transform="translate(-4158 -2521)">
      <path id="Path_34" data-name="Path 34" d="M5359.833,3281.447c-.632-5.412-1.343-10.135-1.634-14.884-.08-1.3.888-3.6,1.754-3.8a5.712,5.712,0,0,1,4.635,1.243c7.643,7.781,11.984,17.122,11.973,28.155,0,1.44-1.164,3.644-2.332,4.1-1.149.449-3.542-.424-4.432-1.5C5366.228,3290.423,5363.031,3285.785,5359.833,3281.447Z" fill="#020202"/>
      <path id="Path_35" data-name="Path 35" d="M5395.9,3196.071c-.882-2.708-2.121-5.415-2.523-8.123-.281-1.89.081-4.631,1.089-5.413.86-.668,3.5.323,4.579,1.595,6.2,7.309,9.875,16.183,11.822,25.743.353,1.736-.822,3.607-1.292,5.415-1.565-.919-3.623-1.377-4.607-2.841-3.424-5.1-6.476-10.544-9.67-15.857Z" fill="#020202"/>
      <path id="Path_36" data-name="Path 36" d="M5293.22,3247.843c1.145-.961,2.643-3.291,4.4-3.5,6.658-.807,24.506,10.673,26.963,16.794,1.5,3.749,0,5.3-3.757,5.518C5313.146,3267.088,5296.933,3256.893,5293.22,3247.843Z" fill="#020202"/>
      <path id="Path_37" data-name="Path 37" d="M5418.959,3197.919c.136-1.817-.316-3.964.554-5,.791-.943,3.209-1.282,4.585-.851,10.409,3.259,17.3,10.706,22.433,19.916.806,1.447.929,4.34.017,5.373-.879,1-3.709,1.041-5.331.484C5431.09,3214.365,5425.233,3206.1,5418.959,3197.919Z" fill="#020202"/>
      <path id="Path_38" data-name="Path 38" d="M5368.352,3249.548c-.858-4.354-1.96-8.374-2.3-12.459-.134-1.6,1.055-4.154,2.354-4.768,1.225-.579,3.851.317,5.058,1.433,7.469,6.9,9.776,16.328,11.5,25.8.312,1.717-1.508,4.635-3.16,5.6-1.028.6-4.282-.933-5.333-2.381C5373.416,3258.563,5370.971,3253.915,5368.352,3249.548Z" fill="#020202"/>
      <path id="Path_39" data-name="Path 39" d="M5338.975,3288.265c-.211-7.107-.657-14.22-.461-21.316.046-1.683,2.114-4.492,3.484-4.641,1.525-.165,4.445,1.852,4.8,3.377a227.861,227.861,0,0,1,4.68,25.488c.245,2.091-2.506,4.533-3.879,6.813a65.74,65.74,0,0,1-5.5-5.507c-.912-1.135-1.14-2.818-1.676-4.255Z" fill="#020202"/>
      <path id="Path_40" data-name="Path 40" d="M5335.433,3301.557c.426,1.691,1.185,3.376,1.211,5.073.062,3.993-2.094,6.231-5.78,3.986-9.563-5.824-15.53-14.53-18.219-25.373-.3-1.193.565-3.79,1.166-3.88,1.793-.268,4.39-.286,5.49.8,5.96,5.875,11.564,12.112,17.29,18.224Z" fill="#020202"/>
      <path id="Path_41" data-name="Path 41" d="M5275.418,3246.032c-.883-1.188-3.206-2.884-3.072-4.357,1.036-11.414,6.361-20.831,14.95-28.252,2.451-2.117,5.006-1.283,5.7,2.392C5294.507,3223.83,5284.55,3242.392,5275.418,3246.032Z" fill="#020202"/>
      <path id="Path_42" data-name="Path 42" d="M5340.2,3182.326c-.875-5.866-2.058-12.108-2.585-18.405-.146-1.753,1.648-3.669,2.552-5.51,1.846.981,4.335,1.5,5.43,3.019,5.967,8.288,8.894,17.586,7.407,27.86a6.486,6.486,0,0,1-3.183,4.328c-.862.4-3.19-1.2-4.143-2.446A100.732,100.732,0,0,1,5340.2,3182.326Z" fill="#020202"/>
      <path id="Path_43" data-name="Path 43" d="M5310.62,3228.163a85.185,85.185,0,0,1-2.32-10.149c-.166-1.436.8-3.765,1.94-4.366,1.059-.556,3.42.2,4.562,1.156,8.3,6.927,12.642,16.016,13.456,26.7.124,1.62-.948,4.29-2.164,4.794-1.307.542-4.162-.348-5.08-1.565-3.9-5.17-7.333-10.693-10.936-16.087Z" fill="#020202"/>
      <path id="Path_44" data-name="Path 44" d="M5454.1,3217.717c-.939-4.925-1.959-8.94-2.342-13.015a5.184,5.184,0,0,1,2.152-4.244c1.143-.561,3.631.007,4.614.992,7.36,7.377,11.772,16.241,11.929,26.809.025,1.66-1.384,4.628-2.371,4.733a6.919,6.919,0,0,1-5.368-2.3C5459.433,3226.413,5456.7,3221.721,5454.1,3217.717Z" fill="#020202"/>
      <path id="Path_45" data-name="Path 45" d="M5420.7,3269.516c.435,1.469,1.24,2.947,1.207,4.4-.036,1.61-.374,3.866-1.44,4.614-1.044.732-3.579.509-4.757-.308-8.749-6.062-14.9-14.138-17.508-24.576-.345-1.384.728-4.47,1.115-4.466,2.26.029,5.29-.015,6.631,1.359,5.57,5.708,10.629,11.914,15.876,17.937Z" fill="#020202"/>
      <path id="Path_46" data-name="Path 46" d="M5363.506,3209.771l-9.81-1.043c.989-2.933,1.125-6.809,3.129-8.62a151.542,151.542,0,0,1,18.677-14.163c1.73-1.134,4.893-.08,7.4-.03-.525,2.369-.278,5.471-1.71,6.977C5375.558,3198.813,5369.4,3204.232,5363.506,3209.771Z" fill="#020202"/>
      <path id="Path_47" data-name="Path 47" d="M5446.413,3249.824c-1.018-5.252-2.067-9.489-2.544-13.789-.16-1.434.763-3.77,1.885-4.35a5.086,5.086,0,0,1,4.706.845c7.4,7.582,12.008,16.553,12,27.379,0,1.478-1.186,3.963-2.227,4.2-1.569.355-4.2-.308-5.14-1.508C5451.779,3258.36,5448.993,3253.708,5446.413,3249.824Z" fill="#020202"/>
      <path id="Path_48" data-name="Path 48" d="M5411.086,3231.469c-.958.751-2.291,2.678-3.826,2.854-7.96.912-24.441-9.082-27.812-16.481-1.74-3.82.07-5.31,3.669-5.582C5390.4,3211.708,5408.056,3223.02,5411.086,3231.469Z" fill="#020202"/>
      <path id="Path_49" data-name="Path 49" d="M5360.8,3243.946c-.088,1.344.485,4.577-.515,5.173-1.7,1.015-5.309,1.368-6.514.259-6.792-6.256-13.225-12.922-19.449-19.75-.874-.958-.478-3.911.379-5.287.488-.784,3.329-.787,4.723-.209C5348.618,3227.943,5355.66,3234.223,5360.8,3243.946Z" fill="#020202"/>
      <path id="Path_50" data-name="Path 50" d="M5315.256,3189.982c-.532-1.427-1.4-2.831-1.506-4.289-.111-1.584-.033-3.842.932-4.655s3.5-.838,4.715-.13c9.543,5.544,15.353,13.968,17.734,24.667.32,1.437-.493,4.334-1.327,4.562-1.59.436-4.187.041-5.291-1.073-5.725-5.782-11.111-11.9-16.615-17.9Z" fill="#020202"/>
      <path id="Path_51" data-name="Path 51" d="M5306.6,3198.07c-1.844,1.138-3.878,3.453-5.442,3.17a84.354,84.354,0,0,1-17.44-4.766,32.8,32.8,0,0,1-10.5-7.625c-2.825-2.941-1.709-6.238,2.6-6.257,11.539-.051,21.044,5,29.127,12.978A26.107,26.107,0,0,1,5306.6,3198.07Z" fill="#020202"/>
      <path id="Path_52" data-name="Path 52" d="M5424.788,3257.9c-.048-7.939-.236-15.882-.006-23.814.038-1.322,2.031-3.743,2.876-3.641a6.576,6.576,0,0,1,4.48,2.938c4.295,8.288,6.732,17.081,4.846,26.479-.421,2.1-2.169,3.936-3.306,5.894a53.774,53.774,0,0,1-5.871-4.31c-.853-.805-.983-2.377-1.44-3.6Z" fill="#020202"/>
    </g>
  </g>
</svg>
