<svg xmlns="http://www.w3.org/2000/svg" width="133.084" height="119.212" viewBox="0 0 133.084 119.212">
  <g id="Group_38" data-name="Group 38" transform="translate(-1112.261 -1548.3)">
    <path id="Path_145" data-name="Path 145" d="M1191.235,1613.159c17.37,0,34.74.027,52.109-.037,1.673-.006,2.072.534,1.991,2.084-.714,13.739-5.549,25.785-15.122,35.691a52.358,52.358,0,0,1-35.9,16.524c-16.465.883-30.49-4.692-41.977-16.4a51.787,51.787,0,0,1-14.874-31.832c-.14-1.375-.163-2.762-.317-4.135-.173-1.548.476-1.94,1.979-1.935,15.292.052,30.585.033,45.877.034Q1188.118,1613.157,1191.235,1613.159Z" fill="#231f20"/>
    <path id="Path_146" data-name="Path 146" d="M1203.381,1597.492c-1.731-.917-3.458-1.84-5.192-2.75-2.958-1.553-5.909-3.118-8.889-4.626-.507-.257-1.254-1.043-1.685-.191-.379.749.6,1.059,1.125,1.348,2.964,1.638,5.953,3.23,8.943,4.821a15.02,15.02,0,0,1,3.759,2.714c.331.338.955.7.58,1.28-.334.517-.957.267-1.441.157a21.58,21.58,0,0,1-5.09-2.06c-2.632-1.365-5.231-2.793-7.846-4.191-.414-.221-.835-.434-1.261-.633-.312-.146-.652-.223-.877.129s-.031.618.273.822c.623.419,1.218.888,1.875,1.247,2.89,1.579,5.8,3.128,8.7,4.685a13,13,0,0,1,3.151,2.359c.249.254.648.536.5.945-.185.5-.71.364-1.111.369a6.1,6.1,0,0,1-2.865-.654c-4.1-2.106-8.209-4.2-12.162-6.58-2.457-1.48-3.829-3.794-5.086-6.25-1.148-2.244-1.945-4.658-3.734-6.59a27.423,27.423,0,0,0-8.736-5.848c-6.966-3.308-14.116-6.184-21.339-8.9-5.764-2.166-11.45-4.543-17.287-6.521a63.628,63.628,0,0,1-6.475-2.409c-4.1-1.907-6.755-5.3-8.723-9.238-.637-1.276.131-2.344,1.762-2.488,5.448-.482,10.6.216,15.457,3.123,7.3,4.376,14.541,8.86,21.749,13.386,5.053,3.174,10.079,6.4,15.22,9.423,4.391,2.583,8.446,5.626,12.568,8.586a8.394,8.394,0,0,0,4.125,1.291,14.853,14.853,0,0,1,5.225,1.615q5.208,2.683,10.336,5.521a11.068,11.068,0,0,1,4.752,5.672Z" fill="#231f20"/>
  </g>
</svg>
