<svg xmlns="http://www.w3.org/2000/svg" width="1365.944" height="750.707" viewBox="0 0 1365.944 750.707">
  <g id="Group_182" data-name="Group 182" transform="translate(-0.607 -1668.293)">
    <g id="Group_181" data-name="Group 181">
      <g id="Group_76" data-name="Group 76" transform="translate(-4158)">
        <path id="Path_620" data-name="Path 620" d="M5124.43,2394c-29.583-10.4-57.83-19.06-89.53-19.512-31.284-.447-62.954,3.25-93.915-2.885-44.491-8.816-82.14-37.3-119.126-63.632-43.442-30.933-85.993-51.782-139.353-57.3-55.234-5.71-113.09-.535-164.276-22.132-35.612-15.026-65.123-41.985-100.369-57.856-84.413-38.011-171.971-10.021-258.861,21.876V2394Z" fill="#010102"/>
      </g>
      <g id="Group_77" data-name="Group 77" transform="translate(-4158)">
        <path id="Path_621" data-name="Path 621" d="M5461.551,2002.477c-73.329,1.513-104.944,7.367-151.913,27.727s-92.313,45.213-143.946,54.792c-71.511,13.266-148.007-4.2-218.494,12.481-103.171,24.41-167.11,114.777-267.686,145.87-52.2,16.136-109.958,14.837-163.11,28.606-62.834,16.277-115.057,52.341-171.128,81.138s-123.457,51.191-186.667,35.971V2419H5524V2002.017Z" fill="#fab017"/>
      </g>
      <g id="Group_78" data-name="Group 78" transform="translate(-4158)">
        <path id="Path_622" data-name="Path 622" d="M5202.554,2045.408c4.732,2.2,8.409,7.45,10.18,12.207a33.193,33.193,0,0,1,1.792,13.982h-3.078c.586-8.755-.046-17.025-6.474-23.695C5204.255,2047.157,5202.8,2046.407,5202.554,2045.408Z" fill="#893012"/>
        <path id="Path_623" data-name="Path 623" d="M5142.536,2090.831c-3.055-1.915-6.339-3.377-9.32-5.455-3.894-2.715-7.347-6.67-10.733-10l100.77.284-14.819,13.008a19.366,19.366,0,0,1-3.239,2.111,18.755,18.755,0,0,1-3.753,0l-10.36-.011Z" fill="#020202"/>
        <path id="Path_624" data-name="Path 624" d="M5208.434,2088.666c-.492,1.107-1.006,1.325-1.955,1.981l.309.453,93.064.168a62.1,62.1,0,0,1-12.6,5.191l-146.745-.034-53.857-.026c-8.575.015-17.76-.635-26.271.243-2.12-.129-4.241-1.189-6.216-1.93-2.736-1.026-5.508-1.9-8.16-3.143,7.759-.991,16.37-.33,24.22-.342l44.567-.013c9.191,0,18.583.341,27.749-.383l48.546-.069,10.36.011a18.755,18.755,0,0,0,3.753,0A19.366,19.366,0,0,0,5208.434,2088.666Z" fill="#d7a5da"/>
        <path id="Path_625" data-name="Path 625" d="M5140.641,2049.3l1.153-.38c3.106-1,5.552-.656,8.666.017a33.29,33.29,0,0,1,3.794-6.192,22.654,22.654,0,0,1,14.586-7.4c6.808-.472,11.875,1.589,16.98,6.005,5.58.4,12.3-.233,16.734,4.063.245,1,1.7,1.749,2.42,2.495,6.428,6.67,7.06,14.94,6.474,23.695h3.078l13.971-.231c-.5,1.078-3.253,2.77-4.277,3.581l-73.513-.039-22.131-.042c-3.16-.022-6.862.265-9.972-.185-1.134-.164-3-2.25-3.886-3.057l12.358-.018a35.864,35.864,0,0,1,2.9-11.866A19.186,19.186,0,0,1,5140.641,2049.3Z" fill="#020202"/>
        <path id="Path_626" data-name="Path 626" d="M5168.267,2071.338a16.029,16.029,0,0,1-3.425-.21c-.361-2.144-.242-4.335-.657-6.475a31.258,31.258,0,0,0-2.956-7.579l.19-.128c4.367-2.916,8.183-4.285,13.417-3.226l-.185.1c-1.4.677-3.154-.049-3.985,1.195C5170.293,2060.024,5170.286,2066.73,5168.267,2071.338Z" fill="#f0ebd5"/>
        <path id="Path_627" data-name="Path 627" d="M5167.751,2038.116c3.729-.4,8.065-.218,11.417,1.666.312.175.793.364.892.723l-1.206.155c-7.338.977-12.016,4.393-16.47,10.2l-2.524,3.974a33.122,33.122,0,0,0-6.6-5.377l1.48-2.833C5157.487,2041.982,5162.719,2039.423,5167.751,2038.116Z" fill="#fab017"/>
        <path id="Path_628" data-name="Path 628" d="M5174.836,2053.72a19.51,19.51,0,0,1,12.231,8.455c1.766,2.831,2.645,6.218,3.563,9.4l-22.363-.236c2.019-4.608,2.026-11.314,2.4-16.325.831-1.244,2.584-.518,3.985-1.195Z" fill="#f0ebd5"/>
        <path id="Path_629" data-name="Path 629" d="M5140.641,2049.3c6.132-.038,10.055.239,14.644,4.783,4.425,4.383,5.147,9.577,5.126,15.5l-.049,1.875-33.286.146a35.864,35.864,0,0,1,2.9-11.866A19.186,19.186,0,0,1,5140.641,2049.3Z" fill="#d7a5da"/>
        <path id="Path_630" data-name="Path 630" d="M5185.82,2041.345c5.58.4,12.3-.233,16.734,4.063.245,1,1.7,1.749,2.42,2.495,6.428,6.67,7.06,14.94,6.474,23.695l-17.207-.061c-1.4-4.6-2.843-8.64-5.927-12.41-4.486-5.482-9.659-7.743-16.542-8.432,2.487-3.112,4.738-5.825,8.454-7.492,1.733-.778,3.6-1.123,5.376-1.776Z" fill="#fab017"/>
        <path id="Path_631" data-name="Path 631" d="M5260.886,1877.766l10.2-5.818,19.359,3.3c5,.742,11.3.5,16.005,2.3a21.514,21.514,0,0,1,9.2,7.167c5.509,7.523,8.611,18.389,11.373,27.175,3.687,11.731,9.212,26.659,7.153,39.037a14.979,14.979,0,0,1-1.014,3.626,12.52,12.52,0,0,0-1.224,2.627c-2.137,1.99-4.5,3.619-7.474,3.937-1.746-.429-2.926-2.429-3.957-3.8l-8.059-10.418-6.261,4.034c-1.1-1.527-1.793-4.291-2.483-6.074l-4.629-11.476a54.471,54.471,0,0,1-13.31,5.314l-7.727-33.255-2.992-1.851c-2.01-1.451-3.1-4.66-4.25-6.826Z" fill="#dba2c9"/>
        <path id="Path_632" data-name="Path 632" d="M5189.9,1829.164l-7.73-.429a21.431,21.431,0,0,1,3.667-2.443l8.174-4.848,24.677-14.4L5357.129,1726l-4.678,8.074-16.331,28.7-6.914,12.531a40.612,40.612,0,0,1-4.5,7.253c-4.261,1.408-8.586,4.638-12.52,6.9l-23.153,13.272-34.528,20.108c-5.594,3.228-11.684,6.146-17.038,9.707-3.487-1.2-9.331-.695-13.134-.942Z" fill="#020202"/>
        <path id="Path_633" data-name="Path 633" d="M5324.711,1782.558l1.047.66a25.016,25.016,0,0,1,3.577,4.238l6.5,8.635,20.569,26.078-.858,1.28-84.462,48.5-10.2,5.818c-2.053-2.7-3.54-6.677-5.123-9.728l-12.858-25.047c-1.469-2.919-2.646-6.452-4.706-8.989l-.756-.7.029-.758c5.354-3.561,11.444-6.479,17.038-9.707l34.528-20.108,23.153-13.272C5316.125,1787.2,5320.45,1783.966,5324.711,1782.558Z" fill="#020202"/>
        <path id="Path_634" data-name="Path 634" d="M5324.711,1782.558l1.047.66c-2.665,2.306-6.242,4-9.3,5.759l-18.309,10.505-34.207,19.958c-8.5,4.991-16.922,10.149-25.746,14.562l-.756-.7.029-.758c5.354-3.561,11.444-6.479,17.038-9.707l34.528-20.108,23.153-13.272C5316.125,1787.2,5320.45,1783.966,5324.711,1782.558Z" fill="#020202"/>
        <path id="Path_635" data-name="Path 635" d="M5060.376,2096.642c8.511-.878,17.7-.228,26.271-.243l53.857.026,146.745.034-.319.186-19.578,8.565c-1.955,1.03-4.382.748-6.528.716l-9.929-.034-27.024-.005c-4.923.017-9.984-.187-14.884.235a116.635,116.635,0,0,1,16.963,6.067c2.483,1.088,5.313,2.173,7.371,3.956,2.381,2.064,4.363,5.676,6.088,8.308l10.916,16.981-12.473,18.713a75.712,75.712,0,0,0-8.682-7.532,45.013,45.013,0,0,0-9.438-6.018c-6.718-2.886-14.52-2.534-21.674-2.569l-19.984-.327c-4.223-.106-8.9.086-13.032-.714l-.5-.095c-4-.749-7.643-3.655-11.067-5.777l-14.392-8.959-25.691-15.982-6.706-4.288a13.856,13.856,0,0,0-2.4-1.551,16.187,16.187,0,0,0-3.3.031l-8.8-.037c-8.732-.175-16.412-3.232-24.382-6.433C5065.353,2098.912,5062.588,2098.092,5060.376,2096.642Z" fill="#020202"/>
        <path id="Path_636" data-name="Path 636" d="M5137.733,2105.932l65.215.005-9.448,4.776-17.141,5.568-10.376,2.427a15.482,15.482,0,0,1-3.274.574c-1.052-.127-3.172-1.6-4.267-2.152Z" fill="#f0ebd5"/>
        <path id="Path_637" data-name="Path 637" d="M5271.087,1871.948l84.462-48.5.121.252c1.726,3.758,2.526,8.324,4,12.273,6.193,16.591,15.656,33.209,33.04,39.963l4.742,1.575,1.471-.432c-.053,3.084-1.878,7.023-2.8,9.982l-11.908,35.514-5.289,18.771.02,2.019c-2.739-2.731-6.638-4.578-9.91-6.654l-14.5-9.53c-1.279,2.287-2.09,4.946-3.323,7.313a68.37,68.37,0,0,1-19.273,22.686,12.52,12.52,0,0,1,1.224-2.627,14.979,14.979,0,0,0,1.014-3.626c2.059-12.378-3.466-27.306-7.153-39.037-2.762-8.786-5.864-19.652-11.373-27.175a21.514,21.514,0,0,0-9.2-7.167c-4.7-1.8-11-1.56-16.005-2.3Z" fill="#020202"/>
        <path id="Path_638" data-name="Path 638" d="M5325.787,1851.8a11.956,11.956,0,0,1,5.6.759c4.794,2.1,8.3,6.869,10.115,11.655,3.331,8.774,2.528,17.63-1.329,26.069l-.628-.2-13.918-20.651c-1.945-3.5-5.613-9.96-4.168-14.028C5322.181,1853.388,5323.983,1852.608,5325.787,1851.8Z" fill="#dba2c9"/>
        <path id="Path_639" data-name="Path 639" d="M5325.278,1857.237a4.07,4.07,0,0,1,1.583-.175c2.282.352,4.705,3.987,5.922,5.724,3.947,5.633,5.059,10.679,3.839,17.453h-.38l-.384-1.509-1.627-5.481c-1.2-3.127-4.782-12.315-7.693-13.593a7.767,7.767,0,0,0-1.78,1.541l-.213.237-.335-.615A5.387,5.387,0,0,1,5325.278,1857.237Z" fill="#020202"/>
        <path id="Path_640" data-name="Path 640" d="M5398.922,1877.08c-.053,3.084-1.878,7.023-2.8,9.982l-11.908,35.514-5.289,18.771c-3.022-12.648-11.415-22.484-20.081-31.753l-17.753-17.555c15.393.357,30.979-2.165,45.064-8.464a65.158,65.158,0,0,0,11.3-6.063Z" fill="#dba2c9"/>
        <path id="Path_641" data-name="Path 641" d="M5398.922,1877.08l.643-.612,16.376,10.651,12.182,7.483c1.33.845,3.385,1.813,4.424,2.958,2.252,1.769,4.762,3.116,7.166,4.659l18.834,11.414,46.792,28.736,13.2,8.08c1.739,1.056,4.228,2.123,5.641,3.556l.372.054v211.6l-.513-.563-135.7-191.874-.394-.859c-.233-4.1-2.334-9.124-3.347-13.157-1.059-5.432-4.053-10.514-5.661-15.843l-.02-2.019,5.289-18.771,11.908-35.514C5397.044,1884.1,5398.869,1880.164,5398.922,1877.08Z" fill="#fab017"/>
        <path id="Path_642" data-name="Path 642" d="M5407.687,1973.237a10.691,10.691,0,0,1,3.75.11,5.994,5.994,0,0,1,3.433,3.008,5.865,5.865,0,0,1,.229,4.76,6.89,6.89,0,0,1-3.887,3.609,8.213,8.213,0,0,1-2.128.1,6.888,6.888,0,0,1-4.769-2.772,5.532,5.532,0,0,1-.842-4.533C5404.083,1975.162,5405.7,1974.294,5407.687,1973.237Z" fill="#020202"/>
        <path id="Path_643" data-name="Path 643" d="M5398.922,1877.08l.643-.612,16.376,10.651,12.182,7.483c1.33.845,3.385,1.813,4.424,2.958l-44.6,74.806c-.233-4.1-2.334-9.124-3.347-13.157-1.059-5.432-4.053-10.514-5.661-15.843l-.02-2.019,5.289-18.771,11.908-35.514C5397.044,1884.1,5398.869,1880.164,5398.922,1877.08Z" fill="#020202"/>
        <path id="Path_644" data-name="Path 644" d="M5398.922,1877.08l.643-.612,16.376,10.651-31.34,72.09c-1.059-5.432-4.053-10.514-5.661-15.843l-.02-2.019,5.289-18.771,11.908-35.514C5397.044,1884.1,5398.869,1880.164,5398.922,1877.08Z" fill="#fab017"/>
        <path id="Path_645" data-name="Path 645" d="M5388.342,1973.225l135.7,191.874.513.563v225.7l-20.215-15.757L5465.2,2345.12l-89.24-69.815-105.7-81.342-21.98-17.22c-2.355-1.875-7.446-5.068-8.75-7.682-.465-.976-3.883-2.992-4.911-3.731l3.23-5.183,12.473-18.713c3.658-4.329,6.675-9.809,9.756-14.591a24.322,24.322,0,0,1,5.073,3.57c.428-.6.538-.875,1.226-1.171l191.333,103.077Z" fill="#020202"/>
        <path id="Path_646" data-name="Path 646" d="M5250.325,2141.434c3.658-4.329,6.675-9.809,9.756-14.591a24.322,24.322,0,0,1,5.073,3.57l-22.816,39.93c-1.073.156-1.906-.7-2.8-1.282-.465-.976-3.883-2.992-4.911-3.731l3.23-5.183Z" fill="#f0ebd5"/>
      </g>
      <g id="Group_80" data-name="Group 80" transform="translate(-4158)">
        <path id="Path_647" data-name="Path 647" d="M4639.635,2043.955l.115-.26c1.047-2.568.585-6,.377-8.733a31.018,31.018,0,0,0-3.576-2.879c-.35-3.758-1.623-9.828,1.017-12.97a6.644,6.644,0,0,1,4.767-2.113l11.682.013c.182,2.2.067,5.123.806,7.17.954,2.64,4.137,5.926,4.263,8.445a14.11,14.11,0,0,1-1.821,1.244c.082,2.092.818,3.9.664,6.041a2.554,2.554,0,0,1-2.523.528,30.4,30.4,0,0,0-4.666-.427l-.094,5.066Z" fill="#020202"/>
        <g id="Group_79" data-name="Group 79">
          <path id="Path_648" data-name="Path 648" d="M4632.1,2076.517l-17.26,9.585,18.644,27.251,6.775,10.124-7.56-46.766Z" fill="none"/>
          <path id="Path_649" data-name="Path 649" d="M4717.448,2061.656l-33.331,16.372-32.333-31.362-.426.462,1.461,11.238-13.408-13.644a9.169,9.169,0,0,0-2.82,2.58l-5.161,5.7-20.9,23.007c-2.8,3.107-6.149,6.141-8.63,9.49l28.1,32.953,8.97,10.275c1.251,1.411,3.624,3.528,4.239,5.311.946,2.75,1.065,6.432,1.546,9.355l3.818,21.545c.243,1.487,1.2,4.613.976,5.969a17.73,17.73,0,0,1-1.751,3.958l-3.782,7.629-19.948,40.7-4.42,9.344a37.127,37.127,0,0,0-2.367,5.217l12.469,7.446,2.04,1.583.119-.527-10.817-10.461,38.594-56.234,5.8,66.2.488,1.036,12.988.035c-.668-.594-1.878-.619-2.741-.776l-7.907-1.376-.421-96.908-1.406-72.82,17.587,11.787,35.2-22.647,10.515-6.774a48.932,48.932,0,0,0,6.023-4.022C4729.519,2055.5,4723.468,2058.791,4717.448,2061.656Zm-83.959,51.7-18.644-27.251,17.26-9.585.6.194,7.559,46.766Z" fill="#020202"/>
        </g>
      </g>
      <g id="Group_81" data-name="Group 81" transform="translate(-4158)">
        <path id="Path_650" data-name="Path 650" d="M5156.05,1733.026c.352-11.227,3.068-21.74,9.136-31.29,8.144-12.82,20.735-22.625,35.655-26.02-2.945,3.948-6.337,7.468-9.176,11.517a76.138,76.138,0,0,0-13.343,31.721,38.773,38.773,0,0,0-.618,10.8c-4.544-.447-10.023.727-14.462,1.744A49.021,49.021,0,0,0,5156.05,1733.026Z" fill="#fab017"/>
        <path id="Path_651" data-name="Path 651" d="M5156.05,1733.026a49.021,49.021,0,0,1,7.192-1.533c-10.893,7.432-18.087,20.538-20.542,33.369a80.263,80.263,0,0,0-.555,25.259l-11.926,5.568a54.84,54.84,0,0,1-6.356,2.883,1.858,1.858,0,0,1-.4-.62,31.041,31.041,0,0,1-1.288-6.385,53.174,53.174,0,0,1,2.271-25.448C5130,1750.208,5141.186,1740.1,5156.05,1733.026Z" fill="#f0ebd5"/>
        <path id="Path_652" data-name="Path 652" d="M5200.841,1675.716a58.713,58.713,0,0,1,43.463,6.859l10.862,8.043c-11.267,12.6-16.359,28.882-15.429,45.689l.966,8.044-19.743,9.234-6.3-7.435a53.847,53.847,0,0,0-36.956-16.4,38.773,38.773,0,0,1,.618-10.8,76.138,76.138,0,0,1,13.343-31.721C5194.5,1683.184,5197.9,1679.664,5200.841,1675.716Z" fill="#fab017"/>
        <path id="Path_653" data-name="Path 653" d="M5255.166,1690.618a56.174,56.174,0,0,1,26.812-16.062c13.74-4.027,29.687-2.686,42.3,4.261a52.83,52.83,0,0,1,18.607,17.418l-77.337,36.316-24.848,11.8-.966-8.044C5238.807,1719.5,5243.9,1703.222,5255.166,1690.618Z" fill="#dba2c9"/>
        <path id="Path_654" data-name="Path 654" d="M5255.166,1690.618a56.174,56.174,0,0,1,26.812-16.062c-2.58,4.139-5.678,7.794-8,12.143-6.853,12.864-10.722,31.474-8.432,45.852l-24.848,11.8-.966-8.044C5238.807,1719.5,5243.9,1703.222,5255.166,1690.618Z" fill="#dba2c9"/>
        <path id="Path_655" data-name="Path 655" d="M5067.572,1825.924c15.777-5.3,30.944-13.218,45.974-20.342l62.055-29.274,226.967-108.015c-14.918,56.842-58.657,109.011-109.2,138.489-19.024,11.095-39.892,20.845-61.063,27.057-44.026,12.918-92.2,13.034-136.453,1.23Z" fill="#020202"/>
        <path id="Path_656" data-name="Path 656" d="M5163.242,1731.493c4.439-1.017,9.918-2.191,14.462-1.744a53.847,53.847,0,0,1,36.956,16.4l6.3,7.435,19.743-9.234,24.848-11.8,77.337-36.316.38-.129c5.118-1.8,10.18-4.58,15.1-6.886l28.619-13.409c4.2-1.964,9.116-4.944,13.535-6.083,1.385-.358,1.65-.122,2.945.418a5.188,5.188,0,0,1,.987,3.485c-1.6,2.834-4.209,3.821-6.989,5.274a71.547,71.547,0,0,1-9.75,8.562,155.945,155.945,0,0,1-26.475,16.818c-5.553,2.818-11.445,5.25-16.811,8.4L5205.1,1778.988l-38.094,17.97c-9.226,4.373-18.537,9.231-28.222,12.488a16.593,16.593,0,0,0-4.564,1.414l-9.037,3.586-28.1,10.1c-6.416,2.145-14.1,5.995-20.95,4.62a12.515,12.515,0,0,1-3.889.13,7.08,7.08,0,0,1-4.441-3.285l.17-.748,55.973-26.335-.085-.353a54.84,54.84,0,0,0,6.356-2.883l11.926-5.568a80.263,80.263,0,0,1,.555-25.259C5145.155,1752.031,5152.349,1738.925,5163.242,1731.493Z" fill="#020202"/>
        <path id="Path_657" data-name="Path 657" d="M5077.28,1828.626l321.334-150.257a71.473,71.473,0,0,1-9.75,8.561,155.922,155.922,0,0,1-26.475,16.818c-5.553,2.819-11.446,5.251-16.812,8.4l-139.328,66.307-38.094,17.97c-9.226,4.373-18.537,9.232-28.222,12.488a16.585,16.585,0,0,0-4.564,1.415l-9.037,3.585-28.1,10.1C5091.814,1826.151,5084.127,1830,5077.28,1828.626Z" fill="#f0ebd5"/>
      </g>
    </g>
  </g>
</svg>
