<svg xmlns="http://www.w3.org/2000/svg" xmlns:xlink="http://www.w3.org/1999/xlink" width="368" height="485" viewBox="0 0 368 485">
  <defs>
    <clipPath id="clip-path">
      <rect id="Rectangle_21" data-name="Rectangle 21" width="368" height="485" transform="translate(-3 3835)" fill="none"/>
    </clipPath>
  </defs>
  <g id="Group_28" data-name="Group 28" transform="translate(3 -3835)">
    <g id="Group_27" data-name="Group 27" clip-path="url(#clip-path)">
      <g id="Group_26" data-name="Group 26">
        <g id="acz41j">
          <g id="Group_25" data-name="Group 25">
            <path id="Path_33" data-name="Path 33" d="M283,4140.418c-6.233-2.347-8.934-7.863-11.633-13.279-.2-.394,1.334-2.273,2.3-2.511,3.8-.937,6.485,1.628,9.337,3.529Z" fill="#f0ebd5"/>
            <path id="Path_34" data-name="Path 34" d="M283,4177.92c-.376.467-.76.927-1.127,1.4-1.866,2.405-4.67,3.35-6.976,1.865-2.493-1.6-1.062-4.536.184-6.44,2.4-3.666,5.254-7.036,7.919-10.529Z" fill="#f0ebd5"/>
            <path id="Path_35" data-name="Path 35" d="M-30.217,4159.243c-1.981-.942-4.626-1.421-5.717-2.984-.771-1.1.1-3.973,1.074-5.524a15.849,15.849,0,0,1,5.074-4.907,85.393,85.393,0,0,1,9.992-4.877A4.243,4.243,0,0,1-14,4143.16a7.928,7.928,0,0,1,.182,5.99C-16.109,4153.847-24.743,4158.624-30.217,4159.243Z" fill="#f0ebd5"/>
            <path id="Path_36" data-name="Path 36" d="M4.577,4108.961c-.007-3.532,1.7-5.545,5.133-4.4a87.77,87.77,0,0,1,15.756,7.281c2.5,1.432,2.633,4.868,1.109,7.1-.915,1.342-3.487,1.985-5.381,2.141a16.446,16.446,0,0,1-12.821-4.511c-2-1.875-3.141-4.666-4.668-7.045Z" fill="#f0ebd5"/>
            <path id="Path_37" data-name="Path 37" d="M26.985,4061.127c-3.1-.3-5.427-.9-5-4.032,1.065-7.766,5.924-16.859,15.661-18.112,1.374-.177,3.447.088,4.136.973s.537,3.04-.048,4.25c-2.759,5.71-5.472,11.538-11.137,15.112A34.66,34.66,0,0,1,26.985,4061.127Z" fill="#f0ebd5"/>
            <path id="Path_38" data-name="Path 38" d="M45.262,4142.5c-.5-.68-1.452-1.935-2.329-3.244-.163-.242.013-.7,0-1.057-.192-6.883,12.489-17.087,18.894-15.52,2.474.6,3.577,1.223,2.819,4C62.536,4134.437,53.15,4142.736,45.262,4142.5Z" fill="#f0ebd5"/>
            <path id="Path_39" data-name="Path 39" d="M89.645,4174.556c-.395-.271-2.066-.836-2.18-1.626-.215-1.489-.071-3.848.875-4.536a64.566,64.566,0,0,1,10.147-5.853,34.754,34.754,0,0,1,6.885-2.027c3.14-.757,7,.657,7.821,2.993,1.18,3.377-.7,5.611-3.44,7.031a25.257,25.257,0,0,1-7.023,2.572C98.728,4173.826,94.637,4174.035,89.645,4174.556Z" fill="#f0ebd5"/>
            <path id="Path_40" data-name="Path 40" d="M162.681,4005.34c-6.856-2.273-13.351-3.494-18.122-8.175-1.22-1.2-2.086-4.445-1.339-5.561,1.1-1.646,3.916-3.28,5.791-3.069,6.618.746,12.108,4.215,16.523,9.147a4.582,4.582,0,0,1,.79,4.049C165.615,4003.214,163.89,4004.212,162.681,4005.34Z" fill="#f0ebd5"/>
            <path id="Path_41" data-name="Path 41" d="M-17.494,4079.156c-1.672-.829-4.556-1.444-4.747-2.533-.34-1.93.3-4.933,1.692-6.095A58.069,58.069,0,0,1-8.072,4062.4c1.661-.774,5.081.326,6.664,1.735,2.348,2.09.4,5.03-1.09,6.751C-6.9,4075.971-9.118,4078.461-17.494,4079.156Z" fill="#f0ebd5"/>
            <path id="Path_42" data-name="Path 42" d="M24.955,4157.054c-.159,3.838-1.111,4.607-4.938,3.993-6.611-1.061-13.156-9.642-12.45-16.326.273-2.583,3.958-4.823,6.532-3.97C19.151,4142.427,25.185,4151.488,24.955,4157.054Z" fill="#f0ebd5"/>
            <path id="Path_43" data-name="Path 43" d="M190.471,4140.493c-5.3-.082-8.362-5.711-5.932-9.394,2.919-4.427,6.78-8.072,12.075-9.607,4.154-1.2,6.369.923,5.36,5.116-1.063,4.416-2.187,8.917-6.5,11.471A52.269,52.269,0,0,1,190.471,4140.493Z" fill="#f0ebd5"/>
            <path id="Path_44" data-name="Path 44" d="M190.349,4186.906a70.392,70.392,0,0,1-9.538-1.872,6,6,0,0,1-3.539-3.809c-.238-1.271,1.219-3.917,2.359-4.2a40.917,40.917,0,0,1,12.2-1.5c2.808.181,5.716,1.874,8.152,3.523,1.318.892,2.183,3.066,2.341,4.748.061.646-2.327,1.893-3.748,2.223A70.12,70.12,0,0,1,190.349,4186.906Z" fill="#f0ebd5"/>
            <path id="Path_45" data-name="Path 45" d="M13.463,4071.778c2.374,1.616,5.194,2.528,5.527,4a9.076,9.076,0,0,1-1.5,6.966,22.047,22.047,0,0,1-14.267,7.579c-1.119.147-3.351-1.4-3.573-2.478-.659-3.191-.506-6.532,2.692-8.684C5.953,4076.734,9.59,4074.347,13.463,4071.778Z" fill="#f0ebd5"/>
            <path id="Path_46" data-name="Path 46" d="M-26.457,4112.388c-.128-2.286.754-3.209,3.156-3.267,4.478-.109,6.587,3.076,8.724,6.029a49.548,49.548,0,0,1,6.085,10.02c1.677,4.118-.654,6.256-4.972,4.914-5.769-1.793-9.42-5.972-11.619-11.4A36.626,36.626,0,0,1-26.457,4112.388Z" fill="#f0ebd5"/>
            <path id="Path_47" data-name="Path 47" d="M218.026,4057.791c-7.869-.646-13.344-4-17.338-9.564a5.992,5.992,0,0,1-.283-5.243c.491-.957,3.11-1.457,4.581-1.165,6.2,1.232,12.069,3.355,15.651,9.083.942,1.5,2.108,3.818,1.561,5.037C221.667,4057.124,219.068,4057.381,218.026,4057.791Z" fill="#f0ebd5"/>
            <path id="Path_48" data-name="Path 48" d="M-80.345,4144.22c-.118,6.995-5,12.757-11.473,13.422-4.045.416-5.792-1.642-4.946-5.623,1.277-6,5.345-10.088,9.628-13.952,1.87-1.687,5.724-.213,6.352,2.242A27.036,27.036,0,0,1-80.345,4144.22Z" fill="#f0ebd5"/>
            <path id="Path_49" data-name="Path 49" d="M223.682,4149.06a18.321,18.321,0,0,1-14.213-7.989,9.917,9.917,0,0,1-1.257-6.444c.445-3.648,3.871-5.029,6.956-3a35.394,35.394,0,0,1,12.6,13.455C229.134,4147.764,227.637,4149.205,223.682,4149.06Z" fill="#f0ebd5"/>
            <path id="Path_50" data-name="Path 50" d="M110.592,4057.522c-3.907.013-5.556-1.721-4.929-4.981.328-1.71.823-3.885,2.037-4.834a61.383,61.383,0,0,1,11.3-7.245c1.442-.683,4.506.2,5.681,1.444.83.881.188,3.808-.6,5.434C121.261,4053.182,116.653,4056.844,110.592,4057.522Z" fill="#f0ebd5"/>
            <path id="Path_51" data-name="Path 51" d="M259.553,4166.577c-4.925.1-6.636-2.1-5.612-5.747,1.8-6.412,9.549-12.168,16.349-12.023,2.342.05,3.971,1.679,3.02,3.741-1.648,3.574-3.58,7.254-6.278,10.03C264.928,4164.742,261.482,4165.6,259.553,4166.577Z" fill="#f0ebd5"/>
            <path id="Path_52" data-name="Path 52" d="M129.276,4103.333c2.494,1.027,5.265,1.473,7.008,3.053,2.474,2.242,1.847,5.133-1.463,6.627-3.225,1.454-6.847,2.042-10.314,2.936-1.153.3-2.422.2-3.538.572-2.5.841-4.7,1.143-6.048-1.814-1.1-2.4-.164-6.3,2.525-7.48C121.106,4105.618,125.062,4104.681,129.276,4103.333Z" fill="#f0ebd5"/>
            <path id="Path_53" data-name="Path 53" d="M155.9,4138.7c-2.772-.661-5.831-1.2-8.761-2.144-3.039-.978-3.537-3.907-1.248-6.11,4.329-4.165,13.933-5.329,19.248-2.407,2.542,1.4,2.876,3.685,2.6,6.156-.26,2.342-1.95,2.944-4.089,3.156C161.18,4137.594,158.742,4138.187,155.9,4138.7Z" fill="#f0ebd5"/>
            <path id="Path_54" data-name="Path 54" d="M126.463,4073.218c5.231.578,10.123.985,14.968,1.7,2.809.417,3.355,2.379,1.582,4.669-3.964,5.122-8.023,6.54-14.2,4.207-3.75-1.415-7.221-3.59-10.754-5.539-.626-.345-1.435-1.431-1.282-1.87a3.09,3.09,0,0,1,1.9-1.729C121.341,4074.023,124.071,4073.641,126.463,4073.218Z" fill="#f0ebd5"/>
            <path id="Path_55" data-name="Path 55" d="M-58.625,4090.822a71.446,71.446,0,0,1,2.377-8.045c1.494-3.569,5.193-3.933,7.224-.718,2.866,4.539,4.85,9.405,3.176,14.942a6.315,6.315,0,0,1-5.978,4.9c-3.248.174-4.619-2.117-5.379-4.825C-57.752,4095.124-58.11,4093.124-58.625,4090.822Z" fill="#f0ebd5"/>
            <path id="Path_56" data-name="Path 56" d="M219.916,4102.22a75.077,75.077,0,0,1,8,3.993c2.492,1.628,4.633,3.787,6.97,5.66,2.258,1.809,2.325,4.107,1.339,6.473-1.068,2.563-3.2,1.595-4.957,1.026-5.835-1.888-11.736-3.794-14.925-9.7-.723-1.338-1.663-3.477-1.1-4.377C216.1,4103.916,218.17,4103.285,219.916,4102.22Z" fill="#f0ebd5"/>
            <path id="Path_57" data-name="Path 57" d="M148.218,4020.358c.337,4.165-2.868,5.715-6.118,7.111-3.481,1.5-7.022,1.866-10.1-.867-2.5-2.216-2.586-7.4.085-9.349a27.028,27.028,0,0,1,8.2-4.2C144.775,4011.753,148.249,4015.093,148.218,4020.358Z" fill="#f0ebd5"/>
            <path id="Path_58" data-name="Path 58" d="M58.871,4033.861c-3.881-2.145-7.97-4-11.569-6.542-2.359-1.667-1.375-5.386,1.334-6.8,4.523-2.366,13.374-.1,17.551,4.7a29.72,29.72,0,0,1,2.9,5.006c-1.816.75-3.592,1.626-5.46,2.207a27.133,27.133,0,0,1-4.237.646Z" fill="#f0ebd5"/>
            <path id="Path_59" data-name="Path 59" d="M195.926,4073.009c-8.047-.274-12.848-4.728-17.977-8.329-.847-.595-1.122-3.633-.408-4.463,1.25-1.452,3.763-3.208,5.236-2.833,6.133,1.563,11.91,4.2,15.662,9.71.687,1.01,1.273,3.022.757,3.712C198.254,4072.067,196.453,4072.685,195.926,4073.009Z" fill="#f0ebd5"/>
            <path id="Path_60" data-name="Path 60" d="M42.717,4181.785c-4.868-.424-9.53-1.126-13.279-4.64-1.937-1.817-1.745-3.293.254-5.024,6.169-5.341,16.862-3.843,21.237,4.779,1.1,2.177-.409,3.526-2.226,4.058A38.51,38.51,0,0,1,42.717,4181.785Z" fill="#f0ebd5"/>
            <path id="Path_61" data-name="Path 61" d="M79.089,4147.952c2.338.609,5.259,1.2,8.062,2.146a4.516,4.516,0,0,1,3.062,6.031c-.418,1.177-2.881,2.25-4.44,2.284a128.145,128.145,0,0,1-15.288-.571c-2.028-.2-4.464-1.152-4.226-4.009.227-2.729,2.043-4.258,4.69-4.705C73.421,4148.71,75.911,4148.406,79.089,4147.952Z" fill="#f0ebd5"/>
            <path id="Path_62" data-name="Path 62" d="M50.587,4101.606c-5.129-1.479-10.049-2.527-14.616-4.426-1.5-.626-2.4-3.376-2.89-5.327-.128-.516,2.2-2.112,3.587-2.457,6.142-1.527,12.12-1.711,17.162,3.173a5.636,5.636,0,0,1,1.14,6.912C54.408,4100.611,52.155,4100.9,50.587,4101.606Z" fill="#f0ebd5"/>
            <path id="Path_63" data-name="Path 63" d="M132.372,4165.206c-.8-.52-2.855-1.126-3.171-2.229-.41-1.429,0-3.918,1.04-4.793a114.437,114.437,0,0,1,13.509-9.934c1.309-.809,3.777.255,5.713.46a20.665,20.665,0,0,1-.739,4.259C145.939,4159.986,140.913,4164.2,132.372,4165.206Z" fill="#f0ebd5"/>
            <path id="Path_64" data-name="Path 64" d="M-63.068,4149.607c-5.585-.482-7.243-3.205-4.7-7.9,2.735-5.049,7.706-6.814,12.786-7.652,4.162-.687,6.63,3.084,5.146,7.1-1.154,3.129-3.276,5.171-6.822,5.434a6.456,6.456,0,0,0-2.152.858C-60.239,4148.145-61.649,4148.885-63.068,4149.607Z" fill="#f0ebd5"/>
            <path id="Path_65" data-name="Path 65" d="M-98.225,4183.571a90.254,90.254,0,0,1-7.663-4.933,20,20,0,0,1-3.857-4.71,5.388,5.388,0,0,1,.67-7.5,4.291,4.291,0,0,1,6.464.093,76.962,76.962,0,0,1,9.2,10.819C-91.573,4180.1-93.867,4183.572-98.225,4183.571Z" fill="#f0ebd5"/>
            <path id="Path_66" data-name="Path 66" d="M13.287,4024.967c.739.7,2.513,1.821,3.475,3.429,1.289,2.154-.759,3.129-2.13,4.545-3.26,3.367-6.95,5.883-11.529,6.623a6.928,6.928,0,0,1-5.022-1.425c-1.627-1.4-1.32-3.368-.164-5.5C1.007,4026.948,6.038,4025.307,13.287,4024.967Z" fill="#f0ebd5"/>
            <path id="Path_67" data-name="Path 67" d="M195.428,4158.24c-.086-3.179.7-5.789,3.636-7.392,3.75-2.043,7.859.043,8.156,4.282.226,3.214.077,6.453.157,9.679.064,2.609-.331,5.054-3.495,5.265-3.1.206-5.837-1.082-6.935-4.115C196.065,4163.522,195.907,4160.823,195.428,4158.24Z" fill="#f0ebd5"/>
            <path id="Path_68" data-name="Path 68" d="M159.441,4111.451c-6.224.9-9.236-3.247-12.413-6.354-1.964-1.92-1.715-5.172.435-7.559a5.589,5.589,0,0,1,7.222-1.187c4.892,2.609,8.213,6.542,8.753,12.325C163.82,4112.78,160.56,4111.082,159.441,4111.451Z" fill="#f0ebd5"/>
            <path id="Path_69" data-name="Path 69" d="M-78.3,4090.511a4.111,4.111,0,0,1-3.59-6.152,63.043,63.043,0,0,1,7.95-10.722c1.165-1.192,4.306-1.224,6.182-.631.986.311,1.862,3.216,1.623,4.772C-67.193,4084.668-73.036,4090.536-78.3,4090.511Z" fill="#f0ebd5"/>
            <path id="Path_70" data-name="Path 70" d="M.47,3993.677c-1.031-.821-2.973-1.6-3.272-2.793-.4-1.611-.152-4.536.873-5.159a89.37,89.37,0,0,1,13.688-6.688,5.769,5.769,0,0,1,4.955,1.17c.9.831,1.3,3.853.6,4.507A38.173,38.173,0,0,1,.47,3993.677Z" fill="#f0ebd5"/>
            <path id="Path_71" data-name="Path 71" d="M-88.762,4120.185c-3.423.054-4.6-1.446-3.6-4.749.306-1.008.693-2.394,1.464-2.792,5.025-2.6,10.005-5.447,15.33-7.228,3.12-1.043,4.764,1.371,3.355,4.514a11.826,11.826,0,0,1-4.237,5.012c-3.774,2.337-7.893,4.118-11.87,6.126Z" fill="#f0ebd5"/>
            <path id="Path_72" data-name="Path 72" d="M-46.372,4130.36c-4.626-1.134-8.759-1.815-12.606-3.258-1.477-.554-3.36-3.008-3.161-4.305.26-1.7,2.161-4.063,3.776-4.468,5.5-1.379,10.688.656,15.26,3.511,1.3.81,2.081,4.07,1.54,5.684C-42.017,4128.879-44.739,4129.475-46.372,4130.36Z" fill="#f0ebd5"/>
            <path id="Path_73" data-name="Path 73" d="M43.045,3957.971a18.915,18.915,0,0,1-4.639-.09c-1.213-.316-3.03-1.317-3.136-2.191a6.29,6.29,0,0,1,1.482-4.317,6.94,6.94,0,0,1,3.807-1.807A66.408,66.408,0,0,1,51.172,3948a11.34,11.34,0,0,1,5.979,1.78c1.068.661,1.725,2.557,1.814,3.946.036.56-1.867,1.515-3.014,1.831-4.215,1.162-8.483,2.132-12.731,3.175Z" fill="#f0ebd5"/>
            <path id="Path_74" data-name="Path 74" d="M112.432,4085.369c2.176,1.289,5.066,2.078,5.327,3.39.317,1.6-1.1,4.316-2.6,5.355-3.576,2.482-7.285,5.386-11.994,5a7.149,7.149,0,0,1-4.845-2.561c-1.4-2.083-1.286-5.068,1.271-6.3C103.609,4088.308,107.949,4087.031,112.432,4085.369Z" fill="#f0ebd5"/>
            <path id="Path_75" data-name="Path 75" d="M71.951,4086.475c-2.424-.748-4.995-1.2-7.23-2.326-2.2-1.1-2.056-3.3.192-4.423a32.585,32.585,0,0,1,22.072-2.751c2.368.516,2.882,3.43.642,4.984a20.462,20.462,0,0,1-6.856,2.837,73.431,73.431,0,0,1-8.561,1.068Z" fill="#f0ebd5"/>
            <path id="Path_76" data-name="Path 76" d="M93.9,4037.726c1.172.343,3.461.511,3.6,1.15.379,1.734.5,4.135-.44,5.437-3.672,5.1-9.562,6.548-15.272,7.718-2.679.549-4.439-2.942-3.184-5.536C81.665,4040.181,87.52,4038.811,93.9,4037.726Z" fill="#f0ebd5"/>
            <path id="Path_77" data-name="Path 77" d="M-67.795,4161.57c1.555,1.091,3.463,1.746,3.977,2.981s.217,3.848-.7,4.505a74.583,74.583,0,0,1-11.3,6.667c-1.864.892-6.017-1.973-6.415-4.186-.464-2.581-.1-5.332,2.668-6.4C-75.831,4163.7-71.894,4162.784-67.795,4161.57Z" fill="#f0ebd5"/>
            <path id="Path_78" data-name="Path 78" d="M-23.063,4056.488c-2.289-1.2-4.566-1.724-5.518-3.138-.633-.94.305-3.336,1.1-4.767,2.984-5.362,8.222-6.623,13.779-6.734,1.028-.021,2.99,1.571,2.96,2.358-.088,2.227-.279,5.3-1.708,6.449C-15.5,4053.1-19.365,4054.546-23.063,4056.488Z" fill="#f0ebd5"/>
            <path id="Path_79" data-name="Path 79" d="M142.04,3971.531c-4.962-1.455-9.313-2.66-13.615-4.021-2.252-.712-4.146-2.377-3.173-4.758a10.259,10.259,0,0,1,4.378-4.5c1.1-.619,3.182-.277,4.458.363a71.315,71.315,0,0,1,9.778,5.825c1.089.786,2.172,2.951,1.822,4.013C145.262,3969.742,143.319,3970.531,142.04,3971.531Z" fill="#f0ebd5"/>
            <path id="Path_80" data-name="Path 80" d="M20.037,4017.326c-4.237-1.252-8.206-2.162-11.962-3.619a5.054,5.054,0,0,1-3.155-6.771c1.08-3.034,4.082-2.969,6.42-2.255a61.21,61.21,0,0,1,11.718,4.85c1.229.68,2.415,3.7,1.875,4.764C24.2,4015.739,21.792,4016.332,20.037,4017.326Z" fill="#f0ebd5"/>
            <path id="Path_81" data-name="Path 81" d="M-23.448,4025.117a14.679,14.679,0,0,1-3.9-.425c-1.206-.466-3.053-1.5-3.07-2.324-.028-1.424.8-3.747,1.86-4.155a123.635,123.635,0,0,1,13.241-3.943,3.4,3.4,0,0,1,2.736.482c1.51,1.391,3.573,2.99,3.778,4.7.134,1.114-2.4,3.175-4.1,3.746-3.358,1.129-6.965,1.519-10.469,2.215Z" fill="#f0ebd5"/>
            <path id="Path_82" data-name="Path 82" d="M175.5,4113.41c-2.633-.006-3.707-2.169-2.972-4.782,1.237-4.4,4.628-6.6,8.472-8.122a22.39,22.39,0,0,1,7-1.413,4.712,4.712,0,0,1,3.588,1.621c.523.75.131,2.582-.453,3.584C187.58,4110.407,181.1,4111.544,175.5,4113.41Z" fill="#f0ebd5"/>
            <path id="Path_83" data-name="Path 83" d="M-9.048,4178.793c-1.1-.9-3.233-1.827-3.807-3.348-.509-1.35.165-4.17,1.276-4.92a78.88,78.88,0,0,1,12.172-6.587c1.2-.531,3.333.046,4.5.875.573.407.166,2.63-.235,3.893C2.848,4175.025-2.48,4177.034-9.048,4178.793Z" fill="#f0ebd5"/>
            <path id="Path_84" data-name="Path 84" d="M202.306,4084.762c.143-3.6,2.378-5.47,4.988-7.177,3.62-2.366,7.346-4.24,11.767-2.669,3.3,1.173,4.182,4,1.434,5.865a81.59,81.59,0,0,1-14.12,7.452C203.684,4089.37,202.7,4086.914,202.306,4084.762Z" fill="#f0ebd5"/>
            <path id="Path_85" data-name="Path 85" d="M150.565,4042.256c6.106-.034,12.586,4.941,13.719,9.683.6,2.523-1.348,4.622-4.02,4.6-7.445-.059-11.426-4.755-14.346-10.735-.3-.617.492-2.382,1.218-2.753A10.615,10.615,0,0,1,150.565,4042.256Z" fill="#f0ebd5"/>
            <path id="Path_86" data-name="Path 86" d="M237.333,4185.881c-.528-.322-1.949-.709-2.118-1.4-.277-1.128-.177-3.089.539-3.589a51.652,51.652,0,0,1,9.751-5.674,18.907,18.907,0,0,1,8.008-1.08,5.083,5.083,0,0,1,3.658,2.781c.367.979-.778,2.864-1.732,3.906a8.114,8.114,0,0,1-3.9,2.36C247.013,4184.222,242.416,4184.943,237.333,4185.881Z" fill="#f0ebd5"/>
            <path id="Path_87" data-name="Path 87" d="M-49.783,4057.115c.379-2.427,2.592-1.962,4.451-.518a99.319,99.319,0,0,1,9.04,8.056c1.937,1.926,1.188,3.514-1.381,4.066a17.787,17.787,0,0,1-14.36-2.806,5.73,5.73,0,0,1-.937-8.583C-52.561,4056.854-51.216,4057.182-49.783,4057.115Z" fill="#f0ebd5"/>
            <path id="Path_88" data-name="Path 88" d="M122.2,4148.587a15.954,15.954,0,0,1-11.64-4.655c-1.146-1.131-1.554-3.85-1.087-5.5.357-1.26,2.575-2.638,4.056-2.748,1.378-.1,2.89,1.375,4.316,2.2.725.421,1.668,1.514,2.037,1.333,2.966-1.453,4.519.494,6,2.37,1.208,1.53,2.145,3.274,3.2,4.923-2.056.67-4.112,1.345-6.172,2A3.41,3.41,0,0,1,122.2,4148.587Z" fill="#f0ebd5"/>
            <path id="Path_89" data-name="Path 89" d="M180.476,4027.687c1.191.056,2.509-.19,3.543.242,1.368.572,3.563,1.71,3.535,2.542-.056,1.653-.983,4.118-2.27,4.727-3.517,1.666-7.4,2.559-11.156,3.713a2.617,2.617,0,0,1-1.757.091c-1.712-.922-4.557-1.867-4.7-3.067a6.546,6.546,0,0,1,2.74-5.227c2.956-1.749,6.462-2.57,9.741-3.775Z" fill="#f0ebd5"/>
            <path id="Path_90" data-name="Path 90" d="M169.425,4171.5c-.582-.43-2.163-1.017-2.566-2.06a4.363,4.363,0,0,1,.635-3.831c3.844-3.972,8.175-7.35,13.648-8.87,3.128-.869,4.4.582,3.915,3.74C183.961,4167.578,176.125,4170.479,169.425,4171.5Z" fill="#f0ebd5"/>
            <path id="Path_91" data-name="Path 91" d="M195.558,4011.6c-5.732-1.541-10.386-3.252-13.235-7.913a3.571,3.571,0,0,1,3.43-5.381c4.918.125,9.895,1.171,13.041,5.431a6.745,6.745,0,0,1,.492,5.553C198.823,4010.5,196.567,4011.029,195.558,4011.6Z" fill="#f0ebd5"/>
            <path id="Path_92" data-name="Path 92" d="M41.779,3976.672c.956-.078,1.912-.209,2.87-.222a3.1,3.1,0,0,1,3.264,4.232c-1.3,4.638-11.124,9.141-15.319,6.7a6.127,6.127,0,0,1-2.712-4.5,5.9,5.9,0,0,1,2.853-4.4c2.758-1.255,5.921-1.619,8.917-2.352Z" fill="#f0ebd5"/>
            <path id="Path_93" data-name="Path 93" d="M93.328,3960.938c-1.195-.955-4.119-2.125-4.7-4.017-.994-3.226,1.97-4.7,4.783-5.485,4.192-1.177,8.519-2.295,12.375.6,1.437,1.077,2.146,3.124,3.186,4.729a21.112,21.112,0,0,1-4.129,1.977C101.481,3959.545,98.051,3960.059,93.328,3960.938Z" fill="#f0ebd5"/>
            <path id="Path_94" data-name="Path 94" d="M-112.322,4150.747c-2.281-1.584-4.416-2.558-5.655-4.206-.431-.573,1.14-2.987,2.168-4.26,3.248-4.022,7.646-5.183,12.568-4.252,1.251.236,3.193,1.163,3.324,2,.225,1.454-.227,3.81-1.262,4.516A126.123,126.123,0,0,1-112.322,4150.747Z" fill="#f0ebd5"/>
            <path id="Path_95" data-name="Path 95" d="M108.948,4001.929c1.038-4.275,4.16-6.888,8.192-8.9,3.058-1.528,5.878-1.446,8.323.718.773.685,1.177,2.968.637,3.758-3.117,4.56-7.924,6.788-13.038,8.3C110.17,4006.655,109.231,4004.775,108.948,4001.929Z" fill="#f0ebd5"/>
            <path id="Path_96" data-name="Path 96" d="M251.566,4142.34c-3.9-1.036-7.852-1.9-11.669-3.174-2.1-.7-1.847-2.521-.866-4.184,1.765-2.99,6.65-5.032,10.207-3.615a23.921,23.921,0,0,1,6.981,4.695,4.538,4.538,0,0,1,1.106,4.078c-.433.967-2.475,1.263-3.851,1.732a5.834,5.834,0,0,1-1.79.03Z" fill="#f0ebd5"/>
            <path id="Path_97" data-name="Path 97" d="M120.4,4184.472a2.768,2.768,0,0,1-.717-.006c-1.633-.438-3.26-.9-4.889-1.353.591-1.886.732-4.115,1.859-5.591,3.055-4,10.953-5.5,14.644-3.159,2.723,1.726,2.876,3.159.566,5.311C127.295,4183.931,126.139,4184.415,120.4,4184.472Z" fill="#f0ebd5"/>
            <path id="Path_98" data-name="Path 98" d="M95.688,4128.35c-.387,3.484.064,6.336-3.4,6.975a6.213,6.213,0,0,1-7.036-4.219c-1.6-4.116.355-11.281,3.412-12.735,2.142-1.019,3.777-.722,4.551,1.653C94.207,4123.076,95.049,4126.179,95.688,4128.35Z" fill="#f0ebd5"/>
            <path id="Path_99" data-name="Path 99" d="M78.6,4003.017c-1.815-1.24-3.829-1.9-4.218-3.082-.394-1.206.4-3.351,1.4-4.364,3.771-3.813,8.758-5.325,13.9-6.085a3.518,3.518,0,0,1,2.718,2.171c.153,1.382-.284,3.564-1.261,4.207C87.192,3998.459,82.944,4000.595,78.6,4003.017Z" fill="#f0ebd5"/>
            <path id="Path_100" data-name="Path 100" d="M268.519,4111.191c-.345,3.543-1.835,5.546-4.888,6.528-2.056.661-4.036,1.845-6.12,2.038a8.4,8.4,0,0,1-4.772-1.6c-.3-.187.369-2.705,1.169-3.669a54.855,54.855,0,0,1,6.93-7.15c1.2-1,3.871-2.018,4.6-1.434C266.924,4107.1,267.543,4109.366,268.519,4111.191Z" fill="#f0ebd5"/>
            <path id="Path_101" data-name="Path 101" d="M237.119,4157.584c.953.06,2.243-.248,2.793.255a10.24,10.24,0,0,1,3.138,4.214c.233.8-1.257,2.794-2.329,3.145a50.954,50.954,0,0,1-10.753,2.448c-1.424.141-4.351-1.611-4.286-2.276.182-1.859,1.12-4.36,2.578-5.22,2.586-1.525,5.777-2.027,8.716-2.957Z" fill="#f0ebd5"/>
            <path id="Path_102" data-name="Path 102" d="M68.845,4108.187c-.831-.7-3.27-1.842-3.246-2.93.045-2.069.961-4.806,2.5-5.99,2.171-1.673,5.175-2.441,7.941-3.093,1.389-.327,4.062.056,4.363.823.648,1.648.862,4.243-.04,5.574C77.973,4106.093,74.048,4107.441,68.845,4108.187Z" fill="#f0ebd5"/>
            <path id="Path_103" data-name="Path 103" d="M40.687,4008.724c-.9-.8-2.35-1.524-2.775-2.64-.431-1.133-.365-3.177.381-3.917,4.191-4.156,9.567-5.844,15.332-5.88,2.657-.017,2.744,2.267,1.536,3.915C51.721,4004.894,46.563,4006.876,40.687,4008.724Z" fill="#f0ebd5"/>
            <path id="Path_104" data-name="Path 104" d="M-47.045,4168.652c4.578-.094,11.565,5.733,11.917,9.339a3.544,3.544,0,0,1-1.535,2.778c-3,1.661-5.849.743-8.333-1.278s-5.639-3.852-4.364-7.825C-48.933,4170.334-47.567,4169.3-47.045,4168.652Z" fill="#f0ebd5"/>
            <path id="Path_105" data-name="Path 105" d="M73.768,3975.329c-4.362-.093-7.555-.835-9.133-4.127a6.467,6.467,0,0,1-.1-4.664c.258-.667,2.514-1.1,3.635-.8a77.337,77.337,0,0,1,11.412,3.86c2.566,1.154,2.432,3.255-.187,4.375A28.458,28.458,0,0,1,73.768,3975.329Z" fill="#f0ebd5"/>
            <path id="Path_106" data-name="Path 106" d="M243.024,4093.674a36.7,36.7,0,0,1-5.861-2.31,3.283,3.283,0,0,1-.827-3.121c.733-1.486,2.154-3.72,3.289-3.719a40.346,40.346,0,0,1,10.86,1.6c1.088.31,2.073,2.585,2.187,4.033.056.707-1.888,1.9-3.115,2.3A49.132,49.132,0,0,1,243.024,4093.674Z" fill="#f0ebd5"/>
            <path id="Path_107" data-name="Path 107" d="M168.869,4086a57.205,57.205,0,0,1-7.324-1.417c-2.707-.877-3.044-2.985-1.088-4.907,3.236-3.181,10.608-3.744,13.982-.718a5.82,5.82,0,0,1,1.483,4.4c-.094.884-1.886,1.873-3.094,2.27-1.183.388-2.592.084-3.9.084Z" fill="#f0ebd5"/>
            <path id="Path_108" data-name="Path 108" d="M110.707,3981.723c-3.846.01-6.961-2.243-7.729-5.472-.495-2.085.048-3.762,2.432-3.8,4.12-.06,8.161.587,11.234,3.66a4.516,4.516,0,0,1,1.233,3.384c-.107.673-1.74,1.3-2.787,1.583A33.321,33.321,0,0,1,110.707,3981.723Z" fill="#f0ebd5"/>
            <path id="Path_109" data-name="Path 109" d="M52.375,4066.91c-3.229-.03-3.962-1.15-2.551-3.937,2.381-4.7,7.334-5.947,11.444-8.215,1.552-.856,3.595,2.265,2.866,4.22C62.867,4062.376,56.094,4066.945,52.375,4066.91Z" fill="#f0ebd5"/>
            <path id="Path_110" data-name="Path 110" d="M88.546,4023.864a31.649,31.649,0,0,1-4.9-1.432c-.929-.416-2.2-1.657-2.116-2.393a5.334,5.334,0,0,1,1.973-3.474c2.807-1.921,9.8-1.134,12.17,1.287a5.085,5.085,0,0,1,1.45,3.392c-.033.629-1.647,1.419-2.669,1.7A54.786,54.786,0,0,1,88.546,4023.864Z" fill="#f0ebd5"/>
          </g>
        </g>
        <path id="Path_111" data-name="Path 111" d="M278.618,4199.326c0,106.519-86.352,192.871-192.872,192.871s-192.871-86.352-192.871-192.871" fill="#ed242a"/>
      </g>
    </g>
  </g>
</svg>
