<svg xmlns="http://www.w3.org/2000/svg" width="174.928" height="201.928" viewBox="0 0 174.928 201.928">
  <g id="Group_183" data-name="Group 183" transform="translate(-104.274 -1094.072)">
    <g id="Group_105" data-name="Group 105" transform="translate(-1386)">
      <path id="Path_2434" data-name="Path 2434" d="M1582.157,1212.583c26.658,0,53.316.041,79.974-.056,2.567-.01,3.179.818,3.056,3.2-1.1,21.085-8.517,39.573-23.209,54.776-15,15.522-33.388,24.2-55.095,25.36-25.268,1.356-46.794-7.2-64.423-25.164a79.482,79.482,0,0,1-22.828-48.854c-.215-2.11-.251-4.238-.487-6.345-.266-2.376.731-2.979,3.038-2.971,23.469.081,46.939.051,70.409.053Q1577.374,1212.58,1582.157,1212.583Z" fill="#010102"/>
    </g>
    <g id="Group_109" data-name="Group 109" transform="translate(-1386)">
      <path id="Path_2438" data-name="Path 2438" d="M1618.556,1169.841q20.214-8.473,40.415-16.982c1.3-.549,1.781-.26,2.223.969,3.916,10.891,4.084,21.81-.12,32.609a44.045,44.045,0,0,1-22.475,24.5c-12.485,6.043-25.181,6.28-37.9.937a43.563,43.563,0,0,1-21.9-19.856c-.556-1.021-1.026-2.089-1.592-3.1-.638-1.145-.262-1.661.906-2.146q17.822-7.4,35.6-14.9Z" fill="#010102"/>
    </g>
    <g id="Group_113" data-name="Group 113" transform="translate(-1386)">
      <path id="Path_2469" data-name="Path 2469" d="M1607.3,1131.536a3.764,3.764,0,0,1-2.5,4.884c1.168.765,2.33,1.512,3.477,2.28,1,.666,1.954,1.39,2.969,2.025.839.524,1.753.925,2.6,1.436.7.424,1.357.936,2.043,1.394.161.108.374.135.546.231.93.523,1.839,1.089,2.787,1.576.986.508,2.015.932,3.014,1.415.682.33,1.326.744,2.021,1.039.727.309,1.536.441,2.236.8a8.543,8.543,0,0,0,2.416.634.7.7,0,0,1,.183,1.386,3.562,3.562,0,0,1-1.228-.165c-.579-.151-1.147-.351-1.715-.543-.349-.118-.691-.258-1.033-.4-.986-.4-1.978-.781-2.952-1.208-.9-.394-1.8-.8-2.665-1.269-.811-.433-1.57-.965-2.373-1.416-.49-.276-1.044-.44-1.525-.727-.777-.463-1.506-1.007-2.277-1.479-.56-.342-1.169-.6-1.733-.937-.749-.443-1.478-.919-2.212-1.386-.444-.283-.888-.567-1.321-.866-.7-.482-1.38-.988-2.084-1.463-.507-.342-1.042-.642-1.555-.976-.266-.172-.516-.371-.765-.567-.969-.763-1.972-1.488-2.89-2.309a4.367,4.367,0,0,1-.637-4.022,7.511,7.511,0,0,1,.494-.751c.192-.293.233-.5-.223-.571a13.072,13.072,0,0,1-2.368-.443,21,21,0,0,0-3.62-.615c-1.007-.169-1.961-.638-2.964-.856a9.425,9.425,0,0,1-2.937-1.4,7.106,7.106,0,0,1-1.573-1.72,1.909,1.909,0,0,1-.364-.9c-.082-.629-.209-1.311.626-1.645-.325-.361-.6-.678-.885-.978a1.908,1.908,0,0,1-.172-1.984,4.371,4.371,0,0,1,.69-.994,4.076,4.076,0,0,1,2.193-1,3.251,3.251,0,0,0,.982-.247c.1-.045.159-.321.151-.487a9.472,9.472,0,0,1-.112-2.011,2.08,2.08,0,0,1,.867-1.2,6.024,6.024,0,0,1,1.685-.635,19.558,19.558,0,0,1,2.217-.541,16.279,16.279,0,0,1,1.7-.085,22.139,22.139,0,0,0,3.907-.305,24.1,24.1,0,0,1,4.465-.32,18.42,18.42,0,0,0,3.542-.284c1.695-.449,3.388-.2,5.077-.315,2.091-.147,4.188-.226,6.471-.344a6.956,6.956,0,0,0-.591-.8,8.95,8.95,0,0,0-.846-.689c-.162-.127-.334-.241-.493-.371-.956-.787-1.9-1.583-2.866-2.361-.528-.428-1.092-.81-1.615-1.243-.6-.494-1.158-1.03-1.749-1.53-.535-.452-1.133-.838-1.627-1.329-.8-.8-1.534-1.665-2.31-2.489a3.377,3.377,0,0,1-.971-2.578,2.048,2.048,0,0,1,1.659-2.009,2.086,2.086,0,0,1,1.938.33c.188.146.5.117.733.223a13.221,13.221,0,0,1,2.809,1.728c.292.236.659.38.954.613.849.668,1.658,1.389,2.524,2.033.752.56,1.566,1.036,2.34,1.567.267.183.485.435.745.63.875.655,1.752,1.307,2.641,1.943.694.5,1.411.96,2.108,1.451.307.216.584.474.887.7.83.606,1.689,1.175,2.495,1.811.74.583,1.42,1.24,2.135,1.854.481.414.975.811,1.466,1.213.868.709,1.763,1.387,2.6,2.134a13.848,13.848,0,0,1,1.62,1.726c.456.579.806,1.241,1.216,1.857.62.935,1.243,1.868,1.882,2.79.507.733,1.046,1.444,1.562,2.171.267.376.511.767.771,1.148.631.923,1.278,1.836,1.9,2.769.484.73.921,1.493,1.405,2.224.555.839,1.152,1.648,1.7,2.488.469.714.882,1.464,1.352,2.177.53.806,1.1,1.585,1.644,2.384.825,1.22,1.655,2.438,2.449,3.679a4.046,4.046,0,0,1,.494,1.207c.034.139-.206.488-.331.493a.892.892,0,0,1-.672-.279c-.63-.868-1.212-1.773-1.809-2.666-.3-.443-.6-.883-.878-1.335-.416-.663-.786-1.356-1.234-1.995-.353-.5-.8-.938-1.189-1.421-.117-.148-.132-.375-.241-.532-.534-.772-1.1-1.519-1.622-2.3-.554-.831-1.036-1.711-1.6-2.531-.549-.789-1.183-1.518-1.751-2.3-.281-.384-.481-.826-.746-1.223-.6-.9-1.216-1.78-1.827-2.669-.252-.367-.508-.732-.759-1.1-.784-1.154-1.508-2.354-2.366-3.45-.717-.915-1.589-1.708-2.394-2.554a7.458,7.458,0,0,0-2.6-1.645,9.876,9.876,0,0,0-3.2-.607,11.37,11.37,0,0,0-2.685-.275c-2.743.472-5.5.2-8.242.329-1.611.075-3.223.141-4.832.249-.859.058-1.712.206-2.57.294-.878.09-1.758.181-2.639.227a24.113,24.113,0,0,0-3.039.11,33.6,33.6,0,0,1-4.767.338c-.82.031-1.638.14-2.454.238a19.472,19.472,0,0,0-2.8.405,8.082,8.082,0,0,0-1.959.988c-.178.106-.232.417-.4.739.336.4.732.889,1.158,1.353a.74.74,0,0,0,.484.218,30.663,30.663,0,0,0,4.927-.039c3.438-.534,6.88-.16,10.316-.312,2.95-.131,5.931.047,8.847-.322,2.477-.314,4.933-.1,7.391-.289.6-.047.742.162.717.762a.478.478,0,0,1-.523.527c-1.853.095-3.7.24-5.557.291-2.335.064-4.672.032-7.008.079a88.93,88.93,0,0,0-8.91.3c-2.738.332-5.459.134-8.182.3-.537.032-1.08-.044-1.617-.013a39.7,39.7,0,0,0-3.97.314,3.971,3.971,0,0,0-1.62.882c-.4.3-.226.962.213,1.229.281.17.518.422.81.564.474.23.983.387,1.468.6a10.826,10.826,0,0,0,4.535.612c.739-.007,1.479-.174,2.216-.161a93.909,93.909,0,0,1,9.457.312c1.952.233,3.876.143,5.809.237s3.9.012,5.85.058c1.978.047,3.954.153,5.931.238.72.031,1.19.637.828,1.124a1.245,1.245,0,0,1-.9.39c-1.49-.017-2.979-.131-4.47-.154a83.724,83.724,0,0,1-8.584-.137c-3.144-.374-6.3.114-9.392-.363-2.378-.367-4.732-.087-7.088-.3-1.343-.124-2.7-.164-4.046-.16a15.764,15.764,0,0,0-2.127.285c.005.083-.013.156.015.194a5.934,5.934,0,0,0,2.606,2.38,28.806,28.806,0,0,0,2.812.737c.686.167,1.379.306,2.07.451a3.552,3.552,0,0,0,.82.14,18.033,18.033,0,0,1,3.379.568c.139.023.284.007.423.03,1.207.194,2.413.4,3.62.59.974.155,1.951.29,2.925.447.792.129,1.581.282,2.373.416.332.056.669.082,1,.136,1.207.2,2.412.4,3.618.6l.061.009c1.139.143,2.277.288,3.417.427a10.183,10.183,0,0,1,2.138.277c1.01.359,2.078.275,3.075.561a13.692,13.692,0,0,1,2.793,1.115,2.372,2.372,0,0,1,.993,1.384c.368,1.072-.193,1.711-.724,2.427a.626.626,0,0,1-.334.242c-.749.143-1.454.615-2.248.4-.913-.251-1.807-.569-2.709-.856-.315-.1-.631-.2-.945-.3-.611-.2-1.221-.4-1.833-.6-.7-.227-1.419-.423-2.111-.682-.514-.192-.986-.493-1.5-.692-.8-.31-1.619-.55-2.414-.863-.842-.332-1.658-.732-2.5-1.068C1608.566,1131.923,1608,1131.767,1607.3,1131.536Zm21.763-21.083.111-.211a1.582,1.582,0,0,0-.267-.355c-1.021-.765-2.051-1.517-3.078-2.275-.3-.225-.609-.451-.909-.683-.657-.511-1.3-1.04-1.97-1.534-.427-.314-.914-.549-1.335-.87-.869-.665-1.708-1.369-2.569-2.046-.4-.314-.835-.588-1.232-.907-.278-.224-.491-.537-.783-.736-.5-.342-1.064-.6-1.564-.943-.766-.53-1.494-1.116-2.251-1.66a10.98,10.98,0,0,0-2.1-1.4c-.688-.281-1.315-.836-2.17-.7-.487.077-.634.362-.743.762-.159.583.392.865.523,1.3.34,1.139,1.322,1.729,2.046,2.525a13.063,13.063,0,0,0,1.718,1.3c.326.255.614.558.917.843.429.4.832.84,1.288,1.211.723.588,1.493,1.12,2.221,1.7.446.359.831.794,1.276,1.154.941.762,1.905,1.494,2.857,2.243a3.012,3.012,0,0,0,2.088.885c1.518-.072,3.043-.006,4.565.009a1.919,1.919,0,0,1,.526.085C1628.514,1110.238,1628.787,1110.351,1629.064,1110.453Zm-17.97,20.976-.006.1a2.6,2.6,0,0,1,.619.11,15.46,15.46,0,0,0,1.95.891,27.7,27.7,0,0,1,2.985,1.169c.66.268,1.414.382,2.1.679.71.306,1.53.376,2.206.732a6.453,6.453,0,0,0,3.5.516c.435-.022.626-.264.652-.7.045-.766-.167-1.1-1.082-1.437-.444-.162-1.016-.095-1.371-.352-.617-.448-1.321-.324-1.97-.479-1.049-.249-2.146-.295-3.219-.45-1.266-.183-2.529-.388-3.792-.59-.333-.053-.66-.166-.993-.187C1612.15,1131.405,1611.621,1131.429,1611.094,1131.429Zm-7.317,3.63a1.866,1.866,0,0,0,2.175-1.549c.3-1.747-.291-2.525-1.85-3.259a2.171,2.171,0,0,0-2.816,2.8C1601.814,1134.327,1602.708,1135.24,1603.777,1135.059Z" fill="#f0ebd5" stroke="#f0ebd5" stroke-miterlimit="10" stroke-width="1.417"/>
      <path id="Path_2470" data-name="Path 2470" d="M1527.384,1197.334c.853.375,1.375-.128,1.962-.3s1.206-.321,1.8-.511c.449-.144.875-.367,1.327-.5.516-.151,1.051-.234,1.575-.356a15.99,15.99,0,0,0,2.712-.683,9.882,9.882,0,0,1,2.116-.577c.227-.043.421-.242.648-.309a13.021,13.021,0,0,0,2.3-.669,13.8,13.8,0,0,1,2.072-.588c.859-.293,1.71-.608,2.571-.891.355-.116.732-.166,1.095-.26a16.2,16.2,0,0,0,2.494-.689c.811-.355,1.7-.352,2.472-.665a11.966,11.966,0,0,1,2.017-.547,18.088,18.088,0,0,0,2.986-.668,3.23,3.23,0,0,1,1.853-.216,2.861,2.861,0,0,1,2.083,1.279,3.087,3.087,0,0,1,.274,2.684,1.958,1.958,0,0,1-.592.891,19.363,19.363,0,0,1-1.842,1.45,8.086,8.086,0,0,1-1.1.511.369.369,0,0,0-.2.234.335.335,0,0,0,.147.276,2.234,2.234,0,0,1,1.436,2.254,2.988,2.988,0,0,1-1.458,2.684c-.507.353-.976.763-1.566,1.229.152,1.106-.568,2.1-1.173,3.083a9.188,9.188,0,0,1-1.724,1.871c-.669.6-1.415,1.124-2.133,1.672a24.1,24.1,0,0,1-3.146,2.325c-1.212.64-2.125,1.7-3.421,2.206-.547.215-.947.779-1.455,1.122-.526.356-1.113.621-1.655.955-.507.312-.982.675-1.485.993-.483.3-.987.571-1.477.864-1.065.638-2.119,1.3-3.192,1.919-.559.325-1.158.583-1.724.9-.537.3-1.043.66-1.584.956-.939.513-1.893,1-2.845,1.49-.823.422-1.668.8-2.473,1.256-.66.371-1.255.858-1.918,1.222s-1.4.635-2.085.973-1.355.707-2.03,1.067c-.762.406-1.515.83-2.283,1.225-1.386.714-2.784,1.408-4.171,2.121-.691.355-1.353.772-2.062,1.082a3.364,3.364,0,0,1-1.055.106c-.231-.907-.2-.9.542-1.279.761-.387,1.465-.886,2.224-1.278.658-.339,1.374-.562,2.034-.9.889-.454,1.741-.979,2.625-1.444.24-.127.612-.067.789-.235a2.654,2.654,0,0,1,1.2-.607,7.506,7.506,0,0,0,1.521-.793c.57-.316,1.136-.639,1.7-.962s1.133-.656,1.705-.974c.479-.267.968-.518,1.45-.778.617-.333,1.226-.681,1.85-1,1.009-.518,2.05-.978,3.036-1.538s1.9-1.215,2.857-1.8c.456-.279.958-.479,1.422-.745.663-.38,1.3-.8,1.967-1.182.532-.308,1.093-.566,1.618-.884s1-.69,1.511-1.017c.861-.551,1.739-1.075,2.6-1.629,1.016-.655,2.042-1.3,3.023-2,.9-.648,1.74-1.384,2.625-2.056.613-.466,1.271-.872,1.885-1.338.322-.244.586-.563.886-.837a4.52,4.52,0,0,1,.867-.732c.761-.4.969-1.185,1.371-1.83a2.58,2.58,0,0,0,.167-.873c-.631.3-1.174.566-1.724.819-.83.381-1.666.747-2.495,1.129-.49.226-.967.48-1.457.7-1.247.569-2.494,1.137-3.748,1.688-.686.3-1.4.545-2.077.857-.47.215-.893.532-1.362.752a22.651,22.651,0,0,0-2.674,1.221c-.842.54-1.8.764-2.659,1.234-.635.346-1.363.518-2.023.825-1.057.493-2.092,1.033-3.136,1.554a7.309,7.309,0,0,1-1.063.522c-.779.237-1.408,1.036-2.372.609-.225-.69-.063-.927.638-1.185a17.1,17.1,0,0,0,1.546-.795c.209-.1.455-.125.672-.213.651-.264,1.306-.521,1.941-.821,1.1-.519,2.187-1.078,3.288-1.6.616-.293,1.255-.536,1.873-.825,1.109-.517,2.2-1.058,3.314-1.575.5-.231,1.017-.411,1.512-.646.669-.316,1.322-.668,1.987-.994.537-.263,1.077-.521,1.623-.764.956-.425,1.938-.8,2.871-1.268.735-.37,1.406-.865,2.119-1.281a4.248,4.248,0,0,1,.617-.175,14.343,14.343,0,0,0,1.908-.767c1.219-.675,2.42-1.388,3.581-2.159a1.889,1.889,0,0,0-.062-2.685,4.119,4.119,0,0,0-1.575-.286,3.177,3.177,0,0,0-.933.152c-.638.149-1.281.289-1.908.482-.758.233-1.506.5-2.249.784-.624.236-1.233.515-1.852.768-.662.27-1.329.525-1.99.8-.742.3-1.468.65-2.222.918s-1.57.451-2.342.716c-.521.179-1.009.456-1.525.653-.726.276-1.474.494-2.193.785-.421.171-.8.452-1.208.653a4.831,4.831,0,0,1-.722.235c-.765.234-1.545.428-2.29.712-.542.206-1.03.55-1.56.795-.227.105-.51.084-.747.173-.386.145-.748.355-1.134.5-.274.1-.579.12-.859.209-.774.247-1.555.478-2.308.779-.6.241-1.157.6-1.756.854a2.658,2.658,0,0,1-.815.072c-.294-.93-.248-.969.589-1.271s1.656-.691,2.49-1.021c.689-.271,1.387-.519,2.085-.764.65-.228,1.316-.414,1.958-.662.747-.288,1.47-.636,2.213-.932.591-.235,1.2-.419,1.8-.646,1.035-.4,2.065-.806,3.1-1.211,1-.391,1.989-.794,2.991-1.171.634-.239,1.292-.412,1.92-.665s1.2-.575,1.813-.837c.576-.247,1.171-.452,1.757-.677.909-.35,1.819-.7,2.726-1.052q1.018-.4,2.031-.808c.746-.3,1.485-.623,2.235-.913.259-.1.55-.113.814-.2a13.477,13.477,0,0,0,2.075-.751,7.519,7.519,0,0,0,2.454-1.686,1.734,1.734,0,0,0-.3-2.17,1.98,1.98,0,0,0-2.238-.237,1.859,1.859,0,0,1-.468.094c-1.143.275-2.287.549-3.429.83-.878.216-1.754.442-2.631.664a11.93,11.93,0,0,0-2.405.651,9.2,9.2,0,0,1-2.3.611,10.89,10.89,0,0,0-1.253.563c-.4.147-.836.211-1.253.319-.637.165-1.272.335-1.908.5-1,.264-2,.5-2.984.8-.8.244-1.582.581-2.384.842-.45.146-.925.217-1.386.332-.849.212-1.708.4-2.541.658-1.085.341-2.143.768-3.226,1.119-.574.186-1.186.251-1.76.436-.834.269-1.632.656-2.475.881s-1.7.307-2.543.449a1.619,1.619,0,0,1,.693-1.675c.905-.587,1.78-1.218,2.682-1.81.809-.532,1.645-1.023,2.451-1.559.4-.264.751-.59,1.125-.888.016-.012.027-.031.044-.042.638-.422,1.282-.835,1.913-1.268s1.236-.884,1.858-1.32c.429-.3.872-.583,1.3-.885.583-.41,1.149-.844,1.739-1.244.9-.608,1.827-1.168,2.709-1.8.948-.677,1.837-1.436,2.789-2.106.523-.369,1.13-.616,1.681-.948a6.41,6.41,0,0,0,.646-.541c.548-.436,1.092-.879,1.658-1.293.38-.277.8-.5,1.192-.763.88-.6,1.749-1.223,2.628-1.828.4-.274.809-.53,1.217-.79a.491.491,0,0,0-.114-.863c-.734-.315-1.376-.923-2.281-.752-.137.026-.3-.13-.463-.184-.127-.043-.33-.129-.386-.075-.489.465-1.13.155-1.658.352-.681.254-1.351.544-2.016.838-.632.28-1.255.583-1.879.882-.92.44-1.851.86-2.753,1.336-1.072.564-2.115,1.184-3.176,1.769-1,.552-2.01,1.084-3.009,1.636s-1.978,1.131-2.979,1.673c-.888.481-1.808.9-2.688,1.4-.753.422-1.459.927-2.2,1.364q-1.594.936-3.217,1.825c-.764.421-1.564.778-2.312,1.225-.877.525-1.707,1.127-2.574,1.671-.363.227-.772.381-1.151.583a16.939,16.939,0,0,1-2.216,1.173,2.761,2.761,0,0,1-2.529-.1,1.183,1.183,0,0,1-.518-.825,15.422,15.422,0,0,1,.321-3.35,14.817,14.817,0,0,1,1.258-2.525c.445-.921.823-1.874,1.278-2.789.379-.761.84-1.481,1.239-2.233.208-.391.359-.812.589-1.343-2.18.231-3.756-.472-4.609-2.6-.085.014-.319-.018-.392.076-.546.7-1.046,1.441-1.591,2.145-.251.323-.592.574-.853.89-.314.38-.566.811-.881,1.19-.608.733-1.249,1.439-1.862,2.169-.264.313-.483.665-.741.984a18.356,18.356,0,0,0-1.695,2.1,20.716,20.716,0,0,1-1.927,2.446c-.482.6-.982,1.179-1.463,1.777-.249.309-.466.644-.709.958-.76.978-1.534,1.946-2.285,2.931-.49.641-.933,1.319-1.431,1.953-.42.535-.91,1.016-1.333,1.549-.526.662-1.033,1.34-1.512,2.037-.259.376-1.029.622-1.367.315a.657.657,0,0,1-.087-.631c.329-.477.755-.885,1.11-1.345.769-1,1.5-2.023,2.279-3.015.44-.562.944-1.073,1.4-1.624.274-.332.5-.7.765-1.043.408-.534.818-1.066,1.241-1.588.557-.687,1.134-1.358,1.69-2.046.581-.721,1.146-1.454,1.723-2.179.754-.948,1.5-1.9,2.272-2.838.514-.627,1.068-1.222,1.581-1.85.321-.393.589-.829.9-1.229.411-.528.849-1.034,1.261-1.56.56-.717,1.1-1.454,1.665-2.164.457-.57.961-1.1,1.422-1.669s.909-1.111,1.3-1.7a4.713,4.713,0,0,1,1.415-1.209,3.627,3.627,0,0,1,2.489-.518,3.345,3.345,0,0,1,2.671,1.6c.81,1.175.514,2.33.246,3.469a8.091,8.091,0,0,1-1.08,1.947c-.1.177-.194.361-.286.544-.464.928-.921,1.861-1.392,2.786-.389.764-.794,1.519-1.192,2.277-.384.731-.811,1.443-1.141,2.2a16.736,16.736,0,0,1-.766,2.115c-.491.8-.257,1.579-.308,2.418a2.931,2.931,0,0,0,2.318-.5,10.784,10.784,0,0,1,1.43-.727c.344-.187.662-.422,1-.627.567-.348,1.133-.7,1.708-1.031.717-.418,1.436-.833,2.163-1.232,1.079-.591,2.182-1.139,3.243-1.759.738-.432,1.411-.973,2.136-1.428.445-.28.941-.479,1.4-.737,1.354-.76,2.7-1.534,4.053-2.3.2-.114.436-.176.642-.287.849-.456,1.688-.93,2.539-1.38.595-.314,1.214-.581,1.8-.9.614-.335,1.2-.729,1.812-1.061.516-.28,1.073-.485,1.589-.765.9-.486,1.769-1.021,2.669-1.5.491-.263,1.034-.428,1.526-.689a13.623,13.623,0,0,1,2.215-.693,4.461,4.461,0,0,1,1.734-.248,6.28,6.28,0,0,1,4.062,1.588,7.792,7.792,0,0,1,.744.949c.3.394.079.666-.23.888q-1.587,1.139-3.188,2.258c-1.122.784-2.259,1.547-3.376,2.339-.984.7-1.934,1.439-2.925,2.124-1.183.818-2.418,1.562-3.584,2.4-.67.483-1.325.968-2.041,1.392-.943.557-1.787,1.279-2.683,1.916-.515.366-1.061.688-1.574,1.056-.833.6-1.644,1.224-2.476,1.822-.484.348-1,.652-1.484,1-.39.279-.752.6-1.137.885-.086.064-.222.057-.324.107C1527.918,1197.035,1527.7,1197.16,1527.384,1197.334Zm-12.173-21.419c-1.286-.025-2.771,1.069-2.814,2.035a2.668,2.668,0,0,0,2.426,2.815,3.226,3.226,0,0,0,2.777-2.356A2.32,2.32,0,0,0,1515.211,1175.915Z" fill="#f0ebd5" stroke="#f0ebd5" stroke-miterlimit="10" stroke-width="1.417"/>
      <path id="Path_2471" data-name="Path 2471" d="M1548.5,1153.368c.25.384.647,1,1.047,1.608.345.529.682,1.064,1.046,1.58a5.383,5.383,0,0,0,.524.545,15.03,15.03,0,0,0,1.392,1.459,1.193,1.193,0,0,0,1.029.224,1.47,1.47,0,0,0,.7-.993,2.851,2.851,0,0,0-.822-2.2c-.213-.232-.184-.67-.321-.99a5.56,5.56,0,0,0-.494-.83c-.3-.458-.6-.914-.916-1.363s-.661-.9-.971-1.365c-.295-.443-.564-.9-.841-1.36a2.329,2.329,0,0,0-.3-.507,4.649,4.649,0,0,1-1.167-1.833,7.6,7.6,0,0,0-1.06-1.544q-.518-.728-1.035-1.455c-.292-.408-.6-.808-.876-1.225-.116-.174-.147-.407-.268-.575-.506-.705-1.053-1.381-1.543-2.1a11.023,11.023,0,0,1-.908-1.595c-.059-.126.136-.4.261-.572a1.365,1.365,0,0,1,.393-.252,6.141,6.141,0,0,1,1.383,1.743,23.476,23.476,0,0,0,2,2.641c.461.624.862,1.294,1.292,1.941a8.626,8.626,0,0,0,1.558,2.01,5.184,5.184,0,0,1,.839,1.173c.579.872,1.147,1.752,1.731,2.622.107.16.283.272.4.426.206.269.4.547.586.831.387.6.6,1.316,1.321,1.671a1.165,1.165,0,0,1,.43.661,8.463,8.463,0,0,0,2.192,2.955,2.07,2.07,0,0,0,1.2.649,1.669,1.669,0,0,0,1.174-.482,1.623,1.623,0,0,0,.625-1.441,16.58,16.58,0,0,0-.437-1.675,23.257,23.257,0,0,0-.791-2.232,22.455,22.455,0,0,0-1.069-2.041c-.319-.565-.68-1.105-1.014-1.662q-.414-.687-.807-1.389a5.634,5.634,0,0,1-.255-.553,3.325,3.325,0,0,0-.19-.481c-.4-.632-.808-1.256-1.215-1.882-.594-.913-.891-1.976-1.552-2.869-.711-.957-1.278-2.022-1.9-3.042-.389-.635-.762-1.278-1.153-1.911-.506-.819-1.01-1.64-1.54-2.444-.351-.532.137-.763.375-1.029.254-.284.4.056.593.216a12.815,12.815,0,0,1,1.8,2.169c.61.77,1.342,1.442,1.992,2.182.32.365.563.8.864,1.179.534.677,1.094,1.334,1.627,2.012.559.712,1.053,1.483,1.671,2.138.235.249.49.473.712.755.532.675,1.174,1.263,1.7,1.942.5.647.9,1.378,1.375,2.046.368.514.8.977,1.187,1.481.62.821,1.184,1.687,1.838,2.48.784.951,1.645,1.838,2.457,2.768a13.518,13.518,0,0,1,.858,1.13c.351.5.646,1.04,1.029,1.511a26.1,26.1,0,0,0,2.024,2.3,3.587,3.587,0,0,0,2.005,1.018c.276.04.546.3.8.278a9.438,9.438,0,0,0,1.574-.368,3.621,3.621,0,0,0,.6-.3c0-.058.032-.158,0-.214q-.672-1.044-1.361-2.077c-.259-.386-.547-.752-.8-1.141-.215-.33-.39-.685-.6-1.018q-.6-.951-1.229-1.889c-.513-.764-1.039-1.519-1.561-2.277-.2-.284-.413-.554-.591-.849a9.57,9.57,0,0,0-.995-1.655,9.632,9.632,0,0,1-1.044-1.367c-.215-.332-.527-.6-.738-.935-.357-.564-.649-1.17-1-1.735-.452-.72-.954-1.407-1.4-2.127-.347-.553-.622-1.151-.974-1.7s-.752-1.061-1.141-1.582c-.258-.344-.556-.659-.8-1.014-.625-.93-1.227-1.875-1.841-2.812-.4-.615-.816-1.223-1.214-1.84-.424-.658-.821-1.335-1.26-1.982-.527-.778-1.087-1.532-1.63-2.3-.679-.96-1.336-1.937-2.041-2.877-.366-.488-.852-.887-1.222-1.373-.468-.615-.869-1.282-1.31-1.919-.19-.274-.4-.538-.612-.792-.392-.46-.806-.9-1.2-1.362-.546-.644-1.057-1.316-1.621-1.942-.527-.585-1.1-1.124-1.657-1.685-.648-.657-1.276-1.334-1.946-1.967-.689-.651-1.414-1.263-2.128-1.885-.863-.753-1.711-1.526-2.606-2.24-.647-.518-1.366-.946-2.041-1.431-.515-.37-1.012-.766-1.515-1.153a4.622,4.622,0,0,0-.714-.55c-.479-.233-.689-.621-.45-1.046.249-.443.764-.271,1.083-.067.969.62,1.894,1.308,2.836,1.969,1.037.729,2.083,1.446,3.106,2.194.348.254.612.623.962.871.4.281.866.458,1.27.729.6.406,1.191.842,1.767,1.287.7.543,1.387,1.109,2.079,1.666q1.007.813,2.011,1.628c.756.614,1.536,1.2,2.261,1.852.691.618,1.319,1.306,1.985,1.954.307.3.649.56.954.86.424.417.832.852,1.241,1.285.531.564,1.052,1.138,1.587,1.7.436.456.9.882,1.328,1.348q1.083,1.193,2.124,2.421a9.171,9.171,0,0,1,.728,1c.326.506.617,1.034.942,1.541.087.137.273.21.356.348.623,1.026,1.231,2.061,1.844,3.093a4.76,4.76,0,0,1,.816,1.434,9.676,9.676,0,0,1-.1,2.195,1.01,1.01,0,0,1-.141.375c-.195.361-.416.709-.6,1.077-.154.314-.408.562-.064,1,.763.975,1.43,2.027,2.113,3.063.306.463.531.98.838,1.443.532.8,1.1,1.576,1.65,2.368.537.775,1.086,1.543,1.589,2.339.54.855,1,1.757,1.554,2.6.582.9,1.235,1.743,1.839,2.624.321.468.6.968.9,1.446.327.506.685.993,1,1.509a3.15,3.15,0,0,1,.679,1.621c0,.57-.352.781-.732,1.1-.882.736-1.892.557-2.889.6a4.519,4.519,0,0,1-3.351-1.414c-.665-.615-1.334-1.227-1.973-1.869a28.415,28.415,0,0,1-1.96-2.1c-.5-.622-.873-1.347-1.335-2a9.821,9.821,0,0,0-.7-.713,8.994,8.994,0,0,1-1.451-1.768c-.335-.688-1.123-1.025-1.256-1.843-.033-.2-.364-.342-.527-.536a10.63,10.63,0,0,1-1.316-1.673,7.929,7.929,0,0,0-1.378-1.617,15.13,15.13,0,0,1-1.163-1.654c-.041.3-.122.47-.067.558.231.371.514.71.757,1.074.149.222.255.473.393.7.428.716.885,1.415,1.285,2.146.343.629.637,1.285.925,1.941.377.86.726,1.732,1.09,2.6.015.036.067.058.076.093a7.717,7.717,0,0,1,.4,3.739,3.029,3.029,0,0,1-3.1,2.154,2.587,2.587,0,0,1-2.043-.952,2.931,2.931,0,0,0-.291-.246c-.129.495-.23.965-.375,1.421a2.3,2.3,0,0,1-1.9,1.368,3.2,3.2,0,0,1-2.768-1.288c-.226-.254-.444-.2-.58.142a1.908,1.908,0,0,1-2.131,1.334,4.876,4.876,0,0,1-2.579-1.38c-.536-.5-1.1-.964-1.627-1.473-.46-.446-.883-.93-1.32-1.4q-.537-.576-1.069-1.158c-.3-.332-.623-.654-.91-1-.782-.942-1.559-1.889-2.322-2.846-.683-.857-1.343-1.733-2.018-2.6-.22-.281-.457-.547-.683-.823-.576-.7-1.156-1.4-1.723-2.106-.5-.628-.993-1.265-1.481-1.9-.581-.76-1.149-1.53-1.732-2.29-.2-.266-.44-.509-.649-.772q-1.187-1.491-2.365-2.989c-.616-.779-1.215-1.572-1.853-2.333-.682-.813-1.413-1.585-2.1-2.4-.292-.346-.491-.77-.777-1.122-.609-.753-1.248-1.482-1.872-2.222q-.82-.972-1.633-1.948a7.327,7.327,0,0,1-.9-1.142c-.122-.227,0-.584.007-.883.3.035.693-.039.884.124,1,.852,1.62,2.047,2.624,2.929a13.188,13.188,0,0,1,1.654,2.229c.209.286.441.556.667.83a13.434,13.434,0,0,1,1.8,2.24,7.386,7.386,0,0,0,1.027,1.185c.574.679,1.133,1.369,1.7,2.053.284.342.581.675.856,1.025s.528.734.811,1.086c.481.594.993,1.163,1.465,1.764.529.675,1.02,1.379,1.542,2.059.486.634,1,1.249,1.484,1.881.255.331.473.691.729,1.021.229.3.5.565.731.859.729.913,1.436,1.844,2.179,2.746.713.864,1.467,1.7,2.191,2.551.863,1.023,1.694,2.074,2.577,3.079.473.539,1.021,1.013,1.546,1.505.629.589,1.244,1.2,1.914,1.737a3.281,3.281,0,0,0,1.231.632c.8.2,1.335-.7,1.077-1.672a7.42,7.42,0,0,0-1.562-2.6c-.436-.558-.822-1.156-1.246-1.723-.357-.478-.744-.932-1.105-1.407-.24-.316-.462-.647-.682-.977-.505-.755-.971-1.538-1.513-2.265-.582-.781-1.261-1.489-1.843-2.27-.544-.729-1.014-1.514-1.521-2.272a7.3,7.3,0,0,0-.781-1.114c-.46-.467.26-.607.2-.943a2.252,2.252,0,0,1,.7.04,1.078,1.078,0,0,1,.448.429c.532.819,1,1.679,1.576,2.467.529.729,1.176,1.372,1.737,2.081.365.461.666.972,1,1.459s.657.963.992,1.44c.486.693.951,1.4,1.476,2.064A18.931,18.931,0,0,0,1548.5,1153.368Zm.186-35.488-.134.188c.232.314.449.641.7.94.738.884,1.515,1.738,2.227,2.641.639.81,1.2,1.676,1.816,2.507.54.732,1.124,1.433,1.645,2.177.834,1.19,1.626,2.408,2.447,3.607.576.842,1.15,1.686,1.766,2.5a1.536,1.536,0,0,0,.809.631,6.88,6.88,0,0,0,1.693-.054c.388-.039.629-.229.362-.659-.138-.221-.284-.439-.427-.658-.31-.476-.6-.966-.935-1.425-.349-.48-.737-.932-1.111-1.393-.282-.346-.56-.7-.856-1.03-.384-.432-.793-.842-1.177-1.274-.512-.577-.993-1.181-1.517-1.746-.764-.825-1.548-1.633-2.338-2.433q-.795-.8-1.632-1.562c-.788-.715-1.594-1.409-2.392-2.113C1549.313,1118.443,1549,1118.161,1548.684,1117.88Zm11.756,16.6c.308.369.655.724.929,1.128.576.849,1.1,1.732,1.685,2.577a.609.609,0,0,0,.524.007,4.625,4.625,0,0,0,.553-1.522,2.423,2.423,0,0,0-.413-1.314c-.536-.882-1.549-1.022-2.41-1.388a.288.288,0,0,0-.227.049C1560.875,1134.149,1560.68,1134.3,1560.44,1134.476Z" fill="#f0ebd5" stroke="#f0ebd5" stroke-miterlimit="10" stroke-width="1.417"/>
    </g>
  </g>
</svg>
