<svg xmlns="http://www.w3.org/2000/svg" width="169.282" height="145.335" viewBox="0 0 169.282 145.335">
  <g id="Group_29" data-name="Group 29" transform="translate(-6426.508 -3336.313)">
    <path id="Path_177" data-name="Path 177" d="M6581.041,3336.313l-70.028,41.475s14.272,32.086-12.452,43.861c-25.215,11.111-42.039-12.8-42.039-12.8l-30.014,15.263s11.368,42.523,61.811,55.465c34.208,8.776,85.485-10.574,101.7-54.705C6607.022,3378.593,6581.041,3336.313,6581.041,3336.313Z" fill="#fab017"/>
    <path id="Path_178" data-name="Path 178" d="M6497.747,3472.1a76.843,76.843,0,0,0,34.619-8.051,97.7,97.7,0,0,0,24.472-16.979,108.546,108.546,0,0,0,19.755-25.15,82.563,82.563,0,0,0,9.824-29.012,109.862,109.862,0,0,0,.508-26.9,120.825,120.825,0,0,0-5.89-27.555.719.719,0,0,0-1.346.506,119.264,119.264,0,0,1,5.81,27.231c1.429,14.509.827,35.832-10.153,55.018-17.705,30.94-48.781,49.972-77.6,49.462a59.2,59.2,0,0,1-17.583-2.938c-20.749-6.862-32.9-18.06-39.435-26.246-7.062-8.842-9.253-16.117-9.274-16.189a.719.719,0,0,0-1.379.405c.09.307,2.293,7.621,9.53,16.681a75.569,75.569,0,0,0,15.149,14.261,93.065,93.065,0,0,0,24.958,12.452A60.771,60.771,0,0,0,6497.747,3472.1Z" fill="#ed242a"/>
    <g id="Group_28" data-name="Group 28">
      <path id="Path_179" data-name="Path 179" d="M6510.4,3398.391s5.836-2.48,8.541-7.151,2.161-8.961-2.69-10.492-7.99,3.86-8.165,7.717S6510.4,3398.391,6510.4,3398.391Z" fill="#699e59"/>
      <path id="Path_180" data-name="Path 180" d="M6499.819,3403.283s2.589,5.789,7.31,8.405,9,1.992,10.44-2.887-4.01-7.916-7.869-8.019S6499.819,3403.283,6499.819,3403.283Z" fill="#699e59"/>
      <path id="Path_181" data-name="Path 181" d="M6496.75,3405.409s-4.708,4.248-5.742,9.545.881,9.177,5.966,9.041,6.294-6.255,5.2-9.958S6496.75,3405.409,6496.75,3405.409Z" fill="#699e59"/>
      <path id="Path_182" data-name="Path 182" d="M6506.626,3398.433s.046-6.342-3.164-10.681-7.363-5.548-10.7-1.7.363,8.866,3.832,10.561S6506.626,3398.433,6506.626,3398.433Z" fill="#699e59"/>
      <path id="Path_183" data-name="Path 183" d="M6489.053,3427.531s.047-6.341-3.163-10.681-7.363-5.547-10.7-1.705.364,8.866,3.833,10.561S6489.053,3427.531,6489.053,3427.531Z" fill="#699e59"/>
      <path id="Path_184" data-name="Path 184" d="M6465.44,3404.619s-4.72,4.236-5.767,9.531.857,9.179,5.942,9.056,6.31-6.238,5.228-9.945S6465.44,3404.619,6465.44,3404.619Z" fill="#699e59"/>
      <path id="Path_185" data-name="Path 185" d="M6471.9,3399.559s2.99,5.592,7.884,7.87,9.119,1.353,10.21-3.615-4.557-7.614-8.414-7.445S6471.9,3399.559,6471.9,3399.559Z" fill="#699e59"/>
    </g>
  </g>
</svg>
