<svg xmlns="http://www.w3.org/2000/svg" width="416.448" height="325.362" viewBox="0 0 416.448 325.362">
  <g id="Group_29" data-name="Group 29" transform="translate(-1567.538 -3939.821)">
    <path id="Path_112" data-name="Path 112" d="M1712.669,4087.142c5.115-2.71,10.221-5.437,15.346-8.127,8.742-4.59,17.465-9.218,26.274-13.675,1.5-.758,3.707-3.082,4.981-.564,1.119,2.213-1.782,3.131-3.326,3.984-8.761,4.841-17.6,9.547-26.434,14.249a44.417,44.417,0,0,0-11.111,8.023c-.977,1-2.823,2.07-1.714,3.784.988,1.527,2.828.789,4.259.463,5.335-1.213,10.232-3.595,15.044-6.089,7.78-4.033,15.462-8.255,23.191-12.386,1.226-.655,2.468-1.284,3.727-1.872.924-.432,1.929-.659,2.594.382s.091,1.826-.807,2.429c-1.842,1.238-3.6,2.626-5.541,3.686-8.543,4.668-17.136,9.246-25.715,13.849a38.366,38.366,0,0,0-9.311,6.972c-.737.751-1.917,1.585-1.471,2.793.547,1.487,2.1,1.076,3.284,1.09a18.021,18.021,0,0,0,8.47-1.933c12.12-6.225,24.264-12.409,35.948-19.449,7.262-4.376,11.316-11.213,15.032-18.474,3.394-6.634,5.748-13.767,11.036-19.479,7.294-7.879,16.435-12.825,25.824-17.284,20.589-9.779,41.723-18.28,63.07-26.3,17.04-6.4,33.844-13.43,51.1-19.277a188.389,188.389,0,0,0,19.138-7.12c12.115-5.637,19.967-15.652,25.784-27.3,1.883-3.772-.388-6.927-5.209-7.354-16.1-1.425-31.339.637-45.687,9.232-21.59,12.933-42.98,26.186-64.285,39.566-14.937,9.381-29.791,18.907-44.988,27.85-12.978,7.637-24.963,16.63-37.146,25.38-3.609,2.592-7.918,3.35-12.193,3.814a43.878,43.878,0,0,0-15.444,4.774q-15.393,7.934-30.553,16.319c-6.834,3.762-11.067,9.794-14.043,16.766Z" fill="none" stroke="#f0ebd5" stroke-miterlimit="10" stroke-width="3.887"/>
    <path id="Path_113" data-name="Path 113" d="M1762.942,4170.845c-.9.283-1.443,1.2-1.877,3.13-.759,3.377-1.063,9.519-.245,17.062l-.036,0a1.691,1.691,0,0,0,.072.292c1.724,15.433,8.207,36.687,25.523,52.77,23.566,21.888,46.763,20.119,47.738,20.035l1.152-.1.083-1.153c.089-1.225,1.988-30.275-13.8-53.706C1805.973,4186.06,1766.582,4169.7,1762.942,4170.845Zm45.786,27.937c-.37,1.477-1.409,5.286-3.709,11.609a63.41,63.41,0,0,1-7.347,13.83c-.3-.339-.591-.68-.876-1.013-1.785-2.086-3.547-4.33-5.283-6.639l10.435-23.374C1804.286,4194.96,1806.564,4196.823,1808.728,4198.782Zm-3.607,55.089c1.065-.592,2.544-1.419,4.553-2.713a31.423,31.423,0,0,0,5.564-4.542c2.679,2.657,5.253,5.171,7.574,7.414l-7.211,4.5a68.949,68.949,0,0,1-10.7-4.542Zm19.707,2.1c2.317,2.224,4.292,4.1,5.725,5.446a56.174,56.174,0,0,1-11.475-1.854Zm1.829-2.008,4.865-10.027a103.058,103.058,0,0,1,1.2,15.8C1831.268,4258.363,1829.168,4256.375,1826.657,4253.963Zm-2.056-1.981c-2.27-2.193-4.776-4.64-7.384-7.226a35.912,35.912,0,0,0,7.077-7.919A38.347,38.347,0,0,0,1827,4231.5c.381-.9.714-1.766,1-2.559a92.6,92.6,0,0,1,2.713,10.437Zm-11.287-7.283a28.9,28.9,0,0,1-5.109,4.178c-1.944,1.252-3.375,2.049-4.407,2.624-.693.388-1.227.687-1.65.974a76.692,76.692,0,0,1-10.453-7.321,27.818,27.818,0,0,0,9.057-.675c4.52-1.175,6.861-3.013,8.037-4.352C1810.3,4241.672,1811.817,4243.2,1813.314,4244.7Zm-6.438-6.537c-.758.926-2.618,2.6-6.806,3.688a27.956,27.956,0,0,1-12.093.023,75.147,75.147,0,0,1-9.652-11.012,49.461,49.461,0,0,0,9.375-.31,39.281,39.281,0,0,0,9.722-2.5C1800.311,4231.285,1803.554,4234.732,1806.876,4238.162Zm-27-17.9a21.265,21.265,0,0,0,9.653-1.8c1.708,2.266,3.448,4.455,5.205,6.509.254.3.52.6.783.906a38.661,38.661,0,0,1-8.184,1.985,48.894,48.894,0,0,1-10.975.119,78.787,78.787,0,0,1-5.188-9.266A51.58,51.58,0,0,0,1779.874,4220.26Zm9.787-6.2c-2.111-2.919-4.157-5.925-6.118-8.947.393-1.4,1.481-5.207,2.943-9.587,1.205-3.614,2.565-7.833,3.382-10.384,3.261,1.929,6.588,4.072,9.842,6.408Zm-24.351-12.112a88.461,88.461,0,0,1-1.613-8.7c.577.223,1.239.467,2.045.762,1.539.566,3.285,1.207,4.616,1.822a15.241,15.241,0,0,0,5.125,1.474c1.318,2.21,2.7,4.474,4.148,6.757-1.892.017-4.62-.014-7.122-.248A25.226,25.226,0,0,1,1765.31,4201.945Zm6.187-8.587c-1.43-.66-3.231-1.321-4.821-1.9-1.206-.441-2.754-1.014-3.338-1.325a58.963,58.963,0,0,1,.147-14.664c1.844,3.659,5.461,10.632,10.16,18.711A15.581,15.581,0,0,1,1771.5,4193.358Zm6.255,2.434,5.06-14.568q2.271,1.181,4.651,2.525c-.782,2.446-2.257,7.035-3.552,10.913-.96,2.877-1.762,5.512-2.319,7.41Q1779.585,4198.884,1777.752,4195.792Zm2.618-15.813-4.426,12.744c-4.82-8.295-8.475-15.37-10.217-18.842A97.806,97.806,0,0,1,1780.37,4179.979Zm-17.01,10.393a1.071,1.071,0,0,1,.122.357l-.085.009C1763.384,4190.616,1763.372,4190.494,1763.36,4190.372Zm2.773,14.791a27.144,27.144,0,0,0,6.122,1.344,80.569,80.569,0,0,0,9.1.234c2.078,3.2,4.258,6.392,6.5,9.473a18.429,18.429,0,0,1-7.811,1.335,56.8,56.8,0,0,1-10.313-2.028A85.474,85.474,0,0,1,1766.133,4205.163Zm60.39,19.61a47.946,47.946,0,0,1-4.532,10.628,33.786,33.786,0,0,1-6.706,7.429c-1.536-1.535-3.09-3.1-4.64-4.688,1.464-1.332,3.832-4.162,6.278-9.966.109-.258.219-.526.328-.8a80.861,80.861,0,0,0,3.891-13.735A72.15,72.15,0,0,1,1826.523,4224.773Zm-7.523-14.5a85.859,85.859,0,0,1-4.266,16.1c-2.484,6.173-4.829,8.809-5.982,9.832-3.244-3.351-6.407-6.714-9.231-9.876a68.105,68.105,0,0,0,7.119-12.635q.489-1.158.931-2.369c1.815-4.991,2.847-8.4,3.407-10.43A63.661,63.661,0,0,1,1819,4210.27Z" fill="#f0ebd5"/>
    <path id="Path_114" data-name="Path 114" d="M1644.63,4104.9c-.473-.814-1.483-1.145-3.465-1.145-3.461,0-9.521,1.05-16.7,3.5l-.012-.033a1.667,1.667,0,0,0-.269.133c-14.68,5.067-34,16.051-45.891,36.472-16.189,27.791-9.378,50.036-9.082,50.969l.352,1.1,1.143-.172c1.215-.182,29.975-4.7,49.375-25.237C1639.219,4150.225,1646.547,4108.2,1644.63,4104.9Zm-17.219,50.8c-1.522-.037-5.466-.216-12.14-1.074a63.3,63.3,0,0,1-15.1-4.136c.266-.362.534-.725.8-1.077,1.644-2.2,3.447-4.41,5.32-6.609l25.092,5.056C1630.166,4150.529,1628.848,4153.16,1627.411,4155.7Zm-54.54,8.558c.812.909,1.942,2.171,3.645,3.848a31.372,31.372,0,0,0,5.652,4.433c-2.006,3.2-3.894,6.259-5.573,9.015l-5.976-6.048a69.011,69.011,0,0,1,2.087-11.432C1572.761,4164.138,1572.815,4164.2,1572.871,4164.259Zm2.272,19.688c-1.662,2.749-3.057,5.086-4.059,6.78a56.271,56.271,0,0,1-.707-11.6Zm2.36,1.345,10.849,2.548a102.957,102.957,0,0,1-15.149,4.636C1574.221,4190.755,1575.7,4188.271,1577.5,4185.292Zm1.481-2.441c1.643-2.7,3.481-5.677,5.433-8.788a35.9,35.9,0,0,0,9.277,5.168,38.4,38.4,0,0,0,5.8,1.471c.965.173,1.88.308,2.717.417a92.571,92.571,0,0,1-9.589,4.935Zm4.632-12.609a28.823,28.823,0,0,1-5.2-4.069c-1.647-1.622-2.74-2.844-3.527-3.724-.53-.591-.939-1.046-1.312-1.4a76.629,76.629,0,0,1,4.852-11.8,27.8,27.8,0,0,0,2.644,8.689c2.137,4.152,4.444,6.033,6.008,6.887C1585.91,4166.64,1584.749,4168.453,1583.616,4170.242Zm4.967-7.714c-1.07-.537-3.109-1.984-5.091-5.832a27.963,27.963,0,0,1-2.673-11.794,75.182,75.182,0,0,1,8.628-11.831,49.447,49.447,0,0,0,2.358,9.079,39.286,39.286,0,0,0,4.573,8.937C1593.853,4154.615,1591.2,4158.535,1588.583,4162.528Zm11.546-30.271a21.279,21.279,0,0,0,3.869,9.025c-1.836,2.164-3.591,4.341-5.21,6.5-.234.314-.474.641-.711.963a38.711,38.711,0,0,1-3.732-7.55,48.929,48.929,0,0,1-2.522-10.682,78.846,78.846,0,0,1,7.9-7.093A51.772,51.772,0,0,0,1600.129,4132.257Zm8.2,8.19c2.385-2.7,4.87-5.355,7.389-7.931,1.453.076,5.405.3,10,.769,3.791.384,8.206.786,10.873,1.024-1.167,3.6-2.529,7.32-4.1,11.008Zm6.479-26.415c2.81-1.371,5.545-2.523,8.14-3.482-.091.613-.185,1.312-.3,2.163-.214,1.626-.456,3.47-.765,4.9a15.255,15.255,0,0,0-.314,5.324c-1.868,1.77-3.773,3.618-5.684,5.528-.431-1.842-1-4.511-1.319-7A25.228,25.228,0,0,1,1614.806,4114.032Zm9.734,4.155c.331-1.54.581-3.443.8-5.122.166-1.273.386-2.909.561-3.547a59,59,0,0,1,14.34-3.072c-3.166,2.6-9.177,7.659-16.029,14.016A15.811,15.811,0,0,1,1624.54,4118.187Zm-1,6.636,15.323,1.743c-.436,1.65-.917,3.351-1.444,5.092-2.558-.227-7.358-.66-11.426-1.073-3.018-.306-5.764-.511-7.738-.638Q1620.922,4127.289,1623.537,4124.823Zm16-.912-13.4-1.524c7.036-6.522,13.138-11.639,16.144-14.1A97.9,97.9,0,0,1,1639.539,4123.911Zm-13.869-14.318a1.026,1.026,0,0,1-.322.2l-.027-.08C1625.437,4109.67,1625.553,4109.632,1625.67,4109.593Zm-13.823,5.949a27.17,27.17,0,0,0,.03,6.267,80.657,80.657,0,0,0,1.767,8.931c-2.665,2.729-5.3,5.556-7.816,8.421a18.43,18.43,0,0,1-3.015-7.328,56.667,56.667,0,0,1-.282-10.506A84.858,84.858,0,0,1,1611.847,4115.542Zm-5.894,63.219a47.922,47.922,0,0,1-11.363-2.092,33.793,33.793,0,0,1-8.719-4.914c1.161-1.834,2.352-3.695,3.558-5.554,1.62,1.136,4.9,2.826,11.1,3.94.276.05.561.1.849.146a80.886,80.886,0,0,0,14.254.785A72.013,72.013,0,0,1,1605.953,4178.761Zm12.5-10.52a85.711,85.711,0,0,1-16.639-.633c-6.567-1.07-9.653-2.78-10.9-3.681,2.557-3.9,5.146-7.723,7.611-11.171a68.189,68.189,0,0,0,13.888,4.176c.825.148,1.666.279,2.516.388,5.267.677,8.818.937,10.923,1.038A63.634,63.634,0,0,1,1618.454,4168.241Z" fill="#f0ebd5"/>
    <path id="Path_115" data-name="Path 115" d="M1656.954,4205.311c-.312-.536-.976-.754-2.281-.754a37.955,37.955,0,0,0-10.988,2.3l-.008-.022a1.144,1.144,0,0,0-.177.088c-9.658,3.333-22.367,10.56-30.193,24-10.651,18.285-6.17,32.921-5.975,33.534l.231.725.752-.113c.8-.12,19.722-3.091,32.486-16.6C1653.393,4235.129,1658.215,4207.482,1656.954,4205.311Zm-11.33,33.421c-1-.024-3.6-.142-7.987-.707a41.711,41.711,0,0,1-9.938-2.721c.176-.238.352-.477.524-.708,1.082-1.447,2.268-2.9,3.5-4.349l16.51,3.327C1647.437,4235.329,1646.569,4237.06,1645.624,4238.732Zm-35.884,5.631c.535.6,1.278,1.428,2.4,2.531a20.645,20.645,0,0,0,3.718,2.917c-1.319,2.1-2.562,4.118-3.666,5.931l-3.932-3.979a45.26,45.26,0,0,1,1.373-7.521Zm1.495,12.953c-1.093,1.808-2.011,3.346-2.67,4.46a36.972,36.972,0,0,1-.465-7.633Zm1.553.885,7.138,1.676a67.887,67.887,0,0,1-9.967,3.051C1610.629,4261.795,1611.6,4260.161,1612.788,4258.2Zm.975-1.606c1.08-1.773,2.29-3.735,3.574-5.782a23.612,23.612,0,0,0,6.1,3.4,25.29,25.29,0,0,0,3.817.968c.634.114,1.237.2,1.787.274a60.753,60.753,0,0,1-6.309,3.247Zm3.047-8.3a18.958,18.958,0,0,1-3.418-2.677c-1.085-1.067-1.8-1.871-2.321-2.451-.349-.389-.618-.688-.863-.918a50.431,50.431,0,0,1,3.192-7.766,18.312,18.312,0,0,0,1.739,5.716,10.221,10.221,0,0,0,3.953,4.532C1618.319,4245.929,1617.556,4247.122,1616.81,4248.3Zm3.268-5.076a8.239,8.239,0,0,1-3.349-3.836,18.383,18.383,0,0,1-1.759-7.76,49.421,49.421,0,0,1,5.676-7.784,32.579,32.579,0,0,0,1.552,5.973,25.84,25.84,0,0,0,3.009,5.88C1623.545,4238.017,1621.8,4240.6,1620.078,4243.223Zm7.6-19.916a13.982,13.982,0,0,0,2.545,5.938c-1.208,1.424-2.363,2.856-3.428,4.28-.154.206-.311.421-.468.634a25.5,25.5,0,0,1-2.455-4.968,32.172,32.172,0,0,1-1.659-7.028,51.773,51.773,0,0,1,5.2-4.666A33.936,33.936,0,0,0,1627.675,4223.307Zm5.393,5.389c1.57-1.777,3.2-3.523,4.862-5.218.956.049,3.556.2,6.578.506,2.494.252,5.4.517,7.153.674-.767,2.371-1.663,4.815-2.693,7.242Zm4.263-17.379a57.955,57.955,0,0,1,5.356-2.291c-.06.4-.122.863-.2,1.422-.141,1.07-.3,2.283-.5,3.226a10.033,10.033,0,0,0-.207,3.5c-1.229,1.165-2.483,2.381-3.74,3.637-.283-1.212-.657-2.968-.868-4.607A16.6,16.6,0,0,1,1637.331,4211.317Zm6.4,2.733c.217-1.013.382-2.265.527-3.37.109-.837.254-1.914.369-2.333a38.8,38.8,0,0,1,9.435-2.022c-2.083,1.712-6.038,5.04-10.546,9.222A10.4,10.4,0,0,1,1643.736,4214.05Zm-.66,4.366,10.081,1.147c-.287,1.085-.6,2.2-.95,3.35-1.683-.149-4.841-.434-7.518-.706-1.985-.2-3.792-.336-5.091-.42Q1641.355,4220.04,1643.076,4218.416Zm10.528-.6-8.819-1c4.629-4.291,8.644-7.657,10.621-9.277A64.309,64.309,0,0,1,1653.6,4217.816Zm-9.125-9.42a.706.706,0,0,1-.212.13l-.018-.054Zm-9.095,3.914a17.858,17.858,0,0,0,.02,4.123,52.969,52.969,0,0,0,1.163,5.876c-1.754,1.8-3.489,3.655-5.143,5.541a12.137,12.137,0,0,1-1.984-4.822,37.32,37.32,0,0,1-.185-6.912A55.941,55.941,0,0,1,1635.384,4212.31Zm-3.878,41.594a31.484,31.484,0,0,1-7.475-1.376,22.223,22.223,0,0,1-5.737-3.234c.764-1.207,1.547-2.431,2.34-3.654a18.341,18.341,0,0,0,7.3,2.592c.182.033.369.065.559.1a53.291,53.291,0,0,0,9.378.517A47.392,47.392,0,0,1,1631.506,4253.9Zm8.225-6.921a56.4,56.4,0,0,1-10.947-.417c-4.321-.7-6.351-1.829-7.174-2.422,1.683-2.566,3.386-5.081,5.008-7.35a44.91,44.91,0,0,0,9.138,2.748c.542.1,1.095.183,1.655.255,3.465.446,5.8.616,7.186.683A41.832,41.832,0,0,1,1639.731,4246.983Z" fill="#f0ebd5"/>
  </g>
</svg>
