<svg xmlns="http://www.w3.org/2000/svg" width="1920" height="816.118" viewBox="0 0 1920 816.118">
  <g id="Group_64" data-name="Group 64" transform="translate(0 -264.882)">
    <g id="Group_51" data-name="Group 51">
      <path id="Path_189" data-name="Path 189" d="M1160.75,961.978c.123,11.307-.3,22.554-.861,33.844-.792,15.992-1.306,32.114-1.064,48.178h11.036c-.615-12.771-.869-25.555-.651-38.355.2-11.479.8-22.94.668-34.424-.127-11.238-.525-22.487-.889-33.719-.407-12.552-.934-25.1-1.442-37.642-.246-6.093-1.02-12.129-1.153-18.221-.137-6.208.453-12.548-.834-18.638-.623-2.943-4.452-1.968-5.192.258-1.655,4.974-1.534,10.346-1.747,15.555-.221,5.437-.847,10.921-.851,16.352-.008,11.242.665,22.456,1.368,33.67C1159.832,939.873,1160.629,950.917,1160.75,961.978Z"/>
      <path id="Path_190" data-name="Path 190" d="M1121.5,841.859a75.261,75.261,0,0,0-.975,15.126c.516,7.515,1.576,14.979,2.517,22.449,3.618,28.737,2.532,57.811,2.238,86.7a278.951,278.951,0,0,0,2.336,42.158c1.688,11.945,3.984,23.792,5.856,35.707h10.124c-3.495-23.554-8.407-46.769-8.236-70.784.211-29.4,2.25-59.153-.6-88.468-1.358-13.95-3.275-27.741-2.008-41.765.952-10.534,3.684-23.8-1.875-33.537-3.225-5.647-11.9-1-8.9,4.776,1.858,3.582,1.576,8.063,1.34,11.969C1122.993,831.441,1122.192,836.649,1121.5,841.859Z"/>
      <path id="Path_191" data-name="Path 191" d="M1098.908,869.059c.136,15.145.834,30.267.738,45.417-.108,17.082-.479,34.159-.737,51.239-.4,26.12.168,52.207,1.322,78.285h9.331q-1.733-33.762-1.659-67.563c.053-17.054.443-34.1.507-51.158.06-16.011-.827-31.945-1.355-47.936-.517-15.626-.392-31.267-1.235-46.883-.8-14.923-2.077-30.209-7.063-44.4-1.347-3.834-7.412-2.584-6.275,1.485C1099.852,813.913,1098.666,841.962,1098.908,869.059Z"/>
      <path id="Path_192" data-name="Path 192" d="M1053.387,807.682c.534,18.907.752,37.821,1.386,56.726.628,18.751-1.156,37.554.127,56.28.631,9.211,2.216,18.311,2.744,27.541.521,9.111.537,18.239.355,27.362-.187,9.4-.432,18.726.3,28.11.728,9.3,2.061,18.536,3.434,27.758.623,4.182,1.263,8.357,1.824,12.541h10.981c-2.155-17.075-5.755-33.947-6.244-51.216-.539-19.069.819-37.992-1.288-57.032-1.052-9.5-2.335-18.809-2.371-28.394-.036-9.291.4-18.575.434-27.864.077-21.621-1.392-43.263-1.582-64.892-.1-10.907-.137-21.812-.555-32.713-.411-10.686.088-21.982-2.731-32.326-1.1-4.027-6.335-3.459-7.018.483-1.615,9.324-.618,18.961-.478,28.413C1052.854,788.2,1053.112,797.94,1053.387,807.682Z"/>
      <path id="Path_193" data-name="Path 193" d="M1016.228,903.869c.973,21.145,2.431,42.236,4.123,63.331.818,10.2.077,20.424-.164,30.634a164.077,164.077,0,0,0,2.5,30.691c.836,5.147,1.382,10.307,1.72,15.475h9.506c-.538-10.1-2.738-19.88-3.709-29.91-1.066-11.017-.156-22.081.048-33.114.386-20.9-3.4-41.873-5.39-62.639-2.063-21.527-3.519-43.1-3.931-64.723-.221-11.587-.372-23.118-1-34.7-.648-12.008-1.183-24.05-.006-36.044,1.835-18.712,4.932-39.431-1.348-57.607-.721-2.087-4.125-.885-3.636,1.225,4.068,17.539,1.172,35.525-.9,53.118-2.438,20.657.616,41.32.869,62C1015.162,862.38,1015.272,883.113,1016.228,903.869Z"/>
      <path id="Path_194" data-name="Path 194" d="M975.343,777.46c-.013,21.124,2.019,42.131,2.925,63.218.911,21.212-.584,42.312-.9,63.512a266.771,266.771,0,0,0,1.266,32.551c1.11,10.307,2.458,20.58,3.406,30.906,1.955,21.309,1.69,42.657,1.4,64.029-.055,4.1-.129,8.214-.166,12.324h10.513c.2-20.418.9-40.853.016-61.263-.9-20.9-3.975-41.653-4.816-62.57-.858-21.376,1.236-42.723,1.028-64.1-.234-24.036-3.089-47.967-3.071-72.013.019-23.546,1.824-47.1-1.835-70.485-1.037-6.621-10.576-4.4-10.012,2C976.912,736.14,975.355,756.854,975.343,777.46Z"/>
      <path id="Path_195" data-name="Path 195" d="M941.956,763.1c1.911,22.269,3.241,44.531,3.368,66.886.126,21.991-1.179,43.952-1.857,65.924-.694,22.505.422,44.892.608,67.385.183,22.116-.48,44.277-1.258,66.377-.167,4.778-.429,9.552-.73,14.324h8.846c.577-21.368,1.813-42.7,1.756-64.089-.058-22.132-1.6-44.227-1.535-66.352.067-22.511,1.4-44.993,1.766-67.5.4-24.674-1.527-49.253-3.535-73.832-1.01-12.359-2.431-24.676-3.487-37.029-.491-5.74-.7-11.415-1.638-17.11-.887-5.4-2.4-10.71-2.435-16.219-.012-1.853-2.826-1.975-3.19-.213-1.96,9.482.468,19.046.709,28.576C939.623,741.228,941.016,752.157,941.956,763.1Z"/>
      <path id="Path_196" data-name="Path 196" d="M1186.547,926.414c.581,7.463,1.761,14.82,2.764,22.23,2.222,16.416,3.278,33.075,4.468,49.593,1.1,15.261,2.261,30.487,3.066,45.763h7.468c-1.157-29.368-2.343-58.74-4.958-88.02a158.672,158.672,0,0,0-4.246-25.3c-1.011-3.973-1.71-8.138-3.038-12.013a20.167,20.167,0,0,1-1.54-6.93,64.649,64.649,0,0,1,.48-6.925c.312-2.615-3.863-3.122-4.054-.5-.256,3.515.173,7.029-.066,10.528A76.621,76.621,0,0,0,1186.547,926.414Z"/>
      <path id="Path_197" data-name="Path 197" d="M891.053,827.062c-.577,23.268-.483,46.552-1.231,69.817-.377,11.72-.975,23.373-.537,35.1.439,11.782,1.436,23.534,2.254,35.294,1.574,22.631,2.281,45.44.337,68.073-.247,2.883-.567,5.767-.926,8.651h11.518a380.559,380.559,0,0,0,1.768-59.068c-.914-23.254-3.917-46.455-3.457-69.753.463-23.453,1.519-46.813,1.187-70.286-.329-23.272-.882-46.55-1.455-69.82-.53-21.53-2.037-43.036-2.021-64.58,0-4.689.078-9.38.261-14.067.1-2.571-2.655-4.543-5.018-4.421-2.8.144-4.279,2.483-4.421,5.018-1.128,20.13-.257,40.449.821,60.565C891.376,780.79,891.628,803.842,891.053,827.062Z"/>
      <path id="Path_198" data-name="Path 198" d="M844.627,750.691c-1.138,10.36.074,20.943.516,31.321.495,11.633.916,23.268,1.19,34.908,1.09,46.425-1.894,93.048,3.159,139.319,1.253,11.472,3.311,22.743,5.324,34.094a325.4,325.4,0,0,1,3.836,32.533c.528,7.037.882,14.085,1.213,21.134h10.214q-.115-2.143-.22-4.286c-.56-11.677-1.232-23.365-2.525-34.987-1.233-11.094-3.584-21.96-5.28-32.979-7.075-45.967-4.4-92.57-4.594-138.873-.1-23.5-1.1-46.989-2.126-70.467-.4-9.217-.727-18.251-.286-27.472.431-9,1.044-18.132.235-27.128a55,55,0,0,0-2.153-11.435c-1.709-5.488-10.22-2.672-8.467,2.8,2.478,7.745,2.374,16.2,2.144,24.249C846.547,732.534,845.622,741.641,844.627,750.691Z"/>
      <path id="Path_199" data-name="Path 199" d="M807.732,802.859c-.254,9.894-2.995,19.587-3.992,29.419-1.115,10.981-.125,22.095.269,33.094.414,11.544.629,23.093.89,34.641.547,24.217,1.128,48.436,2.125,72.64.921,22.373-.6,44.94,1.342,67.251q.178,2.049.4,4.1H818.9c-.687-7.148-1.209-14.3-1.356-21.524-.232-11.364-.024-22.733-.278-34.1-.52-23.26-2.05-46.517-2.773-69.777q-1.09-35.081-1.836-70.166c-.226-10.128,1.585-19.621,3.306-29.54a105.266,105.266,0,0,0,.753-32.29c-2.828-21.872-5.358-43.581-5.942-65.659q-.2-7.443-.134-14.89c.054-6.16-9.449-5.919-9.563.231a476.512,476.512,0,0,0,3.288,63.569C805.633,780.8,808.016,791.8,807.732,802.859Z"/>
      <path id="Path_200" data-name="Path 200" d="M767.648,842.374a71.741,71.741,0,0,1,.784,16.239c-.447,5.2-2.135,10.041-3.49,15.037a82.488,82.488,0,0,0-2.962,15.443c-.4,5.393-.144,10.884-.083,16.289.126,11.294.562,22.585,1.661,33.83,1.112,11.381,3.921,22.415,5.373,33.734,3,23.381,2.575,47.533,1.946,71.054h9.017c.413-17.541.519-35.059-1.008-52.588-1.992-22.867-6.736-45.41-7.814-68.352-.522-11.13-1.206-22.65-.389-33.774.763-10.378,5.113-20.153,5.639-30.619.541-10.786-3.529-21.05-5.262-31.556a324.055,324.055,0,0,1-3.227-32.681c-1.325-21.469-1.422-42.984-1.618-64.485-.043-4.829-.173-9.625-.464-14.446-.148-2.461-3.665-2.137-3.754.238-.777,20.84-.459,41.848.114,62.694A561.121,561.121,0,0,0,767.648,842.374Z"/>
      <path id="Path_201" data-name="Path 201" d="M704.658,771.136c.975,10.4,4.567,20.35,7.307,30.366,5.385,19.688,8.013,40.515,6.445,60.912-.758,9.855-2.48,19.629-3.3,29.49-.841,10.09-1.289,20.218-1.49,30.341a602.9,602.9,0,0,0,1.99,60.288c.828,10.313,2.11,20.553,1.871,30.918-.235,10.2-1.25,20.355-1.521,30.549H726.05c.369-15.652,2.517-31.314,1.084-46.984-3.635-39.765-5.423-80.3-.034-119.995,1.591-11.723,2.71-23.241,2.168-35.085a214.275,214.275,0,0,0-4.457-33.941c-2.381-11.41-6.321-22.438-8.5-33.889-2.189-11.488.345-23.2-1.813-34.675-.524-2.787-2.474-5.031-5.532-4.873-2.585.134-5.344,2.764-4.872,5.531C705.846,750.394,703.687,760.789,704.658,771.136Z"/>
      <path id="Path_202" data-name="Path 202" d="M668.746,769.214c.543,2.678.864,5.4,1.138,8.119.619,6.106.921,12.24,1.248,18.367.838,15.7,3.593,31.2,3.6,46.944a267.535,267.535,0,0,0,1.4,29.159c1.059,9.547,2.816,19.019,4.188,28.523,2.9,20.114-2.843,40.145-4.515,60.127-.843,10.079-.26,20.154-.135,30.249.127,10.179.148,20.361.594,30.534.334,7.6.87,15.174,1.281,22.764h8.728c-.23-3.636-.516-7.267-.9-10.887-1.135-10.532-1.658-21.091-2.023-31.674-.347-10.081-1.073-20.2-1.168-30.279-.19-20.271,5.341-40.133,4.978-60.4a201.314,201.314,0,0,0-2.987-29.3,290.311,290.311,0,0,1-2.995-30.678c-.658-11.523-1.576-23.137-2.894-34.608-.8-6.963-1.787-13.82-2.32-20.815-.544-7.158-1.03-14.344-2.076-21.45-.579-3.938-1-9.877-4.272-12.66-2.015-1.715-4.453,1.489-2.508,3.223C668.169,765.416,668.474,767.877,668.746,769.214Z"/>
      <path id="Path_203" data-name="Path 203" d="M629.169,863.232c1.18,8.187,2.77,16.312,3.712,24.533.935,8.164.9,16.385,1.151,24.59q.389,12.818.757,25.635c.465,17.008.84,33.861-.759,50.829-.79,8.382-2.276,16.676-3.008,25.062a238.838,238.838,0,0,0-.677,26.806c.028,1.1.077,2.209.116,3.313h9.873a228.943,228.943,0,0,1,1.573-40.685c4.845-34.385,3.6-69.239,2.426-103.821-.635-18.665-6.236-36.74-6.564-55.4-.283-16.092-.839-32.155-1.4-48.238-.189-5.361-9.393-5.495-9.486-.048-.245,14.283.539,28.549.677,42.829A183.631,183.631,0,0,0,629.169,863.232Z"/>
      <path id="Path_204" data-name="Path 204" d="M600.712,910.647c-.963,14.635-.656,29.236-.973,43.884-.33,15.256-.7,30.513-1.394,45.757-.668,14.594-.211,29.156.534,43.712h6.632a262.516,262.516,0,0,1-.8-34.7c.827-15.2.88-30.435.961-45.652.082-15.157.6-30.3.568-45.457-.071-29.005,4.472-59.638-6.133-87.431a1.076,1.076,0,0,0-2.05.648C606.424,856.979,602.441,884.386,600.712,910.647Z"/>
      <path id="Path_205" data-name="Path 205" d="M562.8,978.965q1.908,17.628,2.96,35.338.877,14.843,1.51,29.7h8.3c-.04-6.288-.149-12.571-.386-18.845a587.128,587.128,0,0,0-6.528-69.937c-1.7-10.708-3.1-21.417-4.387-32.179a84.517,84.517,0,0,1,2.433-33.131c1.2-4.3-5.28-6.516-6.633-2.194-2.879,9.2-2.777,18.736-3.163,28.26a192.129,192.129,0,0,0,1.515,30.207C559.707,957.133,561.619,968,562.8,978.965Z"/>
      <path id="Path_206" data-name="Path 206" d="M530.365,1040.192c-.005,1.275.048,2.543.141,3.808h7.5c-.5-10.826.891-21.7.06-32.5-.476-6.186-.952-12.179-.339-18.368.581-5.854,1.474-13.142-.385-18.829-.647-1.982-4.206-2.617-4.572-.056-.746,5.226-.333,10.812-.455,16.1-.125,5.4-.585,10.894-.441,16.291.154,5.807.609,11.448.079,17.26C531.461,1029.322,530.387,1034.736,530.365,1040.192Z"/>
    </g>
    <g id="Group_53" data-name="Group 53">
      <path id="Path_207" data-name="Path 207" d="M870.728,705l-108.3,64.142s22.072,49.619-19.256,67.83c-38.995,17.183-65.014-19.789-65.014-19.789l-46.415,23.605s17.579,65.761,95.59,85.775c52.9,13.572,132.2-16.352,157.276-84.6C910.907,770.386,870.728,705,870.728,705Z" fill="#fab017"/>
      <path id="Path_208" data-name="Path 208" d="M741.913,915c17.47.311,35.791-3.885,53.538-12.452A151.048,151.048,0,0,0,833.3,876.287a167.9,167.9,0,0,0,30.551-38.894,127.7,127.7,0,0,0,15.192-44.867,169.9,169.9,0,0,0,.786-41.6,186.857,186.857,0,0,0-9.109-42.613,1.112,1.112,0,0,0-2.081.782,184.573,184.573,0,0,1,8.985,42.112c2.209,22.438,1.278,55.414-15.7,85.086-27.381,47.847-75.44,77.281-120,76.491a91.5,91.5,0,0,1-27.192-4.543c-32.089-10.612-50.876-27.929-60.986-40.588-10.922-13.674-14.31-24.925-14.343-25.038a1.111,1.111,0,0,0-2.132.627c.14.475,3.547,11.785,14.738,25.8a116.849,116.849,0,0,0,23.428,22.053,143.885,143.885,0,0,0,38.6,19.258A93.987,93.987,0,0,0,741.913,915Z" fill="#ed242a"/>
      <g id="Group_52" data-name="Group 52">
        <path id="Path_209" data-name="Path 209" d="M761.488,801s9.026-3.834,13.209-11.058,3.342-13.859-4.16-16.226-12.357,5.969-12.629,11.934S761.488,801,761.488,801Z" fill="#699e59"/>
        <path id="Path_210" data-name="Path 210" d="M745.118,808.569s4,8.952,11.3,13,13.919,3.082,16.145-4.464-6.2-12.242-12.169-12.4S745.118,808.569,745.118,808.569Z" fill="#699e59"/>
        <path id="Path_211" data-name="Path 211" d="M740.371,811.856s-7.281,6.57-8.879,14.763,1.362,14.191,9.226,13.981,9.733-9.674,8.044-15.4S740.371,811.856,740.371,811.856Z" fill="#699e59"/>
        <path id="Path_212" data-name="Path 212" d="M755.644,801.068s.072-9.807-4.892-16.518-11.386-8.579-16.542-2.637.562,13.711,5.927,16.333S755.644,801.068,755.644,801.068Z" fill="#699e59"/>
        <path id="Path_213" data-name="Path 213" d="M728.469,846.068s.072-9.806-4.892-16.518-11.387-8.579-16.542-2.637.562,13.712,5.926,16.333S728.469,846.068,728.469,846.068Z" fill="#699e59"/>
        <path id="Path_214" data-name="Path 214" d="M691.95,810.636s-7.3,6.55-8.917,14.739,1.324,14.2,9.189,14.005,9.759-9.648,8.085-15.379S691.95,810.636,691.95,810.636Z" fill="#699e59"/>
        <path id="Path_215" data-name="Path 215" d="M701.941,802.81s4.625,8.648,12.193,12.17,14.1,2.093,15.79-5.59-7.047-11.775-13.013-11.514S701.941,802.81,701.941,802.81Z" fill="#699e59"/>
      </g>
    </g>
    <g id="Group_56" data-name="Group 56">
      <g id="Group_55" data-name="Group 55">
        <g id="Group_54" data-name="Group 54">
          <path id="Path_216" data-name="Path 216" d="M1285.783,712.771q1.779-.586,3.559-1.173l-20.612-8.571,17.932,7.456Z" fill="#dba2c9"/>
          <path id="Path_217" data-name="Path 217" d="M1039.257,635.362l94.161,44.874L926.369,581.563l-12.637-4.856a24.21,24.21,0,0,0-15.88-.861L881,619.688c3.01,5.607,8.157,10.414,15.9,13.39l6.325,2.431,221.21,65.609-99.148-29.408Z" fill="#dba2c9"/>
          <path id="Path_218" data-name="Path 218" d="M1286.662,710.483l-17.932-7.456c-14.148-5.438-25.277,10.649-49.024,10.156-24.725-.516-66.485-23.518-86.288-32.947l-94.161-44.874-13.972,36.348,99.148,29.408c30.535,10.39,60.162,19.917,89.248,33.793a14.961,14.961,0,0,1,1.485,1.13l70.617-23.27Z" fill="#231f20"/>
          <path id="Path_219" data-name="Path 219" d="M1695.465,593.061c-3.53-13.615-4.4-13.831-17.592-9.487q-119.253,39.277-238.495,78.583a38.367,38.367,0,0,1-.908,32.223c-9.445,18.725-33.008,26.315-51.821,16.694a37.79,37.79,0,0,1-19.526-25.109q-38.891,12.814-77.781,25.633l80.14,33.323-2.858,7.826L1308.147,730c-7.2-2.767-11.2-2.7-12.769-.13-.867,2.265,1.967,5.6,9.264,8.7l58.281,24.764-3.421,8.64-59.481-20.75c-7.762-2.707-11.183-2.44-12.8-.135-.391,2.5,2.228,5.379,9.344,8.423l57.835,24.745-3.219,8.326-58.962-20.349c-9.221-3.183-11.525-4.093-13.057-.6-.971,3.106,2.051,5.074,9.879,8.123l58.682,22.863-2.651,7.288-101.08-34.355c-10.347-3.526-18.525-31.016-28.825-39.51q-46.86,15.442-93.718,30.885c-13.738,4.529-14.249,5.084-8.723,18.663,7.155,17.584,14.905,34.885,24.93,51.14,74.02,120.019,216.482,175.058,351.318,134.585,62.995-18.909,115.1-54.722,154.66-107.555C1704.8,782.074,1720.971,691.455,1695.465,593.061Z" fill="#ef5724"/>
          <path id="Path_220" data-name="Path 220" d="M1295.378,729.871c1.565-2.572,5.57-2.637,12.769.13C1300.96,727.205,1296.943,727.3,1295.378,729.871Z" fill="#ef5724"/>
          <path id="Path_221" data-name="Path 221" d="M1259.61,780.858l-15.619-5.307,101.08,34.355,2.651-7.288-58.682-22.863c-7.828-3.049-10.85-5.017-9.879-8.123,1.532-3.491,3.836-2.581,13.057.6l58.962,20.349,3.219-8.326-57.835-24.745c-7.116-3.044-9.735-5.921-9.344-8.423,1.618-2.3,5.039-2.572,12.8.135l59.481,20.75,3.421-8.64-58.281-24.764c-7.3-3.1-10.131-6.434-9.264-8.7,1.565-2.572,5.582-2.666,12.769.13l58.477,22.746,2.858-7.826-80.14-33.323q-1.781.585-3.559,1.173Z" fill="#f2f1e6"/>
          <path id="Path_222" data-name="Path 222" d="M1243.991,775.551l15.619,5.307,26.173-68.087-70.617,23.27C1225.466,744.535,1233.644,772.025,1243.991,775.551Z" fill="#f2f1e6"/>
        </g>
        <path id="Path_223" data-name="Path 223" d="M1439.378,662.156a38.162,38.162,0,0,0-72.255,23.809l32.535-10.721Z" fill="#ed242a"/>
        <path id="Path_224" data-name="Path 224" d="M1386.649,711.074c18.813,9.621,42.376,2.031,51.821-16.693a38.371,38.371,0,0,0,.908-32.225l-39.72,13.088-32.535,10.721A37.792,37.792,0,0,0,1386.649,711.074Z" fill="#fab017"/>
      </g>
      <path id="Path_225" data-name="Path 225" d="M1465.478,846.9c25.742,13.084,36.343,45.363,23.354,71.112-13.041,25.851-45.571,36.33-71.545,23.046-25.73-13.158-35.883-45.19-22.577-71.225A52.882,52.882,0,0,1,1465.478,846.9Z" fill="#ed242a"/>
      <path id="Path_226" data-name="Path 226" d="M1323.035,770.565c25.742,13.085,36.343,45.364,23.354,71.112-13.041,25.852-45.571,36.33-71.545,23.047-25.73-13.159-35.883-45.191-22.577-71.225A52.883,52.883,0,0,1,1323.035,770.565Z" fill="#ed242a"/>
      <path id="Path_227" data-name="Path 227" d="M1544.418,721.961c30.432,15.468,42.963,53.626,27.608,84.065-15.416,30.561-53.872,42.948-84.577,27.245-30.416-15.556-42.419-53.422-26.69-84.2A62.516,62.516,0,0,1,1544.418,721.961Z" fill="#ed242a"/>
      <path id="Path_228" data-name="Path 228" d="M1571.715,546.933a38.729,38.729,0,0,1,16.916,51.508c-9.446,18.725-33.008,26.315-51.822,16.694-18.636-9.532-25.99-32.733-16.353-51.591A38.3,38.3,0,0,1,1571.715,546.933Z" fill="#ed242a"/>
      <path id="Path_229" data-name="Path 229" d="M1678.555,672.922a38.728,38.728,0,0,1,16.916,51.508c-9.446,18.725-33.009,26.315-51.822,16.693-18.637-9.531-25.991-32.732-16.353-51.59A38.3,38.3,0,0,1,1678.555,672.922Z" fill="#e11f26"/>
    </g>
    <path id="Path_230" data-name="Path 230" d="M1184.609,500.175s-9.207-34.387,21.3-36.535l8.213.17L1255,413.444s-19.2-22.975-68.286-11.779c0,0-37.933,17.465-48.7,35.871,0,0-23.319,39.136-19.773,58.416,0,0,1.391,23.4,30.372,54.574l37.116-45.733Z" fill="#ec232a"/>
    <g id="Group_57" data-name="Group 57">
      <circle id="Ellipse_4" data-name="Ellipse 4" cx="16.675" cy="16.675" r="16.675" transform="translate(1382.909 319.943)" fill="#6a9f58"/>
      <circle id="Ellipse_5" data-name="Ellipse 5" cx="16.675" cy="16.675" r="16.675" transform="translate(1329.316 321.864)" fill="#6a9f58"/>
      <circle id="Ellipse_6" data-name="Ellipse 6" cx="16.675" cy="16.675" r="16.675" transform="translate(1352.852 276.584)" fill="#6a9f58"/>
    </g>
    <path id="Path_231" data-name="Path 231" d="M1120.095,369.317l33.769,23.772s15.431,32.349,16.541,55.388c0,0-20.9-5.933-29.266-13.5C1141.139,434.981,1116.448,396.393,1120.095,369.317Z" fill="#699e59"/>
    <path id="Path_232" data-name="Path 232" d="M1046.982,497.138a67.584,67.584,0,0,0,48.983-15.9l20.469-12.181,24.705-34.072s-1.591-4.69-45.145,11L1078.5,456.756Z" fill="#699e59"/>
    <path id="Path_233" data-name="Path 233" d="M1365.9,592.906s25.2-14.52,33.331,9.108l1.6,6.519,48.377,21.642s14.086-20-5.1-56.384c0,0-21.785-26.259-38.584-30.872,0,0-35.81-10.152-50.28-3.287,0,0-18.176,6.033-36.672,35.483l43.927,19.652Z" fill="#ec232a"/>
    <path id="Path_236" data-name="Path 236" d="M1918.22,761.3l-35.8-18.186a156.25,156.25,0,0,0-193.953,43.178L1687.138,788c-41.872,53.658-113.556,73.755-177.481,50.386-15.508-5.669-27.147-8.08-29.27-3.683-7.387,15.3-203.7,40.744-219.543,46.021-12.152,4.046-163.1,67.9-232.789,97.44a156.232,156.232,0,0,1-72.639,11.953L728.469,973.129,541.693,916.764a156.25,156.25,0,0,0-98.347,2.674L0,1080H1920Z" fill="#ed242a"/>
    <g id="Group_58" data-name="Group 58">
      <path id="Path_237" data-name="Path 237" d="M356.1,809.921c.467-4,.993-7.49,1.208-11,.058-.96-.656-2.663-1.3-2.811a4.222,4.222,0,0,0-3.425.918c-5.648,5.751-8.856,12.654-8.848,20.807a3.855,3.855,0,0,0,1.724,3.03,3.729,3.729,0,0,0,3.275-1.112C351.378,816.554,353.74,813.127,356.1,809.921Z" fill="#ed7a22"/>
      <path id="Path_238" data-name="Path 238" d="M329.45,746.83a39.015,39.015,0,0,0,1.864-6c.208-1.4-.059-3.422-.8-4-.635-.494-2.586.239-3.383,1.179a41.81,41.81,0,0,0-8.736,19.024c-.261,1.282.607,2.664.954,4,1.157-.68,2.678-1.018,3.4-2.1,2.531-3.767,4.786-7.791,7.146-11.718Z" fill="#ed7a22"/>
      <path id="Path_239" data-name="Path 239" d="M405.33,785.088c-.846-.71-1.954-2.432-3.251-2.589-4.92-.6-18.109,7.887-19.925,12.411-1.112,2.77,0,3.919,2.776,4.077C390.605,799.31,402.586,791.776,405.33,785.088Z" fill="#ed7a22"/>
      <path id="Path_240" data-name="Path 240" d="M312.411,748.2c-.1-1.343.234-2.93-.409-3.7a3.871,3.871,0,0,0-3.389-.628c-7.692,2.408-12.788,7.911-16.578,14.717-.6,1.07-.686,3.208-.012,3.971.65.736,2.741.769,3.94.357C303.446,760.348,307.775,754.245,312.411,748.2Z" fill="#ed7a22"/>
      <path id="Path_241" data-name="Path 241" d="M349.808,786.348a85.845,85.845,0,0,0,1.7-9.206,4.286,4.286,0,0,0-1.74-3.524c-.9-.428-2.846.234-3.738,1.059-5.519,5.1-7.224,12.066-8.5,19.066-.231,1.269,1.114,3.425,2.335,4.136.76.443,3.164-.689,3.941-1.759C346.066,793.01,347.873,789.576,349.808,786.348Z" fill="#ed7a22"/>
      <path id="Path_242" data-name="Path 242" d="M371.518,814.96c.156-5.252.485-10.509.34-15.752-.034-1.244-1.562-3.32-2.574-3.43a4.417,4.417,0,0,0-3.549,2.495,168.214,168.214,0,0,0-3.459,18.835c-.181,1.546,1.852,3.35,2.867,5.035a48.644,48.644,0,0,0,4.067-4.069,11.277,11.277,0,0,0,1.239-3.145Z" fill="#ed7a22"/>
      <path id="Path_243" data-name="Path 243" d="M374.135,824.782a17.183,17.183,0,0,0-.9,3.749c-.046,2.951,1.547,4.6,4.271,2.946a29.42,29.42,0,0,0,13.464-18.751c.219-.881-.417-2.8-.862-2.867-1.325-.2-3.244-.212-4.056.59-4.4,4.341-8.546,8.95-12.778,13.467Z" fill="#ed7a22"/>
      <path id="Path_244" data-name="Path 244" d="M418.485,783.75c.653-.878,2.369-2.131,2.27-3.22a30.639,30.639,0,0,0-11.048-20.877c-1.811-1.565-3.7-.949-4.211,1.767C404.379,767.343,411.737,781.06,418.485,783.75Z" fill="#ed7a22"/>
      <path id="Path_245" data-name="Path 245" d="M370.612,736.672c.647-4.334,1.521-8.947,1.911-13.6.108-1.3-1.218-2.711-1.886-4.072-1.364.725-3.2,1.107-4.013,2.231-4.409,6.125-6.572,12.995-5.474,20.588a4.8,4.8,0,0,0,2.353,3.2c.636.293,2.357-.886,3.061-1.807A74.39,74.39,0,0,0,370.612,736.672Z" fill="#ed7a22"/>
      <path id="Path_246" data-name="Path 246" d="M392.471,770.545a62.867,62.867,0,0,0,1.715-7.5,3.869,3.869,0,0,0-1.434-3.226c-.782-.411-2.527.15-3.371.854a27.449,27.449,0,0,0-9.944,19.733c-.091,1.2.7,3.17,1.6,3.543a4.125,4.125,0,0,0,3.754-1.157c2.883-3.82,5.419-7.9,8.082-11.887Z" fill="#ed7a22"/>
      <path id="Path_247" data-name="Path 247" d="M286.446,762.826c.694-3.64,1.448-6.607,1.731-9.618a3.832,3.832,0,0,0-1.59-3.137,3.765,3.765,0,0,0-3.41.734c-5.439,5.452-8.7,12-8.816,19.811-.018,1.227,1.023,3.42,1.753,3.5a5.111,5.111,0,0,0,3.967-1.7C282.5,769.252,284.523,765.785,286.446,762.826Z" fill="#ed7a22"/>
      <path id="Path_248" data-name="Path 248" d="M311.126,801.1a11.512,11.512,0,0,0-.892,3.256c.026,1.189.276,2.856,1.064,3.409a3.853,3.853,0,0,0,3.516-.227,30.772,30.772,0,0,0,12.937-18.161c.255-1.023-.537-3.3-.823-3.3-1.671.021-3.909-.011-4.9,1-4.116,4.218-7.855,8.8-11.733,13.256Z" fill="#ed7a22"/>
      <path id="Path_249" data-name="Path 249" d="M353.39,756.954l7.249-.771c-.731-2.167-.831-5.032-2.312-6.37a112.1,112.1,0,0,0-13.8-10.466c-1.279-.838-3.616-.059-5.467-.022.388,1.75.206,4.042,1.264,5.155C344.483,748.856,349.035,752.861,353.39,756.954Z" fill="#ed7a22"/>
      <path id="Path_250" data-name="Path 250" d="M292.123,786.552c.752-3.881,1.527-7.012,1.88-10.189a3.857,3.857,0,0,0-1.393-3.215,3.758,3.758,0,0,0-3.478.624c-5.465,5.6-8.873,12.233-8.868,20.233,0,1.092.877,2.928,1.646,3.1a4.461,4.461,0,0,0,3.8-1.115C288.158,792.86,290.216,789.423,292.123,786.552Z" fill="#ed7a22"/>
      <path id="Path_251" data-name="Path 251" d="M318.229,772.988c.708.555,1.693,1.98,2.827,2.109,5.882.674,18.062-6.711,20.553-12.179,1.286-2.823-.052-3.924-2.711-4.125C333.517,758.385,320.468,766.745,318.229,772.988Z" fill="#ed7a22"/>
      <path id="Path_252" data-name="Path 252" d="M355.391,782.209c.065.992-.359,3.382.38,3.823,1.257.75,3.924,1.01,4.814.19,5.019-4.622,9.773-9.548,14.373-14.594.646-.708.353-2.891-.28-3.907-.361-.579-2.46-.582-3.491-.155A30.459,30.459,0,0,0,355.391,782.209Z" fill="#ed7a22"/>
      <path id="Path_253" data-name="Path 253" d="M389.045,742.33a12.293,12.293,0,0,0,1.114-3.169c.082-1.171.024-2.84-.69-3.44a3.787,3.787,0,0,0-3.483-.1,26.989,26.989,0,0,0-13.106,18.229c-.236,1.062.364,3.2.981,3.372a4.667,4.667,0,0,0,3.91-.794c4.231-4.272,8.211-8.793,12.278-13.228Z" fill="#ed7a22"/>
      <path id="Path_254" data-name="Path 254" d="M395.446,748.307c1.363.841,2.866,2.552,4.021,2.342a62.221,62.221,0,0,0,12.888-3.522,24.209,24.209,0,0,0,7.763-5.634c2.088-2.173,1.263-4.61-1.92-4.624-8.527-.038-15.551,3.7-21.524,9.591A19.143,19.143,0,0,0,395.446,748.307Z" fill="#ed7a22"/>
      <path id="Path_255" data-name="Path 255" d="M308.1,792.518c.036-5.867.175-11.737.005-17.6-.028-.977-1.5-2.766-2.126-2.69a4.86,4.86,0,0,0-3.31,2.17c-3.174,6.125-4.975,12.623-3.581,19.568.311,1.553,1.6,2.909,2.443,4.355a39.649,39.649,0,0,0,4.339-3.184c.63-.595.726-1.757,1.063-2.662Z" fill="#ed7a22"/>
    </g>
    <g id="Group_59" data-name="Group 59">
      <circle id="Ellipse_7" data-name="Ellipse 7" cx="16.675" cy="16.675" r="16.675" transform="translate(546.909 905.943)" fill="#6a9f58"/>
      <circle id="Ellipse_8" data-name="Ellipse 8" cx="16.675" cy="16.675" r="16.675" transform="translate(493.316 907.864)" fill="#6a9f58"/>
      <circle id="Ellipse_9" data-name="Ellipse 9" cx="16.675" cy="16.675" r="16.675" transform="translate(516.852 862.584)" fill="#6a9f58"/>
    </g>
    <g id="Group_61" data-name="Group 61">
      <path id="Path_256" data-name="Path 256" d="M849.716,296.244l21.641,5.9s13.86,13.67,18.685,25.231c0,0-11.769.833-17.441-1.483C872.6,325.891,852.858,310.746,849.716,296.244Z" fill="#dba2c9"/>
      <path id="Path_257" data-name="Path 257" d="M836,375.04a36.709,36.709,0,0,0,22.078-17.176l8.2-10.005,6.32-21.968s-1.68-2.1-21.025,13.961l-6.941,8.738Z" fill="#dba2c9"/>
      <g id="LCjY25">
        <g id="Group_60" data-name="Group 60">
          <path id="Path_258" data-name="Path 258" d="M986.21,309.364c-1.034-9.694-1.727-19.412-2.277-29.141-.253-4.477-.361-8.964-.716-13.432-.136-1.708.571-1.9,1.938-1.853,2.939.106,3,.11,3.013,3.105.034,10.323,1.131,20.572,2,30.843.774,9.14,1.967,18.233,2.85,27.359.131,1.348-.177,2.164-1.614,2.478a40.063,40.063,0,0,0-4.437,1.27c-1.441.495-2.081.04-2.332-1.44-1.031-6.074-2.161-12.131-3.187-18.206q-1.489-8.815-2.841-17.653c-1.3-8.537-2.515-17.086-3.812-25.624-.2-1.284.191-1.942,1.48-2.02,1.182-.071,2.5-.771,2.879,1.327,1.739,9.684,3.494,19.364,4.776,29.125A107.991,107.991,0,0,0,986.21,309.364Z"/>
          <path id="Path_259" data-name="Path 259" d="M949.867,289.634c.691,5.569,1.229,11.162,2.107,16.7,1.467,9.257,2.259,18.611,4.061,27.819.157.8.465,1.783-.917,2-2.058.319-3.572-.241-3.79-1.577-1.111-6.808-2.293-13.606-3.251-20.436-1-7.158-1.781-14.349-2.661-21.524-.709-5.78-1.409-11.561-2.15-17.336a1.712,1.712,0,0,1,1.248-2.163c1.716-.558,3.531-1.826,5.1-1.566,1.941.321,1.353,2.853,1.817,4.407,1.015,3.4,1.812,6.859,2.646,10.307,3.735,15.435,6.531,31.063,9.574,46.641.276,1.412.355,2.447-1.524,2.72-2.478.361-2.9.246-3.315-1.859q-4.209-21.2-8.4-42.4c-.116-.586-.229-1.173-.343-1.76Z"/>
          <path id="Path_260" data-name="Path 260" d="M968.253,286.366c-1.115-5.721-2.183-11.451-3.374-17.156-.313-1.5-.263-2.386,1.513-2.707,1.571-.285,2.668-.388,3.08,1.627,2.161,10.558,4.318,21.118,6.662,31.635,2.1,9.4,4,18.857,6.594,28.147.834,2.981.137,3.79-2.964,4.058-.972.084-1.1-.543-1.276-1.2-.853-3.233-1.772-6.452-2.531-9.707C973.267,309.528,970.307,298.047,968.253,286.366Z"/>
          <path id="Path_261" data-name="Path 261" d="M966.815,320.89c-1.048-6.709-2.8-14.022-4.661-21.277-2.427-9.485-4.041-19.136-6.443-28.612-.534-2.106.833-1.985,1.988-2.347,1.314-.412,2.32-.408,2.664,1.32,1.973,9.921,4.743,19.66,6.7,29.589,2.061,10.447,4.278,20.863,6.485,31.281.386,1.822-.026,2.7-1.994,3-1.616.243-2.318-.121-2.593-1.775C968.378,328.563,967.633,325.087,966.815,320.89Z"/>
          <path id="Path_262" data-name="Path 262" d="M901.014,305.814c.742,3.807,1.47,7.526,2.189,11.246.471,2.435.9,4.877,1.4,7.307.307,1.506-.177,1.714-1.59,1.332a5.072,5.072,0,0,1-4.171-4.641c-.939-6.085-2.179-12.126-3.35-18.174-.295-1.519.518-2.411,1.516-3.242,1.287-1.07,2.657-2.044,3.913-3.148,1.159-1.02,1.66-.567,2.154.649,3.725,9.178,7.569,18.308,10.931,27.63.454,1.259,1.02,2.478,1.476,3.737.3.844.05,1.265-.955,1.121-2.59-.372-4.471-1.251-5.432-4.135-2.115-6.346-4.56-12.588-7.221-18.736C901.731,306.434,901.782,305.932,901.014,305.814Z"/>
          <path id="Path_263" data-name="Path 263" d="M942.375,333.584c-1.5-12.156-3.445-23.973-5.3-35.8-.986-6.274-1.726-12.587-2.583-18.882a3.313,3.313,0,0,1,3.808-3.327c.74.209.8.87.855,1.447.673,6.993,1.711,13.938,2.765,20.881.763,5.024,1.374,10.078,2.33,15.065,1.274,6.649,1.9,13.378,2.785,20.074.1.769.966,2.114-.726,2.428C944.054,335.883,942.625,335.081,942.375,333.584Z"/>
          <path id="Path_264" data-name="Path 264" d="M1000.6,318.8q-4.163-23.445-8.318-46.891c-.279-1.581-.435-3.184-.7-4.769-.214-1.291.374-1.7,1.569-1.64,3.167.148,3.446.276,3.846,3.35,1.99,15.285,4.884,30.417,7.617,45.577.4,2.24.681,4.5,1,6.759.2,1.472-2.342,3.608-3.735,3.144-.551-.183-.559-.7-.648-1.15q-.426-2.169-.846-4.34Z"/>
          <path id="Path_265" data-name="Path 265" d="M928.295,283.221c1.773,9.6,3.848,19.156,6.373,28.578,1.783,6.651,3.495,13.325,5.329,19.965.247.9,1.279,2.283-.344,2.9a3.662,3.662,0,0,1-4.406-2.082c-1.284-4.572-2.563-9.147-3.683-13.76-2.335-9.619-4.911-19.181-6.869-28.891-.4-1.965-.957-3.9-1.368-5.859-.361-1.722,2.064-4.183,3.774-3.809,1.153.252.652,1.461,1.03,2.178A2.9,2.9,0,0,1,928.295,283.221Z"/>
          <path id="Path_266" data-name="Path 266" d="M918.988,309.3q-2.055-10.548-4.1-21.1c-.2-1.042,1.477-2.767,2.945-2.99,1.436-.217,1.354,1.04,1.553,1.857,3.47,14.253,6.066,28.69,8.936,43.069.516,2.589.425,2.511-2.236,2.158-1.982-.263-2.777-1.122-3.121-3.111-1.153-6.66-2.532-13.28-3.824-19.915Z"/>
          <path id="Path_267" data-name="Path 267" d="M1029.661,289.2c-.734-4.455-1.972-9.329-2.647-14.312-.192-1.417.095-1.8,1.413-1.247,2.9,1.222,5.785,2.486,8.7,3.669,1.447.587,1.026,1.479.53,2.415-1.314,2.486-2.618,4.978-3.984,7.436a1.581,1.581,0,0,0,.594,2.477c2.067,1.362,4.009,2.912,6.054,4.308,1.306.891,1.771,1.623.3,2.878-2.185,1.871-4.188,3.951-6.333,5.87-1.376,1.232-1.763,1.085-2.142-.768C1031.32,297.859,1030.552,293.776,1029.661,289.2Z"/>
          <path id="Path_268" data-name="Path 268" d="M920.791,325.895c.218,1.118.427,2.237.655,3.353.314,1.538-.4,1.886-1.787,1.677a3.821,3.821,0,0,1-3.642-3.434c-2.58-11.494-4.916-23.05-8.127-34.4-.409-1.447,1.766-3.917,3.216-3.67.773.131.768.849.921,1.4,1.3,4.708,2.69,9.4,3.864,14.137,1.723,6.955,3.292,13.948,4.927,20.924Z"/>
        </g>
      </g>
    </g>
    <g id="nqvV0b">
      <g id="Group_62" data-name="Group 62">
        <path id="Path_269" data-name="Path 269" d="M364.858,864.923c-11.359,5.289-15.15,15.41-16.016,26.716-1.762,23.018-3.022,46.077-4.32,69.129-1.515,26.914-2.85,53.837-4.65,80.934-2.605-4.974-4.578-10.228-8.006-14.744-10.533-13.878-29.409-15.177-40.306-2.643-2.128,2.448-3.351,5.342-4.631,9-8.032-8.4-17.381-13.212-28.825-11.271-11.466,1.945-19.076,9.148-23.668,20.35-7.27-12.361-17.609-17.236-30.94-15.511-8.322,1.078-14.238,5.8-17.88,13.28-5.207,10.706-7.573,22.319-10.559,33.73-.623,2.378-1.306,4.74-1.961,7.109h221.14q-1.278-57.882-2.559-115.763c-.553-24.844-1.056-49.691-1.758-74.531-.125-4.458.384-9.218-2.8-13.095-.158,8.221.976,16.672-3.43,24.231-4.219,7.238-13.6,7.438-18.259.457-4.412-6.611-5.108-14.175-4.761-21.795.3-6.628,2.854-12.307,8.855-15.911C367.918,863.944,366.385,864.4,364.858,864.923Z"/>
        <path id="Path_270" data-name="Path 270" d="M364.858,864.923c1.527-.524,3.06-.979,4.661-.324a15.192,15.192,0,0,1,9.533-1.632c-.066-.566-.14-.47-.218,0l2.732.269c10.6-3.21,21.622-4.655,32.1-8.46,37.541-13.625,66.132-36.637,80.135-75.235,2.651-7.306,1.973-8.288-5.877-9.28-2.962-.374-5.96-.454-8.941-.668-.863,1.531-1.763,3.045-2.589,4.6-18.906,35.529-48.784,56.8-87.453,65.611-44.864,10.221-86.3,1.356-123.546-25.6a126.807,126.807,0,0,1-42.363-52.632c-4.553-10.382-6.811-21.367-9.611-32.228-4.428-2.081-9.275-1.744-13.948-2.4-3.4-.475-3.026,2.019-3.047,4.125-.183,17.993,4.438,34.864,12.586,50.723,16.614,32.334,43.416,53.652,76.043,67.916,22.617,9.889,46.642,14.3,71.363,14.688C359.237,864.442,362.046,864.742,364.858,864.923Z" fill="#ed232a"/>
        <path id="Path_271" data-name="Path 271" d="M381.566,863.234l-2.73-.27.216,0a15.192,15.192,0,0,0-9.533,1.632c-5.992,3.6-8.544,9.277-8.846,15.905-.347,7.62.349,15.184,4.761,21.795,4.658,6.981,14.04,6.781,18.259-.457,4.406-7.559,3.272-16.01,3.43-24.231C386.969,872.161,384.577,867.578,381.566,863.234Z" fill="#cf97c3"/>
        <path id="Path_272" data-name="Path 272" d="M379.052,862.967l-.216,0C378.912,862.5,378.986,862.4,379.052,862.967Z" fill="#4fa3d8"/>
      </g>
    </g>
  </g>
</svg>
