<svg xmlns="http://www.w3.org/2000/svg" width="395.22" height="427.169" viewBox="0 0 395.22 427.169">
  <g id="Group_46" data-name="Group 46" transform="translate(-1523 -62.831)">
    <g id="Group_45" data-name="Group 45">
      <path id="Path_155" data-name="Path 155" d="M1913.117,63.17c4.162,0,5.114.936,5.1,5.1q-.234,91.333-.107,182.668c-2.392.481-2.825,2.749-3.819,4.392-14.993,24.786-29.128,50.045-41.874,76.07a36.724,36.724,0,0,1-2.025,3.259,19.163,19.163,0,0,0-23.408-1.758c-13.846,8.741-24.105,34.588-16.592,52.582-9.073.952-14.968-3.419-19.176-11.07-2.963-5.387-4.1-11.362-6.161-17.034-.505-7.236-1.737-14.423-1.485-21.712,2.275-20.252,8.61-39.327,17.135-57.7,20-43.1,40.255-86.089,60.221-129.207,8.941-19.308,16.96-38.978,22.046-59.752,1.063-4.34-.143-5.842-4.036-7.195-14.666-5.1-29.241-10.463-43.8-15.851a25.948,25.948,0,0,0-9.2-1.592q-67.418.053-134.836-.063c-4.108-.013-6.3,1.379-8.183,4.939-8.672,16.4-11.8,34.223-13.293,52.332-2.685,32.633-3.6,65.351-3.51,98.1.085,29.045-.109,58.1-4.436,86.909-1.586,10.562-3.708,21.043-5.585,31.561q-4.421,9.4-8.842,18.794c-.99.694-1.727,1.495-1.195,2.832l-.008-.077c-3.617,1.654-5.341,5.361-8.345,7.69-6.389,4.953-12.936,9.205-21.55,5.706,5.243-3.68,8.149-8.6,9.341-15.012a85.01,85.01,0,0,0,1.534-23.665c-1.03-10.8-1.991-21.736-8.54-31.1-6.922-9.895-17.458-12.368-28.2-6.507-3.61-14.56-5.077-29.483-7.456-44.25-6.33-39.283-12.773-78.526-27.856-115.7a221.746,221.746,0,0,0-44.233-69.3c-2.269-2.412-4.558-4.73-7.739-4.729"/>
      <path id="Path_156" data-name="Path 156" d="M1803.573,335.668c-.252,7.289.98,14.476,1.485,21.712-1.027,32.027-10.179,61.488-28.13,88.078-10.37,15.361-23.031,28.42-39.64,37.132-31.408,16.475-62.124,4.822-74.6-28.436-9.243-24.64-8.1-49.693-2.044-74.792,1.594-6.6,3.589-13.11,5.4-19.661l.008.077c1.246-.586,1.291-1.679,1.195-2.832q4.422-9.4,8.842-18.794c2.026-1.22,2.682-3.454,3.835-5.3,11.35-18.139,25.3-33.575,44.464-43.828,28.253-15.117,57.735-5.4,71.542,23.569C1799.461,320.005,1801.227,327.913,1803.573,335.668Zm-89.293,137.3c19.917-.225,36.033-16.631,35.641-36.284-.39-19.579-16.766-35.762-35.98-35.555-20.384.219-35.985,16.51-35.7,37.276C1678.507,457.549,1694.814,473.189,1714.28,472.969Z" fill="#699e59"/>
      <path id="Path_157" data-name="Path 157" d="M1610.284,296.815c10.741-5.861,21.277-3.388,28.2,6.507,6.549,9.362,7.51,20.294,8.54,31.1a85.01,85.01,0,0,1-1.534,23.665c-1.192,6.408-4.1,11.332-9.341,15.012-7.347.773-10.549-3.919-12.934-9.756-5.925-14.5-8.248-29.83-10.279-45.2C1612,311.045,1610.2,304.041,1610.284,296.815Z" fill="#ed7a22"/>
      <path id="Path_158" data-name="Path 158" d="M1830.4,385.484c-7.513-17.994,2.746-43.841,16.592-52.582a19.163,19.163,0,0,1,23.408,1.758,18.123,18.123,0,0,1-1.89,9.111c-6.926,13.266-13.29,26.835-21.535,39.383C1841.785,391.047,1837.882,391.625,1830.4,385.484Z" fill="#ed7a22"/>
    </g>
    <path id="Path_159" data-name="Path 159" d="M1714.28,472.969c-19.466.22-35.773-15.42-36.037-34.563-.287-20.766,15.314-37.057,35.7-37.276,19.214-.207,35.59,15.976,35.98,35.555C1750.313,456.338,1734.2,472.744,1714.28,472.969Z" fill="#fab017"/>
  </g>
</svg>
