<svg xmlns="http://www.w3.org/2000/svg" width="144.987" height="96.691" viewBox="0 0 144.987 96.691">
  <g id="Group_67" data-name="Group 67" transform="translate(-1573.013 -596.813)">
    <path id="Path_8" data-name="Path 8" d="M1645.511,2780.69c23.27,0,46.539.035,69.809-.049,2.241-.008,2.775.714,2.667,2.791-.956,18.406-7.434,34.543-20.259,47.814-13.095,13.549-29.143,21.12-48.092,22.136-22.056,1.184-40.846-6.285-56.234-21.965a69.381,69.381,0,0,1-19.927-42.644c-.187-1.842-.219-3.7-.425-5.539-.232-2.073.638-2.6,2.652-2.593,20.486.071,40.973.045,61.46.046Q1641.336,2780.687,1645.511,2780.69Z" transform="translate(0 -2160)" fill="#ed242a"/>
    <path id="Path_16" data-name="Path 16" d="M1591.233,2756.9c-3.4,16.26,5.827,33.087,18.866,43.377s10.47,11.524,26.4,16.225c4.311,1.272,27.642,6.363,32.108,5.85,5.663-.651,10.571-4.073,15.21-7.387,7.37-5.266,15.288-11.335,17.2-20.188" transform="translate(0 -2160)" fill="none" stroke="#000" stroke-miterlimit="10" stroke-width="0.83"/>
  </g>
</svg>
