<svg xmlns="http://www.w3.org/2000/svg" width="26.84" height="26.84" viewBox="0 0 26.84 26.84">
  <g id="Group_334" data-name="Group 334" transform="translate(-279.143 -177.354)">
    <path id="Rectangle_25" d="M1705.473,5567.442l20.064-.087a3.344,3.344,0,0,1,3.359,3.33l.087,20.064a3.344,3.344,0,0,1-3.33,3.359l-20.064.087a3.344,3.344,0,0,1-3.359-3.33l-.087-20.064A3.344,3.344,0,0,1,1705.473,5567.442Z" transform="translate(-1423 -5390)" fill="#fff"/>
    <g id="Group_5" data-name="Group 5" transform="translate(-1423 -5390)">
      <path id="Path-6" d="M1710.83,5580.455h.948v.948h-.948Z"/>
      <path id="Shape-4" d="M1720.849,5588h-11.1a1.528,1.528,0,0,1-1.524-1.524v-8.244h14.147v8.244A1.53,1.53,0,0,1,1720.849,5588Zm-10.448-3.051a.414.414,0,1,0,0,.828h9.782a.414.414,0,0,0,0-.827H1710.4Zm.015-1.776a.414.414,0,0,0,0,.829h9.766a.414.414,0,1,0,0-.829Zm0-3.55a.416.416,0,0,0-.415.416v1.775a.415.415,0,0,0,.415.415h1.775a.415.415,0,0,0,.414-.415v-1.775a.415.415,0,0,0-.414-.416Zm3.552,1.774a.414.414,0,1,0,0,.829h6.214a.414.414,0,1,0,0-.829Zm0-1.775a.414.414,0,1,0,0,.827h6.214a.414.414,0,1,0,0-.827Z"/>
      <path id="Shape-5" d="M1722.373,5577.4h-14.147v-2.027a1.526,1.526,0,0,1,1.524-1.524h11.1a1.525,1.525,0,0,1,1.523,1.523v2.027Zm-10.182-1.775a.414.414,0,1,0,0,.829h6.216a.414.414,0,1,0,0-.829Z"/>
    </g>
  </g>
</svg>
