<svg xmlns="http://www.w3.org/2000/svg" width="135.388" height="77.576" viewBox="0 0 135.388 77.576">
  <g id="Group_313" data-name="Group 313" transform="translate(-3449.403 -1813.424)">
    <path id="Path_3859" data-name="Path 3859" d="M3574.606,1881.551c-15.857-12.761-44.053-11.023-68.93-9.49-22.7,1.4-42.317,2.607-51.363-6.365-3.562-3.532-5.2-8.471-4.868-14.681.723-13.557,5.4-23.655,13.9-30.013,15.571-11.645,38.133-6.462,39.086-6.234l-.918,3.871c-.215-.05-21.738-4.97-35.8,5.561-7.5,5.619-11.641,14.713-12.3,27.028-.272,5.1.937,8.906,3.7,11.643,7.782,7.716,27.474,6.5,48.317,5.219,25.6-1.579,54.612-3.365,71.67,10.361Z" fill="#fff"/>
    <g id="Group_312" data-name="Group 312">
      <path id="Path_3860" data-name="Path 3860" d="M3574.542,1879.017c.457-5.862,5.416-12.712,9.646-16.544-2.116,9.31-2.376,19.282.6,28.527-8.551-4.479-18.537-5.257-28.089-5.017C3561.663,1882.384,3568.266,1878.7,3574.542,1879.017Z" fill="#fff"/>
    </g>
  </g>
</svg>
