<svg xmlns="http://www.w3.org/2000/svg" width="26.752" height="26.752" viewBox="0 0 26.752 26.752">
  <g id="Group_338" data-name="Group 338" transform="translate(-1017.256 -280.097)">
    <path id="Rectangle_26" d="M2443.6,4766.1h20.064a3.344,3.344,0,0,1,3.344,3.344V4789.5a3.344,3.344,0,0,1-3.344,3.344H2443.6a3.344,3.344,0,0,1-3.344-3.344v-20.064A3.344,3.344,0,0,1,2443.6,4766.1Z" transform="translate(-1423 -4486)" fill="#fab017"/>
    <path id="Shape-3" d="M2453.681,4786.161h-.008a1.1,1.1,0,0,1-.94-.529c-1.421-2.325-3.115-5.388-3.115-6.782a4.059,4.059,0,0,1,8.117,0c0,1.394-1.694,4.458-3.115,6.782A1.1,1.1,0,0,1,2453.681,4786.161Zm0-9.222a1.633,1.633,0,1,0,1.634,1.633A1.629,1.629,0,0,0,2453.677,4776.938Z" transform="translate(-1423 -4486)" fill="#fff"/>
  </g>
</svg>
