<svg xmlns="http://www.w3.org/2000/svg" width="18.058" height="18.057" viewBox="0 0 18.058 18.057">
  <g id="Group_331" data-name="Group 331" transform="translate(-35.636 -494.145)">
    <g id="Group_330" data-name="Group 330">
      <path id="Path" d="M53.651,4988.112a.555.555,0,0,0-.121-.182l-1.672-1.672a.557.557,0,0,0-.787.788l.72.721H48.678a.557.557,0,0,0,0,1.115h3.113l-.72.72a.557.557,0,1,0,.788.788l1.672-1.672a.555.555,0,0,0,.12-.606Z" transform="translate(0 -4486)"/>
      <path id="Path-2" d="M49.533,4990.679a.787.787,0,0,0-.817.753v3.761h-3.27v-12.039a.766.766,0,0,0-.58-.721l-2.842-.783h6.692v3.762a.82.82,0,0,0,1.635,0V4980.9a.786.786,0,0,0-.818-.752H36.453a.67.67,0,0,0-.081.014.735.735,0,0,0-.113.018.863.863,0,0,0-.236.093c-.018.008-.04.008-.057.024s-.009.013-.016.017a.78.78,0,0,0-.218.235c-.008.022-.016.044-.022.067a.651.651,0,0,0-.067.176.373.373,0,0,0,0,.067c0,.012-.007.024-.007.041v15.048a.771.771,0,0,0,.658.736l8.175,1.5a.871.871,0,0,0,.16.015.858.858,0,0,0,.518-.17.728.728,0,0,0,.3-.582v-.751h4.087a.787.787,0,0,0,.817-.752v-4.514A.787.787,0,0,0,49.533,4990.679Z" transform="translate(0 -4486)"/>
    </g>
  </g>
</svg>
