<svg xmlns="http://www.w3.org/2000/svg" xmlns:xlink="http://www.w3.org/1999/xlink" width="953" height="1170" viewBox="0 0 953 1170">
  <defs>
    <clipPath id="clip-path">
      <path id="Path_20" data-name="Path 20" d="M953,3240H0L13,2070l940,86Z" fill="none"/>
    </clipPath>
  </defs>
  <g id="Group_8" data-name="Group 8" transform="translate(0 -2070)" clip-path="url(#clip-path)">
    <g id="tD7LtM">
      <g id="Group_7" data-name="Group 7">
        <g id="Group_6" data-name="Group 6">
          <g id="Group_63" data-name="Group 63">
            <path id="Path_19" data-name="Path 19" d="M768.383,3182.134c-1.437,5.648-2.811,11.77-4.557,17.784-8.892,30.621-15.834,62.028-27.553,91.533-7.857,19.781-20.685,38.441-34.664,54.7-15.044,17.5-36.652,26.342-59.113,32.775-14.53,4.162-28.593,8.773-44.009,7.842-25.2-1.52-45.9-12.164-64.167-29.1-15.909-14.746-27.8-32.07-33.139-52.883a302.22,302.22,0,0,1-8.583-51.449c-2.961-38.171,5.184-74.734,18.834-110.268,12.763-33.224,32.115-62.677,51.825-91.956,1.154-1.713,2.226-3.481,4.2-6.578l-52.079-38.357c3.9-12.173,5-12.771,15.185-7.332,14.342,7.657,28.806,15.132,42.76,23.454,6.678,3.982,10.841,2.5,15.577-2.669,12.495-13.64,12.491-13.353-2.747-23.618-12.988-8.749-25.7-17.909-38.436-27.026-4.372-3.131-7.784-6.465-3.625-12.646,3.977-5.911,8.455-4.765,13.275-2.212,15.7,8.316,31.212,16.986,47.022,25.082,5.511,2.822,11.23,8.038,17.945,1.411,8.384-8.274,8.473-10.639-.55-18.033q-23.062-18.9-46.154-37.769c-3.862-3.17-7.444-6.369-3.672-12.09,3.74-5.673,7.53-2.837,11.576-.637,19.575,10.641,39.3,21.006,58.7,31.958,5.937,3.353,8.991,1.689,12.748-3.1,4.257-5.432.9-8.362-2.694-11.178-13.043-10.212-26.332-20.111-39.34-30.367-4.947-3.9-9.3-8.548-14.077-12.675-3.827-3.306-4.58-6.627-1.551-10.977,3.371-4.842,6.911-3.476,10.877-1.085,18.579,11.2,37.348,22.095,55.718,33.628,7.19,4.514,11.313,3.741,16.086-3.546,15.932-24.321,17.718-51.355,16.5-79.1-.206-4.707-1.018-9.388-1.705-15.457-5.607,2.5-10.168,4.573-14.756,6.581-30.858,13.505-60.5,12.269-88.047-8.194-22.684-16.851-37.517-59.169-19.514-90.26,16.773-28.966,50.341-35.2,79.738-25.38,12.388,4.137,23.622,11.734,35.373,17.773,3.337,1.715,6.648,3.48,10.79,5.651,4.219-15.211,3.17-29.136.583-43.04-3.74-20.108-10.753-38.817-24.46-54.447-12.751-14.539-39.748-19.254-57.626-11.718-16.36,6.9-27.289,18.545-36.99,32.947a235.891,235.891,0,0,0-34.962,82.7c-5.707,26.191-13.713,51.959-18.076,78.348-6.723,40.662-10.907,81.739-16.771,122.552-2.4,16.678-5.843,33.254-9.75,49.654-5.87,24.645-12.875,48.778-28.53,69.693-19.532,26.094-42.927,46.806-76.308,49.872-16.792,1.543-26.912,9.505-38,20.222-7.123,6.882-17.84,10.622-27.546,14.091a115.811,115.811,0,0,1-30.281,6.867c-20.958,1.494-39.674-5.213-58.144-15.71-32.564-18.5-50.467-46.439-55.717-82.1-4.379-29.742-.6-59.4,9.206-88.148,12.86-37.7,34.683-70.746,54.306-104.864,24.64-42.839,48.57-85.955,69.249-130.908,10.118-22,20.307-43.758,24.079-67.843,4.2-26.842-3.756-51.785-21.931-69.957-19.53-19.529-53.054-26.8-79.331-3.861-23.723,20.712-34.138,47.432-41.205,76.5-6.9,28.367-12.233,57.221-21,84.994-7.4,23.453-20.863,45.025-40.97,59.531-30.027,21.662-66.537,20.336-87.7-18.544-11.086-20.362-13.954-42.2-13.063-64.736.881-22.284-3.509-40.452-11.36-55.608-32.184-62.135-122.841-67.667-130.557-79.535-4.176-6.422-11.06-11.574-17.691-15.753-5.4-3.4-6.77-6.115-3.325-11.369q7.44-11.349,14.6-22.88c3.589-5.782,7.252-6.5,13.323-2.572C-61.111,2544.313,67,2566,80.484,2706.7c1.525,15.918.123,32.079,8.728,46.463,5.232,8.747,11.243,10.664,19.559,5.238,13.2-8.615,23.7-20.405,27.887-35.516,8.594-31.029,15.184-62.608,23.378-93.756,8.135-30.924,20.38-59.867,43.786-82.911,15.568-15.326,33.961-27,54.83-31.206,22.687-4.567,45.02.682,66.207,11.758,47.594,24.882,58.675,136.365,58.675,136.365s-19.814,53.485-31.6,79.515c-21.413,47.3-48.047,91.7-73.791,136.651-17.018,29.712-36.741,58.383-44.931,92.332-6.483,26.869-10.871,54.246,2.456,80.406,14.189,27.851,45.423,47.873,80.737,35.89a48.97,48.97,0,0,0,9.625-4.921c4.758-2.922,5.419-6.356.388-9.725a105.445,105.445,0,0,1-35.834-40.049c-12.161-23.957-19.6-49.357-6.3-75.259,10.279-20.021,27.634-31.255,50.479-32.994,15.657-1.191,26.418,9.462,35.929,18.5,22.757,21.634,34.088,49.2,33.016,81.086-.219,6.5-1.614,12.953-2.466,19.429l2.011,2.133c6.019-3.878,12.633-7.08,17.947-11.76,16.5-14.534,27.851-32.778,32.189-54.242,6.972-34.5,14.153-69.095,18.3-104,6.518-54.883,17.447-108.669,30.678-162.289,8.883-36,21.975-69.382,42.894-99.753,21.625-31.4,50.168-52.5,89.536-52.541,36.724-.036,66.162,14.986,85.16,48.146,27.506,48.01,32.238,97.531,12.357,149.384-1.474,3.844-1.164,8.937-.154,13.075a271.536,271.536,0,0,1,7,90.623,141.559,141.559,0,0,1-21.486,63.564c-6.861,10.835-6.491,11.218,3.938,18.419,20.56,14.2,40.938,28.659,61.333,43.094,3.828,2.709,6.575,3.249,9.57-1.44,38.679-60.562,94.237-95.014,164.927-105.231,22.463-3.247,43.869,2.715,63.926,12.463,39.185,19.045,70.363,48.248,97.933,81.2,17.333,20.72,33.221,42.728,48.684,64.906,9.232,13.242,3.44,23.215-12.858,25.406a10.656,10.656,0,0,0-5.719,3.45c-5.4,5.9-8.112,5.722-13.114-1.29-10.982-15.4-21.492-31.165-33.056-46.115-26.159-33.814-55.437-64.54-93.338-85.416-18.284-10.07-38.011-14.583-59.258-10.083-41.8,8.853-76.544,29.783-105.158,61.018-7.068,7.715-12.373,17.042-18.53,25.6-3.541,4.922-.526,7.323,3.255,10.143,18.1,13.5,36.045,27.2,54.01,40.88a77.3,77.3,0,0,1,27.461,38c4.562,13.675,10.842,26.788,16.646,40.025a17.6,17.6,0,0,0,5.5,6.934c29.547,21.32,58.858,43,88.959,63.514,33.124,22.576,66.917,44.177,100.6,65.917,10.872,7.016,22.282,13.207,33.538,19.613,5.911,3.363,40.231,18.381,36.263,24.376-8.8,13.295-50.4,15.575-58.683,29.2-3.456,5.683-6.842,3.185-10.461.9-24.984-15.78-49.891-31.683-74.913-47.4q-82.671-51.935-165.485-103.64a27.055,27.055,0,0,0-10.155-3.382C838.95,3192.268,804.384,3187.332,768.383,3182.134Zm-79.644,110.183c3.574-8.77,11.254-23.94,15.963-39.981,8.294-28.252,14.227-57.191,22.323-85.507,2.647-9.257-.583-13.04-7.542-17.173-11.14-6.615-22.053-13.65-32.751-20.962-25.106-17.16-50.047-34.562-75.008-51.933-5.328-3.708-9.767-5.246-14.377,1.469-29.429,42.863-54,87.648-60.58,140.475-3.938,31.595-1.559,62.251,13.1,90.62,10.126,19.59,26.891,35.078,49.672,34.107C633.959,3341.965,664.87,3329.964,688.739,3292.317Zm-29.271-549.042.1-1.7c-11.026-3.227-21.879-7.5-33.131-9.365-9.919-1.64-16.192,3.445-17.889,11.179-3.591,16.371,7.88,34.881,24.335,37.5,15.5,2.469,29.786-1.625,41.971-11.87,4.152-3.491,4.9-7.652.731-11.578C670.378,2752.541,664.854,2747.981,659.468,2743.275ZM343.031,3031.958c12.648,8.468,14.568,7.6,16.19-4.291,2.665-19.528-16.668-50.51-16.668-50.51s-9.349-5.713-12.263-4.377c-3.779,1.733-7.8,7.571-7.958,11.785C321.557,3004.851,330.881,3020.893,343.031,3031.958Zm351.7,47.444,1.821-2.747c-3.066-2.531-6-5.24-9.22-7.563-13.9-10.042-28.071-19.729-41.778-30.03-8.692-6.533-9.825-6.878-16.91,1.18-2.1,2.386-3.795,5.125-6.649,9.036C646.7,3060.572,668.542,3075.149,694.726,3079.4Zm20.736-39.2,1.372-2.078c-1.824-1.7-3.524-3.554-5.491-5.065-13.307-10.225-26.738-20.292-39.972-30.612-3.534-2.756-6.57-6-10.2-.461-3.474,5.3.456,7.551,4.194,9.764q21.282,12.6,42.619,25.1A73.857,73.857,0,0,0,715.462,3040.206Zm22.882-34.53c-1.332-3.45-1.437-4.816-2.174-5.471-12.349-10.976-24.619-22.055-37.366-32.555-1.807-1.489-6.016-.062-9.113.015,1.012,2.7,1.225,6.466,3.17,7.924,11.048,8.286,22.458,16.1,33.866,23.892C729.72,3001.525,733.145,3002.935,738.344,3005.676Z"/>
          </g>
        </g>
      </g>
    </g>
  </g>
</svg>
