<svg xmlns="http://www.w3.org/2000/svg" width="1366" height="532.359" viewBox="0 0 1366 532.359">
  <g id="Group_185" data-name="Group 185" transform="translate(0 -1503.737)">
    <path id="Path_438" data-name="Path 438" d="M1999.721,4149.632a1.943,1.943,0,0,0,.478-3.826c-67.024-17.271-121.9-40.381-156.171-89.009-36.86-52.306-59-114.429-100.088-163.484-84.72-101.138-249.369-122.727-357.4-47.053a1.96,1.96,0,0,0-.833,1.6v299.825a1.945,1.945,0,0,0,1.944,1.944Z" transform="translate(-1385.707 -2118.632)"/>
    <path id="Path_439" data-name="Path 439" d="M1776.4,4151c30.125-32.209,62.653-65.9,105.36-76.863,74.839-19.211,149.231,15.659,223.094-14.651,24.591-10.09,42.631-29.2,65.548-42.748a296.159,296.159,0,0,1,82.069-32.96,299.529,299.529,0,0,1,97.626-6.879c33.559,3.215,59.986,16.593,90.9,29.027V4151Z" transform="translate(-1386 -2121)" fill="#ffecee"/>
    <path id="Path_440" data-name="Path 440" d="M2184.276,4149c17.182-11,33.587-20.162,52-20.641,18.17-.473,36.564,3.438,54.546-3.053,25.841-9.326,47.707-39.455,69.189-67.316,25.231-32.725,49.945-54.781,80.936-60.616,32.081-6.041,65.683-.565,95.412-23.414,20.684-15.9,37.824-44.416,58.3-61.206,49.027-40.213,99.881-10.6,150.347,23.142V4149Z" transform="translate(-1379 -2118)"/>
    <g id="tD7LtM" transform="translate(-1383.321 -2105.662)">
      <g id="Group_59" data-name="Group 59" transform="translate(5)">
        <g id="Group_58" data-name="Group 58">
          <path id="Path_441" data-name="Path 441" d="M2092.978,4122.888a7.274,7.274,0,0,0-1.677,2.34c-1.961,4.833-9.636,8.237-11.7,13.352-4.493,11.111,3.939-11.4-.644,0-2.965,7.372-1.027-7.38-3.973,0-.427,1.07-5.478.69-7.128,0-3.954-1.657,13.45-1,9.435-2.5-1.811-.678-8.546,1.665-7.79,0,1.438-3.172,4.224,5.748,5.483,2.5,3.9-10.051,5.839-3.42,0,0,3.312-9.22-5.733,5.808-2.669-3.5.241-.729-3.743,0-3.743,0s2.095-23.372.929-27.069a20.786,20.786,0,0,1-.023-12.607c1.751-5.814,3.494-11.631,5.3-17.427.378-1.211.655-2.21-.893-2.722a73.012,73.012,0,0,0-8.076-2.646,52.317,52.317,0,0,0-32.525,3.325,22.541,22.541,0,0,0-11.307,11.552c-4.953,10.529-6.474,21.841-6.828,33.332-.156,5.08.046,10.172.087,15.258.019,2.316-.544,2.782-2.651,2.352a2.86,2.86,0,0,0-1.79.152c-3.893,2.1-6.729.841-6.81-3.5-.137-7.269-.154-14.568.347-21.816.8-11.527,2.972-22.807,8.494-33.141,2.826-5.289,6.544-9.967,11.946-12.808,17-8.939,34.534-10.213,52.518-3.138,1.392.547,1.9,0,2.31-1.2,2.16-6.363,4.312-12.729,6.545-19.066,1.133-3.214,1.153-3.356-2.051-4.631a38.071,38.071,0,0,1-14.715-10.443,73,73,0,0,1-12.786-20.832,6.292,6.292,0,0,0-2.1-2.822c-12.516-8.147-19.306-19.673-20.9-34.467-1.1-10.218,2.934-18.137,10.933-23.928,8.576-6.209,18.122-6.122,27.787-2.7,9.349,3.307,17.471,8.507,25.089,14.94a358.232,358.232,0,0,1,32.306,30.48c6.414,6.943,13.44,13.34,20.406,19.748a26.186,26.186,0,0,0,15.573,6.724,39.089,39.089,0,0,0,5.763-.274l.1-.782c-1.208-1.275-2.532-2.46-3.6-3.84a27.8,27.8,0,0,1-5.618-22.864c.642-3.47,1.3-7.488,4.9-9.7a15.818,15.818,0,0,1,16.2-.79c6.986,3.538,9.376,10.242,10.513,17.378a28.364,28.364,0,0,1-1.476,14.376c-.563,1.528.123,2.171,1.62,2.055a13.082,13.082,0,0,0,2.872-.449c9.58-2.968,13.216-12.258,11.907-20.561-1.23-7.8-6.509-13.065-12.163-17.89-7.144-6.1-15.965-9.223-24.361-13-12.7-5.718-25.511-11.177-37.641-18.092-6.676-3.8-13.535-7.215-19.435-12.318-10.331-8.935-15.193-26.016-8.762-38.948,2.862-5.757,6.9-10.426,12.554-13.014,5.206-2.381,11.054-2.744,16.863-1.866,8.734,1.319,15.97,5.686,22.624,11.132,6.7,5.486,13.123,11.319,19.894,16.716a17.014,17.014,0,0,0,11.679,3.327c2.667-.132,3.672-1.5,3.43-4.228-.4-4.49-3.256-7.787-5.437-11.492-19.284-32.755,5.177-57.706,9.391-68.594.7-1.814,1.612-2.236,3.306-1.545q3.379,1.38,6.792,2.674c1.58.6,1.71,1.407,1.072,3a15.35,15.35,0,0,0-1.363,6.223c.241,4.711-28.776,27.416-9.55,51.827,3.753,4.766,6.577,9.972,7.379,16.154,1.532,11.806-6.2,17.86-16.162,17.887a30.921,30.921,0,0,1-18.319-6.489c-6.294-4.661-12.012-10.1-17.993-15.184-6.127-5.21-12.614-9.382-21.048-10.144-9.343-.844-15.491,6.033-16.659,13.368a21.324,21.324,0,0,0,6.274,18.691c4.625,4.647,10.279,7.775,15.955,10.965,11.6,6.519,23.617,12.125,35.746,17.559,9.659,4.328,19.627,8.074,28.38,14.25a50.269,50.269,0,0,1,15.924,17.733c4.488,8.591,5,17.5.837,26.669-2.363,5.2-5.378,9.617-10.176,12.6a31.129,31.129,0,0,1-7.675,3.288c-2.661.777-5.584,1.656-8.222,1.282-4.106-.581-7.566-.716-11.465,1.6-7.75,4.6-16.113,3.79-24.486,1.2-6.71-2.081-12.046-6.227-17.215-10.665-3.44-2.953-6.808-6.017-9.964-9.268-7.721-7.958-15.119-16.239-23-24.028-5.117-5.055-10.929-9.4-16.307-14.2a63.45,63.45,0,0,0-20.67-12.481c-4.386-1.6-8.6-2.412-13.255-1.33-5.081,1.183-10.213,6.472-10.692,11.651-.516,5.566.912,10.746,3.273,15.714a24.808,24.808,0,0,0,6.924,9.276c.559-1.127,1-2.034,1.456-2.934,1.6-3.17,2.85-6.6,4.893-9.454,4.849-6.78,13.139-10.724,21.365-7.068,8.828,3.925,12.282,15.478,10.005,22.729-2.764,8.8-9.021,13.754-17.871,15.687-1.316.288-2.635.557-4.251.9.809,1.43,1.371,2.577,2.07,3.634,4.116,6.231,8.774,11.833,16.083,14.611,2.189.833,3.209.35,4.061-1.768,2.177-5.411,4.542-10.747,6.818-16.119.485-1.146,1.04-2,2.539-1.481a1.937,1.937,0,0,1,1.4,2.634c-.388,1.653-.6,3.352-1.062,4.982-1.212,4.287-2.541,8.54-3.768,12.823-.338,1.181-.6,2.348,1.179,2.858,1.575.45,2.5.33,3.265-1.337,2.493-5.448,5.15-10.819,7.731-16.227.533-1.118.91-2.333,2.62-1.689,1.725.65,1.45,1.912,1.11,3.212-1.353,5.171-2.725,10.338-4.082,15.509-.8,3.034-.4,3.535,2.728,4.012,2.508.382,2.93-1.656,3.684-3.141,2.162-4.259,4.17-8.6,6.274-12.885.646-1.317,1.44-2.273,3.239-1.615,1.881.689,1.665,1.953,1.208,3.325-1.333,4-2.653,8-4.1,11.953-1.7,4.64-1.742,4.579,3.132,5.575,1.847.377,2.987.042,3.812-1.88,1.723-4.014,3.691-7.926,5.6-11.857,1.359-2.793,1.692-2.836,4.463-.8l-5.279,16.573c.919.363,1.431.578,1.953.769,8.914,3.261,17.777,6.616,25.8,11.832,8.583,5.579,16.129,12.251,21.513,21.028a81.276,81.276,0,0,1,6.256,12.554,29.287,29.287,0,0,1,1.138,16.744c-1.3,6.571-4.127,12.156-9.372,16.467-3.209,2.637-7,3.854-10.818,5.243-5.905,2.146-12.005,3.634-18.043,2.2a53.64,53.64,0,0,1-16.184-6.433c-7.21-4.572-13.681-10.312-20.452-15.573-1.33-1.033-2.595-2.149-3.8-3.151C2106.431,4109.785,2099.687,4116.318,2092.978,4122.888Zm82.692-11.472c5.112-3.386,6.315-9.4,5.425-15.268-1.288-8.491-5.611-15.539-11.457-21.795-9.775-10.459-22.195-16.327-35.37-21.01-2.064-.734-2.787.3-3.361,1.95-2.69,7.723-5.371,15.45-8.126,23.15-1.174,3.281-2.439,6.535-3.819,9.734-.862,2-.968,3.332,1.07,4.929,6.234,4.885,12.1,10.248,18.362,15.087a99.489,99.489,0,0,0,9.789,6.182C2159.323,4118.8,2167.947,4116.532,2175.67,4111.416Zm-109.089-115.545c-.288,1.513.532,2.3,1.987,2.4a13.64,13.64,0,0,0,11.01-4.044c3.168-3.169,2.742-9.009-.625-12.006-1.59-1.415-3.759-1.531-5.659.392a77.528,77.528,0,0,0-5.733,7.27l.291.355C2067.422,3992.118,2066.94,3993.983,2066.581,3995.871Zm112.758-6.345a4.355,4.355,0,0,0-3.593-1.309c-.845.17-1.866,1.814-1.978,2.889-.533,5.12.684,9.8,4.348,13.627,2.231,2.332,2.786,2.218,4.2-1.623A16.183,16.183,0,0,0,2179.339,3989.526Zm-55.007,61.406c-1.239-.4-2.041-.728-2.874-.916-2.815-.636-3.007-.382-3.867,2.413-1.357,4.407-2.911,8.753-4.352,13.134-.333,1.014-.545,2.067-.812,3.1l.83.311C2118.285,4063.915,2120.737,4057.293,2124.332,4050.932Zm-20.679,10.876c1.79-4.057,3.551-8.126,5.313-12.2.464-1.072.964-2.183-.629-2.787-1.666-.633-1.814.554-2.148,1.712-1.251,4.336-2.585,8.648-3.867,12.975-.189.64-.266,1.312-.4,1.97l.626.236A19.836,19.836,0,0,0,2103.653,4061.808Zm-9.983-5.175c1.253-3.5,2.5-7,3.6-10.549.193-.624-.355-1.478-.561-2.225-.687.472-1.828.826-1.986,1.436-1.117,4.3-2.038,8.647-2.993,12.987-.057.259.136.573.391,1.534C2092.819,4058.4,2093.342,4057.55,2093.67,4056.633Z"/>
        </g>
      </g>
    </g>
    <g id="Group_60" data-name="Group 60" transform="translate(-1386 -2121)">
      <path id="Path_442" data-name="Path 442" d="M2174.24,3773.149a18.96,18.96,0,0,0,.687,3.1l-.078.118a.7.7,0,0,1-.385.26l-.133,1.113-2.206-9.583a7.561,7.561,0,0,1,1.389.609C2173.655,3770.252,2173.961,3771.689,2174.24,3773.149Z"/>
      <path id="Path_443" data-name="Path 443" d="M2180.635,3793.463l.031.576-.345-.132a5.813,5.813,0,0,0-.6-1.8l-1.418-3.338-1.51-4.13a43.327,43.327,0,0,1-2.462-6.89l.133-1.113a.7.7,0,0,0,.385-.26l.078-.118,6.2,16.917Z"/>
      <path id="Path_444" data-name="Path 444" d="M2287.862,3694.9l-.018.015-.221-.387a1.9,1.9,0,0,1-.218.9l-.05-.168a2.97,2.97,0,0,0-.679-1.194l.619-9.268a50.415,50.415,0,0,0-.362-5.889c.664-.061,1.068.045,1.533-.467A73.439,73.439,0,0,1,2287.862,3694.9Z"/>
      <path id="Path_445" data-name="Path 445" d="M2180.99,3667.231l-.221-.114a4.592,4.592,0,0,0-.07,1.742l.131.059.25-.423a7.475,7.475,0,0,1,.384,1.112l-.416-.344a1.185,1.185,0,0,0-.406.935c-.311,2.487-.173,5.1-.28,7.614a54.31,54.31,0,0,1-.677,5.723l-.245.073-.087.25-.149.007a2.076,2.076,0,0,0-.5-.965l-.1-.137.691-17.532,1.216.005a1.873,1.873,0,0,1,.2,1.011l.34.341Z"/>
      <path id="Path_446" data-name="Path 446" d="M2287.355,3695.253l.05.168a1.9,1.9,0,0,0,.218-.9l.221.387-2.929,31.9a3.828,3.828,0,0,0-1.19-.208l2.951-32.543A2.97,2.97,0,0,1,2287.355,3695.253Z"/>
      <path id="Path_447" data-name="Path 447" d="M2178.708,3682.9a2.076,2.076,0,0,1,.5.965l.149-.007.087-.25.245-.073c-.371,3.1-.565,6.257-1.136,9.334-.454,2.448-1.246,4.78-1.513,7.27a93.886,93.886,0,0,0-.527,10.263c.009,2.435.23,4.843.039,7.279-.23,2.947-1.023,5.792-1.326,8.728-.312,3.029-.116,6.1-.513,9.122-.561,4.254-1.523,8.473-1.94,12.747a51.5,51.5,0,0,0-.056,6.48,23.252,23.252,0,0,0,.2,3.545.763.763,0,0,0,.152.386,1.86,1.86,0,0,0,.334.281c-.378.372-.518.388-.534.935a2.709,2.709,0,0,1,.763,1.6c-.775.133-.625-.549-1.544.025a1.668,1.668,0,0,1-.588-1,1.183,1.183,0,0,0,.425.037c-.594-4.645-1.132-9.768-.515-14.443.494-3.745,1.524-7.422,1.99-11.168.393-3.147.245-6.334.473-9.494.168-2.322.7-4.613.9-6.932.485-5.828-.224-11.726.549-17.549.292-2.2.889-4.259,1.379-6.415a70.532,70.532,0,0,0,1.915-11.8Z"/>
      <path id="Path_448" data-name="Path 448" d="M2216.259,3843.69l11.5,18.89-6,.243c-7.944.22-16.579-1.2-23.448-5.392a47.4,47.4,0,0,1-7.661-6.16,10.217,10.217,0,0,1-2.162-2.6l27.729-5.116Zm-9.8,13c-.391.062-.393.133-.618.436a1.644,1.644,0,0,0,.325,1.22,1.489,1.489,0,0,0,.391.033c.412-.029.572-.254.81-.538a1.4,1.4,0,0,0-.4-1.067A.972.972,0,0,0,2206.454,3856.694Zm8.028.249a1.4,1.4,0,0,0-.822.869l.213.571a.813.813,0,0,0,.253.01,1.083,1.083,0,0,0,.855-.491,1.134,1.134,0,0,0-.223-.994A.58.58,0,0,0,2214.482,3856.943Z" fill="#fab017"/>
      <path id="Path_449" data-name="Path 449" d="M2192.151,3851.175l-.332.079-.805-.827.2-.3a2.932,2.932,0,0,1,1.637-.048A2,2,0,0,1,2192.151,3851.175Z"/>
      <path id="Path_450" data-name="Path 450" d="M2216.259,3843.69l-.21.11a1.029,1.029,0,0,0-.465.5l-.192.035a2.694,2.694,0,0,0-1.145.409c-.924.627-2.571.6-3.616,1-.211.081-.347.259-.565.328-.658.208-1.084-.058-1.7.424-.531.413-1.32.044-1.871.5-.6.5-1.638.123-2.377.584a1.462,1.462,0,0,1-.674.274c-.8.09-1.627.016-2.419.171-.567.11-1.077.405-1.648.523a6.009,6.009,0,0,0-1.191.219,13.243,13.243,0,0,0-1.618,1.647l-.178-.068c-1.2-.433-2.461.208-3.54-.269a2.932,2.932,0,0,0-1.637.048l-.2.3a2.945,2.945,0,0,1-.359.844,10.217,10.217,0,0,1-2.162-2.6l27.729-5.116Z" fill="#ef8816"/>
      <path id="Path_451" data-name="Path 451" d="M2201.545,3824.37a21.988,21.988,0,0,0,4.784,2.067l8.062,2.927-1.414,3.761a7.819,7.819,0,0,1-.262,1.388l-.109.666.4,2.678a24.2,24.2,0,0,0,3.213,5.7l-27.729,5.116a41.25,41.25,0,0,1-5.186.659,15.23,15.23,0,0,1-4.146-.022c-2.538-.507-6.754-1.486-8.2-3.824a2.023,2.023,0,0,1-.353-1.665c.573-1.73,5.135-3.091,6.734-3.844a4.935,4.935,0,0,1-1.644-1.27l-.45-.8-.781.116a2.028,2.028,0,0,1-.952.756c-.558-.336-.073-.472-.2-.954a4.486,4.486,0,0,0-.482-.76,18.641,18.641,0,0,1,1.439-1.741,15.664,15.664,0,0,1,1.756-2.726l.661.047a30.311,30.311,0,0,0,11.03-.836c1-.264,1.943-.707,2.948-.983l.05-.014a18.887,18.887,0,0,0,7.54-6.3,15.422,15.422,0,0,0,1.148-2.564A8.955,8.955,0,0,0,2201.545,3824.37ZM2181.256,3836c-1.026-.133-3.593-.42-4.386.186-.378.381-1.234,1.621-1.618,1.726l.45.8a4.935,4.935,0,0,0,1.644,1.27h.24a12.234,12.234,0,0,1,2.209.4,26.088,26.088,0,0,0,4.583.7,57.073,57.073,0,0,0,5.966-.1c4.077-.332,8.1-1.08,12.155-1.61,2.844-.372,5.745-.439,8.554-1.046a10.533,10.533,0,0,0,1.956-.46l-.4-2.678.109-.666-.173-.19a22.019,22.019,0,0,0-3.479.538,39.34,39.34,0,0,1-4.032.638l-9.257,1.1c-3,.341-6.034.931-9.059.979a19.39,19.39,0,0,1-4.178-.471l-.038-.032.106-.206a1.647,1.647,0,0,1-1.126-.509l.4-.252Z"/>
      <path id="Path_452" data-name="Path 452" d="M2212.715,3834.513l-.173-.19a22.019,22.019,0,0,0-3.479.538l.441-.485c.331-.266.691-.18,1.081-.159l-.047-.146a4.873,4.873,0,0,0-1.362.279l-.094.04-.542-.3,4.437-.964A7.819,7.819,0,0,1,2212.715,3834.513Z" fill="#f0ebd5"/>
      <path id="Path_453" data-name="Path 453" d="M2183.321,3833.625a8.967,8.967,0,0,1-3.126.3,10.584,10.584,0,0,1-3.5-1.275,30.311,30.311,0,0,0,11.03-.836c1-.264,1.943-.707,2.948-.983A19.505,19.505,0,0,1,2183.321,3833.625Z"/>
      <path id="Path_454" data-name="Path 454" d="M2209.082,3834.39l.094-.04a4.873,4.873,0,0,1,1.362-.279l.047.146c-.39-.021-.75-.107-1.081.159l-.441.485a39.34,39.34,0,0,1-4.032.638l-9.257,1.1c-3,.341-6.034.931-9.059.979a19.39,19.39,0,0,1-4.178-.471l-.038-.032.106-.206a1.647,1.647,0,0,1-1.126-.509l.4-.252c5.349.886,10.284-.142,15.583-.741l11.074-1.276Z" fill="#f0ebd5"/>
      <path id="Path_455" data-name="Path 455" d="M2181.479,3836.358a1.647,1.647,0,0,0,1.126.509l-.106.206.038.032a19.39,19.39,0,0,0,4.178.471c3.025-.048,6.057-.638,9.059-.979l9.257-1.1a39.34,39.34,0,0,0,4.032-.638,22.019,22.019,0,0,1,3.479-.538l.173.19-.109.666.4,2.678a10.533,10.533,0,0,1-1.956.46c-2.809.607-5.71.674-8.554,1.046-4.052.53-8.078,1.278-12.155,1.61a57.073,57.073,0,0,1-5.966.1,26.088,26.088,0,0,1-4.583-.7,12.234,12.234,0,0,0-2.209-.4h-.24a4.935,4.935,0,0,1-1.644-1.27l-.45-.8c.384-.1,1.24-1.345,1.618-1.726.793-.606,3.36-.319,4.386-.186l.627.107Z" fill="#f0ebd5"/>
      <path id="Path_456" data-name="Path 456" d="M2181.479,3836.358a1.647,1.647,0,0,0,1.126.509l-.106.206a23.724,23.724,0,0,1-5.629-.888c.793-.606,3.36-.319,4.386-.186l.627.107Z" fill="#f0ebd5"/>
      <path id="Path_457" data-name="Path 457" d="M2213.009,3837.857a10.533,10.533,0,0,1-1.956.46c-2.809.607-5.71.674-8.554,1.046-4.052.53-8.078,1.278-12.155,1.61a57.073,57.073,0,0,1-5.966.1,26.088,26.088,0,0,1-4.583-.7,12.234,12.234,0,0,0-2.209-.4h-.24a4.935,4.935,0,0,1-1.644-1.27l.23-.293c1.007-.307,3.031.593,4.1.863a33.569,33.569,0,0,0,9.649.6,66.542,66.542,0,0,0,7.426-1.017l7.536-1.132,5.636-.82a6.484,6.484,0,0,0,2.266-.495l.066-1.236Z" fill="#f0ebd5"/>
      <path id="Path_458" data-name="Path 458" d="M2216.222,3843.556l-27.729,5.116a41.25,41.25,0,0,1-5.186.659,15.23,15.23,0,0,1-4.146-.022c-2.538-.507-6.754-1.486-8.2-3.824a2.023,2.023,0,0,1-.353-1.665c.573-1.73,5.135-3.091,6.734-3.844h.24a12.234,12.234,0,0,1,2.209.4,26.088,26.088,0,0,0,4.583.7,57.073,57.073,0,0,0,5.966-.1c4.077-.332,8.1-1.08,12.155-1.61,2.844-.372,5.745-.439,8.554-1.046a10.533,10.533,0,0,0,1.956-.46A24.2,24.2,0,0,0,2216.222,3843.556Z"/>
      <path id="Path_459" data-name="Path 459" d="M2216.627,3777.948a11.68,11.68,0,0,0,2.306.039,2.273,2.273,0,0,1,0,1.576,59.053,59.053,0,0,0-11.5,15.745c-.843,1.6-1.949,3.082-2.722,4.7a47.312,47.312,0,0,0-1.776,4.607,64,64,0,0,0-3.23,13.144c-.183,1.4-.153,2.8-.3,4.192a15.422,15.422,0,0,1-1.148,2.564,18.887,18.887,0,0,1-7.54,6.3l-.05.014c-1.005.276-1.946.719-2.948.983a30.311,30.311,0,0,1-11.03.836l-.661-.047a15.664,15.664,0,0,0-1.756,2.726,18.641,18.641,0,0,0-1.439,1.741.707.707,0,0,0-.232.142,8.9,8.9,0,0,1-3.362,1.833,3.16,3.16,0,0,1-2.313-.579c-1.787-1.145-4.66-4.347-5.1-6.439-.841-4.019,2-9.377,5.426-11.421a11.159,11.159,0,0,1,2.122-.9,4.867,4.867,0,0,0,.884-.3c.035-.031.11-.912.123-1.024.267-2.28.572-4.54,1.05-6.786a34.688,34.688,0,0,1,3.942-10.279c1.519-2.561,3.346-4.9,4.94-7.409l.345.132-.031-.576.495-.293,2.184-2.4a41.353,41.353,0,0,1,4.423-3.929,37.625,37.625,0,0,1,6.926-4.834,26.991,26.991,0,0,1,4.211-1.479,72.435,72.435,0,0,1,17.619-2.6Zm-48.775,46a1.483,1.483,0,0,0-.226.2,2.479,2.479,0,0,0-.318,1.652l1.221-.029.694-.274a1.627,1.627,0,0,0,.434-1.137,2.461,2.461,0,0,0-1.242-.418Zm8.7,6.432-.023.493.594.459a2.764,2.764,0,0,0,.574.217,1.35,1.35,0,0,0,1.118-.114,1.78,1.78,0,0,0,.055-.557,1.221,1.221,0,0,0-.632-.882C2177.479,3830.087,2177.211,3829.905,2176.553,3830.377Zm-10.1-1.15a1.41,1.41,0,0,0-.632.647c-.122.272-.076.286.031.565l.579.21a2.066,2.066,0,0,0,1.511-.589c-.067-.456-.325-.535-.676-.816A4.912,4.912,0,0,0,2166.453,3829.227Zm16.326-14.9c-.339.094-.343.1-.5.4a1.972,1.972,0,0,0,.679,1.229,1.419,1.419,0,0,0,.831-.5c.245-.35.173-.459.111-.842l-.678-.289A.9.9,0,0,0,2182.779,3814.331Zm-3.673,2.608c-.316.329-.526.462-.622.914l.6.536a.879.879,0,0,0,.765.113,1.541,1.541,0,0,0,.232-.977c-.008-.218-.347-.438-.508-.59ZM2203.985,3782a1.841,1.841,0,0,0-1.033.722l.217.409a4.652,4.652,0,0,0,1.087.239,2.213,2.213,0,0,0,.137-1.335Z" fill="#fab017"/>
      <path id="Path_460" data-name="Path 460" d="M2182.562,3827.2a3.656,3.656,0,0,1-.862-.283l-.3-.34.14-.346a1.647,1.647,0,0,1,1.293-.091A1.478,1.478,0,0,1,2182.562,3827.2Z"/>
      <path id="Path_461" data-name="Path 461" d="M2178.871,3830.875a1.78,1.78,0,0,1-.055.557,1.35,1.35,0,0,1-1.118.114,2.764,2.764,0,0,1-.574-.217l-.594-.459.023-.493c.658-.472.926-.29,1.686-.384A1.221,1.221,0,0,1,2178.871,3830.875Z" fill="rgba(250,176,23,0.99)"/>
      <path id="Path_462" data-name="Path 462" d="M2185.705,3804.614c1.5,3.5,3.366,7.02,4.245,10.755l-.15.179a2.838,2.838,0,0,1-.937-1.294c-1.235-2.588-2.011-5.292-3.048-7.943l-2.344-5.407-2.8-6.865-.031-.576.495-.293Z"/>
      <path id="Path_463" data-name="Path 463" d="M2295.07,3666.751a6.283,6.283,0,0,1,1.594,4.488,5.95,5.95,0,0,1-1.778,4.387,4.31,4.31,0,0,1-1.088.686l-.2.114c-.581.233-1.425-.162-2.017-.045l-.2-.028a9.2,9.2,0,0,1-2.908-1.307,2.416,2.416,0,0,0,.05,1.153c.5.1,1.153,0,1.507.347a10.9,10.9,0,0,1-1.485,1.592l-.078.3c-.465.512-.869.406-1.533.467l-.088-.188-.244-.272-.062.153a4.2,4.2,0,0,1-1.043,1.065,22.366,22.366,0,0,1-7.761,4.095l-11.556,2.89-.074.688a5.193,5.193,0,0,1-1.28-.211l-.08-.509-.089.044-.148.07c-2.374,1.165-5.671,1.3-8.267,1.547-4.706.455-9.13,1.109-13.883.961-3.915-.121-7.736-.83-11.67-.8a10.655,10.655,0,0,0-1.769-.1c-4.857-.284-9.825-.558-14.644-1.232a96.766,96.766,0,0,1-16.132-3.785c-4.063-1.3-8.444-2.843-11.814-5.528a14.134,14.134,0,0,1-4.4-5.592,12.1,12.1,0,0,1-.463-2.589,7.475,7.475,0,0,0-.384-1.112l-.25.423-.131-.059a4.592,4.592,0,0,1,.07-1.742l.221.114.066-.643-.34-.341a1.873,1.873,0,0,0-.2-1.011l-1.216-.005a9.3,9.3,0,0,1-3.565-.625,7.691,7.691,0,0,1-4.279-4.327,2.482,2.482,0,0,1-.108-.533,5.317,5.317,0,0,1,1.134-3.768c1.983-2.281,4.977-2.166,7.732-2.35.393-3.063,1.894-5.441,3.571-7.948a52.321,52.321,0,0,1,6.392-7.905,28.542,28.542,0,0,1,2.693-2.58,21.427,21.427,0,0,1,3.765-2.059c1.1-.54,2.151-1.158,3.285-1.637a86.025,86.025,0,0,1,9.481-3.17c1.552-.452,3.085-1.017,4.662-1.374,2.87-.65,5.769-.966,8.667-1.429a44.388,44.388,0,0,1,5.843-.787,22.808,22.808,0,0,1,3.4.355l3.784.433c6.022.865,12.115,1.49,18.057,2.806a70.577,70.577,0,0,1,10.752,3.475c1.264.5,2.565.886,3.808,1.437,5.369,2.381,11.018,6.025,14.557,10.783,1.9,2.56,4.433,4.629,6.132,7.33a44.356,44.356,0,0,1,2.367,5.1c.817,1.771,1.74,3.371,1.439,5.386l-.915,3.687A3.683,3.683,0,0,1,2295.07,3666.751Zm-122.59-10.773a5.317,5.317,0,0,0-1.134,3.768,2.482,2.482,0,0,0,.108.533,7.691,7.691,0,0,0,4.279,4.327,9.3,9.3,0,0,0,3.565.625l1.216.005a1.873,1.873,0,0,1,.2,1.011l.34.341-.066.643-.221-.114a4.592,4.592,0,0,0-.07,1.742l.131.059.25-.423a7.475,7.475,0,0,1,.384,1.112,12.1,12.1,0,0,0,.463,2.589,14.134,14.134,0,0,0,4.4,5.592c3.37,2.685,7.751,4.225,11.814,5.528a96.766,96.766,0,0,0,16.132,3.785c4.819.674,9.787.948,14.644,1.232a10.655,10.655,0,0,1,1.769.1c3.934-.028,7.755.681,11.67.8,4.753.148,9.177-.506,13.883-.961,2.6-.25,5.893-.382,8.267-1.547l.148-.07.089-.044.08.509a5.193,5.193,0,0,0,1.28.211l.074-.688,11.556-2.89a22.366,22.366,0,0,0,7.761-4.095,4.2,4.2,0,0,0,1.043-1.065l.062-.153.244.272.088.188c.664-.061,1.068.045,1.533-.467l.078-.3a10.9,10.9,0,0,0,1.485-1.592c-.354-.348-1.009-.247-1.507-.347a2.416,2.416,0,0,1-.05-1.153,9.2,9.2,0,0,0,2.908,1.307l.2.028c.592-.117,1.436.278,2.017.045l.2-.114a4.31,4.31,0,0,0,1.088-.686,5.95,5.95,0,0,0,1.778-4.387,6.283,6.283,0,0,0-1.594-4.488,3.683,3.683,0,0,0-3.115-1.215,4.446,4.446,0,0,1-2.463,2.459,19.841,19.841,0,0,1-8.258,2.389l-2.108.145-3.12.2-.22-.077.326-.454-2.6.144a16.691,16.691,0,0,0-2.37.125,69.221,69.221,0,0,0-8.894.479l-6.709.362-16.366-1.165-43.576-6.087a1.546,1.546,0,0,1-1,.5l-.2.286a12.513,12.513,0,0,1-3.145-.966c-2.468-.855-6.651-2.061-7.838-4.517-.016-.161-1.837-1.8-2.09-2.118a7.343,7.343,0,0,1-1.11-3.621C2177.457,3653.812,2174.463,3653.7,2172.48,3655.978Zm108.2-3.273.226-.357a1.971,1.971,0,0,0-.471-1.64,4.813,4.813,0,0,0-3.534-1.607,1.876,1.876,0,0,0-1.473.525c-.347.362-.3,1.3-.278,1.78l.954.726.113.18a17.116,17.116,0,0,1,3.73.365Zm-44.721-11.373a2.79,2.79,0,0,0-1.232-1.853,5.322,5.322,0,0,0-3.928-.821,1.9,1.9,0,0,0-1.223.878,1.664,1.664,0,0,0-.335,1.469c.578.068.5-.011,1.016-.157.422-.119,1.062.47,1.327.725.863.033,2.127-.639,2.862-.51.522.092.783.619,1.438.6Zm-20.813,6.856a1.285,1.285,0,0,0-.2-1.252,3.938,3.938,0,0,0-2.272-1.154,4.385,4.385,0,0,0-2.683.6l-.176.152-.2.141c-.274.221-.379.119-.644.424l-.061.34a2.222,2.222,0,0,0-.187.794,2.609,2.609,0,0,0,.986.617,3.031,3.031,0,0,1,.485.1c.279-.216.509-.131.742-.3.826-.61,2.954-.464,3.912-.182l.113.045A1.148,1.148,0,0,0,2215.147,3648.188Zm53.483-6.479a1.7,1.7,0,0,0,.356-1.24,2.024,2.024,0,0,0-.709-1.4,5.084,5.084,0,0,0-2.839-.623,2.823,2.823,0,0,0-1.768,1.225,3.226,3.226,0,0,0,2.071,2,11.466,11.466,0,0,0,1.959.363Zm-12.842,2.942a2.042,2.042,0,0,0,.847.13,2.155,2.155,0,0,0,.688-1.231,2.133,2.133,0,0,0-.367-.891,4.448,4.448,0,0,0-3.289-1.485l-.153.126a2.076,2.076,0,0,1-.846.329l0,.228c-.022.626-.576,1.066-.63,1.668l-.258.281.745.553A11.758,11.758,0,0,1,2255.788,3644.651Zm-49.66-6.612a1.475,1.475,0,0,0-.649-1.143,3.68,3.68,0,0,0-2.7-.3,1.424,1.424,0,0,0-.859.72,2.408,2.408,0,0,0-.373,2.064,3.633,3.633,0,0,0,2.823.658,6.388,6.388,0,0,0,1.194-.509A3.739,3.739,0,0,0,2206.128,3638.039Zm41.068-3.024a1.425,1.425,0,0,0,.5-1.062,1.006,1.006,0,0,0-.316-.976,5.8,5.8,0,0,0-3.223-1.247,2.282,2.282,0,0,0-1.391.922,6.251,6.251,0,0,0,3.816,2.783Zm-19.487,17.512a1.624,1.624,0,0,0-.415,1.337l.609,1.055a4.543,4.543,0,0,0,1.568-.248l.149-.053.5.118a3.487,3.487,0,0,0,2.33-.267,1.051,1.051,0,0,0-.119-.921,1.779,1.779,0,0,0-1.026-.768l-1.857-.709C2228.79,3652.1,2228.2,3651.993,2227.709,3652.527Zm17.676-.031c.372.069.6.248.948.33a11.349,11.349,0,0,0,1.856.019.777.777,0,0,0,.184-.272,1.244,1.244,0,0,0,.045-.691,2.876,2.876,0,0,0-1.711-1.607,3.73,3.73,0,0,0-2.754-.209,3.149,3.149,0,0,0-.985,1.484l.3.239Zm-9.405-22.443a1.4,1.4,0,0,0-1.083-.827c-.854-.278-2.458-.6-3.276-.089-.6.376-.575.59-.7,1.255a8.869,8.869,0,0,0,2.415,1.32,5.82,5.82,0,0,0,2.092-.21l.257-.066A3.751,3.751,0,0,0,2235.98,3630.053Zm-44.352,17.128a1.107,1.107,0,0,0-.022.556l.129.214a4.037,4.037,0,0,0,2.239-.281,10.2,10.2,0,0,1,1.322-.793l-.039-.334a4.8,4.8,0,0,0,.32-2.1l-.815-.179A5.967,5.967,0,0,0,2191.628,3647.181Zm26.8-14.158a3.268,3.268,0,0,0-2.609.719,1.74,1.74,0,0,0-.423,1.373l.017.371,1.9.475a24.361,24.361,0,0,1,3.143-1.682C2219.861,3633.956,2218.766,3633.579,2218.426,3633.023Zm-21.374,13.418a1.274,1.274,0,0,0-.127-2.166c-.534-.39-1.564-.114-2.163-.016l.815.179a4.8,4.8,0,0,1-.32,2.1l.039.334a10.2,10.2,0,0,0-1.322.793,4.058,4.058,0,0,0,2.507-.652A6.029,6.029,0,0,1,2197.052,3646.441Zm54.274-4.85a1.666,1.666,0,0,0-.456.732l-.169.42a13.871,13.871,0,0,0,1.081,1.063l.258-.281c.054-.6.608-1.042.63-1.668l0-.228a2.076,2.076,0,0,0,.846-.329l.153-.126A3.29,3.29,0,0,0,2251.326,3641.591Z"/>
      <path id="Path_464" data-name="Path 464" d="M2204.373,3640.039a6.388,6.388,0,0,0,1.194-.509,2.553,2.553,0,0,1-.275.672,2.382,2.382,0,0,1-1.6.846,1.983,1.983,0,0,1-1.534-.4,1.369,1.369,0,0,1-.612-1.266A3.633,3.633,0,0,0,2204.373,3640.039Z"/>
      <path id="Path_465" data-name="Path 465" d="M2281.234,3670.384l-2.108.145-3.12.2-.22-.077.326-.454,2.9-.39,2.306-.291Z" fill="#f0ebd5"/>
      <path id="Path_466" data-name="Path 466" d="M2246.578,3635.435a1.687,1.687,0,0,1-.462.311,2.473,2.473,0,0,1-1.87-.127,3.346,3.346,0,0,1-1.732-1.585c-.208-.615-.019-.828.248-1.382A6.251,6.251,0,0,0,2246.578,3635.435Z"/>
      <path id="Path_467" data-name="Path 467" d="M2234.95,3632.3a4,4,0,0,1-2.4.283,2.574,2.574,0,0,1-1.405-.948,1.231,1.231,0,0,1-.221-1.239,8.869,8.869,0,0,0,2.415,1.32,5.82,5.82,0,0,0,2.092-.21l.257-.066A3,3,0,0,1,2234.95,3632.3Z"/>
      <path id="Path_468" data-name="Path 468" d="M2258.822,3657.288a5.7,5.7,0,0,0,2.2.614l-.092.167a1.34,1.34,0,0,1-.887.6,1.69,1.69,0,0,1-1.467-.187,2.452,2.452,0,0,1-1.226-1.794,1.4,1.4,0,0,1,.362-1.1l.33.106A3.466,3.466,0,0,0,2258.822,3657.288Z"/>
      <path id="Path_469" data-name="Path 469" d="M2252.527,3644.359a1.483,1.483,0,0,0,.628.485l.12.046a.849.849,0,0,0,.514.133c.43.269.824.18,1.283.288.24.057.289.121.547.068l.211-.056.233-.059a.651.651,0,0,1,.471.031l-.311.41a3.156,3.156,0,0,1-1.945.284,4.534,4.534,0,0,1-2.583-1.167,2.464,2.464,0,0,1-.994-2.079,13.871,13.871,0,0,0,1.081,1.063Z"/>
      <path id="Path_470" data-name="Path 470" d="M2214.433,3649.477a4.311,4.311,0,0,1-2.879,1.49,3.645,3.645,0,0,1-2.432-.646,1.511,1.511,0,0,1-.442-1.292c1.6.753,2.912,1.3,4.654.685l1.116-.51Z"/>
      <path id="Path_471" data-name="Path 471" d="M2276.218,3652.312l.34.312c1.14.95,2.463.763,3.826.656-.058.252-.065.23-.251.391a2.648,2.648,0,0,1-2.114.714,4.175,4.175,0,0,1-2.719-1.554,1.611,1.611,0,0,1-.149-1.425l.954.726Z"/>
      <path id="Path_472" data-name="Path 472" d="M2193.974,3647.67a4.058,4.058,0,0,0,2.507-.652l.34.18a3.618,3.618,0,0,1-1.908,1.769,3.659,3.659,0,0,1-2.236.175,3.1,3.1,0,0,1-.9-.707l-.038-.484A4.037,4.037,0,0,0,2193.974,3647.67Z"/>
      <path id="Path_473" data-name="Path 473" d="M2193.974,3647.67a10.2,10.2,0,0,1,1.322-.793l-.039-.334a4.8,4.8,0,0,0,.32-2.1l-.815-.179c.6-.1,1.629-.374,2.163.016a1.274,1.274,0,0,1,.127,2.166,6.029,6.029,0,0,0-.571.577A4.058,4.058,0,0,1,2193.974,3647.67Z"/>
      <path id="Path_474" data-name="Path 474" d="M2265.741,3641.67a11.466,11.466,0,0,0,1.959.363l.626.148a1.5,1.5,0,0,1-.666.629,3.423,3.423,0,0,1-2.6.088,2.565,2.565,0,0,1-1.613-1.472c-.335-.746-.073-.961.174-1.621l.046-.136A3.226,3.226,0,0,0,2265.741,3641.67Z"/>
      <path id="Path_475" data-name="Path 475" d="M2209.709,3648.853a3.031,3.031,0,0,1,.485.1c.279-.216.509-.131.742-.3.826-.61,2.954-.464,3.912-.182l.113.045-.511.694-1.116.51c-1.742.617-3.057.068-4.654-.685a3.154,3.154,0,0,1,.043-.793A2.609,2.609,0,0,0,2209.709,3648.853Z"/>
      <path id="Path_476" data-name="Path 476" d="M2234.17,3642.808a7.054,7.054,0,0,0,1.266-.3l.09.258a3.26,3.26,0,0,1-1.56,1.118,4.931,4.931,0,0,1-3.615-.5,2.674,2.674,0,0,1-1.384-1.966l.247-.29C2230.88,3642.461,2231.989,3643.065,2234.17,3642.808Z"/>
      <path id="Path_477" data-name="Path 477" d="M2243.271,3651.789a3.4,3.4,0,0,0,1.243.949,4.648,4.648,0,0,0,1.138.553,1.418,1.418,0,0,1,.427.131,2.781,2.781,0,0,0,1.734.064l.148.152a2.687,2.687,0,0,1-.723.822,2.884,2.884,0,0,1-2.163.239,3.634,3.634,0,0,1-2.3-1.54,2.165,2.165,0,0,1,.2-1.609Z"/>
      <path id="Path_478" data-name="Path 478" d="M2227.9,3654.919a4.3,4.3,0,0,0,1.276.619c.823.3,1.735-.242,2.445.083a2.5,2.5,0,0,1-1.085,1.014,3.564,3.564,0,0,1-2.779.111,2.064,2.064,0,0,1-1.327-1.183,3.516,3.516,0,0,1,.332-1.416c.1-.2.327-.213.529-.283Z"/>
      <path id="Path_479" data-name="Path 479" d="M2235.436,3642.508a7.054,7.054,0,0,1-1.266.3c-2.181.257-3.29-.347-4.956-1.682l.028-.121c.578.068.5-.011,1.016-.157.422-.119,1.062.47,1.327.725.863.033,2.127-.639,2.862-.51.522.092.783.619,1.438.6A2.3,2.3,0,0,1,2235.436,3642.508Z"/>
      <path id="Path_480" data-name="Path 480" d="M2258.822,3657.288a3.466,3.466,0,0,1-.779-1.593,3.641,3.641,0,0,0,1.321.429.694.694,0,0,0,.472-.453,1.642,1.642,0,0,0,.061-.341l.065-.257a.929.929,0,0,1-.216-.706,2.5,2.5,0,0,1,1.734.766,1.485,1.485,0,0,1,.5,1.183c-.045.706-.717,1.028-.952,1.586A5.7,5.7,0,0,1,2258.822,3657.288Z"/>
      <path id="Path_481" data-name="Path 481" d="M2194.6,3664.564l-.2.286a12.513,12.513,0,0,1-3.145-.966c-2.468-.855-6.651-2.061-7.838-4.517a39.324,39.324,0,0,0,12.187,4.694A1.546,1.546,0,0,1,2194.6,3664.564Z" fill="#f0ebd5"/>
      <path id="Path_482" data-name="Path 482" d="M2242.968,3651.55a3.149,3.149,0,0,1,.985-1.484,3.73,3.73,0,0,1,2.754.209,2.876,2.876,0,0,1,1.711,1.607,1.244,1.244,0,0,1-.045.691.777.777,0,0,1-.184.272,11.349,11.349,0,0,1-1.856-.019c-.35-.082-.576-.261-.948-.33l-2.114-.707Z"/>
      <path id="Path_483" data-name="Path 483" d="M2231.308,3652.78a1.779,1.779,0,0,1,1.026.768,1.051,1.051,0,0,1,.119.921,3.487,3.487,0,0,1-2.33.267l-.5-.118-.149.053a4.543,4.543,0,0,1-1.568.248l-.609-1.055a1.624,1.624,0,0,1,.415-1.337c.489-.534,1.081-.425,1.742-.456Zm-3.6-.253a1.624,1.624,0,0,0-.415,1.337l.112.09a2.285,2.285,0,0,0,1.641.546l.48-.723a2.306,2.306,0,0,0-.076-1.706C2228.79,3652.1,2228.2,3651.993,2227.709,3652.527Z"/>
      <path id="Path_484" data-name="Path 484" d="M2289.492,3668a19.841,19.841,0,0,1-8.258,2.389l.08-.862a21.279,21.279,0,0,0,6.329-1.723c1.413-.712,2.754-1.922,4.312-2.263A4.446,4.446,0,0,1,2289.492,3668Z" fill="#f0ebd5"/>
      <path id="Path_485" data-name="Path 485" d="M2221.627,3636.222a6.613,6.613,0,0,1-4.338.9,2.881,2.881,0,0,1-1.7-.926l-.183-.713,1.9.475a24.361,24.361,0,0,1,3.143-1.682l2.182-.171a.918.918,0,0,1-.11.752A1.72,1.72,0,0,1,2221.627,3636.222Z"/>
      <path id="Path_486" data-name="Path 486" d="M2217.311,3635.961a24.361,24.361,0,0,1,3.143-1.682l2.182-.171a.918.918,0,0,1-.11.752A9.992,9.992,0,0,1,2217.311,3635.961Z"/>
      <path id="Path_487" data-name="Path 487" d="M2251.782,3643.806l.258-.281c.054-.6.608-1.042.63-1.668l0-.228a2.076,2.076,0,0,0,.846-.329l.153-.126a4.448,4.448,0,0,1,3.289,1.485,2.133,2.133,0,0,1,.367.891,2.155,2.155,0,0,1-.688,1.231,2.042,2.042,0,0,1-.847-.13,11.758,11.758,0,0,0-3.261-.292Z"/>
      <path id="Path_488" data-name="Path 488" d="M2214.848,3648.465c-.958-.282-3.086-.428-3.912.182-.233.172-.463.087-.742.3a3.031,3.031,0,0,0-.485-.1,2.609,2.609,0,0,1-.986-.617,2.222,2.222,0,0,1,.187-.794l.061-.34c.265-.3.37-.2.644-.424l.2-.141.176-.152a4.385,4.385,0,0,1,2.683-.6,3.938,3.938,0,0,1,2.272,1.154,1.285,1.285,0,0,1,.2,1.252,1.148,1.148,0,0,1-.186.322Z"/>
      <path id="Path_489" data-name="Path 489" d="M2234.447,3641.063c-.735-.129-2,.543-2.862.51-.265-.255-.905-.844-1.327-.725-.517.146-.438.225-1.016.157a1.664,1.664,0,0,1,.335-1.469,1.9,1.9,0,0,1,1.223-.878,5.322,5.322,0,0,1,3.928.821,2.79,2.79,0,0,1,1.232,1.853l-.075.336C2235.23,3641.682,2234.969,3641.155,2234.447,3641.063Z"/>
      <path id="Path_490" data-name="Path 490" d="M2276.218,3652.312l-.113-.18c.741-.638.375-2.42,1.336-2.417a4.376,4.376,0,0,1,1.871.5l.222.38-.083.221a1.481,1.481,0,0,0,.092,1.271c.1.187.262.32.374.494l.031.1A17.116,17.116,0,0,0,2276.218,3652.312Z"/>
      <path id="Path_491" data-name="Path 491" d="M2181.322,3657.249c.253.317,2.074,1.957,2.09,2.118,1.187,2.456,5.37,3.662,7.838,4.517a12.513,12.513,0,0,0,3.145.966l.2-.286a1.546,1.546,0,0,0,1-.5l43.576,6.087,16.366,1.165,6.709-.362a69.221,69.221,0,0,1,8.894-.479,16.691,16.691,0,0,1,2.37-.125l2.6-.144-.326.454.22.077,3.12-.2,2.108-.145a19.841,19.841,0,0,0,8.258-2.389,4.446,4.446,0,0,0,2.463-2.459,3.683,3.683,0,0,1,3.115,1.215,6.283,6.283,0,0,1,1.594,4.488,5.95,5.95,0,0,1-1.778,4.387,4.31,4.31,0,0,1-1.088.686l-.2.114c-.581.233-1.425-.162-2.017-.045l-.2-.028a9.2,9.2,0,0,1-2.908-1.307,2.416,2.416,0,0,0,.05,1.153c.5.1,1.153,0,1.507.347a10.9,10.9,0,0,1-1.485,1.592l-.078.3c-.465.512-.869.406-1.533.467l-.088-.188-.244-.272-.062.153a4.2,4.2,0,0,1-1.043,1.065,22.366,22.366,0,0,1-7.761,4.095l-11.556,2.89-.074.688a5.193,5.193,0,0,1-1.28-.211l-.08-.509-.089.044-.148.07c-2.374,1.165-5.671,1.3-8.267,1.547-4.706.455-9.13,1.109-13.883.961-3.915-.121-7.736-.83-11.67-.8a10.655,10.655,0,0,0-1.769-.1c-4.857-.284-9.825-.558-14.644-1.232a96.766,96.766,0,0,1-16.132-3.785c-4.063-1.3-8.444-2.843-11.814-5.528a14.134,14.134,0,0,1-4.4-5.592,12.1,12.1,0,0,1-.463-2.589,7.475,7.475,0,0,0-.384-1.112l-.25.423-.131-.059a4.592,4.592,0,0,1,.07-1.742l.221.114.066-.643-.34-.341a1.873,1.873,0,0,0-.2-1.011l-1.216-.005a9.3,9.3,0,0,1-3.565-.625,7.691,7.691,0,0,1-4.279-4.327,2.482,2.482,0,0,1-.108-.533,5.317,5.317,0,0,1,1.134-3.768c1.983-2.281,4.977-2.166,7.732-2.35A7.343,7.343,0,0,0,2181.322,3657.249Zm42.282,16.2a4.726,4.726,0,0,0-1.069.29,38.351,38.351,0,0,0-4.295,2.018,15.739,15.739,0,0,1-9.167.82c-4.987-.909-8.571-4.867-11.331-8.847-3.844,2.116-9.9,2.982-13.661.21-.828-.61-1.939-2.124-2.869-2.348l-.156.994-.066.643-.221-.114a4.592,4.592,0,0,0-.07,1.742l.131.059.25-.423a7.475,7.475,0,0,1,.384,1.112,12.1,12.1,0,0,0,.463,2.589,14.134,14.134,0,0,0,4.4,5.592c3.37,2.685,7.751,4.225,11.814,5.528a96.766,96.766,0,0,0,16.132,3.785c4.819.674,9.787.948,14.644,1.232a10.655,10.655,0,0,1,1.769.1c3.934-.028,7.755.681,11.67.8,4.753.148,9.177-.506,13.883-.961,2.6-.25,5.893-.382,8.267-1.547l.148-.07.089-.044a19.518,19.518,0,0,0,.192-3.61c.2-1.669,0-3.579.445-5.18l1.319-1.032.363-1.584-1.464.285c-1.863.749-3.544,2.049-5.479,2.6a9.037,9.037,0,0,1-4.123.373c-2.925-.542-5.267-2.606-8.438-2.068-2.705.46-4.355,2.149-6.773,3.18a10.822,10.822,0,0,1-4.832.642c-3.036-.167-6.63-1.057-8.853-3.253-.813-.8-1.436-1.853-2.22-2.712A7.181,7.181,0,0,0,2223.6,3673.451Zm68.77-5a6.082,6.082,0,0,1-.787,1.44l-.1.143c.027.538-.046.677.335,1.078l1.237-.159a3.962,3.962,0,0,0,1.712-.631l-.083-.382a2.457,2.457,0,0,0-1.089-.455,1.809,1.809,0,0,1-.669-.161,1.859,1.859,0,0,0-.084-.888Z" fill="#f0ebd5"/>
      <path id="Path_492" data-name="Path 492" d="M2292.925,3669.324a1.809,1.809,0,0,0,.669.161,2.457,2.457,0,0,1,1.089.455l.083.382a3.962,3.962,0,0,1-1.712.631l-1.237.159c-.381-.4-.308-.54-.335-1.078l.1-.143a6.082,6.082,0,0,0,.787-1.44l.467-.015A1.859,1.859,0,0,1,2292.925,3669.324Z" fill="#f0ebd5"/>
      <path id="Path_493" data-name="Path 493" d="M2265.241,3670.953l-.156.591-7.811.123-.018-.032a2.206,2.206,0,0,1-1.715-.322l6.709-.362C2262.866,3670.925,2264.836,3670.614,2265.241,3670.953Z" fill="#f0ebd5"/>
      <path id="Path_494" data-name="Path 494" d="M2276.112,3670.2l-.326.454.22.077a74.951,74.951,0,0,1-8.071.725,10.044,10.044,0,0,1-2.85.085l.156-.591c-.405-.339-2.375-.028-2.991,0a69.221,69.221,0,0,1,8.894-.479,16.691,16.691,0,0,1,2.37-.125Z" fill="#f0ebd5"/>
      <path id="Path_495" data-name="Path 495" d="M2291.38,3676.353a9.2,9.2,0,0,1-2.908-1.307,2.416,2.416,0,0,0,.05,1.153c.5.1,1.153,0,1.507.347a10.9,10.9,0,0,1-1.485,1.592l-.078.3c-.465.512-.869.406-1.533.467l-.088-.188a11.715,11.715,0,0,0-.142-4.255,23.8,23.8,0,0,0-3.878,2.316l-.887-.307c1.224-.934,3.942-3.322,5.508-3.02,1,.193,1.988,1.263,2.81,1.84.39.273.965.5,1.223.91l.1.183Z"/>
      <path id="Path_496" data-name="Path 496" d="M2227.835,3676.6a15.516,15.516,0,0,0,8.984,2.936c4.319-.023,7.778-3.521,12.133-3.682,3.278-.122,7.017,2.68,10.135,1.632l7.744-2.736c1.873-.269,3.583.669,5.216,1.495,2.113,1.069,4.511,2.136,6.932,1.524a9.414,9.414,0,0,0,2.959-1.3l.887.307a8.7,8.7,0,0,1-2.364,1.134,10.7,10.7,0,0,1-8.817-.753,1.344,1.344,0,0,1-.752-.073l.067-.2a8.117,8.117,0,0,0-3.64-1.953l-.255.278-1.464.285c-1.863.749-3.544,2.049-5.479,2.6a9.037,9.037,0,0,1-4.123.373c-2.925-.542-5.267-2.606-8.438-2.068-2.705.46-4.355,2.149-6.773,3.18a10.822,10.822,0,0,1-4.832.642c-3.036-.167-6.63-1.057-8.853-3.253-.813-.8-1.436-1.853-2.22-2.712l.232-.255A27.737,27.737,0,0,0,2227.835,3676.6Z" fill="#f0ebd5"/>
      <path id="Path_497" data-name="Path 497" d="M2224.882,3674.258a7.181,7.181,0,0,0-1.278-.807,4.726,4.726,0,0,0-1.069.29,38.351,38.351,0,0,0-4.295,2.018,15.739,15.739,0,0,1-9.167.82c-4.987-.909-8.571-4.867-11.331-8.847-3.844,2.116-9.9,2.982-13.661.21-.828-.61-1.939-2.124-2.869-2.348l-.156.994-.34-.341a1.873,1.873,0,0,0-.2-1.011l-1.216-.005a9.3,9.3,0,0,1-3.565-.625,7.691,7.691,0,0,1-4.279-4.327l.1.065a19.278,19.278,0,0,1,1.8,1.81,8.594,8.594,0,0,0,6.345,1.966l.65-.141.839-.216a27.727,27.727,0,0,0,2.619,2.758,12.148,12.148,0,0,0,6.671,2.169,18.377,18.377,0,0,0,7.53-1.713,5.669,5.669,0,0,1,.692,1.383,12.563,12.563,0,0,0,1.246,1.692c3.445,4.344,8.069,6.239,13.569,6.348a8.012,8.012,0,0,0,2.2-.467,47.918,47.918,0,0,0,4.892-1.748c.838-.346,2.554-1.291,3.442-.963a3.3,3.3,0,0,1,.939.643l.134.138Z" fill="#f0ebd5"/>
      <path id="Path_498" data-name="Path 498" d="M2255.541,3671.313a2.206,2.206,0,0,0,1.715.322l.018.032a9.364,9.364,0,0,1-2.017.132,75.333,75.333,0,0,1-11.686-.405c-1.362-.139-2.77-.171-4.112-.438a44.214,44.214,0,0,1-6.53-.737l-9.075-1.27c-5.314-.629-10.7-.3-16-.912a17.844,17.844,0,0,1-3.715-.76c-.97-.325-1.943-.828-2.935-1.054-2.269-.517-4.527-.756-6.8-1.373l.2-.286a1.546,1.546,0,0,0,1-.5l43.576,6.087Z" fill="#f0ebd5"/>
      <path id="Path_499" data-name="Path 499" d="M2270.959,3676.882l-.067.2a1.344,1.344,0,0,0,.752.073,10.7,10.7,0,0,0,8.817.753,8.7,8.7,0,0,0,2.364-1.134,23.8,23.8,0,0,1,3.878-2.316,11.715,11.715,0,0,1,.142,4.255l-.244-.272-.062.153a4.2,4.2,0,0,1-1.043,1.065,22.366,22.366,0,0,1-7.761,4.095l-11.556,2.89-.074.688a5.193,5.193,0,0,1-1.28-.211l-.08-.509a19.518,19.518,0,0,0,.192-3.61c.2-1.669,0-3.579.445-5.18l1.319-1.032.363-1.584.255-.278A8.117,8.117,0,0,1,2270.959,3676.882Z"/>
      <path id="Path_500" data-name="Path 500" d="M2266.65,3683.012l-.471,3.633-.074.688a5.193,5.193,0,0,1-1.28-.211l-.08-.509a19.518,19.518,0,0,0,.192-3.61Z"/>
      <path id="Path_501" data-name="Path 501" d="M2266.65,3683.012l-1.713-.009c.2-1.669,0-3.579.445-5.18l1.319-1.032A32.4,32.4,0,0,1,2266.65,3683.012Z"/>
      <path id="Path_502" data-name="Path 502" d="M2227.1,3676.97c2.223,2.2,5.817,3.086,8.853,3.253a10.822,10.822,0,0,0,4.832-.642c2.418-1.031,4.068-2.72,6.773-3.18,3.171-.538,5.513,1.526,8.438,2.068a9.037,9.037,0,0,0,4.123-.373c1.935-.555,3.616-1.855,5.479-2.6l1.464-.285-.363,1.584-1.319,1.032c-.44,1.6-.248,3.511-.445,5.18a19.518,19.518,0,0,1-.192,3.61l-.089.044-.148.07c-2.374,1.165-5.671,1.3-8.267,1.547-4.706.455-9.13,1.109-13.883.961-3.915-.121-7.736-.83-11.67-.8a10.655,10.655,0,0,0-1.769-.1c-4.857-.284-9.825-.558-14.644-1.232a96.766,96.766,0,0,1-16.132-3.785c-4.063-1.3-8.444-2.843-11.814-5.528a14.134,14.134,0,0,1-4.4-5.592,12.1,12.1,0,0,1-.463-2.589,7.475,7.475,0,0,0-.384-1.112l-.25.423-.131-.059a4.592,4.592,0,0,1,.07-1.742l.221.114.066-.643.156-.994c.93.224,2.041,1.738,2.869,2.348,3.766,2.772,9.817,1.906,13.661-.21,2.76,3.98,6.344,7.938,11.331,8.847a15.739,15.739,0,0,0,9.167-.82,38.351,38.351,0,0,1,4.295-2.018,4.726,4.726,0,0,1,1.069-.29,7.181,7.181,0,0,1,1.278.807C2225.666,3675.117,2226.289,3676.166,2227.1,3676.97Zm38.5-1.478-.218,2.331,1.319-1.032.363-1.584Z"/>
      <path id="Path_503" data-name="Path 503" d="M2266.7,3676.791l-1.319,1.032.218-2.331,1.464-.285Z"/>
      <path id="Path_504" data-name="Path 504" d="M2181.927,3672.2a14.134,14.134,0,0,0,4.4,5.592c3.37,2.685,7.751,4.225,11.814,5.528a96.766,96.766,0,0,0,16.132,3.785c4.819.674,9.787.948,14.644,1.232a10.655,10.655,0,0,1,1.769.1c3.934-.028,7.755.681,11.67.8,4.753.148,9.177-.506,13.883-.961,2.6-.25,5.893-.382,8.267-1.547l.148-.07.089-.044.08.509a5.193,5.193,0,0,0,1.28.211l.074-.688,11.556-2.89a22.366,22.366,0,0,0,7.761-4.095,4.2,4.2,0,0,0,1.043-1.065l.062-.153.244.272.088.188a50.415,50.415,0,0,1,.362,5.889l-.619,9.268-2.951,32.543a3.828,3.828,0,0,1,1.19.208,8.4,8.4,0,0,0-.02,1.671l.18-.142a6.63,6.63,0,0,0,1.649-1.977c.36-.622.857-1.991,1.464-2.323a1.121,1.121,0,0,1,.663.193,2.421,2.421,0,0,0,1.151.638,1.061,1.061,0,0,1,.074,1.089c-.189.513-.647.926-.64,1.478a2.9,2.9,0,0,0,1.321-.366c.439.26.426.283.6.731l-.053.341a2.483,2.483,0,0,1-.217,2.379,6.183,6.183,0,0,0-.505.81l.381.459c-.315.664-2.385,1.533-3.052,2.063a42.214,42.214,0,0,0-4.758,4.652l8.26,19.46,1.494,2.859.181.131c1.6,1.146,3.405,1.885,5.093,2.866,3.506,2.038,6.359,5.5,8.589,8.822l.234-.042c3.94-.67,7.716.727,10.858,3.024,2.039,1.491,4.229,3.722,4.634,6.338a3.482,3.482,0,0,1-1.134,2.558,14.06,14.06,0,0,1-2.908,2.715,4.634,4.634,0,0,1-.765,1.2l1.152,2.7a2.487,2.487,0,0,1,.7,2.026,7.439,7.439,0,0,1-1.308,3.176c-2.1,3.264-5.242,5.2-7.888,7.9-.381,1.937-.557,3.874-1.129,5.773a57.512,57.512,0,0,1-10.139,18.7c-.949,1.22-1.852,2.548-2.919,3.668-1.322,1.388-2.914,2.562-4.341,3.844a47.291,47.291,0,0,1-5.364,4.506c-1.307.876-2.621,1.766-4,2.523-2.488,1.366-4.927,2.08-6.79,4.383,2.022,2.472,4.57,5.041,7.635,6.167l3.466-2.311c1.67.987,3.32,2.423,5.113,3.126a9.552,9.552,0,0,0,2.462.462,4.6,4.6,0,0,1-1.7,1.632c-1.525-.161-2.819-1.17-4.333-1.462a11.649,11.649,0,0,0,1.757,6.025,13.929,13.929,0,0,0,2.085,1.027,56.105,56.105,0,0,1-1.553,7.9,6.921,6.921,0,0,1-1.276,2.571l-.573.23c-.353-.191-.344-.165-.463-.552-.521-1.7-.208-3.7-.546-5.464a8.821,8.821,0,0,0-1.618-3.044c-1.682-2.491-3.186-4.671-5.9-6.149l-5-2.714c-1.974-1.148-4.09-2.739-6.269-3.43a44.527,44.527,0,0,1-8.316,3.777,92.819,92.819,0,0,1-14.166,4.218c-3.608.731-7.428,1.128-11.086,1.544l.017.206a43.347,43.347,0,0,0,1.206,5.758,38.432,38.432,0,0,0,1.994,7.336c1.381-.132,3.41-.525,4.539.509,1.2,1.1.635,3.166,1.923,4.383l1.918,1.674,0,.429c-.39.344-.441.493-.975.5-.9-.5-1.916-1.569-2.9-1.693a1.7,1.7,0,0,0-1.2,1,2.581,2.581,0,0,0,.186,2.23l1.148,2.547c-.514.819-1.117,1.54-1.647,2.337-1.54,2.318-3.5,5.277-6.43,5.912l-.713.1a4.076,4.076,0,0,1,.133-2.652,19.107,19.107,0,0,1,1.663-3.494,8.063,8.063,0,0,0,.829-1.611c.186-.764-.328-2.1-.431-2.9-.14-1.08-.017-2.22-.068-3.311a13.621,13.621,0,0,0-1.357-5.423l-7.455-12.442-11.5-18.89-.037-.134a24.2,24.2,0,0,1-3.213-5.7l-.4-2.678.109-.666a7.819,7.819,0,0,0,.262-1.388l1.414-3.761-8.062-2.927a21.988,21.988,0,0,1-4.784-2.067,8.955,8.955,0,0,1-2.134-2.422c.149-1.393.119-2.791.3-4.192a64,64,0,0,1,3.23-13.144,47.312,47.312,0,0,1,1.776-4.607c.773-1.615,1.879-3.1,2.722-4.7a59.053,59.053,0,0,1,11.5-15.745,2.273,2.273,0,0,0,0-1.576,11.68,11.68,0,0,1-2.306-.039l-.134-.023a72.435,72.435,0,0,0-17.619,2.6,26.991,26.991,0,0,0-4.211,1.479,37.625,37.625,0,0,0-6.926,4.834,41.353,41.353,0,0,0-4.423,3.929l-2.184,2.4-6.2-16.917a18.96,18.96,0,0,1-.687-3.1c-.279-1.46-.585-2.9-.726-4.379a7.561,7.561,0,0,0-1.389-.609,6.427,6.427,0,0,0-2.833-1.965,5.119,5.119,0,0,1-1.789-.547.942.942,0,0,1-.471-.746,13.329,13.329,0,0,1-.434-2.119,1.293,1.293,0,0,0,.483-.539c-.718-1.578.085-1.97.322-3.431l.019-.128a5.175,5.175,0,0,0,1.072-1.509c.363-.024.409-.067.691.184a14.226,14.226,0,0,1,2.308,3.163,1.668,1.668,0,0,0,.588,1c.919-.574.769.108,1.544-.025a2.709,2.709,0,0,0-.763-1.6c.016-.547.156-.563.534-.935a1.86,1.86,0,0,1-.334-.281.763.763,0,0,1-.152-.386,23.252,23.252,0,0,1-.2-3.545,51.5,51.5,0,0,1,.056-6.48c.417-4.274,1.379-8.493,1.94-12.747.4-3.017.2-6.093.513-9.122.3-2.936,1.1-5.781,1.326-8.728.191-2.436-.03-4.844-.039-7.279a93.886,93.886,0,0,1,.527-10.263c.267-2.49,1.059-4.822,1.513-7.27.571-3.077.765-6.229,1.136-9.334a54.31,54.31,0,0,0,.677-5.723c.107-2.509-.031-5.127.28-7.614a1.185,1.185,0,0,1,.406-.935l.416.344A12.1,12.1,0,0,0,2181.927,3672.2Zm-.879-2.933a1.185,1.185,0,0,0-.406.935c-.311,2.487-.173,5.1-.28,7.614a54.31,54.31,0,0,1-.677,5.723c-.371,3.1-.565,6.257-1.136,9.334-.454,2.448-1.246,4.78-1.513,7.27a93.886,93.886,0,0,0-.527,10.263c.009,2.435.23,4.843.039,7.279-.23,2.947-1.023,5.792-1.326,8.728-.312,3.029-.116,6.1-.513,9.122-.561,4.254-1.523,8.473-1.94,12.747a51.5,51.5,0,0,0-.056,6.48,23.252,23.252,0,0,0,.2,3.545.763.763,0,0,0,.152.386,1.86,1.86,0,0,0,.334.281,3.45,3.45,0,0,1,1.223,1.249c.557,1.255.108,3.209,1,4.289.6.725,2.533.765,3.473.808,1.638.073,3.392-.185,5.039-.259a110.1,110.1,0,0,1,14.78-.07l16.233-14.444a8.7,8.7,0,0,0-.7-1.888,10.391,10.391,0,0,1,3.293-1.866l1.487-.883,1.164-.38a3.126,3.126,0,0,0,.839-.766c-.405-.246-.54-.292-.766-.722.016-1.629-.052-5.673.956-6.9a4.454,4.454,0,0,0-.709-2.626,2.61,2.61,0,0,0-.3-.3,6.614,6.614,0,0,0-1.309-.947,6.371,6.371,0,0,0-2,.155l-.135-.254.458-.636-.141-.12-.294.087a1.658,1.658,0,0,1-1.407-.244c.115-.688-.2-.721-.172-1.334-.118-.007-.067.007-.188-.057-.349-.184-.333-.18-.457-.573a1.055,1.055,0,0,1,.39-.587l.169-.115a1.463,1.463,0,0,0-.833-.56,3.236,3.236,0,0,1-1.014-.5,5.115,5.115,0,0,0-.761-1.226.953.953,0,0,1-.162-.562c.344-.356.655-.32,1.009-.569.424-.3.09-.444-.1-.77a2.282,2.282,0,0,1-.176-.4c.005-.05.381-.29.429-.367a7.491,7.491,0,0,0,.612-2.8l-.225-.12a5.111,5.111,0,0,1-2.816-3.257,4.921,4.921,0,0,1,.548-3.713,3.687,3.687,0,0,1,2.741-1.773,7.568,7.568,0,0,1,2.73-.036,15.2,15.2,0,0,1,1.5,4.509c1.038-.374,3-1.108,4.1-.855l.175.048a6.527,6.527,0,0,1,2.076,1.033,8.48,8.48,0,0,0,.338-2.449c.14-1.344.365-2.663.445-4.015a72.772,72.772,0,0,1,.813-10.277c.4-2.3,1.173-4.458,1.642-6.729a36.711,36.711,0,0,0,.516-5.877c-4.857-.284-9.825-.558-14.644-1.232a96.766,96.766,0,0,1-16.132-3.785c-4.063-1.3-8.444-2.843-11.814-5.528a14.134,14.134,0,0,1-4.4-5.592,12.1,12.1,0,0,1-.463-2.589Zm105.553,9.179-.062.153a4.2,4.2,0,0,1-1.043,1.065,22.366,22.366,0,0,1-7.761,4.095l-11.556,2.89-.074.688a5.193,5.193,0,0,1-1.28-.211l-.08-.509-.089.044-.148.07c-2.374,1.165-5.671,1.3-8.267,1.547-4.706.455-9.13,1.109-13.883.961-3.915-.121-7.736-.83-11.67-.8a10.655,10.655,0,0,0-1.769-.1,36.711,36.711,0,0,1-.516,5.877c-.469,2.271-1.238,4.426-1.642,6.729a72.772,72.772,0,0,0-.813,10.277c-.08,1.352-.3,2.671-.445,4.015a8.48,8.48,0,0,1-.338,2.449,15.542,15.542,0,0,1,1.154,1.384,3.09,3.09,0,0,0,1.081,2.377c.629.524,1.431.634,2.005,1.262a3.2,3.2,0,0,1-.244,1.28,1.863,1.863,0,0,0,.762,1.292c.5.392,1.094.637,1.563,1.072-.172.676-.559.81-.46,1.464a1.016,1.016,0,0,0,.448.39c.533.3.614.3.78.87l-.27.4-1.114.08c-.311,1.273.739,1.633-.8,2.614a13.745,13.745,0,0,1-3.755,1.379c.924,3.112,2.095,6.447,5.144,8.082a1.976,1.976,0,0,0,1.63.064c.559-.2,1.319-1.016,1.773-1.1a9.828,9.828,0,0,1,2.716.373c4.656.9,9.189,2.405,13.77,3.619l10.517,2.68.717.032a4.328,4.328,0,0,0,1.156.194,1.542,1.542,0,0,0,.995-.242c2.11-1.328,3.913-3.108,5.98-4.517,2.832-1.929,6.3-3.27,8.713-5.751a7.135,7.135,0,0,0,1.7-6.669,14.618,14.618,0,0,1-.7-3.088c.367-.416.393-.548.956-.646l.2.147c.945.792,1.035,3.137,1.18,4.306l.833-2.114a2,2,0,0,0,1.3-.435,8.4,8.4,0,0,1,.02-1.671,3.828,3.828,0,0,0-1.19-.208l2.951-32.543.619-9.268a50.415,50.415,0,0,0-.362-5.889l-.088-.188Zm25.554,109.049a5.054,5.054,0,0,0-2.319-1.87l-.432.263a19.846,19.846,0,0,0-3.566,2.2c-2.968,2.209-7.344,2.6-10.939,2.763a25.67,25.67,0,0,1-4.795-.068l-1.625-.283a19.338,19.338,0,0,1-7.317,11.791,23.882,23.882,0,0,1-7.651,3.018,44.219,44.219,0,0,0-3.567,4.94l-10.56,12.972a16.389,16.389,0,0,0-1.3,1.877l-4.606,5.017a13.933,13.933,0,0,0,4.213,1.349,35.266,35.266,0,0,1,12.93,10.2,62.887,62.887,0,0,0,5.033,5.96c1.863-2.3,4.3-3.017,6.79-4.383,1.38-.757,2.694-1.647,4-2.523a47.291,47.291,0,0,0,5.364-4.506c1.427-1.282,3.019-2.456,4.341-3.844,1.067-1.12,1.97-2.448,2.919-3.668a57.512,57.512,0,0,0,10.139-18.7c.572-1.9.748-3.836,1.129-5.773,2.646-2.7,5.79-4.631,7.888-7.9a7.439,7.439,0,0,0,1.308-3.176,2.487,2.487,0,0,0-.7-2.026l-1.152-2.7a4.634,4.634,0,0,0,.765-1.2,10.846,10.846,0,0,1-3.446.451,8.692,8.692,0,0,0-2.757.037Zm-29.644-48.428c-2.595,2.573-5.064,5.283-7.826,7.682-1.377,1.2-2.883,2.2-4.318,3.32a26.154,26.154,0,0,1-3.351,2.55l-4.376-.18.205,3.345-.111.216a3.881,3.881,0,0,0-.861-.1l1.095,13.817.713.31c5.95,3.961,10.874,9.54,12.355,16.734a28.692,28.692,0,0,1-1.83,17.088,9.069,9.069,0,0,0-.7,1.462,23.882,23.882,0,0,0,7.651-3.018,19.338,19.338,0,0,0,7.317-11.791l1.625.283a25.67,25.67,0,0,0,4.795.068c3.595-.166,7.971-.554,10.939-2.763a19.846,19.846,0,0,1,3.566-2.2l.432-.263a5.054,5.054,0,0,1,2.319,1.87l.092.234a8.692,8.692,0,0,1,2.757-.037,10.846,10.846,0,0,0,3.446-.451,14.06,14.06,0,0,0,2.908-2.715,3.482,3.482,0,0,0,1.134-2.558c-.405-2.616-2.595-4.847-4.634-6.338-3.142-2.3-6.918-3.694-10.858-3.024l-.234.042c-2.23-3.32-5.083-6.784-8.589-8.822-1.688-.981-3.5-1.72-5.093-2.866l-.181-.131-1.494-2.859-8.26-19.46Zm-65.474,19.891c-5.2,4.033-10.279,9.344-16.848,11.006a28.087,28.087,0,0,1-6.989.637,68.51,68.51,0,0,1-8.537-.43l-11.149-1.4c.141,1.482.447,2.919.726,4.379a18.96,18.96,0,0,0,.687,3.1l6.2,16.917,2.184-2.4a41.353,41.353,0,0,1,4.423-3.929,37.625,37.625,0,0,1,6.926-4.834,26.991,26.991,0,0,1,4.211-1.479,72.435,72.435,0,0,1,17.619-2.6l.134.023a11.68,11.68,0,0,0,2.306.039,2.273,2.273,0,0,1,0,1.576l1.989-1.563c-.221-.159-.173-.087-.3-.316-.57-1.023.086-3.787.21-4.946a64.112,64.112,0,0,1,.94-8.151,4.445,4.445,0,0,0-1.1-1.306Zm8.918,82.35c2.389,2.76,4.92,5.608,6.533,8.911,1.656,3.391,2.323,7.266,2.888,10.967,3.658-.416,7.478-.813,11.086-1.544a92.819,92.819,0,0,0,14.166-4.218,44.527,44.527,0,0,0,8.316-3.777,62.627,62.627,0,0,0-8.241-5.118l-6.891-4.182c-3.295-1.976-6.337-3.871-8.8-6.861Zm17.083-89.648a32.19,32.19,0,0,1-1.3,6.067,22.677,22.677,0,0,0-1.479,4.334,1.853,1.853,0,0,0,.361,1.376,3.473,3.473,0,0,0,1.9,1.228l.536.154a96.755,96.755,0,0,1,9.73.96,30.572,30.572,0,0,1,10.177,3.939l-1.095-13.817a3.881,3.881,0,0,1,.861.1l.111-.216-.205-3.345-.865.108Zm-22.2,21.082c-.124,1.159-.78,3.923-.21,4.946.127.229.079.157.3.316a10.708,10.708,0,0,0,1.662-.932c1.57-1.1,4.26-3.241,4.612-5.208-.248-1.714-4.218-5.759-5.424-7.273A64.112,64.112,0,0,0,2220.835,3772.738Zm-.376-28.7c.226.43.361.476.766.722a4.221,4.221,0,0,0,1.3-1.511c.744-1.664-.5-4.474-1.108-6.109C2220.407,3738.365,2220.475,3742.409,2220.459,3744.038Zm28.81,22.935a2.542,2.542,0,0,0-1.43,1.25c-.271.5-.159.687.03,1.177a2.8,2.8,0,0,0,1.613.847,1.083,1.083,0,0,0,.75-.12,2.258,2.258,0,0,0,1.113-1.306,1.481,1.481,0,0,0-.341-1.324,1.935,1.935,0,0,0-1.288-.583Z"/>
      <path id="Path_505" data-name="Path 505" d="M2254.43,3816.98a4.093,4.093,0,0,1-1,.214l-.25-.348.522-1.045.312-.023C2254.293,3816.23,2254.54,3816.434,2254.43,3816.98Z" fill="#f0ebd5"/>
      <path id="Path_506" data-name="Path 506" d="M2223.43,3834.918l.371-1.9a8.918,8.918,0,0,1,2.055,1.383Z" fill="#f0ebd5"/>
      <path id="Path_507" data-name="Path 507" d="M2291.083,3730.522a6.183,6.183,0,0,0-.505.81c-.438-.407-1.43-.835-1.636-1.337l.468-.522.189.306c.412-.026.493-.144.813-.391-.168-.155-.261-.165-.278-.4a8.057,8.057,0,0,1,1.166-.844A2.483,2.483,0,0,1,2291.083,3730.522Z"/>
      <path id="Path_508" data-name="Path 508" d="M2231.031,3767.8a1.911,1.911,0,0,1-.487,1.345,2.512,2.512,0,0,1-1.3.739l-.688-.144a2.227,2.227,0,0,1-.992-1.194,1.945,1.945,0,0,1,.679-1.423,2.59,2.59,0,0,1,1.633-.444,1.777,1.777,0,0,1,.35.082C2230.591,3767.07,2230.974,3767.284,2231.031,3767.8Z" fill="#f0ebd5"/>
      <path id="Path_509" data-name="Path 509" d="M2230.3,3746.015a1.681,1.681,0,0,1-1.463,2.213,1.936,1.936,0,0,1-.467-.028,2.092,2.092,0,0,1-1.33-.917,1.537,1.537,0,0,1,.008-1.236,2.3,2.3,0,0,1,1.233-.935,2.793,2.793,0,0,1,.747.012A2.613,2.613,0,0,1,2230.3,3746.015Z"/>
      <path id="Path_510" data-name="Path 510" d="M2231.191,3754.233a2.657,2.657,0,0,1-.461,1.486,2.28,2.28,0,0,1-1.838.443l-.268-.05a2.523,2.523,0,0,1-.865-1.3,1.524,1.524,0,0,1,.432-1.15,2.516,2.516,0,0,1,1.857-.59l.355.04A2.068,2.068,0,0,1,2231.191,3754.233Z"/>
      <path id="Path_511" data-name="Path 511" d="M2236.732,3757.129a1.536,1.536,0,0,1-.405,1.291,1.656,1.656,0,0,1-1.33.6l-.96-.147a2.037,2.037,0,0,1-.948-1.067,1.8,1.8,0,0,1,.778-1.368,2.509,2.509,0,0,1,1.828-.419l.232.074C2236.354,3756.43,2236.637,3756.563,2236.732,3757.129Z" fill="#f0ebd5"/>
      <path id="Path_512" data-name="Path 512" d="M2236.751,3782.636a1.982,1.982,0,0,1-.625,1.5,1.72,1.72,0,0,1-1.3.55l-.5-.093a2.809,2.809,0,0,1-1.058-1.205,1.478,1.478,0,0,1,.3-1.2,2.366,2.366,0,0,1,1.556-.683,4.116,4.116,0,0,1,.754.017A2.056,2.056,0,0,1,2236.751,3782.636Z" fill="#f0ebd5"/>
      <path id="Path_513" data-name="Path 513" d="M2269.432,3776.623a1.462,1.462,0,0,1-.144,1.131,1.8,1.8,0,0,1-1.2.924,3.34,3.34,0,0,1-.842,0,2.866,2.866,0,0,1-1.181-1.121,1.725,1.725,0,0,1,.253-1.365,1.978,1.978,0,0,1,1.294-.712,3.093,3.093,0,0,1,.685.069A2.063,2.063,0,0,1,2269.432,3776.623Z" fill="#f0ebd5"/>
      <path id="Path_514" data-name="Path 514" d="M2221.291,3746.506a2.183,2.183,0,0,1-.6,1.844,1.827,1.827,0,0,1-1.445.57,2.085,2.085,0,0,1-.976-.456,3.416,3.416,0,0,1-.53-1.675l1.487-.883,1.164-.38A1.932,1.932,0,0,1,2221.291,3746.506Z"/>
      <path id="Path_515" data-name="Path 515" d="M2230.719,3778.888a1.852,1.852,0,0,1-.325,1.4,2.118,2.118,0,0,1-1.6.884l-.1.01a2.4,2.4,0,0,1-1.292-.751,2.058,2.058,0,0,1-.032-1.394,3.323,3.323,0,0,1,1.435-1.146l.625.041A3.158,3.158,0,0,1,2230.719,3778.888Z" fill="#f0ebd5"/>
      <path id="Path_516" data-name="Path 516" d="M2229.03,3760.184a1.63,1.63,0,0,1,.276,1.42,1.743,1.743,0,0,1-.979,1.118,3.081,3.081,0,0,1-.744.2,2.752,2.752,0,0,1-1.462-.925,1.733,1.733,0,0,1,.076-1.5,2.046,2.046,0,0,1,1.212-.924,1.4,1.4,0,0,1,.281-.04A1.81,1.81,0,0,1,2229.03,3760.184Z" fill="#f0ebd5"/>
      <path id="Path_517" data-name="Path 517" d="M2212.4,3811.528a1.942,1.942,0,0,1-.24,1.616,1.728,1.728,0,0,1-1.15.663,2.655,2.655,0,0,1-.766-.106,2.465,2.465,0,0,1-1.048-.919,1.672,1.672,0,0,1,.173-1.363,2.195,2.195,0,0,1,1.152-.988l.764.08A2.1,2.1,0,0,1,2212.4,3811.528Z" fill="#f0ebd5"/>
      <path id="Path_518" data-name="Path 518" d="M2224.827,3756.613a1.759,1.759,0,0,1-.332,1.4,1.958,1.958,0,0,1-1.506.566,1.378,1.378,0,0,1-.43-.09,2.312,2.312,0,0,1-1.162-.961,1.736,1.736,0,0,1,.337-1.437,2.044,2.044,0,0,1,1.363-.748,3.059,3.059,0,0,1,.7.081A2.027,2.027,0,0,1,2224.827,3756.613Z"/>
      <path id="Path_519" data-name="Path 519" d="M2270.557,3786.252a2.13,2.13,0,0,1-.564,1.733,2.506,2.506,0,0,1-1.217.509l-.558-.142a3.524,3.524,0,0,1-1.136-1.352,1.829,1.829,0,0,1,.487-1.32,1.961,1.961,0,0,1,1.559-.549,1.566,1.566,0,0,1,.434.1A2.072,2.072,0,0,1,2270.557,3786.252Z" fill="#f0ebd5"/>
      <path id="Path_520" data-name="Path 520" d="M2235.932,3763.949a2.007,2.007,0,0,1-.376,1.621,2.488,2.488,0,0,1-1.164.8l-.678-.062a1.746,1.746,0,0,1-1.148-1.058,1.326,1.326,0,0,1,.213-1.3,2.35,2.35,0,0,1,1.319-.945,2.52,2.52,0,0,1,.769.065A2.087,2.087,0,0,1,2235.932,3763.949Z" fill="#f0ebd5"/>
      <path id="Path_521" data-name="Path 521" d="M2261.07,3771.172a1.589,1.589,0,0,1,.183,1.334,1.605,1.605,0,0,1-1.019.984,2.257,2.257,0,0,1-.918.125,2.681,2.681,0,0,1-1.418-.874,2.166,2.166,0,0,1-.037-1.434,2.643,2.643,0,0,1,1.947-.889A1.8,1.8,0,0,1,2261.07,3771.172Z" fill="#f0ebd5"/>
      <path id="Path_522" data-name="Path 522" d="M2242.74,3768.243a1.494,1.494,0,0,1-.081,1.3,1.925,1.925,0,0,1-1.244.932,3.509,3.509,0,0,1-.671.045c-.606-.192-1.089-.294-1.4-.918a1.468,1.468,0,0,1-.071-1.078,2.556,2.556,0,0,1,1.162-1.176,3.474,3.474,0,0,1,.821-.007A3.123,3.123,0,0,1,2242.74,3768.243Z" fill="#f0ebd5"/>
      <path id="Path_523" data-name="Path 523" d="M2215.741,3788.666a1.243,1.243,0,0,1,.17,1.13,2.751,2.751,0,0,1-.7.962,2.84,2.84,0,0,1-.993.254,2.168,2.168,0,0,1-1.5-.548,2.1,2.1,0,0,1-.125-1.7,1.651,1.651,0,0,1,.911-.9,1.96,1.96,0,0,1,.805-.125A2.173,2.173,0,0,1,2215.741,3788.666Z" fill="#f0ebd5"/>
      <path id="Path_524" data-name="Path 524" d="M2207.406,3806.236a2.015,2.015,0,0,1-.368,1.58,1.545,1.545,0,0,1-1.031.63,2.969,2.969,0,0,1-1.015-.074,2.117,2.117,0,0,1-.988-1.056,2.143,2.143,0,0,1,.362-1.636,2.367,2.367,0,0,1,2.1-.388A2.023,2.023,0,0,1,2207.406,3806.236Z" fill="#f0ebd5"/>
      <path id="Path_525" data-name="Path 525" d="M2219.156,3804.574a1.632,1.632,0,0,1-.18,1.483,1.515,1.515,0,0,1-1.125.773,2.563,2.563,0,0,1-.787-.089,2.091,2.091,0,0,1-1.186-1.012,1.186,1.186,0,0,1-.014-1.131,2.4,2.4,0,0,1,1.246-1.142l.794.027A2.4,2.4,0,0,1,2219.156,3804.574Z" fill="#f0ebd5"/>
      <path id="Path_526" data-name="Path 526" d="M2205.419,3816.41a2.178,2.178,0,0,1-.215,1.757,1.941,1.941,0,0,1-1.072.809l-.593-.064a2.486,2.486,0,0,1-1.182-.79,2.256,2.256,0,0,1-.036-1.81,1.843,1.843,0,0,1,1.166-.755,1.721,1.721,0,0,1,.685,0A2.447,2.447,0,0,1,2205.419,3816.41Z" fill="#f0ebd5"/>
      <path id="Path_527" data-name="Path 527" d="M2220.079,3753.83c.046.669.125,1.03-.354,1.565a1.848,1.848,0,0,1-1.439.677l-.6-.055a3.174,3.174,0,0,1-1.149-1.014,1.581,1.581,0,0,1,.222-1.356,2.232,2.232,0,0,1,1.445-.795,2.825,2.825,0,0,1,.722.048A2.168,2.168,0,0,1,2220.079,3753.83Z"/>
      <path id="Path_528" data-name="Path 528" d="M2229.624,3786.332a1.968,1.968,0,0,1-.444,1.41,1.911,1.911,0,0,1-1.325.779,2.733,2.733,0,0,1-.681-.115,2.194,2.194,0,0,1-1.08-1,1.665,1.665,0,0,1,.2-1.344,2.226,2.226,0,0,1,1.585-.872,2.8,2.8,0,0,1,.7.039A1.958,1.958,0,0,1,2229.624,3786.332Z" fill="#f0ebd5"/>
      <path id="Path_529" data-name="Path 529" d="M2225.918,3749.971a1.6,1.6,0,0,1-.156,1.339,3.207,3.207,0,0,1-1.437,1.12l-.508-.044c-.49-.171-.974-.311-1.207-.816a2.475,2.475,0,0,1-.1-1.446,1.765,1.765,0,0,1,1.166-.954,2.8,2.8,0,0,1,1.087-.045A1.957,1.957,0,0,1,2225.918,3749.971Z"/>
      <path id="Path_530" data-name="Path 530" d="M2239.979,3776.524a1.384,1.384,0,0,1,.237,1.267,2.53,2.53,0,0,1-1.229,1.281,1.171,1.171,0,0,1-.757.093,2.167,2.167,0,0,1-1.448-1,1.342,1.342,0,0,1,.072-1.205,2.276,2.276,0,0,1,1.064-1.088,2.522,2.522,0,0,1,.669-.1A2.168,2.168,0,0,1,2239.979,3776.524Z" fill="#f0ebd5"/>
      <path id="Path_531" data-name="Path 531" d="M2257.072,3777.849a1.407,1.407,0,0,1,0,1.263,1.872,1.872,0,0,1-1.264,1.039,3.43,3.43,0,0,1-.752.054c-.464-.179-1.077-.363-1.277-.868a1.644,1.644,0,0,1,.019-1.428,2.284,2.284,0,0,1,1.2-1.006l.829.023A2.041,2.041,0,0,1,2257.072,3777.849Z" fill="#f0ebd5"/>
      <path id="Path_532" data-name="Path 532" d="M2221.652,3782.68a1.732,1.732,0,0,1,.076,1.341,1.708,1.708,0,0,1-1.022.988,2.887,2.887,0,0,1-1.163.175,1.867,1.867,0,0,1-1.184-1.012,1.765,1.765,0,0,1,.147-1.434,1.637,1.637,0,0,1,.976-.781,2.2,2.2,0,0,1,1.1-.044A1.588,1.588,0,0,1,2221.652,3782.68Z" fill="#f0ebd5"/>
      <path id="Path_533" data-name="Path 533" d="M2251,3767.5a1.481,1.481,0,0,1,.341,1.324,2.258,2.258,0,0,1-1.113,1.306,1.083,1.083,0,0,1-.75.12,2.8,2.8,0,0,1-1.613-.847c-.189-.49-.3-.675-.03-1.177a2.542,2.542,0,0,1,1.43-1.25l.447-.059A1.935,1.935,0,0,1,2251,3767.5Z" fill="#f0ebd5"/>
      <path id="Path_534" data-name="Path 534" d="M2246.014,3775.254a1.8,1.8,0,0,1-.065,1.7,2.634,2.634,0,0,1-1.154.928l-.506.023a2.868,2.868,0,0,1-1.4-.766,1.819,1.819,0,0,1-.1-1.5,2.175,2.175,0,0,1,1.185-1.054,2.782,2.782,0,0,1,.722-.078A2.239,2.239,0,0,1,2246.014,3775.254Z" fill="#f0ebd5"/>
      <path id="Path_535" data-name="Path 535" d="M2209.236,3798.2a1.993,1.993,0,0,1-.08,1.628,1.957,1.957,0,0,1-1.079.886,2.638,2.638,0,0,1-.753.065,2.834,2.834,0,0,1-1.33-.837,1.66,1.66,0,0,1-.04-1.41,1.967,1.967,0,0,1,1.138-1.074,2.509,2.509,0,0,1,.662-.089A2.382,2.382,0,0,1,2209.236,3798.2Z" fill="#f0ebd5"/>
      <path id="Path_536" data-name="Path 536" d="M2236.513,3749.062a1.492,1.492,0,0,1-.16,1.19,1.99,1.99,0,0,1-1.255.909,1.958,1.958,0,0,1-.926-.007,2.3,2.3,0,0,1-1.146-.922,2.067,2.067,0,0,1,.042-1.434,2.511,2.511,0,0,1,1.753-.814,2.042,2.042,0,0,1,.651.057C2236,3748.332,2236.273,3748.468,2236.513,3749.062Z"/>
      <path id="Path_537" data-name="Path 537" d="M2230.359,3797.225a1.761,1.761,0,0,1,.163,1.491,2.073,2.073,0,0,1-1.121,1.084,1.9,1.9,0,0,1-.749.124,2.083,2.083,0,0,1-1.292-.806,1.426,1.426,0,0,1-.206-1.346,1.918,1.918,0,0,1,1.016-1.127,2.264,2.264,0,0,1,.816-.166A2.573,2.573,0,0,1,2230.359,3797.225Z" fill="#f0ebd5"/>
      <path id="Path_538" data-name="Path 538" d="M2262.287,3811.159a2.02,2.02,0,0,1-.065,1.569,1.952,1.952,0,0,1-1.131.768,2.263,2.263,0,0,1-.962,0,2.123,2.123,0,0,1-1.179-1.012,1.693,1.693,0,0,1,.163-1.443,1.967,1.967,0,0,1,1.325-.864,2.085,2.085,0,0,1,.624.055A2.739,2.739,0,0,1,2262.287,3811.159Z" fill="#f0ebd5"/>
      <path id="Path_539" data-name="Path 539" d="M2229.89,3809.8a1.668,1.668,0,0,1-.267,1.461,2.116,2.116,0,0,1-1.384.839,2.243,2.243,0,0,1-.594-.077,1.787,1.787,0,0,1-1.25-.965,1.334,1.334,0,0,1-.017-1.1,2.558,2.558,0,0,1,1.211-1.14,3.175,3.175,0,0,1,1.086-.031A2.194,2.194,0,0,1,2229.89,3809.8Z" fill="#f0ebd5"/>
      <path id="Path_540" data-name="Path 540" d="M2233.051,3772.455a1.9,1.9,0,0,1-.317,1.537,2.052,2.052,0,0,1-1.665.8l-.469-.024c-.561-.419-.869-.562-1.145-1.217a2.209,2.209,0,0,1,.88-1.7,2.156,2.156,0,0,1,1.439-.536l.162.041A3.344,3.344,0,0,1,2233.051,3772.455Z" fill="#f0ebd5"/>
      <path id="Path_541" data-name="Path 541" d="M2242.2,3752.033a2.155,2.155,0,0,1-.247,1.82,1.576,1.576,0,0,1-1.114.652,2.183,2.183,0,0,1-.882-.048c-.415-.213-.981-.453-1.155-.925a1.494,1.494,0,0,1,.043-1.349,2.134,2.134,0,0,1,1.391-.974,3.03,3.03,0,0,1,.748-.018A2.1,2.1,0,0,1,2242.2,3752.033Z"/>
      <path id="Path_542" data-name="Path 542" d="M2234.448,3818.152a1.708,1.708,0,0,1-.212,1.383,2.378,2.378,0,0,1-1.034.934l-.844.015c-.427-.208-1.082-.444-1.263-.917a2.259,2.259,0,0,1-.13-1.338,2.81,2.81,0,0,1,1.682-1.235,1.48,1.48,0,0,1,.617.064A2.04,2.04,0,0,1,2234.448,3818.152Z" fill="#f0ebd5"/>
      <path id="Path_543" data-name="Path 543" d="M2221.428,3797.007a1.881,1.881,0,0,1-.047,1.434,1.773,1.773,0,0,1-1.188.922l-.838.072c-.485-.259-1.131-.546-1.339-1.095a1.571,1.571,0,0,1,.073-1.437,2.092,2.092,0,0,1,1.2-.846,2.7,2.7,0,0,1,.671.043A2.565,2.565,0,0,1,2221.428,3797.007Z" fill="#f0ebd5"/>
      <path id="Path_544" data-name="Path 544" d="M2244.4,3822.09a1.956,1.956,0,0,1-.443,1.719,2.353,2.353,0,0,1-1.554.552l-.115-.019a2.112,2.112,0,0,1-1.337-1.117,1.555,1.555,0,0,1,.029-1.317,2.1,2.1,0,0,1,1.178-1.045,1.684,1.684,0,0,1,.906.058A2.709,2.709,0,0,1,2244.4,3822.09Z" fill="#f0ebd5"/>
      <path id="Path_545" data-name="Path 545" d="M2268.025,3804.434a1.537,1.537,0,0,1-.2,1.183,2.353,2.353,0,0,1-1.161.936l-1.016-.037c-.524-.35-1.023-.561-1.18-1.234a1.621,1.621,0,0,1,.263-1.429,1.992,1.992,0,0,1,1.527-.711,3.221,3.221,0,0,1,.748.111C2267.565,3803.606,2267.848,3803.76,2268.025,3804.434Z" fill="#f0ebd5"/>
      <path id="Path_546" data-name="Path 546" d="M2220.925,3824.317a1.5,1.5,0,0,1-.039,1.282,2.388,2.388,0,0,1-1.193,1.181,1.236,1.236,0,0,1-.674.029c-.562-.23-1.092-.393-1.334-1a2.064,2.064,0,0,1-.029-1.513,2,2,0,0,1,1.082-1,1.606,1.606,0,0,1,.858-.058A2,2,0,0,1,2220.925,3824.317Z" fill="#f0ebd5"/>
      <path id="Path_547" data-name="Path 547" d="M2213.235,3821.27a1.923,1.923,0,0,1-.331,1.588,1.672,1.672,0,0,1-1.214.649l-.83-.17a2.579,2.579,0,0,1-1.084-1.1,1.676,1.676,0,0,1,.254-1.412,1.993,1.993,0,0,1,1.244-.86,3.477,3.477,0,0,1,.935.081C2212.725,3820.4,2213.129,3820.593,2213.235,3821.27Z" fill="#f0ebd5"/>
      <path id="Path_548" data-name="Path 548" d="M2250.737,3824.762a1.87,1.87,0,0,1,.031,1.5,1.94,1.94,0,0,1-1.231.966,1.615,1.615,0,0,1-.793-.031,2.521,2.521,0,0,1-1.353-.854,2,2,0,0,1,.124-1.661,1.9,1.9,0,0,1,1.08-.821,2.565,2.565,0,0,1,.778-.014A2.421,2.421,0,0,1,2250.737,3824.762Z" fill="#f0ebd5"/>
      <path id="Path_549" data-name="Path 549" d="M2243.5,3811.04a1.665,1.665,0,0,1-.207,1.4,2.637,2.637,0,0,1-1.4.956l-.738-.085c-.578-.336-1.063-.6-1.229-1.288a1.709,1.709,0,0,1,.253-1.341,1.345,1.345,0,0,1,.888-.669,3.473,3.473,0,0,1,1.2.021A2.345,2.345,0,0,1,2243.5,3811.04Z" fill="#f0ebd5"/>
      <path id="Path_550" data-name="Path 550" d="M2262.091,3785.58a1.531,1.531,0,0,1,.033,1.4,2.17,2.17,0,0,1-1.231,1.055,2.783,2.783,0,0,1-.732.078,2.147,2.147,0,0,1-1.325-.793,1.543,1.543,0,0,1-.246-1.329,3.583,3.583,0,0,1,1.33-1.325l.662.007A2.958,2.958,0,0,1,2262.091,3785.58Z" fill="#f0ebd5"/>
      <path id="Path_551" data-name="Path 551" d="M2240.467,3826.832a1.862,1.862,0,0,1-.048,1.679,2.055,2.055,0,0,1-1.372.983,3.243,3.243,0,0,1-.918.036,2.045,2.045,0,0,1-1.059-1.209,1.539,1.539,0,0,1,.166-1.183,2.26,2.26,0,0,1,1.233-1.014,2.917,2.917,0,0,1,.923-.065A1.884,1.884,0,0,1,2240.467,3826.832Z" fill="#f0ebd5"/>
      <path id="Path_552" data-name="Path 552" d="M2238.542,3792.277a1.226,1.226,0,0,1,.036,1.007,1.926,1.926,0,0,1-1.138,1.121,3.1,3.1,0,0,1-1.077.189,3.062,3.062,0,0,1-1.282-.816,1.809,1.809,0,0,1,.086-1.7,2.124,2.124,0,0,1,1.043-.875c.3,0,.636-.032.938,0A2.225,2.225,0,0,1,2238.542,3792.277Z" fill="#f0ebd5"/>
      <path id="Path_553" data-name="Path 553" d="M2230.018,3828.229a1.768,1.768,0,0,1-.095,1.663,2.036,2.036,0,0,1-1.553.964l-.416.068a2.711,2.711,0,0,1-1.461-1.229,1.6,1.6,0,0,1,.14-1.327,2,2,0,0,1,1.269-.894,2.383,2.383,0,0,1,.739.01A2.591,2.591,0,0,1,2230.018,3828.229Z" fill="#f0ebd5"/>
      <path id="Path_554" data-name="Path 554" d="M2246.536,3783.523a1.86,1.86,0,0,1-.236,1.44,2.132,2.132,0,0,1-1.367.924,3,3,0,0,1-.79-.064,1.585,1.585,0,0,1-1.12-.763,1.54,1.54,0,0,1-.084-1.341,2.344,2.344,0,0,1,1.089-1.143,4.959,4.959,0,0,1,1.427-.043A2.313,2.313,0,0,1,2246.536,3783.523Z" fill="#f0ebd5"/>
      <path id="Path_555" data-name="Path 555" d="M2235.355,3803.706a1.938,1.938,0,0,1-.012,1.506,2,2,0,0,1-1.2,1.014,2.293,2.293,0,0,1-1.009.019,2.386,2.386,0,0,1-1.316-1.292,1.315,1.315,0,0,1,.1-1.079,2.225,2.225,0,0,1,1.374-1.019,1.985,1.985,0,0,1,2.063.851Z" fill="#f0ebd5"/>
      <path id="Path_556" data-name="Path 556" d="M2267.321,3794.723a1.555,1.555,0,0,1-.134,1.446,1.929,1.929,0,0,1-1.008.961,3.429,3.429,0,0,1-.833.127,2.172,2.172,0,0,1-1.447-1.059,1.794,1.794,0,0,1,1.127-2.473,2.236,2.236,0,0,1,2.3,1Z" fill="#f0ebd5"/>
      <path id="Path_557" data-name="Path 557" d="M2221.319,3815.852a1.614,1.614,0,0,1,0,1.273,1.887,1.887,0,0,1-.994,1.01,1.755,1.755,0,0,1-2.453-1.04,1.582,1.582,0,0,1,.018-1.39,2.083,2.083,0,0,1,1.11-.91h.869A2.341,2.341,0,0,1,2221.319,3815.852Z" fill="#f0ebd5"/>
      <path id="Path_558" data-name="Path 558" d="M2250.633,3817.361a1.743,1.743,0,0,1-.042,1.518,2.124,2.124,0,0,1-1.093,1.024l-.749.134a2.382,2.382,0,0,1-1.62-1.122,2.1,2.1,0,0,1-.077-1.044,2.316,2.316,0,0,1,1.429-1.312,1.464,1.464,0,0,1,.63-.1A3.222,3.222,0,0,1,2250.633,3817.361Z" fill="#f0ebd5"/>
      <path id="Path_559" data-name="Path 559" d="M2254.156,3807.434a2,2,0,0,1-.166,1.7,2.057,2.057,0,0,1-1.141.891,2.886,2.886,0,0,1-.753.063,2.124,2.124,0,0,1-1.433-1.051,1.334,1.334,0,0,1-.031-1.048,2.816,2.816,0,0,1,1.4-1.514,1.314,1.314,0,0,1,.647-.035A2.756,2.756,0,0,1,2254.156,3807.434Z" fill="#f0ebd5"/>
      <path id="Path_560" data-name="Path 560" d="M2258.662,3819.7a1.969,1.969,0,0,1-.081,1.587,1.493,1.493,0,0,1-.84.905,1.639,1.639,0,0,1-.918.119,2.543,2.543,0,0,1-1.443-.662,2.457,2.457,0,0,1-.294-1.4,2.1,2.1,0,0,1,1-1.267,3.028,3.028,0,0,1,1.149-.23A2.714,2.714,0,0,1,2258.662,3819.7Z" fill="#f0ebd5"/>
      <path id="Path_561" data-name="Path 561" d="M2255.817,3789.3a2.183,2.183,0,0,1,.178,1.484,1.7,1.7,0,0,1-.962,1.071,1.9,1.9,0,0,1-1.337.153,1.924,1.924,0,0,1-1.307-1.092,2.113,2.113,0,0,1-.033-1.29,1.784,1.784,0,0,1,1.235-.938,2.366,2.366,0,0,1,1.18-.073A1.524,1.524,0,0,1,2255.817,3789.3Z" fill="#f0ebd5"/>
      <path id="Path_562" data-name="Path 562" d="M2248.341,3791.508a1.909,1.909,0,0,1,.286,1.411,1.849,1.849,0,0,1-.853,1.1,2.4,2.4,0,0,1-1.5.263,2.254,2.254,0,0,1-1.236-1.123,2.062,2.062,0,0,1,.023-1.38,2.171,2.171,0,0,1,1.567-1.082,2,2,0,0,1,.49-.028A1.79,1.79,0,0,1,2248.341,3791.508Z" fill="#f0ebd5"/>
      <path id="Path_563" data-name="Path 563" d="M2258.056,3797.523a1.724,1.724,0,0,1-.074,1.478,2.043,2.043,0,0,1-1.285,1.011,3.038,3.038,0,0,1-.761-.047,2.18,2.18,0,0,1-1.347-.98,1.852,1.852,0,0,1,.978-2.579,1.992,1.992,0,0,1,1.214-.016C2257.354,3796.673,2257.843,3796.869,2258.056,3797.523Z" fill="#f0ebd5"/>
      <path id="Path_564" data-name="Path 564" d="M2246.627,3801.056a2.786,2.786,0,0,1-.908,1.962,3.305,3.305,0,0,1-.9.511,3.139,3.139,0,0,1-.865-.182,2.118,2.118,0,0,1-1.145-1.367,1.865,1.865,0,0,1,.435-1.517,1.465,1.465,0,0,1,1.121-.639,3.564,3.564,0,0,1,1.323.035A2.386,2.386,0,0,1,2246.627,3801.056Z" fill="#f0ebd5"/>
      <path id="Path_565" data-name="Path 565" d="M2225.955,3841.3a11.711,11.711,0,0,1-2.754-4.149,2.858,2.858,0,0,1,.229-2.237l2.426-.516a18.619,18.619,0,0,1,3.6-.541c2.146.011,4.253.677,6.416.7a56.017,56.017,0,0,0,8.041-1l1.091,1.922Z"/>
      <path id="Path_566" data-name="Path 566" d="M2262.845,3755.78l-.111.216a3.881,3.881,0,0,0-.861-.1,12.99,12.99,0,0,0-.1-3.354l.865-.108Z"/>
      <path id="Path_567" data-name="Path 567" d="M2262.968,3769.714a30.572,30.572,0,0,0-10.177-3.939,96.755,96.755,0,0,0-9.73-.96,28.053,28.053,0,0,1,5.072-3.773c4.167-2.6,8.767-4.766,13.74-5.145Z" fill="#fab017"/>
      <path id="Path_568" data-name="Path 568" d="M2253.812,3842.343l6.891,4.182a62.627,62.627,0,0,1,8.241,5.118,44.527,44.527,0,0,1-8.316,3.777,92.819,92.819,0,0,1-14.166,4.218c-3.608.731-7.428,1.128-11.086,1.544-.565-3.7-1.232-7.576-2.888-10.967-1.613-3.3-4.144-6.151-6.533-8.911l19.052-5.822C2247.475,3838.472,2250.517,3840.367,2253.812,3842.343Zm8.18,8.175a1.86,1.86,0,0,0-.433,1.354l.381.312a1.6,1.6,0,0,0,.418-.043c.558-.167.646-.339.934-.811a1.115,1.115,0,0,0-.472-.978A1.391,1.391,0,0,0,2261.992,3850.518Zm-5.8-3.52c-.38.361-.32.4-.342.9.261.519.269.543.8.781l.494-.159a1.525,1.525,0,0,0,.493-1c-.274-.458-.307-.445-.819-.617Z" fill="#fab017"/>
      <path id="Path_569" data-name="Path 569" d="M2236.563,3849.241c-.377.255-.38.21-.8.139-.193-.377-.271-.407-.158-.831a.982.982,0,0,1,.909-.232C2236.709,3848.77,2236.748,3848.747,2236.563,3849.241Z" fill="#f0ebd5"/>
      <path id="Path_570" data-name="Path 570" d="M2220.835,3772.738c-.124,1.159-.78,3.923-.21,4.946.127.229.079.157.3.316l-1.989,1.563a2.273,2.273,0,0,0,0-1.576,11.68,11.68,0,0,1-2.306-.039l-.134-.023,2.556-.228,1.625-14.416a4.445,4.445,0,0,1,1.1,1.306A64.112,64.112,0,0,0,2220.835,3772.738Z"/>
      <path id="Path_571" data-name="Path 571" d="M2291.409,3757.966l1.494,2.859.181.131c1.6,1.146,3.405,1.885,5.093,2.866,3.506,2.038,6.359,5.5,8.589,8.822l.234-.042c3.94-.67,7.716.727,10.858,3.024,2.039,1.491,4.229,3.722,4.634,6.338a3.482,3.482,0,0,1-1.134,2.558,14.06,14.06,0,0,1-2.908,2.715,10.846,10.846,0,0,1-3.446.451,8.692,8.692,0,0,0-2.757.037l-.092-.234a5.054,5.054,0,0,0-2.319-1.87l-.432.263a19.846,19.846,0,0,0-3.566,2.2c-2.968,2.209-7.344,2.6-10.939,2.763a25.67,25.67,0,0,1-4.795-.068l-1.625-.283a19.338,19.338,0,0,1-7.317,11.791,23.882,23.882,0,0,1-7.651,3.018,9.069,9.069,0,0,1,.7-1.462,28.692,28.692,0,0,0,1.83-17.088c-1.481-7.194-6.4-12.773-12.355-16.734l-.713-.31-1.095-13.817a3.881,3.881,0,0,1,.861.1l.111-.216-.205-3.345,4.376.18a26.154,26.154,0,0,0,3.351-2.55c1.435-1.119,2.941-2.124,4.318-3.32,2.762-2.4,5.231-5.109,7.826-7.682l.638-.557Zm-8.9-18.9c-2.595,2.573-5.064,5.283-7.826,7.682-1.377,1.2-2.883,2.2-4.318,3.32a26.154,26.154,0,0,1-3.351,2.55l-4.376-.18.205,3.345a15.238,15.238,0,0,1,3.447-.4,55.625,55.625,0,0,1,19.393,2.491,22.749,22.749,0,0,1,4.524,1.664,2.054,2.054,0,0,1,.512.437,3.152,3.152,0,0,1,.069,1.038,1.289,1.289,0,0,0,.771.659l.435-.165c.307-.152.376-.1.717-.027l.19-.657-1.494-2.859-8.26-19.46Zm10.528,36.409a1.871,1.871,0,0,0-.865.82c.027.562.182.657.521,1.09l.57.069a1.727,1.727,0,0,0,.743-.918,1.664,1.664,0,0,0-.688-1.046Zm18.123-.946-.224.252a2.146,2.146,0,0,0,.248,1.481l.529.13a1.473,1.473,0,0,0,.906-.4l-.026-.588a1.857,1.857,0,0,0-.981-.857Zm-42.774-15.556c-.343.157-.41.3-.589.62a1.6,1.6,0,0,0,.385.983l.284-.039a1.326,1.326,0,0,0,.666-.953l-.384-.563Zm19.57,17.745a1.082,1.082,0,0,0-.441.945l.4.342a1.086,1.086,0,0,0,.93-.52l-.127-.5-.544-.3Zm-11.991-13.05c-.037.572.032.567.408,1.012l.426.045a1.1,1.1,0,0,0,.415-.823l-.278-.4A1.176,1.176,0,0,0,2275.967,3763.665Z" fill="#fab017"/>
      <path id="Path_572" data-name="Path 572" d="M2316.23,3780.369c-.132.41-.13.439-.477.688l-.4-.038c-.336-.372-.431-.373-.42-.894.455-.27.527-.216,1.034-.159Z"/>
      <path id="Path_573" data-name="Path 573" d="M2277.216,3763.9a1.1,1.1,0,0,1-.415.823l-.426-.045c-.376-.445-.445-.44-.408-1.012a1.176,1.176,0,0,1,.971-.168Z" fill="#f0ebd5"/>
      <path id="Path_574" data-name="Path 574" d="M2288.718,3776.986l.127.5a1.086,1.086,0,0,1-.93.52l-.4-.342a1.082,1.082,0,0,1,.441-.945l.216-.027Z"/>
      <path id="Path_575" data-name="Path 575" d="M2280.257,3776.567l.043.4a1.226,1.226,0,0,1-.851.387l-.55-.146c-.043-.521.037-.571.3-1l.388-.094Z"/>
      <path id="Path_576" data-name="Path 576" d="M2276.047,3774.911l.043.538-.346.4-.441.011a1.717,1.717,0,0,1-.663-.923c.139-.253.079-.265.377-.355a1.116,1.116,0,0,1,.554-.047Z"/>
      <path id="Path_577" data-name="Path 577" d="M2294.008,3776.533a1.727,1.727,0,0,1-.743.918l-.57-.069c-.339-.433-.494-.528-.521-1.09a1.871,1.871,0,0,1,.865-.82l.281.015A1.664,1.664,0,0,1,2294.008,3776.533Z"/>
      <path id="Path_578" data-name="Path 578" d="M2262.734,3756l.947,14.028-.713-.31-1.095-13.817A3.881,3.881,0,0,1,2262.734,3756Z" fill="#6b9c5b"/>
      <path id="Path_579" data-name="Path 579" d="M2295.983,3766.682c1.952,3.733,3.424,7.669,5.107,11.522l1.834,4.008a6.431,6.431,0,0,1,.873,2.729l-.23.164c-1.485-1.023-2.179-3.653-2.925-5.25L2295.17,3768a44,44,0,0,0-3.174-6.492c.307-.152.376-.1.717-.027A45.351,45.351,0,0,1,2295.983,3766.682Z"/>
      <path id="Path_580" data-name="Path 580" d="M2294.9,3790.85a25.67,25.67,0,0,1-4.795-.068l-1.625-.283a19.338,19.338,0,0,1-7.317,11.791,23.882,23.882,0,0,1-7.651,3.018,9.069,9.069,0,0,1,.7-1.462l.447.085a22.153,22.153,0,0,1,4.093-1.766,27.649,27.649,0,0,0,5.569-3.556c2.482-1.973,3.4-6.887,3.769-9.894a16.268,16.268,0,0,0,6.628.831c.954-.12,1.839-.345,2.813-.4a13.7,13.7,0,0,0,2.433.068c1.878-.4,3.974-1.176,5.88-1.125C2302.87,3790.3,2298.494,3790.684,2294.9,3790.85Z" fill="#f0ebd5"/>
      <path id="Path_581" data-name="Path 581" d="M2291.409,3757.966l1.494,2.859-.19.657c-.341-.069-.41-.125-.717.027l-.435.165a9.077,9.077,0,0,0-.77-2.917c-1.517-3.912-3.61-7.691-5.329-11.53a64.706,64.706,0,0,1-2.951-8.164l.638-.557Z"/>
      <path id="Path_582" data-name="Path 582" d="M2315,3787.688a10.846,10.846,0,0,0,3.446-.451,4.634,4.634,0,0,1-.765,1.2l1.152,2.7a2.487,2.487,0,0,1,.7,2.026,7.439,7.439,0,0,1-1.308,3.176c-2.1,3.264-5.242,5.2-7.888,7.9-.381,1.937-.557,3.874-1.129,5.773a57.512,57.512,0,0,1-10.139,18.7c-.949,1.22-1.852,2.548-2.919,3.668-1.322,1.388-2.914,2.562-4.341,3.844a47.291,47.291,0,0,1-5.364,4.506c-1.307.876-2.621,1.766-4,2.523-2.488,1.366-4.927,2.08-6.79,4.383a62.887,62.887,0,0,1-5.033-5.96,35.266,35.266,0,0,0-12.93-10.2,13.933,13.933,0,0,1-4.213-1.349l4.606-5.017a16.389,16.389,0,0,1,1.3-1.877l10.56-12.972a44.219,44.219,0,0,1,3.567-4.94,23.882,23.882,0,0,0,7.651-3.018,19.338,19.338,0,0,0,7.317-11.791l1.625.283a25.67,25.67,0,0,0,4.795.068c3.595-.166,7.971-.554,10.939-2.763a19.846,19.846,0,0,1,3.566-2.2l.432-.263a5.054,5.054,0,0,1,2.319,1.87l.092.234A8.692,8.692,0,0,1,2315,3787.688Zm-8.46,19.048-6.176,4.358-15.888,9.365a132.064,132.064,0,0,1-16.649,7.558c-3.308,1.2-6.947,1.97-10.136,3.446a35.266,35.266,0,0,1,12.93,10.2,62.887,62.887,0,0,0,5.033,5.96c1.863-2.3,4.3-3.017,6.79-4.383,1.38-.757,2.694-1.647,4-2.523a47.291,47.291,0,0,0,5.364-4.506c1.427-1.282,3.019-2.456,4.341-3.844,1.067-1.12,1.97-2.448,2.919-3.668a57.512,57.512,0,0,0,10.139-18.7c.572-1.9.748-3.836,1.129-5.773A17.787,17.787,0,0,0,2306.544,3806.736Z"/>
      <path id="Path_583" data-name="Path 583" d="M2317.685,3788.433l1.152,2.7c-.543-.006-1.393-.616-1.978-.766-1.536-.394-3.09-.482-4.633-.808l.021-1.831a8.692,8.692,0,0,1,2.757-.037,10.846,10.846,0,0,0,3.446-.451A4.634,4.634,0,0,1,2317.685,3788.433Z"/>
      <path id="Path_584" data-name="Path 584" d="M2304.676,3799.863a43.548,43.548,0,0,1-12.243,8.41,2.348,2.348,0,0,1-.536-1.422,54.93,54.93,0,0,0,14.821-10.789A26.262,26.262,0,0,0,2310,3792.2a12.332,12.332,0,0,1,1.641-2.413,3.283,3.283,0,0,1,.586-.227C2312.153,3793.2,2307.123,3797.518,2304.676,3799.863Z" fill="#f0ebd5"/>
      <path id="Path_585" data-name="Path 585" d="M2292.433,3808.273l-15.685,8.447c-5.933,3.182-12.02,6.879-18.66,8.377a16.389,16.389,0,0,1,1.3-1.877l.111.072c.707.325,2.183-.353,2.864-.63,3.329-1.351,6.531-3.222,9.722-4.882l10.878-5.689c3.066-1.751,5.646-3.834,8.938-5.24A2.348,2.348,0,0,0,2292.433,3808.273Z" fill="#f0ebd5"/>
      <path id="Path_586" data-name="Path 586" d="M2312.226,3789.556a3.283,3.283,0,0,0-.586.227A12.332,12.332,0,0,0,2310,3792.2a26.262,26.262,0,0,1-3.281,3.866,54.93,54.93,0,0,1-14.821,10.789c-3.292,1.406-5.872,3.489-8.938,5.24l-10.878,5.689c-3.191,1.66-6.393,3.531-9.722,4.882-.681.277-2.157.955-2.864.63l-.111-.072,10.56-12.972,1.71-.22c1.875-.357,3.694-.915,5.54-1.393a72.741,72.741,0,0,0,16.713-6.277l0-.016,8.875-7.422,5.9-6.932.544-1.015c.254-.5.358-.542.179-1.089l.432-.263a5.054,5.054,0,0,1,2.319,1.87l.092.234Z" fill="#f0ebd5"/>
      <path id="Path_587" data-name="Path 587" d="M2303.753,3795.247a22.56,22.56,0,0,1-2.248,2.258,5.966,5.966,0,0,1,1.451-2.115l-.178-.47,5.9-6.932C2307.874,3790.677,2305.65,3793.239,2303.753,3795.247Z" fill="#f0ebd5"/>
      <path id="Path_588" data-name="Path 588" d="M2302.956,3795.39a5.966,5.966,0,0,0-1.451,2.115,42.683,42.683,0,0,1-7.669,5.53,2.2,2.2,0,0,0,.071-.677l0-.016,8.875-7.422Z" fill="#f0ebd5"/>
      <path id="Path_589" data-name="Path 589" d="M2293.836,3803.035c-6.362,3.246-12.83,6.28-20.041,7-.7.07-1.427-.05-2.141-.006,1.875-.357,3.694-.915,5.54-1.393a72.741,72.741,0,0,0,16.713-6.277A2.2,2.2,0,0,1,2293.836,3803.035Z" fill="#f0ebd5"/>
      <path id="Path_590" data-name="Path 590" d="M2309.225,3786.973l-.544,1.015-5.9,6.932-8.875,7.422,0,.016a72.741,72.741,0,0,1-16.713,6.277c-1.846.478-3.665,1.036-5.54,1.393l-1.71.22a44.219,44.219,0,0,1,3.567-4.94,23.882,23.882,0,0,0,7.651-3.018,19.338,19.338,0,0,0,7.317-11.791l1.625.283a25.67,25.67,0,0,0,4.795.068c3.595-.166,7.971-.554,10.939-2.763a19.846,19.846,0,0,1,3.566-2.2C2309.583,3786.431,2309.479,3786.47,2309.225,3786.973Z"/>
      <path id="Path_591" data-name="Path 591" d="M2309.212,3810a57.512,57.512,0,0,1-10.139,18.7c-.949,1.22-1.852,2.548-2.919,3.668-1.322,1.388-2.914,2.562-4.341,3.844a47.291,47.291,0,0,1-5.364,4.506c-1.307.876-2.621,1.766-4,2.523-2.488,1.366-4.927,2.08-6.79,4.383a62.887,62.887,0,0,1-5.033-5.96,35.266,35.266,0,0,0-12.93-10.2c3.189-1.476,6.828-2.244,10.136-3.446a132.064,132.064,0,0,0,16.649-7.558l15.888-9.365,6.176-4.358a17.787,17.787,0,0,1,3.8-2.509C2309.96,3806.164,2309.784,3808.1,2309.212,3810Zm-17.768,19.5a1.467,1.467,0,0,0-.89.9,1.762,1.762,0,0,0,.589,1.066,1.455,1.455,0,0,0,1.044-.311c.372-.335.3-.5.314-.975a1.1,1.1,0,0,0-.74-.706A.609.609,0,0,0,2291.444,3829.5Zm-17.328,8.746a3,3,0,0,0-.84,1.02c.191.5.387.594.793.922l.506,0c.555-.364.627-.368.826-.991a1.812,1.812,0,0,0-.892-.948Zm10.538-1.994a1.879,1.879,0,0,0-.9.851c.044.588.047.577.483.977l.379.134a1.212,1.212,0,0,0,.98-.566,1.807,1.807,0,0,0-.489-1.313Z" fill="#fab017"/>
      <path id="Path_592" data-name="Path 592" d="M2226.751,3716.846a6.091,6.091,0,0,1-.432,2.218,15.542,15.542,0,0,0-1.154-1.384,8.48,8.48,0,0,0,.338-2.449c.14-1.344.365-2.663.445-4.015.368.026.384.252.819.224a4.281,4.281,0,0,1,.489-.841C2227.228,3712.672,2226.965,3714.784,2226.751,3716.846Z"/>
      <path id="Path_593" data-name="Path 593" d="M2230.339,3688.712a31.818,31.818,0,0,1-.282,4.222c-.5,2.845-1.552,5.558-2,8.423-.481,3.066-.326,6.2-.8,9.242a4.281,4.281,0,0,0-.489.841c-.435.028-.451-.2-.819-.224a72.772,72.772,0,0,1,.813-10.277c.4-2.3,1.173-4.458,1.642-6.729a36.711,36.711,0,0,0,.516-5.877,10.655,10.655,0,0,1,1.769.1Z"/>
      <path id="Path_594" data-name="Path 594" d="M2284.9,3728.481a2,2,0,0,1-1.3.435l.135-2.314a3.828,3.828,0,0,1,1.19.208A8.4,8.4,0,0,0,2284.9,3728.481Z"/>
      <path id="Path_595" data-name="Path 595" d="M2266.1,3687.333c-.632,6.161-.122,12.771-1.59,18.791a2.817,2.817,0,0,0-.767-1.568l1.077-17.434A5.193,5.193,0,0,0,2266.1,3687.333Z"/>
      <path id="Path_596" data-name="Path 596" d="M2263.388,3722.269l-.307,11.847a120.074,120.074,0,0,1-.5,13.18l-.717-.032a103.476,103.476,0,0,0,.249-12.279l.282-10.862-.089-5.182a75.243,75.243,0,0,1,1.444-14.385,2.817,2.817,0,0,1,.767,1.568C2263.2,3711.268,2263.416,3716.99,2263.388,3722.269Z"/>
      <path id="Path_597" data-name="Path 597" d="M2220.459,3744.038c.226.43.361.476.766.722a3.126,3.126,0,0,1-.839.766l-1.164.38,1.484-11.392a4.454,4.454,0,0,1,.709,2.626C2220.407,3738.365,2220.475,3742.409,2220.459,3744.038Z"/>
    </g>
    <path id="Path_598" data-name="Path 598" d="M2143.816,4149c85.872-68.646,177.1-94.343,287.041-96.178s215.7,30.44,303.822,96.182Z" transform="translate(-1384.247 -2118)" fill="#fab017"/>
    <g id="Group_61" data-name="Group 61" transform="translate(-1386 -2121)">
      <path id="Path_599" data-name="Path 599" d="M1770.119,4098.856c.073,6.637-.177,13.239-.505,19.865-.465,9.387-.767,18.85-.625,28.279h6.478c-.361-7.5-.51-15-.382-22.513.115-6.738.469-13.465.392-20.206-.075-6.6-.308-13.2-.522-19.792-.239-7.367-.548-14.729-.846-22.094-.145-3.577-.6-7.119-.677-10.7-.08-3.644.266-7.365-.49-10.94-.365-1.727-2.612-1.155-3.047.152-.972,2.919-.9,6.072-1.025,9.13-.13,3.191-.5,6.41-.5,9.6,0,6.6.39,13.181.8,19.763C1769.58,4085.881,1770.048,4092.364,1770.119,4098.856Z" fill="#ffecee"/>
      <path id="Path_600" data-name="Path 600" d="M1747.08,4028.35a44.2,44.2,0,0,0-.573,8.879c.3,4.411.926,8.792,1.478,13.177,2.123,16.868,1.486,33.932,1.314,50.89a163.642,163.642,0,0,0,1.371,24.746c.99,7.011,2.338,13.964,3.437,20.958h5.942c-2.051-13.825-4.935-27.451-4.834-41.548.124-17.255,1.321-34.72-.354-51.927-.8-8.188-1.921-16.283-1.178-24.515.559-6.183,2.162-13.972-1.1-19.685-1.893-3.314-6.984-.589-5.226,2.8,1.091,2.1.925,4.733.787,7.025C1747.957,4022.236,1747.487,4025.293,1747.08,4028.35Z" fill="#ffecee"/>
      <path id="Path_601" data-name="Path 601" d="M1733.82,4044.316c.08,8.89.49,17.765.433,26.658-.063,10.027-.281,20.05-.432,30.076-.232,15.331.1,30.643.776,45.95h5.477q-1.017-19.816-.974-39.657c.031-10.01.26-20.018.3-30.028.035-9.4-.486-18.75-.8-28.137-.3-9.171-.23-18.352-.725-27.518-.472-8.76-1.219-17.732-4.145-26.059-.791-2.25-4.351-1.516-3.683.872C1734.374,4011.947,1733.678,4028.411,1733.82,4044.316Z" fill="#ffecee"/>
      <path id="Path_602" data-name="Path 602" d="M1707.1,4008.29c.313,11.1.442,22.2.813,33.3.369,11.006-.678,22.043.075,33.035.37,5.406,1.3,10.747,1.611,16.165.306,5.348.315,10.706.208,16.06-.109,5.516-.253,10.992.178,16.5.428,5.458,1.21,10.88,2.016,16.293.366,2.455.742,4.9,1.071,7.361h6.445c-1.265-10.022-3.378-19.926-3.665-30.062-.316-11.193.481-22.3-.756-33.476a156.254,156.254,0,0,1-1.392-16.666c-.021-5.453.235-10.9.255-16.355.045-12.691-.817-25.394-.928-38.089-.056-6.4-.08-12.8-.326-19.2-.241-6.272.051-12.9-1.6-18.974a2.091,2.091,0,0,0-4.119.284c-.948,5.472-.363,11.129-.281,16.677C1706.788,3996.857,1706.94,4002.571,1707.1,4008.29Z" fill="#ffecee"/>
      <path id="Path_603" data-name="Path 603" d="M1685.29,4064.748c.571,12.411,1.427,24.791,2.42,37.173.48,5.989.045,11.988-.1,17.981a96.257,96.257,0,0,0,1.467,18.015c.491,3.021.812,6.05,1.01,9.083h5.58c-.317-5.93-1.608-11.669-2.177-17.556-.626-6.467-.092-12.961.028-19.436.226-12.265-2-24.579-3.164-36.768-1.211-12.635-2.065-25.3-2.307-37.99-.13-6.8-.219-13.569-.586-20.365a139.5,139.5,0,0,1,0-21.156c1.077-10.983,2.9-23.145-.792-33.813-.423-1.225-2.421-.52-2.134.719,2.388,10.295.688,20.851-.53,31.178-1.432,12.125.361,24.254.51,36.392C1684.664,4040.4,1684.729,4052.565,1685.29,4064.748Z" fill="#ffecee"/>
      <path id="Path_604" data-name="Path 604" d="M1661.292,3990.551c-.008,12.4,1.185,24.729,1.717,37.106.535,12.451-.343,24.836-.53,37.279a156.872,156.872,0,0,0,.743,19.107c.652,6.05,1.443,12.08,2,18.14,1.148,12.508.993,25.039.824,37.583-.033,2.41-.076,4.822-.1,7.234h6.171c.119-11.984.525-23.979.009-35.959-.529-12.269-2.333-24.449-2.826-36.726-.5-12.547.725-25.078.6-37.624-.138-14.109-1.813-28.155-1.8-42.269.01-13.821,1.07-27.648-1.078-41.372-.608-3.887-6.208-2.583-5.876,1.172C1662.213,3966.3,1661.3,3978.456,1661.292,3990.551Z" fill="#ffecee"/>
      <path id="Path_605" data-name="Path 605" d="M1641.695,3982.124c1.122,13.071,1.9,26.138,1.977,39.26.074,12.908-.692,25.8-1.09,38.7-.407,13.209.248,26.35.357,39.553.107,12.981-.282,25.988-.738,38.96-.1,2.805-.253,5.607-.429,8.408h5.192c.339-12.542,1.064-25.066,1.031-37.618-.034-12.991-.94-25.959-.9-38.946.039-13.213.821-26.409,1.036-39.619.237-14.483-.9-28.91-2.074-43.337-.593-7.254-1.427-14.484-2.047-21.734-.288-3.37-.413-6.7-.962-10.044-.52-3.17-1.408-6.286-1.429-9.519a.95.95,0,0,0-1.872-.126c-1.151,5.566.274,11.18.416,16.774C1640.325,3969.283,1641.143,3975.7,1641.695,3982.124Z" fill="#ffecee"/>
      <path id="Path_606" data-name="Path 606" d="M1785.261,4077.981c.341,4.381,1.034,8.7,1.623,13.048,1.3,9.636,1.924,19.414,2.622,29.11.646,8.957,1.327,17.9,1.8,26.861h4.383c-.679-17.238-1.375-34.478-2.91-51.664a93,93,0,0,0-2.493-14.854c-.593-2.331-1-4.776-1.782-7.051a11.841,11.841,0,0,1-.905-4.068,38.077,38.077,0,0,1,.282-4.064c.183-1.535-2.267-1.833-2.379-.3-.15,2.063.1,4.126-.039,6.179A44.952,44.952,0,0,0,1785.261,4077.981Z" fill="#ffecee"/>
      <path id="Path_607" data-name="Path 607" d="M1611.816,4019.665c-.338,13.658-.283,27.325-.722,40.98-.221,6.879-.572,13.719-.315,20.6.258,6.916.843,13.814,1.323,20.717.924,13.284,1.339,26.671.2,39.956-.145,1.692-.333,3.385-.543,5.078h6.76a223.384,223.384,0,0,0,1.038-34.671c-.537-13.649-2.3-27.267-2.029-40.942.272-13.767.891-27.478.7-41.255-.193-13.661-.518-27.324-.854-40.982-.311-12.638-1.2-25.261-1.186-37.906,0-2.753.046-5.507.153-8.257a2.8,2.8,0,0,0-2.945-2.595,2.841,2.841,0,0,0-2.595,2.945c-.662,11.816-.151,23.742.482,35.549C1612.006,3992.5,1612.154,4006.036,1611.816,4019.665Z" fill="#ffecee"/>
      <path id="Path_608" data-name="Path 608" d="M1584.567,3974.838c-.668,6.081.043,12.293.3,18.385.291,6.827.538,13.657.7,20.489.641,27.25-1.111,54.616,1.855,81.776.736,6.733,1.944,13.349,3.125,20.011a191.3,191.3,0,0,1,2.252,19.1c.31,4.131.517,8.268.711,12.4h6q-.069-1.258-.129-2.515c-.329-6.855-.724-13.715-1.482-20.537-.724-6.511-2.1-12.889-3.1-19.358-4.152-26.98-2.58-54.335-2.7-81.513-.059-13.8-.645-27.581-1.248-41.361-.237-5.411-.427-10.713-.168-16.125a116.256,116.256,0,0,0,.138-15.924,32.293,32.293,0,0,0-1.264-6.711c-1-3.222-6-1.569-4.97,1.644,1.455,4.546,1.394,9.511,1.259,14.233C1585.693,3964.181,1585.15,3969.526,1584.567,3974.838Z" fill="#ffecee"/>
      <path id="Path_609" data-name="Path 609" d="M1562.91,4005.459c-.149,5.807-1.757,11.5-2.343,17.268-.654,6.445-.073,12.969.158,19.425.243,6.776.369,13.555.522,20.333.321,14.215.662,28.43,1.248,42.637.54,13.132-.354,26.378.787,39.474q.105,1.2.234,2.4h5.951c-.4-4.195-.71-8.391-.8-12.634-.136-6.67-.015-13.343-.164-20.014-.3-13.653-1.2-27.3-1.627-40.957q-.641-20.591-1.078-41.184c-.133-5.945.93-11.518,1.941-17.339a61.82,61.82,0,0,0,.442-18.953,377.7,377.7,0,0,1-3.488-38.54q-.116-4.369-.078-8.74c.031-3.616-5.547-3.474-5.614.135a279.744,279.744,0,0,0,1.93,37.313C1561.678,3992.513,1563.077,3998.966,1562.91,4005.459Z" fill="#ffecee"/>
      <path id="Path_610" data-name="Path 610" d="M1539.383,4028.653a42.138,42.138,0,0,1,.46,9.531,50.336,50.336,0,0,1-2.049,8.827,48.414,48.414,0,0,0-1.739,9.064c-.233,3.166-.084,6.389-.048,9.561.074,6.63.33,13.257.975,19.857.652,6.681,2.3,13.157,3.154,19.8,1.76,13.724,1.511,27.9,1.141,41.706h5.293a278.923,278.923,0,0,0-.592-30.867c-1.169-13.422-3.953-26.654-4.586-40.121a166.639,166.639,0,0,1-.228-19.824c.447-6.091,3-11.828,3.309-17.972.318-6.331-2.071-12.355-3.088-18.522a190.242,190.242,0,0,1-1.894-19.183c-.778-12.6-.835-25.23-.95-37.85-.025-2.835-.1-5.649-.272-8.479-.087-1.445-2.151-1.255-2.2.139-.457,12.233-.27,24.564.066,36.8A329.4,329.4,0,0,0,1539.383,4028.653Z" fill="#ffecee"/>
      <path id="Path_611" data-name="Path 611" d="M1502.409,3986.838c.573,6.105,2.681,11.945,4.289,17.825a105.8,105.8,0,0,1,3.784,35.753c-.445,5.784-1.456,11.521-1.938,17.309-.494,5.923-.757,11.867-.875,17.809a353.854,353.854,0,0,0,1.168,35.387c.486,6.054,1.238,12.064,1.1,18.148-.138,5.984-.734,11.948-.893,17.931h5.924c.217-9.187,1.477-18.38.636-27.578-2.133-23.341-3.183-47.136-.02-70.433a113.4,113.4,0,0,0,1.273-20.593,125.859,125.859,0,0,0-2.616-19.922c-1.4-6.7-3.71-13.171-4.991-19.892-1.285-6.743.2-13.618-1.065-20.353a3.164,3.164,0,0,0-3.246-2.86,3.079,3.079,0,0,0-2.861,3.246C1503.107,3974.664,1501.84,3980.765,1502.409,3986.838Z" fill="#ffecee"/>
      <path id="Path_612" data-name="Path 612" d="M1481.33,3985.71c.319,1.572.507,3.171.669,4.766.363,3.584.54,7.185.732,10.781.492,9.214,2.109,18.314,2.114,27.554a156.981,156.981,0,0,0,.82,17.116c.622,5.6,1.653,11.163,2.459,16.742,1.7,11.806-1.669,23.563-2.651,35.292-.495,5.916-.152,11.83-.079,17.755.075,5.975.087,11.952.349,17.922.2,4.46.511,8.907.751,13.362h5.124c-.135-2.134-.3-4.265-.532-6.39-.666-6.182-.973-12.38-1.187-18.592-.2-5.917-.63-11.854-.686-17.773-.111-11.9,3.135-23.556,2.922-35.455a118.021,118.021,0,0,0-1.753-17.2,170.228,170.228,0,0,1-1.758-18.007c-.386-6.764-.925-13.58-1.7-20.313-.47-4.088-1.05-8.112-1.362-12.218-.32-4.2-.6-8.419-1.219-12.591-.34-2.311-.588-5.8-2.507-7.431-1.183-1.006-2.614.875-1.472,1.893C1480.992,3983.481,1481.171,3984.926,1481.33,3985.71Z" fill="#ffecee"/>
      <path id="Path_613" data-name="Path 613" d="M1458.1,4040.9c.693,4.8,1.626,9.574,2.179,14.4.549,4.793.529,9.618.675,14.434q.23,7.524.445,15.047c.273,9.983.493,19.875-.446,29.835-.464,4.92-1.336,9.788-1.765,14.71a140.235,140.235,0,0,0-.4,15.734c.017.649.046,1.3.068,1.945h5.8a134.331,134.331,0,0,1,.923-23.881c2.844-20.182,2.115-40.641,1.424-60.939-.373-10.955-3.66-21.565-3.853-32.519-.166-9.445-.492-18.874-.825-28.314-.111-3.146-5.513-3.225-5.568-.028-.143,8.384.317,16.757.4,25.139A107.758,107.758,0,0,0,1458.1,4040.9Z" fill="#ffecee"/>
      <path id="Path_614" data-name="Path 614" d="M1441.4,4068.727c-.566,8.59-.385,17.16-.571,25.758-.194,8.955-.409,17.91-.818,26.857-.393,8.567-.124,17.114.313,25.658h3.893a154.205,154.205,0,0,1-.472-20.37c.486-8.92.517-17.864.565-26.8.047-8.9.355-17.786.333-26.681-.042-17.026,2.625-35.006-3.6-51.319a.631.631,0,0,0-1.2.38C1444.75,4037.225,1442.412,4053.312,1441.4,4068.727Z" fill="#ffecee"/>
      <path id="Path_615" data-name="Path 615" d="M1419.147,4108.827q1.119,10.347,1.737,20.742.516,8.712.887,17.431h4.872c-.024-3.691-.088-7.379-.227-11.062a344.7,344.7,0,0,0-3.832-41.05c-1-6.285-1.821-12.571-2.575-18.888a49.609,49.609,0,0,1,1.428-19.446c.7-2.525-3.1-3.825-3.893-1.288-1.69,5.4-1.63,11-1.857,16.588a112.9,112.9,0,0,0,.889,17.73C1417.328,4096.012,1418.45,4102.388,1419.147,4108.827Z" fill="#ffecee"/>
      <path id="Path_616" data-name="Path 616" d="M1400.106,4144.765c0,.748.028,1.493.083,2.235h4.4c-.294-6.354.523-12.739.035-19.074a60.785,60.785,0,0,1-.2-10.781c.34-3.437.865-7.714-.226-11.052-.38-1.163-2.469-1.536-2.684-.033a81.283,81.283,0,0,0-.267,9.451c-.073,3.169-.343,6.395-.259,9.563a85.363,85.363,0,0,1,.047,10.131C1400.749,4138.385,1400.118,4141.563,1400.106,4144.765Z" fill="#ffecee"/>
    </g>
    <path id="Path_617" data-name="Path 617" d="M1946.112,4086.176c-1.268-3.593-1.8-7.383-3.114-10.98-3.522-9.618-8.144-18.556-15.688-25.654-3.95-3.716-8.634-6.518-13.2-9.416a42.926,42.926,0,0,1-14.664-15.514c-5.227-9.316-9.09-19.264-13.588-28.918-3.813-8.182-7.9-16.242-13.478-23.422a31.028,31.028,0,0,0-14-10.62,99.674,99.674,0,0,0-11.4-3.277c-7.595-1.709-15.25-3.151-22.833-4.906-2.3-.532-4.582-1.051-6.909-1.4-1.8-.27-2.734.2-3.1,2.294a68.025,68.025,0,0,0-.86,19.1c.865,7.961,2.764,15.775,8.005,22.285a35.8,35.8,0,0,0,10.643,8.621,44.834,44.834,0,0,1,12.032,9.352,53.561,53.561,0,0,1,9.761,17.347,91.338,91.338,0,0,0,12.334,23.645,64.589,64.589,0,0,0,14.812,14.3c7.706,5.414,16.328,9,25.078,12.157,5.318,1.923,10.6,3.9,15.7,6.3,5.036,2.376,9.515,5.706,14.007,8.979.528.385,1.209,1.353,1.84.58.494-.607-.35-1.262-.823-1.831-4.951-5.955-9.933-11.883-15.266-17.5a212.381,212.381,0,0,0-21.64-20.22c-6.174-4.915-10.716-11.457-14.765-18.294-4.824-8.146-8.8-16.725-13.239-25.066-1.963-3.689-4.051-7.333-5.994-11a117.388,117.388,0,0,0-8.189-13.862c-4.144-5.744-8.657-11.287-14.263-15.722a68.459,68.459,0,0,0-13.915-9,55.412,55.412,0,0,0-6.117-2.19c-.712-.23-1.239-.581-1.031-1.407.177-.7.769-.834,1.406-.759a6.049,6.049,0,0,1,1.742.285c3.569,1.6,7.422,2.8,10.6,4.982a95.078,95.078,0,0,1,16.378,13.776c2.305,2.5,4.163,5.29,6.2,7.954,5.322,6.98,9,14.959,13.3,22.565,3.778,6.684,6.81,13.731,10.54,20.432,3.112,5.59,6.146,11.221,10.12,16.256a83.82,83.82,0,0,0,14.249,13.93,84.13,84.13,0,0,1,11.046,10.334c3.113,3.517,6.44,6.845,9.607,10.316,1.815,1.99,3.479,4.117,5.244,6.155,3.242,3.742,6.613,7.38,9.3,11.568a2.511,2.511,0,0,0,2.093,1.027Z" transform="translate(-1386 -2121)"/>
    <path id="Path_618" data-name="Path 618" d="M2519.45,3993.81c-22.259,12.708-42.414,18.512-64.264,16.472-25.465-2.378-45.223-15.126-60.835-34.882-9.647-12.208-17.544-25.557-25.405-38.937-2.1-3.579-2.084-5.155,2.51-6.46q87.405-24.813,174.708-49.985c6.744-1.934,6.879-1.959,7.517,5.067,1.959,21.573,1.712,43.06-3.132,64.3C2545.873,3969.89,2535.757,3986.376,2519.45,3993.81Zm-73.417-21.975c-2.881-5.028-5.154-5.881-9.338-3.5s-5.019,6.915-2.212,11.968c2.317,4.17,5.523,5.236,9.22,3.065C2447.815,3980.949,2448.712,3976.51,2446.033,3971.835Zm72.272-35.843c-1.931-3.572-4.583-5.43-8.68-3.413-3.374,1.661-5.562,9.31-3.722,12.728,1.5,2.786,7.27,5.135,9.726,3.959C2519.187,3947.562,2520.634,3940.377,2518.3,3935.992Zm-14.417,31.487c-1.5-2.816-3.4-6.086-8.215-3.2-4.427,2.656-5.284,5.942-2.559,10.733,2.527,4.441,6.336,6.015,9.548,3.944C2506.022,3976.794,2506.691,3972.288,2503.888,3967.479Zm-51.537-23.379c-3.04-5.4-6.4-6.92-9.934-4.793-3.777,2.272-4.617,6.377-2.176,10.635,2.359,4.115,5.679,4.985,9.758,2.86C2454.371,3950.524,2454.82,3947.528,2452.351,3944.1Zm40.416-11.937c-1.315-3.549-4.055-4.594-7.165-2.818-2.84,1.623-4.121,4.5-2.324,7.758s4.779,4.5,8.028,2.75C2494.415,3938.177,2495.1,3935.3,2492.767,3932.163Zm32.54-22.1c-2.072-2.95-4.795-3.965-7.581-2.549-3.15,1.6-3.688,4.775-2.038,7.738,1.521,2.732,4.5,4.046,7.253,2.527C2525.886,3916.155,2525.762,3912.857,2525.307,3910.061Zm-49.959,49.347c-1.776-3.091-4.809-4.335-7.581-2.584a6.014,6.014,0,0,0-1.791,8.415c1.742,2.893,4.538,4.841,7.98,2.557C2477.158,3965.672,2477.166,3962.6,2475.348,3959.408Zm-52.517-17.391c-1.533-3.389-3.886-3.145-6.851-1.509-2.84,1.567-3.924,3.345-2.092,6.358,1.86,3.06,4.243,3.309,7.205,1.717C2423.982,3947.03,2424.877,3945.008,2422.831,3942.017ZM2467.6,3922.2c-1.276-3.69-3.958-3.772-6.787-2.323-2.929,1.5-3.889,3.956-2.179,7.055,1.676,3.037,4.505,4.6,7.41,2.887C2468.64,3928.295,2470.185,3925.34,2467.6,3922.2Zm.846,63.674c-1.406-2.482-3.308-3.13-5.451-1.689a3.757,3.757,0,0,0-1.247,5.2c1.282,2.32,3.243,2.361,5.448,1.085C2469.358,3989.221,2469.777,3987.7,2468.449,3985.877Z" transform="translate(-1386 -2121)"/>
    <path id="Path_619" data-name="Path 619" d="M2650.314,3975.692c-2.419,4.786-5.257,9.328-8,13.927-2.425,4.068-5.337,7.8-8.069,11.654q-5.429,7.664-10.112,15.806-1.638,2.854-3.27,5.712a4.277,4.277,0,0,0,.975-.771c7-6.711,13.933-13.491,20.63-20.5a98.215,98.215,0,0,0,15.537-21.136c2.236-4.135,4.295-8.358,6.487-12.514a91.669,91.669,0,0,0,6.713-14.84,10.313,10.313,0,0,1,4.016-5.415c.467-.333.924-.679,1.387-1.019a4.2,4.2,0,0,1,3.463-1.123.313.313,0,0,0,.233-.02c.914-.79,1.824-.34,2.665.08a99.167,99.167,0,0,1,10.219,5.727,10.838,10.838,0,0,0,.993.57.8.8,0,0,0,1.091-.238c1.518-1.976,3.358-3.667,4.94-5.583,2.33-2.822,4.352-5.888,6.832-8.593a35.527,35.527,0,0,1,5.053-5.122c1.769-1.28,2.051-1.2,3.1.68.093.167.172.342.27.506a3.517,3.517,0,0,1-.274,4.137,21.763,21.763,0,0,1-2.876,3.354,64.578,64.578,0,0,0-8.285,9.382c-1.181,1.639-2.393,3.259-3.727,4.782-.683.781-.682.772.2,1.245.288.154.553.351.829.528,3.074,1.972,5.3,4.769,7.438,7.651a6.631,6.631,0,0,1,.873,1.665,1.363,1.363,0,0,1-.486,1.8c-.129.087-.325.142-.269.356.341,1.3-.263,2.422-.738,3.532a89.752,89.752,0,0,1-13.724,22.527c-5.385,6.43-11.026,12.637-16.6,18.9-8.4,9.421-17.268,18.4-26.436,27.079a123,123,0,0,1-24.753,18.463,49.255,49.255,0,0,1-23.732,6.61,30.836,30.836,0,0,1-11.983-1.857,41.9,41.9,0,0,0-7.633-2.183c-2.493-.481-5.028-.782-7.489-1.389-7.184-1.772-14.341-3.657-21.509-5.5a22.4,22.4,0,0,1-9.391-4.638q-3.642-3.178-7.267-6.378a7.107,7.107,0,0,1-1.95-2.5,3.03,3.03,0,0,1,.789-3.72,5.131,5.131,0,0,1,3.432-1.351,10.418,10.418,0,0,1,3.072.436c7.227,2.024,14.658,2.432,22.085,2.532a145.363,145.363,0,0,0,29.664-2.588,21.25,21.25,0,0,0,6.381-2.027,1.139,1.139,0,0,0,.672-.92c.276-1.837.529-3.68.906-5.5,2.055-9.922,4.222-19.822,6.7-29.646a96.3,96.3,0,0,1,6.414-18.729c1.863-3.831,3.991-7.529,5.631-11.473a49.572,49.572,0,0,1,5.444-10.619,6.723,6.723,0,0,1,2.875-2.751,16.9,16.9,0,0,1-3-2.516c-.3-.356-.847-.756-.555-1.252.268-.456.852-.171,1.293-.094,2.745.484,5.4,1.378,8.146,1.846a11.68,11.68,0,0,1,3.247,1.106.819.819,0,0,0,1.315-.652c.466-2.579,1.261-5.092,1.542-7.708a7.051,7.051,0,0,0-.035-2.771c-.594-1.995-1.154-4.057-3.6-4.638-.25-.059-.6-.016-.668-.362s.249-.521.48-.7a22.8,22.8,0,0,1,3.587-2.287c2.328-1.185,4.162-.59,5.412,1.724a15.859,15.859,0,0,1,1.483,4.5,37.669,37.669,0,0,1-.9,16.79,1.753,1.753,0,0,0,.4,1.73,9.3,9.3,0,0,0,2.422,2.066,10.624,10.624,0,0,1,4.1,4.87c.16.319.306.685.029,1-.308.351-.7.229-1.059.067-.564-.254-1.119-.526-1.837-.867C2652.847,3969.928,2651.763,3972.825,2650.314,3975.692Zm36.314-24.089a41.539,41.539,0,0,1-4.413-2.975,7.129,7.129,0,0,1-1.4-1.6c-.725-1.133-1.479-1.479-2.584-.784-2.746,1.728-5.433,3.461-6.51,6.906-1.883,6.022-4.955,11.53-7.867,17.1-1.887,3.606-3.668,7.266-5.624,10.838a100.457,100.457,0,0,1-16.072,21.552c-6.53,6.756-13.23,13.343-20.009,19.851a21.352,21.352,0,0,0-2.244,2.089c-2.69,5.1-5.47,10.157-7.13,15.719-.533,1.785-1.466,10.959-2.572,13.517a7.483,7.483,0,0,0-.557,5.1,4.62,4.62,0,0,1,.1,1.545c-.1,1.3-.7,1.742-1.976,1.482a6.219,6.219,0,0,1-4.79-4.358,24.022,24.022,0,0,1-.966-4.145,64.591,64.591,0,0,1-.52-18.208c.015-.13.007-.263.013-.527a18.172,18.172,0,0,1-4.892,1.781,122.608,122.608,0,0,1-13.837,2.119,139.141,139.141,0,0,1-20.615.8c-5.5-.248-11.034-.443-16.43-1.778a46.559,46.559,0,0,0-4.8-1.06,5.1,5.1,0,0,0-3.608.757,2.671,2.671,0,0,0-.993,3.827,8.346,8.346,0,0,0,1.973,2.28c2.257,1.983,4.5,3.981,6.768,5.954a19.836,19.836,0,0,0,7.964,4.241c7.861,2.1,15.686,4.388,23.655,6.017a124.106,124.106,0,0,1,17.046,4.31c3.119,1.114,6.46,1.045,9.74.972a48.877,48.877,0,0,0,22.919-6.546,126.155,126.155,0,0,0,25.867-19.558c9.244-8.842,18.216-17.947,26.658-27.551,5.355-6.092,10.9-12.017,16.008-18.331a88.345,88.345,0,0,0,11.608-18.77,31.6,31.6,0,0,0,1.694-4.082,4.652,4.652,0,0,0,.205-1.041c.026-.431-.139-.739-.663-.715a6.839,6.839,0,0,1-5.454-2.539,49.913,49.913,0,0,0-3.868-4c-.179-.151-.33-.444-.6-.319-.219.1-.128.4-.147.6a47.154,47.154,0,0,1-1.214,8.257c-.167.6-.357,1.205-.572,1.794-.126.343-.163.851-.623.87-.5.022-.488-.517-.609-.848a28.376,28.376,0,0,1-1.682-8.573c-.06-1.391-.071-2.785-.084-4.178-.009-.981-.05-1.034-1.038-.792a26.7,26.7,0,0,0-3.765,1.383c-2.249.924-4.482,1.89-6.816,2.591a8.467,8.467,0,0,1-2.251.407c-.351.008-.762.038-.919-.369-.15-.389.116-.664.389-.913a19.4,19.4,0,0,1,4.4-2.979,47.847,47.847,0,0,1,7.46-3.168,2.632,2.632,0,0,0,.343-.178A17.212,17.212,0,0,0,2686.628,3951.6Zm-56.433,2.652a16.59,16.59,0,0,0,8.448,2.256c.488-.009,1.2-.225,1.4.329.188.507-.542.645-.864.938a21.25,21.25,0,0,0-3.344,3.913,6.113,6.113,0,0,0,3.179-1.135,8.63,8.63,0,0,0,2.346-2.258c.14-.207.295-.447.58-.3.215.115.121.334.021.5-1.235,2.094-1.185,4.385-.993,6.683a17.984,17.984,0,0,0,.872,4.1,1.415,1.415,0,0,0,.43-.912c.738-2.845,1.887-5.6,1.842-8.617,0-.237-.024-.543.3-.588.259-.036.343.223.453.408a14.009,14.009,0,0,0,3.161,4.241,9.689,9.689,0,0,0,2.613,1.483,13.3,13.3,0,0,1,1.607.944,7.394,7.394,0,0,0,1.689.684c-.68-1.414-1.187-2.907-2.464-3.913-.986-.777-2.01-1.505-3-2.277a5.777,5.777,0,0,1-1.466-1.639,20.763,20.763,0,0,1,.273-2.792c1.229-5.829,1.775-11.664.016-17.5a10.562,10.562,0,0,0-1.1-2.552,2.938,2.938,0,0,0-4.068-1.3,24.1,24.1,0,0,0-3.062,1.792c.86.291,1.558.557,2.272.762,1.948.56,2.537,1.229,2.784,3.251a13.434,13.434,0,0,1,.011,3.676,73.142,73.142,0,0,1-1.767,8.911c-.074.262-.163.521-.261.776-.477,1.237-.661,1.205-1.919.751a32.976,32.976,0,0,0-3.732-1.44c-2.926-.67-5.849-1.351-8.776-2.018a1.067,1.067,0,0,0-.841-.01A10.427,10.427,0,0,0,2630.2,3954.255Zm12.148-9.979a21.857,21.857,0,0,1-.781,5.084c-.344,1.515-.658,3.038-1.011,4.551a.531.531,0,0,0,.343.714c.374.151.5-.13.576-.393,1.275-4.324,2.423-8.677,2.118-13.243-.132-1.977-.623-2.447-2.531-2.994-.576-.165-1.138-.378-1.712-.549-.3-.089-.608-.243-.882-.036C2641.388,3938.783,2642.3,3941.314,2642.343,3944.276Z" transform="translate(-1386 -2121)" fill="#ffecee"/>
  </g>
</svg>
