<svg xmlns="http://www.w3.org/2000/svg" width="307.792" height="321.091" viewBox="0 0 307.792 321.091">
  <g id="Group_100" data-name="Group 100" transform="translate(-3301.104 -487.089)">
    <path id="Path_2410" data-name="Path 2410" d="M3343.83,559.053c.754-.654,1.467-3.018,1.955-4.012l4.134-7.915a121.587,121.587,0,0,1,17.3-22.828,123.349,123.349,0,0,1,66.269-35.361,135.413,135.413,0,0,1,21.808-1.848l.07,19.954.065,4.895a16.63,16.63,0,0,0,.038,2.222,16.09,16.09,0,0,0-4.654.079l-.359.073a8.456,8.456,0,0,0-5.47,3.658l-.743,1.475a12.336,12.336,0,0,1,2.73-.394,8.515,8.515,0,0,1,3.859,1.581c3.521,2.395,4.661,5.244,5.653,9.213a15.112,15.112,0,0,1,.639,2.514,2.776,2.776,0,0,1-.63,1.486,1.878,1.878,0,0,0-.765,1.363l-.075,5.681a19.622,19.622,0,0,1-6.5,3.362,7.868,7.868,0,0,0-1.876.692l-.369,8.878c-3.5.957-7.25,1.364-10.813,2.1l-27.926,5.535-10.38,2.061a33.513,33.513,0,0,1-5.694.977,51.639,51.639,0,0,1-5.834-.457l-7.729-.755-34.705-4.219Z" fill="#f0ebd5"/>
    <path id="Path_2411" data-name="Path 2411" d="M3455.3,487.089a135.15,135.15,0,0,1,22.557,2.223,124.273,124.273,0,0,1,65.894,35.932,118.429,118.429,0,0,1,22.768,34.036l5.416-.671a12.99,12.99,0,0,0,3.122-.455,28.5,28.5,0,0,0,2.847-1.777c2.073-1.137,13.364-7.1,14.706-6.914l.2.276c-2.149,2.914-5.595,3.816-8.523,5.61l6.595-.261,11.018-.092c2.3-.015,4.708-.174,7,.02l-40.017,9.761c-9.628,3.347-19.249,6.854-29.178,9.217-11.463,2.728-23.407,3.8-35.159,4.3l-12.317.132a53.685,53.685,0,0,1-5.674-.274c-.719,3.224-1.759,6.319-2.636,9.494l-7.7,27.58-2.055,7.212a30.359,30.359,0,0,0-1.047,4.126l-18.44-.074-18.361.049.051-.162,18.284-.014a49.435,49.435,0,0,1-.1-6.859l-.013-15.212.151-53.942a32.328,32.328,0,0,1-7.538,3.4l-.235.065.369-8.878a7.868,7.868,0,0,1,1.876-.692,19.622,19.622,0,0,0,6.5-3.362l.075-5.681a1.878,1.878,0,0,1,.765-1.363,2.776,2.776,0,0,0,.63-1.486,15.112,15.112,0,0,0-.639-2.514c-.992-3.969-2.132-6.818-5.653-9.213a8.515,8.515,0,0,0-3.859-1.581,12.336,12.336,0,0,0-2.73.394l.743-1.475a8.456,8.456,0,0,1,5.47-3.658l.359-.073a16.09,16.09,0,0,1,4.654-.079,16.63,16.63,0,0,1-.038-2.222l-.065-4.895Z" fill="#ed242a"/>
    <path id="Path_2412" data-name="Path 2412" d="M3473.112,626.565a30.359,30.359,0,0,1,1.047-4.126l2.055-7.212,7.7-27.58c.877-3.175,1.917-6.27,2.636-9.494a53.685,53.685,0,0,0,5.674.274l12.317-.132c11.752-.5,23.7-1.573,35.159-4.3,9.929-2.363,19.55-5.87,29.178-9.217a89.5,89.5,0,0,1,4,13.548,125.867,125.867,0,0,1-32.3,116.594,118.148,118.148,0,0,1-38.828,25.692,115.043,115.043,0,0,1-30.717,7.873c-.678.079-.95-.08-1.248.6-.243-1.595.34-3.521.671-5.071l2.807-11.584,5.524-21.945,5.046-21.934a62.373,62.373,0,0,0,1.225-11.491C3484.926,645.787,3479.4,635.593,3473.112,626.565Z" fill="#ed242a"/>
    <path id="Path_2413" data-name="Path 2413" d="M3341.275,565.738,3331,562.623l-8.339-1.883-11.433-2.936c-3.275-.853-7-1.436-10.125-2.652l24.36-.055a55.353,55.353,0,0,1-6.661-3.722c-.409-.3-1.144-.728-1.365-1.191-.117-.244.1-.586.191-.825,1.2-.361,11.381,4.718,13.05,5.789,1.027.658,1.871,1.77,2.836,2.354a10.914,10.914,0,0,0,2.29.329l8.025,1.222,0,.007,34.705,4.219,7.729.755a51.639,51.639,0,0,0,5.834.457,33.513,33.513,0,0,0,5.694-.977l10.38-2.061,27.926-5.535c3.563-.733,7.314-1.14,10.813-2.1l.235-.065a32.328,32.328,0,0,0,7.538-3.4l-.151,53.942.013,15.212a49.435,49.435,0,0,0,.1,6.859l-18.284.014-.051.162a68.316,68.316,0,0,0-6.564,6.146l-12.671,12.541L3397.3,664.544l-26.069,26.03c7.371,6.749,14.679,13.005,23.109,18.413l17.136,10.689c2.862,1.779,5.979,3.487,8.663,5.513-1.788.03-3.585-.863-5.239-1.484l-10.76-4.489a114.963,114.963,0,0,1-17.428-10.24,124.238,124.238,0,0,1-28.454-26.689,119.252,119.252,0,0,1-16.468-30.01,127.311,127.311,0,0,1-5.551-68.725,113.17,113.17,0,0,1,2.776-11.3A49.5,49.5,0,0,1,3341.275,565.738Z" fill="#f0ebd5"/>
    <g id="Group_99" data-name="Group 99">
      <path id="Path_2414" data-name="Path 2414" d="M3442.148,732.336l.159.278c.733,1.123,6.65,2.867,8.166,3.293l-12.3,24.16-.089.02,1.36-22.166c.6-1.212.884-2.6,1.443-3.844A5.152,5.152,0,0,1,3442.148,732.336Z"/>
      <path id="Path_2415" data-name="Path 2415" d="M3454.672,626.491l18.44.074c6.292,9.028,11.814,19.222,11.953,30.491a62.373,62.373,0,0,1-1.225,11.491l-5.046,21.934-5.524,21.945-2.807,11.584c-.331,1.55-.914,3.476-.671,5.071a79.8,79.8,0,0,1,1.919,15.007c.073,8.645-1.989,17.351-4.049,25.7l-7.129,26.561-.084.015-.329.378-3.864-.554a3.737,3.737,0,0,1-.363-1.746c-.367-16.063-2.237-32.432-.608-48.469a132.343,132.343,0,0,1,3-16.547c.211-2.432-.426-5.12-.747-7.531l-1.394-11.157a339.133,339.133,0,0,1-2.368-36.4,115.776,115.776,0,0,1,.487-14.572l.011,0c.579-1.516.4-3.558.408-5.17l.008-8.208Z"/>
      <path id="Path_2416" data-name="Path 2416" d="M3455.893,794.44a3.737,3.737,0,0,0,.363,1.746l3.864.554.329-.378.084-.015c.582,1.049,10.668,7.161,12.246,7.93l.12.18a9.194,9.194,0,0,0,1.793,1.373l3.208,2.35a103.865,103.865,0,0,1-22.572-3.591l-.039-2.046A64.087,64.087,0,0,0,3455.893,794.44Z"/>
      <path id="Path_2417" data-name="Path 2417" d="M3440.7,730.834l-3.1-2.937a20.734,20.734,0,0,1-3.4-3.039l-8.785-8.15-28.627-26.523,57.231-30.66.239.243.011,0c.579-1.516.4-3.558.408-5.17l.008-8.208-.013-19.9-18.361.049a68.316,68.316,0,0,0-6.564,6.146l-12.671,12.541L3397.3,664.544l-26.069,26.03c7.371,6.749,14.679,13.005,23.109,18.413l17.136,10.689c2.862,1.779,5.979,3.487,8.663,5.513l19.308,12.732c.6-1.212.884-2.6,1.443-3.844a5.152,5.152,0,0,1,1.258-1.741A9,9,0,0,0,3440.7,730.834Z"/>
      <path id="Path_2418" data-name="Path 2418" d="M3444.246,519.445a12.336,12.336,0,0,1,2.73-.394,8.515,8.515,0,0,1,3.859,1.581c3.521,2.395,4.661,5.244,5.653,9.213a15.112,15.112,0,0,1,.639,2.514,2.776,2.776,0,0,1-.63,1.486,1.878,1.878,0,0,0-.765,1.363l-.075,5.681a19.622,19.622,0,0,1-6.5,3.362,7.868,7.868,0,0,0-1.876.692l-1.566.237c-1.665.2-4.767.745-6.185-.38-1.025-1.658.325-2.838.156-4.485-.12-1.163-.764-2.292-.783-3.453-.008-.512.414-.751.759-1.107,0-1.21-2.706-1.641-3.5-2.5.132-1.395,2.808-3.572,3.787-4.641,1.176-1.285,1.3-3.679,2.037-5.315A29.453,29.453,0,0,1,3444.246,519.445Z"/>
      <path id="Path_2419" data-name="Path 2419" d="M3444.246,519.445l.743-1.475a8.456,8.456,0,0,1,5.47-3.658l.359-.073a16.09,16.09,0,0,1,4.654-.079,16.545,16.545,0,0,1,11.094,7.578,16.372,16.372,0,0,1,2.212,4.733l.1.326a10.966,10.966,0,0,1-.129,5.332c-.592,2.886-2.83,7.065-5.413,8.634a8.323,8.323,0,0,1-3.547.936,15.229,15.229,0,0,0-1.681-3.02c1.617-.177,3.6-.255,4.731-1.612a4.627,4.627,0,0,0,.8-3.548,2.052,2.052,0,0,0-.787-1.4c-1.376-.975-3.33.024-4.556.858a3.863,3.863,0,0,1-1.528.855l-.272.015a2.776,2.776,0,0,0,.63-1.486,15.112,15.112,0,0,0-.639-2.514c-.992-3.969-2.132-6.818-5.653-9.213a8.515,8.515,0,0,0-3.859-1.581A12.336,12.336,0,0,0,3444.246,519.445Z"/>
      <path id="Path_2420" data-name="Path 2420" d="M3456.5,533.845l.272-.015a3.863,3.863,0,0,0,1.528-.855c1.226-.834,3.18-1.833,4.556-.858a2.052,2.052,0,0,1,.787,1.4,4.627,4.627,0,0,1-.8,3.548c-1.135,1.357-3.114,1.435-4.731,1.612a15.229,15.229,0,0,1,1.681,3.02l1.946,12.459,17.618,3.048,22.056,4.138c4.414.8,8.808,1.864,13.255,2.438a90.83,90.83,0,0,0,12.642.481,79.69,79.69,0,0,0,9.8-1.031l9.819-1.3,13.9-1.833c1.879-.262,3.85-.387,5.694-.823l5.416-.671a12.99,12.99,0,0,0,3.122-.455,28.5,28.5,0,0,0,2.847-1.777c2.073-1.137,13.364-7.1,14.706-6.914l.2.276c-2.149,2.914-5.595,3.816-8.523,5.61l6.595-.261,11.018-.092c2.3-.015,4.708-.174,7,.02l-40.017,9.761c-9.628,3.347-19.249,6.854-29.178,9.217-11.463,2.728-23.407,3.8-35.159,4.3l-12.317.132a53.685,53.685,0,0,1-5.674-.274c-.719,3.224-1.759,6.319-2.636,9.494l-7.7,27.58-2.055,7.212a30.359,30.359,0,0,0-1.047,4.126l-18.44-.074-18.361.049.051-.162,18.284-.014a49.435,49.435,0,0,1-.1-6.859l-.013-15.212.151-53.942a32.328,32.328,0,0,1-7.538,3.4l-.235.065.369-8.878a7.868,7.868,0,0,1,1.876-.692,19.622,19.622,0,0,0,6.5-3.362l.075-5.681A1.878,1.878,0,0,1,3456.5,533.845Z"/>
      <path id="Path_2421" data-name="Path 2421" d="M3341.275,565.738,3331,562.623l-8.339-1.883-11.433-2.936c-3.275-.853-7-1.436-10.125-2.652l24.36-.055a55.353,55.353,0,0,1-6.661-3.722c-.409-.3-1.144-.728-1.365-1.191-.117-.244.1-.586.191-.825,1.2-.361,11.381,4.718,13.05,5.789,1.027.658,1.871,1.77,2.836,2.354a10.914,10.914,0,0,0,2.29.329l8.025,1.222,0,.007,34.705,4.219,7.729.755a51.639,51.639,0,0,0,5.834.457,33.513,33.513,0,0,0,5.694-.977l10.38-2.061,27.926-5.535c3.563-.733,7.314-1.14,10.813-2.1l.235-.065a32.328,32.328,0,0,0,7.538-3.4l-.151,53.942.013,15.212a49.435,49.435,0,0,0,.1,6.859l-18.284.014-13.136-47.866-32.093-1.371c-8.243-.672-16.365-1.357-24.434-3.292C3358.061,571.778,3349.707,568.513,3341.275,565.738Z"/>
    </g>
  </g>
</svg>
