<svg xmlns="http://www.w3.org/2000/svg" xmlns:xlink="http://www.w3.org/1999/xlink" width="1190.465" height="307.623" viewBox="0 0 1190.465 307.623">
  <defs>
    <clipPath id="clip-path">
      <rect id="Rectangle_7" data-name="Rectangle 7" width="389" height="166" transform="translate(6326 3463)" fill="none"/>
    </clipPath>
  </defs>
  <g id="Group_331" data-name="Group 331" transform="translate(-175.685 -418.791)">
    <g id="Group_330" data-name="Group 330">
      <g id="Group_329" data-name="Group 329">
        <g id="Group_7" data-name="Group 7" transform="translate(-5349 -3033)">
          <path id="Path_1" data-name="Path 1" d="M5537.24,3638.149a18.959,18.959,0,0,0,.687,3.1l-.078.118a.7.7,0,0,1-.385.26l-.133,1.113-2.206-9.583a7.556,7.556,0,0,1,1.389.609C5536.655,3635.252,5536.961,3636.689,5537.24,3638.149Z"/>
          <path id="Path_2" data-name="Path 2" d="M5543.635,3658.463l.031.576-.345-.132a5.806,5.806,0,0,0-.6-1.8l-1.418-3.338-1.51-4.13a43.3,43.3,0,0,1-2.462-6.89l.133-1.113a.7.7,0,0,0,.385-.26l.078-.118,6.2,16.917Z"/>
          <path id="Path_3" data-name="Path 3" d="M5650.862,3559.9l-.018.015-.221-.387a1.9,1.9,0,0,1-.218.9l-.05-.168a2.965,2.965,0,0,0-.679-1.194l.619-9.268a50.415,50.415,0,0,0-.362-5.889c.664-.061,1.068.045,1.533-.467A73.41,73.41,0,0,1,5650.862,3559.9Z"/>
          <path id="Path_4" data-name="Path 4" d="M5543.99,3532.231l-.221-.114a4.587,4.587,0,0,0-.07,1.742l.131.059.25-.423a7.446,7.446,0,0,1,.384,1.112l-.416-.344a1.186,1.186,0,0,0-.406.935c-.311,2.487-.173,5.1-.28,7.614a54.245,54.245,0,0,1-.677,5.723l-.245.073-.087.25-.149.007a2.072,2.072,0,0,0-.5-.965l-.1-.137.691-17.532,1.216.005a1.875,1.875,0,0,1,.2,1.011l.34.341Z"/>
          <path id="Path_5" data-name="Path 5" d="M5650.355,3560.253l.05.168a1.9,1.9,0,0,0,.218-.9l.221.387-2.929,31.9a3.83,3.83,0,0,0-1.19-.208l2.951-32.543A2.965,2.965,0,0,1,5650.355,3560.253Z"/>
          <path id="Path_6" data-name="Path 6" d="M5541.708,3547.9a2.072,2.072,0,0,1,.5.965l.149-.007.087-.25.245-.073c-.371,3.1-.565,6.257-1.136,9.334-.454,2.448-1.246,4.78-1.513,7.27a93.826,93.826,0,0,0-.527,10.263c.009,2.435.23,4.843.039,7.279-.23,2.947-1.023,5.792-1.326,8.728-.312,3.029-.116,6.1-.513,9.122-.561,4.254-1.523,8.473-1.94,12.747a51.5,51.5,0,0,0-.056,6.48,23.19,23.19,0,0,0,.2,3.545.76.76,0,0,0,.152.386,1.86,1.86,0,0,0,.334.281c-.378.372-.518.388-.534.935a2.7,2.7,0,0,1,.763,1.6c-.775.133-.625-.549-1.544.025a1.667,1.667,0,0,1-.588-1,1.182,1.182,0,0,0,.425.037c-.594-4.645-1.132-9.768-.515-14.443.494-3.745,1.524-7.422,1.99-11.168.393-3.147.245-6.334.473-9.494.168-2.322.7-4.613.9-6.932.485-5.828-.224-11.726.549-17.549.292-2.2.889-4.259,1.379-6.415a70.557,70.557,0,0,0,1.915-11.8Z"/>
          <path id="Path_7" data-name="Path 7" d="M5579.259,3708.69l11.5,18.89-6,.243c-7.944.22-16.579-1.2-23.448-5.392a47.4,47.4,0,0,1-7.661-6.16,10.215,10.215,0,0,1-2.162-2.6l27.729-5.116Zm-9.8,13c-.391.062-.393.133-.618.436a1.642,1.642,0,0,0,.325,1.22,1.485,1.485,0,0,0,.391.033c.412-.029.572-.254.81-.538a1.4,1.4,0,0,0-.4-1.067A.97.97,0,0,0,5569.454,3721.694Zm8.028.249a1.4,1.4,0,0,0-.822.869l.213.571a.812.812,0,0,0,.253.01,1.083,1.083,0,0,0,.855-.491,1.133,1.133,0,0,0-.223-.994A.58.58,0,0,0,5577.482,3721.943Z" fill="#fab017"/>
          <path id="Path_8" data-name="Path 8" d="M5555.151,3716.175l-.332.079-.8-.827.2-.3a2.932,2.932,0,0,1,1.637-.048A2,2,0,0,1,5555.151,3716.175Z"/>
          <path id="Path_9" data-name="Path 9" d="M5579.259,3708.69l-.21.11a1.029,1.029,0,0,0-.465.5l-.192.035a2.7,2.7,0,0,0-1.145.409c-.924.627-2.571.6-3.616,1-.211.081-.347.259-.565.328-.658.208-1.084-.058-1.7.424-.531.413-1.32.044-1.871.5-.6.5-1.638.123-2.377.584a1.466,1.466,0,0,1-.674.274c-.8.09-1.627.016-2.419.171-.567.11-1.077.405-1.648.523a6.006,6.006,0,0,0-1.191.219,13.244,13.244,0,0,0-1.618,1.647l-.178-.068c-1.2-.433-2.461.208-3.54-.269a2.932,2.932,0,0,0-1.637.048l-.2.3a2.953,2.953,0,0,1-.359.844,10.215,10.215,0,0,1-2.162-2.6l27.729-5.116Z" fill="#ef8816"/>
          <path id="Path_10" data-name="Path 10" d="M5564.545,3689.37a21.988,21.988,0,0,0,4.784,2.067l8.062,2.927-1.414,3.761a7.8,7.8,0,0,1-.262,1.388l-.109.666.4,2.678a24.2,24.2,0,0,0,3.213,5.7l-27.729,5.116a41.273,41.273,0,0,1-5.186.659,15.23,15.23,0,0,1-4.146-.022c-2.538-.507-6.754-1.486-8.2-3.824a2.024,2.024,0,0,1-.353-1.665c.573-1.73,5.135-3.091,6.734-3.844a4.933,4.933,0,0,1-1.644-1.27l-.45-.8-.781.116a2.028,2.028,0,0,1-.952.756c-.558-.336-.073-.472-.2-.954a4.44,4.44,0,0,0-.482-.76,18.68,18.68,0,0,1,1.439-1.741,15.681,15.681,0,0,1,1.756-2.726l.661.047a30.311,30.311,0,0,0,11.03-.836c1-.264,1.943-.707,2.948-.983l.05-.014a18.887,18.887,0,0,0,7.54-6.3,15.442,15.442,0,0,0,1.148-2.564A8.95,8.95,0,0,0,5564.545,3689.37ZM5544.256,3701c-1.026-.133-3.593-.42-4.386.186-.378.381-1.234,1.621-1.618,1.726l.45.8a4.933,4.933,0,0,0,1.644,1.27h.24a12.242,12.242,0,0,1,2.209.4,26.091,26.091,0,0,0,4.583.7,57.081,57.081,0,0,0,5.966-.1c4.077-.332,8.1-1.08,12.155-1.61,2.844-.372,5.745-.439,8.554-1.046a10.528,10.528,0,0,0,1.956-.46l-.4-2.678.109-.666-.173-.19a22.024,22.024,0,0,0-3.479.538,39.334,39.334,0,0,1-4.032.638l-9.257,1.1c-3,.341-6.034.931-9.059.979a19.388,19.388,0,0,1-4.178-.471l-.038-.032.106-.206a1.646,1.646,0,0,1-1.126-.509l.4-.252Z"/>
          <path id="Path_11" data-name="Path 11" d="M5575.715,3699.513l-.173-.19a22.024,22.024,0,0,0-3.479.538l.441-.485c.331-.266.691-.18,1.081-.159l-.047-.146a4.876,4.876,0,0,0-1.362.279l-.094.04-.542-.3,4.437-.964A7.8,7.8,0,0,1,5575.715,3699.513Z" fill="#f0ebd5"/>
          <path id="Path_12" data-name="Path 12" d="M5546.321,3698.625a8.967,8.967,0,0,1-3.126.3,10.59,10.59,0,0,1-3.5-1.275,30.311,30.311,0,0,0,11.03-.836c1-.264,1.943-.707,2.948-.983A19.5,19.5,0,0,1,5546.321,3698.625Z"/>
          <path id="Path_13" data-name="Path 13" d="M5572.082,3699.39l.094-.04a4.876,4.876,0,0,1,1.362-.279l.047.146c-.39-.021-.75-.107-1.081.159l-.441.485a39.334,39.334,0,0,1-4.032.638l-9.257,1.1c-3,.341-6.034.931-9.059.979a19.388,19.388,0,0,1-4.178-.471l-.038-.032.106-.206a1.646,1.646,0,0,1-1.126-.509l.4-.252c5.349.886,10.284-.142,15.583-.741l11.074-1.276Z" fill="#f0ebd5"/>
          <path id="Path_14" data-name="Path 14" d="M5544.479,3701.358a1.646,1.646,0,0,0,1.126.509l-.106.206.038.032a19.388,19.388,0,0,0,4.178.471c3.025-.048,6.057-.638,9.059-.979l9.257-1.1a39.334,39.334,0,0,0,4.032-.638,22.024,22.024,0,0,1,3.479-.538l.173.19-.109.666.4,2.678a10.528,10.528,0,0,1-1.956.46c-2.809.607-5.71.674-8.554,1.046-4.052.53-8.078,1.278-12.155,1.61a57.081,57.081,0,0,1-5.966.1,26.091,26.091,0,0,1-4.583-.7,12.242,12.242,0,0,0-2.209-.4h-.24a4.933,4.933,0,0,1-1.644-1.27l-.45-.8c.384-.1,1.24-1.345,1.618-1.726.793-.606,3.36-.319,4.386-.186l.627.107Z" fill="#f0ebd5"/>
          <path id="Path_15" data-name="Path 15" d="M5544.479,3701.358a1.646,1.646,0,0,0,1.126.509l-.106.206a23.722,23.722,0,0,1-5.629-.888c.793-.606,3.36-.319,4.386-.186l.627.107Z" fill="#f0ebd5"/>
          <path id="Path_16" data-name="Path 16" d="M5576.009,3702.857a10.528,10.528,0,0,1-1.956.46c-2.809.607-5.71.674-8.554,1.046-4.052.53-8.078,1.278-12.155,1.61a57.081,57.081,0,0,1-5.966.1,26.091,26.091,0,0,1-4.583-.7,12.242,12.242,0,0,0-2.209-.4h-.24a4.933,4.933,0,0,1-1.644-1.27l.23-.293c1.007-.307,3.031.593,4.095.863a33.57,33.57,0,0,0,9.649.6,66.539,66.539,0,0,0,7.426-1.017l7.536-1.132,5.636-.82a6.486,6.486,0,0,0,2.266-.495l.066-1.236Z" fill="#f0ebd5"/>
          <path id="Path_17" data-name="Path 17" d="M5579.222,3708.556l-27.729,5.116a41.273,41.273,0,0,1-5.186.659,15.23,15.23,0,0,1-4.146-.022c-2.538-.507-6.754-1.486-8.2-3.824a2.024,2.024,0,0,1-.353-1.665c.573-1.73,5.135-3.091,6.734-3.844h.24a12.242,12.242,0,0,1,2.209.4,26.091,26.091,0,0,0,4.583.7,57.081,57.081,0,0,0,5.966-.1c4.077-.332,8.1-1.08,12.155-1.61,2.844-.372,5.745-.439,8.554-1.046a10.528,10.528,0,0,0,1.956-.46A24.2,24.2,0,0,0,5579.222,3708.556Z"/>
          <path id="Path_18" data-name="Path 18" d="M5579.627,3642.948a11.68,11.68,0,0,0,2.306.039,2.271,2.271,0,0,1,0,1.576,59.059,59.059,0,0,0-11.5,15.745c-.843,1.6-1.949,3.082-2.722,4.7a47.44,47.44,0,0,0-1.776,4.607,64.017,64.017,0,0,0-3.23,13.144c-.183,1.4-.153,2.8-.3,4.192a15.442,15.442,0,0,1-1.148,2.564,18.887,18.887,0,0,1-7.54,6.3l-.05.014c-1,.276-1.946.719-2.948.983a30.311,30.311,0,0,1-11.03.836l-.661-.047a15.681,15.681,0,0,0-1.756,2.726,18.68,18.68,0,0,0-1.439,1.741.711.711,0,0,0-.232.142,8.9,8.9,0,0,1-3.362,1.833,3.159,3.159,0,0,1-2.313-.579c-1.787-1.145-4.66-4.347-5.1-6.439-.841-4.019,2-9.377,5.426-11.421a11.165,11.165,0,0,1,2.122-.9,4.857,4.857,0,0,0,.884-.3c.035-.031.11-.912.123-1.024.267-2.28.572-4.54,1.05-6.786a34.694,34.694,0,0,1,3.942-10.279c1.519-2.561,3.346-4.9,4.94-7.409l.345.132-.031-.576.5-.293,2.184-2.4a41.375,41.375,0,0,1,4.423-3.929,37.635,37.635,0,0,1,6.926-4.834,26.982,26.982,0,0,1,4.211-1.479,72.437,72.437,0,0,1,17.619-2.6Zm-48.775,46a1.494,1.494,0,0,0-.226.2,2.482,2.482,0,0,0-.318,1.652l1.221-.029.694-.274a1.63,1.63,0,0,0,.434-1.137,2.463,2.463,0,0,0-1.242-.418Zm8.7,6.432-.023.493.594.459a2.766,2.766,0,0,0,.574.217,1.349,1.349,0,0,0,1.118-.114,1.78,1.78,0,0,0,.055-.557,1.222,1.222,0,0,0-.632-.882C5540.479,3695.087,5540.211,3694.905,5539.553,3695.377Zm-10.1-1.15a1.41,1.41,0,0,0-.632.647c-.122.272-.076.286.031.565l.579.21a2.065,2.065,0,0,0,1.511-.589c-.067-.456-.325-.535-.676-.816A4.909,4.909,0,0,0,5529.453,3694.227Zm16.326-14.9c-.339.094-.343.1-.5.4a1.972,1.972,0,0,0,.679,1.229,1.42,1.42,0,0,0,.831-.5c.245-.35.173-.459.111-.842l-.678-.289A.9.9,0,0,0,5545.779,3679.331Zm-3.673,2.608c-.316.329-.526.462-.622.914l.6.536a.879.879,0,0,0,.765.113,1.541,1.541,0,0,0,.232-.977c-.008-.218-.347-.438-.508-.59ZM5566.985,3647a1.839,1.839,0,0,0-1.033.722l.217.409a4.65,4.65,0,0,0,1.087.239,2.213,2.213,0,0,0,.137-1.335Z" fill="#fab017"/>
          <path id="Path_19" data-name="Path 19" d="M5545.562,3692.2a3.658,3.658,0,0,1-.862-.283l-.3-.34.14-.346a1.647,1.647,0,0,1,1.293-.091A1.478,1.478,0,0,1,5545.562,3692.2Z"/>
          <path id="Path_20" data-name="Path 20" d="M5541.871,3695.875a1.78,1.78,0,0,1-.055.557,1.349,1.349,0,0,1-1.118.114,2.766,2.766,0,0,1-.574-.217l-.594-.459.023-.493c.658-.472.926-.29,1.686-.384A1.222,1.222,0,0,1,5541.871,3695.875Z" fill="rgba(250,176,23,0.99)"/>
          <path id="Path_21" data-name="Path 21" d="M5548.705,3669.614c1.5,3.5,3.366,7.02,4.245,10.755l-.15.179a2.84,2.84,0,0,1-.937-1.294c-1.235-2.588-2.011-5.292-3.048-7.943l-2.344-5.407-2.805-6.865-.031-.576.5-.293Z"/>
          <path id="Path_22" data-name="Path 22" d="M5658.07,3531.751a6.282,6.282,0,0,1,1.594,4.488,5.95,5.95,0,0,1-1.778,4.387,4.317,4.317,0,0,1-1.088.686l-.2.114c-.581.233-1.425-.162-2.017-.045l-.2-.028a9.194,9.194,0,0,1-2.908-1.307,2.413,2.413,0,0,0,.05,1.153c.5.1,1.153,0,1.507.347a10.915,10.915,0,0,1-1.485,1.592l-.078.3c-.465.512-.869.406-1.533.467l-.088-.188-.244-.272-.062.153a4.2,4.2,0,0,1-1.043,1.065,22.367,22.367,0,0,1-7.761,4.095l-11.556,2.89-.074.688a5.191,5.191,0,0,1-1.28-.211l-.08-.509-.089.044-.148.07c-2.374,1.165-5.671,1.3-8.267,1.547-4.706.455-9.13,1.109-13.883.961-3.915-.121-7.736-.83-11.67-.8a10.654,10.654,0,0,0-1.769-.1c-4.857-.284-9.825-.558-14.644-1.232a96.754,96.754,0,0,1-16.132-3.785c-4.063-1.3-8.444-2.843-11.814-5.528a14.135,14.135,0,0,1-4.4-5.592,12.141,12.141,0,0,1-.463-2.589,7.446,7.446,0,0,0-.384-1.112l-.25.423-.131-.059a4.587,4.587,0,0,1,.07-1.742l.221.114.066-.643-.34-.341a1.875,1.875,0,0,0-.2-1.011l-1.216-.005a9.3,9.3,0,0,1-3.565-.625,7.69,7.69,0,0,1-4.279-4.327,2.452,2.452,0,0,1-.108-.533,5.314,5.314,0,0,1,1.134-3.768c1.983-2.281,4.977-2.166,7.732-2.35.393-3.063,1.894-5.441,3.571-7.948a52.3,52.3,0,0,1,6.392-7.905,28.547,28.547,0,0,1,2.693-2.58,21.423,21.423,0,0,1,3.765-2.059c1.1-.54,2.151-1.158,3.285-1.637a86.06,86.06,0,0,1,9.481-3.17c1.552-.452,3.085-1.017,4.662-1.374,2.87-.65,5.769-.966,8.667-1.429a44.379,44.379,0,0,1,5.843-.787,22.8,22.8,0,0,1,3.4.355l3.784.433c6.022.865,12.115,1.49,18.057,2.806a70.585,70.585,0,0,1,10.752,3.475c1.264.5,2.565.886,3.808,1.437,5.369,2.381,11.018,6.025,14.557,10.783,1.9,2.56,4.433,4.629,6.132,7.33a44.4,44.4,0,0,1,2.367,5.1c.817,1.771,1.74,3.371,1.439,5.386l-.915,3.687A3.682,3.682,0,0,1,5658.07,3531.751Zm-122.59-10.773a5.314,5.314,0,0,0-1.134,3.768,2.452,2.452,0,0,0,.108.533,7.69,7.69,0,0,0,4.279,4.327,9.3,9.3,0,0,0,3.565.625l1.216.005a1.875,1.875,0,0,1,.2,1.011l.34.341-.066.643-.221-.114a4.587,4.587,0,0,0-.07,1.742l.131.059.25-.423a7.446,7.446,0,0,1,.384,1.112,12.141,12.141,0,0,0,.463,2.589,14.135,14.135,0,0,0,4.4,5.592c3.37,2.685,7.751,4.225,11.814,5.528a96.754,96.754,0,0,0,16.132,3.785c4.819.674,9.787.948,14.644,1.232a10.654,10.654,0,0,1,1.769.1c3.934-.028,7.755.681,11.67.8,4.753.148,9.177-.506,13.883-.961,2.6-.25,5.893-.382,8.267-1.547l.148-.07.089-.044.08.509a5.191,5.191,0,0,0,1.28.211l.074-.688,11.556-2.89a22.367,22.367,0,0,0,7.761-4.095,4.2,4.2,0,0,0,1.043-1.065l.062-.153.244.272.088.188c.664-.061,1.068.045,1.533-.467l.078-.3a10.915,10.915,0,0,0,1.485-1.592c-.354-.348-1.009-.247-1.507-.347a2.413,2.413,0,0,1-.05-1.153,9.194,9.194,0,0,0,2.908,1.307l.2.028c.592-.117,1.436.278,2.017.045l.2-.114a4.317,4.317,0,0,0,1.088-.686,5.95,5.95,0,0,0,1.778-4.387,6.282,6.282,0,0,0-1.594-4.488,3.682,3.682,0,0,0-3.115-1.215,4.445,4.445,0,0,1-2.463,2.459,19.844,19.844,0,0,1-8.258,2.389l-2.108.145-3.12.2-.22-.077.326-.454-2.6.144a16.7,16.7,0,0,0-2.37.125,69.223,69.223,0,0,0-8.894.479l-6.709.362-16.366-1.165-43.576-6.087a1.546,1.546,0,0,1-1,.5l-.2.286a12.513,12.513,0,0,1-3.145-.966c-2.468-.855-6.651-2.061-7.838-4.517-.016-.161-1.837-1.8-2.09-2.118a7.345,7.345,0,0,1-1.11-3.621C5540.457,3518.812,5537.463,3518.7,5535.48,3520.978Zm108.2-3.273.226-.357a1.973,1.973,0,0,0-.471-1.64,4.813,4.813,0,0,0-3.534-1.607,1.875,1.875,0,0,0-1.473.525c-.347.362-.3,1.3-.278,1.78l.954.726.113.18a17.118,17.118,0,0,1,3.73.365Zm-44.721-11.373a2.791,2.791,0,0,0-1.232-1.853,5.323,5.323,0,0,0-3.928-.821,1.9,1.9,0,0,0-1.223.878,1.662,1.662,0,0,0-.335,1.469c.578.068.5-.011,1.016-.157.422-.119,1.062.47,1.327.725.863.033,2.127-.639,2.862-.51.522.092.783.619,1.438.6Zm-20.813,6.856a1.284,1.284,0,0,0-.2-1.252,3.936,3.936,0,0,0-2.272-1.154,4.383,4.383,0,0,0-2.683.6l-.176.152-.2.141c-.274.221-.379.119-.644.424l-.061.34a2.217,2.217,0,0,0-.187.794,2.606,2.606,0,0,0,.986.617,3.034,3.034,0,0,1,.485.1c.279-.216.509-.131.742-.3.826-.61,2.954-.464,3.912-.182l.113.045A1.16,1.16,0,0,0,5578.147,3513.188Zm53.483-6.479a1.7,1.7,0,0,0,.356-1.24,2.021,2.021,0,0,0-.709-1.4,5.083,5.083,0,0,0-2.839-.623,2.823,2.823,0,0,0-1.768,1.225,3.226,3.226,0,0,0,2.071,2,11.449,11.449,0,0,0,1.959.363Zm-12.842,2.942a2.041,2.041,0,0,0,.847.13,1.369,1.369,0,0,0,.321-2.122,4.448,4.448,0,0,0-3.289-1.485l-.153.126a2.076,2.076,0,0,1-.846.329l0,.228c-.022.626-.576,1.066-.63,1.668l-.258.281.745.553A11.76,11.76,0,0,1,5618.788,3509.651Zm-49.66-6.612a1.475,1.475,0,0,0-.649-1.143,3.679,3.679,0,0,0-2.7-.3,1.425,1.425,0,0,0-.859.72,2.408,2.408,0,0,0-.373,2.064,3.634,3.634,0,0,0,2.823.658,6.388,6.388,0,0,0,1.194-.509A3.743,3.743,0,0,0,5569.128,3503.039Zm41.068-3.024a1.425,1.425,0,0,0,.5-1.062,1.006,1.006,0,0,0-.316-.976,5.8,5.8,0,0,0-3.223-1.247,2.28,2.28,0,0,0-1.391.922,6.249,6.249,0,0,0,3.816,2.783Zm-19.487,17.512a1.625,1.625,0,0,0-.415,1.337l.609,1.055a4.547,4.547,0,0,0,1.568-.248l.149-.053.5.118a3.488,3.488,0,0,0,2.33-.267,1.051,1.051,0,0,0-.119-.921,1.78,1.78,0,0,0-1.026-.768l-1.857-.709C5591.79,3517.1,5591.2,3516.993,5590.709,3517.527Zm17.676-.031c.372.069.6.248.948.33a11.349,11.349,0,0,0,1.856.019.781.781,0,0,0,.184-.272,1.246,1.246,0,0,0,.045-.691,2.876,2.876,0,0,0-1.711-1.607,3.729,3.729,0,0,0-2.754-.209,3.148,3.148,0,0,0-.985,1.484l.3.239Zm-9.4-22.443a1.4,1.4,0,0,0-1.083-.827c-.854-.278-2.458-.6-3.276-.089-.6.376-.575.59-.7,1.255a8.876,8.876,0,0,0,2.415,1.32,5.823,5.823,0,0,0,2.092-.21l.257-.066A3.756,3.756,0,0,0,5598.98,3495.053Zm-44.352,17.128a1.107,1.107,0,0,0-.022.556l.129.214a4.037,4.037,0,0,0,2.239-.281,10.2,10.2,0,0,1,1.322-.793l-.039-.334a4.8,4.8,0,0,0,.32-2.1l-.815-.179A5.967,5.967,0,0,0,5554.628,3512.181Zm26.8-14.158a3.268,3.268,0,0,0-2.609.719,1.739,1.739,0,0,0-.423,1.373l.017.371,1.9.475a24.361,24.361,0,0,1,3.143-1.682C5582.861,3498.956,5581.766,3498.579,5581.426,3498.023Zm-21.374,13.418a1.273,1.273,0,0,0-.127-2.166c-.534-.39-1.564-.114-2.163-.016l.815.179a4.8,4.8,0,0,1-.32,2.1l.039.334a10.2,10.2,0,0,0-1.322.793,4.057,4.057,0,0,0,2.507-.652A6.025,6.025,0,0,1,5560.052,3511.441Zm54.274-4.85a1.664,1.664,0,0,0-.456.732l-.169.42a13.744,13.744,0,0,0,1.081,1.063l.258-.281c.054-.6.608-1.042.63-1.668l0-.228a2.076,2.076,0,0,0,.846-.329l.153-.126A3.289,3.289,0,0,0,5614.326,3506.591Z"/>
          <path id="Path_23" data-name="Path 23" d="M5567.373,3505.039a6.388,6.388,0,0,0,1.194-.509,2.561,2.561,0,0,1-.275.672,2.381,2.381,0,0,1-1.6.846,1.983,1.983,0,0,1-1.534-.4,1.369,1.369,0,0,1-.612-1.266A3.634,3.634,0,0,0,5567.373,3505.039Z"/>
          <path id="Path_24" data-name="Path 24" d="M5644.234,3535.384l-2.108.145-3.12.2-.22-.077.326-.454,2.9-.39,2.306-.291Z" fill="#f0ebd5"/>
          <path id="Path_25" data-name="Path 25" d="M5609.578,3500.435a1.694,1.694,0,0,1-.462.311,2.474,2.474,0,0,1-1.87-.127,3.344,3.344,0,0,1-1.732-1.585c-.208-.615-.019-.828.248-1.382A6.249,6.249,0,0,0,5609.578,3500.435Z"/>
          <path id="Path_26" data-name="Path 26" d="M5597.95,3497.3a4,4,0,0,1-2.4.283,2.574,2.574,0,0,1-1.4-.948,1.231,1.231,0,0,1-.221-1.239,8.876,8.876,0,0,0,2.415,1.32,5.823,5.823,0,0,0,2.092-.21l.257-.066A3.014,3.014,0,0,1,5597.95,3497.3Z"/>
          <path id="Path_27" data-name="Path 27" d="M5621.822,3522.288a5.7,5.7,0,0,0,2.2.614l-.092.167a1.341,1.341,0,0,1-.887.6,1.69,1.69,0,0,1-1.467-.187,2.451,2.451,0,0,1-1.226-1.794,1.4,1.4,0,0,1,.362-1.1l.33.106A3.466,3.466,0,0,0,5621.822,3522.288Z"/>
          <path id="Path_28" data-name="Path 28" d="M5615.527,3509.359a1.485,1.485,0,0,0,.628.485l.12.046a.849.849,0,0,0,.514.133c.43.269.824.18,1.283.288.24.057.289.121.547.068l.211-.056.233-.059a.651.651,0,0,1,.471.031l-.311.41a3.158,3.158,0,0,1-1.945.284,4.535,4.535,0,0,1-2.583-1.167,2.464,2.464,0,0,1-.994-2.079,13.744,13.744,0,0,0,1.081,1.063Z"/>
          <path id="Path_29" data-name="Path 29" d="M5577.433,3514.477a4.31,4.31,0,0,1-2.879,1.49,3.646,3.646,0,0,1-2.432-.646,1.511,1.511,0,0,1-.442-1.292c1.6.753,2.912,1.3,4.654.685l1.116-.51Z"/>
          <path id="Path_30" data-name="Path 30" d="M5639.218,3517.312l.34.312c1.14.95,2.463.763,3.826.656-.058.252-.065.23-.251.391a2.647,2.647,0,0,1-2.114.714,4.176,4.176,0,0,1-2.719-1.554,1.611,1.611,0,0,1-.149-1.425l.954.726Z"/>
          <path id="Path_31" data-name="Path 31" d="M5556.974,3512.67a4.057,4.057,0,0,0,2.507-.652l.34.18a3.618,3.618,0,0,1-1.908,1.769,3.659,3.659,0,0,1-2.236.175,3.1,3.1,0,0,1-.9-.707l-.038-.484A4.037,4.037,0,0,0,5556.974,3512.67Z"/>
          <path id="Path_32" data-name="Path 32" d="M5556.974,3512.67a10.2,10.2,0,0,1,1.322-.793l-.039-.334a4.8,4.8,0,0,0,.32-2.1l-.815-.179c.6-.1,1.629-.374,2.163.016a1.273,1.273,0,0,1,.127,2.166,6.025,6.025,0,0,0-.571.577A4.057,4.057,0,0,1,5556.974,3512.67Z"/>
          <path id="Path_33" data-name="Path 33" d="M5628.741,3506.67a11.449,11.449,0,0,0,1.959.363l.626.148a1.5,1.5,0,0,1-.666.629,3.424,3.424,0,0,1-2.6.088,2.564,2.564,0,0,1-1.613-1.472c-.335-.746-.073-.961.174-1.621l.046-.136A3.226,3.226,0,0,0,5628.741,3506.67Z"/>
          <path id="Path_34" data-name="Path 34" d="M5572.709,3513.853a3.034,3.034,0,0,1,.485.1c.279-.216.509-.131.742-.3.826-.61,2.954-.464,3.912-.182l.113.045-.511.694-1.116.51c-1.742.617-3.057.068-4.654-.685a3.131,3.131,0,0,1,.043-.793A2.606,2.606,0,0,0,5572.709,3513.853Z"/>
          <path id="Path_35" data-name="Path 35" d="M5597.17,3507.808a7.054,7.054,0,0,0,1.266-.3l.09.258a3.258,3.258,0,0,1-1.56,1.118,4.93,4.93,0,0,1-3.615-.5,2.675,2.675,0,0,1-1.384-1.966l.247-.29C5593.88,3507.461,5594.989,3508.065,5597.17,3507.808Z"/>
          <path id="Path_36" data-name="Path 36" d="M5606.271,3516.789a3.4,3.4,0,0,0,1.243.949,4.637,4.637,0,0,0,1.138.553,1.415,1.415,0,0,1,.427.131,2.781,2.781,0,0,0,1.734.064l.148.152a2.684,2.684,0,0,1-.723.822,2.883,2.883,0,0,1-2.163.239,3.634,3.634,0,0,1-2.3-1.54,2.167,2.167,0,0,1,.2-1.609Z"/>
          <path id="Path_37" data-name="Path 37" d="M5590.9,3519.919a4.307,4.307,0,0,0,1.276.619c.823.3,1.735-.242,2.445.083a2.5,2.5,0,0,1-1.085,1.014,3.565,3.565,0,0,1-2.779.111,2.064,2.064,0,0,1-1.327-1.183,3.512,3.512,0,0,1,.332-1.416c.095-.2.327-.213.529-.283Z"/>
          <path id="Path_38" data-name="Path 38" d="M5598.436,3507.508a7.054,7.054,0,0,1-1.266.3c-2.181.257-3.29-.347-4.956-1.682l.028-.121c.578.068.5-.011,1.016-.157.422-.119,1.062.47,1.327.725.863.033,2.127-.639,2.862-.51.522.092.783.619,1.438.6A2.3,2.3,0,0,1,5598.436,3507.508Z"/>
          <path id="Path_39" data-name="Path 39" d="M5621.822,3522.288a3.466,3.466,0,0,1-.779-1.593,3.64,3.64,0,0,0,1.321.429.693.693,0,0,0,.472-.453,1.642,1.642,0,0,0,.061-.341l.065-.257a.929.929,0,0,1-.216-.706,2.5,2.5,0,0,1,1.734.766,1.486,1.486,0,0,1,.5,1.183c-.045.706-.717,1.028-.952,1.586A5.7,5.7,0,0,1,5621.822,3522.288Z"/>
          <path id="Path_40" data-name="Path 40" d="M5557.6,3529.564l-.2.286a12.513,12.513,0,0,1-3.145-.966c-2.468-.855-6.651-2.061-7.838-4.517a39.326,39.326,0,0,0,12.187,4.694A1.546,1.546,0,0,1,5557.6,3529.564Z" fill="#f0ebd5"/>
          <path id="Path_41" data-name="Path 41" d="M5605.968,3516.55a3.148,3.148,0,0,1,.985-1.484,3.729,3.729,0,0,1,2.754.209,2.876,2.876,0,0,1,1.711,1.607,1.246,1.246,0,0,1-.045.691.781.781,0,0,1-.184.272,11.349,11.349,0,0,1-1.856-.019c-.35-.082-.576-.261-.948-.33l-2.114-.707Z"/>
          <path id="Path_42" data-name="Path 42" d="M5594.308,3517.78a1.78,1.78,0,0,1,1.026.768,1.051,1.051,0,0,1,.119.921,3.488,3.488,0,0,1-2.33.267l-.5-.118-.149.053a4.547,4.547,0,0,1-1.568.248l-.609-1.055a1.625,1.625,0,0,1,.415-1.337c.489-.534,1.081-.425,1.742-.456Zm-3.6-.253a1.625,1.625,0,0,0-.415,1.337l.112.09a2.286,2.286,0,0,0,1.641.546l.48-.723a2.306,2.306,0,0,0-.076-1.706C5591.79,3517.1,5591.2,3516.993,5590.709,3517.527Z"/>
          <path id="Path_43" data-name="Path 43" d="M5652.492,3533a19.844,19.844,0,0,1-8.258,2.389l.08-.862a21.283,21.283,0,0,0,6.329-1.723c1.413-.712,2.754-1.922,4.312-2.263A4.445,4.445,0,0,1,5652.492,3533Z" fill="#f0ebd5"/>
          <path id="Path_44" data-name="Path 44" d="M5584.627,3501.222a6.613,6.613,0,0,1-4.338.9,2.879,2.879,0,0,1-1.695-.926l-.183-.713,1.9.475a24.361,24.361,0,0,1,3.143-1.682l2.182-.171a.919.919,0,0,1-.11.752A1.72,1.72,0,0,1,5584.627,3501.222Z"/>
          <path id="Path_45" data-name="Path 45" d="M5580.311,3500.961a24.361,24.361,0,0,1,3.143-1.682l2.182-.171a.919.919,0,0,1-.11.752A9.992,9.992,0,0,1,5580.311,3500.961Z"/>
          <path id="Path_46" data-name="Path 46" d="M5614.782,3508.806l.258-.281c.054-.6.608-1.042.63-1.668l0-.228a2.076,2.076,0,0,0,.846-.329l.153-.126a4.448,4.448,0,0,1,3.289,1.485,1.369,1.369,0,0,1-.321,2.122,2.041,2.041,0,0,1-.847-.13,11.76,11.76,0,0,0-3.261-.292Z"/>
          <path id="Path_47" data-name="Path 47" d="M5577.848,3513.465c-.958-.282-3.086-.428-3.912.182-.233.172-.463.087-.742.3a3.034,3.034,0,0,0-.485-.1,2.606,2.606,0,0,1-.986-.617,2.217,2.217,0,0,1,.187-.794l.061-.34c.265-.3.37-.2.644-.424l.2-.141.176-.152a4.383,4.383,0,0,1,2.683-.6,3.936,3.936,0,0,1,2.272,1.154,1.284,1.284,0,0,1,.2,1.252,1.16,1.16,0,0,1-.186.322Z"/>
          <path id="Path_48" data-name="Path 48" d="M5597.447,3506.063c-.735-.129-2,.543-2.862.51-.265-.255-.9-.844-1.327-.725-.517.146-.438.225-1.016.157a1.662,1.662,0,0,1,.335-1.469,1.9,1.9,0,0,1,1.223-.878,5.323,5.323,0,0,1,3.928.821,2.791,2.791,0,0,1,1.232,1.853l-.075.336C5598.23,3506.682,5597.969,3506.155,5597.447,3506.063Z"/>
          <path id="Path_49" data-name="Path 49" d="M5639.218,3517.312l-.113-.18c.741-.638.375-2.42,1.336-2.417a4.376,4.376,0,0,1,1.871.5l.222.38-.083.221a1.48,1.48,0,0,0,.092,1.271c.1.187.262.32.374.494l.031.1A17.118,17.118,0,0,0,5639.218,3517.312Z"/>
          <path id="Path_50" data-name="Path 50" d="M5544.322,3522.249c.253.317,2.074,1.957,2.09,2.118,1.187,2.456,5.37,3.662,7.838,4.517a12.513,12.513,0,0,0,3.145.966l.2-.286a1.546,1.546,0,0,0,1-.5l43.576,6.087,16.366,1.165,6.709-.362a69.223,69.223,0,0,1,8.894-.479,16.7,16.7,0,0,1,2.37-.125l2.6-.144-.326.454.22.077,3.12-.2,2.108-.145a19.844,19.844,0,0,0,8.258-2.389,4.445,4.445,0,0,0,2.463-2.459,3.682,3.682,0,0,1,3.115,1.215,6.282,6.282,0,0,1,1.594,4.488,5.95,5.95,0,0,1-1.778,4.387,4.317,4.317,0,0,1-1.088.686l-.2.114c-.581.233-1.425-.162-2.017-.045l-.2-.028a9.194,9.194,0,0,1-2.908-1.307,2.413,2.413,0,0,0,.05,1.153c.5.1,1.153,0,1.507.347a10.915,10.915,0,0,1-1.485,1.592l-.078.3c-.465.512-.869.406-1.533.467l-.088-.188-.244-.272-.062.153a4.2,4.2,0,0,1-1.043,1.065,22.367,22.367,0,0,1-7.761,4.095l-11.556,2.89-.074.688a5.191,5.191,0,0,1-1.28-.211l-.08-.509-.089.044-.148.07c-2.374,1.165-5.671,1.3-8.267,1.547-4.706.455-9.13,1.109-13.883.961-3.915-.121-7.736-.83-11.67-.8a10.654,10.654,0,0,0-1.769-.1c-4.857-.284-9.825-.558-14.644-1.232a96.754,96.754,0,0,1-16.132-3.785c-4.063-1.3-8.444-2.843-11.814-5.528a14.135,14.135,0,0,1-4.4-5.592,12.141,12.141,0,0,1-.463-2.589,7.446,7.446,0,0,0-.384-1.112l-.25.423-.131-.059a4.587,4.587,0,0,1,.07-1.742l.221.114.066-.643-.34-.341a1.875,1.875,0,0,0-.2-1.011l-1.216-.005a9.3,9.3,0,0,1-3.565-.625,7.69,7.69,0,0,1-4.279-4.327,2.452,2.452,0,0,1-.108-.533,5.314,5.314,0,0,1,1.134-3.768c1.983-2.281,4.977-2.166,7.732-2.35A7.345,7.345,0,0,0,5544.322,3522.249Zm42.282,16.2a4.721,4.721,0,0,0-1.069.29,38.31,38.31,0,0,0-4.295,2.018,15.739,15.739,0,0,1-9.167.82c-4.987-.909-8.571-4.867-11.331-8.847-3.844,2.116-9.9,2.982-13.661.21-.828-.61-1.939-2.124-2.869-2.348l-.156.994-.066.643-.221-.114a4.587,4.587,0,0,0-.07,1.742l.131.059.25-.423a7.446,7.446,0,0,1,.384,1.112,12.141,12.141,0,0,0,.463,2.589,14.135,14.135,0,0,0,4.4,5.592c3.37,2.685,7.751,4.225,11.814,5.528a96.754,96.754,0,0,0,16.132,3.785c4.819.674,9.787.948,14.644,1.232a10.654,10.654,0,0,1,1.769.1c3.934-.028,7.755.681,11.67.8,4.753.148,9.177-.506,13.883-.961,2.6-.25,5.893-.382,8.267-1.547l.148-.07.089-.044a19.539,19.539,0,0,0,.192-3.61c.2-1.669,0-3.579.445-5.18l1.319-1.032.363-1.584-1.464.285c-1.863.749-3.544,2.049-5.479,2.6a9.037,9.037,0,0,1-4.123.373c-2.925-.542-5.267-2.606-8.438-2.068-2.705.46-4.355,2.149-6.773,3.18a10.822,10.822,0,0,1-4.832.642c-3.036-.167-6.63-1.057-8.853-3.253-.813-.8-1.436-1.853-2.22-2.712A7.179,7.179,0,0,0,5586.6,3538.451Zm68.77-5a6.064,6.064,0,0,1-.787,1.44l-.1.143c.027.538-.046.677.335,1.078l1.237-.159a3.962,3.962,0,0,0,1.712-.631l-.083-.382a2.456,2.456,0,0,0-1.089-.455,1.811,1.811,0,0,1-.669-.161,1.859,1.859,0,0,0-.084-.888Z" fill="#f0ebd5"/>
          <path id="Path_51" data-name="Path 51" d="M5655.925,3534.324a1.811,1.811,0,0,0,.669.161,2.456,2.456,0,0,1,1.089.455l.083.382a3.962,3.962,0,0,1-1.712.631l-1.237.159c-.381-.4-.308-.54-.335-1.078l.1-.143a6.064,6.064,0,0,0,.787-1.44l.467-.015A1.859,1.859,0,0,1,5655.925,3534.324Z" fill="#f0ebd5"/>
          <path id="Path_52" data-name="Path 52" d="M5628.241,3535.953l-.156.591-7.811.123-.018-.032a2.206,2.206,0,0,1-1.715-.322l6.709-.362C5625.866,3535.925,5627.836,3535.614,5628.241,3535.953Z" fill="#f0ebd5"/>
          <path id="Path_53" data-name="Path 53" d="M5639.112,3535.2l-.326.454.22.077a74.94,74.94,0,0,1-8.071.725,10.045,10.045,0,0,1-2.85.085l.156-.591c-.405-.339-2.375-.028-2.991,0a69.223,69.223,0,0,1,8.894-.479,16.7,16.7,0,0,1,2.37-.125Z" fill="#f0ebd5"/>
          <path id="Path_54" data-name="Path 54" d="M5654.38,3541.353a9.194,9.194,0,0,1-2.908-1.307,2.413,2.413,0,0,0,.05,1.153c.5.1,1.153,0,1.507.347a10.915,10.915,0,0,1-1.485,1.592l-.078.3c-.465.512-.869.406-1.533.467l-.088-.188a11.731,11.731,0,0,0-.142-4.255,23.792,23.792,0,0,0-3.878,2.316l-.887-.307c1.224-.934,3.942-3.322,5.508-3.02,1.005.193,1.988,1.263,2.81,1.84.39.273.965.5,1.223.91l.1.183Z"/>
          <path id="Path_55" data-name="Path 55" d="M5590.835,3541.6a15.516,15.516,0,0,0,8.984,2.936c4.319-.023,7.778-3.521,12.133-3.682,3.278-.122,7.017,2.68,10.135,1.632l7.744-2.736c1.873-.269,3.583.669,5.216,1.495,2.113,1.069,4.511,2.136,6.932,1.524a9.417,9.417,0,0,0,2.959-1.3l.887.307a8.7,8.7,0,0,1-2.364,1.134,10.7,10.7,0,0,1-8.817-.753,1.345,1.345,0,0,1-.752-.073l.067-.2a8.117,8.117,0,0,0-3.64-1.953l-.255.278-1.464.285c-1.863.749-3.544,2.049-5.479,2.6a9.037,9.037,0,0,1-4.123.373c-2.925-.542-5.267-2.606-8.438-2.068-2.705.46-4.355,2.149-6.773,3.18a10.822,10.822,0,0,1-4.832.642c-3.036-.167-6.63-1.057-8.853-3.253-.813-.8-1.436-1.853-2.22-2.712l.232-.255A27.767,27.767,0,0,0,5590.835,3541.6Z" fill="#f0ebd5"/>
          <path id="Path_56" data-name="Path 56" d="M5587.882,3539.258a7.179,7.179,0,0,0-1.278-.807,4.721,4.721,0,0,0-1.069.29,38.31,38.31,0,0,0-4.295,2.018,15.739,15.739,0,0,1-9.167.82c-4.987-.909-8.571-4.867-11.331-8.847-3.844,2.116-9.9,2.982-13.661.21-.828-.61-1.939-2.124-2.869-2.348l-.156.994-.34-.341a1.875,1.875,0,0,0-.2-1.011l-1.216-.005a9.3,9.3,0,0,1-3.565-.625,7.69,7.69,0,0,1-4.279-4.327l.1.065a19.342,19.342,0,0,1,1.8,1.81,8.593,8.593,0,0,0,6.345,1.966l.65-.141.839-.216a27.722,27.722,0,0,0,2.619,2.758,12.149,12.149,0,0,0,6.671,2.169,18.377,18.377,0,0,0,7.53-1.713,5.66,5.66,0,0,1,.692,1.383,12.586,12.586,0,0,0,1.246,1.692c3.445,4.344,8.069,6.239,13.569,6.348a8.012,8.012,0,0,0,2.2-.467,47.96,47.96,0,0,0,4.892-1.748c.838-.346,2.554-1.291,3.442-.963a3.3,3.3,0,0,1,.939.643l.134.138Z" fill="#f0ebd5"/>
          <path id="Path_57" data-name="Path 57" d="M5618.541,3536.313a2.206,2.206,0,0,0,1.715.322l.018.032a9.364,9.364,0,0,1-2.017.132,75.335,75.335,0,0,1-11.686-.405c-1.362-.139-2.77-.171-4.112-.438a44.2,44.2,0,0,1-6.53-.737l-9.075-1.27c-5.314-.629-10.7-.3-16-.912a17.846,17.846,0,0,1-3.715-.76c-.97-.325-1.943-.828-2.935-1.054-2.269-.517-4.527-.756-6.8-1.373l.2-.286a1.546,1.546,0,0,0,1-.5l43.576,6.087Z" fill="#f0ebd5"/>
          <path id="Path_58" data-name="Path 58" d="M5633.959,3541.882l-.067.2a1.345,1.345,0,0,0,.752.073,10.7,10.7,0,0,0,8.817.753,8.7,8.7,0,0,0,2.364-1.134,23.792,23.792,0,0,1,3.878-2.316,11.731,11.731,0,0,1,.142,4.255l-.244-.272-.062.153a4.2,4.2,0,0,1-1.043,1.065,22.367,22.367,0,0,1-7.761,4.095l-11.556,2.89-.074.688a5.191,5.191,0,0,1-1.28-.211l-.08-.509a19.539,19.539,0,0,0,.192-3.61c.2-1.669,0-3.579.445-5.18l1.319-1.032.363-1.584.255-.278A8.117,8.117,0,0,1,5633.959,3541.882Z"/>
          <path id="Path_59" data-name="Path 59" d="M5629.65,3548.012l-.471,3.633-.074.688a5.191,5.191,0,0,1-1.28-.211l-.08-.509a19.539,19.539,0,0,0,.192-3.61Z"/>
          <path id="Path_60" data-name="Path 60" d="M5629.65,3548.012l-1.713-.009c.2-1.669,0-3.579.445-5.18l1.319-1.032A32.415,32.415,0,0,1,5629.65,3548.012Z"/>
          <path id="Path_61" data-name="Path 61" d="M5590.1,3541.97c2.223,2.2,5.817,3.086,8.853,3.253a10.822,10.822,0,0,0,4.832-.642c2.418-1.031,4.068-2.72,6.773-3.18,3.171-.538,5.513,1.526,8.438,2.068a9.037,9.037,0,0,0,4.123-.373c1.935-.555,3.616-1.855,5.479-2.6l1.464-.285-.363,1.584-1.319,1.032c-.44,1.6-.248,3.511-.445,5.18a19.539,19.539,0,0,1-.192,3.61l-.089.044-.148.07c-2.374,1.165-5.671,1.3-8.267,1.547-4.706.455-9.13,1.109-13.883.961-3.915-.121-7.736-.83-11.67-.8a10.654,10.654,0,0,0-1.769-.1c-4.857-.284-9.825-.558-14.644-1.232a96.754,96.754,0,0,1-16.132-3.785c-4.063-1.3-8.444-2.843-11.814-5.528a14.135,14.135,0,0,1-4.4-5.592,12.141,12.141,0,0,1-.463-2.589,7.446,7.446,0,0,0-.384-1.112l-.25.423-.131-.059a4.587,4.587,0,0,1,.07-1.742l.221.114.066-.643.156-.994c.93.224,2.041,1.738,2.869,2.348,3.766,2.772,9.817,1.906,13.661-.21,2.76,3.98,6.344,7.938,11.331,8.847a15.739,15.739,0,0,0,9.167-.82,38.31,38.31,0,0,1,4.295-2.018,4.721,4.721,0,0,1,1.069-.29,7.179,7.179,0,0,1,1.278.807C5588.666,3540.117,5589.289,3541.166,5590.1,3541.97Zm38.5-1.478-.218,2.331,1.319-1.032.363-1.584Z"/>
          <path id="Path_62" data-name="Path 62" d="M5629.7,3541.791l-1.319,1.032.218-2.331,1.464-.285Z"/>
          <path id="Path_63" data-name="Path 63" d="M5544.927,3537.2a14.135,14.135,0,0,0,4.4,5.592c3.37,2.685,7.751,4.225,11.814,5.528a96.754,96.754,0,0,0,16.132,3.785c4.819.674,9.787.948,14.644,1.232a10.654,10.654,0,0,1,1.769.1c3.934-.028,7.755.681,11.67.8,4.753.148,9.177-.506,13.883-.961,2.6-.25,5.893-.382,8.267-1.547l.148-.07.089-.044.08.509a5.191,5.191,0,0,0,1.28.211l.074-.688,11.556-2.89a22.367,22.367,0,0,0,7.761-4.095,4.2,4.2,0,0,0,1.043-1.065l.062-.153.244.272.088.188a50.415,50.415,0,0,1,.362,5.889l-.619,9.268-2.951,32.543a3.83,3.83,0,0,1,1.19.208,8.387,8.387,0,0,0-.02,1.671l.18-.142a6.633,6.633,0,0,0,1.649-1.977c.36-.622.857-1.991,1.464-2.323a1.122,1.122,0,0,1,.663.193,2.42,2.42,0,0,0,1.151.638,1.062,1.062,0,0,1,.074,1.089c-.189.513-.647.926-.64,1.478a2.893,2.893,0,0,0,1.321-.366c.439.26.426.283.6.731l-.053.341a2.482,2.482,0,0,1-.217,2.379,6.129,6.129,0,0,0-.5.81l.381.459c-.315.664-2.385,1.533-3.052,2.063a42.237,42.237,0,0,0-4.758,4.652l8.26,19.46,1.494,2.859.181.131c1.6,1.146,3.4,1.885,5.093,2.866,3.506,2.038,6.359,5.5,8.589,8.822l.234-.042c3.94-.67,7.716.727,10.858,3.024,2.039,1.491,4.229,3.722,4.634,6.338a3.483,3.483,0,0,1-1.134,2.558,14.065,14.065,0,0,1-2.908,2.715,4.648,4.648,0,0,1-.765,1.2l1.152,2.7a2.487,2.487,0,0,1,.7,2.026,7.436,7.436,0,0,1-1.308,3.176c-2.1,3.264-5.242,5.2-7.888,7.9-.381,1.937-.557,3.874-1.129,5.773a57.511,57.511,0,0,1-10.139,18.7c-.949,1.22-1.852,2.548-2.919,3.668-1.322,1.388-2.914,2.562-4.341,3.844a47.289,47.289,0,0,1-5.364,4.506c-1.307.876-2.621,1.766-4,2.523-2.488,1.366-4.927,2.08-6.79,4.383,2.022,2.472,4.57,5.041,7.635,6.167l3.466-2.311c1.67.987,3.32,2.423,5.113,3.126a9.55,9.55,0,0,0,2.462.462,4.6,4.6,0,0,1-1.7,1.632c-1.525-.161-2.819-1.17-4.333-1.462a11.654,11.654,0,0,0,1.757,6.025,13.883,13.883,0,0,0,2.085,1.027,56.141,56.141,0,0,1-1.553,7.9,6.921,6.921,0,0,1-1.276,2.571l-.573.23c-.353-.191-.344-.165-.463-.552-.521-1.7-.208-3.7-.546-5.464a8.818,8.818,0,0,0-1.618-3.044c-1.682-2.491-3.186-4.671-5.9-6.149l-5-2.714c-1.974-1.148-4.09-2.739-6.269-3.43a44.518,44.518,0,0,1-8.316,3.777,92.8,92.8,0,0,1-14.166,4.218c-3.608.731-7.428,1.128-11.086,1.544l.017.206a43.347,43.347,0,0,0,1.206,5.758,38.431,38.431,0,0,0,1.994,7.336c1.381-.132,3.41-.525,4.539.509,1.2,1.1.635,3.166,1.923,4.383l1.918,1.674,0,.429c-.39.344-.441.493-.975.5-.9-.5-1.916-1.569-2.9-1.693a1.7,1.7,0,0,0-1.2,1,2.582,2.582,0,0,0,.186,2.23l1.148,2.547c-.514.819-1.117,1.54-1.647,2.337-1.54,2.318-3.5,5.277-6.43,5.912l-.713.1a4.08,4.08,0,0,1,.133-2.652,19.092,19.092,0,0,1,1.663-3.494,8.048,8.048,0,0,0,.829-1.611c.186-.764-.328-2.1-.431-2.9-.14-1.08-.017-2.22-.068-3.311a13.621,13.621,0,0,0-1.357-5.423l-7.455-12.442-11.5-18.89-.037-.134a24.2,24.2,0,0,1-3.213-5.7l-.4-2.678.109-.666a7.8,7.8,0,0,0,.262-1.388l1.414-3.761-8.062-2.927a21.988,21.988,0,0,1-4.784-2.067,8.95,8.95,0,0,1-2.134-2.422c.149-1.393.119-2.791.3-4.192a64.017,64.017,0,0,1,3.23-13.144,47.44,47.44,0,0,1,1.776-4.607c.773-1.615,1.879-3.1,2.722-4.7a59.059,59.059,0,0,1,11.5-15.745,2.271,2.271,0,0,0,0-1.576,11.68,11.68,0,0,1-2.306-.039l-.134-.023a72.437,72.437,0,0,0-17.619,2.6,26.982,26.982,0,0,0-4.211,1.479,37.635,37.635,0,0,0-6.926,4.834,41.375,41.375,0,0,0-4.423,3.929l-2.184,2.4-6.2-16.917a18.959,18.959,0,0,1-.687-3.1c-.279-1.46-.585-2.9-.726-4.379a7.556,7.556,0,0,0-1.389-.609,6.424,6.424,0,0,0-2.833-1.965,5.116,5.116,0,0,1-1.789-.547.942.942,0,0,1-.471-.746,13.221,13.221,0,0,1-.434-2.119,1.294,1.294,0,0,0,.483-.539c-.718-1.578.085-1.97.322-3.431l.019-.128a5.173,5.173,0,0,0,1.072-1.509c.363-.024.409-.067.691.184a14.235,14.235,0,0,1,2.308,3.163,1.667,1.667,0,0,0,.588,1c.919-.574.769.108,1.544-.025a2.7,2.7,0,0,0-.763-1.6c.016-.547.156-.563.534-.935a1.86,1.86,0,0,1-.334-.281.76.76,0,0,1-.152-.386,23.19,23.19,0,0,1-.2-3.545,51.5,51.5,0,0,1,.056-6.48c.417-4.274,1.379-8.493,1.94-12.747.4-3.017.2-6.093.513-9.122.3-2.936,1.1-5.781,1.326-8.728.191-2.436-.03-4.844-.039-7.279a93.826,93.826,0,0,1,.527-10.263c.267-2.49,1.059-4.822,1.513-7.27.571-3.077.765-6.229,1.136-9.334a54.245,54.245,0,0,0,.677-5.723c.107-2.509-.031-5.127.28-7.614a1.186,1.186,0,0,1,.406-.935l.416.344A12.141,12.141,0,0,0,5544.927,3537.2Zm-.879-2.933a1.186,1.186,0,0,0-.406.935c-.311,2.487-.173,5.1-.28,7.614a54.245,54.245,0,0,1-.677,5.723c-.371,3.1-.565,6.257-1.136,9.334-.454,2.448-1.246,4.78-1.513,7.27a93.826,93.826,0,0,0-.527,10.263c.009,2.435.23,4.843.039,7.279-.23,2.947-1.023,5.792-1.326,8.728-.312,3.029-.116,6.1-.513,9.122-.561,4.254-1.523,8.473-1.94,12.747a51.5,51.5,0,0,0-.056,6.48,23.19,23.19,0,0,0,.2,3.545.76.76,0,0,0,.152.386,1.86,1.86,0,0,0,.334.281,3.451,3.451,0,0,1,1.223,1.249c.557,1.255.108,3.209,1,4.289.6.725,2.533.765,3.473.808,1.638.073,3.392-.185,5.039-.259a110.11,110.11,0,0,1,14.78-.07l16.233-14.444a8.723,8.723,0,0,0-.7-1.888,10.39,10.39,0,0,1,3.293-1.866l1.487-.883,1.164-.38a3.133,3.133,0,0,0,.839-.766c-.405-.246-.54-.292-.766-.722.016-1.629-.052-5.673.956-6.9a4.454,4.454,0,0,0-.709-2.626,2.648,2.648,0,0,0-.3-.3,6.63,6.63,0,0,0-1.309-.947,6.37,6.37,0,0,0-2,.155l-.135-.254.458-.636-.141-.12-.294.087a1.658,1.658,0,0,1-1.407-.244c.115-.688-.2-.721-.172-1.334-.118-.007-.067.007-.188-.057-.349-.184-.333-.18-.457-.573a1.054,1.054,0,0,1,.39-.587l.169-.115a1.464,1.464,0,0,0-.833-.56,3.235,3.235,0,0,1-1.014-.5,5.122,5.122,0,0,0-.761-1.226.946.946,0,0,1-.162-.562c.344-.356.655-.32,1.009-.569.424-.3.09-.444-.1-.77a2.266,2.266,0,0,1-.176-.4c0-.05.381-.29.429-.367a7.505,7.505,0,0,0,.612-2.8l-.225-.12a5.111,5.111,0,0,1-2.816-3.257,4.921,4.921,0,0,1,.548-3.713,3.688,3.688,0,0,1,2.741-1.773,7.568,7.568,0,0,1,2.73-.036,15.189,15.189,0,0,1,1.5,4.509c1.038-.374,3-1.108,4.1-.855l.175.048a6.525,6.525,0,0,1,2.076,1.033,8.488,8.488,0,0,0,.338-2.449c.14-1.344.365-2.663.445-4.015a72.7,72.7,0,0,1,.813-10.277c.4-2.3,1.173-4.458,1.642-6.729a36.656,36.656,0,0,0,.516-5.877c-4.857-.284-9.825-.558-14.644-1.232a96.754,96.754,0,0,1-16.132-3.785c-4.063-1.3-8.444-2.843-11.814-5.528a14.135,14.135,0,0,1-4.4-5.592,12.141,12.141,0,0,1-.463-2.589Zm105.553,9.179-.062.153a4.2,4.2,0,0,1-1.043,1.065,22.367,22.367,0,0,1-7.761,4.095l-11.556,2.89-.074.688a5.191,5.191,0,0,1-1.28-.211l-.08-.509-.089.044-.148.07c-2.374,1.165-5.671,1.3-8.267,1.547-4.706.455-9.13,1.109-13.883.961-3.915-.121-7.736-.83-11.67-.8a10.654,10.654,0,0,0-1.769-.1,36.656,36.656,0,0,1-.516,5.877c-.469,2.271-1.238,4.426-1.642,6.729a72.7,72.7,0,0,0-.813,10.277c-.08,1.352-.305,2.671-.445,4.015a8.488,8.488,0,0,1-.338,2.449,15.5,15.5,0,0,1,1.154,1.384,3.092,3.092,0,0,0,1.081,2.377c.629.524,1.431.634,2,1.262a3.2,3.2,0,0,1-.244,1.28,1.863,1.863,0,0,0,.762,1.292c.5.392,1.094.637,1.563,1.072-.172.676-.559.81-.46,1.464a1.015,1.015,0,0,0,.448.39c.533.3.614.3.78.87l-.27.4-1.114.08c-.311,1.273.739,1.633-.8,2.614a13.739,13.739,0,0,1-3.755,1.379c.924,3.112,2.1,6.447,5.144,8.082a1.976,1.976,0,0,0,1.63.064c.559-.2,1.319-1.016,1.773-1.1a9.832,9.832,0,0,1,2.716.373c4.656.9,9.189,2.405,13.77,3.619l10.517,2.68.717.032a4.328,4.328,0,0,0,1.156.194,1.543,1.543,0,0,0,1-.242c2.11-1.328,3.913-3.108,5.98-4.517,2.832-1.929,6.3-3.27,8.713-5.751a7.135,7.135,0,0,0,1.7-6.669,14.618,14.618,0,0,1-.7-3.088c.367-.416.393-.548.956-.646l.2.147c.945.792,1.035,3.137,1.18,4.306l.833-2.114a2,2,0,0,0,1.305-.435,8.387,8.387,0,0,1,.02-1.671,3.83,3.83,0,0,0-1.19-.208l2.951-32.543.619-9.268a50.415,50.415,0,0,0-.362-5.889l-.088-.188Zm25.554,109.049a5.055,5.055,0,0,0-2.319-1.87l-.432.263a19.861,19.861,0,0,0-3.566,2.2c-2.968,2.209-7.344,2.6-10.939,2.763a25.67,25.67,0,0,1-4.795-.068l-1.625-.283a19.34,19.34,0,0,1-7.317,11.791,23.881,23.881,0,0,1-7.651,3.018,44.223,44.223,0,0,0-3.567,4.94l-10.56,12.972a16.387,16.387,0,0,0-1.3,1.877l-4.606,5.017a13.936,13.936,0,0,0,4.213,1.349,35.263,35.263,0,0,1,12.93,10.2,62.89,62.89,0,0,0,5.033,5.96c1.863-2.3,4.3-3.017,6.79-4.383,1.38-.757,2.694-1.647,4-2.523a47.289,47.289,0,0,0,5.364-4.506c1.427-1.282,3.019-2.456,4.341-3.844,1.067-1.12,1.97-2.448,2.919-3.668a57.511,57.511,0,0,0,10.139-18.7c.572-1.9.748-3.836,1.129-5.773,2.646-2.7,5.79-4.631,7.888-7.9a7.436,7.436,0,0,0,1.308-3.176,2.487,2.487,0,0,0-.7-2.026l-1.152-2.7a4.648,4.648,0,0,0,.765-1.2,10.847,10.847,0,0,1-3.446.451,8.692,8.692,0,0,0-2.757.037Zm-29.644-48.428c-2.6,2.573-5.064,5.283-7.826,7.682-1.377,1.2-2.883,2.2-4.318,3.32a26.173,26.173,0,0,1-3.351,2.55l-4.376-.18.205,3.345-.111.216a3.88,3.88,0,0,0-.861-.1l1.095,13.817.713.31c5.95,3.961,10.874,9.54,12.355,16.734a28.692,28.692,0,0,1-1.83,17.088,9.027,9.027,0,0,0-.695,1.462,23.881,23.881,0,0,0,7.651-3.018,19.34,19.34,0,0,0,7.317-11.791l1.625.283a25.67,25.67,0,0,0,4.795.068c3.6-.166,7.971-.554,10.939-2.763a19.861,19.861,0,0,1,3.566-2.2l.432-.263a5.055,5.055,0,0,1,2.319,1.87l.092.234a8.692,8.692,0,0,1,2.757-.037,10.847,10.847,0,0,0,3.446-.451,14.065,14.065,0,0,0,2.908-2.715,3.483,3.483,0,0,0,1.134-2.558c-.405-2.616-2.6-4.847-4.634-6.338-3.142-2.3-6.918-3.694-10.858-3.024l-.234.042c-2.23-3.32-5.083-6.784-8.589-8.822-1.688-.981-3.5-1.72-5.093-2.866l-.181-.131-1.494-2.859-8.26-19.46Zm-65.474,19.891c-5.2,4.033-10.279,9.344-16.848,11.006a28.085,28.085,0,0,1-6.989.637,68.509,68.509,0,0,1-8.537-.43l-11.149-1.4c.141,1.482.447,2.919.726,4.379a18.959,18.959,0,0,0,.687,3.1l6.2,16.917,2.184-2.4a41.375,41.375,0,0,1,4.423-3.929,37.635,37.635,0,0,1,6.926-4.834,26.982,26.982,0,0,1,4.211-1.479,72.437,72.437,0,0,1,17.619-2.6l.134.023a11.68,11.68,0,0,0,2.306.039,2.271,2.271,0,0,1,0,1.576l1.989-1.563c-.221-.159-.173-.087-.3-.316-.57-1.023.086-3.787.21-4.946a64.156,64.156,0,0,1,.94-8.151,4.439,4.439,0,0,0-1.1-1.306Zm8.918,82.35c2.389,2.76,4.92,5.608,6.533,8.911,1.656,3.391,2.323,7.266,2.888,10.967,3.658-.416,7.478-.813,11.086-1.544a92.8,92.8,0,0,0,14.166-4.218,44.518,44.518,0,0,0,8.316-3.777,62.589,62.589,0,0,0-8.241-5.118l-6.891-4.182c-3.295-1.976-6.337-3.871-8.805-6.861Zm17.083-89.648a32.209,32.209,0,0,1-1.3,6.067,22.66,22.66,0,0,0-1.479,4.334,1.853,1.853,0,0,0,.361,1.376,3.473,3.473,0,0,0,1.9,1.228l.536.154a96.755,96.755,0,0,1,9.73.96,30.568,30.568,0,0,1,10.177,3.939l-1.095-13.817a3.88,3.88,0,0,1,.861.1l.111-.216-.205-3.345-.865.108Zm-22.2,21.082c-.124,1.159-.78,3.923-.21,4.946.127.229.079.157.3.316a10.71,10.71,0,0,0,1.662-.932c1.57-1.1,4.26-3.241,4.612-5.208-.248-1.714-4.218-5.759-5.424-7.273A64.156,64.156,0,0,0,5583.835,3637.738Zm-.376-28.7c.226.43.361.476.766.722a4.219,4.219,0,0,0,1.3-1.511c.744-1.664-.5-4.474-1.108-6.109C5583.407,3603.365,5583.475,3607.409,5583.459,3609.038Zm28.81,22.935a2.544,2.544,0,0,0-1.43,1.25c-.271.5-.159.687.03,1.177a2.8,2.8,0,0,0,1.613.847,1.083,1.083,0,0,0,.75-.12,2.258,2.258,0,0,0,1.113-1.306,1.483,1.483,0,0,0-.341-1.324,1.935,1.935,0,0,0-1.288-.583Z"/>
          <path id="Path_64" data-name="Path 64" d="M5617.43,3681.98a4.1,4.1,0,0,1-1,.214l-.25-.348.522-1.045.312-.023C5617.293,3681.23,5617.54,3681.434,5617.43,3681.98Z" fill="#f0ebd5"/>
          <path id="Path_65" data-name="Path 65" d="M5586.43,3699.918l.371-1.9a8.914,8.914,0,0,1,2.055,1.383Z" fill="#f0ebd5"/>
          <path id="Path_66" data-name="Path 66" d="M5654.083,3595.522a6.129,6.129,0,0,0-.5.81c-.438-.407-1.43-.835-1.636-1.337l.468-.522.189.306c.412-.026.493-.144.813-.391-.168-.155-.261-.165-.278-.4a8.071,8.071,0,0,1,1.166-.844A2.482,2.482,0,0,1,5654.083,3595.522Z"/>
          <path id="Path_67" data-name="Path 67" d="M5594.031,3632.8a1.911,1.911,0,0,1-.487,1.345,2.512,2.512,0,0,1-1.3.739l-.688-.144a2.228,2.228,0,0,1-.992-1.194,1.947,1.947,0,0,1,.679-1.423,2.59,2.59,0,0,1,1.633-.444,1.781,1.781,0,0,1,.35.082C5593.591,3632.07,5593.974,3632.284,5594.031,3632.8Z" fill="#f0ebd5"/>
          <path id="Path_68" data-name="Path 68" d="M5593.3,3611.015a1.681,1.681,0,0,1-1.463,2.213,1.932,1.932,0,0,1-.467-.028,2.091,2.091,0,0,1-1.33-.917,1.538,1.538,0,0,1,.008-1.236,2.3,2.3,0,0,1,1.233-.935,2.8,2.8,0,0,1,.747.012A2.613,2.613,0,0,1,5593.3,3611.015Z"/>
          <path id="Path_69" data-name="Path 69" d="M5594.191,3619.233a2.659,2.659,0,0,1-.461,1.486,2.28,2.28,0,0,1-1.838.443l-.268-.05a2.524,2.524,0,0,1-.865-1.3,1.527,1.527,0,0,1,.432-1.15,2.515,2.515,0,0,1,1.857-.59l.355.04A2.069,2.069,0,0,1,5594.191,3619.233Z"/>
          <path id="Path_70" data-name="Path 70" d="M5599.732,3622.129a1.537,1.537,0,0,1-.4,1.291,1.657,1.657,0,0,1-1.33.6l-.96-.147a2.039,2.039,0,0,1-.948-1.067,1.8,1.8,0,0,1,.778-1.368,2.508,2.508,0,0,1,1.828-.419l.232.074C5599.354,3621.43,5599.637,3621.563,5599.732,3622.129Z" fill="#f0ebd5"/>
          <path id="Path_71" data-name="Path 71" d="M5599.751,3647.636a1.982,1.982,0,0,1-.625,1.5,1.721,1.721,0,0,1-1.305.55l-.5-.093a2.811,2.811,0,0,1-1.058-1.205,1.478,1.478,0,0,1,.3-1.2,2.365,2.365,0,0,1,1.556-.683,4.121,4.121,0,0,1,.754.017A2.057,2.057,0,0,1,5599.751,3647.636Z" fill="#f0ebd5"/>
          <path id="Path_72" data-name="Path 72" d="M5632.432,3641.623a1.464,1.464,0,0,1-.144,1.131,1.8,1.8,0,0,1-1.2.924,3.338,3.338,0,0,1-.842,0,2.867,2.867,0,0,1-1.181-1.121,1.725,1.725,0,0,1,.253-1.365,1.979,1.979,0,0,1,1.294-.712,3.09,3.09,0,0,1,.685.069A2.063,2.063,0,0,1,5632.432,3641.623Z" fill="#f0ebd5"/>
          <path id="Path_73" data-name="Path 73" d="M5584.291,3611.506a2.182,2.182,0,0,1-.6,1.844,1.827,1.827,0,0,1-1.445.57,2.082,2.082,0,0,1-.976-.456,3.417,3.417,0,0,1-.53-1.675l1.487-.883,1.164-.38A1.933,1.933,0,0,1,5584.291,3611.506Z"/>
          <path id="Path_74" data-name="Path 74" d="M5593.719,3643.888a1.854,1.854,0,0,1-.325,1.4,2.118,2.118,0,0,1-1.6.884l-.1.01a2.4,2.4,0,0,1-1.292-.751,2.061,2.061,0,0,1-.032-1.394,3.325,3.325,0,0,1,1.435-1.146l.625.041A3.159,3.159,0,0,1,5593.719,3643.888Z" fill="#f0ebd5"/>
          <path id="Path_75" data-name="Path 75" d="M5592.03,3625.184a1.63,1.63,0,0,1,.276,1.42,1.743,1.743,0,0,1-.979,1.118,3.083,3.083,0,0,1-.744.2,2.752,2.752,0,0,1-1.462-.925,1.733,1.733,0,0,1,.076-1.5,2.046,2.046,0,0,1,1.212-.924,1.39,1.39,0,0,1,.281-.04A1.809,1.809,0,0,1,5592.03,3625.184Z" fill="#f0ebd5"/>
          <path id="Path_76" data-name="Path 76" d="M5575.4,3676.528a1.941,1.941,0,0,1-.24,1.616,1.728,1.728,0,0,1-1.15.663,2.655,2.655,0,0,1-.766-.106,2.461,2.461,0,0,1-1.048-.919,1.672,1.672,0,0,1,.173-1.363,2.193,2.193,0,0,1,1.152-.988l.764.08A2.1,2.1,0,0,1,5575.4,3676.528Z" fill="#f0ebd5"/>
          <path id="Path_77" data-name="Path 77" d="M5587.827,3621.613a1.759,1.759,0,0,1-.332,1.4,1.959,1.959,0,0,1-1.506.566,1.378,1.378,0,0,1-.43-.09,2.313,2.313,0,0,1-1.162-.961,1.736,1.736,0,0,1,.337-1.437,2.044,2.044,0,0,1,1.363-.748,3.057,3.057,0,0,1,.7.081A2.027,2.027,0,0,1,5587.827,3621.613Z"/>
          <path id="Path_78" data-name="Path 78" d="M5633.557,3651.252a2.13,2.13,0,0,1-.564,1.733,2.507,2.507,0,0,1-1.217.509l-.558-.142a3.523,3.523,0,0,1-1.136-1.352,1.831,1.831,0,0,1,.487-1.32,1.962,1.962,0,0,1,1.559-.549,1.566,1.566,0,0,1,.434.1A2.073,2.073,0,0,1,5633.557,3651.252Z" fill="#f0ebd5"/>
          <path id="Path_79" data-name="Path 79" d="M5598.932,3628.949a2.008,2.008,0,0,1-.376,1.621,2.487,2.487,0,0,1-1.164.8l-.678-.062a1.746,1.746,0,0,1-1.148-1.058,1.328,1.328,0,0,1,.213-1.3,2.353,2.353,0,0,1,1.319-.945,2.521,2.521,0,0,1,.769.065A2.089,2.089,0,0,1,5598.932,3628.949Z" fill="#f0ebd5"/>
          <path id="Path_80" data-name="Path 80" d="M5624.07,3636.172a1.587,1.587,0,0,1,.183,1.334,1.605,1.605,0,0,1-1.019.984,2.257,2.257,0,0,1-.918.125,2.681,2.681,0,0,1-1.418-.874,2.168,2.168,0,0,1-.037-1.434,2.643,2.643,0,0,1,1.947-.889A1.8,1.8,0,0,1,5624.07,3636.172Z" fill="#f0ebd5"/>
          <path id="Path_81" data-name="Path 81" d="M5605.74,3633.243a1.5,1.5,0,0,1-.081,1.3,1.926,1.926,0,0,1-1.244.932,3.51,3.51,0,0,1-.671.045c-.606-.192-1.089-.294-1.4-.918a1.468,1.468,0,0,1-.071-1.078,2.555,2.555,0,0,1,1.162-1.176,3.472,3.472,0,0,1,.821-.007A3.123,3.123,0,0,1,5605.74,3633.243Z" fill="#f0ebd5"/>
          <path id="Path_82" data-name="Path 82" d="M5578.741,3653.666a1.243,1.243,0,0,1,.17,1.13,2.755,2.755,0,0,1-.7.962,2.838,2.838,0,0,1-.993.254,2.168,2.168,0,0,1-1.5-.548,2.1,2.1,0,0,1-.125-1.7,1.649,1.649,0,0,1,.911-.9,1.961,1.961,0,0,1,.805-.125A2.174,2.174,0,0,1,5578.741,3653.666Z" fill="#f0ebd5"/>
          <path id="Path_83" data-name="Path 83" d="M5570.406,3671.236a2.015,2.015,0,0,1-.368,1.58,1.545,1.545,0,0,1-1.031.63,2.965,2.965,0,0,1-1.015-.074,2.117,2.117,0,0,1-.988-1.056,2.143,2.143,0,0,1,.362-1.636,2.366,2.366,0,0,1,2.1-.388A2.023,2.023,0,0,1,5570.406,3671.236Z" fill="#f0ebd5"/>
          <path id="Path_84" data-name="Path 84" d="M5582.156,3669.574a1.632,1.632,0,0,1-.18,1.483,1.516,1.516,0,0,1-1.125.773,2.564,2.564,0,0,1-.787-.089,2.091,2.091,0,0,1-1.186-1.012,1.186,1.186,0,0,1-.014-1.131,2.4,2.4,0,0,1,1.246-1.142l.794.027A2.4,2.4,0,0,1,5582.156,3669.574Z" fill="#f0ebd5"/>
          <path id="Path_85" data-name="Path 85" d="M5568.419,3681.41a2.178,2.178,0,0,1-.215,1.757,1.941,1.941,0,0,1-1.072.809l-.593-.064a2.487,2.487,0,0,1-1.182-.79,2.256,2.256,0,0,1-.036-1.81,1.844,1.844,0,0,1,1.166-.755,1.721,1.721,0,0,1,.685,0A2.447,2.447,0,0,1,5568.419,3681.41Z" fill="#f0ebd5"/>
          <path id="Path_86" data-name="Path 86" d="M5583.079,3618.83c.046.669.125,1.03-.354,1.565a1.847,1.847,0,0,1-1.439.677l-.6-.055a3.174,3.174,0,0,1-1.149-1.014,1.578,1.578,0,0,1,.222-1.356,2.231,2.231,0,0,1,1.445-.795,2.829,2.829,0,0,1,.722.048A2.166,2.166,0,0,1,5583.079,3618.83Z"/>
          <path id="Path_87" data-name="Path 87" d="M5592.624,3651.332a1.969,1.969,0,0,1-.444,1.41,1.911,1.911,0,0,1-1.325.779,2.737,2.737,0,0,1-.681-.115,2.194,2.194,0,0,1-1.08-1,1.664,1.664,0,0,1,.2-1.344,2.226,2.226,0,0,1,1.585-.872,2.8,2.8,0,0,1,.7.039A1.957,1.957,0,0,1,5592.624,3651.332Z" fill="#f0ebd5"/>
          <path id="Path_88" data-name="Path 88" d="M5588.918,3614.971a1.6,1.6,0,0,1-.156,1.339,3.209,3.209,0,0,1-1.437,1.12l-.508-.044c-.49-.171-.974-.311-1.207-.816a2.479,2.479,0,0,1-.1-1.446,1.766,1.766,0,0,1,1.166-.954,2.805,2.805,0,0,1,1.087-.045A1.957,1.957,0,0,1,5588.918,3614.971Z"/>
          <path id="Path_89" data-name="Path 89" d="M5602.979,3641.524a1.383,1.383,0,0,1,.237,1.267,2.528,2.528,0,0,1-1.229,1.281,1.17,1.17,0,0,1-.757.093,2.167,2.167,0,0,1-1.448-1,1.341,1.341,0,0,1,.072-1.205,2.275,2.275,0,0,1,1.064-1.088,2.524,2.524,0,0,1,.669-.1A2.168,2.168,0,0,1,5602.979,3641.524Z" fill="#f0ebd5"/>
          <path id="Path_90" data-name="Path 90" d="M5620.072,3642.849a1.406,1.406,0,0,1,.005,1.263,1.873,1.873,0,0,1-1.264,1.039,3.431,3.431,0,0,1-.752.054c-.464-.179-1.077-.363-1.277-.868a1.644,1.644,0,0,1,.019-1.428,2.281,2.281,0,0,1,1.2-1.006l.829.023A2.04,2.04,0,0,1,5620.072,3642.849Z" fill="#f0ebd5"/>
          <path id="Path_91" data-name="Path 91" d="M5584.652,3647.68a1.73,1.73,0,0,1,.076,1.341,1.708,1.708,0,0,1-1.022.988,2.887,2.887,0,0,1-1.163.175,1.867,1.867,0,0,1-1.184-1.012,1.764,1.764,0,0,1,.147-1.434,1.637,1.637,0,0,1,.976-.781,2.2,2.2,0,0,1,1.1-.044A1.588,1.588,0,0,1,5584.652,3647.68Z" fill="#f0ebd5"/>
          <path id="Path_92" data-name="Path 92" d="M5614,3632.5a1.483,1.483,0,0,1,.341,1.324,2.258,2.258,0,0,1-1.113,1.306,1.083,1.083,0,0,1-.75.12,2.8,2.8,0,0,1-1.613-.847c-.189-.49-.3-.675-.03-1.177a2.544,2.544,0,0,1,1.43-1.25l.447-.059A1.935,1.935,0,0,1,5614,3632.5Z" fill="#f0ebd5"/>
          <path id="Path_93" data-name="Path 93" d="M5609.014,3640.254a1.807,1.807,0,0,1-.065,1.7,2.634,2.634,0,0,1-1.154.928l-.506.023a2.867,2.867,0,0,1-1.4-.766,1.818,1.818,0,0,1-.1-1.5,2.173,2.173,0,0,1,1.185-1.054,2.78,2.78,0,0,1,.722-.078A2.241,2.241,0,0,1,5609.014,3640.254Z" fill="#f0ebd5"/>
          <path id="Path_94" data-name="Path 94" d="M5572.236,3663.2a1.991,1.991,0,0,1-.08,1.628,1.957,1.957,0,0,1-1.079.886,2.641,2.641,0,0,1-.753.065,2.831,2.831,0,0,1-1.33-.837,1.658,1.658,0,0,1-.04-1.41,1.967,1.967,0,0,1,1.138-1.074,2.512,2.512,0,0,1,.662-.089A2.381,2.381,0,0,1,5572.236,3663.2Z" fill="#f0ebd5"/>
          <path id="Path_95" data-name="Path 95" d="M5599.513,3614.062a1.494,1.494,0,0,1-.16,1.19,1.99,1.99,0,0,1-1.255.909,1.96,1.96,0,0,1-.926-.007,2.3,2.3,0,0,1-1.146-.922,2.068,2.068,0,0,1,.042-1.434,2.512,2.512,0,0,1,1.753-.814,2.045,2.045,0,0,1,.651.057C5599,3613.332,5599.273,3613.468,5599.513,3614.062Z"/>
          <path id="Path_96" data-name="Path 96" d="M5593.359,3662.225a1.76,1.76,0,0,1,.163,1.491,2.074,2.074,0,0,1-1.121,1.084,1.9,1.9,0,0,1-.749.124,2.085,2.085,0,0,1-1.292-.806,1.426,1.426,0,0,1-.206-1.346,1.92,1.92,0,0,1,1.016-1.127,2.265,2.265,0,0,1,.816-.166A2.572,2.572,0,0,1,5593.359,3662.225Z" fill="#f0ebd5"/>
          <path id="Path_97" data-name="Path 97" d="M5625.287,3676.159a2.02,2.02,0,0,1-.065,1.569,1.954,1.954,0,0,1-1.131.768,2.262,2.262,0,0,1-.962,0,2.121,2.121,0,0,1-1.179-1.012,1.693,1.693,0,0,1,.163-1.443,1.968,1.968,0,0,1,1.325-.864,2.085,2.085,0,0,1,.624.055A2.741,2.741,0,0,1,5625.287,3676.159Z" fill="#f0ebd5"/>
          <path id="Path_98" data-name="Path 98" d="M5592.89,3674.8a1.668,1.668,0,0,1-.267,1.461,2.115,2.115,0,0,1-1.384.839,2.242,2.242,0,0,1-.594-.077,1.787,1.787,0,0,1-1.25-.965,1.334,1.334,0,0,1-.017-1.1,2.56,2.56,0,0,1,1.211-1.14,3.175,3.175,0,0,1,1.086-.031A2.195,2.195,0,0,1,5592.89,3674.8Z" fill="#f0ebd5"/>
          <path id="Path_99" data-name="Path 99" d="M5596.051,3637.455a1.9,1.9,0,0,1-.317,1.537,2.052,2.052,0,0,1-1.665.8l-.469-.024c-.561-.419-.869-.562-1.145-1.217a2.209,2.209,0,0,1,.88-1.7,2.157,2.157,0,0,1,1.439-.536l.162.041A3.341,3.341,0,0,1,5596.051,3637.455Z" fill="#f0ebd5"/>
          <path id="Path_100" data-name="Path 100" d="M5605.2,3617.033a2.155,2.155,0,0,1-.247,1.82,1.576,1.576,0,0,1-1.114.652,2.182,2.182,0,0,1-.882-.048c-.415-.213-.981-.453-1.155-.925a1.492,1.492,0,0,1,.043-1.349,2.133,2.133,0,0,1,1.391-.974,3.031,3.031,0,0,1,.748-.018A2.1,2.1,0,0,1,5605.2,3617.033Z"/>
          <path id="Path_101" data-name="Path 101" d="M5597.448,3683.152a1.709,1.709,0,0,1-.212,1.383,2.376,2.376,0,0,1-1.034.934l-.844.015c-.427-.208-1.082-.444-1.263-.917a2.261,2.261,0,0,1-.13-1.338,2.811,2.811,0,0,1,1.682-1.235,1.482,1.482,0,0,1,.617.064A2.043,2.043,0,0,1,5597.448,3683.152Z" fill="#f0ebd5"/>
          <path id="Path_102" data-name="Path 102" d="M5584.428,3662.007a1.882,1.882,0,0,1-.047,1.434,1.773,1.773,0,0,1-1.188.922l-.838.072c-.485-.259-1.131-.546-1.339-1.095a1.572,1.572,0,0,1,.073-1.437,2.093,2.093,0,0,1,1.2-.846,2.7,2.7,0,0,1,.671.043A2.566,2.566,0,0,1,5584.428,3662.007Z" fill="#f0ebd5"/>
          <path id="Path_103" data-name="Path 103" d="M5607.4,3687.09a1.956,1.956,0,0,1-.443,1.719,2.353,2.353,0,0,1-1.554.552l-.115-.019a2.111,2.111,0,0,1-1.337-1.117,1.555,1.555,0,0,1,.029-1.317,2.1,2.1,0,0,1,1.178-1.045,1.684,1.684,0,0,1,.906.058A2.71,2.71,0,0,1,5607.4,3687.09Z" fill="#f0ebd5"/>
          <path id="Path_104" data-name="Path 104" d="M5631.025,3669.434a1.538,1.538,0,0,1-.2,1.183,2.354,2.354,0,0,1-1.161.936l-1.016-.037c-.524-.35-1.023-.561-1.18-1.234a1.62,1.62,0,0,1,.263-1.429,1.992,1.992,0,0,1,1.527-.711,3.215,3.215,0,0,1,.748.111C5630.565,3668.606,5630.848,3668.76,5631.025,3669.434Z" fill="#f0ebd5"/>
          <path id="Path_105" data-name="Path 105" d="M5583.925,3689.317a1.5,1.5,0,0,1-.039,1.282,2.389,2.389,0,0,1-1.193,1.181,1.235,1.235,0,0,1-.674.029c-.562-.23-1.092-.393-1.334-1a2.066,2.066,0,0,1-.029-1.513,2,2,0,0,1,1.082-1,1.608,1.608,0,0,1,.858-.058A2,2,0,0,1,5583.925,3689.317Z" fill="#f0ebd5"/>
          <path id="Path_106" data-name="Path 106" d="M5576.235,3686.27a1.921,1.921,0,0,1-.331,1.588,1.671,1.671,0,0,1-1.214.649l-.83-.17a2.581,2.581,0,0,1-1.084-1.1,1.676,1.676,0,0,1,.254-1.412,1.993,1.993,0,0,1,1.244-.86,3.476,3.476,0,0,1,.935.081C5575.725,3685.4,5576.129,3685.593,5576.235,3686.27Z" fill="#f0ebd5"/>
          <path id="Path_107" data-name="Path 107" d="M5613.737,3689.762a1.868,1.868,0,0,1,.031,1.5,1.939,1.939,0,0,1-1.231.966,1.614,1.614,0,0,1-.793-.031,2.521,2.521,0,0,1-1.353-.854,2,2,0,0,1,.124-1.661,1.893,1.893,0,0,1,1.08-.821,2.563,2.563,0,0,1,.778-.014A2.42,2.42,0,0,1,5613.737,3689.762Z" fill="#f0ebd5"/>
          <path id="Path_108" data-name="Path 108" d="M5606.5,3676.04a1.665,1.665,0,0,1-.207,1.4,2.638,2.638,0,0,1-1.4.956l-.738-.085c-.578-.336-1.063-.6-1.229-1.288a1.711,1.711,0,0,1,.253-1.341,1.346,1.346,0,0,1,.888-.669,3.474,3.474,0,0,1,1.2.021A2.345,2.345,0,0,1,5606.5,3676.04Z" fill="#f0ebd5"/>
          <path id="Path_109" data-name="Path 109" d="M5625.091,3650.58a1.53,1.53,0,0,1,.033,1.4,2.169,2.169,0,0,1-1.231,1.055,2.782,2.782,0,0,1-.732.078,2.146,2.146,0,0,1-1.325-.793,1.544,1.544,0,0,1-.246-1.329,3.589,3.589,0,0,1,1.33-1.325l.662.007A2.958,2.958,0,0,1,5625.091,3650.58Z" fill="#f0ebd5"/>
          <path id="Path_110" data-name="Path 110" d="M5603.467,3691.832a1.861,1.861,0,0,1-.048,1.679,2.055,2.055,0,0,1-1.372.983,3.24,3.24,0,0,1-.918.036,2.047,2.047,0,0,1-1.059-1.209,1.542,1.542,0,0,1,.166-1.183,2.263,2.263,0,0,1,1.233-1.014,2.914,2.914,0,0,1,.923-.065A1.884,1.884,0,0,1,5603.467,3691.832Z" fill="#f0ebd5"/>
          <path id="Path_111" data-name="Path 111" d="M5601.542,3657.277a1.229,1.229,0,0,1,.036,1.007,1.927,1.927,0,0,1-1.138,1.121,3.1,3.1,0,0,1-1.077.189,3.064,3.064,0,0,1-1.282-.816,1.81,1.81,0,0,1,.086-1.7,2.125,2.125,0,0,1,1.043-.875c.305,0,.636-.032.938,0A2.225,2.225,0,0,1,5601.542,3657.277Z" fill="#f0ebd5"/>
          <path id="Path_112" data-name="Path 112" d="M5593.018,3693.229a1.767,1.767,0,0,1-.1,1.663,2.036,2.036,0,0,1-1.553.964l-.416.068a2.71,2.71,0,0,1-1.461-1.229,1.6,1.6,0,0,1,.14-1.327,2,2,0,0,1,1.269-.894,2.384,2.384,0,0,1,.739.01A2.591,2.591,0,0,1,5593.018,3693.229Z" fill="#f0ebd5"/>
          <path id="Path_113" data-name="Path 113" d="M5609.536,3648.523a1.86,1.86,0,0,1-.236,1.44,2.131,2.131,0,0,1-1.367.924,3,3,0,0,1-.79-.064,1.585,1.585,0,0,1-1.12-.763,1.54,1.54,0,0,1-.084-1.341,2.346,2.346,0,0,1,1.089-1.143,4.961,4.961,0,0,1,1.427-.043A2.314,2.314,0,0,1,5609.536,3648.523Z" fill="#f0ebd5"/>
          <path id="Path_114" data-name="Path 114" d="M5598.355,3668.706a1.937,1.937,0,0,1-.012,1.506,2,2,0,0,1-1.2,1.014,2.294,2.294,0,0,1-1.009.019,2.387,2.387,0,0,1-1.316-1.292,1.317,1.317,0,0,1,.1-1.079,2.225,2.225,0,0,1,1.374-1.019,1.985,1.985,0,0,1,2.063.851Z" fill="#f0ebd5"/>
          <path id="Path_115" data-name="Path 115" d="M5630.321,3659.723a1.553,1.553,0,0,1-.134,1.446,1.93,1.93,0,0,1-1.008.961,3.431,3.431,0,0,1-.833.127,2.173,2.173,0,0,1-1.447-1.059,1.793,1.793,0,0,1,1.127-2.473,2.236,2.236,0,0,1,2.295,1Z" fill="#f0ebd5"/>
          <path id="Path_116" data-name="Path 116" d="M5584.319,3680.852a1.611,1.611,0,0,1,0,1.273,1.885,1.885,0,0,1-.994,1.01,1.755,1.755,0,0,1-2.453-1.04,1.581,1.581,0,0,1,.018-1.39,2.08,2.08,0,0,1,1.11-.91h.869A2.339,2.339,0,0,1,5584.319,3680.852Z" fill="#f0ebd5"/>
          <path id="Path_117" data-name="Path 117" d="M5613.633,3682.361a1.742,1.742,0,0,1-.042,1.518,2.123,2.123,0,0,1-1.093,1.024l-.749.134a2.382,2.382,0,0,1-1.62-1.122,2.1,2.1,0,0,1-.077-1.044,2.317,2.317,0,0,1,1.429-1.312,1.463,1.463,0,0,1,.63-.1A3.222,3.222,0,0,1,5613.633,3682.361Z" fill="#f0ebd5"/>
          <path id="Path_118" data-name="Path 118" d="M5617.156,3672.434a2,2,0,0,1-.166,1.7,2.059,2.059,0,0,1-1.141.891,2.886,2.886,0,0,1-.753.063,2.125,2.125,0,0,1-1.433-1.051,1.334,1.334,0,0,1-.031-1.048,2.816,2.816,0,0,1,1.4-1.514,1.313,1.313,0,0,1,.647-.035A2.754,2.754,0,0,1,5617.156,3672.434Z" fill="#f0ebd5"/>
          <path id="Path_119" data-name="Path 119" d="M5621.662,3684.7a1.969,1.969,0,0,1-.081,1.587,1.493,1.493,0,0,1-.84.905,1.64,1.64,0,0,1-.918.119,2.543,2.543,0,0,1-1.443-.662,2.457,2.457,0,0,1-.294-1.4,2.1,2.1,0,0,1,1-1.267,3.027,3.027,0,0,1,1.149-.23A2.714,2.714,0,0,1,5621.662,3684.7Z" fill="#f0ebd5"/>
          <path id="Path_120" data-name="Path 120" d="M5618.817,3654.3a2.185,2.185,0,0,1,.178,1.484,1.7,1.7,0,0,1-.962,1.071,1.9,1.9,0,0,1-1.337.153,1.923,1.923,0,0,1-1.307-1.092,2.112,2.112,0,0,1-.033-1.29,1.784,1.784,0,0,1,1.235-.938,2.367,2.367,0,0,1,1.18-.073A1.524,1.524,0,0,1,5618.817,3654.3Z" fill="#f0ebd5"/>
          <path id="Path_121" data-name="Path 121" d="M5611.341,3656.508a1.906,1.906,0,0,1,.286,1.411,1.849,1.849,0,0,1-.853,1.1,2.4,2.4,0,0,1-1.5.263,2.254,2.254,0,0,1-1.236-1.123,2.063,2.063,0,0,1,.023-1.38,2.171,2.171,0,0,1,1.567-1.082,2,2,0,0,1,.49-.028A1.79,1.79,0,0,1,5611.341,3656.508Z" fill="#f0ebd5"/>
          <path id="Path_122" data-name="Path 122" d="M5621.056,3662.523a1.723,1.723,0,0,1-.074,1.478,2.044,2.044,0,0,1-1.285,1.011,3.038,3.038,0,0,1-.761-.047,2.182,2.182,0,0,1-1.347-.98,1.852,1.852,0,0,1,.978-2.579,1.991,1.991,0,0,1,1.214-.016C5620.354,3661.673,5620.843,3661.869,5621.056,3662.523Z" fill="#f0ebd5"/>
          <path id="Path_123" data-name="Path 123" d="M5609.627,3666.056a2.786,2.786,0,0,1-.908,1.962,3.311,3.311,0,0,1-.9.511,3.135,3.135,0,0,1-.865-.182,2.118,2.118,0,0,1-1.145-1.367,1.862,1.862,0,0,1,.435-1.517,1.464,1.464,0,0,1,1.121-.639,3.565,3.565,0,0,1,1.323.035A2.385,2.385,0,0,1,5609.627,3666.056Z" fill="#f0ebd5"/>
          <path id="Path_124" data-name="Path 124" d="M5588.955,3706.3a11.7,11.7,0,0,1-2.754-4.149,2.857,2.857,0,0,1,.229-2.237l2.426-.516a18.619,18.619,0,0,1,3.6-.541c2.146.011,4.253.677,6.416.7a56.021,56.021,0,0,0,8.041-1l1.091,1.922Z"/>
          <path id="Path_125" data-name="Path 125" d="M5625.845,3620.78l-.111.216a3.88,3.88,0,0,0-.861-.1,13,13,0,0,0-.1-3.354l.865-.108Z"/>
          <path id="Path_126" data-name="Path 126" d="M5625.968,3634.714a30.568,30.568,0,0,0-10.177-3.939,96.755,96.755,0,0,0-9.73-.96,28.051,28.051,0,0,1,5.072-3.773c4.167-2.6,8.767-4.766,13.74-5.145Z" fill="#fab017"/>
          <path id="Path_127" data-name="Path 127" d="M5616.812,3707.343l6.891,4.182a62.589,62.589,0,0,1,8.241,5.118,44.518,44.518,0,0,1-8.316,3.777,92.8,92.8,0,0,1-14.166,4.218c-3.608.731-7.428,1.128-11.086,1.544-.565-3.7-1.232-7.576-2.888-10.967-1.613-3.3-4.144-6.151-6.533-8.911l19.052-5.822C5610.475,3703.472,5613.517,3705.367,5616.812,3707.343Zm8.18,8.175a1.859,1.859,0,0,0-.433,1.354l.381.312a1.6,1.6,0,0,0,.418-.043c.558-.167.646-.339.934-.811a1.114,1.114,0,0,0-.472-.978A1.39,1.39,0,0,0,5624.992,3715.518Zm-5.8-3.52c-.38.361-.32.4-.342.9.261.519.269.543.8.781l.494-.159a1.527,1.527,0,0,0,.493-1c-.274-.458-.307-.445-.819-.617Z" fill="#fab017"/>
          <path id="Path_128" data-name="Path 128" d="M5599.563,3714.241c-.377.255-.38.21-.805.139-.193-.377-.271-.407-.158-.831a.982.982,0,0,1,.909-.232C5599.709,3713.77,5599.748,3713.747,5599.563,3714.241Z" fill="#f0ebd5"/>
          <path id="Path_129" data-name="Path 129" d="M5583.835,3637.738c-.124,1.159-.78,3.923-.21,4.946.127.229.079.157.3.316l-1.989,1.563a2.271,2.271,0,0,0,0-1.576,11.68,11.68,0,0,1-2.306-.039l-.134-.023,2.556-.228,1.625-14.416a4.439,4.439,0,0,1,1.1,1.306A64.156,64.156,0,0,0,5583.835,3637.738Z"/>
          <path id="Path_130" data-name="Path 130" d="M5654.409,3622.966l1.494,2.859.181.131c1.6,1.146,3.4,1.885,5.093,2.866,3.506,2.038,6.359,5.5,8.589,8.822l.234-.042c3.94-.67,7.716.727,10.858,3.024,2.039,1.491,4.229,3.722,4.634,6.338a3.483,3.483,0,0,1-1.134,2.558,14.065,14.065,0,0,1-2.908,2.715,10.847,10.847,0,0,1-3.446.451,8.692,8.692,0,0,0-2.757.037l-.092-.234a5.055,5.055,0,0,0-2.319-1.87l-.432.263a19.861,19.861,0,0,0-3.566,2.2c-2.968,2.209-7.344,2.6-10.939,2.763a25.67,25.67,0,0,1-4.795-.068l-1.625-.283a19.34,19.34,0,0,1-7.317,11.791,23.881,23.881,0,0,1-7.651,3.018,9.027,9.027,0,0,1,.695-1.462,28.692,28.692,0,0,0,1.83-17.088c-1.481-7.194-6.405-12.773-12.355-16.734l-.713-.31-1.095-13.817a3.88,3.88,0,0,1,.861.1l.111-.216-.205-3.345,4.376.18a26.173,26.173,0,0,0,3.351-2.55c1.435-1.119,2.941-2.124,4.318-3.32,2.762-2.4,5.231-5.109,7.826-7.682l.638-.557Zm-8.9-18.9c-2.6,2.573-5.064,5.283-7.826,7.682-1.377,1.2-2.883,2.2-4.318,3.32a26.173,26.173,0,0,1-3.351,2.55l-4.376-.18.205,3.345a15.236,15.236,0,0,1,3.447-.4,55.624,55.624,0,0,1,19.393,2.491,22.754,22.754,0,0,1,4.524,1.664,2.068,2.068,0,0,1,.512.437,3.158,3.158,0,0,1,.069,1.038,1.291,1.291,0,0,0,.771.659l.435-.165c.307-.152.376-.1.717-.027l.19-.657-1.494-2.859-8.26-19.46Zm10.528,36.409a1.873,1.873,0,0,0-.865.82c.027.562.182.657.521,1.09l.57.069a1.728,1.728,0,0,0,.743-.918,1.662,1.662,0,0,0-.688-1.046Zm18.123-.946-.224.252a2.146,2.146,0,0,0,.248,1.481l.529.13a1.474,1.474,0,0,0,.906-.4l-.026-.588a1.857,1.857,0,0,0-.981-.857Zm-42.774-15.556c-.343.157-.41.3-.589.62a1.6,1.6,0,0,0,.385.983l.284-.039a1.324,1.324,0,0,0,.666-.953l-.384-.563Zm19.57,17.745a1.082,1.082,0,0,0-.441.945l.4.342a1.087,1.087,0,0,0,.93-.52l-.127-.5-.544-.3Zm-11.991-13.05c-.037.572.032.567.408,1.012l.426.045a1.1,1.1,0,0,0,.415-.823l-.278-.4A1.177,1.177,0,0,0,5638.967,3628.665Z" fill="#fab017"/>
          <path id="Path_131" data-name="Path 131" d="M5679.23,3645.369c-.132.41-.13.439-.477.688l-.4-.038c-.336-.372-.431-.373-.42-.894.455-.27.527-.216,1.034-.159Z"/>
          <path id="Path_132" data-name="Path 132" d="M5640.216,3628.9a1.1,1.1,0,0,1-.415.823l-.426-.045c-.376-.445-.445-.44-.408-1.012a1.177,1.177,0,0,1,.971-.168Z" fill="#f0ebd5"/>
          <path id="Path_133" data-name="Path 133" d="M5651.718,3641.986l.127.5a1.087,1.087,0,0,1-.93.52l-.4-.342a1.082,1.082,0,0,1,.441-.945l.216-.027Z"/>
          <path id="Path_134" data-name="Path 134" d="M5643.257,3641.567l.043.4a1.226,1.226,0,0,1-.851.387l-.55-.146c-.043-.521.037-.571.3-1l.388-.094Z"/>
          <path id="Path_135" data-name="Path 135" d="M5639.047,3639.911l.043.538-.346.4-.441.011a1.717,1.717,0,0,1-.663-.923c.139-.253.079-.265.377-.355a1.115,1.115,0,0,1,.554-.047Z"/>
          <path id="Path_136" data-name="Path 136" d="M5657.008,3641.533a1.728,1.728,0,0,1-.743.918l-.57-.069c-.339-.433-.494-.528-.521-1.09a1.873,1.873,0,0,1,.865-.82l.281.015A1.662,1.662,0,0,1,5657.008,3641.533Z"/>
          <path id="Path_137" data-name="Path 137" d="M5625.734,3621l.947,14.028-.713-.31-1.095-13.817A3.88,3.88,0,0,1,5625.734,3621Z" fill="#6b9c5b"/>
          <path id="Path_138" data-name="Path 138" d="M5658.983,3631.682c1.952,3.733,3.424,7.669,5.107,11.522l1.834,4.008a6.424,6.424,0,0,1,.873,2.729l-.23.164c-1.485-1.023-2.179-3.653-2.925-5.25L5658.17,3633a44,44,0,0,0-3.174-6.492c.307-.152.376-.1.717-.027A45.317,45.317,0,0,1,5658.983,3631.682Z"/>
          <path id="Path_139" data-name="Path 139" d="M5657.9,3655.85a25.67,25.67,0,0,1-4.795-.068l-1.625-.283a19.34,19.34,0,0,1-7.317,11.791,23.881,23.881,0,0,1-7.651,3.018,9.027,9.027,0,0,1,.695-1.462l.447.085a22.156,22.156,0,0,1,4.093-1.766,27.635,27.635,0,0,0,5.569-3.556c2.482-1.973,3.4-6.887,3.769-9.894a16.268,16.268,0,0,0,6.628.831c.954-.12,1.839-.345,2.813-.4a13.7,13.7,0,0,0,2.433.068c1.878-.4,3.974-1.176,5.88-1.125C5665.87,3655.3,5661.494,3655.684,5657.9,3655.85Z" fill="#f0ebd5"/>
          <path id="Path_140" data-name="Path 140" d="M5654.409,3622.966l1.494,2.859-.19.657c-.341-.069-.41-.125-.717.027l-.435.165a9.083,9.083,0,0,0-.77-2.917c-1.517-3.912-3.61-7.691-5.329-11.53a64.743,64.743,0,0,1-2.951-8.164l.638-.557Z"/>
          <path id="Path_141" data-name="Path 141" d="M5678,3652.688a10.847,10.847,0,0,0,3.446-.451,4.648,4.648,0,0,1-.765,1.2l1.152,2.7a2.487,2.487,0,0,1,.7,2.026,7.436,7.436,0,0,1-1.308,3.176c-2.1,3.264-5.242,5.2-7.888,7.9-.381,1.937-.557,3.874-1.129,5.773a57.511,57.511,0,0,1-10.139,18.7c-.949,1.22-1.852,2.548-2.919,3.668-1.322,1.388-2.914,2.562-4.341,3.844a47.289,47.289,0,0,1-5.364,4.506c-1.307.876-2.621,1.766-4,2.523-2.488,1.366-4.927,2.08-6.79,4.383a62.89,62.89,0,0,1-5.033-5.96,35.263,35.263,0,0,0-12.93-10.2,13.936,13.936,0,0,1-4.213-1.349l4.606-5.017a16.387,16.387,0,0,1,1.3-1.877l10.56-12.972a44.223,44.223,0,0,1,3.567-4.94,23.881,23.881,0,0,0,7.651-3.018,19.34,19.34,0,0,0,7.317-11.791l1.625.283a25.67,25.67,0,0,0,4.795.068c3.6-.166,7.971-.554,10.939-2.763a19.861,19.861,0,0,1,3.566-2.2l.432-.263a5.055,5.055,0,0,1,2.319,1.87l.092.234A8.692,8.692,0,0,1,5678,3652.688Zm-8.46,19.048-6.176,4.358-15.888,9.365a132.08,132.08,0,0,1-16.649,7.558c-3.308,1.2-6.947,1.97-10.136,3.446a35.263,35.263,0,0,1,12.93,10.2,62.89,62.89,0,0,0,5.033,5.96c1.863-2.3,4.3-3.017,6.79-4.383,1.38-.757,2.694-1.647,4-2.523a47.289,47.289,0,0,0,5.364-4.506c1.427-1.282,3.019-2.456,4.341-3.844,1.067-1.12,1.97-2.448,2.919-3.668a57.511,57.511,0,0,0,10.139-18.7c.572-1.9.748-3.836,1.129-5.773A17.8,17.8,0,0,0,5669.544,3671.736Z"/>
          <path id="Path_142" data-name="Path 142" d="M5680.685,3653.433l1.152,2.7c-.543-.006-1.393-.616-1.978-.766-1.536-.394-3.09-.482-4.633-.808l.021-1.831a8.692,8.692,0,0,1,2.757-.037,10.847,10.847,0,0,0,3.446-.451A4.648,4.648,0,0,1,5680.685,3653.433Z"/>
          <path id="Path_143" data-name="Path 143" d="M5667.676,3664.863a43.54,43.54,0,0,1-12.243,8.41,2.35,2.35,0,0,1-.536-1.422,54.921,54.921,0,0,0,14.821-10.789A26.234,26.234,0,0,0,5673,3657.2a12.322,12.322,0,0,1,1.641-2.413,3.266,3.266,0,0,1,.586-.227C5675.153,3658.2,5670.123,3662.518,5667.676,3664.863Z" fill="#f0ebd5"/>
          <path id="Path_144" data-name="Path 144" d="M5655.433,3673.273l-15.685,8.447c-5.933,3.182-12.02,6.879-18.66,8.377a16.387,16.387,0,0,1,1.3-1.877l.111.072c.707.325,2.183-.353,2.864-.63,3.329-1.351,6.531-3.222,9.722-4.882l10.878-5.689c3.066-1.751,5.646-3.834,8.938-5.24A2.35,2.35,0,0,0,5655.433,3673.273Z" fill="#f0ebd5"/>
          <path id="Path_145" data-name="Path 145" d="M5675.226,3654.556a3.266,3.266,0,0,0-.586.227A12.322,12.322,0,0,0,5673,3657.2a26.234,26.234,0,0,1-3.281,3.866,54.921,54.921,0,0,1-14.821,10.789c-3.292,1.406-5.872,3.489-8.938,5.24l-10.878,5.689c-3.191,1.66-6.393,3.531-9.722,4.882-.681.277-2.157.955-2.864.63l-.111-.072,10.56-12.972,1.71-.22c1.875-.357,3.694-.915,5.54-1.393a72.749,72.749,0,0,0,16.713-6.277l0-.016,8.875-7.422,5.9-6.932.544-1.015c.254-.5.358-.542.179-1.089l.432-.263a5.055,5.055,0,0,1,2.319,1.87l.092.234Z" fill="#f0ebd5"/>
          <path id="Path_146" data-name="Path 146" d="M5666.753,3660.247a22.586,22.586,0,0,1-2.248,2.258,5.97,5.97,0,0,1,1.451-2.115l-.178-.47,5.9-6.932C5670.874,3655.677,5668.65,3658.239,5666.753,3660.247Z" fill="#f0ebd5"/>
          <path id="Path_147" data-name="Path 147" d="M5665.956,3660.39a5.97,5.97,0,0,0-1.451,2.115,42.674,42.674,0,0,1-7.669,5.53,2.207,2.207,0,0,0,.071-.677l0-.016,8.875-7.422Z" fill="#f0ebd5"/>
          <path id="Path_148" data-name="Path 148" d="M5656.836,3668.035c-6.362,3.246-12.83,6.28-20.041,7-.7.07-1.427-.05-2.141-.006,1.875-.357,3.694-.915,5.54-1.393a72.749,72.749,0,0,0,16.713-6.277A2.207,2.207,0,0,1,5656.836,3668.035Z" fill="#f0ebd5"/>
          <path id="Path_149" data-name="Path 149" d="M5672.225,3651.973l-.544,1.015-5.9,6.932-8.875,7.422,0,.016a72.749,72.749,0,0,1-16.713,6.277c-1.846.478-3.665,1.036-5.54,1.393l-1.71.22a44.223,44.223,0,0,1,3.567-4.94,23.881,23.881,0,0,0,7.651-3.018,19.34,19.34,0,0,0,7.317-11.791l1.625.283a25.67,25.67,0,0,0,4.795.068c3.6-.166,7.971-.554,10.939-2.763a19.861,19.861,0,0,1,3.566-2.2C5672.583,3651.431,5672.479,3651.47,5672.225,3651.973Z"/>
          <path id="Path_150" data-name="Path 150" d="M5672.212,3675a57.511,57.511,0,0,1-10.139,18.7c-.949,1.22-1.852,2.548-2.919,3.668-1.322,1.388-2.914,2.562-4.341,3.844a47.289,47.289,0,0,1-5.364,4.506c-1.307.876-2.621,1.766-4,2.523-2.488,1.366-4.927,2.08-6.79,4.383a62.89,62.89,0,0,1-5.033-5.96,35.263,35.263,0,0,0-12.93-10.2c3.189-1.476,6.828-2.244,10.136-3.446a132.08,132.08,0,0,0,16.649-7.558l15.888-9.365,6.176-4.358a17.8,17.8,0,0,1,3.8-2.509C5672.96,3671.164,5672.784,3673.1,5672.212,3675Zm-17.768,19.5a1.466,1.466,0,0,0-.89.9,1.759,1.759,0,0,0,.589,1.066,1.455,1.455,0,0,0,1.044-.311c.372-.335.3-.5.314-.975a1.1,1.1,0,0,0-.74-.706A.611.611,0,0,0,5654.444,3694.5Zm-17.328,8.746a3,3,0,0,0-.84,1.02c.191.5.387.594.793.922l.506,0c.555-.364.627-.368.826-.991a1.811,1.811,0,0,0-.892-.948Zm10.538-1.994a1.878,1.878,0,0,0-.9.851c.044.588.047.577.483.977l.379.134a1.211,1.211,0,0,0,.98-.566,1.8,1.8,0,0,0-.489-1.313Z" fill="#fab017"/>
          <path id="Path_151" data-name="Path 151" d="M5589.751,3581.846a6.091,6.091,0,0,1-.432,2.218,15.5,15.5,0,0,0-1.154-1.384,8.488,8.488,0,0,0,.338-2.449c.14-1.344.365-2.663.445-4.015.368.026.384.252.819.224a4.292,4.292,0,0,1,.489-.841C5590.228,3577.672,5589.965,3579.784,5589.751,3581.846Z"/>
          <path id="Path_152" data-name="Path 152" d="M5593.339,3553.712a31.817,31.817,0,0,1-.282,4.222c-.5,2.845-1.552,5.558-2,8.423-.481,3.066-.326,6.2-.8,9.242a4.292,4.292,0,0,0-.489.841c-.435.028-.451-.2-.819-.224a72.7,72.7,0,0,1,.813-10.277c.4-2.3,1.173-4.458,1.642-6.729a36.656,36.656,0,0,0,.516-5.877,10.654,10.654,0,0,1,1.769.1Z"/>
          <path id="Path_153" data-name="Path 153" d="M5647.9,3593.481a2,2,0,0,1-1.305.435l.135-2.314a3.83,3.83,0,0,1,1.19.208A8.387,8.387,0,0,0,5647.9,3593.481Z"/>
          <path id="Path_154" data-name="Path 154" d="M5629.1,3552.333c-.632,6.161-.122,12.771-1.59,18.791a2.822,2.822,0,0,0-.767-1.568l1.077-17.434A5.191,5.191,0,0,0,5629.1,3552.333Z"/>
          <path id="Path_155" data-name="Path 155" d="M5626.388,3587.269l-.307,11.847a120.074,120.074,0,0,1-.5,13.18l-.717-.032a103.372,103.372,0,0,0,.249-12.279l.282-10.862-.089-5.182a75.263,75.263,0,0,1,1.444-14.385,2.822,2.822,0,0,1,.767,1.568C5626.195,3576.268,5626.416,3581.99,5626.388,3587.269Z"/>
          <path id="Path_156" data-name="Path 156" d="M5583.459,3609.038c.226.43.361.476.766.722a3.133,3.133,0,0,1-.839.766l-1.164.38,1.484-11.392a4.454,4.454,0,0,1,.709,2.626C5583.407,3603.365,5583.475,3607.409,5583.459,3609.038Z"/>
        </g>
        <g id="Group_23" data-name="Group 23" transform="translate(-5349 -3033)">
          <g id="Group_22" data-name="Group 22">
            <path id="Path_168" data-name="Path 168" d="M6711.851,3452.01c2.691,0,3.306.6,3.3,3.3q-.15,59.058-.069,118.117c-1.546.311-1.826,1.777-2.469,2.84-9.695,16.027-18.835,32.36-27.077,49.188a23.6,23.6,0,0,1-1.31,2.108,12.391,12.391,0,0,0-15.136-1.137c-8.953,5.652-15.586,22.366-10.728,34-5.867.615-9.679-2.211-12.4-7.158-1.916-3.484-2.651-7.347-3.984-11.015-.326-4.679-1.123-9.326-.96-14.039,1.471-13.1,5.568-25.43,11.08-37.308,12.934-27.871,26.03-55.667,38.94-83.549,5.782-12.484,10.967-25.2,14.256-38.636.687-2.807-.093-3.778-2.61-4.653-9.484-3.3-18.908-6.766-28.326-10.249a16.752,16.752,0,0,0-5.95-1.03q-43.594.034-87.188-.04a5.186,5.186,0,0,0-5.291,3.193c-5.608,10.6-7.633,22.13-8.6,33.839-1.735,21.1-2.331,42.258-2.269,63.433.055,18.782-.071,37.566-2.868,56.2-1.026,6.83-2.4,13.608-3.612,20.409q-2.858,6.077-5.717,12.152c-.64.449-1.117.967-.773,1.832l0-.05c-2.339,1.07-3.453,3.466-5.4,4.973-4.132,3.2-8.365,5.951-13.935,3.689a14.4,14.4,0,0,0,6.04-9.707,55,55,0,0,0,.993-15.3c-.667-6.986-1.288-14.055-5.523-20.109-4.476-6.4-11.289-8-18.234-4.208-2.334-9.415-3.283-19.064-4.821-28.613-4.093-25.4-8.26-50.776-18.013-74.816a143.4,143.4,0,0,0-28.6-44.812c-1.468-1.56-2.948-3.059-5.005-3.058"/>
            <path id="Path_169" data-name="Path 169" d="M6641.017,3628.214c-.163,4.713.634,9.36.96,14.039a105.825,105.825,0,0,1-18.189,56.954c-6.705,9.932-14.893,18.376-25.632,24.01-20.309,10.653-40.171,3.118-48.239-18.388-5.977-15.932-5.237-32.132-1.322-48.362,1.031-4.27,2.321-8.477,3.492-12.713l0,.05c.806-.379.835-1.086.773-1.832q2.859-6.075,5.717-12.152c1.31-.789,1.735-2.233,2.48-3.425,7.339-11.729,16.359-21.71,28.751-28.34,18.27-9.775,37.334-3.488,46.262,15.24C6638.358,3618.085,6639.5,3623.2,6641.017,3628.214ZM6583.278,3717a23.248,23.248,0,0,0,23.047-23.462c-.252-12.661-10.842-23.125-23.266-22.991-13.181.141-23.269,10.675-23.084,24.1C6560.146,3707.025,6570.691,3717.138,6583.278,3717Z" fill="#699e59"/>
            <path id="Path_170" data-name="Path 170" d="M6516.032,3603.09c6.945-3.789,13.758-2.19,18.234,4.208,4.235,6.054,4.856,13.123,5.523,20.109a55,55,0,0,1-.993,15.3,14.4,14.4,0,0,1-6.04,9.707c-4.751.5-6.821-2.534-8.363-6.309-3.831-9.374-5.334-19.288-6.647-29.225C6517.139,3612.292,6515.981,3607.763,6516.032,3603.09Z" fill="#ed7a22"/>
            <path id="Path_171" data-name="Path 171" d="M6658.361,3660.426c-4.858-11.635,1.775-28.349,10.728-34a12.391,12.391,0,0,1,15.136,1.137,11.723,11.723,0,0,1-1.221,5.891c-4.479,8.578-8.594,17.352-13.925,25.466C6665.726,3664.023,6663.2,3664.4,6658.361,3660.426Z" fill="#ed7a22"/>
          </g>
          <path id="Path_172" data-name="Path 172" d="M6583.278,3717c-12.587.142-23.132-9.971-23.3-22.349-.185-13.429,9.9-23.963,23.084-24.1,12.424-.134,23.014,10.33,23.266,22.991A23.248,23.248,0,0,1,6583.278,3717Z" fill="#fab017"/>
        </g>
      </g>
    </g>
    <g id="Group_25" data-name="Group 25" transform="translate(-5349 -3033)">
      <g id="Group_24" data-name="Group 24" clip-path="url(#clip-path)">
        <path id="Path_173" data-name="Path 173" d="M6441.808,3502.011c34.163,3.928,66.45,8.423,98.145-7.122,18.51-9.078,38.651-14.867,58.169-21.825a57.2,57.2,0,0,1,14.43-2.818c3.581-.294,7.266.68,10.9,1.089q-.017.8-.033,1.6c-9.131,3.249-18.311,6.366-27.382,9.772a171.6,171.6,0,0,0-59.4,37.149c-5.638,5.438-9.39,13.128-13.021,20.287a136.565,136.565,0,0,0-14.212,45.711c-.248,2.08-.166,4.2-.253,6.793,22.817.023,43.447-5.419,62.056-18.036,11.379-7.715,17.679-19.5,24.943-30.574,9.622-14.66,19.22-29.348,29.312-43.683,7.538-10.708,18.176-17.939,29.663-24.005,6.707-3.542,13.086-1.478,21.535.118-2.572,2.267-3.678,3.7-5.135,4.458-28.421,14.789-45.956,39.919-61.593,66.339-12.112,20.464-13.722,43.306-10.375,66.577.765,5.318,2.807,6.6,8.275,4.708,17.32-6.006,29.046-19.157,41.7-31.237,19.329-18.448,27.952-43.192,39.6-66.229,6.249-12.363,13.7-24.133,20.958-35.96,1.843-3.006,5.412-4.925,7.421-7.867,1.912-2.8,3.682-6.256,3.774-9.474.041-1.419-4.031-3.64-6.558-4.347a313.812,313.812,0,0,0-115.619-10.557c-7.272.7-14.95-.522-22.185-2.062-50.337-10.717-91.607,6.33-127.276,40.945a39.6,39.6,0,0,0-3.624,4.492C6444.876,3497.757,6443.783,3499.309,6441.808,3502.011Z" fill="#ed5730"/>
      </g>
    </g>
  </g>
</svg>
