<svg xmlns="http://www.w3.org/2000/svg" width="108.225" height="115.463" viewBox="0 0 108.225 115.463">
  <g id="Group_36" data-name="Group 36" transform="translate(-1592.96 -1552.049)">
    <path id="Path_126" data-name="Path 126" d="M1647.075,1613.159c17.37,0,34.74.027,52.109-.037,1.673-.006,2.072.534,1.991,2.084-.714,13.739-5.549,25.785-15.122,35.691a52.357,52.357,0,0,1-35.9,16.524c-16.465.883-30.49-4.692-41.977-16.4a51.789,51.789,0,0,1-14.874-31.832c-.14-1.375-.163-2.762-.317-4.135-.173-1.548.476-1.94,1.979-1.935,15.292.052,30.585.033,45.877.034Q1643.959,1613.157,1647.075,1613.159Z" fill="#231f20"/>
    <g id="Group_35" data-name="Group 35">
      <path id="Path_127" data-name="Path 127" d="M1691.37,1594.2c.019,1.765-.047,3.52-.135,5.283-.123,2.5-.2,5.013-.166,7.521h1.723c-.1-1.994-.136-3.989-.1-5.988.031-1.792.125-3.581.105-5.374-.02-1.754-.082-3.51-.139-5.264-.064-1.959-.146-3.917-.225-5.876-.039-.951-.159-1.893-.18-2.844a15.773,15.773,0,0,0-.131-2.91c-.1-.459-.694-.307-.81.04a8.788,8.788,0,0,0-.273,2.429c-.034.848-.132,1.7-.133,2.552,0,1.755.1,3.506.214,5.257C1691.226,1590.745,1691.351,1592.469,1691.37,1594.2Z"/>
      <path id="Path_128" data-name="Path 128" d="M1685.242,1575.444a11.68,11.68,0,0,0-.152,2.361c.08,1.173.246,2.338.393,3.5a100.227,100.227,0,0,1,.349,13.535,43.619,43.619,0,0,0,.365,6.582c.263,1.864.622,3.714.914,5.574h1.58a71.662,71.662,0,0,1-1.285-11.05c.033-4.59.351-9.235-.094-13.811a34.711,34.711,0,0,1-.314-6.52c.149-1.644.575-3.716-.293-5.236a.789.789,0,0,0-1.389.746,3.628,3.628,0,0,1,.209,1.869C1685.475,1573.817,1685.35,1574.63,1685.242,1575.444Z"/>
      <path id="Path_129" data-name="Path 129" d="M1681.715,1579.69c.022,2.364.131,4.725.116,7.09-.017,2.667-.075,5.332-.115,8-.062,4.077.026,8.15.206,12.221h1.457q-.272-5.271-.259-10.547c.008-2.663.069-5.324.079-7.987.009-2.5-.129-4.987-.212-7.483-.08-2.439-.061-4.881-.193-7.319a24.877,24.877,0,0,0-1.1-6.93c-.21-.6-1.157-.4-.98.231C1681.863,1571.081,1681.678,1575.46,1681.715,1579.69Z"/>
      <path id="Path_130" data-name="Path 130" d="M1674.609,1570.108c.083,2.952.118,5.9.216,8.856.1,2.927-.18,5.862.02,8.786.1,1.438.346,2.858.429,4.3.081,1.422.084,2.847.055,4.272-.029,1.466-.067,2.923.047,4.388s.322,2.894.537,4.333c.1.653.2,1.305.284,1.958h1.715c-.337-2.666-.9-5.3-.975-7.995-.084-2.977.128-5.931-.2-8.9a41.371,41.371,0,0,1-.37-4.432c-.006-1.451.062-2.9.067-4.35.012-3.375-.217-6.754-.247-10.13-.014-1.7-.021-3.406-.086-5.107a22.615,22.615,0,0,0-.427-5.047.556.556,0,0,0-1.095.076,23.957,23.957,0,0,0-.075,4.435C1674.526,1567.067,1674.566,1568.587,1674.609,1570.108Z"/>
      <path id="Path_131" data-name="Path 131" d="M1668.808,1585.124c.152,3.3.38,6.593.644,9.887a45.982,45.982,0,0,1-.026,4.782,25.644,25.644,0,0,0,.391,4.791c.13.8.215,1.609.268,2.416h1.484c-.084-1.577-.427-3.1-.579-4.669a45.26,45.26,0,0,1,.007-5.17,86.512,86.512,0,0,0-.841-9.778c-.322-3.361-.549-6.728-.614-10.1-.034-1.809-.058-3.609-.155-5.417a37.086,37.086,0,0,1,0-5.626c.286-2.922.77-6.156-.211-8.994-.112-.325-.644-.138-.567.192.635,2.738.183,5.545-.141,8.292-.381,3.225.1,6.451.135,9.679S1668.659,1581.884,1668.808,1585.124Z"/>
      <path id="Path_132" data-name="Path 132" d="M1662.426,1565.39c0,3.3.315,6.577.456,9.869.142,3.312-.091,6.606-.141,9.915a41.654,41.654,0,0,0,.2,5.082c.173,1.609.384,3.213.532,4.824a95.218,95.218,0,0,1,.219,10c-.009.641-.021,1.282-.026,1.924h1.641c.032-3.187.14-6.378,0-9.564-.14-3.263-.62-6.5-.751-9.768-.134-3.337.193-6.669.16-10.006-.037-3.753-.482-7.488-.479-11.242,0-3.676.284-7.353-.287-11-.162-1.033-1.651-.687-1.563.312C1662.671,1558.94,1662.427,1562.173,1662.426,1565.39Z"/>
      <path id="Path_133" data-name="Path 133" d="M1657.213,1563.149c.3,3.477.506,6.952.526,10.442.02,3.433-.184,6.861-.29,10.291-.108,3.513.066,7.008.095,10.52.029,3.452-.075,6.912-.2,10.362-.026.746-.067,1.491-.114,2.236h1.381c.09-3.336.283-6.667.274-10.005-.009-3.455-.25-6.9-.24-10.358.011-3.514.219-7.024.276-10.537.063-3.852-.238-7.689-.552-11.526-.157-1.93-.379-3.853-.544-5.781-.077-.9-.11-1.782-.256-2.671a16.45,16.45,0,0,1-.38-2.532.253.253,0,0,0-.5-.033,19.377,19.377,0,0,0,.111,4.461C1656.849,1559.734,1657.067,1561.44,1657.213,1563.149Z"/>
      <path id="Path_134" data-name="Path 134" d="M1695.4,1588.644c.091,1.165.275,2.313.431,3.47.347,2.563.512,5.163.7,7.742.172,2.382.353,4.759.478,7.144h1.166c-.18-4.585-.365-9.17-.774-13.741a24.684,24.684,0,0,0-.663-3.95c-.157-.62-.267-1.271-.474-1.876a3.153,3.153,0,0,1-.24-1.081,10.033,10.033,0,0,1,.075-1.082c.048-.408-.6-.487-.633-.078-.04.549.027,1.1-.01,1.644A11.848,11.848,0,0,0,1695.4,1588.644Z"/>
      <path id="Path_135" data-name="Path 135" d="M1649.267,1573.134c-.09,3.632-.075,7.267-.192,10.9-.059,1.829-.152,3.649-.084,5.48s.224,3.674.352,5.51a68.669,68.669,0,0,1,.053,10.626c-.039.451-.089.9-.145,1.351h1.8a59.472,59.472,0,0,0,.276-9.221c-.143-3.63-.611-7.252-.54-10.889.073-3.662.237-7.308.186-10.973-.052-3.633-.138-7.267-.228-10.9-.082-3.362-.318-6.719-.315-10.082,0-.732.012-1.464.041-2.2a.745.745,0,0,0-.784-.69.755.755,0,0,0-.69.783,86.673,86.673,0,0,0,.128,9.455C1649.317,1565.91,1649.357,1569.509,1649.267,1573.134Z"/>
      <path id="Path_136" data-name="Path 136" d="M1642.019,1561.211a32.467,32.467,0,0,0,.081,4.89c.077,1.816.143,3.632.186,5.449.17,7.248-.3,14.526.493,21.75.2,1.79.517,3.55.831,5.322a50.92,50.92,0,0,1,.6,5.079c.082,1.1.138,2.2.189,3.3h1.6q-.018-.335-.035-.669c-.087-1.823-.192-3.648-.394-5.462-.192-1.732-.559-3.428-.824-5.148-1.1-7.176-.686-14.452-.717-21.68-.016-3.669-.172-7.335-.332-11-.063-1.439-.114-2.849-.045-4.288a30.864,30.864,0,0,0,.037-4.235,8.6,8.6,0,0,0-.336-1.785.7.7,0,0,0-1.322.437,11.4,11.4,0,0,1,.335,3.786C1642.319,1558.377,1642.175,1559.8,1642.019,1561.211Z"/>
      <path id="Path_137" data-name="Path 137" d="M1636.26,1569.355c-.04,1.545-.468,3.058-.624,4.593a37.753,37.753,0,0,0,.043,5.166c.064,1.8.1,3.6.138,5.408.086,3.781.176,7.561.332,11.34.144,3.493-.094,7.016.21,10.5q.027.32.062.639H1638c-.107-1.116-.188-2.232-.211-3.36-.036-1.774,0-3.549-.044-5.323-.081-3.631-.32-7.262-.433-10.893q-.169-5.477-.286-10.954a23.518,23.518,0,0,1,.516-4.611,16.425,16.425,0,0,0,.117-5.041,100.557,100.557,0,0,1-.927-10.25q-.031-1.163-.021-2.325c.008-.961-1.475-.924-1.493.036a74.48,74.48,0,0,0,.513,9.924A36.909,36.909,0,0,1,1636.26,1569.355Z"/>
      <path id="Path_138" data-name="Path 138" d="M1630,1575.524a11.2,11.2,0,0,1,.123,2.535,13.4,13.4,0,0,1-.545,2.347,12.951,12.951,0,0,0-.463,2.411c-.062.842-.022,1.7-.013,2.543.02,1.763.088,3.526.26,5.281.173,1.777.612,3.5.838,5.267a72.439,72.439,0,0,1,.3,11.092h1.408a74.2,74.2,0,0,0-.158-8.209c-.31-3.57-1.051-7.09-1.219-10.671a44.192,44.192,0,0,1-.061-5.273c.119-1.62.8-3.146.88-4.779.085-1.684-.551-3.287-.821-4.927a50.35,50.35,0,0,1-.5-5.1c-.207-3.351-.222-6.71-.253-10.066-.006-.754-.027-1.5-.072-2.256-.023-.384-.572-.333-.586.038-.121,3.253-.072,6.532.018,9.787A87.605,87.605,0,0,0,1630,1575.524Z"/>
      <path id="Path_139" data-name="Path 139" d="M1620.169,1564.4a28.191,28.191,0,0,0,1.14,4.74,28.154,28.154,0,0,1,1.007,9.51c-.119,1.538-.388,3.064-.516,4.6-.131,1.575-.2,3.156-.233,4.737-.062,3.14.06,6.281.311,9.411a46.694,46.694,0,0,1,.292,4.827c-.036,1.592-.2,3.178-.237,4.769h1.575a63.682,63.682,0,0,0,.169-7.335,83.337,83.337,0,0,1-.005-18.732,30.155,30.155,0,0,0,.339-5.477,33.548,33.548,0,0,0-.7-5.3c-.372-1.781-.987-3.5-1.328-5.29s.054-3.622-.283-5.414a.841.841,0,0,0-.863-.76.818.818,0,0,0-.761.863C1620.354,1561.165,1620.017,1562.788,1620.169,1564.4Z"/>
      <path id="Path_140" data-name="Path 140" d="M1614.562,1564.1c.085.418.135.843.178,1.267.1.954.144,1.911.2,2.868.131,2.45.561,4.871.562,7.328a41.934,41.934,0,0,0,.218,4.552c.166,1.491.44,2.969.654,4.453.453,3.14-.444,6.267-.705,9.386-.131,1.574-.04,3.147-.021,4.723s.023,3.178.093,4.766c.052,1.186.136,2.369.2,3.554h1.362c-.035-.568-.08-1.134-.141-1.7-.177-1.644-.259-3.292-.316-4.944-.054-1.574-.167-3.153-.182-4.727-.03-3.165.834-6.265.777-9.43a31.514,31.514,0,0,0-.466-4.575,45.175,45.175,0,0,1-.468-4.789c-.1-1.8-.246-3.612-.451-5.4-.125-1.087-.28-2.158-.363-3.25-.085-1.117-.161-2.239-.324-3.348a3.264,3.264,0,0,0-.667-1.977c-.314-.267-.7.233-.391.5A1.527,1.527,0,0,1,1614.562,1564.1Z"/>
      <path id="Path_141" data-name="Path 141" d="M1608.384,1578.78c.184,1.278.433,2.547.58,3.83s.14,2.558.179,3.839q.062,2,.118,4a65.042,65.042,0,0,1-.118,7.935c-.124,1.308-.355,2.6-.47,3.912a37.225,37.225,0,0,0-.1,4.185c0,.172.012.345.018.517h1.541a35.615,35.615,0,0,1,.246-6.351,93.331,93.331,0,0,0,.378-16.208c-.1-2.914-.973-5.735-1.024-8.649-.045-2.512-.131-5.02-.22-7.53-.029-.837-1.466-.858-1.481-.008-.038,2.23.085,4.457.106,6.686A28.674,28.674,0,0,0,1608.384,1578.78Z"/>
      <path id="Path_142" data-name="Path 142" d="M1603.942,1586.182c-.151,2.285-.1,4.564-.152,6.851-.052,2.382-.109,4.763-.218,7.143-.1,2.278-.033,4.552.083,6.824h1.036a41.006,41.006,0,0,1-.126-5.418c.129-2.372.138-4.751.15-7.126s.1-4.731.089-7.1c-.011-4.528.7-9.31-.957-13.649-.077-.2-.388-.1-.32.1C1604.833,1577.8,1604.212,1582.082,1603.942,1586.182Z"/>
      <path id="Path_143" data-name="Path 143" d="M1598.024,1596.847q.3,2.752.462,5.517.137,2.318.236,4.636h1.295c-.006-.982-.023-1.962-.06-2.942a91.623,91.623,0,0,0-1.019-10.918c-.265-1.671-.484-3.343-.685-5.023a13.2,13.2,0,0,1,.38-5.172c.188-.672-.824-1.018-1.035-.343a16.774,16.774,0,0,0-.494,4.412,30.1,30.1,0,0,0,.236,4.715C1597.54,1593.439,1597.839,1595.135,1598.024,1596.847Z"/>
      <path id="Path_144" data-name="Path 144" d="M1592.96,1606.406c0,.2.007.4.022.594h1.171c-.079-1.69.139-3.388.009-5.073a16.152,16.152,0,0,1-.053-2.867,7.628,7.628,0,0,0-.06-2.94c-.1-.309-.657-.408-.714-.009a21.69,21.69,0,0,0-.071,2.514c-.019.843-.091,1.7-.069,2.543a22.843,22.843,0,0,1,.013,2.7C1593.131,1604.709,1592.963,1605.554,1592.96,1606.406Z"/>
    </g>
  </g>
</svg>
