<svg xmlns="http://www.w3.org/2000/svg" width="18.053" height="18.06" viewBox="0 0 18.053 18.06">
  <g id="Group_329" data-name="Group 329" transform="translate(-35.64 -443.116)">
    <path id="Path-4" d="M52.155,4941.776a.53.53,0,0,0-.51.928c.631.346.992.73.992,1.053,0,.4-.559,1.007-2.131,1.538a18.859,18.859,0,0,1-5.84.818,18.867,18.867,0,0,1-5.84-.818c-1.571-.535-2.13-1.146-2.13-1.538,0-.323.361-.707.991-1.053a.529.529,0,0,0-.509-.928,2.514,2.514,0,0,0-1.538,1.981c0,.718.494,1.743,2.848,2.541a19.956,19.956,0,0,0,6.176.876,19.985,19.985,0,0,0,6.181-.874c2.354-.8,2.848-1.825,2.848-2.542A2.517,2.517,0,0,0,52.155,4941.776Z" transform="translate(0 -4486)"/>
    <path id="Path-5" d="M40.67,4944.533a17.176,17.176,0,0,0,7.989,0c1.314-.371,1.98-.908,1.98-1.6s-.669-1.226-1.98-1.6c-.292-.083-.609-.155-.947-.216q-.275.474-.576.977a10.368,10.368,0,0,1,1.042.206.839.839,0,1,1,0,1.26,14.66,14.66,0,0,1-3.332.378c-.061,0-.121.006-.182.006a1.753,1.753,0,0,1-.182-.006,14.666,14.666,0,0,1-3.332-.378.839.839,0,1,1,0-1.26c.318-.081.669-.15,1.042-.206q-.3-.5-.576-.977c-.334.061-.655.133-.946.216-1.315.371-1.981.908-1.981,1.6S39.356,4944.164,40.67,4944.533Z" transform="translate(0 -4486)"/>
    <path id="Shape-3" d="M44.671,4942.893h-.014a1.336,1.336,0,0,1-1.137-.643c-1.722-2.815-3.774-6.526-3.774-8.216a4.917,4.917,0,1,1,9.835,0c0,1.688-2.051,5.4-3.772,8.216A1.337,1.337,0,0,1,44.671,4942.893Zm-.007-11.176a1.98,1.98,0,1,0,1.98,1.98A1.977,1.977,0,0,0,44.664,4931.717Z" transform="translate(0 -4486)"/>
  </g>
</svg>
