<svg xmlns="http://www.w3.org/2000/svg" xmlns:xlink="http://www.w3.org/1999/xlink" width="499.593" height="409" viewBox="0 0 499.593 409">
  <defs>
    <clipPath id="clip-path">
      <rect id="Rectangle_25" data-name="Rectangle 25" width="499.593" height="409" transform="translate(0 1751)" fill="none"/>
    </clipPath>
  </defs>
  <g id="Group_44" data-name="Group 44" transform="translate(0 -1751)">
    <g id="Group_43" data-name="Group 43" clip-path="url(#clip-path)">
      <g id="Group_42" data-name="Group 42">
        <path id="Path_150" data-name="Path 150" d="M23.173,2132.454c10.225,5,24.876,2.919,30.825-7.437,4.373-7.612,2.947-18.089-.908-25.624-1.717-3.356-4.2-6.56-7.656-8.264a10.952,10.952,0,0,0-6.96-.931,19.113,19.113,0,0,0-11.558,1.737,26.063,26.063,0,0,0-12.149,12.879C10.456,2114.5,12.868,2127.419,23.173,2132.454Zm.127-27.111a17.509,17.509,0,0,1,7.376-6.673c3.954-1.77,7.274-.161,11.293-.428a2.585,2.585,0,0,0,.494-.088,6.008,6.008,0,0,1,.632.462,15.433,15.433,0,0,1,4.195,7.005c1.709,5.228,1.194,11.584-1.859,15.464-4.253,5.4-14.038,3.812-20.287,1.631C17.991,2120.22,20.207,2110.229,23.3,2105.343Z" fill="#231f20"/>
        <path id="Path_151" data-name="Path 151" d="M-24.519,2164.794a88.942,88.942,0,0,0,51.031,25.232c17.6,2.268,33.6-2.02,49.2-9.979,13.9-7.1,27.458-16.867,36.041-30.139,8.641-13.362,10.439-28.424,5.962-43.612a112.763,112.763,0,0,0-22.028-39.982,3.243,3.243,0,0,0-.961-1.118,71.239,71.239,0,0,0-12.92-11.868,35.429,35.429,0,0,0-9.869-7.944c-4.205-2.185-9.114-3.157-13.727-4.046-9.6-1.847-19.145-3.593-28.967-2.951-19.076,1.246-36.226,11.949-48.468,26.186a95.431,95.431,0,0,0-22.743,51.843C-43.875,2134.843-37.482,2151.673-24.519,2164.794Zm-3.571-62.743c5.089-15.255,13.9-30.258,26.408-40.593,13.739-11.358,30.453-15.453,47.965-13.261,8.033,1.006,16.587,1.952,24.043,5.291,1.4.713,2.776,1.482,4.106,2.331a59.972,59.972,0,0,1,7.689,6.738c1.415,1.391,2.411,3.117,3.83,4.5a12.65,12.65,0,0,0,3.436,2.317c1.774,2.143,3.433,4.36,4.965,6.6,8.128,11.9,14.879,26.773,16.6,41.21,3.464,29.092-25.778,48.871-49.3,58.41-15.052,6.1-30.814,6.339-46.329,1.6-16.254-4.966-31.7-15.111-40.888-29.624C-34.283,2133.806-33.064,2116.962-28.09,2102.051Z" fill="#231f20"/>
        <path id="Path_152" data-name="Path 152" d="M-74.689,2174.319c9.573,12.8,21.6,23.535,32.612,35.053A181.069,181.069,0,0,0-11.2,2235.7c11.018,7.274,24.167,13.372,37.4,14.685a111.74,111.74,0,0,0,44.323-4.327,84.3,84.3,0,0,0,19.6-9.017c6.725-4.258,11.879-9.809,17.5-15.327a98.977,98.977,0,0,1,18.725-14.45c6.271-3.73,13.037-6.611,18.933-10.961,10.119-7.468,15.659-18.45,20.719-29.653,10.954-24.255,19.451-50.277,13.479-77.061a72.105,72.105,0,0,0-20.808-36.868c-10.7-10.33-23.242-18.424-34.236-28.408-10.466-9.505-20.714-18.5-33.262-25.246a102.845,102.845,0,0,0-11.6-5.363,95.341,95.341,0,0,0-13.622-5.522,111.47,111.47,0,0,0-39.716-5.21c-13.275.571-27.436,3.651-38.264,11.774-6.048,4.537-10.854,10.275-15.812,15.922a82.95,82.95,0,0,1-17.53,14.989c-6.177,4.022-12.706,7.6-18.51,12.164a75.511,75.511,0,0,0-16,17.32c-15.1,22.583-16.733,50.252-12.535,76.381,1.257,7.826,2.8,15.417,5.944,22.739A98.642,98.642,0,0,0-74.689,2174.319Zm-3.593-25.15c-4.888-12.188-6.011-25.831-5.858-38.869.14-11.81,1.956-23.687,6.322-34.706,4.975-12.558,13.383-22.669,24.191-30.642,5.364-3.957,11.1-7.377,16.543-11.22A91.232,91.232,0,0,0-21,2019.232c4.4-5.009,8.477-10.435,13.612-14.74a45.4,45.4,0,0,1,15.323-8.059A99.3,99.3,0,0,1,45.1,1992.09c11.777.785,23.367,2.933,33.945,8.34a2.566,2.566,0,0,0,1.156.295,128.291,128.291,0,0,1,24.1,14.743c5.287,4.1,10.022,8.708,14.906,13.258,5.055,4.711,10.395,9.129,15.615,13.656,10.533,9.135,21.672,18.736,28.649,31.02,6.307,11.107,8.742,24.392,8.29,37.071-.426,11.936-3.534,23.573-7.617,34.742-2.293,6.274-4.987,12.4-7.771,18.467-2.406,5.245-4.81,10.68-8.157,15.408-7.292,10.3-18.644,14.348-28.984,20.821a109.088,109.088,0,0,0-17.438,13.431c-5.361,5.107-10.1,10.491-16.239,14.736a81.288,81.288,0,0,1-38.741,13.771,100.443,100.443,0,0,1-21.467-.349c-6.144-.771-12.57-1.849-18.27-4.3-11.994-5.163-22.216-13.461-31.463-22.541-9.7-9.527-19.266-19.279-28.387-29.365C-62.7,2174.325-72.706,2163.073-78.282,2149.169Z" fill="#231f20"/>
        <path id="Path_153" data-name="Path 153" d="M-92.783,2255.559c8.821,6.931,18.245,12.86,27.537,19.112,9.456,6.364,18.4,13.441,27.626,20.127,16.873,12.23,35.493,22.838,56.323,26.259,19.588,3.218,38.757-1.651,57.115-8.251,22.415-8.059,43.886-19.7,58.724-38.779,6.408-8.237,12.128-17.081,19.74-24.3,8.118-7.7,18.719-11.9,27.157-19.176,9.228-7.959,16.367-18.357,23.737-27.972a141.593,141.593,0,0,0,16.786-27.925c8.77-19.491,13.9-41.456,12.3-62.887-1.5-20.076-8.638-38.907-18.217-56.463-5.05-9.254-10.834-18.031-16.293-27.037-5.852-9.655-10.542-19.968-16.479-29.589-8.821-14.294-21.532-24.544-34.62-34.478-3.8-3.117-7.7-6.1-11.739-8.922q-2.93-2.273-5.8-4.611a2,2,0,0,0-1.835-.4c-.539-.332-1.072-.671-1.615-1-18.115-10.866-37.712-18.657-58.8-21.071-20.055-2.3-40.828.647-59.994,6.813-9.636,3.1-19.1,6.7-28.614,10.147-10.32,3.742-20.874,6.7-31.228,10.3-11.225,3.9-21.358,10.236-30.921,17.194-9.065,6.6-18.219,13.152-27.1,19.992-8.581,6.61-16.851,13.669-23.7,22.109-6.892,8.495-11.689,17.918-16.009,27.91-15.366,35.54-21.644,74.27-11.459,112.154C-149.324,2195.117-125.448,2229.891-92.783,2255.559Zm-37.344-81.957c-8.017-17.677-14.133-36.53-15.628-55.97a146.748,146.748,0,0,1,5.189-49.663,197.041,197.041,0,0,1,9.126-25.693c3.835-8.949,8-17.875,13.741-25.78,12.2-16.786,30.346-28.077,46.8-40.213,8.577-6.327,17.412-12.239,27.507-15.869,9.472-3.406,19.365-5.72,28.91-8.965,17.132-5.825,34.369-12.893,52.2-16.262a114.924,114.924,0,0,1,56.336,3.768c17.871,5.669,33.741,14.991,48.462,26.5,15.933,12.459,34.415,25.569,40.634,45.781a3.1,3.1,0,0,0,2.892,2.163c1.369,2.852,2.779,5.685,4.312,8.459,9.57,17.311,20.786,33.338,27.609,52.08,13.7,37.618,4.338,79.975-19.672,111.367-6.621,8.657-12.923,18.015-21,25.41-8.3,7.6-19,11.89-27.305,19.552-7.158,6.606-12.689,14.665-18.493,22.423a93.147,93.147,0,0,1-22.355,21.916A144.453,144.453,0,0,1,81.9,2288.993c-10.155,4.138-20.9,8.008-31.722,9.989-17.754,3.25-34.938-.406-51.087-8.1-18.922-9.018-34.673-23.306-51.9-35-16.474-11.182-32.8-21.726-46.652-36.225A165.078,165.078,0,0,1-130.127,2173.6Z" fill="#231f20"/>
        <path id="Path_154" data-name="Path 154" d="M-184.847,2260.839c8.936,11.814,17.951,23.645,27.979,34.565a220.735,220.735,0,0,0,33.265,29.257c12.609,9.132,25.7,17.587,38.685,26.172,11.816,7.812,23.29,16.282,36.038,22.545a158.6,158.6,0,0,0,75.563,15.98,291.39,291.39,0,0,0,76.467-13.636c26.48-8.383,50.652-23.114,71.8-40.961,22.4-18.907,41.789-41.406,58.053-65.762,14.142-21.178,27.235-43.4,37.2-66.874,9.8-23.078,16.9-47.614,17.524-72.83.659-26.686-6.2-52.821-16.8-77.168a282.732,282.732,0,0,0-46.271-72.748c-16.943-19.424-37.049-35.247-56.327-52.207-13.6-11.963-27.68-24.079-43.645-32.816a3.814,3.814,0,0,0-1.9-3.1c-9.262-5.592-20.269-7.8-30.883-9.075-.559-.067-1.117-.119-1.676-.181a75.455,75.455,0,0,0-14-1.109c-20.835-.977-41.5.922-62.276,4.283-30.65,4.96-61.169,11.932-90.166,23.172a269.476,269.476,0,0,0-79.949,47.82c-9.988,8.686-20.9,16.277-30.448,25.477-9.918,9.56-16.422,20.409-21.354,33.185-9.537,24.705-20.447,50-22.64,76.685-1.252,15.218.823,30.909,2.219,46.071a352.6,352.6,0,0,0,6.528,44.079,202.413,202.413,0,0,0,13.4,41.16C-202.123,2236.553-193.94,2248.817-184.847,2260.839Zm-11.332-37.957c-12.733-25.441-17.877-53.445-20.279-81.573-1.206-14.13-2.2-28.7-1.851-42.881.295-12.15,3.035-24.154,6.5-35.755,3.6-12.055,8.119-23.808,12.679-35.525,4.62-11.867,8.8-22.962,17.545-32.527,9.405-10.288,21.03-18.2,31.662-27.115,10.949-9.184,21.845-18.051,33.979-25.671,26.633-16.726,56.345-28.273,86.69-36.233a548.65,548.65,0,0,1,64.52-12.905,4.187,4.187,0,0,0,2.816.192,83.073,83.073,0,0,1,10.346-1.829l.489-.056a98.477,98.477,0,0,1,23.978.287c10.952,1.55,22.351,3.7,32.518,8.179a141.67,141.67,0,0,1,27.95,16.7c18.095,13.608,34.7,29.218,52.028,43.769,39.631,33.278,71.417,79.58,84.334,129.971,12.311,48.026-3.87,95.626-26.882,137.738-25.815,47.239-59.786,91.414-106.751,119.172-22.251,13.151-46.71,20.531-72.019,25.106-23.844,4.31-48.281,6.527-72.233,1.742A144.057,144.057,0,0,1-42.728,2362.2c-11.959-5.787-22.722-13.583-33.806-20.839-23.87-15.628-48.947-31.187-68.98-51.717a342.629,342.629,0,0,1-26.962-31.963C-180.98,2246.521-189.871,2235.485-196.179,2222.882Z" fill="#231f20"/>
      </g>
    </g>
  </g>
</svg>
