<svg xmlns="http://www.w3.org/2000/svg" xmlns:xlink="http://www.w3.org/1999/xlink" width="389" height="166" viewBox="0 0 389 166">
  <defs>
    <clipPath id="clip-path">
      <rect id="Rectangle_7" data-name="Rectangle 7" width="389" height="166" transform="translate(6326 3463)" fill="none"/>
    </clipPath>
  </defs>
  <g id="Group_25" data-name="Group 25" transform="translate(-6326 -3463)">
    <g id="Group_24" data-name="Group 24" clip-path="url(#clip-path)">
      <path id="Path_173" data-name="Path 173" d="M6441.808,3502.011c34.163,3.928,66.45,8.423,98.145-7.122,18.51-9.078,38.651-14.867,58.169-21.825a57.2,57.2,0,0,1,14.43-2.818c3.581-.294,7.266.68,10.9,1.089q-.017.8-.033,1.6c-9.131,3.249-18.311,6.366-27.382,9.772a171.6,171.6,0,0,0-59.4,37.149c-5.638,5.438-9.39,13.128-13.021,20.287a136.565,136.565,0,0,0-14.212,45.711c-.248,2.08-.166,4.2-.253,6.793,22.817.023,43.447-5.419,62.056-18.036,11.379-7.715,17.679-19.5,24.943-30.574,9.622-14.66,19.22-29.348,29.312-43.683,7.538-10.708,18.176-17.939,29.663-24.005,6.707-3.542,13.086-1.478,21.535.118-2.572,2.267-3.678,3.7-5.135,4.458-28.421,14.789-45.956,39.919-61.593,66.339-12.112,20.464-13.722,43.306-10.375,66.577.765,5.318,2.807,6.6,8.275,4.708,17.32-6.006,29.046-19.157,41.7-31.237,19.329-18.448,27.952-43.192,39.6-66.229,6.249-12.363,13.7-24.133,20.958-35.96,1.843-3.006,5.412-4.925,7.421-7.867,1.912-2.8,3.682-6.256,3.774-9.474.041-1.419-4.031-3.64-6.558-4.347a313.812,313.812,0,0,0-115.619-10.557c-7.272.7-14.95-.522-22.185-2.062-50.337-10.717-91.607,6.33-127.276,40.945a39.6,39.6,0,0,0-3.624,4.492C6444.876,3497.757,6443.783,3499.309,6441.808,3502.011Z" fill="#ed5730"/>
    </g>
  </g>
</svg>
