<svg xmlns="http://www.w3.org/2000/svg" width="1365" height="628.38" viewBox="0 0 1365 628.38">
  <g id="Group_184" data-name="Group 184" transform="translate(-1 -1241)">
    <path id="Rectangle_53" data-name="Rectangle 53" d="M0,0H1365a0,0,0,0,1,0,0V0A479,479,0,0,1,886,479H0a0,0,0,0,1,0,0V0A0,0,0,0,1,0,0Z" transform="translate(1 1351)" fill="#f0ebd5"/>
    <g id="Group_115" data-name="Group 115" transform="translate(-1386)">
      <g id="Group_114" data-name="Group 114">
        <path id="Path_2472" data-name="Path 2472" d="M2470.5,1382.863c-.288,4.823-1.752,8.17-6.222,9.553-12.278,3.8-24.607,7.456-36.762,11.618-12.251,4.2-25.393,6.057-36.627,13.817a8.918,8.918,0,0,1,.616-1.168c11.816-15.092,23.721-30.116,35.418-45.3,4.054-5.263,8.206-9.913,15.9-9.773l-39.089-30.039c-12.177,23.347-24.141,46.283-36.115,69.239.624.548.961.868,1.322,1.157,6.176,4.944,8.025,11.948,4.843,18.361-3.124,6.3-9.66,9.193-17.2,7.284-2.563-.649-3.109.38-3.4,2.628,11.419,3.892,21.624,2.052,30.91-5.451.833-.674,2.18-.713,3.288-1.046.271,1.119,1,2.358.74,3.339-1.6,6.088-3.411,12.121-5.171,18.167a15.164,15.164,0,0,0-.951,3.041c-.038.595.7,1.239,1.09,1.861a6.717,6.717,0,0,0,1.6-1.4,6.831,6.831,0,0,0,.46-2.074,16.991,16.991,0,0,1,16.659-13.956c8.069-.1,14.757,5.229,16.778,13.363.279,1.124.563,2.246.913,3.637l114.3-1.879c-3.066-7.354-5.734-14.07-8.691-20.656a14.253,14.253,0,0,0-3.942-5.271c-12.473-9.769-25.078-19.369-37.64-29.024C2479.3,1389.647,2475.088,1386.4,2470.5,1382.863Zm-142.005-110.858c-1.036-3.876-1.964-7.528-3.015-11.145a4.4,4.4,0,0,0-1.4-2.26c-5.319-3.809-7.272-8.824-5.951-15.241.138-.673-.8-1.567-1.24-2.359-.691.476-1.76.809-2,1.453a23.008,23.008,0,0,0-1.678,6.14C2312.345,1259.432,2317.807,1265.8,2328.492,1272.005Z" fill="#fff"/>
        <path id="Path_2473" data-name="Path 2473" d="M2733,1846.591c-1.134-1.935-2.39-3.81-3.385-5.814q-47.709-96.148-95.374-192.319-44.991-90.706-90.014-181.4c-1.746-3.52-3.677-6.964-5.173-10.587-4.244-10.283-8.229-20.673-12.511-30.94a12.7,12.7,0,0,0-3.8-4.944q-50.8-39.183-101.72-78.21c-5.951-4.574-11.968-9.076-17.706-13.907-6.615-5.569-8.655-15.66-5.109-23.535a10.8,10.8,0,0,1,2.268-3.195c-1.251,8.15.772,14.714,8.729,17.825,6.745,2.638,12.328.07,16.772-5.7l73.9,36.282q.367-.57.733-1.141a17.966,17.966,0,0,0-2.71-2.027q-34.941-17.217-69.931-34.333c-7.143-3.478-14.455-6.61-21.685-9.911a17.261,17.261,0,0,1-2.865-1.451c-4-2.839-4.471-2.763-6.531,1.7a23.537,23.537,0,0,0-.7,18.753q.494,1.326.948,2.666c.022.066-.124.189-.389.566-5.837-4.449-11.679-8.877-17.494-13.34-12.943-9.933-26.134-19.566-38.71-29.945-7.787-6.427-14.259-14.224-13.051-25.517a36.828,36.828,0,0,1,1.739-7.253c.27-.841,1.285-1.442,1.959-2.153l.759.5a18.049,18.049,0,0,1-.4,2.254c-1.989,6.469.3,12.755,5.884,16.1a13.151,13.151,0,0,0,16.9-2.612c1.977-2.333,3.325-2.053,5.661-.936q68.667,32.85,137.409,65.54a41.243,41.243,0,0,0,3.986,1.432l.586-1.462-157.782-75.03.134-.338q11.166,4.534,22.33,9.071c47.732,19.461,95.422,39.026,143.243,58.265,6.005,2.416,10.515,6.116,14.827,10.622q71.988,75.233,144.08,150.364,32.127,33.53,64.193,67.119Z"/>
        <path id="Path_2474" data-name="Path 2474" d="M2470.5,1382.863c4.591,3.536,8.8,6.784,13.021,10.026,12.562,9.655,25.167,19.255,37.64,29.024a14.253,14.253,0,0,1,3.942,5.271c2.957,6.586,5.625,13.3,8.691,20.656l-114.3,1.879c-.35-1.391-.634-2.513-.913-3.637-2.021-8.134-8.709-13.461-16.778-13.363a16.991,16.991,0,0,0-16.659,13.956,6.831,6.831,0,0,1-.46,2.074,6.717,6.717,0,0,1-1.6,1.4c-.389-.622-1.128-1.266-1.09-1.861a15.164,15.164,0,0,1,.951-3.041c1.76-6.046,3.572-12.079,5.171-18.167.257-.981-.469-2.22-.74-3.339-1.108.333-2.455.372-3.288,1.046-9.286,7.5-19.491,9.343-30.91,5.451.3-2.248.841-3.277,3.4-2.628,7.543,1.909,14.079-.989,17.2-7.284,3.182-6.413,1.333-13.417-4.843-18.361-.361-.289-.7-.609-1.322-1.157,11.974-22.956,23.938-45.892,36.115-69.239l39.089,30.039c-7.69-.14-11.842,4.51-15.9,9.773-11.7,15.183-23.6,30.207-35.418,45.3a8.918,8.918,0,0,0-.616,1.168c11.234-7.76,24.376-9.621,36.627-13.817,12.155-4.162,24.484-7.82,36.762-11.618C2468.745,1391.033,2470.209,1387.686,2470.5,1382.863Z"/>
        <path id="Path_2475" data-name="Path 2475" d="M2328.492,1272.005c-10.685-6.208-16.147-12.573-15.289-23.412a23.008,23.008,0,0,1,1.678-6.14c.243-.644,1.312-.977,2-1.453.439.792,1.378,1.686,1.24,2.359-1.321,6.417.632,11.432,5.951,15.241a4.4,4.4,0,0,1,1.4,2.26C2326.528,1264.477,2327.456,1268.129,2328.492,1272.005Z"/>
      </g>
      <path id="Path_2476" data-name="Path 2476" d="M2325.024,1452.259a19.183,19.183,0,1,0,25.669,8.318A19.182,19.182,0,0,0,2325.024,1452.259Z" fill="#699e59"/>
      <path id="Path_2477" data-name="Path 2477" d="M2245.159,1644.732a19.183,19.183,0,1,0,25.668,8.318A19.181,19.181,0,0,0,2245.159,1644.732Z" fill="#fab017"/>
      <path id="Path_2478" data-name="Path 2478" d="M2336.07,1564.1a19.183,19.183,0,1,0,25.669,8.318A19.182,19.182,0,0,0,2336.07,1564.1Z" fill="#dba2c9"/>
      <path id="Path_2479" data-name="Path 2479" d="M2367.828,1684.067a19.183,19.183,0,1,0,25.668,8.318A19.18,19.18,0,0,0,2367.828,1684.067Z" fill="#ed242a"/>
    </g>
    <g id="Group_116" data-name="Group 116" transform="translate(-1386)">
      <path id="Path_2480" data-name="Path 2480" d="M1985.8,1830c2.044-9.039.067-17.808-2.06-26.489-1.809-7.383-5.155-13.763-12.472-17.495-5.485-2.8-10.644-2.6-15.973-.011-1.09.53-2.206,1.005-3.776,1.716-.448-1.379-.818-2.472-1.157-3.574-1.222-3.976-2.156-8.068-3.721-11.9a11.031,11.031,0,0,0-12.04-6.38c-10.058,2.008-19.926,4.682-28.366,10.826-6.024,4.386-10.175,9.841-8.912,18.059.163,1.064-1.518,3.045-2.777,3.574-3.529,1.483-7.418,2.125-10.919,3.658a13.115,13.115,0,0,0-8.328,12.368c-.075,5.212.576,10.434.907,15.651Z" fill="#6b9c5b"/>
      <path id="Path_2481" data-name="Path 2481" d="M2179.908,1830c-.959-22.191-11.636-39.386-28.076-53.307a281.522,281.522,0,0,0-24.148-18c-10.863-7.355-34.595-12.039-46.947-9.581,1.4,3.327,2.5,6.676,4.153,9.724,5.673,10.459,11.579,20.79,17.322,31.211,9.936,18.027,25.6,28.863,44.582,35.452,5.066,1.758,10.307,3.013,15.467,4.5Z" fill="#6b9c5b"/>
      <path id="Path_2482" data-name="Path 2482" d="M2061.026,1830c-1.363-8.43-7.5-13.565-13.26-18.859-3.731-3.432-7.8-6.508-11.855-9.57-8.069-6.1-12.885-6.82-20.965-.95-9.725,7.064-15.834,16.644-15.219,29.379Z" fill="#f9b031"/>
      <path id="Path_2483" data-name="Path 2483" d="M2111.179,1830c-8.811-10.316-17.565-20.681-26.469-30.916a123.486,123.486,0,0,0-8.873-8.841,12.123,12.123,0,0,0-3.07-1.547c-.279,1.24-.949,2.536-.777,3.709,1.841,12.543,3.816,25.066,5.754,37.595Z" fill="#f9b031"/>
    </g>
    <g id="Group_118" data-name="Group 118" transform="translate(-1386)">
      <path id="Path_2484" data-name="Path 2484" d="M2274.383,1807.471a58.881,58.881,0,1,1-116.961-13.716" fill="#f9b031"/>
      <g id="Group_117" data-name="Group 117">
        <path id="Path_2485" data-name="Path 2485" d="M2165.253,1805.78c.166-1.569.408-3.121.669-4.676.37-2.2.7-4.43.93-6.66l-1.529-.179c-.122,1.78-.295,3.556-.533,5.326-.214,1.588-.484,3.166-.652,4.76-.165,1.559-.293,3.125-.425,4.687-.148,1.747-.278,3.493-.412,5.241-.065.848-.056,1.7-.136,2.544a14.062,14.062,0,0,0-.188,2.6c.039.418.585.345.724.049a7.852,7.852,0,0,0,.5-2.128c.119-.749.295-1.5.384-2.252.183-1.558.273-3.123.357-4.688C2165.021,1808.859,2165.09,1807.315,2165.253,1805.78Z"/>
        <path id="Path_2486" data-name="Path 2486" d="M2168.74,1823.065a10.457,10.457,0,0,0,.381-2.08c.051-1.05.025-2.1.016-3.152a89.581,89.581,0,0,1,1.1-12.052,38.941,38.941,0,0,0,.362-5.881c-.04-1.683-.166-3.362-.232-5.044l-1.4-.164a63.978,63.978,0,0,1-.009,9.943,118.818,118.818,0,0,0-1.354,12.271,31.049,31.049,0,0,1-.4,5.821c-.3,1.444-.9,3.239-.285,4.678a.706.706,0,0,0,1.312-.517,3.236,3.236,0,0,1,.009-1.681C2168.364,1824.485,2168.559,1823.776,2168.74,1823.065Z"/>
        <path id="Path_2487" data-name="Path 2487" d="M2172.313,1819.663c.227-2.1.376-4.208.636-6.306.293-2.366.621-4.727.935-7.09.479-3.613.825-7.238,1.089-10.871l-1.293-.151q-.309,4.707-.868,9.39c-.285,2.363-.616,4.72-.9,7.082-.269,2.218-.405,4.441-.591,6.665-.183,2.174-.454,4.34-.591,6.518a22.255,22.255,0,0,0,.257,6.267c.125.554.985.479.894-.1C2171.286,1827.29,2171.906,1823.422,2172.313,1819.663Z"/>
        <path id="Path_2488" data-name="Path 2488" d="M2177.624,1828.909c.234-2.629.511-5.254.73-7.884.218-2.609.771-5.186.9-7.8.063-1.287-.009-2.574.068-3.862.075-1.271.221-2.536.4-3.8.179-1.3.364-2.589.415-3.9s.015-2.6-.025-3.9c-.018-.59-.039-1.179-.049-1.768l-1.522-.178c.021,2.4.246,4.8.033,7.2-.235,2.652-.731,5.252-.748,7.925a37.157,37.157,0,0,1-.133,3.974c-.146,1.288-.358,2.568-.513,3.855-.362,2.995-.51,6.018-.836,9.019-.164,1.513-.335,3.025-.454,4.542a20.166,20.166,0,0,0-.147,4.525.5.5,0,0,0,.98.047,21.359,21.359,0,0,0,.528-3.93C2177.382,1831.617,2177.5,1830.264,2177.624,1828.909Z"/>
        <path id="Path_2489" data-name="Path 2489" d="M2184.337,1816.182c.209-2.946.35-5.893.458-8.844a41.236,41.236,0,0,1,.521-4.243,22.825,22.825,0,0,0,.152-4.294c-.032-.727-.024-1.451.013-2.172l-1.317-.155c-.09,1.409.056,2.8.028,4.206a40.252,40.252,0,0,1-.545,4.588,77.454,77.454,0,0,0-.271,8.769c-.064,3.017-.213,6.03-.507,9.034-.158,1.609-.324,3.21-.426,4.824a33.148,33.148,0,0,1-.585,5c-.558,2.563-1.324,5.384-.749,8.005.066.3.557.19.524-.11-.279-2.5.415-4.943.988-7.347.674-2.823.586-5.737.887-8.607S2184.132,1819.074,2184.337,1816.182Z"/>
        <path id="Path_2490" data-name="Path 2490" d="M2187.949,1834.366c.345-2.928.405-5.872.622-8.809.219-2.955.769-5.855,1.157-8.788a37.135,37.135,0,0,0,.354-4.531c.014-1.447-.006-2.893.03-4.339a85.026,85.026,0,0,1,.847-8.9c.074-.569.151-1.137.223-1.706l-1.457-.171c-.36,2.827-.788,5.648-1,8.49-.215,2.912-.126,5.838-.349,8.75-.229,2.977-.866,5.9-1.185,8.867-.358,3.335-.351,6.7-.744,10.03a62.849,62.849,0,0,0-.892,9.8c.036.935,1.4.782,1.42-.114C2187.06,1840.067,2187.613,1837.221,2187.949,1834.366Z"/>
        <path id="Path_2491" data-name="Path 2491" d="M2192.343,1836.9c.1-3.117.275-6.224.62-9.325.34-3.049.878-6.072,1.329-9.106.462-3.107.671-6.228,1.011-9.349.334-3.067.786-6.128,1.253-9.178.1-.66.215-1.317.334-1.973l-1.226-.144c-.427,2.952-.945,5.889-1.285,8.853-.352,3.069-.5,6.156-.866,9.221-.375,3.119-.925,6.213-1.341,9.326-.457,3.413-.589,6.85-.71,10.29-.061,1.729-.064,3.459-.119,5.188-.025.8-.088,1.593-.051,2.4a14.585,14.585,0,0,1,.074,2.287c-.029.257.359.32.439.082a17.406,17.406,0,0,0,.366-3.972C2192.311,1839.968,2192.295,1838.43,2192.343,1836.9Z"/>
        <path id="Path_2492" data-name="Path 2492" d="M2161.1,1810.29c.041-1.044,0-2.083-.021-3.126-.042-2.311.083-4.637.186-6.946.1-2.133.183-4.262.319-6.392l-1.035-.121c-.317,4.089-.63,8.179-.743,12.279a22.052,22.052,0,0,0,.177,3.576c.076.567.1,1.156.226,1.714a2.835,2.835,0,0,1,.1.986,9.279,9.279,0,0,1-.179.952c-.086.357.484.495.553.135.093-.483.091-.977.18-1.458A10.515,10.515,0,0,0,2161.1,1810.29Z"/>
        <path id="Path_2493" data-name="Path 2493" d="M2200.437,1828.861c.458-3.215.824-6.444,1.3-9.656.243-1.618.515-3.223.645-4.856s.184-3.285.261-4.928a61.447,61.447,0,0,1,1.06-9.439c.081-.4.172-.79.269-1.184l-1.6-.188a53.049,53.049,0,0,0-1.205,8.158c-.252,3.238-.212,6.5-.655,9.723-.445,3.243-.971,6.463-1.307,9.722-.332,3.23-.634,6.465-.933,9.7-.276,2.992-.417,6-.769,8.983-.077.649-.163,1.3-.265,1.945a.664.664,0,0,0,.624.694.675.675,0,0,0,.694-.623,77.385,77.385,0,0,0,.87-8.407C2199.64,1835.269,2199.98,1832.07,2200.437,1828.861Z"/>
        <path id="Path_2494" data-name="Path 2494" d="M2205.63,1840.2a29.024,29.024,0,0,0,.438-4.349q.18-2.43.4-4.857c.6-6.452,1.775-12.865,1.826-19.36.013-1.61-.089-3.206-.183-4.811a45.187,45.187,0,0,1,0-4.572c.041-.983.106-1.966.175-2.948l-1.416-.166q-.018.3-.039.6c-.112,1.628-.209,3.258-.218,4.89-.01,1.558.139,3.1.195,4.657.234,6.485-.895,12.9-1.62,19.321-.368,3.259-.611,6.53-.85,9.8-.094,1.284-.2,2.541-.407,3.812a27.662,27.662,0,0,0-.474,3.756,7.7,7.7,0,0,0,.113,1.62.623.623,0,0,0,1.219-.251,10.169,10.169,0,0,1,.1-3.4C2205.069,1842.685,2205.345,1841.438,2205.63,1840.2Z"/>
        <path id="Path_2495" data-name="Path 2495" d="M2211.591,1833.57c.2-1.367.733-2.666,1.031-4.013a33.769,33.769,0,0,0,.5-4.591c.13-1.606.288-3.21.44-4.815.317-3.365.631-6.731.886-10.1.236-3.116.814-6.219.907-9.342.005-.192.009-.383.011-.575l-1.405-.164c-.021,1-.065,2-.162,3.005-.152,1.578-.366,3.151-.515,4.73-.306,3.232-.472,6.48-.75,9.715q-.418,4.88-.886,9.754a21.018,21.018,0,0,1-.938,4.04,14.664,14.664,0,0,0-.629,4.463,89.874,89.874,0,0,1-.244,9.2q-.093,1.035-.224,2.066c-.107.853,1.214.974,1.33.124a66.512,66.512,0,0,0,.577-8.864A33.073,33.073,0,0,1,2211.591,1833.57Z"/>
        <path id="Path_2496" data-name="Path 2496" d="M2217.788,1828.745a10.039,10.039,0,0,1,.156-2.264,11.919,11.919,0,0,1,.728-2.027,11.472,11.472,0,0,0,.661-2.092c.143-.741.2-1.506.277-2.256.166-1.567.289-3.139.319-4.715.031-1.6-.179-3.171-.2-4.763a64.734,64.734,0,0,1,.885-9.879l-1.25-.146a66.613,66.613,0,0,0-.715,7.3c-.095,3.2.2,6.4-.028,9.6a39.489,39.489,0,0,1-.5,4.687c-.274,1.426-1.036,2.71-1.279,4.152a20.838,20.838,0,0,0,.217,4.459,45.162,45.162,0,0,1-.084,4.581c-.166,3-.5,5.981-.824,8.964-.073.669-.133,1.336-.171,2.009-.019.344.474.356.524.028.447-2.875.744-5.792,1-8.69A78.257,78.257,0,0,0,2217.788,1828.745Z"/>
        <path id="Path_2497" data-name="Path 2497" d="M2225.361,1839.641a25.263,25.263,0,0,0-.52-4.327,25.15,25.15,0,0,1,.1-8.546c.265-1.354.663-2.68.937-4.034.28-1.384.507-2.781.7-4.18.382-2.782.6-5.583.7-8.388a41.458,41.458,0,0,1,.243-4.315c.2-1.41.5-2.8.707-4.209l-1.4-.164a57.105,57.105,0,0,0-.913,6.493,74.475,74.475,0,0,1-1.946,16.631,27.024,27.024,0,0,0-.871,4.827,29.966,29.966,0,0,0,.066,4.776c.145,1.621.512,3.213.628,4.835s-.425,3.21-.312,4.835a.753.753,0,0,0,.687.766.734.734,0,0,0,.766-.688C2224.859,1842.5,2225.327,1841.091,2225.361,1839.641Z"/>
        <path id="Path_2498" data-name="Path 2498" d="M2230.306,1840.491c-.031-.38-.032-.762-.026-1.143.014-.857.072-1.712.126-2.566.139-2.189.009-4.383.264-6.565a37.331,37.331,0,0,0,.28-4.063c.008-1.341-.081-2.682-.117-4.022-.075-2.834,1.047-5.517,1.6-8.259.281-1.383.364-2.789.51-4.19s.311-2.824.414-4.241c.077-1.059.126-2.118.193-3.176l-1.21-.142c-.027.508-.046,1.016-.051,1.524-.014,1.478-.113,2.95-.235,4.422-.115,1.4-.179,2.817-.33,4.216-.3,2.812-1.392,5.475-1.672,8.29a28.2,28.2,0,0,0-.062,4.11,40.5,40.5,0,0,1-.083,4.3c-.1,1.608-.158,3.232-.162,4.843,0,.978.023,1.945-.017,2.923-.04,1-.09,2-.06,3.006a2.92,2.92,0,0,0,.386,1.824c.251.271.641-.134.4-.406A1.356,1.356,0,0,1,2230.306,1840.491Z"/>
        <path id="Path_2499" data-name="Path 2499" d="M2237.319,1828.1c-.03-1.154-.119-2.306-.116-3.461s.142-2.285.241-3.426q.155-1.783.311-3.565a58.16,58.16,0,0,1,.932-7.032c.245-1.149.586-2.275.824-3.425a33.474,33.474,0,0,0,.529-3.7c.014-.153.025-.307.038-.461l-1.368-.16a31.89,31.89,0,0,1-.88,5.613,83.46,83.46,0,0,0-2.023,14.349c-.215,2.6.267,5.193.009,7.784-.222,2.235-.406,4.47-.589,6.709-.061.746,1.212.914,1.314.16.266-1.975.389-3.965.6-5.946A25.433,25.433,0,0,0,2237.319,1828.1Z"/>
        <path id="Path_2500" data-name="Path 2500" d="M2242.034,1822c.371-2.013.566-4.041.848-6.066.293-2.109.592-4.218.937-6.319.329-2.012.5-4.037.636-6.067l-.919-.107a36.64,36.64,0,0,1-.453,4.822c-.361,2.093-.616,4.2-.875,6.312s-.576,4.189-.818,6.29c-.461,4.021-1.589,8.193-.57,12.217a.15.15,0,0,0,.294-.057C2240.37,1829.341,2241.367,1825.607,2242.034,1822Z"/>
        <path id="Path_2501" data-name="Path 2501" d="M2248.4,1813.144q.023-2.475.165-4.946.119-2.071.273-4.14l-1.15-.135c-.1.872-.184,1.745-.253,2.618a81.784,81.784,0,0,0-.232,9.8c.061,1.511.082,3.018.085,4.531a11.781,11.781,0,0,1-.876,4.552c-.236.576.626.989.884.412a15.087,15.087,0,0,0,.9-3.866,26.919,26.919,0,0,0,.281-4.21C2248.472,1816.22,2248.384,1814.683,2248.4,1813.144Z"/>
        <path id="Path_2502" data-name="Path 2502" d="M2253.888,1805.186c.022-.177.035-.354.043-.53l-1.04-.122c-.106,1.508-.476,2.993-.536,4.5a14.424,14.424,0,0,1-.252,2.551,6.834,6.834,0,0,0-.253,2.616c.058.285.541.431.633.082a19.416,19.416,0,0,0,.325-2.224c.1-.746.258-1.5.326-2.251a20.468,20.468,0,0,1,.269-2.393C2253.56,1806.674,2253.8,1805.941,2253.888,1805.186Z"/>
      </g>
    </g>
    <g id="Group_122" data-name="Group 122" transform="translate(-1386)">
      <path id="Path_2503" data-name="Path 2503" d="M2015.389,1795.2h0a10.542,10.542,0,0,0-3.546-14.481l-.583-.354a10.542,10.542,0,0,0-14.481,3.546h0a22.526,22.526,0,0,1-16.846,10.713l-1.031.111a31.134,31.134,0,0,0-23.282,14.807l-6.1,10.054a32.781,32.781,0,0,0,11.027,45.029h0a32.781,32.781,0,0,0,45.029-11.027l6.1-10.053a31.135,31.135,0,0,0,2.374-27.49l-.378-.966A22.526,22.526,0,0,1,2015.389,1795.2Z" fill="#ed5730"/>
      <ellipse id="Ellipse_12" data-name="Ellipse 12" cx="25.377" cy="17.275" rx="25.377" ry="17.275" transform="matrix(0.519, -0.855, 0.855, 0.519, 1953.043, 1843.686)" fill="#ed5730" style="mix-blend-mode: color-burn;isolation: isolate"/>
      <g id="Group_119" data-name="Group 119">
        <circle id="Ellipse_13" data-name="Ellipse 13" cx="5.357" cy="5.357" r="5.357" transform="translate(1975.444 1825.486)"/>
        <circle id="Ellipse_14" data-name="Ellipse 14" cx="5.357" cy="5.357" r="5.357" transform="matrix(0.649, -0.761, 0.761, 0.649, 1964.09, 1825.887)"/>
        <circle id="Ellipse_15" data-name="Ellipse 15" cx="5.357" cy="5.357" r="5.357" transform="translate(1984.604 1831.043)"/>
      </g>
      <g id="Group_120" data-name="Group 120">
        <circle id="Ellipse_16" data-name="Ellipse 16" cx="5.357" cy="5.357" r="5.357" transform="translate(1984.828 1820.345)"/>
        <circle id="Ellipse_17" data-name="Ellipse 17" cx="5.357" cy="5.357" r="5.357" transform="translate(1975.668 1814.789)"/>
        <circle id="Ellipse_18" data-name="Ellipse 18" cx="5.357" cy="5.357" r="5.357" transform="translate(1984.988 1809.753)"/>
      </g>
      <g id="Group_121" data-name="Group 121">
        <circle id="Ellipse_19" data-name="Ellipse 19" cx="5.357" cy="5.357" r="5.357" transform="translate(1966.072 1830.609)"/>
        <circle id="Ellipse_20" data-name="Ellipse 20" cx="5.357" cy="5.357" r="5.357" transform="translate(1965.86 1841.287)"/>
        <circle id="Ellipse_21" data-name="Ellipse 21" cx="5.357" cy="5.357" r="5.357" transform="translate(1975.232 1836.165)"/>
      </g>
    </g>
    <g id="Group_124" data-name="Group 124" transform="translate(-1386)">
      <path id="Path_2504" data-name="Path 2504" d="M2332,1784.726l-13.889.312s-10.373,6.145-15,12.374c0,0,6.949,2.258,10.7,1.714C2313.815,1799.126,2327.944,1792.973,2332,1784.726Z" fill="#ce98c2"/>
      <path id="Path_2505" data-name="Path 2505" d="M2328.47,1834.137a22.739,22.739,0,0,1-10.7-13.623l-3.435-7.24-.516-14.148s1.323-1.012,10.551,11.533l2.866,6.289Z" fill="#ce98c2"/>
      <g id="LCjY25">
        <g id="Group_123" data-name="Group 123">
          <path id="Path_2506" data-name="Path 2506" d="M2248,1772.216c2.07-5.671,3.939-11.409,5.723-17.175.821-2.653,1.556-5.333,2.437-7.966.337-1.006-.058-1.228-.888-1.4-1.782-.376-1.821-.383-2.274,1.416-1.564,6.2-3.754,12.2-5.812,18.239-1.831,5.378-3.906,10.665-5.8,16.019-.28.79-.217,1.327.6,1.73a24.718,24.718,0,0,1,2.477,1.427c.792.512,1.245.334,1.617-.518,1.527-3.5,3.111-6.968,4.636-10.466q2.212-5.076,4.345-10.186c2.057-4.937,4.065-9.894,6.12-14.832.309-.742.176-1.2-.587-1.435-.7-.22-1.389-.838-1.929.367-2.493,5.561-4.993,11.117-7.223,16.792A66.791,66.791,0,0,1,2248,1772.216Z"/>
          <path id="Path_2507" data-name="Path 2507" d="M2272.791,1765.788c-1.247,3.244-2.406,6.526-3.761,9.724-2.266,5.345-4.14,10.849-6.6,16.114-.215.459-.547,1,.252,1.337,1.19.5,2.183.389,2.514-.381,1.685-3.926,3.411-7.836,5.008-11.8,1.673-4.152,3.214-8.358,4.815-12.539,1.29-3.368,2.575-6.738,3.883-10.1a1.059,1.059,0,0,0-.427-1.486c-.948-.592-1.85-1.625-2.832-1.7-1.215-.1-1.24,1.513-1.751,2.378-1.117,1.889-2.114,3.852-3.13,5.8-4.551,8.72-8.567,17.695-12.724,26.6-.377.808-.579,1.418.509,1.863,1.436.588,1.7.581,2.271-.622q5.7-12.113,11.383-24.233.236-.5.469-1.006Z"/>
          <path id="Path_2508" data-name="Path 2508" d="M2262.229,1761.077c1.524-3.272,3.023-6.557,4.591-9.807.413-.855.515-1.4-.5-1.854-.9-.406-1.546-.632-2.095.518-2.877,6.023-5.751,12.048-8.732,18.019-2.665,5.339-5.219,10.737-8.169,15.932-.947,1.667-.648,2.258,1.175,2.882.572.2.745-.161.946-.528,1-1.816,2.03-3.613,2.972-5.456C2255.754,1774.249,2259.249,1767.791,2262.229,1761.077Z"/>
          <path id="Path_2509" data-name="Path 2509" d="M2257.934,1782.043c1.633-3.876,3.781-8.009,5.981-12.093,2.876-5.338,5.288-10.9,8.148-16.234.636-1.187-.2-1.318-.844-1.708-.729-.444-1.334-.592-1.8.395-2.668,5.668-5.788,11.108-8.449,16.783-2.8,5.972-5.688,11.9-8.572,17.833-.5,1.038-.387,1.627.751,2.1.935.388,1.411.274,1.824-.679C2255.848,1786.421,2256.816,1784.443,2257.934,1782.043Z"/>
          <path id="Path_2510" data-name="Path 2510" d="M2299.737,1782.813c-1.015,2.178-2.008,4.3-3,6.433-.647,1.393-1.272,2.8-1.933,4.183-.409.859-.149,1.057.757,1.038a3.142,3.142,0,0,0,3.2-2.166c1.473-3.518,3.121-6.963,4.729-10.423a1.978,1.978,0,0,0-.427-2.175c-.613-.836-1.292-1.626-1.881-2.478-.544-.786-.913-.588-1.392.069-3.61,4.96-7.285,9.873-10.7,14.974-.461.689-.983,1.337-1.445,2.025-.31.462-.219.753.406.817a3.569,3.569,0,0,0,3.883-1.674c2.219-3.5,4.622-6.885,7.14-10.182C2299.213,1783.079,2299.257,1782.769,2299.737,1782.813Z"/>
          <path id="Path_2511" data-name="Path 2511" d="M2270.727,1793.324c2.718-7.082,5.653-13.894,8.539-20.727,1.53-3.624,2.918-7.308,4.374-10.963a2.052,2.052,0,0,0-1.792-2.569c-.476.015-.61.4-.73.742-1.45,4.1-3.111,8.122-4.782,12.137-1.209,2.906-2.332,5.852-3.651,8.707-1.76,3.806-3.142,7.757-4.674,11.65-.176.446-.9,1.126.074,1.567C2269.374,1794.455,2270.353,1794.186,2270.727,1793.324Z"/>
          <path id="Path_2512" data-name="Path 2512" d="M2237.939,1775.739q6.006-13.47,12.006-26.941c.405-.909.738-1.849,1.132-2.763.321-.744.029-1.074-.7-1.22-1.926-.384-2.113-.349-2.813,1.439-3.479,8.89-7.48,17.553-11.388,26.256-.577,1.286-1.082,2.6-1.608,3.914-.344.854.868,2.518,1.774,2.448.359-.028.441-.335.562-.595l1.157-2.482Z"/>
          <path id="Path_2513" data-name="Path 2513" d="M2286.716,1765.157c-2.5,5.508-5.176,10.939-8.1,16.225-2.065,3.731-4.091,7.487-6.185,11.2-.283.5-1.11,1.181-.227,1.794a2.269,2.269,0,0,0,2.96-.593c1.454-2.556,2.907-5.115,4.269-7.721,2.841-5.432,5.818-10.795,8.446-16.338.532-1.122,1.158-2.2,1.7-3.317a2.358,2.358,0,0,0-1.7-2.854c-.731-.021-.611.781-.945,1.156A1.792,1.792,0,0,0,2286.716,1765.157Z"/>
          <path id="Path_2514" data-name="Path 2514" d="M2288.413,1782.222q2.811-6.033,5.617-12.068c.277-.6-.474-1.884-1.323-2.237-.83-.345-.969.423-1.211.884-4.215,8.048-7.933,16.337-11.806,24.551-.7,1.479-.631,1.446,1.021,1.631a1.961,1.961,0,0,0,2.341-1.4c1.688-3.831,3.506-7.6,5.274-11.4Z"/>
          <path id="Path_2515" data-name="Path 2515" d="M2224.9,1753.606c1.107-2.568,2.58-5.312,3.73-8.207.327-.823.212-1.1-.663-.96-1.926.3-3.848.629-5.778.905-.957.136-.837.735-.68,1.372.419,1.691.83,3.383,1.284,5.065a.979.979,0,0,1-.727,1.4c-1.446.51-2.845,1.151-4.283,1.685-.918.34-1.307.711-.613,1.684,1.033,1.451,1.927,3,2.929,4.474.643.946.9.916,1.4-.141C2222.6,1758.561,2223.677,1756.222,2224.9,1753.606Z"/>
          <path id="Path_2516" data-name="Path 2516" d="M2284.849,1791.928c-.3.639-.591,1.281-.9,1.918-.418.877-.043,1.192.824,1.274a2.366,2.366,0,0,0,2.7-1.52c3.268-6.523,6.4-13.119,10.024-19.459a2.247,2.247,0,0,0-1.384-2.687c-.485-.036-.588.4-.763.706-1.488,2.635-3.021,5.246-4.435,7.92-2.075,3.923-4.063,7.891-6.088,11.84Z"/>
        </g>
      </g>
    </g>
    <g id="ZCY4ZK" transform="translate(-1386)">
      <g id="Group_125" data-name="Group 125">
        <path id="Path_2517" data-name="Path 2517" d="M2134.564,1692.238c-2.4,1.162-4.971,1.977-7.407,3.077-2.323,1.049-5.063,1.428-6.83,3.417a73.205,73.205,0,0,0-7.309,9.54,4.016,4.016,0,0,0-.3,4.419l20.64,12.236c1.756.035,3.517-.307,5.279-.435.675-.049,1.461-.2,1.905.5a2.91,2.91,0,0,1-1.317,4.212,17.235,17.235,0,0,0-4.405,2.618c-2.506,2.326-4.835,4.822-7.116,7.37a25.23,25.23,0,0,1-8.939,6.623c-3.239,1.386-6.3,3.27-7.686,6.894l1.223,1.765c4.4.2,6.482-3.893,10.008-5.317,1.038-.419,1.816-1.456,2.752-2.158,4.883-3.662,10.952-5.415,15.5-9.618a.633.633,0,0,1,.76-.018c.31.191.181.459.071.7a13.449,13.449,0,0,0-.73,2.618c-.979,4.35.22,8.39,1.714,12.38a25,25,0,0,1,1.784,12.084c-.278,2.164-.7,4.309-.976,5.959a17.781,17.781,0,0,0,1.855,7.6l2.716.262a10.583,10.583,0,0,0,1.15-5.739,48.082,48.082,0,0,1-.087-14.569,58.518,58.518,0,0,0,.3-9.149,80.741,80.741,0,0,1,.3-10.421c.572-4.35,1.274-8.684,1.763-13.042.175-1.565.637-2.576,2.239-3a5.8,5.8,0,0,0,1.78-1.07,85.014,85.014,0,0,0,8.978-8.245c4.212-4.148,3-2.93,2.224-7.978a11.228,11.228,0,0,0-5.542-8.579c-1.547-.888-2.979-1.871-4.863-1.813a38.5,38.5,0,0,1-7.516-.437m37.51,1.04c-1.727-1.679-3.507-3.3-5.243-4.973a8.992,8.992,0,0,0-5.9-2.5c-4.226-.305-8.455-.33-12.683-.441-2.938-.078-5.873-.142-8.8-.4-1.492-.133-2.259-.784-2.1-2.358.123-1.224.1-2.468.3-3.678a5.684,5.684,0,0,0-1.427-4.6c-.423-.538-.8-.687-1.441-.119-.57.507-.977,1.428-1.964,1.325-.2-.417.04-.606.223-.784a3.138,3.138,0,0,0,.858-3.854,28.555,28.555,0,0,1-1.735-7.647c-.7-6.706-1.2-13.437-3.087-19.973a3.605,3.605,0,0,0-3.107-2.965,141.375,141.375,0,0,0-15.1-2.036c-6.833-.377-13.219.725-18.779,5l.538,1.951a3.729,3.729,0,0,0,.8.05c2.932-.182,5.829-.611,8.009-2.8,1.748-1.754,3.647-1.9,5.875-1.263a96.929,96.929,0,0,1,12.554,4.429c2.5,1.1,3.947,2.564,3.772,5.427-.067,1.1-.206,2.465,1.64,2.508a1.206,1.206,0,0,1,.9,1.265c-1.491-.333-2.528-1.386-3.774-2.037-2.5-1.309-4.868-3.226-8.045-2.174-1.729.573-3.486,1.068-5.249,1.527a2.132,2.132,0,0,0-1.6,1.4c-.76,1.946-1.544,3.884-2.371,5.8a2.509,2.509,0,0,0,.186,2.43,37.067,37.067,0,0,0,4.424,5.9c3.369,3.9,3.4,3.856,8.113,1.869.511-.215,1.167-.893,1.566-.474a2.633,2.633,0,0,1,.488,2.123,6.325,6.325,0,0,1-.961,2.2c-.689,1.208-1.373,2.419-2.08,3.617a6.935,6.935,0,0,0,.653,8.352c.893,1.154,1.917,2.45,3.616,2.353a11.359,11.359,0,0,1,4.093.547,64.381,64.381,0,0,0,10.383,2.571c3.761.515,7.6.108,11.307,1.1a3.211,3.211,0,0,0,1.261-.152,121.94,121.94,0,0,1,12.107-1.584,6.009,6.009,0,0,1,4.835,1.729c1.7,1.648,3.644,3.026,6.216,2.974"/>
      </g>
    </g>
    <g id="DSqgpB" transform="translate(-1386)">
      <g id="Group_126" data-name="Group 126">
        <path id="Path_2518" data-name="Path 2518" d="M2013.8,1795.167a7.888,7.888,0,0,1-1.823-2.128c-1.827-2.446-3.507-5-5.382-7.411-1.512-1.943-2.694-4.115-4.384-5.94a26.126,26.126,0,0,1-2.439-3.622c-.223-.343-.384-.736-.982-.879.67,1.826,1.325,3.555,1.941,5.3,1.03,2.916,2.06,5.832,3.034,8.766a18.471,18.471,0,0,1,.47,2.457l-1.4.919a2.954,2.954,0,0,1-.919-.984c-1.269-1.95-2.42-3.99-3.83-5.831-1.473-1.924-2.666-4.027-4.129-5.956-1.583-2.087-2.914-4.364-4.382-6.539-1.4-2.068-2.843-4.1-4.241-6.171-1.3-1.923-2.585-3.857-3.838-5.811-.692-1.079-1.41-2.131-2.194-3.147-1.829-2.371-1.861-4.98-.931-7.712.886-2.6,1.95-5.13,2.943-7.684a81.685,81.685,0,0,1,3.624-7.471c.661-1.292,1.139-2.662,1.931-3.909a36.663,36.663,0,0,0,2.028-3.576c1.005-2.057,1.116-2.226-.645-3.658a16.96,16.96,0,0,1-1.641-1.655,1.165,1.165,0,0,0-1.725-.164,12.741,12.741,0,0,1-3.161,1.539c-1.36.391-2.789.215-4.119.552-1.5.38-2.754-.283-4.11-.528a29.851,29.851,0,0,1-4.183-1.245,9.427,9.427,0,0,1-3.2-1.655.56.56,0,0,0-.946.213,11.179,11.179,0,0,1-7.137,5.451c-1.812.526-3-1.122-4.749-1.574-2.723-.7-5.41-1.151-6.809-3.516l-1.661-4.629,1.732-4.188a12.742,12.742,0,0,1,3.9-5.451,9.805,9.805,0,0,1,11.249-.982c.627.326.781.369.981-.429a26.643,26.643,0,0,1,2.584-6.314,61.95,61.95,0,0,1,6.023-8.574c2.6-3.283,5.132-6.625,7.5-10.067a82.736,82.736,0,0,0,4.768-7.2l3.794,1.349c-.632,1.579-1.179,3.2-1.957,4.709-1.577,3.046-2.535,6.361-4.241,9.354-1.2,2.1-2.145,4.342-3.226,6.509-.833,1.67-1.644,3.354-2.571,4.97-.518.9-.036.928.609.952,2.084.076,4.171-.034,6.254.2a29.21,29.21,0,0,1,6.749,1.205,1.226,1.226,0,0,0,1.658-.521c2.508-3.59,5.284-6.988,7.677-10.663.414-.636,1-1.16,1.447-1.777,2.707-3.723,5.61-7.3,8.371-10.975,1.933-2.577,4.079-4.969,6.07-7.492.479-.606,1.634-3.865,2.3-4.285l3.584,1.288c.145,1.439-2.587,5.235-3.211,6.491-1.941,3.911-4.01,7.763-5.818,11.734a49.229,49.229,0,0,1-3.215,5.811c-1.4,2.226-2.7,4.526-4.177,6.713-1.22,1.808-2.3,3.71-3.455,5.561-.331.53-.725,1.02-1.071,1.54-.155.234-.287.52-.092.778.225.3.488.127.739-.017a2.033,2.033,0,0,1,1.8-.011,18.517,18.517,0,0,1,8.093,5.424,22.757,22.757,0,0,1,3.475,5.633,17.779,17.779,0,0,1,1.067,4.056c.056.288.1.7-.3.787-.379.083-.51-.28-.643-.564a4.773,4.773,0,0,0-.991-1.632c.864,5.058-1.036,9.346-3.2,13.525-2.754,5.311-6.588,9.869-10.409,14.423-.581.692-1.168,1.381-1.779,2.046a1.275,1.275,0,0,0-.13,1.8c1.981,2.333,3.086,5.179,4.658,7.747,1.472,2.406,2.479,5.038,3.9,7.455a44.47,44.47,0,0,1,2.256,4.445c.928,2.09,1.757,4.224,2.71,6.308.907,1.984,1.744,4,2.539,6.036a55.6,55.6,0,0,1,2.767,9.253"/>
      </g>
    </g>
    <g id="SWLCh3" transform="translate(-1386)">
      <g id="Group_127" data-name="Group 127">
        <path id="Path_2519" data-name="Path 2519" d="M2362.079,1617.358c.754-.414,1.275-.06,1.384.789a8.684,8.684,0,0,1,.256,2.416c-.137,1.749.447,3.314.6,4.938a7.834,7.834,0,0,1-1.811,6.48c-2.383,2.684-4.483,5.619-6.691,8.457-.694.892-1.073.758-1.746-.155a20.457,20.457,0,0,1-3.275-6.3,14.43,14.43,0,0,1-.971-5.58c.012-.132.051-.334-.016-.389-2.325-1.905-.595-3.947.028-5.725,1.173-3.349,1.584-2.546-1.638-3.791-3.32-1.282-6.791-2.179-10.09-3.507-2.218-.892-4.545-1.478-6.7-2.518-.9-.437-1.482-.276-1.866.707-.992,2.54-2.287,4.936-2.761,7.7a43.27,43.27,0,0,1-1.952,5.843c-1.591,4.892-3.522,9.671-4.82,14.66-.215.827,0,1.286.809,1.444,1.206.237,1.483.885,1.115,2.032a33.782,33.782,0,0,0-1.547,6.633l-3.446,10.005c.681.364,6.33,2.322,7.065,2.589.808.292,1.61.37,1.047,1.524a.276.276,0,0,0,.038.26,7.644,7.644,0,0,0,3.457.936,1.214,1.214,0,0,0,1.392-.889q1.585-3.751,3.164-7.505a.961.961,0,0,0,.063-.946c-.842-1.206-.248-2.4.36-3.29,1.266-1.853,1.852-4.038,3.123-5.866.026-.037.023-.094.049-.131.525-.751,4.712-.773,4.965.033,1,3.188,3.091,5.734,4.864,8.461,2.053,3.157,4.2,6.255,6.3,9.381.26.387.517.778.752,1.181.253.434.651.88-.022,1.314a1.193,1.193,0,0,1-1.639-.039,72.313,72.313,0,0,0-14.132-9.293c-1.719-.881-2.547-.773-3.212.973-.822,2.158-2.033,4.117-2.9,6.249-.434,1.064-.119,1.448.771,1.784,3.421,1.291,6.923,2.33,10.419,3.391,3.045.924,6.071,1.912,9.126,2.8a10.315,10.315,0,0,0,3.392.744,1.248,1.248,0,0,1,1.219.762,50.037,50.037,0,0,0,2.929,4.759c1.545,2.049,3.273,3.963,4.96,5.9.827.952,2,1.7,2.55,2.775.86,1.695,2.542,2.4,3.718,3.682,1.23,1.345,2.615,4.093,3.943,5.348l1.7-.8a1.091,1.091,0,0,0,.318-1.161c-.2-.868-.394-1.74-.651-2.591a93.806,93.806,0,0,0-6.891-17.2c-.927-1.734-1.822-3.485-2.765-5.21-.569-1.042-1.261-1.472-2.5-.755-1.9,1.1-3.94,1.972-5.873,3.025a2.232,2.232,0,0,1-1.872.042.905.905,0,0,1-.668-.668c-.081-.4.272-.581.55-.731,2.179-1.179,4.311-2.466,6.568-3.473a4.1,4.1,0,0,0,2.363-5.429c-1.333-3.138-2.722-6.252-4.067-9.385a68.907,68.907,0,0,0-3.693-8.351c-.453-.76-.227-1.176.591-1.622,1.8-.984,3.762-1.643,5.481-2.814,6.961-4.743,10.3-11.181,9.473-19.675a38.032,38.032,0,0,0-1.02-7.044,2.433,2.433,0,0,0-2.451-1.94c-1.088.021-1.418-.52-1.853-1.3a37.257,37.257,0,0,0-9.7-11.541,1.975,1.975,0,0,0-2.623-.106c-2.955,1.8-6.019,3.426-8.993,5.2-1.032.614-1.37.205-1.453-.728-.147-1.649-.464-3.273-.559-4.941a19.421,19.421,0,0,0-.947-3.993c-.136-.466-.55-.559-1.005-.613a27.514,27.514,0,0,1-10.248-3.419,36.237,36.237,0,0,0-3.885-1.507,31.629,31.629,0,0,1-7.071-3.983,11.229,11.229,0,0,1-3.418-4.482c-.674-1.592-2.133-2.363-2.786-3.907-.9-2.119-2.386-3.973-3.2-6.166l-3.42.291c.212,3.788,1.362,7.362,2.284,10.99a5.473,5.473,0,0,0,.876,1.892c1.836,2.458,3.02,5.326,5.374,7.493a39.75,39.75,0,0,0,6.01,5.136,28.27,28.27,0,0,0,4.5,2.491c.6.225,1.143.506.7,1.323-.364.666.11.9.623,1.108,1.218.484,2.409,1.051,3.656,1.438.861.266,1.118.551.822,1.483-.977,3.077-.944,3.106,2.1,4.25,5.96,2.235,11.861,4.635,18.008,6.343a1.609,1.609,0,0,0,1.569-.121"/>
        <path id="Path_2520" data-name="Path 2520" d="M2382.14,1579.148a9,9,0,0,0-2.36-6.26,7.892,7.892,0,0,0-5.438-2.883c-5.806-.154-10.154,3.547-10.274,8.572a9.042,9.042,0,1,0,18.072.571Z"/>
        <path id="Path_2521" data-name="Path 2521" d="M2358.479,1581.241a8.975,8.975,0,0,0-6.806,3.293,10.482,10.482,0,0,0-2.446,3c-.922,2.283-1.139,4.454.185,6.626a11.531,11.531,0,0,1,.8,1.144c1.1,2.444,3.273,2.426,5.449,2.455a9.678,9.678,0,0,0,7.475-2.9,7.114,7.114,0,0,0,2.386-3.988c.086-.734.663-1.258.541-2.088-.477-3.235-1.838-5.775-4.976-7.17A7.018,7.018,0,0,0,2358.479,1581.241Z"/>
      </g>
    </g>
    <g id="nVSMrv" transform="translate(-1386)">
      <g id="Group_128" data-name="Group 128">
        <path id="Path_2522" data-name="Path 2522" d="M1833.188,1751.938a8.124,8.124,0,0,1-4,5.276c-3.037,1.653-5.036,4.629-8.2,6-.538-.519-.08-1.207-.686-2.313.194,3.962-2.657,5.165-4.7,6.885-2.919,2.455-6.049,4.658-9.065,7-1.478,1.147-2.593.84-3.509-.7-2.328-3.917-4.8-7.76-6.951-11.771a8.883,8.883,0,0,0-6.125-4.978c-5.147-1.28-10.046-3.46-15.337-4.348-1.8-.3-3.575-.259-5.358-.412-.658-.056-1.443-.1-1.7.727-.233.74.3,1.237.745,1.767a102.992,102.992,0,0,0,7.876,7.928c4.41,4.242,8.706,8.537,11.432,14.239,2.272,4.752,2.595,4.747-2.709,5.7-4.037.723-8.147,1.038-12.224,1.534-.074.009-.16-.015-.223.014-4.55,2.108-9.543,2.815-14.22,4.51-1.375.5-2.789.182-4.189.565a6.87,6.87,0,0,0-5.053,8.279,17.217,17.217,0,0,0,1.1,2.938l-5.392,2.883c-1.518-2.592-2.936-5.233-3.109-8.346a7.232,7.232,0,0,0-.9-3.222c-2.583-4.547-2.039-6.6,2.692-8.548a60.129,60.129,0,0,0,13.268-7.6c.56-.42,1.544-.568,1.34-1.572-.178-.879-1.051-.958-1.73-1.247a9.654,9.654,0,0,1-1.378-.737c-4.249-2.7-5.789-2.173-9.2,1.626-2.575,2.866-5.781,5.181-8.791,7.637-2.885,2.354-6.218,4.155-8.514,7.23-1.22,1.635-3.429,1.731-5.019,2.878-3.963,2.859-7.284,6.432-10.827,9.738-4.534,4.231-9.383,8.172-13.339,12.986-4.271,5.2-8.409,10.5-12.576,15.783l-4.9-1.586,6.842-13.881a3.677,3.677,0,0,0,3.465-1.564,65.838,65.838,0,0,0,7.406-11.709c2.094-3.959,3.7-8.19,6.405-11.807a23.245,23.245,0,0,1,6.229-5.4,19.82,19.82,0,0,0,9.043-12.536c.973-4.055,3.418-7.437,5.791-10.787,2.845-4.015,5.825-7.936,8.689-11.938a4.648,4.648,0,0,0,1.045-2.827c.014-1.442,1.6-1.983,2.805-2.551a15.3,15.3,0,0,1,2.13-.6c-2.007-1.14-3.356-2.508-2.632-4.558a36.133,36.133,0,0,1,2.468-4.749c1.117-2.1,3.254-3.176,4.827-4.815.744-.774,1.544.077,2.312-.267a57.082,57.082,0,0,0,5.365-2.251c5.35-3.093,11.074-5.509,16.2-9.005a2.925,2.925,0,0,1,3.386.141,57.691,57.691,0,0,1,10.436,8.409,29.956,29.956,0,0,0,8.681,5.5,81.905,81.905,0,0,1,7.472,4.041c2.08,1.244,2.346.2,2.6-1.215.514-2.922,1.548-5.474,4.189-7.117a8.036,8.036,0,0,1,8.72,0c2.591,1.494,3.417,3.913,2.951,6.939-.44,2.864-.134,5.848-1.744,8.484l-9.72,1.909c-.571-.744-1.026-1.664-2.263-1.918l3.053,16.422c.152,1.527,1,2.39,2.62,1.8,4.1-1.482,8.252-2.853,11.909-5.347a7.687,7.687,0,0,0,2.7-2.924c1.459-2.893,3.946-4.783,6.584-6.507m-81.248-12.619c-2.372,1.065-4.3,6.2-5.677,8.793a74.764,74.764,0,0,1,7.873-3.084c5.977-1.906,12.229-2.76,18.174-4.787,1.126-.384,2.3-.619,3.446-.95a1,1,0,0,0,.766-1.2.879.879,0,0,0-1.157-.764c-1.54.306-3.1-.03-4.664.317-1.458.322-5.016-.55-6.543-.345"/>
      </g>
    </g>
  </g>
</svg>
