<svg xmlns="http://www.w3.org/2000/svg" width="26.84" height="26.84" viewBox="0 0 26.84 26.84">
  <g id="Group_337" data-name="Group 337" transform="translate(-278.283 -241.494)">
    <path id="Rectangle_26" d="M1704.613,5631.581l20.064-.087a3.344,3.344,0,0,1,3.359,3.33l.087,20.064a3.344,3.344,0,0,1-3.33,3.359l-20.064.087a3.344,3.344,0,0,1-3.359-3.33l-.087-20.064A3.344,3.344,0,0,1,1704.613,5631.581Z" transform="translate(-1423 -5390)" fill="#fff"/>
    <path id="Shape-3" d="M1714.778,5651.6h-.008a1.1,1.1,0,0,1-.938-.526c-1.431-2.318-3.137-5.374-3.145-6.769a4.067,4.067,0,0,1,4.041-4.076h.016a4.068,4.068,0,0,1,4.06,4.041c.006,1.4-1.674,4.466-3.085,6.8A1.1,1.1,0,0,1,1714.778,5651.6Zm-.041-9.224a1.639,1.639,0,1,0,.005,0Z" transform="translate(-1423 -5390)"/>
  </g>
</svg>
