<svg xmlns="http://www.w3.org/2000/svg" width="325.945" height="367.417" viewBox="0 0 325.945 367.417">
  <g id="Group_333" data-name="Group 333" transform="translate(-999.93 -455.013)">
    <g id="Group_119" data-name="Group 119" transform="translate(-1423 -5390)">
      <path id="Path_649" data-name="Path 649" d="M2747.234,6048.95c3.906-17.277.128-34.037-3.937-50.63-3.458-14.112-9.854-26.306-23.838-33.44-10.484-5.349-20.346-4.969-30.531-.02-2.083,1.012-4.216,1.92-7.217,3.28-.856-2.637-1.564-4.725-2.212-6.832-2.336-7.6-4.121-15.42-7.112-22.75-3.607-8.84-13.883-14.017-23.013-12.194-19.224,3.837-38.086,8.947-54.218,20.692-11.514,8.383-19.447,18.81-17.035,34.517.313,2.034-2.9,5.82-5.306,6.831-6.746,2.835-14.178,4.061-20.871,6.992-10.033,4.393-15.761,12.7-15.918,23.64-.142,9.961,1.1,19.942,1.733,29.914Z" fill="#020202"/>
      <g id="zP06E0">
        <g id="Group_118" data-name="Group 118">
          <path id="Path_650" data-name="Path 650" d="M2444.981,6075.273c-2.568-.017-5.136-.021-7.7-.029" fill="#fab017"/>
          <path id="Path_651" data-name="Path 651" d="M2437.057,6212.429H2714.29q0-11.055,0-22.111c0-.562-.036-1.125-.055-1.687-.943,0-1.885,0-2.827,0a.983.983,0,0,1-.731-.159c-1.256.022-2.512.065-3.768.065q-93.492,0-186.985,0-2.08,0-4.161.015a10.476,10.476,0,0,0-1.167.064,27.343,27.343,0,0,1-5.581.078c-1.516-.132-3.028-.156-4.544-.156q-25.356,0-50.712,0-6.5,0-13-.03c-.559,0-1.117-.03-1.676-.046a1.168,1.168,0,0,1,.634-.175q4.874-.152,9.747-.3c3.639-.109,7.278-.208,10.917-.327,6.714-.221,13.426-.5,20.141-.668,5.892-.15,11.783-.373,17.68-.321a1.785,1.785,0,0,0,1.234-.181c-.115-.558-.654-.6-1.03-.8a24.382,24.382,0,0,1-5.962-4.138c-7.56-7.611-10.736-16.656-8.53-27.289a27.189,27.189,0,0,1,9.3-15.418,25.225,25.225,0,0,1,5.6-3.511c.389-.186.766-.4,1.146-.6.032-.018.071-.082.061-.108-.025-.068-.07-.176-.118-.182a5.4,5.4,0,0,0-.648-.031q-6.7-.017-13.392-.035c-.648,0-1.3-.049-1.945-.094-.22-.015-.274-.205-.214-.38a1.631,1.631,0,0,1,.268-.44,19.789,19.789,0,0,1,3.1-3.139c1.2-1,2.483-1.888,3.772-2.77.315-.215.7-.351.888-.728q-1.2-1.778-2.4-3.556a89.778,89.778,0,0,1-10.542-21.252,64.4,64.4,0,0,1-1.926-6.472.422.422,0,0,0-.445-.36c-.285.46-.75.357-1.17.357-2.468,0-4.935,0-7.4-.006-1.588,0-1.472-.117-1.473,1.468q0,7.667,0,15.333c0,1.505-.013,1.414-1.431,1.414h-17.27c-1.6,0-1.492.123-1.492-1.452" fill="#fab017"/>
          <path id="Path_652" data-name="Path 652" d="M2714.232,6188.63c.019.563.055,1.126.055,1.688q.006,11.057,0,22.111c.518-.01.519-.01.52-.391,0-.26,0-.52,0-.78V6054.977l-.5.323c-.007.564-.019,1.127-.019,1.69q0,64.7,0,129.394c0,.649-.034,1.3-.052,1.948Z" fill="#f8b234"/>
          <path id="Path_653" data-name="Path 653" d="M2475.668,6091.648c-.389-1.942-.851-3.876-1.1-5.836-.119-.934-.214-1.888-.357-2.817-.172-1.119-.107-2.247-.26-3.348a32.437,32.437,0,0,1-.252-3.613,2.684,2.684,0,0,0-.242-.728c2.9-.014,5.8-.038,8.7-.041q24.167-.031,48.333-.06c1.079,0,2.159-.082,3.239-.14.52-.028.717-.235.82-.821a.363.363,0,0,0-.308-.475,5.968,5.968,0,0,0-.776-.056c-3.158-.073-6.313-.278-9.475-.218-.822.015-1.645-.024-2.468-.024a55.8,55.8,0,0,1-6.585-.59,8.4,8.4,0,0,1-1.744-.482,2.3,2.3,0,0,1-1.469-1.542c-.177-.535-.349-1.071-.507-1.611a3.317,3.317,0,0,0-2.158-2.261,11.444,11.444,0,0,0-7.631-.29c-1.3.412-1.326.51-1.99-.784a12.3,12.3,0,0,0-6.824-5.7,20.547,20.547,0,0,0-9.179-1.267,18.028,18.028,0,0,0-4.688.964,12.163,12.163,0,0,0-3.744,2.033,4.956,4.956,0,0,1-.738.522c-.217.119-.413-.006-.568-.179a2.306,2.306,0,0,0,.291-1.372,15.522,15.522,0,0,1,.065-1.816c.12-1.067.3-2.128.439-3.193.123-.939.184-1.888.346-2.82.184-1.06.485-2.1.674-3.158a86.8,86.8,0,0,1,2.556-10.14c.493-1.61,1.1-3.187,1.651-4.778,1-2.861,2.24-5.621,3.5-8.37,1.118-2.438,2.45-4.77,3.775-7.1a107.449,107.449,0,0,1,5.858-9.02c.673-.95,1.442-1.83,2.155-2.752.792-1.024,1.637-2.007,2.44-3.019.833-1.051,1.854-1.934,2.607-3.047,3.2-3.166,6.276-6.446,9.766-9.31,2.1-1.727,4.237-3.416,6.451-4.988a92.98,92.98,0,0,1,12.5-7.592c2.2-1.09,4.419-2.15,6.67-3.131,1.938-.845,3.911-1.616,5.927-2.27,1.6-.518,3.156-1.174,4.77-1.633,2.776-.789,5.553-1.587,8.39-2.146.421-.083.835-.194,1.262-.265,1.315-.215,2.613-.567,3.934-.7,1.355-.142,2.679-.641,4.071-.4.075.013.161-.058.246-.073a3.443,3.443,0,0,1,2.138-.142c.068.029.169-.015.254-.029a7.943,7.943,0,0,1,3.294-.209,1.111,1.111,0,0,0,.635-.075,2.978,2.978,0,0,1,1.147-.162q5.329.007,10.658.007a4.331,4.331,0,0,1,1.15.143,6.311,6.311,0,0,0,1.77.292,24.068,24.068,0,0,1,2.943.131c1.494.143,2.965.509,4.457.7,2.525.32,4.968,1.031,7.461,1.5,1.314.248,2.552.774,3.867,1.043,1.264.258,2.488.7,3.733,1.058.372.106.752.161,1.121.305,1.244.486,2.5.95,3.76,1.382a103.678,103.678,0,0,1,9.911,4.175,67.736,67.736,0,0,1,6.163,3.324c1.337.795,2.714,1.526,4.018,2.372,2.207,1.433,4.41,2.879,6.5,4.482a70.2,70.2,0,0,1,6.3,5.179c.184.179.413.31.613.474a3.228,3.228,0,0,1,.675.6,9.074,9.074,0,0,0,1.54,1.54,49.411,49.411,0,0,1,3.937,3.965c1.181,1.37,2.4,2.715,3.488,4.168,1.244,1.656,2.522,3.284,3.7,4.989,1.036,1.494,1.954,3.06,2.9,4.61a5.437,5.437,0,0,1,.9,2l.8,1.829c.052.735.052.746.559.758.6.015,1.211.012,1.817.011q13.041,0,26.083-.009c.346,0,.692-.008,1.037-.027a.548.548,0,0,0,.42-.267,1.978,1.978,0,0,0,1.243.263c1.081-.006,2.161,0,3.242,0a6.772,6.772,0,0,0,1.924-.17,1.964,1.964,0,0,1,1.7.444,1.082,1.082,0,0,1-.1,1.833,12.239,12.239,0,0,1-1.177.519.444.444,0,0,0-.382-.3c-.258-.018-.519-.016-.778-.016q-29.672.018-59.343.04c-1.862,0-3.723.026-5.584.042-.3,0-.606.009-.908.026-1.587.088-1.572.086-1.251,1.624a22.181,22.181,0,0,0,4.171,9.131,23.828,23.828,0,0,0,3.007,3.569c.126.11.255.235.145.432-.507.11-.785-.3-1.124-.53-2.926-1.988-5.832-4.005-8.76-5.99-1.572-1.066-3.214-2.016-4.877-2.935a15.506,15.506,0,0,0-6.261-1.907c-1.587-.134-3.181-.191-4.771-.283-.644-.068-1.291-.121-1.932-.21s-.685-.126-.782-.814c-.072-.512-.091-1.032-.142-1.548-.091-.9-.156-1.809-.293-2.7a5.635,5.635,0,0,0-.873-2.417.5.5,0,0,1,.055-.691c.028-.032.055-.066.083-.1a33.619,33.619,0,0,0,5.881-10.586,7.546,7.546,0,0,1,1.933.162,4.372,4.372,0,0,0,.9.081c.1,0,.208-.128.279-.223a.381.381,0,0,0,.037-.251,46.322,46.322,0,0,0-.723-6.566,15.547,15.547,0,0,0-4.124-7.244,14.906,14.906,0,0,0-6.836-3.82,16.961,16.961,0,0,0-20.055,10.156c-.141.362-.334.705-.477,1.066a1.018,1.018,0,0,1-.988.678c-1.98.169-3.956.378-5.934.577a1.83,1.83,0,0,0-.373.093c-.031.01-.047.064-.069.1-.056.086-.036.159.067.208a10.429,10.429,0,0,0,2.387.569c2.453.507,4.938.853,7.37,1.465a8.934,8.934,0,0,0,.042,3.224,1.106,1.106,0,0,0,.58.951.662.662,0,0,1,.374.752,8.718,8.718,0,0,1-.171,1.283c-.2.8-.419,1.589-.681,2.367-.453,1.348-.484,1.36-1.725,1.834a1.633,1.633,0,0,0,.26.977c.737,1.8,1.5,3.59,2.256,5.382a21.042,21.042,0,0,0,1.218,2.434,2.292,2.292,0,0,0,2.149,1.192,8.039,8.039,0,0,0,3.384-.783,15.286,15.286,0,0,0,2.227-1.325,1.635,1.635,0,0,1,.844-.465,2,2,0,0,1,.305,1.033q.225,2.393.433,4.786c.016.172.009.346.011.519a.719.719,0,0,1-.54.771,3.434,3.434,0,0,0-1.212.43,9.613,9.613,0,0,0-4.629,3.4,21.858,21.858,0,0,0-1.363,2.208,72.3,72.3,0,0,0-4.075,9.266c-1.41,3.677-2.775,7.371-4.16,11.058-.061.162-.131.321-.186.486-.128.39-.054.551.3.726.5.248,1.1.276,1.533.675-.957,2.782-1.925,5.562-2.864,8.352a1.51,1.51,0,0,1-.9,1.017c-1.32.545-2.621,1.135-3.943,1.672-5.252,2.135-10.4,4.519-15.6,6.753q-1.431.615-2.858,1.24a23.948,23.948,0,0,0-5.638,3.18.538.538,0,0,1-.8-.018c-.659-.562-1.332-1.108-2-1.661a9.423,9.423,0,0,0-2.771-1.667c-3.586-1.305-6.961-3.082-10.434-4.638-.339-.152-.64-.479-1.075-.339-.223,1.943-.039,17.963.221,19.174a2.549,2.549,0,0,0,1.214-.4c1.826-.893,3.643-1.808,5.463-2.716.541-.27,1.093-.521,1.615-.825a1.106,1.106,0,0,1,1.218-.015c.335.194.8.3.844.731.057.53-.457.683-.814.9-.7.431-1.415.839-2.126,1.252a5.666,5.666,0,0,0-1.469,1.265,38.005,38.005,0,0,0-2.635,3.544q-7.022,10.547-14.039,21.1c-1.677,2.525-3.458,4.983-4.964,7.62a.78.78,0,0,1-.965.418c-1.014-.222-2.035-.412-3.052-.619a30.061,30.061,0,0,0-8.666-.344,45.317,45.317,0,0,0-16.651,5.1c-.346.176-.7.339-1.047.508q-1.2-1.778-2.4-3.556a89.778,89.778,0,0,1-10.542-21.252,64.4,64.4,0,0,1-1.926-6.472.422.422,0,0,0-.445-.36C2476.167,6094.01,2475.905,6092.831,2475.668,6091.648Zm186.033-72.034c.3,0,.606,0,.908-.014.346-.019.476-.212.329-.511a17.4,17.4,0,0,0-2.486-3.786,16.616,16.616,0,0,0-16.437-4.794,13.128,13.128,0,0,0-7.858,5.574,20.172,20.172,0,0,0-1.658,2.933.361.361,0,0,0,.336.543c.3.021.6.021.907.021q6.555,0,13.109,0v.034Z" fill="#dba2c9"/>
          <path id="Path_654" data-name="Path 654" d="M2714.235,6188.332c.018-.649.052-1.3.052-1.948q0-64.7,0-129.394c0-.563.012-1.126.019-1.69a10.051,10.051,0,0,0-2.437-.051l-11.667-.006c-1.6,0-1.518-.09-1.529,1.577,0,.418.136.87-.182,1.248-.017.518-.05,1.037-.05,1.556,0,11.786.04,23.572-.021,35.358-.019,3.723-.079,7.448-.083,11.172,0,.087,0,.174,0,.26-.035.744-.108.832-.824.843-.953.015-1.906.021-2.858,0a16.585,16.585,0,0,1-3.62-.171,3.4,3.4,0,0,0-.777-.017c-.52,0-1.039.006-1.559,0-1.371-.008-1.424-.063-1.434-1.494,0-.216,0-.433,0-.65q0-7.149,0-14.3c0-1.617.127-1.492-1.446-1.5q-4.221-.015-8.443-.033c-.432,0-.864-.033-1.3-.051-.451.239-.458.7-.555,1.114a105.436,105.436,0,0,1-4.405,14.4,99.607,99.607,0,0,1-7.255,15.1,1.958,1.958,0,0,1-.8.819,1.813,1.813,0,0,1-.27,1.116c-.755,1.156-1.4,2.378-2.265,3.468a2.675,2.675,0,0,0-.857,1.555,16.9,16.9,0,0,0,3.231.127c1.264.036,1.042-.011,1.413,1.062a5.225,5.225,0,0,1,.178.759c.079.416-.03.538-.456.57a4.146,4.146,0,0,0-1.581.144c2.343,5.6,4.662,11.123,6.849,16.809a3.178,3.178,0,0,1-1.378-.6,32.825,32.825,0,0,1-4.381-3.244c-3.38-2.846-6.754-5.7-10.152-8.524a25.137,25.137,0,0,0-4.816-3.292.932.932,0,0,0-1.345.258,2.962,2.962,0,0,1-.426,1.341c-.245.5-.506,1-.761,1.5a7.826,7.826,0,0,0,1.762.806,27.634,27.634,0,0,1,11.156,8.483c5.008,6.577,6.576,14.019,5.267,22.1a27.66,27.66,0,0,1-5.836,12.883,25.333,25.333,0,0,1-10.69,8.214c-.148.057-.339.1-.355.384a12.55,12.55,0,0,0,2.54.222c1.3-.017,2.6-.08,3.9-.052,8.617.188,17.233.444,25.851.579,6.888.107,13.768.4,20.65.647,1.688.059,3.375.141,5.062.222,1.774.084,3.546.179,5.32.269A27.349,27.349,0,0,1,2714.235,6188.332Z" fill="#fab017"/>
          <path id="Path_655" data-name="Path 655" d="M2663.061,6120.483a1.958,1.958,0,0,0,.8-.819,99.607,99.607,0,0,0,7.255-15.1,105.436,105.436,0,0,0,4.405-14.4c.1-.417.1-.875.555-1.114a11.024,11.024,0,0,1,.37-2.546,41.026,41.026,0,0,0,.679-4.591,26.639,26.639,0,0,1,.432-2.927.981.981,0,0,0,.046-.383,8.975,8.975,0,0,1,.021-2.423,5.831,5.831,0,0,1,.185-1.924,3.315,3.315,0,0,0-.007-1.673,9.061,9.061,0,0,1-.007-3.722,5.918,5.918,0,0,0,.007-2.451,8.957,8.957,0,0,1-.174-1.793,5.4,5.4,0,0,0-.211-2.052.929.929,0,0,1-.051-.384,35.242,35.242,0,0,0-.5-4.873c-.3-2.654-.776-5.274-1.339-7.881a11.324,11.324,0,0,1-.518-2.525l-1.044-.319a2.84,2.84,0,0,0-.992.271c-1.07.466-2.145.922-3.227,1.36-5.373,2.171-10.845,4.076-16.295,6.04-1.342.484-2.689.957-4.043,1.407a7.017,7.017,0,0,1-4.7-.091,18.166,18.166,0,0,1-3.781-1.983c-1.306-.85-2.58-1.75-3.893-2.587a61.761,61.761,0,0,0-5.509-3.421,4.378,4.378,0,0,0-.451,1.477c-.1.508-.206,1.017-.331,1.52a.252.252,0,0,1-.408.147c-.357-.243-.69-.522-1.03-.789a1.369,1.369,0,0,0-.908-.445c-.013.173-.038.345-.037.517q.081,10,.171,20c0,.429.091.857.138,1.286.147,1.332.588,2.618.611,3.969a1.413,1.413,0,0,1,.177.337c.525,2.53,1.051,5.06,1.559,7.594a9.409,9.409,0,0,1,.286,3.585c-.014.26-.01.521-.045.778a39.417,39.417,0,0,1-2.14,8.414,69.623,69.623,0,0,1-5.542,11.148c-.231.387-.78.789-.5,1.235.21.339.81.142,1.235.141q7.8-.017,15.591-.052c4.027-.018,8.055-.047,12.083-.065a8.608,8.608,0,0,1,1.295.061,1.734,1.734,0,0,1,1.5,1.26,4.6,4.6,0,0,1,.232,1.4c0,1.17-.042,2.341-.005,3.509a9.7,9.7,0,0,1-.663,3.419c-.083.245-.213.473-.31.714-.16.4-.071.534.389.555,1.729.081,3.459.166,5.19.222a16.85,16.85,0,0,1,2.32.273,1.1,1.1,0,0,1,.929.615A.159.159,0,0,1,2663.061,6120.483Z" fill="#f2e9d1"/>
          <path id="Path_656" data-name="Path 656" d="M2473.456,6075.306c2.9-.014,5.8-.038,8.7-.041q24.167-.031,48.333-.06c1.079,0,2.159-.082,3.239-.14.52-.028.717-.235.82-.821a.363.363,0,0,0-.308-.475,5.968,5.968,0,0,0-.776-.056c-3.158-.073-6.313-.278-9.475-.218-.822.015-1.645-.024-2.468-.024a55.8,55.8,0,0,1-6.585-.59,8.4,8.4,0,0,1-1.744-.482,2.3,2.3,0,0,1-1.469-1.542c-.177-.535-.349-1.071-.507-1.611a3.317,3.317,0,0,0-2.158-2.261,11.444,11.444,0,0,0-7.631-.29c-1.3.412-1.326.51-1.99-.784a12.3,12.3,0,0,0-6.824-5.7,20.547,20.547,0,0,0-9.179-1.267,18.028,18.028,0,0,0-4.688.964,12.163,12.163,0,0,0-3.744,2.033,4.956,4.956,0,0,1-.738.522c-.217.119-.413-.006-.568-.179a1.29,1.29,0,0,1-.789-.405,17.451,17.451,0,0,0-6.629-3.122,14.5,14.5,0,0,0-2.687-.333,15.645,15.645,0,0,0-11.137,3.753,18.031,18.031,0,0,0-5.227,7.147c-.174.42-.238.913-.666,1.2-.276-.273-.119-.614-.236-.889-.054.113-.153.228-.153.342,0,.77-.12.86-.93.879a11.788,11.788,0,0,0-4.855,1.205c-1.05.5-2.054,1.1-3.079,1.658l-.033,1.524c2.568.008,5.136.012,7.7.029.413,0,.867-.122,1.206.258a2.561,2.561,0,0,1,1.146-.164c3.9-.033,7.8-.083,11.7-.1,4.03-.017,8.06,0,12.09,0C2471.9,6075.272,2472.677,6075.294,2473.456,6075.306Z" fill="#010102"/>
          <path id="Path_657" data-name="Path 657" d="M2699.611,6024.776a1.681,1.681,0,0,0,.347-1.086H2698.4l-36.528.065q-12.74.021-25.478.046a2.2,2.2,0,0,0-1.072.117,10.251,10.251,0,0,0,1.4,2.231,29.639,29.639,0,0,0,9.163,7.761,45.207,45.207,0,0,0,20.144,5.4,42.843,42.843,0,0,0,12.107-1.261,39.753,39.753,0,0,0,13.682-6.1,30.808,30.808,0,0,0,6.908-6.455C2698.961,6025.185,2699.177,6024.84,2699.611,6024.776Z" fill="#010102"/>
          <path id="Path_658" data-name="Path 658" d="M2699.611,6024.776c-.434.064-.65.409-.881.716a30.808,30.808,0,0,1-6.908,6.455,39.753,39.753,0,0,1-13.682,6.1,42.843,42.843,0,0,1-12.107,1.261,45.207,45.207,0,0,1-20.144-5.4,29.639,29.639,0,0,1-9.163-7.761,10.251,10.251,0,0,1-1.4-2.231,2.2,2.2,0,0,1,1.072-.117q12.739-.028,25.478-.046l36.528-.065h1.558l.659-1.5a.444.444,0,0,0-.382-.3c-.258-.018-.519-.016-.778-.016q-29.672.018-59.343.04c-1.862,0-3.723.026-5.584.042-.3,0-.606.009-.908.026-1.587.088-1.572.086-1.251,1.624a22.181,22.181,0,0,0,4.171,9.131,23.828,23.828,0,0,0,3.007,3.569c.126.11.255.235.145.432h-.034c.393-.207.521.187.718.351a27.893,27.893,0,0,0,13.188,6.249c.892.157,1.782.328,2.674.487.276.049.332.225.3.465a16.366,16.366,0,0,1,1.777-.247c3.793-.067,7.593.222,11.381-.22a20.707,20.707,0,0,1,2.72-.024,20.4,20.4,0,0,0,5.875-.7,11.647,11.647,0,0,1,1.516-.3,4.514,4.514,0,0,1,.9.013c.161.011.255.268.174.408a2.037,2.037,0,0,1-.9.712c-1.069.568-2.2.988-3.316,1.451a11.885,11.885,0,0,0-2.7,1.215l1.044.319a2.393,2.393,0,0,1,.483-.172,66.111,66.111,0,0,0,11.848-2.729,8.479,8.479,0,0,0,1.974-.965,3.232,3.232,0,0,0,1.131-1.218c.492-.906.433-1.018-.636-1.183a8.288,8.288,0,0,1-1.136-.242.413.413,0,0,1-.153-.717c.3-.246.623-.465.937-.695a28.677,28.677,0,0,0,9.649-12.6C2699.322,6025.867,2699.446,6025.313,2699.611,6024.776Z" fill="#010102"/>
          <path id="Path_659" data-name="Path 659" d="M2663.878,6018.835c.052.735.052.746.559.758.6.015,1.211.012,1.817.011q13.041,0,26.083-.009c.346,0,.692-.008,1.037-.027a.548.548,0,0,0,.42-.267,12.654,12.654,0,0,0-2.519-4.05,17.474,17.474,0,0,0-9.4-5.364,15.969,15.969,0,0,0-9.135.972,14.246,14.246,0,0,0-5.121,3.43,29.409,29.409,0,0,0-2.255,2.5A5.824,5.824,0,0,1,2663.878,6018.835Z" fill="#dba2c9"/>
          <path id="Path_660" data-name="Path 660" d="M2698.494,6058.068c.318-.378.18-.83.182-1.248.011-1.667-.074-1.578,1.529-1.577l11.667.006a1.45,1.45,0,0,0-.759-.1q-5.762-.006-11.524-.007c-1.147,0-1.156.01-1.155,1.117C2698.435,6056.862,2698.473,6057.465,2698.494,6058.068Z" fill="#f8b234"/>
          <path id="Path_661" data-name="Path 661" d="M2663.878,6018.835a5.824,5.824,0,0,0,1.484-2.049,8.757,8.757,0,0,0-2.289.22Q2663.475,6017.921,2663.878,6018.835Z" fill="#234b25"/>
          <path id="Path_662" data-name="Path 662" d="M2661.36,6121.611c-2.206,1.355-4.42,2.7-6.607,4.081-.361.228-.914.315-.966.9a1.885,1.885,0,0,0,1.233.18,30.863,30.863,0,0,0,4.649-.149,16.9,16.9,0,0,0,3.231.127c1.264.036,1.042-.011,1.413,1.062a5.225,5.225,0,0,1,.178.759c.079.416-.03.538-.456.57a4.146,4.146,0,0,0-1.581.144c2.343,5.6,4.662,11.123,6.849,16.809a3.178,3.178,0,0,1-1.378-.6,32.825,32.825,0,0,1-4.381-3.244c-3.38-2.846-6.754-5.7-10.152-8.524a25.137,25.137,0,0,0-4.816-3.292.932.932,0,0,0-1.345.258l-3.294,1.984c.246.487.7.412,1.012.558a6.365,6.365,0,0,0,1.1.295,7.8,7.8,0,0,0,1.761.806,27.634,27.634,0,0,1,11.156,8.483c5.008,6.577,6.576,14.019,5.267,22.1a27.66,27.66,0,0,1-5.836,12.883,25.333,25.333,0,0,1-10.69,8.214c-.148.057-.339.1-.355.384a12.55,12.55,0,0,0,2.54.222c1.3-.017,2.6-.08,3.9-.052,8.617.188,17.233.444,25.851.579,6.888.107,13.768.4,20.65.647,1.688.059,3.375.141,5.062.222,1.774.084,3.546.179,5.32.269a.206.206,0,0,0,.005.186c-1.255.022-2.511.065-3.767.065q-93.492,0-186.985,0-2.08,0-4.161.015a10.476,10.476,0,0,0-1.167.064,27.343,27.343,0,0,1-5.581.078c-1.516-.132-3.028-.156-4.544-.156q-25.356,0-50.712,0-6.5,0-13-.03c-.559,0-1.117-.03-1.676-.046a1.168,1.168,0,0,1,.634-.175q4.874-.152,9.747-.3c3.639-.109,7.278-.208,10.917-.327,6.714-.221,13.426-.5,20.141-.668,5.892-.15,11.783-.373,17.68-.321a1.785,1.785,0,0,0,1.234-.181c-.115-.558-.654-.6-1.03-.8a24.382,24.382,0,0,1-5.962-4.138c-7.56-7.611-10.736-16.656-8.53-27.289a27.189,27.189,0,0,1,9.3-15.418,25.225,25.225,0,0,1,5.6-3.511c.389-.186.766-.4,1.146-.6.032-.018.071-.082.061-.108-.025-.068-.07-.176-.118-.182a5.4,5.4,0,0,0-.648-.031q-6.7-.017-13.392-.035c-.648,0-1.3-.049-1.945-.094-.22-.015-.274-.205-.214-.38a1.631,1.631,0,0,1,.268-.44,19.789,19.789,0,0,1,3.1-3.139c1.2-1,2.483-1.888,3.772-2.77.315-.215.7-.351.888-.728.349-.169.7-.332,1.047-.508a45.317,45.317,0,0,1,16.651-5.1,30.061,30.061,0,0,1,8.666.344c1.017.207,2.038.4,3.052.619a.78.78,0,0,0,.965-.418c1.506-2.637,3.287-5.1,4.964-7.62q7.006-10.557,14.039-21.1a38.005,38.005,0,0,1,2.635-3.544,5.666,5.666,0,0,1,1.469-1.265c.711-.413,1.426-.821,2.126-1.252.357-.218.871-.371.814-.9-.046-.433-.509-.537-.844-.731a1.106,1.106,0,0,0-1.218.015c-.522.3-1.074.555-1.615.825-1.82.908-3.637,1.823-5.463,2.716a2.549,2.549,0,0,1-1.214.4c-.26-1.211-.444-17.231-.221-19.174.435-.14.736.187,1.075.339,3.473,1.556,6.848,3.333,10.434,4.638a9.423,9.423,0,0,1,2.771,1.667c.667.553,1.34,1.1,2,1.661a.538.538,0,0,0,.8.018,23.948,23.948,0,0,1,5.638-3.18q1.427-.625,2.858-1.24c5.208-2.234,10.352-4.618,15.6-6.753,1.322-.537,2.623-1.127,3.943-1.672a1.51,1.51,0,0,0,.9-1.017c.939-2.79,1.907-5.57,2.865-8.353a2.527,2.527,0,0,1,1,.211c1.383.5,2.773.971,4.16,1.455.46.16.609.075.676-.43.191-1.414.369-2.831.558-4.246q.594-4.437,1.194-8.874c.133-.986.278-1.97.417-2.955h.374c.522,3.9,1.053,7.8,1.56,11.7.212,1.629.348,3.268.567,4.9.115.852.337,1.69.511,2.534a6.009,6.009,0,0,0-1.24,1.961c-1.249,2.629-2.874,5.038-4.32,7.552a6.658,6.658,0,0,1-4.006,3.1c-2.563.791-5.142,1.53-7.758,2.132-5.02,1.156-10.085,2.091-15.13,3.123-2.247.459-4.492.932-6.742,1.375-.678.133-1.372.18-2.058.274-.121.016-.262.014-.322.168-.077.195.039.332.143.458a1.821,1.821,0,0,0,1.152.54c1.488.281,2.979.55,4.468.827,1.447.269,2.894.538,4.338.82a7.544,7.544,0,0,1,1.127.3,1.63,1.63,0,0,1,1.23,1.642,2.071,2.071,0,0,1-1.3,1.923,2.948,2.948,0,0,1-1.407.128,34.74,34.74,0,0,1-3.42-.764c-1.431-.337-2.857-.7-4.285-1.055-.168-.041-.334-.1-.5-.121a.376.376,0,0,0-.488.294c-1.128,5.035-2.891,9.884-4.357,14.82q-2.181,7.345-4.479,14.656c-1.229,3.925-2.619,7.8-4.126,11.623a1.976,1.976,0,0,0-.058,1.492c1.623,4.57,3.034,9.209,4.438,13.85q1.974,6.525,3.929,13.057c.44,1.463.511,1.474,1.839.812,3.563-1.777,7.139-3.529,10.71-5.291.155-.076.312-.15.465-.232.378-.2.878-.274,1.1-.649s-.035-.845-.086-1.268c-.306-2.494-.655-4.983-.956-7.478-.311-2.581-.583-5.167-.875-7.75q-.475-4.2-.956-8.4c-.283-2.454-.564-4.907-.872-7.358s-.663-4.893-.973-7.343a12.866,12.866,0,0,1-.189-2.717,5.315,5.315,0,0,1,1.063-2.749,12.745,12.745,0,0,1,2.175-2.226,32.987,32.987,0,0,1,4.37-3.04q6.045-3.558,12.121-7.062c4.991-2.872,10-5.707,15-8.568.713-.408,1.394-.869,2.091-1.306,1.363.546,2.727,1.089,4.087,1.641a41.156,41.156,0,0,0,9.63,2.5,111.2,111.2,0,0,0,12.272.912,37.784,37.784,0,0,0,6.334-.357,5.086,5.086,0,0,1,.646-.005c-.014.26-.01.521-.045.778a39.417,39.417,0,0,1-2.14,8.414,69.623,69.623,0,0,1-5.542,11.148c-.231.387-.78.789-.5,1.235.21.339.81.142,1.235.141q7.8-.017,15.591-.052c4.027-.018,8.055-.047,12.083-.065a8.608,8.608,0,0,1,1.295.061,1.734,1.734,0,0,1,1.5,1.26,4.6,4.6,0,0,1,.232,1.4c0,1.17-.042,2.341-.005,3.509a9.7,9.7,0,0,1-.663,3.419c-.083.245-.213.473-.31.714-.16.4-.071.534.389.555,1.729.081,3.459.166,5.19.222a16.85,16.85,0,0,1,2.32.273,1.1,1.1,0,0,1,.929.615A4.162,4.162,0,0,1,2661.36,6121.611Zm-104.038-37.381c-.006-.023-.005-.055-.021-.068a.355.355,0,0,0-.09-.039c-.044-.059-.077-.141-.136-.172s-.129.008-.2.016c.033.046.057.115.1.133a.8.8,0,0,0,.227.027Zm-7.486,83.594a10.889,10.889,0,0,1-3.035-4.461c-1.393-3.266-2.892-6.481-4.435-9.677-1.693-3.509-3.343-7.038-5.06-10.534q-1.776-3.612-3.693-7.153c-1.057-1.94-.772-1.626-2.787-1.665a3.036,3.036,0,0,0-.389.006c-.551.057-1.277-.21-1.614.21a6.491,6.491,0,0,0-.774,1.9.408.408,0,0,0,.175.454c.173.131.357.245.533.371a22.614,22.614,0,0,1,4.663,4.494,30.1,30.1,0,0,1,6.591,21.591c-.021.3-.021.6-.031.9-.321,1.3-.6,2.614-.971,3.9a28.117,28.117,0,0,1-6.128,11.334,28.5,28.5,0,0,1-7.286,5.6c-.324.184-.731.256-.953.619.143.265.384.155.566.147,7.707-.324,15.419-.467,23.131-.54,6.325-.059,12.652,0,18.977.011q12.026.029,24.051.076c6.673.025,13.347.044,20.02.092,3.076.022,6.152.1,9.228.164.518.011,1.035.086,1.554.118.776.048,1.553.085,2.4.13-.076-.432-.377-.482-.621-.592a26.847,26.847,0,0,1-10.1-8.181,25.118,25.118,0,0,1-4.339-8.806c-.246-.867-.462-1.744-.685-2.591-.346-.14-.422.128-.527.282a8,8,0,0,1-6.5,3.508c-3.117.2-6.238.157-9.356.168-4.464.015-8.927-.021-13.39-.051-6.5-.043-13-.1-19.5-.15-1.083-.007-2.168-.007-3.249.049a9.9,9.9,0,0,1-6.423-1.607C2549.864,6167.9,2549.864,6167.847,2549.836,6167.824Zm45.765-58.639c-3.213.7-6.424,1.414-9.64,2.1a18.2,18.2,0,0,1-2.183.312c-2.545.228-5.092.431-7.639.646a2.822,2.822,0,0,0-.363.079c-.075.4.2.661.341.964a14.393,14.393,0,0,1,1.173,4.094,26.159,26.159,0,0,1-.457,9.042c-.989,5.013-2.05,10.011-3.107,15.011-.493,2.329-1.041,4.647-1.58,6.967a1.943,1.943,0,0,0,.057,1.266,12.607,12.607,0,0,1,.746,6,4.982,4.982,0,0,1-.35,2.267,10.33,10.33,0,0,1-2.193.076q-9.553.034-19.107.051c-.217,0-.434-.007-.65.006a.589.589,0,0,1-.622-.365c-.11-.235-.213-.474-.317-.712q-5.994-13.682-11.986-27.365a24.084,24.084,0,0,1-1.237-3.416c-.055-.205-.063-.434-.262-.574a3.831,3.831,0,0,0-3.858,2.861,3.156,3.156,0,0,0,.82.99,26.466,26.466,0,0,1,4.544,6.3c1.922,3.639,3.663,7.367,5.449,11.072q2.567,5.324,5.115,10.657c.037.078.065.161.109.236.236.4.156,1.044.633,1.225a4.123,4.123,0,0,0,1.413.088q20.407,0,40.815-.006c5.5,0,11.005.019,16.507.019.778,0,1.558-.048,2.335-.1.3-.02.414-.239.391-.562-.018-.247-.13-.419-.378-.444a7.09,7.09,0,0,0-.776-.013c-3.466.025-6.932.065-10.4.075q-10.593.031-21.186.038c-.346,0-.693.007-1.039,0-.5-.017-.549-.076-.577-.629-.007-.129-.013-.26-.013-.39,0-.649,0-.642.69-.871a9.527,9.527,0,0,0,1.085-.42c4.25-2.045,8.489-4.117,12.839-5.946a1.459,1.459,0,0,0,1.032-1.167c.419-2.212.873-4.418,1.336-6.622,2.049-9.747,3.852-19.543,5.768-29.316.208-1.063.436-2.121.643-3.184.065-.334.088-.677.155-1.211C2598.208,6108.627,2596.9,6108.9,2595.6,6109.185Zm34.666,33.759c-.4.13-.468.3-.233.675.53.841,1.1,1.66,1.617,2.508.566.922,1.146,1.84,1.625,2.808a1.294,1.294,0,0,0,1.547.773,10.842,10.842,0,0,1,3.867.212,10.328,10.328,0,0,1,7.958,7.713,5.059,5.059,0,0,1,.21.883c.1,1.048.364,1.054,1.236,1.046,1.817-.015,3.635,0,5.452,0,1.012,0,1.072-.031.906-1.014-1.3-7.7-5.411-13.074-12.951-15.568a15.435,15.435,0,0,0-5.676-.861A16.287,16.287,0,0,0,2630.267,6142.944Zm-6.375,2.9a5.175,5.175,0,0,0-.9.928,21.964,21.964,0,0,0-4.732,9.689,11.644,11.644,0,0,1-.384,1.367,2.069,2.069,0,0,0-.095.894.829.829,0,0,0,.911.869c2.07.09,4.139.061,6.269,0,.112-.5.227-.953.312-1.409a9.52,9.52,0,0,1,4.766-6.771c.6-.347,1.223-.645,1.826-.982a.291.291,0,0,0,.121-.437c-.045-.074-.083-.152-.129-.225q-1.957-3.136-3.917-6.271a2.389,2.389,0,0,0-.293-.288C2626.36,6144.108,2625.112,6144.956,2623.892,6145.843Zm-101.033,14.415c2.032.018,4.065.034,6.1.036.57,0,.653-.125.593-.715a21.843,21.843,0,0,0-4.918-11.8c-.163-.2-.331-.4-.512-.585a.28.28,0,0,0-.446-.01c-.227.261-.436.537-.649.81-1.091,1.4-2.195,2.786-3.266,4.2-.494.651-.464.708-.036,1.374.4.617.822,1.22,1.175,1.862a11.178,11.178,0,0,1,1.18,3.954,1.563,1.563,0,0,0,.181.791A4.422,4.422,0,0,0,2522.859,6160.258Zm-15.229-15.66q2.61,2.346,5.227,4.686c.446.4.58.378.882-.143a12.567,12.567,0,0,0,.712-1.385c.541-1.275,1.059-2.56,1.573-3.846.159-.4.076-.576-.322-.672a20.275,20.275,0,0,0-2.031-.426,15.824,15.824,0,0,0-6.806.543,1.963,1.963,0,0,0-.337.228C2506.934,6143.957,2507.278,6144.282,2507.63,6144.6Zm75.6,11.493c1.031.148,12.817.165,14.481-.012C2595.608,6155.888,2584.189,6155.925,2583.226,6156.091Zm-28.794-72.647a2.607,2.607,0,0,0,1.926.317A2.678,2.678,0,0,0,2554.432,6083.444Zm-.608-.159c.119-.006.149-.061.077-.13a.135.135,0,0,0-.117-.016c-.027.009-.041.056-.06.087C2553.757,6083.247,2553.792,6083.286,2553.824,6083.285Z" fill="#010102"/>
          <path id="Path_663" data-name="Path 663" d="M2710.668,6188.284a.206.206,0,0,0,.005.186.986.986,0,0,0,.732.159c.942,0,1.884,0,2.827,0l0-.3A27.349,27.349,0,0,0,2710.668,6188.284Z" fill="#234b25"/>
          <path id="Path_664" data-name="Path 664" d="M2594.845,6041.408c.522,3.9,1.053,7.8,1.56,11.7.212,1.629.348,3.268.567,4.9.115.852.337,1.69.511,2.534a9.572,9.572,0,0,1,.524,2.252c.5,3.481.967,6.967,1.728,10.4.952.028,1.9.035,2.856.089a89.281,89.281,0,0,0,17.374-.6,66.826,66.826,0,0,0,6.878-1.337c.615-.152.721-.333.594-.914a4.822,4.822,0,0,0-.145-.5c-.738-2.265-1.449-4.539-2.222-6.791-1.785-5.2-3.464-10.441-5.475-15.565-1.108-2.822-2.152-5.669-3.224-8.5a2.238,2.238,0,0,1-.446-1.311c.317.52.693.826.789,1.308a27.727,27.727,0,0,0,6.25,6.3c1.172.875,2.376,1.71,3.577,2.545a7.1,7.1,0,0,1,1.855,1.577,1.369,1.369,0,0,1,.908.445c.34.267.673.546,1.03.789a.252.252,0,0,0,.408-.147c.125-.5.229-1.012.331-1.52a4.378,4.378,0,0,1,.451-1.477,3.419,3.419,0,0,1,.092-.506,19.471,19.471,0,0,1,4.36-7.4,3.647,3.647,0,0,1,1.282-1.062c.111-.377.446-.492.755-.625.469-.2.935-.412,1.419-.567.439-.141.277-.422.228-.692h.034c-.507.11-.785-.3-1.124-.53-2.926-1.988-5.832-4.005-8.76-5.99-1.572-1.066-3.214-2.016-4.877-2.935a15.506,15.506,0,0,0-6.261-1.907c-1.587-.134-3.181-.191-4.772-.283-.169.382-.53.552-.847.771l-10.981,7.557c-.177.122-.351.251-.535.364-.359.219-.489.181-.694-.235-.191-.387-.357-.785-.531-1.179a31.08,31.08,0,0,1-1.271-3.936,9.613,9.613,0,0,0-4.629,3.4,21.858,21.858,0,0,0-1.363,2.208,72.3,72.3,0,0,0-4.075,9.266c-1.41,3.677-2.775,7.371-4.16,11.058-.061.162-.131.321-.186.486-.128.39-.054.551.3.726.5.248,1.1.276,1.533.675a2.51,2.51,0,0,1,1.005.21c1.383.5,2.773.971,4.16,1.455.46.16.609.075.676-.43.191-1.414.369-2.831.558-4.246q.594-4.437,1.194-8.874c.133-.986.278-1.97.417-2.954a1.526,1.526,0,0,1,.089-.963c.011-.023.064-.037.1-.038s.087.014.1.037A1.533,1.533,0,0,1,2594.845,6041.408Z" fill="#fab017"/>
          <path id="Path_665" data-name="Path 665" d="M2599.041,6028.429a31.08,31.08,0,0,0,1.271,3.936c.174.394.34.792.531,1.179.205.416.335.454.694.235.184-.113.358-.242.535-.364l10.981-7.557c.317-.219.678-.389.847-.771-.643-.068-1.29-.121-1.931-.21s-.685-.126-.782-.814c-.072-.512-.091-1.032-.142-1.548-.091-.9-.156-1.809-.293-2.7a5.635,5.635,0,0,0-.873-2.417.5.5,0,0,1,.055-.691c.028-.032.055-.066.083-.1a33.625,33.625,0,0,0,5.881-10.585,5.125,5.125,0,0,0-2.125-.468c-1.156-.147-2.317-.264-3.476-.391-2.79-.307-5.579-.623-8.37-.917q-3.545-.372-7.092-.7c-1.848-.172-3.7-.319-5.548-.476a8.934,8.934,0,0,0,.042,3.224,1.106,1.106,0,0,0,.58.951.662.662,0,0,1,.374.752,8.718,8.718,0,0,1-.171,1.283c-.2.8-.419,1.589-.681,2.367-.453,1.348-.484,1.36-1.725,1.834a1.633,1.633,0,0,0,.26.977c.737,1.8,1.5,3.59,2.256,5.382a21.042,21.042,0,0,0,1.218,2.434,2.292,2.292,0,0,0,2.149,1.192,8.039,8.039,0,0,0,3.384-.783,15.286,15.286,0,0,0,2.227-1.325,1.635,1.635,0,0,1,.844-.465,2,2,0,0,1,.305,1.033q.225,2.393.433,4.786c.016.172.009.346.011.519a.719.719,0,0,1-.54.771A3.434,3.434,0,0,0,2599.041,6028.429Z" fill="#010102"/>
          <path id="Path_666" data-name="Path 666" d="M2589.287,6003.067c1.849.157,3.7.3,5.548.476q3.547.332,7.092.7c2.791.294,5.58.61,8.37.917,1.159.127,2.32.244,3.476.391a5.125,5.125,0,0,1,2.125.468,7.5,7.5,0,0,1,1.933.161,4.372,4.372,0,0,0,.9.081c.1,0,.208-.128.279-.223a.381.381,0,0,0,.037-.251,46.322,46.322,0,0,0-.723-6.566,15.547,15.547,0,0,0-4.124-7.244,14.906,14.906,0,0,0-6.836-3.82,16.961,16.961,0,0,0-20.055,10.156c-.141.362-.334.705-.477,1.066a1.018,1.018,0,0,1-.988.678c-1.98.169-3.956.378-5.934.577a1.83,1.83,0,0,0-.373.093c-.031.01-.047.064-.069.1-.056.086-.036.159.067.208a10.429,10.429,0,0,0,2.387.569C2584.37,6002.109,2586.855,6002.455,2589.287,6003.067Z" fill="#fab017"/>
          <path id="Path_667" data-name="Path 667" d="M2648.851,6019.615h12.85c.3,0,.606,0,.908-.014.346-.019.476-.212.329-.511a17.4,17.4,0,0,0-2.486-3.786,16.616,16.616,0,0,0-16.437-4.794,13.128,13.128,0,0,0-7.858,5.574,20.172,20.172,0,0,0-1.658,2.933.361.361,0,0,0,.336.543c.3.021.6.021.907.021q6.555,0,13.109,0Z" fill="#f2e9d1"/>
          <path id="Path_668" data-name="Path 668" d="M2662.857,6120.411a4.162,4.162,0,0,1-1.5,1.2c-2.206,1.355-4.42,2.7-6.607,4.081-.361.228-.914.315-.966.9a1.885,1.885,0,0,0,1.233.18,30.863,30.863,0,0,0,4.649-.149,2.675,2.675,0,0,1,.857-1.555c.861-1.09,1.51-2.312,2.265-3.468a1.813,1.813,0,0,0,.27-1.116A.159.159,0,0,0,2662.857,6120.411Z" fill="#f8b234"/>
          <path id="Path_669" data-name="Path 669" d="M2647.231,6130.691l-3.294,1.984c.246.487.7.412,1.012.558a6.365,6.365,0,0,0,1.1.295c.254-.5.515-.993.76-1.5A2.962,2.962,0,0,0,2647.231,6130.691Z" fill="#f2e9d1"/>
          <path id="Path_670" data-name="Path 670" d="M2637.258,6038.616a3.647,3.647,0,0,0-1.282,1.062,19.471,19.471,0,0,0-4.36,7.4,3.419,3.419,0,0,0-.092.506,61.761,61.761,0,0,1,5.509,3.421c1.313.837,2.587,1.737,3.893,2.587a18.166,18.166,0,0,0,3.781,1.983,7.017,7.017,0,0,0,4.7.091c1.354-.45,2.7-.923,4.043-1.407,5.45-1.964,10.922-3.869,16.295-6.04,1.082-.438,2.157-.894,3.227-1.36a2.84,2.84,0,0,1,.992-.271,11.885,11.885,0,0,1,2.7-1.215c1.115-.463,2.247-.883,3.316-1.451a2.037,2.037,0,0,0,.9-.712c.081-.14-.013-.4-.174-.408a4.514,4.514,0,0,0-.9-.013,11.647,11.647,0,0,0-1.516.3,20.4,20.4,0,0,1-5.875.7,20.707,20.707,0,0,0-2.72.024c-3.788.442-7.588.153-11.381.22a16.366,16.366,0,0,0-1.777.247q-2.8.786-5.59,1.569a4.528,4.528,0,0,1-1.736.393,5.063,5.063,0,0,1-1.692-.9C2644.064,6043.159,2640.757,6040.74,2637.258,6038.616Z" fill="#010102"/>
          <path id="Path_671" data-name="Path 671" d="M2598.332,6082.091c1.363.547,2.727,1.09,4.087,1.642a41.156,41.156,0,0,0,9.63,2.5,111.2,111.2,0,0,0,12.272.912,37.784,37.784,0,0,0,6.334-.357,5.086,5.086,0,0,1,.646-.005,9.409,9.409,0,0,0-.286-3.585c-.508-2.534-1.034-5.064-1.559-7.594a1.389,1.389,0,0,0-.177-.336c-.382.068-.769.117-1.146.207a48.025,48.025,0,0,1-10.152,1.177,63.369,63.369,0,0,1-11.494-.793c-2.3-.377-4.578-.886-6.852-1.4-.1.463-.2.924-.3,1.388Q2598.71,6078.948,2598.332,6082.091Z" fill="#fab017"/>
          <path id="Path_672" data-name="Path 672" d="M2599.635,6074.456c2.274.514,4.548,1.023,6.852,1.4a63.369,63.369,0,0,0,11.494.793,48.025,48.025,0,0,0,10.152-1.177c.377-.09.764-.139,1.146-.207-.023-1.352-.464-2.638-.611-3.97-.047-.429-.134-.857-.138-1.286q-.1-10-.171-20c0-.172.024-.344.037-.517a7.1,7.1,0,0,0-1.855-1.577c-1.2-.835-2.405-1.67-3.577-2.545a27.742,27.742,0,0,1-6.25-6.3l-.343,0c1.072,2.835,2.116,5.682,3.224,8.5,2.011,5.124,3.69,10.363,5.475,15.565.773,2.252,1.484,4.526,2.222,6.791a4.822,4.822,0,0,1,.145.5c.127.581.021.762-.594.914a66.826,66.826,0,0,1-6.878,1.337,89.281,89.281,0,0,1-17.374.6c-.951-.054-1.9-.061-2.856-.089A3.831,3.831,0,0,0,2599.635,6074.456Z" fill="#010102"/>
          <path id="Path_673" data-name="Path 673" d="M2637.258,6038.616c3.5,2.124,6.806,4.543,10.264,6.729a5.063,5.063,0,0,0,1.692.9,4.528,4.528,0,0,0,1.736-.393q2.8-.777,5.59-1.569c.032-.24-.024-.416-.3-.465-.892-.159-1.782-.33-2.674-.487a27.893,27.893,0,0,1-13.188-6.249c-.2-.164-.325-.558-.718-.351.049.27.211.551-.228.692-.484.155-.95.366-1.419.567C2637.7,6038.124,2637.369,6038.239,2637.258,6038.616Z" fill="#f2e9d1"/>
          <path id="Path_674" data-name="Path 674" d="M2599.635,6074.456a3.831,3.831,0,0,1,.1-1.263c-.761-3.438-1.228-6.924-1.728-10.4a9.572,9.572,0,0,0-.524-2.252,6.009,6.009,0,0,0-1.24,1.961c-1.249,2.629-2.874,5.038-4.32,7.552a6.658,6.658,0,0,1-4.006,3.1c-2.563.791-5.142,1.53-7.758,2.132-5.02,1.156-10.085,2.091-15.13,3.123-2.247.459-4.492.932-6.742,1.375-.678.133-1.372.18-2.058.274-.121.016-.262.014-.322.168-.077.195.039.332.143.458a1.821,1.821,0,0,0,1.152.54c1.488.281,2.979.55,4.468.827,1.447.269,2.894.538,4.338.82a7.544,7.544,0,0,1,1.127.3,1.63,1.63,0,0,1,1.23,1.642,2.071,2.071,0,0,1-1.3,1.923,2.948,2.948,0,0,1-1.407.128,34.74,34.74,0,0,1-3.42-.764c-1.431-.337-2.857-.7-4.285-1.055-.168-.041-.334-.1-.5-.121a.376.376,0,0,0-.488.294c-1.128,5.035-2.891,9.884-4.357,14.82q-2.181,7.345-4.479,14.656c-1.229,3.925-2.619,7.8-4.126,11.623a1.976,1.976,0,0,0-.058,1.492c1.623,4.57,3.034,9.209,4.438,13.85q1.974,6.525,3.929,13.057c.44,1.463.511,1.474,1.839.812,3.563-1.777,7.139-3.529,10.71-5.291.155-.076.312-.15.465-.232.378-.2.878-.274,1.1-.649s-.035-.845-.086-1.268c-.306-2.494-.655-4.983-.956-7.478-.311-2.581-.583-5.167-.875-7.75q-.475-4.2-.956-8.4c-.283-2.454-.564-4.907-.872-7.358s-.663-4.893-.973-7.343a12.866,12.866,0,0,1-.189-2.717,5.315,5.315,0,0,1,1.063-2.749,12.745,12.745,0,0,1,2.175-2.226,32.987,32.987,0,0,1,4.37-3.04q6.045-3.558,12.121-7.062c4.991-2.872,10-5.707,15-8.568.713-.408,1.394-.869,2.091-1.306q.378-3.144,1-6.248C2599.431,6075.38,2599.535,6074.919,2599.635,6074.456Z" fill="#f2e9d1"/>
          <path id="Path_675" data-name="Path 675" d="M2539.98,6164.264c-.321,1.3-.6,2.614-.971,3.9a28.117,28.117,0,0,1-6.128,11.334,28.5,28.5,0,0,1-7.286,5.6c-.324.184-.731.256-.953.619.143.265.384.155.566.147,7.707-.324,15.419-.467,23.131-.54,6.325-.059,12.652,0,18.977.011q12.026.029,24.051.076c6.673.025,13.347.044,20.02.092,3.076.022,6.152.1,9.228.164.518.011,1.035.086,1.554.118.776.048,1.553.085,2.4.13-.076-.432-.377-.482-.621-.592a26.847,26.847,0,0,1-10.1-8.181,25.118,25.118,0,0,1-4.339-8.806c-.246-.867-.462-1.744-.685-2.591-.346-.14-.422.128-.527.282a8,8,0,0,1-6.5,3.508c-3.117.2-6.238.157-9.356.168-4.464.015-8.927-.021-13.39-.051-6.5-.043-13-.1-19.5-.15-1.083-.007-2.168-.007-3.249.049a9.9,9.9,0,0,1-6.423-1.607,5.49,5.49,0,0,1-1.891-.38A60.9,60.9,0,0,1,2539.98,6164.264Z" fill="#fab017"/>
          <path id="Path_676" data-name="Path 676" d="M2599.679,6108.312c-1.471.315-2.775.589-4.078.873-3.213.7-6.424,1.414-9.64,2.1a18.2,18.2,0,0,1-2.183.312c-2.545.228-5.092.431-7.639.646a2.822,2.822,0,0,0-.363.079c-.075.4.2.661.341.964a14.393,14.393,0,0,1,1.173,4.094,26.159,26.159,0,0,1-.457,9.042c-.989,5.013-2.05,10.011-3.107,15.011-.493,2.329-1.041,4.647-1.58,6.967a1.943,1.943,0,0,0,.057,1.266,12.607,12.607,0,0,1,.746,6,4.982,4.982,0,0,1-.35,2.267,10.33,10.33,0,0,1-2.193.076q-9.553.034-19.107.051c-.217,0-.434-.007-.65.006a.589.589,0,0,1-.622-.365c-.11-.235-.213-.474-.317-.712q-5.994-13.682-11.986-27.365a24.084,24.084,0,0,1-1.237-3.416c-.055-.205-.063-.434-.262-.574a3.831,3.831,0,0,0-3.858,2.861,3.156,3.156,0,0,0,.82.99,26.466,26.466,0,0,1,4.544,6.3c1.922,3.639,3.663,7.367,5.449,11.072q2.567,5.324,5.115,10.657c.037.078.065.161.109.236.236.4.156,1.044.633,1.225a4.123,4.123,0,0,0,1.413.088q20.407,0,40.815-.006c5.5,0,11.005.019,16.507.019.778,0,1.558-.048,2.335-.1.3-.02.414-.239.391-.562-.018-.247-.13-.419-.378-.444a7.09,7.09,0,0,0-.776-.013c-3.466.025-6.932.065-10.4.075q-10.593.031-21.186.038c-.346,0-.693.007-1.039,0-.5-.017-.549-.076-.577-.629-.007-.129-.013-.26-.013-.39,0-.649,0-.642.69-.871a9.527,9.527,0,0,0,1.085-.42c4.25-2.045,8.489-4.117,12.839-5.946a1.459,1.459,0,0,0,1.032-1.167c.419-2.212.873-4.418,1.336-6.622,2.049-9.747,3.852-19.543,5.768-29.316.208-1.063.436-2.121.643-3.184C2599.589,6109.189,2599.612,6108.846,2599.679,6108.312Z" fill="#f2e9d1"/>
          <path id="Path_677" data-name="Path 677" d="M2635.825,6142.123a16.287,16.287,0,0,0-5.558.821c-.4.13-.468.3-.233.675.53.841,1.1,1.66,1.617,2.508.566.922,1.146,1.84,1.625,2.808a1.294,1.294,0,0,0,1.547.773,10.842,10.842,0,0,1,3.867.212,10.328,10.328,0,0,1,7.958,7.713,5.059,5.059,0,0,1,.21.883c.1,1.048.364,1.054,1.236,1.046,1.817-.015,3.635,0,5.452,0,1.012,0,1.072-.031.906-1.014-1.3-7.7-5.411-13.074-12.951-15.568A15.435,15.435,0,0,0,2635.825,6142.123Z" fill="#fab017"/>
          <path id="Path_678" data-name="Path 678" d="M2539.98,6164.264a60.9,60.9,0,0,0,8.006,3.3,5.49,5.49,0,0,0,1.891.38c-.013-.041-.013-.1-.041-.122a10.889,10.889,0,0,1-3.035-4.461c-1.393-3.266-2.892-6.481-4.435-9.677-1.693-3.509-3.343-7.038-5.06-10.534q-1.776-3.612-3.693-7.153c-1.057-1.94-.772-1.626-2.787-1.665a3.036,3.036,0,0,0-.389.006c-.551.057-1.277-.21-1.614.21a6.491,6.491,0,0,0-.774,1.9.408.408,0,0,0,.175.454c.173.131.357.245.533.371a22.614,22.614,0,0,1,4.663,4.494,30.1,30.1,0,0,1,6.591,21.591C2539.99,6163.661,2539.99,6163.963,2539.98,6164.264Z" fill="#f2e9d1"/>
          <path id="Path_679" data-name="Path 679" d="M2627.647,6143.21c-1.287.9-2.535,1.746-3.755,2.633a5.175,5.175,0,0,0-.9.928,21.964,21.964,0,0,0-4.732,9.689,11.644,11.644,0,0,1-.384,1.367,2.069,2.069,0,0,0-.095.894.829.829,0,0,0,.911.869c2.07.09,4.139.061,6.269,0,.112-.5.227-.953.312-1.409a9.52,9.52,0,0,1,4.766-6.771c.6-.347,1.223-.645,1.826-.982a.291.291,0,0,0,.121-.437c-.045-.074-.083-.152-.129-.225q-1.957-3.136-3.917-6.271A2.389,2.389,0,0,0,2627.647,6143.21Z" fill="#fab017"/>
          <path id="Path_680" data-name="Path 680" d="M2522.258,6160.175a4.422,4.422,0,0,0,.6.083c2.032.018,4.065.034,6.1.036.57,0,.653-.125.593-.715a21.843,21.843,0,0,0-4.918-11.8c-.163-.2-.331-.4-.512-.585a.28.28,0,0,0-.446-.01c-.227.261-.436.537-.649.81-1.091,1.4-2.195,2.786-3.266,4.2-.494.651-.464.708-.036,1.374.4.617.822,1.22,1.175,1.862a11.178,11.178,0,0,1,1.18,3.954A1.563,1.563,0,0,0,2522.258,6160.175Z" fill="#f2e9d1"/>
          <path id="Path_681" data-name="Path 681" d="M2506.528,6143.583c.406.374.75.7,1.1,1.015q2.61,2.346,5.227,4.686c.446.4.58.378.882-.143a12.567,12.567,0,0,0,.712-1.385c.541-1.275,1.059-2.56,1.573-3.846.159-.4.076-.576-.322-.672a20.275,20.275,0,0,0-2.031-.426,15.824,15.824,0,0,0-6.806.543A1.963,1.963,0,0,0,2506.528,6143.583Z" fill="#f2e9d1"/>
          <path id="Path_682" data-name="Path 682" d="M2597.707,6156.079c-2.1-.191-13.518-.154-14.481.012C2584.257,6156.239,2596.043,6156.256,2597.707,6156.079Z" fill="#234b25"/>
          <path id="Path_683" data-name="Path 683" d="M2594.845,6041.408a1.533,1.533,0,0,0-.089-.963c-.011-.023-.065-.037-.1-.037s-.087.015-.1.038a1.526,1.526,0,0,0-.089.963Z" fill="#234b25"/>
          <path id="Path_684" data-name="Path 684" d="M2556.358,6083.761a2.678,2.678,0,0,0-1.926-.317A2.607,2.607,0,0,0,2556.358,6083.761Z" fill="#234b25"/>
          <path id="Path_685" data-name="Path 685" d="M2553.724,6083.226c.033.021.068.06.1.059.119-.006.149-.061.077-.13a.135.135,0,0,0-.117-.016C2553.757,6083.148,2553.743,6083.195,2553.724,6083.226Z" fill="#234b25"/>
          <path id="Path_686" data-name="Path 686" d="M2557.211,6084.123c-.044-.059-.077-.141-.136-.172s-.129.008-.2.016c.033.046.057.115.1.133a.8.8,0,0,0,.227.027Z" fill="#234b25"/>
          <path id="Path_687" data-name="Path 687" d="M2557.208,6084.127l.114.1c-.006-.023-.005-.055-.021-.068a.355.355,0,0,0-.09-.039Z" fill="#234b25"/>
          <path id="Path_688" data-name="Path 688" d="M2616.371,6039.07l.343,0c-.1-.483-.472-.789-.789-1.309A2.238,2.238,0,0,0,2616.371,6039.07Z" fill="#234b25"/>
        </g>
      </g>
    </g>
    <text id="Delivering_that" data-name="Delivering that" transform="translate(1074.34 478.013)" font-size="21.319" font-family="SegoeUI, Segoe UI"><tspan x="0" y="0">Delivering that</tspan></text>
    <text id="needed_balance_" data-name="needed balance!" transform="translate(999.93 518.262)" fill="#fff" font-size="37.721" font-family="SegoeUI, Segoe UI"><tspan x="0" y="0">needed balance!</tspan></text>
  </g>
</svg>
