<svg xmlns="http://www.w3.org/2000/svg" width="261.792" height="224.759" viewBox="0 0 261.792 224.759">
  <g id="Group_53" data-name="Group 53" transform="translate(-631.744 -705)">
    <path id="Path_207" data-name="Path 207" d="M870.728,705l-108.3,64.142s22.072,49.619-19.256,67.83c-38.995,17.183-65.014-19.789-65.014-19.789l-46.415,23.605s17.579,65.761,95.59,85.775c52.9,13.572,132.2-16.352,157.276-84.6C910.907,770.386,870.728,705,870.728,705Z" fill="#fab017"/>
    <path id="Path_208" data-name="Path 208" d="M741.913,915c17.47.311,35.791-3.885,53.538-12.452A151.048,151.048,0,0,0,833.3,876.287a167.9,167.9,0,0,0,30.551-38.894,127.7,127.7,0,0,0,15.192-44.867,169.9,169.9,0,0,0,.786-41.6,186.857,186.857,0,0,0-9.109-42.613,1.112,1.112,0,0,0-2.081.782,184.573,184.573,0,0,1,8.985,42.112c2.209,22.438,1.278,55.414-15.7,85.086-27.381,47.847-75.44,77.281-120,76.491a91.5,91.5,0,0,1-27.192-4.543c-32.089-10.612-50.876-27.929-60.986-40.588-10.922-13.674-14.31-24.925-14.343-25.038a1.111,1.111,0,0,0-2.132.627c.14.475,3.547,11.785,14.738,25.8a116.849,116.849,0,0,0,23.428,22.053,143.885,143.885,0,0,0,38.6,19.258A93.987,93.987,0,0,0,741.913,915Z" fill="#ed242a"/>
    <g id="Group_52" data-name="Group 52">
      <path id="Path_209" data-name="Path 209" d="M761.488,801s9.026-3.834,13.209-11.058,3.342-13.859-4.16-16.226-12.357,5.969-12.629,11.934S761.488,801,761.488,801Z" fill="#699e59"/>
      <path id="Path_210" data-name="Path 210" d="M745.118,808.569s4,8.952,11.3,13,13.919,3.082,16.145-4.464-6.2-12.242-12.169-12.4S745.118,808.569,745.118,808.569Z" fill="#699e59"/>
      <path id="Path_211" data-name="Path 211" d="M740.371,811.856s-7.281,6.57-8.879,14.763,1.362,14.191,9.226,13.981,9.733-9.674,8.044-15.4S740.371,811.856,740.371,811.856Z" fill="#699e59"/>
      <path id="Path_212" data-name="Path 212" d="M755.644,801.068s.072-9.807-4.892-16.518-11.386-8.579-16.542-2.637.562,13.711,5.927,16.333S755.644,801.068,755.644,801.068Z" fill="#699e59"/>
      <path id="Path_213" data-name="Path 213" d="M728.469,846.068s.072-9.806-4.892-16.518-11.387-8.579-16.542-2.637.562,13.712,5.926,16.333S728.469,846.068,728.469,846.068Z" fill="#699e59"/>
      <path id="Path_214" data-name="Path 214" d="M691.95,810.636s-7.3,6.55-8.917,14.739,1.324,14.2,9.189,14.005,9.759-9.648,8.085-15.379S691.95,810.636,691.95,810.636Z" fill="#699e59"/>
      <path id="Path_215" data-name="Path 215" d="M701.941,802.81s4.625,8.648,12.193,12.17,14.1,2.093,15.79-5.59-7.047-11.775-13.013-11.514S701.941,802.81,701.941,802.81Z" fill="#699e59"/>
    </g>
  </g>
</svg>
