<svg xmlns="http://www.w3.org/2000/svg" width="1368.532" height="665.913" viewBox="0 0 1368.532 665.913">
  <g id="Group_187" data-name="Group 187" transform="translate(-0.607 -1318.087)">
    <g id="Group_2" data-name="Group 2" transform="translate(-4158 -5063)">
      <path id="Path_1" data-name="Path 1" d="M4328.635,6589.955l.115-.26c1.047-2.568.585-6,.377-8.733a30.991,30.991,0,0,0-3.576-2.879c-.35-3.758-1.623-9.828,1.017-12.97a6.644,6.644,0,0,1,4.767-2.113l11.682.013c.182,2.2.067,5.123.806,7.17.954,2.64,4.137,5.926,4.263,8.445a14.087,14.087,0,0,1-1.821,1.244c.082,2.092.818,3.9.664,6.041a2.554,2.554,0,0,1-2.523.528,30.385,30.385,0,0,0-4.666-.427l-.094,5.066Z" fill="#020202"/>
      <g id="Group_1" data-name="Group 1">
        <path id="Path_2" data-name="Path 2" d="M4321.1,6622.517l-17.26,9.585,18.644,27.251,6.775,10.124-7.56-46.766Z" fill="none"/>
        <path id="Path_3" data-name="Path 3" d="M4406.448,6607.656l-33.331,16.372-32.333-31.362-.426.462,1.461,11.238-13.408-13.644a9.171,9.171,0,0,0-2.82,2.58l-5.161,5.7-20.9,23.007c-2.8,3.107-6.149,6.141-8.63,9.49l28.1,32.953,8.97,10.275c1.251,1.411,3.624,3.528,4.239,5.311.946,2.75,1.065,6.432,1.546,9.355l3.818,21.545c.243,1.487,1.2,4.613.976,5.969a17.73,17.73,0,0,1-1.751,3.958l-3.782,7.629-19.948,40.7-4.42,9.344a37.117,37.117,0,0,0-2.367,5.217l12.469,7.446,2.04,1.583.119-.527-10.817-10.461,38.594-56.234,5.8,66.2.488,1.036,12.988.035c-.668-.594-1.878-.619-2.741-.776l-7.907-1.376-.421-96.908-1.406-72.82,17.587,11.787,35.2-22.647,10.515-6.774a48.932,48.932,0,0,0,6.023-4.022C4418.519,6601.5,4412.468,6604.791,4406.448,6607.656Zm-83.959,51.7-18.644-27.251,17.26-9.585.6.194,7.559,46.766Z" fill="#020202"/>
      </g>
    </g>
    <g id="Group_8" data-name="Group 8" transform="translate(-4158 -5063)">
      <path id="Path_7" data-name="Path 7" d="M5124.43,7022c-29.583-10.4-57.83-19.06-89.53-19.512-31.284-.447-62.954,3.25-93.915-2.885-44.491-8.816-82.14-37.3-119.126-63.632-43.442-30.933-85.993-51.782-139.353-57.3-55.234-5.71-113.09-.535-164.276-22.132-35.612-15.026-65.123-41.985-100.369-57.856-84.413-38.011-171.971-10.021-258.861,21.876V7022Z" fill="#010102"/>
    </g>
    <g id="Group_9" data-name="Group 9" transform="translate(-4158 -5063)">
      <path id="Path_8" data-name="Path 8" d="M5461.551,6630.477c-73.329,1.513-104.944,7.367-151.913,27.727s-92.313,45.213-143.946,54.792c-71.511,13.266-148.007-4.2-218.494,12.481-103.171,24.41-167.11,114.777-267.686,145.87-52.2,16.136-109.958,14.837-163.11,28.606-62.834,16.277-115.057,52.341-171.128,81.138s-123.457,51.191-186.667,35.971V7047H5524V6630.017Z" fill="#fab017"/>
    </g>
    <path id="Path_9" data-name="Path 9" d="M5065.912,6409.245c12.322-.786,24.108,1.046,35.294,6.593a61.117,61.117,0,0,1,32.821,68.249,316.506,316.506,0,0,1-10.08,34.485,69.062,69.062,0,0,0-1.932,7.092c-2.031,8.853.994,15.119,9.183,19.118a51.273,51.273,0,0,0,12.794,4.112c9.971,1.944,19.568,4.961,27.93,10.943,2.316,1.657,3.436.215,4.861-.992,9.692-8.206,19.838-15.765,31.191-21.553,17.936-9.145,36.859-15.622,57.055-15.563,26.4.077,52.443,3.557,77.015,14.228,4.5,1.952,4.552,1.992,5.312-2.707,2.8-17.339,5.467-34.693,9.388-51.838,3.967-17.342,11.236-32.982,23.16-46.229,12.138-13.484,27.864-17.839,45.432-16.734a132.045,132.045,0,0,1,14.163,1.873,6.276,6.276,0,0,0,6.444-2.311,126.629,126.629,0,0,1,20.153-18.423c15.4-11.289,32.8-16.873,51.691-18.061,3.09-.194,6.234.466,9.352.731v26.169c-23.269-3.356-42.937,3.714-59.4,20.333-2.307,2.329-2.347,3.588.449,5.579,12.711,9.053,22.468,20.585,28.046,35.3,8.163,21.534,6.542,41.843-8.956,59.706-8.2,9.449-18.809,14.421-31.64,12.419-13.751-2.146-23.562-10.208-30.253-22.044-7.96-14.081-8.252-29.4-6.025-44.879,1.422-9.881,4.858-19.255,8.26-28.6,1.391-3.823.914-4.581-3.233-4.254a37.907,37.907,0,0,0-16.856,5.743c-14.79,9.031-22.172,23.155-26.538,39.252-5.426,20.008-8.165,40.56-12.23,60.845-.5,2.509.548,4.081,2.463,5.529a223.214,223.214,0,0,1,21.122,18.01c13.513,13.147,25.84,27.251,35.763,43.369,5.483,8.907,11.56,17.475,14.8,27.58h-25.351c-12.636-24.828-29.325-46.437-51-64.062-3.687-3-3.809-2.876-5.565,1.379-.831,2.011-1.647,4.035-2.606,5.987-8.449,17.21-21.3,30.74-35.691,43.067-5.923,5.073-12.784,8.754-18.81,13.629h-44.16a42.8,42.8,0,0,1,4.71-2.366c16.374-5.917,30.423-15.608,43.853-26.451,15.716-12.69,27.068-28.188,32.484-47.834.685-2.486.611-4.018-1.947-5.274-16.445-8.074-33.68-13.325-52.02-14.437-32.177-1.952-61.438,6.567-87.938,24.839-6.529,4.5-6.586,4.424-2.53,10.9.578.923,1.168,1.84,1.792,2.732,11.484,16.4,13.163,34.441,8.959,53.46a12.439,12.439,0,0,0-.519,4.428h-22.08c8.5-17.169,8.138-33.449-4.686-48.6-3.64-4.3-3.508-4.416-7.539-.236-1.32,1.37-2.645,2.735-3.924,4.143-12.237,13.476-21.893,28.713-30.464,44.69h-25.352c3.356-7.193,8.287-13.414,12.519-20.056,9.577-15.026,18.642-30.454,31.055-43.452,2.191-2.293,1.027-2.933-1.136-3.886-9.273-4.085-19.262-5.852-28.812-9.043-14.779-4.937-23.375-16.569-23.474-32.144a71.823,71.823,0,0,1,2.639-19.364c3.822-14.038,8.7-27.813,10.061-42.438,1.252-13.49-2.95-24.553-14-32.878-10.55-7.949-22.263-11.789-35.468-11Zm377.624,81.282c-.723,9.146,3.024,18.791,12.888,25.745,7.723,5.444,15.319,4.679,18.543-6.985,6.241-22.586-1.807-41.135-18.6-56.437-3.549-3.234-4.006-3.1-6.012,1.254C5445.41,6464.827,5443.963,6476.264,5443.536,6490.527Z" transform="translate(-4158 -5063)" fill="#010102"/>
    <path id="Path_10" data-name="Path 10" d="M5443.426,6624.811a166.188,166.188,0,1,1-332.377,0" transform="translate(-4158 -5063)" fill="#d39ac3"/>
    <path id="Path_24" data-name="Path 24" d="M5277.321,6526.524c-.606,11.75-2.255,23.145-11.719,30.785-5.473,4.419-11.445,8.387-17.225,12.493-6.3,4.477-13.268,1.8-16.776-5.178a146.054,146.054,0,0,1-8.154-20.88,149.919,149.919,0,0,0-9.254-23.393c-3.661-7.028-9.046-12.429-15.1-17.373-11.205-9.152-15.3-20.985-12.761-35.189.507-2.839,2.9-2.99,4.767-2.934,3.493.1,4.944-1.473,5.262-4.666.3-3.04,2.1-4.225,5.04-4.892,18.67-4.245,34.561,1.132,47.976,14.118,8.135,7.875,14.131,17.449,19.051,27.645,3.529,7.313,7.541,14.463,8.337,22.779C5276.988,6522.151,5277.152,6524.468,5277.321,6526.524Zm-5.554.348a34.44,34.44,0,0,0-2.436-15.745c-6.289-14.561-13.38-28.574-25.205-39.643-11.322-10.6-24.619-14.108-39.724-11.668-1.848.3-3.413.933-3.134,3.1.256,1.993,2.057,1.594,3.416,1.661,12.473.624,22.464,6.56,30.937,15.123a94.191,94.191,0,0,1,18.479,27.568c3.9,8.551,8.674,16.775,8.532,26.69-.088,6.11-.13,12.163-2.109,18.026-.29.858-.713,1.955.135,2.524,1.1.737,1.908-.3,2.611-1.04a12.872,12.872,0,0,0,1.409-1.825C5269.546,6544.192,5272.288,6536.114,5271.767,6526.872Z" transform="translate(-4158 -5063)" fill="#fab017"/>
    <path id="Path_25" data-name="Path 25" d="M5298.276,6482.479c-6.116-.38-13.942-3.368-21.481-7.639-16.25-9.2-29.654-21.887-42.913-34.723a54.691,54.691,0,0,1-13.6-20.043c-2.158-5.748-1.407-10.79,2.414-15.607,1.913-2.412,3.209-5.3,5-7.824a66.13,66.13,0,0,1,13.636-14.032c3.6-2.767,8.02-1.452,11.473,1.428,7.238,6.038,14.3,12.285,21.545,18.319,10.728,8.937,22.185,16.9,33.6,24.922,8.038,5.648,15.82,11.637,21.835,19.559,4.991,6.573,5.195,13.107.967,18.91-1.237,1.7-3.058,2.39-4.6,3.379-3.664,2.343-5.291,6.561-9.117,8.8C5311.961,6480.892,5306.729,6482.636,5298.276,6482.479Zm30.285-24.893a9.67,9.67,0,0,0-1.659-5.788c-4.661-7.756-11.726-13.058-18.845-18.18-11.316-8.14-23.009-15.764-33.716-24.73q-11.733-9.827-23.324-19.822c-2.613-2.244-5.365-3.053-8.519-1.341-2.028,1.1-2.541,2.31-.491,4.128,6.469,5.735,12.7,11.738,19.252,17.377,11.139,9.593,22.684,18.68,34.521,27.413,9.748,7.191,19.713,14.249,25.845,25.2,1.935,3.457,3.106,3.412,5.566.118A6.07,6.07,0,0,0,5328.561,6457.586Z" transform="translate(-4158 -5063)" fill="#fab017"/>
  </g>
</svg>
