<svg xmlns="http://www.w3.org/2000/svg" width="12.866" height="9.394" viewBox="0 0 12.866 9.394">
  <g id="Group_49" data-name="Group 49" transform="translate(-568.838 -4982.988)">
    <path id="Path_253" data-name="Path 253" d="M580.314,4982.988H570.148a1.4,1.4,0,0,0-1.31,1.3v1.14l5.923,2.373.068.087.107-.037.1.037.145-.087,6.525-2.6v-.915A1.481,1.481,0,0,0,580.314,4982.988Z" fill="#fab017"/>
    <path id="Path_254" data-name="Path 254" d="M575.094,4989.151l-.116-.037-.1.037-.106-.087-5.93-2.373v4.452a1.347,1.347,0,0,0,1.31,1.239h10.166a1.427,1.427,0,0,0,1.39-1.239v-4.678l-6.521,2.6Z" fill="#fab017"/>
  </g>
</svg>
