<svg xmlns="http://www.w3.org/2000/svg" width="26.752" height="26.752" viewBox="0 0 26.752 26.752">
  <g id="Group_337" data-name="Group 337" transform="translate(-1017.256 -237.961)">
    <path id="Rectangle_25" d="M2443.6,4723.961h20.064a3.344,3.344,0,0,1,3.344,3.344v20.064a3.344,3.344,0,0,1-3.344,3.344H2443.6a3.344,3.344,0,0,1-3.344-3.344v-20.064A3.344,3.344,0,0,1,2443.6,4723.961Z" transform="translate(-1423 -4486)" fill="#fab017"/>
    <path id="Shape" d="M2453.958,4743.357a5.685,5.685,0,0,1-.686-11.327,5.768,5.768,0,0,1,.7-.043,5.685,5.685,0,0,1-.015,11.37Zm.008-9a.474.474,0,0,0-.473.474v3.079a.471.471,0,0,0,.139.335l2.368,2.368a.474.474,0,0,0,.669-.67l-2.23-2.23v-2.882A.474.474,0,0,0,2453.966,4734.356Z" transform="translate(-1423 -4486)" fill="#fff"/>
  </g>
</svg>
