<svg xmlns="http://www.w3.org/2000/svg" xmlns:xlink="http://www.w3.org/1999/xlink" width="221.039" height="663.883" viewBox="0 0 221.039 663.883">
  <defs>
    <linearGradient id="linear-gradient" x1="-0.616" y1="-1.525" x2="0.28" y2="-2.244" gradientUnits="objectBoundingBox">
      <stop offset="0" stop-color="#f3f1e0" stop-opacity="0.953"/>
      <stop offset="1"/>
    </linearGradient>
    <linearGradient id="linear-gradient-2" x1="-0.054" y1="-93.547" x2="0.002" y2="-93.611" gradientUnits="objectBoundingBox">
      <stop offset="0" stop-opacity="0.953"/>
      <stop offset="1" stop-color="#f4f2e5"/>
    </linearGradient>
    <linearGradient id="linear-gradient-3" x1="-0.022" y1="-102.112" x2="0.123" y2="-102.442" gradientUnits="objectBoundingBox">
      <stop offset="0" stop-color="#ee8c11"/>
      <stop offset="1" stop-color="#ffab24"/>
    </linearGradient>
  </defs>
  <g id="Group_57" data-name="Group 57" transform="translate(-1400.59 -2169.951)">
    <g id="Group_56" data-name="Group 56">
      <path id="Path_374" data-name="Path 374" d="M1486.644,2609.735a22.487,22.487,0,0,1-5.072,2.162l-.457-.179c-.138-.355-.3-.586-.157-.974a2.936,2.936,0,0,1,.824-.955,16.625,16.625,0,0,1,5.294-3.062l.139-.048-1.595-3.993c-.175-.388-.719-1.15-.7-1.542l7.893-3.268a6.659,6.659,0,0,1,.621,1.914l1.125,4.018c1.826-.681,4.321-1.941,6.3-1.3.371.424.508.45.494,1.031-1.009,1.294-3.392,1.754-4.912,2.091l.921,4.07-.132,0c-1.517-.165-2.9-1.7-3.716-2.842a25.234,25.234,0,0,0-3.106,1.2A23.183,23.183,0,0,0,1486.644,2609.735Z"/>
      <path id="Path_375" data-name="Path 375" d="M1486.644,2609.735a23.183,23.183,0,0,1,3.758-1.669,25.234,25.234,0,0,1,3.106-1.2c.818,1.144,2.2,2.677,3.716,2.842l.132,0c.927.054,1.925-.015,2.606.719a2.185,2.185,0,0,1,.628,1.655c-.195,1.655-1.184,2.586-2.173,3.8a7.365,7.365,0,0,1-1.215,1.355,11.638,11.638,0,0,1-1.709.943l.085,1.929c-.544.248-.9.293-1.172.859l.117,1.211-.251-.069-.252-.706-.209-.061a5.391,5.391,0,0,1-.637.871,1.631,1.631,0,0,1-.635-.87c-.451.226-.892,1.45-1.261,1.937l-.239-.289c.081-.593.275-1.064-.036-1.591l-.3-.033-.055.171-.753,1.876-.494-.72c.143-1.591.833-3.642.63-5.188a16.006,16.006,0,0,0-.882-2.81,2.5,2.5,0,0,1-1.635-.516C1486.633,2613.453,1486.726,2610.83,1486.644,2609.735Z"/>
      <path id="Path_376" data-name="Path 376" d="M1536.007,2593.2l2.005,1.2,1.924,5.858,1.4,5.269c.205.69.049,1.43.248,2.049.309.955,1.111,1.723,1.372,2.712.221.841.093,1.712.29,2.528s.731,1.516.88,2.362c.114.644-.059,1.323.06,1.961.179.953,1.112,1.966,1.2,2.893.067.7-.7,1.58-.415,2.337.273.719.955,1.2,1.227,1.821.333.756-.455,2.307-.192,3.177a7.82,7.82,0,0,0,1.052,1.334c.584.741.24,2.212.507,3.088.127.414.841.87.938,1.276.248,1.034-.241,2.177.123,3.33a3.15,3.15,0,0,1,.857,2.362,4.57,4.57,0,0,0-.06.9,10,10,0,0,0,.986,1.656,3.637,3.637,0,0,1,.252,1.422l.021.169.011.1c.24,1.356.771,2.608,1.1,3.939l.912,3.66c.162.679.209,1.439.433,2.1a24.2,24.2,0,0,1,1.321,3.087,5.119,5.119,0,0,1-.066,1.866,1.905,1.905,0,0,0,0,.635l.11.146a10.753,10.753,0,0,1,1.36,3.245,38.938,38.938,0,0,1,1.235,4.586,40.847,40.847,0,0,0,1.345,6.562,6.016,6.016,0,0,0-2.286.485l-1.309-2.631-.075-.121a28.887,28.887,0,0,0-1.353-4.348c-.355-1.125-.485-2.306-.921-3.412a18.735,18.735,0,0,1-.9-1.764c-.26-.947.158-2.712-.673-3.442l-.918-.763.96-2.28a13.481,13.481,0,0,0-1.765-2.4,9.2,9.2,0,0,1,.47-2.33,6.735,6.735,0,0,0-1.421-2.168,21.683,21.683,0,0,0-.212-2.916c-.171-.734-.893-1.476-1.014-2.176a7.737,7.737,0,0,1,.132-1.528,6.092,6.092,0,0,0-.4-1.21,2.505,2.505,0,0,1-.518-.672,3.044,3.044,0,0,1-.226-2.563c.157-.62-.74-2.167-.868-2.914-.133-.78-.058-1.594-.256-2.362-.179-.691-.591-1.313-.749-1.987-.185-.786-.06-1.634-.245-2.424-.151-.639-.56-1.2-.726-1.842-.2-.758-.107-1.579-.312-2.332-.221-.81-1-1.73-1.123-2.5a4.411,4.411,0,0,1,.141-.889c.219-1.269-1.163-2.417-1.138-3.823a6.2,6.2,0,0,0-.089-1.759c-.256-.886-1.061-1.816-.9-2.759.318-1.9-1.062-2.261-1.432-3.791-.567-2.347-.765-4.828-1.243-7.2-.158-.785-.55-1.5-.726-2.275-.171-.75-.107-1.548-.3-2.291a10.34,10.34,0,0,1-.5-1.818Z"/>
      <path id="Path_377" data-name="Path 377" d="M1539.755,2187.515l-.01-.182c-.052-.837-.59-1.982-.554-2.722.029-.614.56-1.415.653-2.078.095-.681-.251-1.23-.242-1.862.008-.59.607-1.082.756-1.661.38-1.476-.464-3.145.726-4.48a1.154,1.154,0,0,1,1-.454,1.664,1.664,0,0,1,1.224.505,2.4,2.4,0,0,1,.468,1.756,14.556,14.556,0,0,0-.416,2.142c.13.445.547.576.525,1.12a23.354,23.354,0,0,1-.624,2.3c-.1.691.006,1.393-.089,2.08-.155,1.131-.862,2.182-.991,3.309a4.178,4.178,0,0,1,.4,1.88,6.984,6.984,0,0,1-1.152,2.4l-.036.012a2.85,2.85,0,0,0-.247,1.331c.491,1.552-.408,2.194-.456,3.592-.018.524-66.627,375.7-66.683,376.113a5.944,5.944,0,0,1-.475,1.074,3.6,3.6,0,0,0-.33,3.177c.45,1.462-1.8,3.545-1.6,4.348a9.419,9.419,0,0,0,1.247,1.576c-.828,1.284-2.05,2.789-1.7,4.415a14.08,14.08,0,0,1,.607,1.624,16.525,16.525,0,0,1-1.156,2.447,111.151,111.151,0,0,1-.737,6.752,11.407,11.407,0,0,0,.934,2.177c.369.822-.36,2.505-.691,3.3l-.214.488-.638-.106c-.387.656-.2,1.251-.262,1.992-.085.961-.325,1.861-.348,2.853a55.79,55.79,0,0,0-.971,5.855c-.067.687.08,1.412-.016,2.089-.1.724-.536,1.388-.607,2.1-.069.683.405,1.51.326,2.094-.11.808-.816,1.595-.906,2.478-.088.847.535,1.414.57,2.109.031.6-.74,1.76-.833,2.468-.1.732.478,1.6.366,2.267-.151.906-1.01,1.838-1.133,2.768-.084.636.529,1.436.471,2.012a11.074,11.074,0,0,1-.948,2.017c-.474,1.02.455,2.418-.059,3.675a7.523,7.523,0,0,0-.694,2.126c-.055.693.106,1.406,0,2.1-.157,1.024-.762,1.948-.891,2.974-.086.686.042,1.38-.021,2.067-.078.857-.35,1.712-.456,2.576-.1.837-.024,1.675-.11,2.51-.091.879-.488,1.715-.57,2.593-.063.681.1,1.38.029,2.048-.1.862-.688,1.719-.729,2.566-.035.719.3,1.438.235,2.165-.1,1.021-.387,2.054-.526,3.076l-1.415,10.316c-.151,1.177.112,2.378,0,3.554-.09.926-.49,1.795-.569,2.727-.088,1.048.316,2.09.207,3.112a18.232,18.232,0,0,0-.481,3.823l-2.152,2.853a5.646,5.646,0,0,1-1.422,1.667l.072-.241.1-.369c.417-1.3-.582-2.707-.134-3.734a7.614,7.614,0,0,0,.6-1.362c.094-.637-.823-1.927-.694-2.607a24.243,24.243,0,0,1,1.425-2.607c.274-.675-.614-1.727-.543-2.36.107-.955.912-2,1.067-3.021.15-.985-.008-2.028.07-3.024.094-1.217.477-2.427.509-3.644.023-.909-.2-1.864-.118-2.764a8.771,8.771,0,0,1,.653-2.119,4.1,4.1,0,0,0,.259-.681,14.67,14.67,0,0,0-.832-1.627c-.317-.817.52-1.759.91-2.474a4.267,4.267,0,0,0,.312-.569c-.026-.5-.374-.987-.37-1.533.008-1.074,1.2-2.1,1.271-3.058.034-.447-.589-1.338-.689-1.82-.2-.989,1.051-2.419,1.055-3.374,0-.625-.717-1.351-.53-2.074.213-.823,1.164-1.76,1.279-2.45.194-1.162-.6-2.13-.047-3.427.658-1.556.274-2.829.659-4.357a23.179,23.179,0,0,0,.954-2.466c.051-.583-.467-1.386-.463-1.991a22.106,22.106,0,0,1,.739-2.349c.17-1.013-.155-2.062.117-3.076.186-.691.733-1.45.857-2.111.152-.808-.463-1.975-.329-2.917.321-2.248.947-4.479,1.164-6.75.191-1.99.012-3.993.314-5.983.18-1.185.937-2.212,1.076-3.322.191-1.525.058-3.045.3-4.592a9.7,9.7,0,0,1-1.694-1.641,1.8,1.8,0,0,1-.42-1.526,3.078,3.078,0,0,0,1.623-1.311,11.182,11.182,0,0,0,1.163-1.949c.428-1.361.27-3.189.459-4.63.192-1.464.576-2.911.738-4.37a6.941,6.941,0,0,1,.367-2.695c.59-1.147.346-1.979.446-3.181.065-.784.431-1.514.531-2.289.139-1.084-.029-2.237.158-3.307.115-.661,1.054-1.681,1.073-2.175.023-.573-.826-1.446-.78-2.083s68.029-375.661,68.143-376.269a15.142,15.142,0,0,0-.211-1.984,4.873,4.873,0,0,0,.349-5.29C1538.4,2189.182,1539.323,2188.206,1539.755,2187.515Z"/>
      <path id="Path_378" data-name="Path 378" d="M1517.671,2562.787l.273.652.474-.164.774.474a2.862,2.862,0,0,1,1.486.852,31.5,31.5,0,0,0,1.876,6.676,23.391,23.391,0,0,0,3.084,4.614c2.176,2.788,4.612,5.74,7.6,7.686a46.3,46.3,0,0,0,7.726,3.625c2.387.978,4.788,2.051,7.242,2.846,5.867,1.9,13.1,2.875,19.191,1.541,5.111-1.12,11.582-3.667,14.5-8.291a6.084,6.084,0,0,0,.727-1.614,9.319,9.319,0,0,0,.614-3.488,18.043,18.043,0,0,1-.733-4.225l.6-.655a15.06,15.06,0,0,1,2.752,11.158,16.337,16.337,0,0,1-6.342,10.358c-3.346,2.333-7.272,3.289-11.234,3.906a48.406,48.406,0,0,1-16.631-.093,41.528,41.528,0,0,1-6.755-1.676c-2.251-.822-4.517-2.22-6.892-2.568l-2.005-1.2-.054-.039c-.924-.622-1.939-1.326-3.067-1.106l.162-.6-2.338-1.3c-.441-.631-1.5-.89-2.212-1.159a28.177,28.177,0,0,1-4.745-2.7,25.431,25.431,0,0,1-6.687-8.063,16.984,16.984,0,0,1-2.282-6.139,10.4,10.4,0,0,1,.359-3.131C1515.641,2566.548,1516.07,2564.756,1517.671,2562.787Z"/>
      <path id="Path_379" data-name="Path 379" d="M1543.5,2592.6l5.953,1.8,3.366.818,0,.009a1.333,1.333,0,0,0-.387.7,6.378,6.378,0,0,1-3.423-.916c-.982-.21-2-.389-2.959-.694-1.017-.323-1.97-.784-3.005-1.071A1.259,1.259,0,0,0,1543.5,2592.6Z"/>
      <path id="Path_380" data-name="Path 380" d="M1552.818,2595.225c6.584,1.138,13.628,1.558,20.045-.7l.13.215c-1.008,1.368-4.009,1.363-5.505,2.092-.938.457-1.5.21-2.488.258-1.114.054-2.216.191-3.335.156a54.46,54.46,0,0,1-9.234-1.321A1.333,1.333,0,0,1,1552.818,2595.225Z"/>
      <path id="Path_381" data-name="Path 381" d="M1517.944,2563.439l.474-.164.774.474a11.055,11.055,0,0,0,.9,8.833l.541.966c.952,1.4,1.875,2.853,2.915,4.183.907,1.158,1.951,2.218,2.91,3.334A58.7,58.7,0,0,0,1543.5,2592.6a1.259,1.259,0,0,1-.458.642c-1.825-.171-3.419-1.217-5.048-1.986a26.457,26.457,0,0,1-4.159-2.12,25.349,25.349,0,0,1-2.211-2.116l-5.656-5.27a32.818,32.818,0,0,1-5.688-7.769,19.129,19.129,0,0,0-1.2-2.018A13.037,13.037,0,0,1,1517.944,2563.439Z"/>
      <path id="Path_382" data-name="Path 382" d="M1519.192,2563.749a2.862,2.862,0,0,1,1.486.852,31.5,31.5,0,0,0,1.876,6.676,23.391,23.391,0,0,0,3.084,4.614c2.176,2.788,4.612,5.74,7.6,7.686a46.3,46.3,0,0,0,7.726,3.625c2.387.978,4.788,2.051,7.242,2.846,5.867,1.9,13.1,2.875,19.191,1.541,5.111-1.12,11.582-3.667,14.5-8.291a6.084,6.084,0,0,0,.727-1.614,9.319,9.319,0,0,0,.614-3.488c.756.905.66,3.052.547,4.229-.313,3.232-1.47,6.535-4.06,8.6a24.263,24.263,0,0,1-6.866,3.5c-6.417,2.258-13.461,1.838-20.045.7l0-.009-3.366-.818-5.953-1.8a58.7,58.7,0,0,1-17.048-11.537c-.959-1.116-2-2.176-2.91-3.334-1.04-1.33-1.963-2.787-2.915-4.183l-.541-.966A11.055,11.055,0,0,1,1519.192,2563.749Z"/>
      <path id="Path_383" data-name="Path 383" d="M1520.678,2564.6a7.3,7.3,0,0,0,1.053-.064,29.827,29.827,0,0,1,2.546,2.1,19.294,19.294,0,0,1,2.444,1.437,4.943,4.943,0,0,0,.971.42l.142.159,12.108,3.884,8.22,1.707c7.839,1.279,15.739,3,23.73,3,1.468,0,2.882-.215,4.338-.313l2.758-.836a14.659,14.659,0,0,0,3.521-2.127,18.043,18.043,0,0,0,.733,4.225,9.319,9.319,0,0,1-.614,3.488,6.084,6.084,0,0,1-.727,1.614c-2.918,4.624-9.389,7.171-14.5,8.291-6.087,1.334-13.324.358-19.191-1.541-2.454-.8-4.855-1.868-7.242-2.846a46.3,46.3,0,0,1-7.726-3.625c-2.992-1.946-5.428-4.9-7.6-7.686a23.391,23.391,0,0,1-3.084-4.614A31.5,31.5,0,0,1,1520.678,2564.6Z"/>
      <path id="Path_384" data-name="Path 384" d="M1524.277,2566.637a19.294,19.294,0,0,1,2.444,1.437l-.634.494c.288,2.4,5.813,6.678,7.8,8.251a32.743,32.743,0,0,0,6.672,4.215,53.811,53.811,0,0,0,12.624,3.511c3.609.656,7.134,1.3,10.809.857,4.277-.511,10.873-2.009,13.618-5.567a6.071,6.071,0,0,0,1.374-3.737,14.659,14.659,0,0,0,3.521-2.127,18.043,18.043,0,0,0,.733,4.225,9.319,9.319,0,0,1-.614,3.488c-.755-.927-.4-2.791-1.444-3.809l-.2.151.03.829-.267.21a1.69,1.69,0,0,0-.667-.23c-1.126-.06-1.715,1.535-2.424,2.2-.5.47-1.166.78-1.708,1.2-.42.328-.775.734-1.19,1.068a14.1,14.1,0,0,1-4.829,2.224,33.356,33.356,0,0,1-13.824.936,57.6,57.6,0,0,1-13.7-3.563,32.672,32.672,0,0,1-4.67-2.121,45.812,45.812,0,0,1-5.457-4.12,34.552,34.552,0,0,1-5.962-5.9C1525.645,2569.873,1524.121,2567.705,1524.277,2566.637Z"/>
      <path id="Path_385" data-name="Path 385" d="M1526.721,2568.074a4.943,4.943,0,0,0,.971.42l.142.159c.44.974,1.471,1.412,2.278,2.115,1.179,1.025,2.207,2.245,3.432,3.2a27.184,27.184,0,0,0,5.822,3.063c1.121.508,2.192,1.135,3.341,1.577a41.618,41.618,0,0,0,6.971,2.171c2.065.389,4.285.467,6.381.653,5.559.494,11.162.589,16.372-1.79a8.958,8.958,0,0,0,3.8-2.713l2.758-.836a6.071,6.071,0,0,1-1.374,3.737c-2.745,3.558-9.341,5.056-13.618,5.567-3.675.439-7.2-.2-10.809-.857a53.811,53.811,0,0,1-12.624-3.511,32.743,32.743,0,0,1-6.672-4.215c-1.991-1.573-7.516-5.846-7.8-8.251Z"/>
      <path id="Path_386" data-name="Path 386" d="M1527.834,2568.653l12.108,3.884,8.22,1.707c7.839,1.279,15.739,3,23.73,3,1.468,0,2.882-.215,4.338-.313a8.958,8.958,0,0,1-3.8,2.713c-5.21,2.379-10.813,2.284-16.372,1.79-2.1-.186-4.316-.264-6.381-.653a41.618,41.618,0,0,1-6.971-2.171c-1.149-.442-2.22-1.069-3.341-1.577a27.184,27.184,0,0,1-5.822-3.063c-1.225-.96-2.253-2.18-3.432-3.2C1529.305,2570.065,1528.274,2569.627,1527.834,2568.653Z"/>
      <path id="Path_387" data-name="Path 387" d="M1539.942,2572.537l8.22,1.707a2.254,2.254,0,0,1-1.244.7c-.781.22-2.4-.541-3.1-.891-.492-.248-.622-.174-1.118-.017a10.61,10.61,0,0,1-2.8-1.224Z"/>
      <path id="Path_388" data-name="Path 388" d="M1538.052,2541.511l-.091.413.127.118a3.025,3.025,0,0,1,.739.894,6.143,6.143,0,0,1-1.049,2.559,61.763,61.763,0,0,1,5.789-2.744,22.689,22.689,0,0,1,14.129-.179,20.791,20.791,0,0,1,11.382,9.968,23.136,23.136,0,0,1,1.822,7.422c3.675-.884,6.437-.658,9.707,1.353,1.87,1.15,3.841,2.6,4.393,4.846a8.238,8.238,0,0,1-1.344,6.315l-.542.84-.6.655a14.659,14.659,0,0,1-3.521,2.127l-2.758.836c-1.456.1-2.87.314-4.338.313-7.991-.005-15.891-1.724-23.73-3l-8.22-1.707-12.108-3.884-.142-.159a4.943,4.943,0,0,1-.971-.42,19.294,19.294,0,0,0-2.444-1.437,29.827,29.827,0,0,0-2.546-2.1,7.3,7.3,0,0,1-1.053.064,2.862,2.862,0,0,0-1.486-.852l-.774-.474-.474.164-.273-.652a5.464,5.464,0,0,1,1.412-1.088,14.837,14.837,0,0,1-2.269-3.522,6.7,6.7,0,0,1,1.872-4c1.761-2.149,3.663-2.421,6.3-2.677,2.607-.253,5.628-.208,7.739,1.56l.147.125a27.62,27.62,0,0,0,1.787-3.734,3.652,3.652,0,0,0,.289-.833c-.065-.534-.472-1.116-.558-1.714l-.014-.116a6.164,6.164,0,0,0,.31-2.426,2.766,2.766,0,0,1,.326-2,4.072,4.072,0,0,0,.327-.757" fill="#f0ebd5"/>
      <path id="Path_389" data-name="Path 389" d="M1519.083,2561.7a27.04,27.04,0,0,0,2.648,2.838,7.3,7.3,0,0,1-1.053.064,2.862,2.862,0,0,0-1.486-.852l-.774-.474-.474.164-.273-.652A5.464,5.464,0,0,1,1519.083,2561.7Z"/>
      <path id="Path_390" data-name="Path 390" d="M1546.856,2566.857l.248-.69-.221-.326-1.387.038c-.258-.484-.017-.958.1-1.482a1.568,1.568,0,0,1,.869-.053,1.538,1.538,0,0,1,.208-1.313l.3.065a9.853,9.853,0,0,1,.7,3.272l-.454.66c.271.365.645.405,1.042.6l.436.395c.247-.1.711-.344.946-.286l2.068.4a3.618,3.618,0,0,0-.058,2l.255.161.1.047a2.5,2.5,0,0,0,1.52.027l.182.242c-.444.435-.754.25-1.143.525-.165.117-.247.53-.409.665-.055.045-2.292.845-2.357.841-.516-.034-.83-.424-1.357-.152l-.374.311a2.737,2.737,0,0,1-1.425-.2,20.842,20.842,0,0,1-5.423-1.5c-.525-.23-1-.625-1.518-.827a2.215,2.215,0,0,0-1.512.2l-.154.095c-1.06-.575-2.064-1.378-3.115-1.907-.426-.214-.922-.2-1.383-.418l.06-.269c.728-.482,1.82-.2,2.7-.433l.208-.058a6.447,6.447,0,0,1,1.07.412c.148.1.323.59.464.649.118.049.254-.027.381-.041l.874-1.029,1.863,2a5.474,5.474,0,0,0,.948-.053c.652-.189.427-.7,1.175-.036l.244.223a1.405,1.405,0,0,0,.994-.3,3.836,3.836,0,0,1-.292-.994c-.07-.471.575-1.2.85-1.578A1.909,1.909,0,0,1,1546.856,2566.857Z" fill="#f0ebd5"/>
      <path id="Path_391" data-name="Path 391" d="M1592.249,2732.581l.123-.129c1.725-1.834,2.811-4.1,4.181-6.182a46.182,46.182,0,0,1,5.891-7.115c.742-.755,1.686-1.966,2.8-2.062.479.272.474.322.68.84a6.16,6.16,0,0,1-.423,1.892c-.6,1.6-1.6,3.034-2.223,4.639-1.408,3.614-2.334,7.469-4.251,10.876a32.578,32.578,0,0,1-2.116,3.241c-.456.621-1.458,1.567-1.512,2.295l1.5-1.732c.3-.384.563-.892,1.086-.972a3.539,3.539,0,0,1,1.148.112c1.124-.518,2.023-1.922,2.931-2.787l3.217-2.778a51.438,51.438,0,0,1,6.128-5.136c.946-.628,1.751-1.346,2.928-1.03.469,1.338-.144,2.822-.725,4.034-2.155,4.5-6.2,6.818-9.176,10.62-2.83,3.619-5.023,7.8-7.6,11.613l3.07-2.481.157-.143a1.3,1.3,0,0,1,.586-.234c.157-.046.283-.1.445-.143.354-.085.743-.527,1.021-.77,2.79-3.405,10.033-9.647,14.472-10.1a15.273,15.273,0,0,1,4.579.025c.355.47.481.515.456,1.123-.869,1.746-3.327,2.911-4.788,4.223-2.218,1.994-4.163,4.377-6.353,6.428a7.264,7.264,0,0,0,2.165-.075,3.215,3.215,0,0,1,.751-.074c.589.363.645.742,1.323.6,1.855-.381,3.658-2.293,5.653-1.22a1.334,1.334,0,0,1,.642.863,1.407,1.407,0,0,1-.046.684c-.95,1.211-2.495,2.1-3.612,3.2a80.637,80.637,0,0,1-9.97,8.978c-1.521,1.067-3.208,1.885-4.79,2.858-1.349.83-2.577,1.889-3.855,2.824-1.245.911-2.585,1.726-3.747,2.741a49.865,49.865,0,0,0-7.074,7.856c-1.664,2.281-3.084,4.647-4.889,6.837l-.159.141c-1.127,1.017-1.969,2.286-3,3.394-1.212,1.3-2.637,2.411-3.791,3.765-.893,1.05-1.6,2.257-2.472,3.324-1.876,2.283-4.011,4.308-6.044,6.443a46.971,46.971,0,0,1-5.631,5.651,37.4,37.4,0,0,1-6.505,3.449,23.493,23.493,0,0,1-5.573,2.063,26.424,26.424,0,0,1-3.344.217,19.628,19.628,0,0,1-1.957.172,17.51,17.51,0,0,1-6.617-1.824,8.186,8.186,0,0,1-1.127-1.226c-1.528-2.165-1.256-4.959-.819-7.452a20.846,20.846,0,0,1,1.868-5.159c3.6-7.623,9.506-13.41,16.291-18.244,6.035-4,10.883-10.072,15.058-15.924a5.092,5.092,0,0,1,1.143-1.578c.563-.7,1.057-1.469,1.563-2.211l5.046-7.42c.788-1.192,1.423-2.476,2.29-3.619A12.017,12.017,0,0,1,1581,2749a6.387,6.387,0,0,0,1.377-1.239,47.305,47.305,0,0,0,3.728-4.644,53.73,53.73,0,0,0,3.429-4.673A28.959,28.959,0,0,0,1592.249,2732.581Zm-17.564,52.129c-1.95,4.246-5.775,8.1-8.768,11.692-2.456,2.945-4.935,6.377-7.94,8.775l.109.726a24.07,24.07,0,0,0,2.5-2.126,79.387,79.387,0,0,0,8.155-9.039l4.272-4.97,9.144-11.684,5.126-5.835a79.05,79.05,0,0,1,7.655-7.982c1.788-1.544,3.633-3.055,5.553-4.433,1.03-.739,2.147-1.371,3.146-2.15l.091-.072c.23-.726.7-.959,1.331-1.3.447-.243.48-.481,1.024-.636-.2-.185-.44.134-.652.094-.189-.035-.418-.334-.612-.391a3.375,3.375,0,0,0-.711,0c-2.1,1.331-4.3,2.611-6.292,4.1a83.12,83.12,0,0,0-7.343,6.458,94.533,94.533,0,0,0-9.005,9.5Zm-14.589-.122a6.742,6.742,0,0,1-.482,1.047l.128.077c.2.126.127.075.3.275l8.878-7.793c1.384-1.241,2.865-2.472,4.145-3.816a63.783,63.783,0,0,0,4.084-5.257c1.012-1.312,2.215-2.467,3.21-3.79a96.534,96.534,0,0,0,6.4-10.208,39.13,39.13,0,0,0,3.661-4.814l-.165-.27a4.018,4.018,0,0,0,.4-1.8v-.035a7.3,7.3,0,0,1,1.543-1.933l.217-.2a3.144,3.144,0,0,0,1.062-2.22,2.1,2.1,0,0,0-.8.068l-.041.145a9.843,9.843,0,0,1-1.364,1.755l.136.209-.189.146-.186-.04c-2.9,3.838-5.953,7.676-8.6,11.692-2.222,3.371-3.912,6.859-6.492,10.021-1.068,1.309-2.365,2.33-3.5,3.569-2.25,2.454-4.255,5.015-6.622,7.385A80.9,80.9,0,0,0,1560.1,2784.588Zm36.805-45.444-1.5,1.732-1.923,2.977a3.144,3.144,0,0,1-1.062,2.22l-.217.2a7.3,7.3,0,0,0-1.543,1.933v.035a4.018,4.018,0,0,1-.4,1.8l.165.27.283-.311,8.4-11.149c.13-.166.087-.06.057-.336A3.217,3.217,0,0,0,1596.9,2739.144Zm12.746,12.316c-1.972,1.072-3.627,2.731-5.542,3.916a3.375,3.375,0,0,1,.711,0c.194.057.423.356.612.391.212.04.455-.279.652-.094-.544.155-.577.393-1.024.636-.632.344-1.1.577-1.331,1.3,3.4-1.805,6.425-4.645,10.109-5.945l.2-.067a1.359,1.359,0,0,0-.251-.331c-.334-.38-1.223-.048-1.712-.09l-.476-.032A13.148,13.148,0,0,0,1609.647,2751.46Zm-27.083,17.42,1.834-.946c.034-.3.389-.556.6-.788l2.421-2.515a7.262,7.262,0,0,1,.727-1.728,9.776,9.776,0,0,1,.75-1.147,8.246,8.246,0,0,0,1.1-1.194c.456-.758,1.305-.944,1.54-1.835l-.248-.02a10.02,10.02,0,0,1-1.65,1.774,11.8,11.8,0,0,0-1.583,1.629,39.223,39.223,0,0,0-5.586,6.513Z" fill="#fab017"/>
      <path id="Path_392" data-name="Path 392" d="M1609.647,2751.46a13.148,13.148,0,0,1,1.947-.313l.476.032c.489.042,1.378-.29,1.712.09a1.359,1.359,0,0,1,.251.331l-.2.067c-3.684,1.3-6.713,4.14-10.109,5.945.23-.726.7-.959,1.331-1.3.447-.243.48-.481,1.024-.636-.2-.185-.44.134-.652.094-.189-.035-.418-.334-.612-.391a3.375,3.375,0,0,0-.711,0C1606.02,2754.191,1607.675,2752.532,1609.647,2751.46Z"/>
      <path id="Path_393" data-name="Path 393" d="M1596.9,2739.144a3.217,3.217,0,0,1,2.259-.631c.03.276.073.17-.057.336L1590.7,2750l-.283.311-.165-.27a4.018,4.018,0,0,0,.4-1.8v-.035a7.3,7.3,0,0,1,1.543-1.933l.217-.2a3.144,3.144,0,0,0,1.062-2.22l1.923-2.977Z"/>
      <path id="Path_394" data-name="Path 394" d="M1560.044,2785.987c-2.786,2.492-5.934,4.673-8.439,7.46A97.164,97.164,0,0,0,1545,2801.7c-1.194,1.66-2.2,3.4-3.541,4.962a25.109,25.109,0,0,1,4.752-8.438,65.466,65.466,0,0,1,7.01-7.791c1.179-1.095,2.476-2.006,3.716-3.023l3.163-2.817a6.742,6.742,0,0,1-.482,1.047l.128.077C1559.94,2785.838,1559.869,2785.787,1560.044,2785.987Z" fill="#f4eee0"/>
      <path id="Path_395" data-name="Path 395" d="M1584.4,2767.934a10.683,10.683,0,0,1-2.025,2.631l-5.109,5.816a64.524,64.524,0,0,0-5.141,5.811l-21.459,21.355-4.392,4.389a7.368,7.368,0,0,0-1.722,1.916,3.17,3.17,0,0,0,2.308.488c4.133-.385,7.856-2.715,11.119-5.163l.109.726-.012.025a19.569,19.569,0,0,1-12.7,5.425c-1.308.062-2.707.173-3.728-.751a1.613,1.613,0,0,1,.608-1.086c1.243-1.156,2.905-2.023,4.253-3.082a56.034,56.034,0,0,0,5.391-5.183l8.227-7.849,12.868-13.95,4.674-4.964c1.364-1.539,2.6-3.221,3.867-4.841.132.237.057.144.207.293a2.489,2.489,0,0,0,.821-1.06Z" fill="#f4eee0"/>
      <path id="Path_396" data-name="Path 396" d="M1560.1,2784.588a80.9,80.9,0,0,1,5.719-5.785c2.367-2.37,4.372-4.931,6.622-7.385,1.135-1.239,2.432-2.26,3.5-3.569,2.58-3.162,4.27-6.65,6.492-10.021,2.647-4.016,5.7-7.854,8.6-11.692l.186.04.189-.146-.136-.209a9.843,9.843,0,0,0,1.364-1.755l.041-.145a2.1,2.1,0,0,1,.8-.068,3.144,3.144,0,0,1-1.062,2.22l-.217.2a7.3,7.3,0,0,0-1.543,1.933v.035a4.018,4.018,0,0,1-.4,1.8l.165.27a39.13,39.13,0,0,1-3.661,4.814,96.534,96.534,0,0,1-6.4,10.208c-.995,1.323-2.2,2.478-3.21,3.79a63.783,63.783,0,0,1-4.084,5.257c-1.28,1.344-2.761,2.575-4.145,3.816l-8.878,7.793c-.175-.2-.1-.149-.3-.275l-.128-.077A6.742,6.742,0,0,0,1560.1,2784.588Zm30.556-36.351a6.733,6.733,0,0,0-.623,1.406,3.441,3.441,0,0,1-.728,1.207l-.1.127a2.328,2.328,0,0,1-.49.451l-.093.082c-.153.126-.1.076-.317.181a2.114,2.114,0,0,0-.949,1.281l-.1.349a7.473,7.473,0,0,1-.7,1.489l.207.313a39.13,39.13,0,0,0,3.661-4.814l-.165-.27A4.018,4.018,0,0,0,1590.652,2748.237Z" fill="url(#linear-gradient)"/>
      <path id="Path_397" data-name="Path 397" d="M1590.652,2748.237a4.018,4.018,0,0,1-.4,1.8l.165.27a39.13,39.13,0,0,1-3.661,4.814l-.207-.313a7.473,7.473,0,0,0,.7-1.489l.1-.349a2.114,2.114,0,0,1,.949-1.281c.216-.1.164-.055.317-.181l.093-.082a2.328,2.328,0,0,0,.49-.451l.1-.127a3.441,3.441,0,0,0,.728-1.207A6.733,6.733,0,0,1,1590.652,2748.237Z"/>
      <path id="Path_398" data-name="Path 398" d="M1574.685,2784.71l6.78-9.275a94.533,94.533,0,0,1,9.005-9.5,83.12,83.12,0,0,1,7.343-6.458c1.994-1.488,4.189-2.768,6.292-4.1a3.375,3.375,0,0,1,.711,0c.194.057.423.356.612.391.212.04.455-.279.652-.094-.544.155-.577.393-1.024.636-.632.344-1.1.577-1.331,1.3l-.091.072c-1,.779-2.116,1.411-3.146,2.15-1.92,1.378-3.765,2.889-5.553,4.433a79.05,79.05,0,0,0-7.655,7.982l-5.126,5.835-9.144,11.684-4.272,4.97a79.387,79.387,0,0,1-8.155,9.039,24.07,24.07,0,0,1-2.5,2.126l-.109-.726c3.005-2.4,5.484-5.83,7.94-8.775C1568.91,2792.815,1572.735,2788.956,1574.685,2784.71Z" fill="url(#linear-gradient-2)"/>
      <path id="Path_399" data-name="Path 399" d="M1572.123,2782.192l.162-.044c1.021-.307,1.515-1.1,2.377-1.636a11.784,11.784,0,0,0-1.3,3.184l1.323,1.014c-1.95,4.246-5.775,8.1-8.768,11.692-2.456,2.945-4.935,6.377-7.94,8.775-3.263,2.448-6.986,4.778-11.119,5.163a3.17,3.17,0,0,1-2.308-.488,7.368,7.368,0,0,1,1.722-1.916l4.392-4.389Z" fill="#fab017"/>
      <path id="Path_400" data-name="Path 400" d="M1602.119,2749.049c2.79-3.405,10.033-9.647,14.472-10.1a15.273,15.273,0,0,1,4.579.025c.355.47.481.515.456,1.123-.869,1.746-3.327,2.911-4.788,4.223-2.218,1.994-4.163,4.377-6.353,6.428a7.792,7.792,0,0,0-.838.708c-1.972,1.072-3.627,2.731-5.542,3.916-2.1,1.331-4.3,2.611-6.292,4.1a83.12,83.12,0,0,0-7.343,6.458,94.533,94.533,0,0,0-9.005,9.5l-6.78,9.275-1.323-1.014a11.784,11.784,0,0,1,1.3-3.184c-.862.539-1.356,1.329-2.377,1.636l-.162.044a64.524,64.524,0,0,1,5.141-5.811l5.109-5.816a10.683,10.683,0,0,0,2.025-2.631c.034-.3.389-.556.6-.788l2.421-2.515c.786-.229,1.8-1.539,2.413-2.137l5.1-4.832a16.038,16.038,0,0,1,1.5-1.474l.124-.049c.362-.167.761-.869,1.025-1.19.983-1.194,2.683-2.577,3.179-4.033C1600.96,2750.327,1601.839,2749.767,1602.119,2749.049Z" fill="url(#linear-gradient-3)"/>
      <path id="Path_401" data-name="Path 401" d="M1516.123,2716.537a28.855,28.855,0,0,1,8.073-1.649,39.614,39.614,0,0,1,4.267.326c1.2.074,2.393,0,3.594.118a82.445,82.445,0,0,1,16.681,3.508,49.261,49.261,0,0,1,7.271,2.679l5.923,3.184a26.642,26.642,0,0,1,3.664,1.984c1.848,1.406,3.315,3.584,4.865,5.326,2.335,2.624,5.225,5.164,7.05,8.164A38.534,38.534,0,0,1,1581,2749a12.017,12.017,0,0,0-1.74,1.792c-.867,1.143-1.5,2.427-2.29,3.619l-5.046,7.42c-.506.742-1,1.511-1.563,2.211a5.092,5.092,0,0,0-1.143,1.578c-4.175,5.852-9.023,11.929-15.058,15.924-6.785,4.834-12.694,10.621-16.291,18.244a20.846,20.846,0,0,0-1.868,5.159c-.437,2.493-.709,5.287.819,7.452a8.186,8.186,0,0,0,1.127,1.226,17.51,17.51,0,0,0,6.617,1.824,19.628,19.628,0,0,0,1.957-.172,26.424,26.424,0,0,0,3.344-.217,23.493,23.493,0,0,0,5.573-2.063,37.4,37.4,0,0,0,6.505-3.449,46.971,46.971,0,0,0,5.631-5.651c2.033-2.135,4.168-4.16,6.044-6.443.876-1.067,1.579-2.274,2.472-3.324,1.154-1.354,2.579-2.463,3.791-3.765,1.031-1.108,1.873-2.377,3-3.394l.159-.141c-.41,2.924-.689,5.923-1.288,8.813-1.286,6.2-4.239,11.987-7.31,17.467-3.082,5.5-7.671,8.676-12.97,11.856a84.594,84.594,0,0,1-7.633,4.305,72.4,72.4,0,0,1-11.252,3.884,21.874,21.874,0,0,1-6.8.642c-3.875-.256-7.932-1.377-11.743-2.152-2.679-.546-5.455-.9-8.087-1.633a29.347,29.347,0,0,1-6.764-2.628,32.624,32.624,0,0,1-5.364-4.295c-1.224-1.131-2.575-2.135-3.761-3.3l-3.5-3.726c-1.267-1.224-2.883-1.983-4.133-3.229-1.779-1.772-3.445-3.749-5.059-5.67a41.513,41.513,0,0,1-2.795-3.434,53.558,53.558,0,0,1-3.8-7.349c-2.161-4.638-4.514-9.545-5.667-14.538a33.066,33.066,0,0,1-.656-5.594,17.955,17.955,0,0,0-.329-3.746l-.062-.228.343.138a28.705,28.705,0,0,1-.486-4.356,29.814,29.814,0,0,1,.582-4.843c.43-2.037.307-4.1.73-6.1a37.994,37.994,0,0,1,1.445-5.694c.782-1.985,1.894-3.834,2.658-5.834.648-1.695,1.009-3.492,1.707-5.17,1.472-3.538,4.068-5.858,6.833-8.365,1.59-1.442,3.032-3.068,4.695-4.426,4.629-3.778,10.363-6.187,15.857-8.439l-.637,7.946a2.237,2.237,0,0,0,.461,1.783,34.9,34.9,0,0,1,6.816,2.271c.656.275,2.521.914,3.2.561.293-.152.489-1.147.6-1.493a28.04,28.04,0,0,0-5.809-3.978Zm0,0-3.056,9.73a28.04,28.04,0,0,1,5.809,3.978c-.11.346-.306,1.341-.6,1.493-.68.353-2.545-.286-3.2-.561a34.9,34.9,0,0,0-6.816-2.271,2.237,2.237,0,0,1-.461-1.783l.637-7.946c-5.494,2.252-11.228,4.661-15.857,8.439-1.663,1.358-3.1,2.984-4.695,4.426-2.765,2.507-5.361,4.827-6.833,8.365-.7,1.678-1.059,3.475-1.707,5.17-.764,2-1.876,3.849-2.658,5.834a37.994,37.994,0,0,0-1.445,5.694c-.423,2-.3,4.065-.73,6.1a29.814,29.814,0,0,0-.582,4.843,28.705,28.705,0,0,0,.486,4.356c1.366,3.838,1.335,8.216,2.433,12.178a67.66,67.66,0,0,0,6.561,14.991c.629,1.1,1.141,2.279,1.8,3.368a38,38,0,0,0,5.2,6.69,10.723,10.723,0,0,0,2.809,2.357l1.726.583c-2.3-3.954-4.8-7.926-6.2-12.318a35.8,35.8,0,0,1-1.283-11.065,41.358,41.358,0,0,1,1.174-9.843,54.45,54.45,0,0,1,3.063-7.772c.736-1.69,1.316-3.463,2.132-5.116a35.237,35.237,0,0,1,13.345-14.788,59.656,59.656,0,0,1,12.262-5c1.355-.432,2.651-1.035,4.019-1.432a33.5,33.5,0,0,1,8.407-1.449,32.661,32.661,0,0,1,7.263.94l5.675,1.249a51.6,51.6,0,0,1,9.395,3.238A35.427,35.427,0,0,1,1567.7,2762.2a17.549,17.549,0,0,1,1.509,3.418,5.092,5.092,0,0,1,1.143-1.578c.563-.7,1.057-1.469,1.563-2.211l5.046-7.42c.788-1.192,1.423-2.476,2.29-3.619A12.017,12.017,0,0,1,1581,2749a38.534,38.534,0,0,0-3.485-8.818c-1.825-3-4.715-5.54-7.05-8.164-1.55-1.742-3.017-3.92-4.865-5.326a26.642,26.642,0,0,0-3.664-1.984l-5.923-3.184a49.261,49.261,0,0,0-7.271-2.679,82.445,82.445,0,0,0-16.681-3.508c-1.2-.116-2.394-.044-3.594-.118a39.614,39.614,0,0,0-4.267-.326A28.855,28.855,0,0,0,1516.123,2716.537Z" fill="#f0ebd5"/>
      <path id="Path_402" data-name="Path 402" d="M1533.115,2821.871a49.468,49.468,0,0,0,8.793-1.06c2.174-.564,4.223-1.628,6.449-1.977-3.388,2.872-7.467,3.662-11.768,3.98a28.85,28.85,0,0,1-3.543.183A4.42,4.42,0,0,1,1533.115,2821.871Z" fill="#f4eee0"/>
      <path id="Path_403" data-name="Path 403" d="M1538.276,2818.363c-1.583.763-4.561.572-6.309.582a27.627,27.627,0,0,1-5.8-.828c-6.126-1.253-10.691-3.085-15.22-7.585-1.634-1.623-5.062-6.63-5.077-8.921l.158-.148c.03.273-.015.163.132.384,1.552,2.331,2.026,5.086,3.971,7.278a21.421,21.421,0,0,0,4.073,3.273,36.4,36.4,0,0,0,4.282,2.746,26.481,26.481,0,0,0,6.823,2.05,38.147,38.147,0,0,0,7.634.871l5.432-.7c1.336-.222,4.051-1.372,5.275-1.035l.04.258C1542.47,2817.623,1539.839,2817.915,1538.276,2818.363Z"/>
      <path id="Path_404" data-name="Path 404" d="M1533.046,2823a34.7,34.7,0,0,1-4.459.37,23.427,23.427,0,0,1-5.255-1.056,40.873,40.873,0,0,1-4.848-1.563,43.449,43.449,0,0,1-14.313-10.309,29.589,29.589,0,0,1-7.757-21.547c.442-10.288,5.984-20.475,13.552-27.337.647-.586,2.591-2.221,3.413-2.181l.019.172-2.614,2.034c-5.662,4.581-10.342,12.2-12.338,19.156a53.514,53.514,0,0,0-1.5,8.64,17.505,17.505,0,0,0,.207,4.087,25.468,25.468,0,0,0,1.636,6.929,40.6,40.6,0,0,0,4.058,7.648c3.993,5.57,9.642,8.905,15.773,11.644.9.4,1.86.639,2.756,1.026a9.088,9.088,0,0,0,1.917.351,53.08,53.08,0,0,0,9.824.81A4.42,4.42,0,0,0,1533.046,2823Z"/>
      <path id="Path_405" data-name="Path 405" d="M1537.943,2813.62a35.141,35.141,0,0,1-7.3.466,33.788,33.788,0,0,1-7.429-1.574,24.5,24.5,0,0,1-13.664-11.7,24.9,24.9,0,0,1-1.468-19.371c2.138-6.58,8.443-13.265,14.618-16.318,3.484-1.723,7.557-1.526,11.306-1.133a19.909,19.909,0,0,1,4.427.759c5.588,1.907,10.824,5.734,13.45,11.121.873,1.791,1.326,3.768,2.208,5.545l.061.12c-6.785,4.834-12.694,10.621-16.291,18.244a20.846,20.846,0,0,0-1.868,5.159c-.437,2.493-.709,5.287.819,7.452A8.186,8.186,0,0,0,1537.943,2813.62Z"/>
      <path id="Path_406" data-name="Path 406" d="M1528.5,2589c.71.269,1.771.528,2.212,1.159l2.338,1.3-.162.6c1.128-.22,2.143.484,3.067,1.106l.054.039-.452.435a10.34,10.34,0,0,0,.5,1.818c.2.743.134,1.541.3,2.291.176.775.568,1.49.726,2.275.478,2.368.676,4.849,1.243,7.2.37,1.53,1.75,1.889,1.432,3.791-.157.943.648,1.873.9,2.759a6.2,6.2,0,0,1,.089,1.759c-.025,1.406,1.357,2.554,1.138,3.823a4.411,4.411,0,0,0-.141.889c.122.765.9,1.685,1.123,2.5.2.753.114,1.574.312,2.332.166.638.575,1.2.726,1.842.185.79.06,1.638.245,2.424.158.674.57,1.3.749,1.987.2.768.123,1.582.256,2.362.128.747,1.025,2.294.868,2.914a3.044,3.044,0,0,0,.226,2.563,2.505,2.505,0,0,0,.518.672,6.092,6.092,0,0,1,.4,1.21,7.737,7.737,0,0,0-.132,1.528c.121.7.843,1.442,1.014,2.176a21.683,21.683,0,0,1,.212,2.916,6.735,6.735,0,0,1,1.421,2.168,9.2,9.2,0,0,0-.47,2.33,13.481,13.481,0,0,1,1.765,2.4l-.96,2.28.918.763c.831.73.413,2.495.673,3.442a18.735,18.735,0,0,0,.9,1.764c.436,1.106.566,2.287.921,3.412a28.887,28.887,0,0,1,1.353,4.348l.075.121,1.309,2.631a6.016,6.016,0,0,1,2.286-.485c2.1.431,3.652,2.1,5.359,3.305a119.546,119.546,0,0,1,9.736,7.186,49.68,49.68,0,0,1,8.321,9.635,96.123,96.123,0,0,1,5.027,8.845c3.558,6.9,6.242,13.2,6.29,21.1.019,3.148-.643,6.531-.934,9.685a28.959,28.959,0,0,1-2.719,5.858,53.73,53.73,0,0,1-3.429,4.673,47.305,47.305,0,0,1-3.728,4.644A6.387,6.387,0,0,1,1581,2749a38.534,38.534,0,0,0-3.485-8.818c-1.825-3-4.715-5.54-7.05-8.164-1.55-1.742-3.017-3.92-4.865-5.326a26.642,26.642,0,0,0-3.664-1.984l-5.923-3.184a49.261,49.261,0,0,0-7.271-2.679,82.445,82.445,0,0,0-16.681-3.508c-1.2-.116-2.394-.044-3.594-.118a39.614,39.614,0,0,0-4.267-.326,28.855,28.855,0,0,0-8.073,1.649l-3.056,9.73a28.04,28.04,0,0,1,5.809,3.978c-.11.346-.306,1.341-.6,1.493-.68.353-2.545-.286-3.2-.561a34.9,34.9,0,0,0-6.816-2.271,2.237,2.237,0,0,1-.461-1.783l.637-7.946c-5.494,2.252-11.228,4.661-15.857,8.439-1.663,1.358-3.1,2.984-4.695,4.426-2.765,2.507-5.361,4.827-6.833,8.365-.7,1.678-1.059,3.475-1.707,5.17-.764,2-1.876,3.849-2.658,5.834a37.994,37.994,0,0,0-1.445,5.694c-.423,2-.3,4.065-.73,6.1a29.814,29.814,0,0,0-.582,4.843,28.705,28.705,0,0,0,.486,4.356l-.343-.138a5.032,5.032,0,0,1-1.668-.585,22.123,22.123,0,0,1-5.145-3.253,39.233,39.233,0,0,1-5.01-5.6c-1.522-1.906-3.275-3.81-4.629-5.827a59.446,59.446,0,0,1-3.616-6.642c-3-6-5.983-12.6-6.595-19.353a93.828,93.828,0,0,1,.191-11.76c.03-.8-.119-1.575-.012-2.377a39.223,39.223,0,0,1,1.557-5.391c1.552-5.485,2.435-11.455,6.2-15.968a5.646,5.646,0,0,0,1.422-1.667l2.152-2.853a18.232,18.232,0,0,1,.481-3.823c.109-1.022-.3-2.064-.207-3.112.079-.932.479-1.8.569-2.727.114-1.176-.149-2.377,0-3.554l1.415-10.316c.139-1.022.43-2.055.526-3.076.068-.727-.27-1.446-.235-2.165.041-.847.631-1.7.729-2.566.076-.668-.092-1.367-.029-2.048.082-.878.479-1.714.57-2.593.086-.835.006-1.673.11-2.51.106-.864.378-1.719.456-2.576.063-.687-.065-1.381.021-2.067.129-1.026.734-1.95.891-2.974.1-.69-.056-1.4,0-2.1a7.523,7.523,0,0,1,.694-2.126c.514-1.257-.415-2.655.059-3.675a11.074,11.074,0,0,0,.948-2.017c.058-.576-.555-1.376-.471-2.012.123-.93.982-1.862,1.133-2.768.112-.669-.462-1.535-.366-2.267.093-.708.864-1.865.833-2.468-.035-.7-.658-1.262-.57-2.109.09-.883.8-1.67.906-2.478.079-.584-.4-1.411-.326-2.094.071-.716.5-1.38.607-2.1.1-.677-.051-1.4.016-2.089a55.79,55.79,0,0,1,.971-5.855c.023-.992.263-1.892.348-2.853.066-.741-.125-1.336.262-1.992l.638.106c1.527,2.172,3.392,4.128,4.836,6.34l13,21.1a52.8,52.8,0,0,0,1.67-8.735l.494.72.753-1.876.055-.171.3.033c.311.527.117,1,.036,1.591l.239.289c.369-.487.81-1.711,1.261-1.937a1.631,1.631,0,0,0,.635.87,5.391,5.391,0,0,0,.637-.871l.209.061.252.706.251.069-.117-1.211c.27-.566.628-.611,1.172-.859a52.854,52.854,0,0,0,5.754,7.842c3.239-2.579,5.445-6.171,8.1-9.322l7.206-8.213,10.084-12.634a30.688,30.688,0,0,0,.771-4.3c-.021-.586-.391-1.231-.385-1.779C1527.117,2591.04,1528.151,2589.6,1528.5,2589Zm2.165,85.815a26.677,26.677,0,0,1,1.948,3.475c1.2,2.31,2.281,4.557,3.255,6.971a27.961,27.961,0,0,0,2.262,5.127,2.115,2.115,0,0,1,.256.538l.378,1.268a34.2,34.2,0,0,0,1.653,5.463l1.4,4.784,7.524-5.346a23.444,23.444,0,0,1,1.82,3.581c-.2.521-.618.444-.815.787-.023.04.058.209.038.258a3.756,3.756,0,0,1-.575.608c-.274.006-.21.047-.453-.148l-.65.451.1.166.415-.179a2.2,2.2,0,0,1-.952,1l-.4.2-.21-.324a29.855,29.855,0,0,1-3.128,2.348,25.016,25.016,0,0,0-3,1.946l-1.1.8c-.4-.181-.7-.712-.957-1.06-1.1-1.493-1.942-3.115-2.909-4.695l-2.337-3.546-1.107-1.8c-1.272-2.023-2.837-3.954-4.236-5.9-1.765-2.45-3.367-5.354-5.7-7.294-.325.008-.977.057-1.222-.218s-.127-1.193-.278-1.543c-.287-.666-2.344-1.923-2.95-2.448l-4.218-3.965.636,3.332c.164,1.1.2,2.306.462,3.371.385,1.574,1,3.151,1.31,4.754a43.63,43.63,0,0,1,.52,5.453l.129,1.744.094,9.8-.08,1.877-1.463,10.072a28.855,28.855,0,0,1,8.073-1.649,39.614,39.614,0,0,1,4.267.326c1.2.074,2.393,0,3.594.118a82.445,82.445,0,0,1,16.681,3.508,49.261,49.261,0,0,1,7.271,2.679l5.923,3.184a26.642,26.642,0,0,1,3.664,1.984c1.848,1.406,3.315,3.584,4.865,5.326,2.335,2.624,5.225,5.164,7.05,8.164a2.516,2.516,0,0,0,1.526-1.144,25.376,25.376,0,0,0,2.661-6.076,41.739,41.739,0,0,0,2.087-7.27,35.929,35.929,0,0,0,.216-4.367,10.593,10.593,0,0,0,.16-1.8c-.183-.709-.186-1.466-.321-2.191a90.835,90.835,0,0,0-1.859-9.174,16.636,16.636,0,0,0-2.39-5.405l-.009-.058c-1.006-2.525-3.287-4.716-4.858-6.9-1.189-1.653-2.309-3.364-3.629-4.917a45.5,45.5,0,0,0-8.111-7.308,26.58,26.58,0,0,0-3.161-2.147,47.527,47.527,0,0,0-5.068-1.939l-8.61-3.2c-1.619-.562-3.356-.872-4.949-1.471-.519-.2-.912-.584-1.437-.773l-.432.431-5.175-1.541c-1.022-.226-3.056-.657-3.962-.082l-.164.744A2.571,2.571,0,0,0,1530.663,2674.815Zm-33.552,1.778a16.535,16.535,0,0,0-4.408,1.573,6.517,6.517,0,0,0-1.721.98c-.556.978-1.43,1.745-2.074,2.672a34.052,34.052,0,0,0-2.987,5.759,31.122,31.122,0,0,0-4.3,2.627c-.145.107-.079.089-.189.1a6.021,6.021,0,0,0-1.938,1.518,24.834,24.834,0,0,0-2.253,2.346c-1.506,1.875-3.175,4.987-5.6,5.7l-.095.123c-.52.663-1.168,1.183-1.7,1.826-.725.879-.921,1.661-2.121,2.011-.014.733-.526,1.122-.977,1.681l-.748-.031a1.082,1.082,0,0,0,.241.76c-.7,1.15-2.5,2.509-2.6,3.865.277.293.284.334.678.4l.4-.362.275.167a9.592,9.592,0,0,1-.189,2.148,10.5,10.5,0,0,0-.569,2.045,7.07,7.07,0,0,1-1.212,2.75,1.482,1.482,0,0,1,.242.711c-.1.721.225,1.3.189,2.039l.435.284-.834,3.377c-.254.89-1.356,2.686-1.21,3.48a10.739,10.739,0,0,1,1.1.424,5.838,5.838,0,0,1,.576,1.265l.061.158-.081.106a3.582,3.582,0,0,0-.573,1.625l.116-.013c.225-.437.416-.99.868-1.227l.251.233a11.221,11.221,0,0,1-1.505,2.6l2.133-1.956.724,6.26c.206,1.666,1.14,5.075.134,6.532l-.147-.063-.489-.163a2.756,2.756,0,0,0-.866,1.034l.153.364.131.025c.109,1.1-.762,2.2-1.278,3.141l-.271.452a23.5,23.5,0,0,0,5,8.847c1.041,1.115,2.268,2.077,3.372,3.131s2.073,2.274,3.252,3.28c.43-2.037.307-4.1.73-6.1a37.994,37.994,0,0,1,1.445-5.694c.782-1.985,1.894-3.834,2.658-5.834.648-1.695,1.009-3.492,1.707-5.17,1.472-3.538,4.068-5.858,6.833-8.365,1.59-1.442,3.032-3.068,4.695-4.426,4.629-3.778,10.363-6.187,15.857-8.439a43.642,43.642,0,0,0,.314-6.237l.332-5.437a37.146,37.146,0,0,0-1.532-11.208c-.685-2.253-1.655-4.454-2.467-6.668l-.6-1.619ZM1528.5,2589c-.347.6-1.381,2.04-1.387,2.7-.006.548.364,1.193.385,1.779a30.688,30.688,0,0,1-.771,4.3,3.429,3.429,0,0,1,1.894,2.007l.054.18.191.569a5.164,5.164,0,0,1,.683.61,36.175,36.175,0,0,0-2.379,3.313,3.763,3.763,0,0,0-.574,1.095l-5.875,57.576a32.826,32.826,0,0,1,3.159,2.733c.521.554,1.127,1.693,1.758,2.044l.164-.227a18.121,18.121,0,0,1-1.148-1.642c-.339-.617-.472-1.276-1.052-1.721a2.831,2.831,0,0,1,.461-1.194,32.52,32.52,0,0,1,4.714-.4,32.1,32.1,0,0,1,3.439.581,77.893,77.893,0,0,1,17.005,4.416c1.928.765,3.562,2.251,5.561,2.834a28.887,28.887,0,0,0-1.353-4.348c-.355-1.125-.485-2.306-.921-3.412a18.735,18.735,0,0,1-.9-1.764c-.26-.947.158-2.712-.673-3.442l-.918-.763.96-2.28a13.481,13.481,0,0,0-1.765-2.4,9.2,9.2,0,0,1,.47-2.33,6.735,6.735,0,0,0-1.421-2.168,21.683,21.683,0,0,0-.212-2.916c-.171-.734-.893-1.476-1.014-2.176a7.737,7.737,0,0,1,.132-1.528,6.092,6.092,0,0,0-.4-1.21,2.505,2.505,0,0,1-.518-.672,3.044,3.044,0,0,1-.226-2.563c.157-.62-.74-2.167-.868-2.914-.133-.78-.058-1.594-.256-2.362-.179-.691-.591-1.313-.749-1.987-.185-.786-.06-1.634-.245-2.424-.151-.639-.56-1.2-.726-1.842-.2-.758-.107-1.579-.312-2.332-.221-.81-1-1.73-1.123-2.5a4.411,4.411,0,0,1,.141-.889c.219-1.269-1.163-2.417-1.138-3.823a6.2,6.2,0,0,0-.089-1.759c-.256-.886-1.061-1.816-.9-2.759.318-1.9-1.062-2.261-1.432-3.791-.567-2.347-.765-4.828-1.243-7.2-.158-.785-.55-1.5-.726-2.275-.171-.75-.107-1.548-.3-2.291a10.34,10.34,0,0,1-.5-1.818l.452-.435-.054-.039c-.924-.622-1.939-1.326-3.067-1.106l.162-.6-2.338-1.3C1530.269,2589.528,1529.208,2589.269,1528.5,2589Zm-59.851,19.729a55.79,55.79,0,0,0-.971,5.855c-.067.687.08,1.412-.016,2.089-.1.724-.536,1.388-.607,2.1-.069.683.405,1.51.326,2.094-.11.808-.816,1.595-.906,2.478-.088.847.535,1.414.57,2.109.031.6-.74,1.76-.833,2.468-.1.732.478,1.6.366,2.267-.151.906-1.01,1.838-1.133,2.768-.084.636.529,1.436.471,2.012a11.074,11.074,0,0,1-.948,2.017c-.474,1.02.455,2.418-.059,3.675a7.523,7.523,0,0,0-.694,2.126c-.055.693.106,1.406,0,2.1-.157,1.024-.762,1.948-.891,2.974-.086.686.042,1.38-.021,2.067-.078.857-.35,1.712-.456,2.576-.1.837-.024,1.675-.11,2.51-.091.879-.488,1.715-.57,2.593-.063.681.1,1.38.029,2.048-.1.862-.688,1.719-.729,2.566-.035.719.3,1.438.235,2.165-.1,1.021-.387,2.054-.526,3.076l-1.415,10.316c-.151,1.177.112,2.378,0,3.554-.09.926-.49,1.795-.569,2.727-.088,1.048.316,2.09.207,3.112a18.232,18.232,0,0,0-.481,3.823l6.909-6.288c1.181-1.076,2.258-2.281,3.516-3.269a88.527,88.527,0,0,1,7.7-5.134c2.524-1.587,5.015-3.234,7.672-4.595a30.086,30.086,0,0,1,4.063-1.777c1.233-.411,2.936-.577,4.023-1.245-.164-2.39-1.973-4.463-2.758-6.7a90.2,90.2,0,0,1-2.686-9.815,49.181,49.181,0,0,1-1.123-7.111l-.146-2.487a1.213,1.213,0,0,0-.646-1.5,19.627,19.627,0,0,1-1.623-1.767,50.043,50.043,0,0,1-3.978-6.62l-8.684-18.266Zm57.947-3.175-19.65,29.374c1.7,3.723,3.758,7.182,5.232,11.022l3.294,9.188,1.021,3.215a8.516,8.516,0,0,0,.365,1.55,5.334,5.334,0,0,0,.92.815l2.943,2.412ZM1478.3,2682.31l-4.22,3.178c-1.208.891-2.94,1.848-3.581,3.256a2.453,2.453,0,0,0,.779,1.213,1.152,1.152,0,0,0,.768-.174,46.356,46.356,0,0,0,4.226-3.058,16.625,16.625,0,0,0,3.6-3.1,1.3,1.3,0,0,0-.117-1.124,1.443,1.443,0,0,0-.31-.319A2.348,2.348,0,0,0,1478.3,2682.31Zm-19.511,54.019a2.744,2.744,0,0,0-.312,2.341c.558,2.485,1.357,5.232,3.49,6.833a3.991,3.991,0,0,0,1.018-.3c.275-.32.52-.526.492-.99-.068-1.078-1.005-2.082-1.48-3.021-.641-1.266-.886-2.733-1.53-3.96a1.741,1.741,0,0,0-.548-.67A1.131,1.131,0,0,0,1458.791,2736.329Zm13.428-41.652c-1.726,1.776-4.78,4.131-5.589,6.482a1.825,1.825,0,0,0,.635,1.024,2.028,2.028,0,0,0,.855-.179,9.561,9.561,0,0,0,2.286-2.315c1.082-1.22,2.275-2.374,3.25-3.681.073-.444.132-.707-.207-1.078a2.169,2.169,0,0,0-.536-.363A6.455,6.455,0,0,0,1472.219,2694.677Zm-14.374,9.59c-.776,1.509-2.589,6.5-2.414,8.15a2.468,2.468,0,0,0,1.2.632l.418-.207c.588-1.288,1.046-2.6,1.528-3.932a11.545,11.545,0,0,0,1.006-3.956c-.29-.553-.3-.619-.856-.875A1.75,1.75,0,0,0,1457.845,2704.267Zm-2.216,17.894c-.75,1.059-.42,3.029-.432,4.328a13.131,13.131,0,0,0,.049,2.51,1.684,1.684,0,0,0,.713,1.21l.358.162.495-.279c.8-1.147.6-2.765.633-4.111a12.066,12.066,0,0,0-.063-2.888,2.13,2.13,0,0,0-.451-.9A1.733,1.733,0,0,0,1455.629,2722.161Zm35.353-43.015a6.517,6.517,0,0,1,1.721-.98,16.535,16.535,0,0,1,4.408-1.573,3.435,3.435,0,0,0-.963-1.657,2.051,2.051,0,0,0-.954.067c-.795.3-1.491.873-2.284,1.2-.959.4-2.376.576-3.187,1.178a1.826,1.826,0,0,0-.471.6,2.056,2.056,0,0,0,.532,1.176A8.719,8.719,0,0,0,1490.982,2679.146Zm31.583-71.878a14.887,14.887,0,0,0-2.879,3.328,4.537,4.537,0,0,0-.969,1.632,1.2,1.2,0,0,0,.437.414c1.189-.466,1.972-2.182,2.61-3.208a12.291,12.291,0,0,0,1.053-1.761l.1-.348Z"/>
      <path id="Path_407" data-name="Path 407" d="M1522.565,2607.268l.355.057-.1.348a12.291,12.291,0,0,1-1.053,1.761c-.638,1.026-1.421,2.742-2.61,3.208a1.2,1.2,0,0,1-.437-.414,4.537,4.537,0,0,1,.969-1.632A14.887,14.887,0,0,1,1522.565,2607.268Z"/>
      <path id="Path_408" data-name="Path 408" d="M1514.029,2621.507c1.726-2.063,2.652-4.676,4.752-6.453-.686,2.662-2.736,4.729-4.256,6.952a55.792,55.792,0,0,1-4.57,5.743,47.311,47.311,0,0,1-3.8,4.9,15.4,15.4,0,0,1,1.826-3.177C1509.677,2626.841,1511.7,2623.632,1514.029,2621.507Z"/>
      <path id="Path_409" data-name="Path 409" d="M1528.5,2589c.71.269,1.771.528,2.212,1.159l2.338,1.3-.162.6-.073.947a8.9,8.9,0,0,1-1.263,5.322c-.57.946-1.3,1.794-1.815,2.769l-5.674,62.033a2.831,2.831,0,0,0-.461,1.194c.58.445.713,1.1,1.052,1.721a18.121,18.121,0,0,0,1.148,1.642l-.164.227c-.631-.351-1.237-1.49-1.758-2.044a32.826,32.826,0,0,0-3.159-2.733l5.875-57.576a3.763,3.763,0,0,1,.574-1.095,36.175,36.175,0,0,1,2.379-3.313,5.164,5.164,0,0,0-.683-.61l-.191-.569-.054-.18a3.429,3.429,0,0,0-1.894-2.007,30.688,30.688,0,0,0,.771-4.3c-.021-.586-.391-1.231-.385-1.779C1527.117,2591.04,1528.151,2589.6,1528.5,2589Z"/>
      <path id="Path_410" data-name="Path 410" d="M1522,2658.721l.167.029a21.1,21.1,0,0,0,1.04,2.844,1.037,1.037,0,0,1-.059,1.073l-.489.324-.316-.112A9.005,9.005,0,0,1,1522,2658.721Z"/>
      <path id="Path_411" data-name="Path 411" d="M1530.71,2590.159l2.338,1.3-.162.6-.073.947a1.582,1.582,0,0,0-.618-.289c-.28-.051-1.132.715-1.4.908Z"/>
      <path id="Path_412" data-name="Path 412" d="M1497.111,2676.593l7.369,11.415.6,1.619c.812,2.214,1.782,4.415,2.467,6.668a37.146,37.146,0,0,1,1.532,11.208l-.332,5.437a43.642,43.642,0,0,1-.314,6.237c-5.494,2.252-11.228,4.661-15.857,8.439-1.663,1.358-3.1,2.984-4.695,4.426-2.765,2.507-5.361,4.827-6.833,8.365-.7,1.678-1.059,3.475-1.707,5.17-.764,2-1.876,3.849-2.658,5.834a37.994,37.994,0,0,0-1.445,5.694c-.423,2-.3,4.065-.73,6.1-1.179-1.006-2.135-2.213-3.252-3.28s-2.331-2.016-3.372-3.131a23.5,23.5,0,0,1-5-8.847l.271-.452c.516-.938,1.387-2.043,1.278-3.141l-.131-.025-.153-.364a2.756,2.756,0,0,1,.866-1.034l.489.163.147.063c1.006-1.457.072-4.866-.134-6.532l-.724-6.26-2.133,1.956a11.221,11.221,0,0,0,1.505-2.6l-.251-.233c-.452.237-.643.79-.868,1.227l-.116.013a3.582,3.582,0,0,1,.573-1.625l.081-.106-.061-.158a5.838,5.838,0,0,0-.576-1.265,10.739,10.739,0,0,0-1.1-.424c-.146-.794.956-2.59,1.21-3.48l.834-3.377-.435-.284c.036-.735-.287-1.318-.189-2.039a1.482,1.482,0,0,0-.242-.711,7.07,7.07,0,0,0,1.212-2.75,10.5,10.5,0,0,1,.569-2.045,9.592,9.592,0,0,0,.189-2.148l-.275-.167-.4.362c-.394-.064-.4-.1-.678-.4.108-1.356,1.906-2.715,2.6-3.865a1.082,1.082,0,0,1-.241-.76l.748.031c.451-.559.963-.948.977-1.681,1.2-.35,1.4-1.132,2.121-2.011.531-.643,1.179-1.163,1.7-1.826l.095-.123c2.428-.717,4.1-3.829,5.6-5.7a24.834,24.834,0,0,1,2.253-2.346,6.021,6.021,0,0,1,1.938-1.518c.11-.015.044,0,.189-.1a31.122,31.122,0,0,1,4.3-2.627,34.052,34.052,0,0,1,2.987-5.759c.644-.927,1.518-1.694,2.074-2.672a6.517,6.517,0,0,1,1.721-.98A16.535,16.535,0,0,1,1497.111,2676.593Zm-27.671,66.452c-.827.527-1.058.832-2.073.709l.012,2.388.117.273a6.451,6.451,0,0,0,.745,2.53,1.861,1.861,0,0,0,.787.418c.427.062.481-.015.821-.272a5.245,5.245,0,0,0,.014-2.4Zm-5.554-22.754-.834,3.377a.977.977,0,0,1,.945-.2,5.9,5.9,0,0,0,.984,1.012,1.27,1.27,0,0,1,.179.222,8.064,8.064,0,0,0,.439-1.627c.4-1.506,1.09-3.193.812-4.76l-.41-.286a1.543,1.543,0,0,0,.147.807l.1.172-.1.377c-.56.32-1.055,1.1-1.611,1.27a1.227,1.227,0,0,0-.425-.743Zm-.834,3.377c-.254.89-1.356,2.686-1.21,3.48a6.492,6.492,0,0,0,2.833-.34l.485-2.108a1.27,1.27,0,0,0-.179-.222,5.9,5.9,0,0,1-.984-1.012A.977.977,0,0,0,1463.052,2723.668Zm4.315,20.086c1.015.123,1.246-.182,2.073-.709-.02-.6.067-1.109-.387-1.572a2.171,2.171,0,0,0-.471-.311c-.548.238-.9.34-1.111.961A5.509,5.509,0,0,0,1467.367,2743.754Z" fill="#fab017"/>
      <path id="Path_413" data-name="Path 413" d="M1464.433,2744.356a4.28,4.28,0,0,0,.312.947l.113.018a9.886,9.886,0,0,1,2.521.821l.117.273a2.811,2.811,0,0,1-2.33,1.062c-.241-.01-.143,0-.371-.091a4,4,0,0,0-1.64.111C1463.671,2746.559,1464.542,2745.454,1464.433,2744.356Z" fill="#d07713"/>
      <path id="Path_414" data-name="Path 414" d="M1505.083,2689.627c-1.009.314-3.691,1.128-4.659.645a1.218,1.218,0,0,1-.772-1l.265-.458.387.388.352-.017c.151-.373.171-.352.025-.722l.221-.237a20.214,20.214,0,0,1,3.578-.218Z"/>
      <path id="Path_415" data-name="Path 415" d="M1463.886,2720.291l.225-.381a1.227,1.227,0,0,1,.425.743c.556-.17,1.051-.95,1.611-1.27l.1-.377-.1-.172a1.543,1.543,0,0,1-.147-.807l.41.286c.278,1.567-.41,3.254-.812,4.76a8.064,8.064,0,0,1-.439,1.627,1.27,1.27,0,0,0-.179-.222,5.9,5.9,0,0,1-.984-1.012.977.977,0,0,0-.945.2Z"/>
      <path id="Path_416" data-name="Path 416" d="M1482.585,2722.926l.133.01c.414.144.514.506.706.861a8.831,8.831,0,0,1-1.469,3.916c-.439.722-.723.779-1.518.968a1.316,1.316,0,0,1-.888-.129l0-.376A10.855,10.855,0,0,1,1482.585,2722.926Z"/>
      <path id="Path_417" data-name="Path 417" d="M1484.952,2697.849a1.053,1.053,0,0,1,.3-.083c.455-.053.6.117.913.389a2.051,2.051,0,0,1,.008.8c-.5,1.162-3.391,2.628-4.592,3.067a1.683,1.683,0,0,1-1.278-.35,1.415,1.415,0,0,1,.054-.36C1480.861,2699.753,1483.618,2698.54,1484.952,2697.849Z"/>
      <path id="Path_418" data-name="Path 418" d="M1499.7,2708.146a2.964,2.964,0,0,1,.62-.175c.463.327.595.339.759.9-1.293,2-3.522,3.791-5.23,5.474l-.416.213c-.439-.105-.487-.059-.746-.453,1.185-.577,1.466-2.219,2.2-3.192a1.483,1.483,0,0,0,.326-.607c.1-.445.981-1.019,1.35-1.338a1.429,1.429,0,0,0,1.058-.228Z"/>
      <path id="Path_419" data-name="Path 419" d="M1469.44,2743.045l.423,3.649a5.245,5.245,0,0,1-.014,2.4c-.34.257-.394.334-.821.272a1.861,1.861,0,0,1-.787-.418,6.451,6.451,0,0,1-.745-2.53l-.117-.273-.012-2.388C1468.382,2743.877,1468.613,2743.572,1469.44,2743.045Z"/>
      <path id="Path_420" data-name="Path 420" d="M1497.822,2696.986a1.962,1.962,0,0,1,1.108.512c.118.38.217.522-.008.894a4.535,4.535,0,0,1-1.307,1.037c-1.141.788-2.669,2.148-3.977,2.5a2.039,2.039,0,0,1-1.078-.272l-.116-.423a16.269,16.269,0,0,1,3.823-3.306,2.29,2.29,0,0,0,1.438-.256C1497.848,2697.572,1497.811,2697.163,1497.822,2696.986Z"/>
      <path id="Path_421" data-name="Path 421" d="M1473.819,2716.53a1.211,1.211,0,0,1,.849-.005,1.4,1.4,0,0,1,.344,1.187,8.129,8.129,0,0,1-2.517,4.554c-.637.123-.7.2-1.248-.128a1.67,1.67,0,0,1-.069-.6A9.349,9.349,0,0,1,1473.819,2716.53Z"/>
      <path id="Path_422" data-name="Path 422" d="M1485.921,2687.577l-.352,1.116a4.123,4.123,0,0,0,1.245-.484c.286-.442.293-.564.807-.739a1.623,1.623,0,0,1,.491.5,1.461,1.461,0,0,0,1.254-.427,1.284,1.284,0,0,1-.084.926c-1.145,1.08-3.147,1.5-4.573,2.146-.771.352-1.794,1.173-2.637,1.149-.194-.006-.3-.234-.426-.374l-.209-1.081c.11-.015.044,0,.189-.1A31.122,31.122,0,0,1,1485.921,2687.577Z"/>
      <path id="Path_423" data-name="Path 423" d="M1487.448,2709.816l.456-.076c.435.349.521.352.65.918a8.118,8.118,0,0,1-1.6,1.959,19.4,19.4,0,0,1-3.705,3.243,2.067,2.067,0,0,1-1.1-.522l-.039-.358A16.742,16.742,0,0,1,1487.448,2709.816Z"/>
      <path id="Path_424" data-name="Path 424" d="M1473.971,2706.724l.32-.065a1.274,1.274,0,0,1,.872.636c-.246,2.175-2.3,4.765-3.887,6.148l-.1.028a.729.729,0,0,1-1.125-.742C1470.148,2711.489,1472.9,2707.593,1473.971,2706.724Z"/>
      <path id="Path_425" data-name="Path 425" d="M1469.965,2726.909l.565-.125c.281.2.538.3.6.676a11.46,11.46,0,0,1-.566,2.79c-.232,1.308-.221,2.747-.562,4.016a3.548,3.548,0,0,1-.706,1.339,2.842,2.842,0,0,1-.644-.043,1.447,1.447,0,0,1-.575-.9,7.453,7.453,0,0,1,.24-2.641A12.718,12.718,0,0,1,1469.965,2726.909Z"/>
      <path id="Path_426" data-name="Path 426" d="M1530.663,2674.815a2.571,2.571,0,0,1-.637-1.228l.164-.744c.906-.575,2.94-.144,3.962.082l5.175,1.541.432-.431c.525.189.918.578,1.437.773,1.593.6,3.33.909,4.949,1.471l8.61,3.2a47.527,47.527,0,0,1,5.068,1.939,26.58,26.58,0,0,1,3.161,2.147,45.5,45.5,0,0,1,8.111,7.308c1.32,1.553,2.44,3.264,3.629,4.917,1.571,2.185,3.852,4.376,4.858,6.9l.009.058a16.636,16.636,0,0,1,2.39,5.405,90.835,90.835,0,0,1,1.859,9.174c.135.725.138,1.482.321,2.191a10.593,10.593,0,0,1-.16,1.8,35.929,35.929,0,0,1-.216,4.367,41.739,41.739,0,0,1-2.087,7.27,25.376,25.376,0,0,1-2.661,6.076,2.516,2.516,0,0,1-1.526,1.144c-1.825-3-4.715-5.54-7.05-8.164-1.55-1.742-3.017-3.92-4.865-5.326a26.642,26.642,0,0,0-3.664-1.984l-5.923-3.184a49.261,49.261,0,0,0-7.271-2.679,82.445,82.445,0,0,0-16.681-3.508c-1.2-.116-2.394-.044-3.594-.118a39.614,39.614,0,0,0-4.267-.326,28.855,28.855,0,0,0-8.073,1.649l1.463-10.072.08-1.877-.094-9.8-.129-1.744a43.63,43.63,0,0,0-.52-5.453c-.307-1.6-.925-3.18-1.31-4.754-.261-1.065-.3-2.274-.462-3.371l-.636-3.332,4.218,3.965c.606.525,2.663,1.782,2.95,2.448.151.35.021,1.257.278,1.543s.9.226,1.222.218c2.335,1.94,3.937,4.844,5.7,7.294,1.4,1.942,2.964,3.873,4.236,5.9l1.107,1.8,2.337,3.546c.967,1.58,1.8,3.2,2.909,4.695.258.348.561.879.957,1.06l1.1-.8a25.016,25.016,0,0,1,3-1.946,29.855,29.855,0,0,0,3.128-2.348l.21.324.4-.2a2.2,2.2,0,0,0,.952-1l-.415.179-.1-.166.65-.451c.243.2.179.154.453.148a3.756,3.756,0,0,0,.575-.608c.02-.049-.061-.218-.038-.258.2-.343.614-.266.815-.787a23.444,23.444,0,0,0-1.82-3.581l-7.524,5.346-1.4-4.784a34.2,34.2,0,0,1-1.653-5.463l-.378-1.268a2.115,2.115,0,0,0-.256-.538,27.961,27.961,0,0,1-2.262-5.127c-.974-2.414-2.054-4.661-3.255-6.971A26.677,26.677,0,0,0,1530.663,2674.815Zm0,0a18.14,18.14,0,0,1,2.667.27c1.319.3,5.715,2.314,6.761,1.438a4.759,4.759,0,0,0,.621-.679c-.008-.181.035-.47-.1-.593a5.192,5.192,0,0,0-1.286-.785l-5.175-1.541c-1.022-.226-3.056-.657-3.962-.082l-.164.744A2.571,2.571,0,0,0,1530.663,2674.815Zm49.33,32.5-1.109-2.876c-.653-1.276-1.594-3.772-2.691-4.63a2.1,2.1,0,0,0-1.366.587l-.215.46c.464,1.14,1.238,2.146,1.784,3.251a33.849,33.849,0,0,1,1.5,3.762,6.891,6.891,0,0,0,.441,1.238,1.439,1.439,0,0,0,.371.215,2.141,2.141,0,0,0,1.419-.335A5.262,5.262,0,0,0,1579.993,2707.316Zm-6.256,7.532c-.646,1.383-.178,3.007-.226,4.475-.042,1.278-.763,3.1-.289,4.322a1.3,1.3,0,0,0,.809.822l.264-.24a14.744,14.744,0,0,0,.74-5.881,24.563,24.563,0,0,0-.025-3.2,1.109,1.109,0,0,0-.957-.4A.757.757,0,0,0,1573.737,2714.848Zm-9.339-10.53a1.921,1.921,0,0,0-.332,1.521c.166.731,1.136,1.63,1.559,2.258.709,1.049,1.052,2.423,2.03,3.247a1.222,1.222,0,0,0,.589-.274c.255-.378.687-.812.593-1.283a6.07,6.07,0,0,0-.736-1.486,13.151,13.151,0,0,0-3.172-4.078Zm-14.987-11.67-.428.746c.265.641.909.818,1.507,1.148a40.211,40.211,0,0,0,3.935,2.008,6.684,6.684,0,0,0,1.446.444,1.665,1.665,0,0,0,.339-1.146c-1.338-1.306-4.449-3.4-6.415-3.392Zm28.3,37.153c-1.292,1.477-1.63,4.47-1.51,6.358a1.171,1.171,0,0,0,.466.866l.323.224.314-.331c.758-1.647,2.066-4.967,1.617-6.722-.371-.289-.53-.547-1.031-.453Zm-41.7-48.643c-.278.4-.457.538-.446,1.039.881.486,6.169,1.854,6.98,1.665.367-.084.478-.547.634-.855l-.139-.436a5.764,5.764,0,0,0-2.179-.713l-.2.1c-.622.261-1.149-.207-1.812-.057l.056.518c-.432.239-.683.434-1.195.254a3.578,3.578,0,0,1-.7-.4l-.036-.433.268-.293-.493-.514A3.026,3.026,0,0,0,1536.015,2681.158Zm26.582,4.475c-.344.339-.572.467-.676.947a29.7,29.7,0,0,0,3.969,4.03,14.258,14.258,0,0,0-1.137-2.063l.181-.209.262-.013.593.113.366,1.776c.39-.213.4-.427.561-.829-.327-1.244-2.534-3.228-3.6-3.86Zm2.377,9.6.122-1.421.02-.269a7.588,7.588,0,0,0-2.594-2.161l-.077.094.039.1a2.473,2.473,0,0,1-.008,1.4c-.241.088-.26.064-.427.28a20.491,20.491,0,0,1,2.793,2.6Zm2.625,27.089a5.449,5.449,0,0,0-.159,2.989,1.671,1.671,0,0,0,1,.678,1.529,1.529,0,0,0,.463-.564,5.332,5.332,0,0,0,.236-3.007,1.533,1.533,0,0,0-.621.245C1568.281,2722.565,1567.841,2722.291,1567.6,2722.327ZM1541.53,2707.8l-1.1.8a1.47,1.47,0,0,0-.251.693,1.613,1.613,0,0,0,.943.868,4.134,4.134,0,0,0,1.346-.87,16.325,16.325,0,0,1,1.383-1.787l.1-.086c.32-.278.562-.375.592-.8l-.732.183C1542.989,2707.7,1542.711,2707.673,1541.53,2707.8Zm26.378,10.477a2.887,2.887,0,0,0-.35,2.485,1.512,1.512,0,0,0,.188.441c.579-.144.774.089,1.264.365a3.444,3.444,0,0,0,.142-2.2,2.9,2.9,0,0,0-.578-.992C1568.255,2718.225,1568.245,2718.188,1567.908,2718.273Zm-2.812-24.456-.122,1.421a3.013,3.013,0,0,0,1.093,1.908l.309-.012a2.439,2.439,0,0,0,.769-1.328A16.054,16.054,0,0,0,1565.1,2693.817Zm-9.937,16.391a1.728,1.728,0,0,0-.157,1.432,4.752,4.752,0,0,0,1.474,1.4l.405-.186c.177-.484.371-.713.124-1.2a3.652,3.652,0,0,0-1.643-1.447Zm-2.648-27.508-.592.338c-.061.342-.2.6,0,.9a1.722,1.722,0,0,0,.941.555,1.293,1.293,0,0,0,.573-.323l.826-.83A2.764,2.764,0,0,0,1552.511,2682.7Z" fill="#fab017"/>
      <path id="Path_427" data-name="Path 427" d="M1541.53,2707.8c1.181-.123,1.459-.094,2.285-1l.732-.183c-.03.429-.272.526-.592.8l-.1.086a16.325,16.325,0,0,0-1.383,1.787,4.134,4.134,0,0,1-1.346.87,1.613,1.613,0,0,1-.943-.868,1.47,1.47,0,0,1,.251-.693Z"/>
      <path id="Path_428" data-name="Path 428" d="M1564.974,2695.238l-.132.635a20.491,20.491,0,0,0-2.793-2.6c.167-.216.186-.192.427-.28a2.473,2.473,0,0,0,.008-1.4l-.039-.1.077-.094a7.588,7.588,0,0,1,2.594,2.161l-.02.269Z"/>
      <path id="Path_429" data-name="Path 429" d="M1517.666,2704.588a8.612,8.612,0,0,1,2.46-1.027l.139-.04a1.576,1.576,0,0,1,1.054.022l.2.328a3.262,3.262,0,0,1-1.936,1.774l-2,.82Z"/>
      <path id="Path_430" data-name="Path 430" d="M1562.6,2685.633l.519-.108c1.066.632,3.273,2.616,3.6,3.86-.166.4-.171.616-.561.829l-.366-1.776-.593-.113-.262.013-.181.209a14.258,14.258,0,0,1,1.137,2.063,29.7,29.7,0,0,1-3.969-4.03C1562.025,2686.1,1562.253,2685.972,1562.6,2685.633Z"/>
      <path id="Path_431" data-name="Path 431" d="M1536.015,2681.158a3.026,3.026,0,0,1,.739-.125l.493.514-.268.293.036.433a3.578,3.578,0,0,0,.7.4c.512.18.763-.015,1.195-.254l-.056-.518c.663-.15,1.19.318,1.812.057l.2-.1a5.764,5.764,0,0,1,2.179.713l.139.436c-.156.308-.267.771-.634.855-.811.189-6.1-1.179-6.98-1.665C1535.558,2681.7,1535.737,2681.562,1536.015,2681.158Z"/>
      <path id="Path_432" data-name="Path 432" d="M1538.384,2690.926c.348-.407.318-.443.881-.513,1.457.657,4.509,1.729,5.137,3.3-.226.447-.275.44-.7.649-1.679.031-3.43-1.481-4.937-2.168Z"/>
      <path id="Path_433" data-name="Path 433" d="M1517.443,2693.039c2.1-.1,4.727-.3,6.731.425l.2.311c-.146.315-.238.709-.574.866a5.2,5.2,0,0,1-1.6.165,30.243,30.243,0,0,1-4.625-.023Z"/>
      <path id="Path_434" data-name="Path 434" d="M1534.228,2699.294a38.282,38.282,0,0,0-4.232.419,6.326,6.326,0,0,1-2.582.09,2.044,2.044,0,0,1-.8-.938l.223-.4a15.514,15.514,0,0,1,6.288-.973Z"/>
      <path id="Path_435" data-name="Path 435" d="M1549.411,2692.648l.384-.192c1.966-.007,5.077,2.086,6.415,3.392a1.665,1.665,0,0,1-.339,1.146,6.684,6.684,0,0,1-1.446-.444,40.211,40.211,0,0,1-3.935-2.008c-.6-.33-1.242-.507-1.507-1.148Z"/>
      <path id="Path_436" data-name="Path 436" d="M1579.993,2707.316a5.262,5.262,0,0,1,.131,1.672,2.141,2.141,0,0,1-1.419.335,1.439,1.439,0,0,1-.371-.215,6.891,6.891,0,0,1-.441-1.238,33.849,33.849,0,0,0-1.5-3.762c-.546-1.1-1.32-2.111-1.784-3.251l.215-.46a2.1,2.1,0,0,1,1.366-.587c1.1.858,2.038,3.354,2.691,4.63Z"/>
    </g>
    <path id="Path_437" data-name="Path 437" d="M1543.494,2627.893c-.288-.7-133.474-430.668-133.687-431.366a21.438,21.438,0,0,0-1.228-2.045,18.714,18.714,0,0,1-.714-3.68,19.835,19.835,0,0,1-1.724-2.139c-.317-.876.026-2.3.062-3.214l-.1-.19c-.484-.878-1.575-1.89-1.928-2.7-.293-.671-.224-1.746-.484-2.494-.268-.77-.872-1.219-1.193-1.9-.3-.637-.007-1.406-.173-2.088-.421-1.737-2.065-3.188-1.67-5.1a1.046,1.046,0,0,1,.684-.892,1.619,1.619,0,0,1,1.387.049,3.349,3.349,0,0,1,1.344,1.7,20.118,20.118,0,0,0,.736,2.468c.352.425.8.4,1.066.99.394.887.315,1.825.626,2.719.272.781.732,1.493,1,2.269.446,1.276.346,2.689.816,3.952a5.916,5.916,0,0,1,1.348,1.856,8.745,8.745,0,0,1,.193,3.038l-.027.026a3.884,3.884,0,0,0,.468,1.528c1.259,1.468.769,2.521,1.454,4.04.257.57,134.779,430.14,134.945,430.611"/>
  </g>
</svg>
