<?xml version="1.0" encoding="utf-8"?>
<!-- Generator: Adobe Illustrator 26.3.1, SVG Export Plug-In . SVG Version: 6.00 Build 0)  -->
<svg version="1.1" id="Layer_1" xmlns="http://www.w3.org/2000/svg" xmlns:xlink="http://www.w3.org/1999/xlink" x="0px" y="0px"
	 viewBox="0 0 529 328" style="enable-background:new 0 0 529 328;" xml:space="preserve">
<style type="text/css">
	.st0{fill:#FF5F00;}
	.st1{fill:#EB001B;}
	.st2{fill:#F79E1B;}
</style>
<g>
	<g id="Group" transform="translate(133.000000, 48.000000)">
		<g>
			<rect id="Rectangle-path" x="55.9" y="-9.8" class="st0" width="153.3" height="250.1"/>
			<path id="Shape" class="st1" d="M71.4,115.2c0-48.7,22.3-94.8,60.5-125C66.7-61.1-27-53.6-83.2,7.3
				c-56.3,60.9-56.3,154.9,0,215.8s149.9,68.4,215.1,17.1C93.7,210,71.4,163.9,71.4,115.2L71.4,115.2z"/>
			<path id="Shape-2" class="st2" d="M389.5,115.2c0,60.8-34.7,116.4-89.4,143s-119.8,19.6-167.7-18c38.2-30.2,60.5-76.3,60.5-125
				s-22.3-94.8-60.5-125c47.8-37.6,113-44.6,167.7-18C354.8-1.2,389.5,54.4,389.5,115.2L389.5,115.2z"/>
		</g>
	</g>
</g>
</svg>
