<svg xmlns="http://www.w3.org/2000/svg" width="10.588" height="13.411" viewBox="0 0 10.588 13.411">
  <path id="Path_247" data-name="Path 247" d="M579.26,4941.435h-7.973a1.3,1.3,0,0,1-1.307-1.287v-5.531a1.3,1.3,0,0,1,1.307-1.287h.1v-1.5a3.865,3.865,0,0,1,7.73,0v1.5h.145a1.3,1.3,0,0,1,1.308,1.287v5.531A1.3,1.3,0,0,1,579.26,4941.435Zm-4.906-1.865a.1.1,0,0,0,.02.082.1.1,0,0,0,.078.036l1.612.01h0a.1.1,0,0,0,.1-.1.113.113,0,0,0,0-.027l-.433-2.056a1.1,1.1,0,1,0-.944-.015Zm2.86-7.742a1.964,1.964,0,0,0-3.928,0v1.5h3.928Z" transform="translate(-569.98 -4928.024)" fill="#fab017" fill-rule="evenodd"/>
</svg>
