<svg width="57" height="17" viewBox="0 0 57 17" fill="none" xmlns="http://www.w3.org/2000/svg">
<path fill-rule="evenodd" clip-rule="evenodd" d="M14.2506 16.3754H9.31761L5.61846 3.96305C5.44289 3.39208 5.07009 2.88732 4.52171 2.64941C3.15317 2.05155 1.64513 1.57574 0 1.33577V0.857898H7.94666C9.04342 0.857898 9.86598 1.57574 10.0031 2.40944L11.9224 11.3629L16.853 0.857898H21.6489L14.2506 16.3754ZM24.3893 16.3754H19.7305L23.5667 0.85791H28.2255L24.3893 16.3754ZM34.2541 5.1567C34.3912 4.32093 35.2137 3.84306 36.1734 3.84306C37.6814 3.72307 39.3242 3.96304 40.6951 4.55884L41.5177 1.21785C40.1467 0.739972 38.6387 0.5 37.2702 0.5C32.7485 0.5 29.4582 2.6494 29.4582 5.6325C29.4582 7.9019 31.7888 9.09348 33.4339 9.81133C35.2137 10.5271 35.8992 11.005 35.7621 11.7208C35.7621 12.7944 34.3912 13.2723 33.0226 13.2723C31.3775 13.2723 29.7324 12.9144 28.2267 12.3166L27.4042 15.6596C29.0493 16.2554 30.8291 16.4954 32.4743 16.4954C37.5444 16.6133 40.6951 14.466 40.6951 11.2429C40.6951 7.18405 34.2541 6.94615 34.2541 5.1567ZM57.0003 16.3754L53.3012 0.85791H49.3278C48.5053 0.85791 47.6827 1.33579 47.4085 2.05156L40.5586 16.3754H45.3545L46.3117 14.1081H52.2044L52.7528 16.3754H57.0003ZM50.0126 5.03662L51.3812 10.8849H47.5449L50.0126 5.03662Z" fill="white"/>
</svg>
